<svg width="298" height="83" viewBox="0 0 298 83" fill="none" xmlns="http://www.w3.org/2000/svg">
<g filter="url(#filter0_d_105_3)">
<rect width="293" height="78" transform="translate(0.5 0.5)" fill="#E4EDF1"/>
<path d="M16.8774 34.588C17.0694 33.82 17.3094 32.964 17.5974 32.02C17.8854 31.076 18.2294 29.956 18.6294 28.66C19.0454 27.348 19.5254 25.796 20.0694 24.004C20.6134 22.212 21.2454 20.092 21.9654 17.644C21.9974 17.564 22.0294 17.428 22.0614 17.236C22.1094 17.028 22.1334 16.836 22.1334 16.66C22.1334 16.5 22.1014 16.372 22.0374 16.276C21.9894 16.164 21.9014 16.108 21.7734 16.108C21.3894 16.108 21.0214 16.26 20.6694 16.564C20.3334 16.852 20.0374 17.22 19.7814 17.668C19.5414 18.116 19.3494 18.588 19.2054 19.084C19.0614 19.564 18.9894 19.996 18.9894 20.38C18.9894 20.7 19.0294 20.98 19.1094 21.22C18.5814 21.22 18.2054 21.092 17.9814 20.836C17.7734 20.564 17.6694 20.236 17.6694 19.852C17.6694 19.308 17.8294 18.764 18.1494 18.22C18.4694 17.676 18.8774 17.18 19.3734 16.732C19.8694 16.268 20.3894 15.9 20.9334 15.628C21.4934 15.356 22.0054 15.22 22.4694 15.22C22.9494 15.22 23.3414 15.428 23.6454 15.844C23.9654 16.244 24.2214 16.804 24.4134 17.524C24.6054 18.228 24.7654 19.028 24.8934 19.924C25.0214 20.82 25.1414 21.748 25.2534 22.708C25.3494 23.508 25.4454 24.308 25.5414 25.108C25.6374 25.892 25.7334 26.644 25.8294 27.364C25.9254 28.068 26.0134 28.716 26.0934 29.308C26.1734 29.9 26.2454 30.388 26.3094 30.772C26.4214 30.02 26.5814 29.172 26.7894 28.228C27.0134 27.268 27.2534 26.276 27.5094 25.252C27.7814 24.212 28.0614 23.204 28.3494 22.228C28.6374 21.236 28.9014 20.332 29.1414 19.516C29.3974 18.684 29.6134 17.996 29.7894 17.452C29.9814 16.892 30.1094 16.54 30.1734 16.396C30.2534 16.188 30.4374 15.94 30.7254 15.652C31.0134 15.364 31.3334 15.22 31.6854 15.22C31.4134 15.956 31.1014 16.86 30.7494 17.932C30.4134 18.988 30.0694 20.14 29.7174 21.388C29.3654 22.62 29.0214 23.884 28.6854 25.18C28.3494 26.46 28.0454 27.7 27.7734 28.9C27.5174 30.1 27.3094 31.196 27.1494 32.188C27.0054 33.164 26.9254 33.964 26.9094 34.588C26.4134 34.588 26.0054 34.444 25.6854 34.156C25.3814 33.868 25.1654 33.364 25.0374 32.644C24.9574 32.228 24.8534 31.66 24.7254 30.94C24.6134 30.204 24.4854 29.388 24.3414 28.492C24.2134 27.596 24.0774 26.668 23.9334 25.708C23.7894 24.732 23.6454 23.78 23.5014 22.852C23.3734 21.924 23.2534 21.076 23.1414 20.308C23.0294 19.524 22.9334 18.876 22.8534 18.364C22.0854 21.132 21.4294 23.476 20.8854 25.396C20.3414 27.3 19.8774 28.86 19.4934 30.076C19.1254 31.276 18.7974 32.204 18.5094 32.86C18.2214 33.516 17.9494 33.964 17.6934 34.204C17.4374 34.46 17.1654 34.588 16.8774 34.588ZM32.2671 33.124C31.6431 33.124 31.1791 32.924 30.8751 32.524C30.5711 32.14 30.4191 31.668 30.4191 31.108C30.4191 30.74 30.4831 30.276 30.6111 29.716C30.7551 29.156 30.9391 28.572 31.1631 27.964C31.3871 27.34 31.6431 26.756 31.9311 26.212C32.2351 25.668 32.5551 25.228 32.8911 24.892C33.2271 24.54 33.5551 24.364 33.8751 24.364C34.0191 24.364 34.1391 24.412 34.2351 24.508C34.3471 24.588 34.4031 24.716 34.4031 24.892C34.4031 25.084 34.2751 25.396 34.0191 25.828C33.7791 26.26 33.4911 26.756 33.1551 27.316C32.8191 27.876 32.5231 28.468 32.2671 29.092C32.0271 29.7 31.9071 30.284 31.9071 30.844C31.9071 31.42 32.0031 31.804 32.1951 31.996C32.3871 32.188 32.6831 32.284 33.0831 32.284C33.6271 32.284 34.2031 32.012 34.8111 31.468C35.4351 30.924 36.0911 29.972 36.7791 28.612L36.9951 28.852C36.5311 30.228 35.8591 31.284 34.9791 32.02C34.1151 32.756 33.2111 33.124 32.2671 33.124ZM35.1471 22.132C34.8911 22.132 34.6591 22.068 34.4511 21.94C34.2591 21.812 34.1631 21.612 34.1631 21.34C34.1631 21.004 34.3551 20.716 34.7391 20.476C35.1391 20.22 35.5311 20.092 35.9151 20.092C36.1551 20.092 36.3471 20.148 36.4911 20.26C36.6351 20.372 36.7071 20.564 36.7071 20.836C36.7071 21.14 36.5391 21.436 36.2031 21.724C35.8831 21.996 35.5311 22.132 35.1471 22.132ZM44.0801 32.98C43.5201 32.98 43.0961 32.836 42.8081 32.548C42.5361 32.26 42.4001 31.892 42.4001 31.444C42.4001 31.108 42.4561 30.756 42.5681 30.388C42.6961 30.02 42.8161 29.644 42.9281 29.26C43.0401 28.86 43.0961 28.476 43.0961 28.108C43.0961 27.66 43.0001 27.356 42.8081 27.196C42.6321 27.02 42.4081 26.932 42.1361 26.932C41.6401 26.932 41.1361 27.14 40.6241 27.556C40.1121 27.956 39.6161 28.476 39.1361 29.116C38.6561 29.74 38.2081 30.388 37.7921 31.06C37.3761 31.732 37.0081 32.332 36.6881 32.86C36.4321 32.86 36.1921 32.812 35.9681 32.716C35.7281 32.636 35.5441 32.508 35.4161 32.332C35.4161 32.252 35.5041 32.004 35.6801 31.588C35.8401 31.172 36.0321 30.66 36.2561 30.052C36.4801 29.444 36.6801 28.82 36.8561 28.18C37.0321 27.54 37.1201 26.956 37.1201 26.428C37.2161 26.316 37.3681 26.204 37.5761 26.092C37.7841 25.98 38.0001 25.924 38.2241 25.924C38.6561 25.924 38.8721 26.132 38.8721 26.548C38.8721 26.804 38.8001 27.236 38.6561 27.844C38.5121 28.436 38.3281 29.06 38.1041 29.716C38.5361 29.06 39.0161 28.412 39.5441 27.772C40.0881 27.116 40.6641 26.572 41.2721 26.14C41.8801 25.708 42.4881 25.492 43.0961 25.492C43.7201 25.492 44.1681 25.716 44.4401 26.164C44.7281 26.612 44.8721 27.108 44.8721 27.652C44.8721 28.148 44.7921 28.612 44.6321 29.044C44.4721 29.46 44.3041 29.868 44.1281 30.268C43.9681 30.652 43.8881 31.044 43.8881 31.444C43.8881 31.78 43.9521 32.02 44.0801 32.164C44.2241 32.292 44.4001 32.356 44.6081 32.356C45.0081 32.356 45.4081 32.172 45.8081 31.804C46.2081 31.42 46.5921 30.94 46.9601 30.364C47.3441 29.788 47.6801 29.204 47.9681 28.612L48.2321 28.924C47.8961 29.708 47.5201 30.404 47.1041 31.012C46.6881 31.62 46.2321 32.1 45.7361 32.452C45.2401 32.804 44.6881 32.98 44.0801 32.98ZM48.4198 39.22C48.0678 39.22 47.7478 39.108 47.4598 38.884C47.1718 38.676 47.0278 38.324 47.0278 37.828C47.0278 37.348 47.1798 36.9 47.4838 36.484C47.7718 36.084 48.1478 35.708 48.6118 35.356C49.0758 35.02 49.5798 34.708 50.1238 34.42C50.6838 34.132 51.2118 33.86 51.7078 33.604C51.9318 33.044 52.1398 32.444 52.3318 31.804C52.5398 31.148 52.7398 30.428 52.9318 29.644C52.3238 30.524 51.6838 31.26 51.0118 31.852C50.3558 32.428 49.6918 32.716 49.0198 32.716C48.4438 32.716 47.9958 32.5 47.6758 32.068C47.3718 31.636 47.2198 31.076 47.2198 30.388C47.2198 29.556 47.4198 28.764 47.8198 28.012C48.2358 27.26 48.7718 26.596 49.4278 26.02C50.0838 25.444 50.7798 24.996 51.5158 24.676C52.2518 24.34 52.9398 24.172 53.5798 24.172C54.0438 24.172 54.3718 24.252 54.5638 24.412C54.7718 24.556 54.8758 24.732 54.8758 24.94C54.8758 25.084 54.8358 25.196 54.7558 25.276C54.6758 25.356 54.6198 25.404 54.5878 25.42C54.5078 25.292 54.3878 25.204 54.2278 25.156C54.0678 25.092 53.8678 25.06 53.6278 25.06C53.0038 25.06 52.3958 25.244 51.8038 25.612C51.2278 25.98 50.7158 26.452 50.2678 27.028C49.8198 27.604 49.4598 28.204 49.1878 28.828C48.9318 29.436 48.8038 29.996 48.8038 30.508C48.8038 30.892 48.8758 31.188 49.0198 31.396C49.1798 31.588 49.3878 31.684 49.6438 31.684C50.1078 31.684 50.6598 31.38 51.2998 30.772C51.9558 30.148 52.5878 29.396 53.1958 28.516C53.2438 28.292 53.2838 28.092 53.3158 27.916C53.3638 27.74 53.4198 27.516 53.4838 27.244C53.5318 27.02 53.6438 26.764 53.8198 26.476C54.0118 26.172 54.3078 26.02 54.7078 26.02C54.7878 26.02 54.8678 26.028 54.9478 26.044C55.0278 26.044 55.1158 26.06 55.2118 26.092C55.2118 26.348 55.1318 26.82 54.9718 27.508C54.8278 28.18 54.6118 28.972 54.3238 29.884C54.0518 30.78 53.7318 31.708 53.3638 32.668C53.8918 32.412 54.4038 32.084 54.8998 31.684C55.4118 31.284 55.8758 30.828 56.2918 30.316C56.7078 29.788 57.0358 29.22 57.2758 28.612L57.5878 28.852C57.3478 29.572 56.9638 30.228 56.4358 30.82C55.9078 31.412 55.3398 31.924 54.7318 32.356C54.1398 32.788 53.5958 33.124 53.0998 33.364C52.6518 34.436 52.1798 35.412 51.6838 36.292C51.1878 37.188 50.6678 37.9 50.1238 38.428C49.5958 38.956 49.0278 39.22 48.4198 39.22ZM48.3478 38.452C48.6678 38.452 49.0998 38.132 49.6438 37.492C50.2038 36.868 50.8038 35.788 51.4438 34.252C50.8038 34.572 50.2038 34.9 49.6438 35.236C49.0998 35.588 48.6518 35.956 48.2998 36.34C47.9478 36.724 47.7718 37.148 47.7718 37.612C47.7718 37.868 47.8278 38.068 47.9398 38.212C48.0518 38.372 48.1878 38.452 48.3478 38.452ZM58.6359 33.22C58.0919 33.22 57.6519 32.98 57.3159 32.5C56.9959 32.004 56.8359 31.436 56.8359 30.796C56.8359 30.332 56.9079 29.796 57.0519 29.188C57.2119 28.58 57.4039 27.98 57.6279 27.388C57.8519 26.796 58.0839 26.308 58.3239 25.924C58.5639 25.54 58.7719 25.348 58.9479 25.348C59.0279 25.348 59.1639 25.396 59.3559 25.492C59.5479 25.572 59.7079 25.684 59.8359 25.828C59.6599 26.1 59.4439 26.516 59.1879 27.076C58.9319 27.636 58.7079 28.236 58.5159 28.876C58.3239 29.516 58.2279 30.108 58.2279 30.652C58.2279 30.78 58.2439 30.98 58.2759 31.252C58.3079 31.508 58.3879 31.74 58.5159 31.948C58.6439 32.156 58.8359 32.26 59.0919 32.26C59.3959 32.26 59.7079 32.108 60.0279 31.804C60.3479 31.484 60.6679 31.076 60.9879 30.58C61.3239 30.084 61.6439 29.548 61.9479 28.972C62.2519 28.396 62.5319 27.844 62.7879 27.316C63.0599 26.788 63.2839 26.348 63.4599 25.996C63.5559 26.012 63.6919 26.044 63.8679 26.092C64.0599 26.14 64.2279 26.204 64.3719 26.284C64.5319 26.364 64.6119 26.476 64.6119 26.62C64.6119 26.684 64.5319 26.9 64.3719 27.268C64.2119 27.62 64.0199 28.06 63.7959 28.588C63.5879 29.1 63.4039 29.62 63.2439 30.148C63.0839 30.676 63.0039 31.14 63.0039 31.54C63.0039 31.828 63.0599 32.06 63.1719 32.236C63.2999 32.412 63.5079 32.5 63.7959 32.5C64.1319 32.5 64.5399 32.348 65.0199 32.044C65.4999 31.74 65.9879 31.3 66.4839 30.724C66.9799 30.132 67.4199 29.428 67.8039 28.612L68.1159 28.828C67.7799 29.692 67.3399 30.46 66.7959 31.132C66.2519 31.788 65.6759 32.3 65.0679 32.668C64.4599 33.036 63.8679 33.22 63.2919 33.22C62.8759 33.22 62.5399 33.14 62.2839 32.98C62.0439 32.82 61.8679 32.604 61.7559 32.332C61.6599 32.06 61.6119 31.764 61.6119 31.444C61.6119 31.252 61.6279 31.06 61.6599 30.868C61.6919 30.66 61.7319 30.452 61.7799 30.244C61.4919 30.772 61.1799 31.268 60.8439 31.732C60.5079 32.18 60.1559 32.54 59.7879 32.812C59.4199 33.084 59.0359 33.22 58.6359 33.22ZM69.9514 33.556C68.9754 33.556 68.2394 33.284 67.7434 32.74C67.2634 32.212 67.0234 31.556 67.0234 30.772C67.0234 30.052 67.1994 29.292 67.5514 28.492C67.9194 27.692 68.3994 26.94 68.9914 26.236C69.5994 25.532 70.2634 24.964 70.9834 24.532C71.7034 24.084 72.4154 23.86 73.1194 23.86C73.4874 23.86 73.8234 23.956 74.1274 24.148C74.4474 24.34 74.6074 24.732 74.6074 25.324C74.6074 25.932 74.4234 26.508 74.0554 27.052C73.7034 27.58 73.2314 28.052 72.6394 28.468C72.0634 28.884 71.4234 29.228 70.7194 29.5C70.0314 29.756 69.3434 29.916 68.6554 29.98C68.6234 30.14 68.5994 30.292 68.5834 30.436C68.5674 30.58 68.5594 30.716 68.5594 30.844C68.5594 31.084 68.5834 31.324 68.6314 31.564C68.6954 31.804 68.7994 32.028 68.9434 32.236C69.0874 32.428 69.2794 32.58 69.5194 32.692C69.7754 32.804 70.0874 32.86 70.4554 32.86C71.1434 32.86 71.8234 32.668 72.4954 32.284C73.1674 31.884 73.7914 31.364 74.3674 30.724C74.9434 30.084 75.4314 29.38 75.8314 28.612L76.1194 28.828C75.6874 29.788 75.1354 30.62 74.4634 31.324C73.8074 32.028 73.0874 32.572 72.3034 32.956C71.5354 33.356 70.7514 33.556 69.9514 33.556ZM68.7754 29.524C69.2074 29.38 69.6954 29.172 70.2394 28.9C70.7834 28.612 71.3034 28.276 71.7994 27.892C72.3114 27.508 72.7274 27.084 73.0474 26.62C73.3834 26.156 73.5514 25.668 73.5514 25.156C73.5514 24.98 73.5194 24.844 73.4554 24.748C73.3914 24.652 73.2554 24.604 73.0474 24.604C72.6634 24.604 72.2554 24.756 71.8234 25.06C71.3914 25.348 70.9754 25.732 70.5754 26.212C70.1754 26.692 69.8154 27.22 69.4954 27.796C69.1754 28.372 68.9354 28.948 68.7754 29.524ZM73.6714 22.468C73.5594 22.404 73.4714 22.3 73.4074 22.156C73.3594 22.012 73.3354 21.908 73.3354 21.844C73.3354 21.7 73.4154 21.476 73.5754 21.172C73.7514 20.852 73.9674 20.524 74.2234 20.188C74.4794 19.836 74.7514 19.54 75.0394 19.3C75.3274 19.06 75.5914 18.94 75.8314 18.94C75.9594 18.94 76.0714 18.996 76.1674 19.108C76.2794 19.204 76.3434 19.396 76.3594 19.684C75.7834 20.18 75.2794 20.652 74.8474 21.1C74.4154 21.548 74.0234 22.004 73.6714 22.468ZM87.4476 33.244C86.8876 33.244 86.4796 33.068 86.2236 32.716C85.9676 32.38 85.8396 31.972 85.8396 31.492C85.8396 31.092 85.8956 30.692 86.0076 30.292C86.1356 29.892 86.2556 29.5 86.3676 29.116C86.4956 28.732 86.5596 28.388 86.5596 28.084C86.5596 27.764 86.4876 27.54 86.3436 27.412C86.1996 27.284 86.0396 27.22 85.8636 27.22C85.4636 27.22 85.0236 27.532 84.5436 28.156C84.0796 28.78 83.4716 29.66 82.7196 30.796C82.4636 31.18 82.2476 31.572 82.0716 31.972C81.8956 32.356 81.7276 32.708 81.5676 33.028C81.4396 33.028 81.2796 33.012 81.0876 32.98C80.8956 32.948 80.7196 32.892 80.5596 32.812C80.4156 32.748 80.3436 32.66 80.3436 32.548C80.3436 32.436 80.4156 32.172 80.5596 31.756C80.7196 31.324 80.8956 30.828 81.0876 30.268C81.2956 29.692 81.4716 29.116 81.6156 28.54C81.7756 27.948 81.8556 27.444 81.8556 27.028C81.8556 26.756 81.8076 26.54 81.7116 26.38C81.6316 26.204 81.4796 26.116 81.2556 26.116C80.9036 26.116 80.4796 26.332 79.9836 26.764C79.4876 27.18 78.9756 27.732 78.4476 28.42C77.9196 29.108 77.4156 29.868 76.9356 30.7C76.4716 31.516 76.0956 32.332 75.8076 33.148C75.6636 33.148 75.4876 33.124 75.2796 33.076C75.0716 33.028 74.8956 32.964 74.7516 32.884C74.5916 32.804 74.5116 32.724 74.5116 32.644C74.5116 32.548 74.5996 32.268 74.7756 31.804C74.9356 31.324 75.1276 30.756 75.3516 30.1C75.5596 29.428 75.7436 28.748 75.9036 28.06C76.0796 27.372 76.1676 26.764 76.1676 26.236C76.2636 26.124 76.4156 26.012 76.6236 25.9C76.8316 25.788 77.0476 25.732 77.2716 25.732C77.4956 25.732 77.6556 25.788 77.7516 25.9C77.8636 26.012 77.9196 26.164 77.9196 26.356C77.9196 26.564 77.8556 26.924 77.7276 27.436C77.6156 27.932 77.4716 28.484 77.2956 29.092C77.6156 28.58 77.9756 28.06 78.3756 27.532C78.7916 26.988 79.2236 26.492 79.6716 26.044C80.1196 25.596 80.5676 25.236 81.0156 24.964C81.4796 24.676 81.9276 24.532 82.3596 24.532C82.8556 24.532 83.1916 24.716 83.3676 25.084C83.5596 25.436 83.6556 25.86 83.6556 26.356C83.6556 26.756 83.6076 27.18 83.5116 27.628C83.4316 28.06 83.3356 28.468 83.2236 28.852C83.1116 29.22 83.0076 29.516 82.9116 29.74C83.2476 29.132 83.6156 28.548 84.0156 27.988C84.4316 27.412 84.8796 26.948 85.3596 26.596C85.8396 26.228 86.3516 26.044 86.8956 26.044C87.4076 26.044 87.7596 26.196 87.9516 26.5C88.1596 26.804 88.2636 27.164 88.2636 27.58C88.2636 27.996 88.1916 28.452 88.0476 28.948C87.9036 29.444 87.7516 29.924 87.5916 30.388C87.4476 30.852 87.3756 31.252 87.3756 31.588C87.3756 31.796 87.4236 31.988 87.5196 32.164C87.6316 32.324 87.8236 32.404 88.0956 32.404C88.5436 32.404 88.9596 32.204 89.3436 31.804C89.7436 31.388 90.1116 30.892 90.4476 30.316C90.7836 29.724 91.0716 29.156 91.3116 28.612L91.5996 28.948C91.3436 29.62 91.0156 30.292 90.6156 30.964C90.2156 31.62 89.7436 32.164 89.1996 32.596C88.6716 33.028 88.0876 33.244 87.4476 33.244ZM91.0352 34.612C90.8912 34.532 90.7872 34.412 90.7232 34.252C90.6592 34.092 90.6272 33.916 90.6272 33.724C90.6272 33.404 90.6992 33.036 90.8432 32.62C90.9872 32.22 91.1712 31.876 91.3952 31.588C91.6192 31.3 91.8512 31.156 92.0912 31.156C92.2512 31.156 92.3872 31.228 92.4992 31.372C92.6272 31.5 92.6912 31.652 92.6912 31.828C92.2432 32.292 91.9072 32.756 91.6832 33.22C91.4752 33.684 91.2592 34.148 91.0352 34.612ZM102.965 33.628C102.469 33.628 102.053 33.46 101.716 33.124C101.364 32.804 101.188 32.308 101.188 31.636C101.188 31.06 101.316 30.444 101.572 29.788C101.828 29.116 102.181 28.46 102.629 27.82C103.077 27.164 103.581 26.572 104.141 26.044C104.717 25.5 105.317 25.068 105.941 24.748C106.581 24.428 107.213 24.268 107.837 24.268C108.461 24.268 108.981 24.436 109.397 24.772C109.813 25.092 110.021 25.524 110.021 26.068C110.021 26.468 109.909 26.74 109.685 26.884C109.477 27.028 109.197 27.1 108.845 27.1C108.877 26.972 108.901 26.836 108.917 26.692C108.949 26.532 108.965 26.388 108.965 26.26C108.965 25.892 108.877 25.58 108.701 25.324C108.525 25.052 108.221 24.916 107.789 24.916C107.341 24.916 106.885 25.076 106.421 25.396C105.957 25.7 105.509 26.116 105.077 26.644C104.645 27.156 104.261 27.716 103.925 28.324C103.589 28.932 103.325 29.532 103.133 30.124C102.941 30.716 102.845 31.244 102.845 31.708C102.845 32.332 103.061 32.644 103.493 32.644C103.861 32.644 104.261 32.476 104.693 32.14C105.125 31.788 105.565 31.348 106.013 30.82C106.477 30.276 106.917 29.716 107.333 29.14C107.749 28.564 108.117 28.036 108.437 27.556C108.501 27.46 108.541 27.412 108.557 27.412C108.653 27.428 108.773 27.46 108.917 27.508C109.077 27.556 109.213 27.62 109.325 27.7C109.437 27.78 109.493 27.884 109.493 28.012C109.493 28.156 109.421 28.356 109.277 28.612C109.133 28.852 108.973 29.132 108.797 29.452C108.621 29.772 108.461 30.1 108.317 30.436C108.173 30.756 108.101 31.06 108.101 31.348C108.101 31.588 108.165 31.828 108.293 32.068C108.421 32.292 108.629 32.404 108.917 32.404C109.349 32.404 109.917 32.092 110.621 31.468C111.325 30.828 112.037 29.876 112.757 28.612L112.997 28.852C112.661 29.716 112.229 30.476 111.701 31.132C111.173 31.788 110.605 32.3 109.997 32.668C109.405 33.036 108.821 33.22 108.245 33.22C107.653 33.22 107.213 33.044 106.925 32.692C106.653 32.34 106.517 31.956 106.517 31.54C106.517 31.444 106.525 31.34 106.541 31.228C106.557 31.1 106.573 30.972 106.589 30.844C105.901 31.772 105.269 32.468 104.693 32.932C104.133 33.396 103.557 33.628 102.965 33.628ZM114.258 33.22C113.57 33.22 113.074 32.98 112.77 32.5C112.482 32.036 112.338 31.452 112.338 30.748C112.338 29.98 112.482 29.068 112.77 28.012C113.058 26.956 113.434 25.844 113.898 24.676C114.378 23.508 114.898 22.372 115.458 21.268C116.018 20.148 116.578 19.132 117.138 18.22C117.698 17.308 118.21 16.58 118.674 16.036C119.154 15.492 119.53 15.22 119.802 15.22C119.978 15.22 120.122 15.324 120.234 15.532C120.346 15.724 120.434 15.964 120.498 16.252C120.562 16.524 120.594 16.772 120.594 16.996C120.594 17.428 120.482 17.996 120.258 18.7C120.05 19.388 119.746 20.164 119.346 21.028C118.962 21.876 118.498 22.74 117.954 23.62C117.426 24.484 116.842 25.316 116.202 26.116C115.578 26.916 114.914 27.604 114.21 28.18C114.114 28.612 114.034 29.036 113.97 29.452C113.922 29.852 113.898 30.236 113.898 30.604C113.898 31.228 113.986 31.692 114.162 31.996C114.338 32.3 114.602 32.452 114.954 32.452C115.386 32.452 115.81 32.26 116.226 31.876C116.658 31.492 117.058 31.012 117.426 30.436C117.81 29.844 118.138 29.236 118.41 28.612L118.77 28.804C118.13 30.164 117.434 31.244 116.682 32.044C115.93 32.828 115.122 33.22 114.258 33.22ZM114.426 27.364C114.986 26.804 115.53 26.164 116.058 25.444C116.586 24.708 117.074 23.948 117.522 23.164C117.986 22.38 118.394 21.62 118.746 20.884C119.098 20.148 119.37 19.492 119.562 18.916C119.754 18.324 119.85 17.868 119.85 17.548C119.85 17.388 119.826 17.284 119.778 17.236C119.746 17.188 119.714 17.164 119.682 17.164C119.554 17.164 119.33 17.372 119.01 17.788C118.706 18.188 118.346 18.732 117.93 19.42C117.514 20.108 117.09 20.892 116.658 21.772C116.226 22.652 115.81 23.572 115.41 24.532C115.026 25.492 114.698 26.436 114.426 27.364ZM120.53 33.556C119.554 33.556 118.818 33.284 118.322 32.74C117.841 32.212 117.601 31.556 117.601 30.772C117.601 30.052 117.777 29.292 118.13 28.492C118.498 27.692 118.978 26.94 119.57 26.236C120.178 25.532 120.842 24.964 121.562 24.532C122.282 24.084 122.994 23.86 123.698 23.86C124.066 23.86 124.402 23.956 124.706 24.148C125.026 24.34 125.186 24.732 125.186 25.324C125.186 25.932 125.002 26.508 124.634 27.052C124.282 27.58 123.81 28.052 123.218 28.468C122.642 28.884 122.002 29.228 121.298 29.5C120.61 29.756 119.922 29.916 119.234 29.98C119.202 30.14 119.178 30.292 119.162 30.436C119.146 30.58 119.138 30.716 119.138 30.844C119.138 31.084 119.162 31.324 119.21 31.564C119.274 31.804 119.378 32.028 119.521 32.236C119.666 32.428 119.858 32.58 120.098 32.692C120.354 32.804 120.666 32.86 121.034 32.86C121.722 32.86 122.402 32.668 123.074 32.284C123.746 31.884 124.37 31.364 124.946 30.724C125.522 30.084 126.01 29.38 126.41 28.612L126.698 28.828C126.266 29.788 125.714 30.62 125.042 31.324C124.386 32.028 123.666 32.572 122.882 32.956C122.114 33.356 121.33 33.556 120.53 33.556ZM119.354 29.524C119.786 29.38 120.274 29.172 120.818 28.9C121.362 28.612 121.882 28.276 122.378 27.892C122.89 27.508 123.306 27.084 123.626 26.62C123.962 26.156 124.13 25.668 124.13 25.156C124.13 24.98 124.098 24.844 124.034 24.748C123.97 24.652 123.834 24.604 123.626 24.604C123.242 24.604 122.834 24.756 122.402 25.06C121.97 25.348 121.554 25.732 121.154 26.212C120.754 26.692 120.394 27.22 120.074 27.796C119.754 28.372 119.514 28.948 119.354 29.524ZM124.25 22.468C124.138 22.404 124.05 22.3 123.986 22.156C123.938 22.012 123.914 21.908 123.914 21.844C123.914 21.7 123.994 21.476 124.154 21.172C124.33 20.852 124.546 20.524 124.802 20.188C125.058 19.836 125.33 19.54 125.618 19.3C125.906 19.06 126.17 18.94 126.41 18.94C126.538 18.94 126.65 18.996 126.746 19.108C126.858 19.204 126.922 19.396 126.938 19.684C126.362 20.18 125.858 20.652 125.426 21.1C124.994 21.548 124.602 22.004 124.25 22.468ZM138.026 33.244C137.466 33.244 137.058 33.068 136.802 32.716C136.546 32.38 136.418 31.972 136.418 31.492C136.418 31.092 136.474 30.692 136.586 30.292C136.714 29.892 136.834 29.5 136.946 29.116C137.074 28.732 137.138 28.388 137.138 28.084C137.138 27.764 137.066 27.54 136.922 27.412C136.778 27.284 136.618 27.22 136.442 27.22C136.042 27.22 135.602 27.532 135.122 28.156C134.658 28.78 134.05 29.66 133.298 30.796C133.042 31.18 132.826 31.572 132.65 31.972C132.474 32.356 132.306 32.708 132.146 33.028C132.018 33.028 131.858 33.012 131.666 32.98C131.474 32.948 131.298 32.892 131.138 32.812C130.994 32.748 130.922 32.66 130.922 32.548C130.922 32.436 130.994 32.172 131.138 31.756C131.298 31.324 131.474 30.828 131.666 30.268C131.874 29.692 132.05 29.116 132.194 28.54C132.354 27.948 132.434 27.444 132.434 27.028C132.434 26.756 132.386 26.54 132.29 26.38C132.21 26.204 132.058 26.116 131.834 26.116C131.482 26.116 131.058 26.332 130.562 26.764C130.066 27.18 129.554 27.732 129.026 28.42C128.498 29.108 127.994 29.868 127.514 30.7C127.05 31.516 126.674 32.332 126.386 33.148C126.242 33.148 126.066 33.124 125.858 33.076C125.65 33.028 125.474 32.964 125.33 32.884C125.17 32.804 125.09 32.724 125.09 32.644C125.09 32.548 125.178 32.268 125.354 31.804C125.514 31.324 125.706 30.756 125.93 30.1C126.138 29.428 126.322 28.748 126.482 28.06C126.658 27.372 126.746 26.764 126.746 26.236C126.842 26.124 126.994 26.012 127.202 25.9C127.41 25.788 127.626 25.732 127.85 25.732C128.074 25.732 128.234 25.788 128.33 25.9C128.442 26.012 128.498 26.164 128.498 26.356C128.498 26.564 128.434 26.924 128.306 27.436C128.194 27.932 128.05 28.484 127.874 29.092C128.194 28.58 128.554 28.06 128.954 27.532C129.37 26.988 129.802 26.492 130.25 26.044C130.698 25.596 131.146 25.236 131.594 24.964C132.058 24.676 132.506 24.532 132.938 24.532C133.434 24.532 133.77 24.716 133.946 25.084C134.138 25.436 134.234 25.86 134.234 26.356C134.234 26.756 134.186 27.18 134.09 27.628C134.01 28.06 133.914 28.468 133.802 28.852C133.69 29.22 133.586 29.516 133.49 29.74C133.826 29.132 134.194 28.548 134.594 27.988C135.01 27.412 135.458 26.948 135.938 26.596C136.418 26.228 136.93 26.044 137.474 26.044C137.986 26.044 138.338 26.196 138.53 26.5C138.738 26.804 138.842 27.164 138.842 27.58C138.842 27.996 138.77 28.452 138.626 28.948C138.482 29.444 138.33 29.924 138.17 30.388C138.026 30.852 137.954 31.252 137.954 31.588C137.954 31.796 138.002 31.988 138.098 32.164C138.21 32.324 138.402 32.404 138.674 32.404C139.122 32.404 139.538 32.204 139.922 31.804C140.322 31.388 140.69 30.892 141.026 30.316C141.362 29.724 141.65 29.156 141.89 28.612L142.178 28.948C141.922 29.62 141.594 30.292 141.194 30.964C140.794 31.62 140.322 32.164 139.778 32.596C139.25 33.028 138.666 33.244 138.026 33.244ZM149.096 33.22C148.824 33.22 148.544 33.148 148.256 33.004C147.984 32.876 147.76 32.66 147.584 32.356C147.392 32.052 147.296 31.668 147.296 31.204C147.296 30.676 147.424 30.084 147.68 29.428C147.936 28.772 148.28 28.124 148.712 27.484C149.144 26.828 149.64 26.228 150.2 25.684C150.76 25.124 151.344 24.684 151.952 24.364C152.56 24.028 153.16 23.86 153.752 23.86C154.088 23.86 154.344 23.924 154.52 24.052C154.712 24.164 154.808 24.348 154.808 24.604C154.808 24.668 154.8 24.724 154.784 24.772C154.784 24.82 154.776 24.876 154.76 24.94C154.68 24.812 154.56 24.724 154.4 24.676C154.256 24.612 154.072 24.58 153.848 24.58C153.336 24.58 152.832 24.74 152.336 25.06C151.856 25.364 151.408 25.772 150.992 26.284C150.592 26.78 150.24 27.316 149.936 27.892C149.632 28.468 149.392 29.028 149.216 29.572C149.056 30.1 148.976 30.548 148.976 30.916C148.976 31.268 149.056 31.548 149.216 31.756C149.376 31.964 149.584 32.068 149.84 32.068C150.272 32.068 150.792 31.796 151.4 31.252C152.024 30.708 152.656 29.94 153.296 28.948C153.936 27.956 154.512 26.796 155.024 25.468C155.376 24.54 155.736 23.596 156.104 22.636C156.488 21.676 156.872 20.756 157.256 19.876C157.64 18.98 158.008 18.188 158.36 17.5C158.728 16.796 159.072 16.244 159.392 15.844C159.728 15.428 160.024 15.22 160.28 15.22C160.408 15.22 160.52 15.276 160.616 15.388C160.712 15.484 160.76 15.612 160.76 15.772C160.76 16.028 160.624 16.468 160.352 17.092C160.096 17.7 159.752 18.436 159.32 19.3C158.904 20.148 158.464 21.076 158 22.084C157.536 23.092 157.088 24.116 156.656 25.156C156.24 26.196 155.896 27.204 155.624 28.18C155.368 29.14 155.24 30.02 155.24 30.82C155.24 31.268 155.264 31.604 155.312 31.828C155.36 32.052 155.52 32.164 155.792 32.164C156.128 32.164 156.52 32.02 156.968 31.732C157.416 31.444 157.864 31.036 158.312 30.508C158.76 29.98 159.152 29.348 159.488 28.612L159.776 28.828C159.472 29.644 159.056 30.38 158.528 31.036C158 31.676 157.432 32.18 156.824 32.548C156.232 32.932 155.664 33.124 155.12 33.124C154.528 33.124 154.112 32.924 153.872 32.524C153.648 32.14 153.536 31.74 153.536 31.324C153.536 31.052 153.576 30.692 153.656 30.244C153.736 29.796 153.848 29.3 153.992 28.756C153.48 29.604 152.936 30.372 152.36 31.06C151.784 31.732 151.216 32.26 150.656 32.644C150.112 33.028 149.592 33.22 149.096 33.22ZM161.615 33.556C160.639 33.556 159.903 33.284 159.407 32.74C158.927 32.212 158.687 31.556 158.687 30.772C158.687 30.052 158.863 29.292 159.215 28.492C159.583 27.692 160.063 26.94 160.655 26.236C161.263 25.532 161.927 24.964 162.647 24.532C163.367 24.084 164.079 23.86 164.783 23.86C165.151 23.86 165.487 23.956 165.791 24.148C166.111 24.34 166.271 24.732 166.271 25.324C166.271 25.932 166.087 26.508 165.719 27.052C165.367 27.58 164.895 28.052 164.303 28.468C163.727 28.884 163.087 29.228 162.383 29.5C161.695 29.756 161.007 29.916 160.319 29.98C160.287 30.14 160.263 30.292 160.247 30.436C160.231 30.58 160.223 30.716 160.223 30.844C160.223 31.084 160.247 31.324 160.295 31.564C160.359 31.804 160.463 32.028 160.607 32.236C160.751 32.428 160.943 32.58 161.183 32.692C161.439 32.804 161.751 32.86 162.119 32.86C162.807 32.86 163.487 32.668 164.159 32.284C164.831 31.884 165.455 31.364 166.031 30.724C166.607 30.084 167.095 29.38 167.495 28.612L167.783 28.828C167.351 29.788 166.799 30.62 166.127 31.324C165.471 32.028 164.751 32.572 163.967 32.956C163.199 33.356 162.415 33.556 161.615 33.556ZM160.439 29.524C160.871 29.38 161.359 29.172 161.903 28.9C162.447 28.612 162.967 28.276 163.463 27.892C163.975 27.508 164.391 27.084 164.711 26.62C165.047 26.156 165.215 25.668 165.215 25.156C165.215 24.98 165.183 24.844 165.119 24.748C165.055 24.652 164.919 24.604 164.711 24.604C164.327 24.604 163.919 24.756 163.487 25.06C163.055 25.348 162.639 25.732 162.239 26.212C161.839 26.692 161.479 27.22 161.159 27.796C160.839 28.372 160.599 28.948 160.439 29.524ZM174.81 33.436C174.314 33.436 173.97 33.188 173.778 32.692C173.586 32.212 173.49 31.58 173.49 30.796C173.49 30.764 173.498 30.516 173.514 30.052C173.53 29.572 173.57 28.772 173.634 27.652C173.666 27.22 173.714 26.924 173.778 26.764C173.842 26.604 174.05 26.524 174.402 26.524C174.674 26.524 174.842 26.58 174.906 26.692C174.986 26.788 175.026 26.988 175.026 27.292C175.026 27.82 174.986 28.444 174.906 29.164C174.842 29.868 174.81 30.532 174.81 31.156C174.81 31.62 174.85 31.964 174.93 32.188C175.01 32.396 175.154 32.5 175.362 32.5C175.65 32.5 175.97 32.34 176.322 32.02C176.674 31.684 177.034 31.252 177.402 30.724C177.77 30.18 178.114 29.604 178.434 28.996C178.77 28.388 179.066 27.804 179.322 27.244C179.354 26.156 179.466 25.436 179.658 25.084C179.866 24.716 180.122 24.532 180.426 24.532C180.73 24.532 180.946 24.644 181.074 24.868C181.218 25.076 181.29 25.268 181.29 25.444C181.29 25.652 181.218 25.868 181.074 26.092C180.946 26.316 180.81 26.62 180.666 27.004C180.522 27.388 180.45 27.94 180.45 28.66C180.45 28.916 180.474 29.188 180.522 29.476C180.57 29.764 180.674 30.004 180.834 30.196C180.994 30.388 181.242 30.484 181.578 30.484C181.914 30.484 182.234 30.356 182.538 30.1C182.858 29.828 183.17 29.364 183.474 28.708L183.786 28.948C183.434 29.748 183.042 30.284 182.61 30.556C182.194 30.828 181.794 30.964 181.41 30.964C180.882 30.964 180.442 30.772 180.09 30.388C179.738 30.004 179.506 29.42 179.394 28.636C179.01 29.42 178.554 30.18 178.026 30.916C177.514 31.636 176.978 32.236 176.418 32.716C175.858 33.196 175.322 33.436 174.81 33.436ZM184.679 33.268C183.991 33.268 183.503 33.052 183.215 32.62C182.927 32.204 182.783 31.692 182.783 31.084C182.783 30.588 182.863 30.076 183.023 29.548C183.183 29.02 183.391 28.524 183.647 28.06C183.919 27.596 184.215 27.22 184.535 26.932C184.871 26.644 185.207 26.5 185.543 26.5C185.623 26.5 185.703 26.516 185.783 26.548C185.879 26.564 185.967 26.588 186.047 26.62C185.903 26.748 185.727 26.988 185.519 27.34C185.327 27.676 185.143 28.068 184.967 28.516C184.791 28.948 184.639 29.38 184.511 29.812C184.399 30.244 184.343 30.612 184.343 30.916C184.343 31.396 184.423 31.748 184.583 31.972C184.743 32.18 184.951 32.284 185.207 32.284C185.543 32.284 185.943 32.108 186.407 31.756C186.871 31.388 187.327 30.924 187.775 30.364C187.327 29.996 186.975 29.516 186.719 28.924C186.479 28.316 186.359 27.7 186.359 27.076C186.359 26.548 186.447 26.052 186.623 25.588C186.815 25.124 187.087 24.756 187.439 24.484C187.791 24.196 188.215 24.052 188.711 24.052C189.367 24.052 189.807 24.228 190.031 24.58C190.255 24.932 190.367 25.372 190.367 25.9C190.367 26.524 190.215 27.22 189.911 27.988C189.607 28.74 189.223 29.468 188.759 30.172C189.047 30.332 189.351 30.412 189.671 30.412C189.927 30.412 190.215 30.364 190.535 30.268C190.855 30.156 191.167 29.972 191.471 29.716C191.791 29.46 192.047 29.116 192.239 28.684L192.527 28.924C192.207 29.676 191.751 30.212 191.159 30.532C190.583 30.836 190.031 30.988 189.503 30.988C189.295 30.988 189.095 30.972 188.903 30.94C188.711 30.892 188.527 30.828 188.351 30.748C187.807 31.468 187.207 32.068 186.551 32.548C185.911 33.028 185.287 33.268 184.679 33.268ZM188.207 29.74C188.607 29.148 188.935 28.532 189.191 27.892C189.463 27.236 189.599 26.62 189.599 26.044C189.599 25.58 189.527 25.244 189.383 25.036C189.255 24.812 189.087 24.7 188.879 24.7C188.559 24.7 188.231 24.932 187.895 25.396C187.559 25.86 187.391 26.444 187.391 27.148C187.391 27.612 187.455 28.084 187.583 28.564C187.727 29.028 187.935 29.42 188.207 29.74ZM194.357 33.844C193.589 33.844 192.949 33.588 192.437 33.076C191.925 32.564 191.669 31.796 191.669 30.772C191.669 29.972 191.821 29.196 192.125 28.444C192.445 27.676 192.861 26.988 193.373 26.38C193.885 25.772 194.453 25.292 195.077 24.94C195.701 24.572 196.317 24.388 196.925 24.388C197.581 24.388 198.029 24.58 198.269 24.964C198.509 25.348 198.629 25.748 198.629 26.164C198.629 26.628 198.517 27.036 198.293 27.388C198.085 27.74 197.797 27.916 197.429 27.916C197.157 27.916 196.925 27.796 196.733 27.556C196.973 27.428 197.181 27.172 197.357 26.788C197.533 26.388 197.621 26.012 197.621 25.66C197.621 25.468 197.581 25.324 197.501 25.228C197.437 25.116 197.301 25.06 197.093 25.06C196.661 25.06 196.213 25.252 195.749 25.636C195.301 26.02 194.877 26.516 194.477 27.124C194.093 27.732 193.773 28.372 193.517 29.044C193.277 29.716 193.157 30.348 193.157 30.94C193.157 31.436 193.277 31.892 193.517 32.308C193.757 32.724 194.221 32.932 194.909 32.932C195.549 32.932 196.189 32.756 196.829 32.404C197.485 32.052 198.093 31.548 198.653 30.892C199.213 30.236 199.661 29.468 199.997 28.588L200.309 28.828C199.941 29.788 199.437 30.652 198.797 31.42C198.157 32.172 197.453 32.764 196.685 33.196C195.917 33.628 195.141 33.844 194.357 33.844ZM202.139 33.556C201.163 33.556 200.427 33.284 199.931 32.74C199.451 32.212 199.211 31.556 199.211 30.772C199.211 30.052 199.387 29.292 199.739 28.492C200.107 27.692 200.587 26.94 201.179 26.236C201.787 25.532 202.451 24.964 203.171 24.532C203.891 24.084 204.603 23.86 205.307 23.86C205.675 23.86 206.011 23.956 206.315 24.148C206.635 24.34 206.795 24.732 206.795 25.324C206.795 25.932 206.611 26.508 206.243 27.052C205.891 27.58 205.419 28.052 204.827 28.468C204.251 28.884 203.611 29.228 202.907 29.5C202.219 29.756 201.531 29.916 200.843 29.98C200.811 30.14 200.787 30.292 200.771 30.436C200.755 30.58 200.747 30.716 200.747 30.844C200.747 31.084 200.771 31.324 200.819 31.564C200.883 31.804 200.987 32.028 201.131 32.236C201.275 32.428 201.467 32.58 201.707 32.692C201.963 32.804 202.275 32.86 202.643 32.86C203.331 32.86 204.011 32.668 204.683 32.284C205.355 31.884 205.979 31.364 206.555 30.724C207.131 30.084 207.619 29.38 208.019 28.612L208.307 28.828C207.875 29.788 207.323 30.62 206.651 31.324C205.995 32.028 205.275 32.572 204.491 32.956C203.723 33.356 202.939 33.556 202.139 33.556ZM200.963 29.524C201.395 29.38 201.883 29.172 202.427 28.9C202.971 28.612 203.491 28.276 203.987 27.892C204.499 27.508 204.915 27.084 205.235 26.62C205.571 26.156 205.739 25.668 205.739 25.156C205.739 24.98 205.707 24.844 205.643 24.748C205.579 24.652 205.443 24.604 205.235 24.604C204.851 24.604 204.443 24.756 204.011 25.06C203.579 25.348 203.163 25.732 202.763 26.212C202.363 26.692 202.003 27.22 201.683 27.796C201.363 28.372 201.123 28.948 200.963 29.524ZM208.187 22.66C207.963 22.196 207.707 21.804 207.419 21.484C207.131 21.148 206.795 20.804 206.411 20.452C205.915 20.628 205.467 20.82 205.067 21.028C204.683 21.236 204.307 21.5 203.939 21.82C203.843 21.756 203.779 21.684 203.747 21.604C203.715 21.508 203.699 21.428 203.699 21.364C203.699 21.124 203.803 20.884 204.011 20.644C204.235 20.404 204.499 20.18 204.803 19.972C205.123 19.748 205.435 19.572 205.739 19.444C206.043 19.316 206.275 19.252 206.435 19.252C206.627 19.252 206.843 19.34 207.083 19.516C207.339 19.692 207.579 19.924 207.803 20.212C208.027 20.484 208.211 20.772 208.355 21.076C208.515 21.38 208.595 21.66 208.595 21.916C208.595 22.076 208.563 22.22 208.499 22.348C208.435 22.476 208.331 22.58 208.187 22.66ZM207.707 34.612C207.563 34.532 207.459 34.412 207.395 34.252C207.331 34.092 207.299 33.916 207.299 33.724C207.299 33.404 207.371 33.036 207.515 32.62C207.659 32.22 207.843 31.876 208.067 31.588C208.291 31.3 208.523 31.156 208.763 31.156C208.923 31.156 209.059 31.228 209.171 31.372C209.299 31.5 209.363 31.652 209.363 31.828C208.915 32.292 208.579 32.756 208.355 33.22C208.147 33.684 207.931 34.148 207.707 34.612ZM221.076 33.556C220.1 33.556 219.364 33.284 218.868 32.74C218.388 32.212 218.148 31.556 218.148 30.772C218.148 30.052 218.324 29.292 218.676 28.492C219.044 27.692 219.524 26.94 220.116 26.236C220.724 25.532 221.388 24.964 222.108 24.532C222.828 24.084 223.54 23.86 224.244 23.86C224.612 23.86 224.948 23.956 225.252 24.148C225.572 24.34 225.732 24.732 225.732 25.324C225.732 25.932 225.548 26.508 225.18 27.052C224.828 27.58 224.356 28.052 223.764 28.468C223.188 28.884 222.548 29.228 221.844 29.5C221.156 29.756 220.468 29.916 219.78 29.98C219.748 30.14 219.724 30.292 219.708 30.436C219.692 30.58 219.684 30.716 219.684 30.844C219.684 31.084 219.708 31.324 219.756 31.564C219.82 31.804 219.924 32.028 220.068 32.236C220.212 32.428 220.404 32.58 220.644 32.692C220.9 32.804 221.212 32.86 221.58 32.86C222.268 32.86 222.948 32.668 223.62 32.284C224.292 31.884 224.916 31.364 225.492 30.724C226.068 30.084 226.556 29.38 226.956 28.612L227.244 28.828C226.812 29.788 226.26 30.62 225.588 31.324C224.932 32.028 224.212 32.572 223.428 32.956C222.66 33.356 221.876 33.556 221.076 33.556ZM219.9 29.524C220.332 29.38 220.82 29.172 221.364 28.9C221.908 28.612 222.428 28.276 222.924 27.892C223.436 27.508 223.852 27.084 224.172 26.62C224.508 26.156 224.676 25.668 224.676 25.156C224.676 24.98 224.644 24.844 224.58 24.748C224.516 24.652 224.38 24.604 224.172 24.604C223.788 24.604 223.38 24.756 222.948 25.06C222.516 25.348 222.1 25.732 221.7 26.212C221.3 26.692 220.94 27.22 220.62 27.796C220.3 28.372 220.06 28.948 219.9 29.524ZM228.997 33.724C228.245 33.724 227.645 33.556 227.197 33.22C226.765 32.9 226.461 32.5 226.285 32.02C226.093 31.54 225.997 31.06 225.997 30.58C225.997 30.1 226.061 29.732 226.189 29.476C226.317 29.22 226.469 29.028 226.645 28.9C226.837 28.772 227.013 28.676 227.173 28.612C227.349 28.548 227.469 28.484 227.533 28.42C228.013 27.892 228.453 27.34 228.853 26.764C229.253 26.188 229.605 25.58 229.909 24.94V24.652C229.909 24.06 230.005 23.644 230.197 23.404C230.405 23.148 230.621 23.02 230.845 23.02C230.973 23.02 231.069 23.052 231.133 23.116C231.197 23.18 231.229 23.252 231.229 23.332C231.229 23.412 231.205 23.54 231.157 23.716C231.109 23.892 231.085 24.116 231.085 24.388C231.085 24.916 231.189 25.492 231.397 26.116C231.605 26.724 231.813 27.372 232.021 28.06C232.229 28.732 232.333 29.436 232.333 30.172C232.333 30.38 232.317 30.588 232.285 30.796C232.269 30.988 232.237 31.172 232.189 31.348C232.749 31.252 233.277 31.004 233.773 30.604C234.269 30.188 234.749 29.532 235.213 28.636L235.429 28.876C235.125 29.756 234.669 30.428 234.061 30.892C233.453 31.34 232.789 31.62 232.069 31.732C231.813 32.42 231.405 32.924 230.845 33.244C230.301 33.564 229.685 33.724 228.997 33.724ZM229.045 32.884C229.237 32.884 229.493 32.82 229.813 32.692C230.133 32.564 230.381 32.236 230.557 31.708C229.885 31.58 229.285 31.316 228.757 30.916C228.245 30.516 227.861 30.116 227.605 29.716C227.253 29.732 227.077 30.012 227.077 30.556C227.077 31.132 227.245 31.668 227.581 32.164C227.933 32.644 228.421 32.884 229.045 32.884ZM230.677 31.324C230.709 31.164 230.733 30.996 230.749 30.82C230.765 30.644 230.773 30.436 230.773 30.196C230.773 29.444 230.677 28.7 230.485 27.964C230.309 27.212 230.157 26.508 230.029 25.852C229.661 26.46 229.269 27.044 228.853 27.604C228.453 28.148 228.069 28.604 227.701 28.972C227.941 29.484 228.309 29.964 228.805 30.412C229.317 30.86 229.941 31.164 230.677 31.324ZM236.79 33.604C236.102 33.604 235.574 33.404 235.206 33.004C234.838 32.604 234.654 32.012 234.654 31.228C234.654 30.524 234.782 29.66 235.038 28.636C235.31 27.596 235.646 26.532 236.046 25.444C235.886 25.412 235.734 25.388 235.59 25.372C235.446 25.34 235.31 25.3 235.182 25.252V24.82C235.31 24.836 235.462 24.852 235.638 24.868C235.814 24.884 236.014 24.9 236.238 24.916C236.574 24.052 236.934 23.22 237.318 22.42C237.702 21.604 238.078 20.884 238.446 20.26C238.83 19.62 239.19 19.116 239.526 18.748C239.878 18.364 240.174 18.172 240.414 18.172C240.542 18.172 240.654 18.22 240.75 18.316C240.862 18.396 240.918 18.524 240.918 18.7C240.918 18.972 240.75 19.42 240.414 20.044C240.078 20.652 239.662 21.38 239.166 22.228C238.67 23.076 238.19 23.996 237.726 24.988C237.87 24.988 238.014 24.988 238.158 24.988C238.318 24.988 238.47 24.988 238.614 24.988C239.142 24.988 239.694 24.98 240.27 24.964C240.862 24.948 241.454 24.908 242.046 24.844V25.276C241.166 25.372 240.374 25.444 239.67 25.492C238.982 25.54 238.366 25.564 237.822 25.564C237.758 25.564 237.694 25.564 237.63 25.564C237.582 25.564 237.526 25.564 237.462 25.564C237.094 26.412 236.782 27.284 236.526 28.18C236.27 29.076 236.142 29.948 236.142 30.796C236.142 31.484 236.246 31.98 236.454 32.284C236.662 32.572 237.006 32.716 237.486 32.716C238.318 32.716 239.134 32.348 239.934 31.612C240.734 30.876 241.438 29.876 242.046 28.612L242.358 28.852C241.974 29.748 241.486 30.556 240.894 31.276C240.318 31.996 239.678 32.564 238.974 32.98C238.27 33.396 237.542 33.604 236.79 33.604ZM242.746 33.628C242.25 33.628 241.834 33.46 241.498 33.124C241.146 32.804 240.97 32.308 240.97 31.636C240.97 31.06 241.098 30.444 241.354 29.788C241.61 29.116 241.962 28.46 242.41 27.82C242.858 27.164 243.362 26.572 243.922 26.044C244.498 25.5 245.098 25.068 245.722 24.748C246.362 24.428 246.994 24.268 247.618 24.268C248.242 24.268 248.762 24.436 249.178 24.772C249.594 25.092 249.802 25.524 249.802 26.068C249.802 26.468 249.69 26.74 249.466 26.884C249.258 27.028 248.978 27.1 248.626 27.1C248.658 26.972 248.682 26.836 248.698 26.692C248.73 26.532 248.746 26.388 248.746 26.26C248.746 25.892 248.658 25.58 248.482 25.324C248.306 25.052 248.002 24.916 247.57 24.916C247.122 24.916 246.666 25.076 246.202 25.396C245.738 25.7 245.29 26.116 244.858 26.644C244.426 27.156 244.042 27.716 243.706 28.324C243.37 28.932 243.106 29.532 242.914 30.124C242.722 30.716 242.626 31.244 242.626 31.708C242.626 32.332 242.842 32.644 243.274 32.644C243.642 32.644 244.042 32.476 244.474 32.14C244.906 31.788 245.346 31.348 245.794 30.82C246.258 30.276 246.698 29.716 247.114 29.14C247.53 28.564 247.898 28.036 248.218 27.556C248.282 27.46 248.322 27.412 248.338 27.412C248.434 27.428 248.554 27.46 248.698 27.508C248.858 27.556 248.994 27.62 249.106 27.7C249.218 27.78 249.274 27.884 249.274 28.012C249.274 28.156 249.202 28.356 249.058 28.612C248.914 28.852 248.754 29.132 248.578 29.452C248.402 29.772 248.242 30.1 248.098 30.436C247.954 30.756 247.882 31.06 247.882 31.348C247.882 31.588 247.946 31.828 248.074 32.068C248.202 32.292 248.41 32.404 248.698 32.404C249.13 32.404 249.698 32.092 250.402 31.468C251.106 30.828 251.818 29.876 252.538 28.612L252.778 28.852C252.442 29.716 252.01 30.476 251.482 31.132C250.954 31.788 250.386 32.3 249.778 32.668C249.186 33.036 248.602 33.22 248.026 33.22C247.434 33.22 246.994 33.044 246.706 32.692C246.434 32.34 246.298 31.956 246.298 31.54C246.298 31.444 246.306 31.34 246.322 31.228C246.338 31.1 246.354 30.972 246.37 30.844C245.682 31.772 245.05 32.468 244.474 32.932C243.914 33.396 243.338 33.628 242.746 33.628ZM248.65 22.66C248.538 22.596 248.45 22.492 248.386 22.348C248.338 22.204 248.314 22.1 248.314 22.036C248.314 21.892 248.394 21.668 248.554 21.364C248.73 21.044 248.946 20.716 249.202 20.38C249.458 20.028 249.73 19.732 250.018 19.492C250.306 19.252 250.57 19.132 250.81 19.132C250.938 19.132 251.05 19.188 251.146 19.3C251.258 19.396 251.322 19.588 251.338 19.876C250.762 20.372 250.258 20.844 249.826 21.292C249.394 21.74 249.002 22.196 248.65 22.66ZM266.033 32.98C265.473 32.98 265.049 32.836 264.761 32.548C264.489 32.26 264.353 31.892 264.353 31.444C264.353 31.108 264.409 30.756 264.521 30.388C264.649 30.02 264.769 29.644 264.881 29.26C264.993 28.86 265.049 28.476 265.049 28.108C265.049 27.66 264.953 27.356 264.761 27.196C264.585 27.02 264.361 26.932 264.089 26.932C263.593 26.932 263.089 27.14 262.577 27.556C262.065 27.956 261.569 28.476 261.089 29.116C260.609 29.74 260.161 30.388 259.745 31.06C259.329 31.732 258.961 32.332 258.641 32.86C258.385 32.86 258.145 32.812 257.921 32.716C257.681 32.636 257.497 32.508 257.369 32.332C257.369 32.252 257.457 32.004 257.633 31.588C257.793 31.172 257.985 30.66 258.209 30.052C258.433 29.444 258.633 28.82 258.809 28.18C258.985 27.54 259.073 26.956 259.073 26.428C259.169 26.316 259.321 26.204 259.529 26.092C259.737 25.98 259.953 25.924 260.177 25.924C260.609 25.924 260.825 26.132 260.825 26.548C260.825 26.804 260.753 27.236 260.609 27.844C260.465 28.436 260.281 29.06 260.057 29.716C260.489 29.06 260.969 28.412 261.497 27.772C262.041 27.116 262.617 26.572 263.225 26.14C263.833 25.708 264.441 25.492 265.049 25.492C265.673 25.492 266.121 25.716 266.393 26.164C266.681 26.612 266.825 27.108 266.825 27.652C266.825 28.148 266.745 28.612 266.585 29.044C266.425 29.46 266.257 29.868 266.081 30.268C265.921 30.652 265.841 31.044 265.841 31.444C265.841 31.78 265.905 32.02 266.033 32.164C266.177 32.292 266.353 32.356 266.561 32.356C266.961 32.356 267.361 32.172 267.761 31.804C268.161 31.42 268.545 30.94 268.913 30.364C269.297 29.788 269.633 29.204 269.921 28.612L270.185 28.924C269.849 29.708 269.473 30.404 269.057 31.012C268.641 31.62 268.185 32.1 267.689 32.452C267.193 32.804 266.641 32.98 266.033 32.98ZM271.117 33.268C270.429 33.268 269.941 33.052 269.653 32.62C269.365 32.204 269.221 31.692 269.221 31.084C269.221 30.588 269.301 30.076 269.461 29.548C269.621 29.02 269.829 28.524 270.085 28.06C270.357 27.596 270.653 27.22 270.973 26.932C271.309 26.644 271.645 26.5 271.981 26.5C272.061 26.5 272.141 26.516 272.221 26.548C272.317 26.564 272.405 26.588 272.485 26.62C272.341 26.748 272.165 26.988 271.957 27.34C271.765 27.676 271.581 28.068 271.405 28.516C271.229 28.948 271.077 29.38 270.949 29.812C270.837 30.244 270.781 30.612 270.781 30.916C270.781 31.396 270.861 31.748 271.021 31.972C271.181 32.18 271.389 32.284 271.645 32.284C271.981 32.284 272.381 32.108 272.845 31.756C273.309 31.388 273.765 30.924 274.213 30.364C273.765 29.996 273.413 29.516 273.157 28.924C272.917 28.316 272.797 27.7 272.797 27.076C272.797 26.548 272.885 26.052 273.061 25.588C273.253 25.124 273.525 24.756 273.877 24.484C274.229 24.196 274.653 24.052 275.149 24.052C275.805 24.052 276.245 24.228 276.469 24.58C276.693 24.932 276.805 25.372 276.805 25.9C276.805 26.524 276.653 27.22 276.349 27.988C276.045 28.74 275.661 29.468 275.197 30.172C275.485 30.332 275.789 30.412 276.109 30.412C276.365 30.412 276.653 30.364 276.973 30.268C277.293 30.156 277.605 29.972 277.909 29.716C278.229 29.46 278.485 29.116 278.677 28.684L278.965 28.924C278.645 29.676 278.189 30.212 277.597 30.532C277.021 30.836 276.469 30.988 275.941 30.988C275.733 30.988 275.533 30.972 275.341 30.94C275.149 30.892 274.965 30.828 274.789 30.748C274.245 31.468 273.645 32.068 272.989 32.548C272.349 33.028 271.725 33.268 271.117 33.268ZM274.645 29.74C275.045 29.148 275.373 28.532 275.629 27.892C275.901 27.236 276.037 26.62 276.037 26.044C276.037 25.58 275.965 25.244 275.821 25.036C275.693 24.812 275.525 24.7 275.317 24.7C274.997 24.7 274.669 24.932 274.333 25.396C273.997 25.86 273.829 26.444 273.829 27.148C273.829 27.612 273.893 28.084 274.021 28.564C274.165 29.028 274.373 29.42 274.645 29.74ZM38.6618 62.844C37.8938 62.844 37.2538 62.588 36.7418 62.076C36.2297 61.564 35.9737 60.796 35.9737 59.772C35.9737 58.972 36.1257 58.196 36.4298 57.444C36.7498 56.676 37.1658 55.988 37.6777 55.38C38.1898 54.772 38.7578 54.292 39.3818 53.94C40.0058 53.572 40.6218 53.388 41.2298 53.388C41.8858 53.388 42.3338 53.58 42.5738 53.964C42.8138 54.348 42.9338 54.748 42.9338 55.164C42.9338 55.628 42.8218 56.036 42.5978 56.388C42.3898 56.74 42.1018 56.916 41.7338 56.916C41.4618 56.916 41.2298 56.796 41.0378 56.556C41.2778 56.428 41.4858 56.172 41.6618 55.788C41.8378 55.388 41.9258 55.012 41.9258 54.66C41.9258 54.468 41.8858 54.324 41.8058 54.228C41.7418 54.116 41.6058 54.06 41.3978 54.06C40.9658 54.06 40.5178 54.252 40.0538 54.636C39.6058 55.02 39.1818 55.516 38.7818 56.124C38.3978 56.732 38.0778 57.372 37.8218 58.044C37.5818 58.716 37.4618 59.348 37.4618 59.94C37.4618 60.436 37.5818 60.892 37.8218 61.308C38.0618 61.724 38.5258 61.932 39.2138 61.932C39.8538 61.932 40.4938 61.756 41.1338 61.404C41.7898 61.052 42.3978 60.548 42.9578 59.892C43.5178 59.236 43.9658 58.468 44.3018 57.588L44.6138 57.828C44.2458 58.788 43.7418 59.652 43.1018 60.42C42.4618 61.172 41.7578 61.764 40.9898 62.196C40.2218 62.628 39.4458 62.844 38.6618 62.844ZM45.5076 62.268C44.8196 62.268 44.3316 62.052 44.0436 61.62C43.7556 61.204 43.6116 60.692 43.6116 60.084C43.6116 59.588 43.6916 59.076 43.8516 58.548C44.0116 58.02 44.2196 57.524 44.4756 57.06C44.7476 56.596 45.0436 56.22 45.3636 55.932C45.6996 55.644 46.0356 55.5 46.3716 55.5C46.4516 55.5 46.5316 55.516 46.6116 55.548C46.7076 55.564 46.7956 55.588 46.8756 55.62C46.7316 55.748 46.5556 55.988 46.3476 56.34C46.1556 56.676 45.9716 57.068 45.7956 57.516C45.6196 57.948 45.4676 58.38 45.3396 58.812C45.2276 59.244 45.1716 59.612 45.1716 59.916C45.1716 60.396 45.2516 60.748 45.4116 60.972C45.5716 61.18 45.7796 61.284 46.0356 61.284C46.3716 61.284 46.7716 61.108 47.2356 60.756C47.6996 60.388 48.1556 59.924 48.6036 59.364C48.1556 58.996 47.8036 58.516 47.5476 57.924C47.3076 57.316 47.1876 56.7 47.1876 56.076C47.1876 55.548 47.2756 55.052 47.4516 54.588C47.6436 54.124 47.9156 53.756 48.2676 53.484C48.6196 53.196 49.0436 53.052 49.5396 53.052C50.1956 53.052 50.6356 53.228 50.8596 53.58C51.0836 53.932 51.1956 54.372 51.1956 54.9C51.1956 55.524 51.0436 56.22 50.7396 56.988C50.4356 57.74 50.0516 58.468 49.5876 59.172C49.8756 59.332 50.1796 59.412 50.4996 59.412C50.7556 59.412 51.0436 59.364 51.3636 59.268C51.6836 59.156 51.9956 58.972 52.2996 58.716C52.6196 58.46 52.8756 58.116 53.0676 57.684L53.3556 57.924C53.0356 58.676 52.5796 59.212 51.9876 59.532C51.4116 59.836 50.8596 59.988 50.3316 59.988C50.1236 59.988 49.9236 59.972 49.7316 59.94C49.5396 59.892 49.3556 59.828 49.1796 59.748C48.6356 60.468 48.0356 61.068 47.3796 61.548C46.7396 62.028 46.1156 62.268 45.5076 62.268ZM49.0356 58.74C49.4356 58.148 49.7636 57.532 50.0196 56.892C50.2916 56.236 50.4276 55.62 50.4276 55.044C50.4276 54.58 50.3556 54.244 50.2116 54.036C50.0836 53.812 49.9156 53.7 49.7076 53.7C49.3876 53.7 49.0596 53.932 48.7236 54.396C48.3876 54.86 48.2196 55.444 48.2196 56.148C48.2196 56.612 48.2836 57.084 48.4116 57.564C48.5556 58.028 48.7636 58.42 49.0356 58.74ZM60.3692 61.98C59.8092 61.98 59.3852 61.836 59.0972 61.548C58.8252 61.26 58.6892 60.892 58.6892 60.444C58.6892 60.108 58.7452 59.756 58.8572 59.388C58.9852 59.02 59.1052 58.644 59.2172 58.26C59.3292 57.86 59.3852 57.476 59.3852 57.108C59.3852 56.66 59.2892 56.356 59.0972 56.196C58.9212 56.02 58.6972 55.932 58.4252 55.932C57.9292 55.932 57.4252 56.14 56.9132 56.556C56.4012 56.956 55.9052 57.476 55.4252 58.116C54.9452 58.74 54.4972 59.388 54.0812 60.06C53.6652 60.732 53.2972 61.332 52.9772 61.86C52.7212 61.86 52.4812 61.812 52.2572 61.716C52.0172 61.636 51.8332 61.508 51.7052 61.332C51.7052 61.252 51.7932 61.004 51.9692 60.588C52.1292 60.172 52.3212 59.66 52.5452 59.052C52.7692 58.444 52.9692 57.82 53.1452 57.18C53.3212 56.54 53.4092 55.956 53.4092 55.428C53.5052 55.316 53.6572 55.204 53.8652 55.092C54.0732 54.98 54.2892 54.924 54.5132 54.924C54.9452 54.924 55.1612 55.132 55.1612 55.548C55.1612 55.804 55.0892 56.236 54.9452 56.844C54.8012 57.436 54.6172 58.06 54.3932 58.716C54.8252 58.06 55.3052 57.412 55.8332 56.772C56.3772 56.116 56.9532 55.572 57.5612 55.14C58.1692 54.708 58.7772 54.492 59.3852 54.492C60.0092 54.492 60.4572 54.716 60.7292 55.164C61.0172 55.612 61.1612 56.108 61.1612 56.652C61.1612 57.148 61.0812 57.612 60.9212 58.044C60.7612 58.46 60.5932 58.868 60.4172 59.268C60.2572 59.652 60.1772 60.044 60.1772 60.444C60.1772 60.78 60.2412 61.02 60.3692 61.164C60.5132 61.292 60.6892 61.356 60.8972 61.356C61.2972 61.356 61.6972 61.172 62.0972 60.804C62.4972 60.42 62.8812 59.94 63.2492 59.364C63.6332 58.788 63.9692 58.204 64.2572 57.612L64.5212 57.924C64.1852 58.708 63.8092 59.404 63.3932 60.012C62.9772 60.62 62.5212 61.1 62.0252 61.452C61.5292 61.804 60.9772 61.98 60.3692 61.98ZM65.8369 62.604C65.1489 62.604 64.6209 62.404 64.2529 62.004C63.8849 61.604 63.7009 61.012 63.7009 60.228C63.7009 59.524 63.8289 58.66 64.0849 57.636C64.3569 56.596 64.6929 55.532 65.0929 54.444C64.9329 54.412 64.7809 54.388 64.6369 54.372C64.4929 54.34 64.3569 54.3 64.2289 54.252V53.82C64.3569 53.836 64.5089 53.852 64.6849 53.868C64.8609 53.884 65.0609 53.9 65.2849 53.916C65.6209 53.052 65.9809 52.22 66.3649 51.42C66.7489 50.604 67.1249 49.884 67.4929 49.26C67.8769 48.62 68.2369 48.116 68.5729 47.748C68.9249 47.364 69.2209 47.172 69.4609 47.172C69.5889 47.172 69.7009 47.22 69.7969 47.316C69.9089 47.396 69.9649 47.524 69.9649 47.7C69.9649 47.972 69.7969 48.42 69.4609 49.044C69.1249 49.652 68.7089 50.38 68.2129 51.228C67.7169 52.076 67.2369 52.996 66.7729 53.988C66.9169 53.988 67.0609 53.988 67.2049 53.988C67.3649 53.988 67.5169 53.988 67.6609 53.988C68.1889 53.988 68.7409 53.98 69.3169 53.964C69.9089 53.948 70.5009 53.908 71.0929 53.844V54.276C70.2129 54.372 69.4209 54.444 68.7169 54.492C68.0289 54.54 67.4129 54.564 66.8689 54.564C66.8049 54.564 66.7409 54.564 66.6769 54.564C66.6289 54.564 66.5729 54.564 66.5089 54.564C66.1409 55.412 65.8289 56.284 65.5729 57.18C65.3169 58.076 65.1889 58.948 65.1889 59.796C65.1889 60.484 65.2929 60.98 65.5009 61.284C65.7089 61.572 66.0529 61.716 66.5329 61.716C67.3649 61.716 68.1809 61.348 68.9809 60.612C69.7809 59.876 70.4849 58.876 71.0929 57.612L71.4049 57.852C71.0209 58.748 70.5329 59.556 69.9409 60.276C69.3649 60.996 68.7249 61.564 68.0209 61.98C67.3169 62.396 66.5889 62.604 65.8369 62.604ZM74.7926 62.124C74.2486 62.124 73.8166 61.98 73.4966 61.692C73.1926 61.404 73.0406 61.028 73.0406 60.564C73.0406 60.084 73.1526 59.58 73.3766 59.052C73.6006 58.524 73.8166 58.004 74.0246 57.492C74.2486 56.964 74.3606 56.492 74.3606 56.076C74.3606 55.564 74.2086 55.188 73.9046 54.948C73.6166 54.692 73.3206 54.46 73.0166 54.252C72.6486 55.196 72.2646 56.092 71.8646 56.94C71.4646 57.788 71.1366 58.428 70.8806 58.86L70.6646 58.452C70.8886 58.036 71.1766 57.428 71.5286 56.628C71.8966 55.828 72.2566 54.916 72.6086 53.892C72.4486 53.732 72.3686 53.54 72.3686 53.316C72.3686 52.836 72.5046 52.444 72.7766 52.14C73.0486 51.836 73.2486 51.684 73.3766 51.684C73.5526 51.684 73.6486 51.764 73.6646 51.924C73.6966 52.068 73.7126 52.18 73.7126 52.26C73.7126 52.34 73.6646 52.5 73.5686 52.74C73.4886 52.964 73.4486 53.1 73.4486 53.148C73.4486 53.372 73.5686 53.58 73.8086 53.772C74.0646 53.948 74.3526 54.156 74.6726 54.396C74.9926 54.62 75.2726 54.9 75.5126 55.236C75.7686 55.556 75.8966 55.972 75.8966 56.484C75.8966 56.964 75.7926 57.452 75.5846 57.948C75.3926 58.444 75.1926 58.916 74.9846 59.364C74.7926 59.812 74.6966 60.204 74.6966 60.54C74.6966 60.828 74.7686 61.02 74.9126 61.116C75.0566 61.212 75.2246 61.26 75.4166 61.26C75.8006 61.26 76.1926 61.14 76.5926 60.9C77.0086 60.66 77.4086 60.356 77.7926 59.988C78.1766 59.62 78.5206 59.236 78.8246 58.836C79.1286 58.42 79.3526 58.036 79.4966 57.684L79.8086 57.924C79.5046 58.596 79.0886 59.26 78.5606 59.916C78.0326 60.556 77.4406 61.084 76.7846 61.5C76.1446 61.916 75.4806 62.124 74.7926 62.124ZM80.6404 62.268C79.9524 62.268 79.4644 62.052 79.1764 61.62C78.8884 61.204 78.7444 60.692 78.7444 60.084C78.7444 59.588 78.8244 59.076 78.9844 58.548C79.1444 58.02 79.3524 57.524 79.6084 57.06C79.8804 56.596 80.1764 56.22 80.4964 55.932C80.8324 55.644 81.1684 55.5 81.5044 55.5C81.5844 55.5 81.6644 55.516 81.7444 55.548C81.8404 55.564 81.9284 55.588 82.0084 55.62C81.8644 55.748 81.6884 55.988 81.4804 56.34C81.2884 56.676 81.1044 57.068 80.9284 57.516C80.7524 57.948 80.6004 58.38 80.4724 58.812C80.3604 59.244 80.3044 59.612 80.3044 59.916C80.3044 60.396 80.3844 60.748 80.5444 60.972C80.7044 61.18 80.9124 61.284 81.1684 61.284C81.5044 61.284 81.9044 61.108 82.3684 60.756C82.8324 60.388 83.2884 59.924 83.7364 59.364C83.2884 58.996 82.9364 58.516 82.6804 57.924C82.4404 57.316 82.3204 56.7 82.3204 56.076C82.3204 55.548 82.4084 55.052 82.5844 54.588C82.7764 54.124 83.0484 53.756 83.4004 53.484C83.7524 53.196 84.1764 53.052 84.6724 53.052C85.3284 53.052 85.7684 53.228 85.9924 53.58C86.2164 53.932 86.3284 54.372 86.3284 54.9C86.3284 55.524 86.1764 56.22 85.8724 56.988C85.5684 57.74 85.1844 58.468 84.7204 59.172C85.0084 59.332 85.3124 59.412 85.6324 59.412C85.8884 59.412 86.1764 59.364 86.4964 59.268C86.8164 59.156 87.1284 58.972 87.4324 58.716C87.7524 58.46 88.0084 58.116 88.2004 57.684L88.4884 57.924C88.1684 58.676 87.7124 59.212 87.1204 59.532C86.5444 59.836 85.9924 59.988 85.4644 59.988C85.2564 59.988 85.0564 59.972 84.8644 59.94C84.6724 59.892 84.4884 59.828 84.3124 59.748C83.7684 60.468 83.1684 61.068 82.5124 61.548C81.8724 62.028 81.2484 62.268 80.6404 62.268ZM84.1684 58.74C84.5684 58.148 84.8964 57.532 85.1524 56.892C85.4244 56.236 85.5604 55.62 85.5604 55.044C85.5604 54.58 85.4884 54.244 85.3444 54.036C85.2164 53.812 85.0484 53.7 84.8404 53.7C84.5204 53.7 84.1924 53.932 83.8564 54.396C83.5204 54.86 83.3524 55.444 83.3524 56.148C83.3524 56.612 83.4164 57.084 83.5444 57.564C83.6884 58.028 83.8964 58.42 84.1684 58.74ZM89.742 62.22C89.054 62.22 88.558 61.98 88.254 61.5C87.966 61.036 87.822 60.452 87.822 59.748C87.822 58.98 87.966 58.068 88.254 57.012C88.542 55.956 88.918 54.844 89.382 53.676C89.862 52.508 90.382 51.372 90.942 50.268C91.502 49.148 92.062 48.132 92.622 47.22C93.182 46.308 93.694 45.58 94.158 45.036C94.638 44.492 95.014 44.22 95.286 44.22C95.462 44.22 95.606 44.324 95.718 44.532C95.83 44.724 95.918 44.964 95.982 45.252C96.046 45.524 96.078 45.772 96.078 45.996C96.078 46.428 95.966 46.996 95.742 47.7C95.534 48.388 95.23 49.164 94.83 50.028C94.446 50.876 93.982 51.74 93.438 52.62C92.91 53.484 92.326 54.316 91.686 55.116C91.062 55.916 90.398 56.604 89.694 57.18C89.598 57.612 89.518 58.036 89.454 58.452C89.406 58.852 89.382 59.236 89.382 59.604C89.382 60.228 89.47 60.692 89.646 60.996C89.822 61.3 90.086 61.452 90.438 61.452C90.87 61.452 91.294 61.26 91.71 60.876C92.142 60.492 92.542 60.012 92.91 59.436C93.294 58.844 93.622 58.236 93.894 57.612L94.254 57.804C93.614 59.164 92.918 60.244 92.166 61.044C91.414 61.828 90.606 62.22 89.742 62.22ZM89.91 56.364C90.47 55.804 91.014 55.164 91.542 54.444C92.07 53.708 92.558 52.948 93.006 52.164C93.47 51.38 93.878 50.62 94.23 49.884C94.582 49.148 94.854 48.492 95.046 47.916C95.238 47.324 95.334 46.868 95.334 46.548C95.334 46.388 95.31 46.284 95.262 46.236C95.23 46.188 95.198 46.164 95.166 46.164C95.038 46.164 94.814 46.372 94.494 46.788C94.19 47.188 93.83 47.732 93.414 48.42C92.998 49.108 92.574 49.892 92.142 50.772C91.71 51.652 91.294 52.572 90.894 53.532C90.51 54.492 90.182 55.436 89.91 56.364ZM96.0139 62.556C95.0379 62.556 94.3019 62.284 93.8059 61.74C93.3259 61.212 93.0859 60.556 93.0859 59.772C93.0859 59.052 93.2619 58.292 93.6139 57.492C93.9819 56.692 94.4619 55.94 95.0539 55.236C95.6619 54.532 96.3259 53.964 97.0459 53.532C97.7659 53.084 98.4779 52.86 99.1819 52.86C99.5499 52.86 99.8859 52.956 100.19 53.148C100.51 53.34 100.67 53.732 100.67 54.324C100.67 54.932 100.486 55.508 100.118 56.052C99.7659 56.58 99.2939 57.052 98.7019 57.468C98.1259 57.884 97.4859 58.228 96.7819 58.5C96.0939 58.756 95.4059 58.916 94.7179 58.98C94.6859 59.14 94.6619 59.292 94.6459 59.436C94.6299 59.58 94.6219 59.716 94.6219 59.844C94.6219 60.084 94.6459 60.324 94.6939 60.564C94.7579 60.804 94.8619 61.028 95.0059 61.236C95.1499 61.428 95.3419 61.58 95.5819 61.692C95.8379 61.804 96.1499 61.86 96.5179 61.86C97.2059 61.86 97.8859 61.668 98.5579 61.284C99.2299 60.884 99.8539 60.364 100.43 59.724C101.006 59.084 101.494 58.38 101.894 57.612L102.182 57.828C101.75 58.788 101.198 59.62 100.526 60.324C99.8699 61.028 99.1499 61.572 98.3659 61.956C97.5979 62.356 96.8139 62.556 96.0139 62.556ZM94.8379 58.524C95.2699 58.38 95.7579 58.172 96.3019 57.9C96.8459 57.612 97.3659 57.276 97.8619 56.892C98.3739 56.508 98.7899 56.084 99.1099 55.62C99.4459 55.156 99.6139 54.668 99.6139 54.156C99.6139 53.98 99.5819 53.844 99.5179 53.748C99.4539 53.652 99.3179 53.604 99.1099 53.604C98.7259 53.604 98.3179 53.756 97.8859 54.06C97.4539 54.348 97.0379 54.732 96.6379 55.212C96.2379 55.692 95.8779 56.22 95.5579 56.796C95.2379 57.372 94.9979 57.948 94.8379 58.524ZM109.064 62.22C108.792 62.22 108.512 62.148 108.224 62.004C107.952 61.876 107.728 61.66 107.552 61.356C107.36 61.052 107.264 60.668 107.264 60.204C107.264 59.676 107.392 59.084 107.648 58.428C107.904 57.772 108.248 57.124 108.68 56.484C109.112 55.828 109.608 55.228 110.168 54.684C110.728 54.124 111.312 53.684 111.92 53.364C112.528 53.028 113.128 52.86 113.72 52.86C114.056 52.86 114.312 52.924 114.488 53.052C114.68 53.164 114.776 53.348 114.776 53.604C114.776 53.668 114.768 53.724 114.752 53.772C114.752 53.82 114.744 53.876 114.728 53.94C114.648 53.812 114.528 53.724 114.368 53.676C114.224 53.612 114.04 53.58 113.816 53.58C113.304 53.58 112.8 53.74 112.304 54.06C111.824 54.364 111.376 54.772 110.96 55.284C110.56 55.78 110.208 56.316 109.904 56.892C109.6 57.468 109.36 58.028 109.184 58.572C109.024 59.1 108.944 59.548 108.944 59.916C108.944 60.268 109.024 60.548 109.184 60.756C109.344 60.964 109.552 61.068 109.808 61.068C110.24 61.068 110.76 60.796 111.368 60.252C111.992 59.708 112.624 58.94 113.264 57.948C113.904 56.956 114.48 55.796 114.992 54.468C115.344 53.54 115.704 52.596 116.072 51.636C116.456 50.676 116.84 49.756 117.224 48.876C117.608 47.98 117.976 47.188 118.328 46.5C118.696 45.796 119.04 45.244 119.36 44.844C119.696 44.428 119.992 44.22 120.248 44.22C120.376 44.22 120.488 44.276 120.584 44.388C120.68 44.484 120.728 44.612 120.728 44.772C120.728 45.028 120.592 45.468 120.32 46.092C120.064 46.7 119.72 47.436 119.288 48.3C118.872 49.148 118.432 50.076 117.968 51.084C117.504 52.092 117.056 53.116 116.624 54.156C116.208 55.196 115.864 56.204 115.592 57.18C115.336 58.14 115.208 59.02 115.208 59.82C115.208 60.268 115.232 60.604 115.28 60.828C115.328 61.052 115.488 61.164 115.76 61.164C116.096 61.164 116.488 61.02 116.936 60.732C117.384 60.444 117.832 60.036 118.28 59.508C118.728 58.98 119.12 58.348 119.456 57.612L119.744 57.828C119.44 58.644 119.024 59.38 118.496 60.036C117.968 60.676 117.4 61.18 116.792 61.548C116.2 61.932 115.632 62.124 115.088 62.124C114.496 62.124 114.08 61.924 113.84 61.524C113.616 61.14 113.504 60.74 113.504 60.324C113.504 60.052 113.544 59.692 113.624 59.244C113.704 58.796 113.816 58.3 113.96 57.756C113.448 58.604 112.904 59.372 112.328 60.06C111.752 60.732 111.184 61.26 110.624 61.644C110.08 62.028 109.56 62.22 109.064 62.22ZM120.144 62.628C119.648 62.628 119.232 62.46 118.896 62.124C118.544 61.804 118.368 61.308 118.368 60.636C118.368 60.06 118.496 59.444 118.752 58.788C119.008 58.116 119.36 57.46 119.808 56.82C120.256 56.164 120.76 55.572 121.32 55.044C121.896 54.5 122.496 54.068 123.12 53.748C123.76 53.428 124.392 53.268 125.016 53.268C125.64 53.268 126.16 53.436 126.576 53.772C126.992 54.092 127.2 54.524 127.2 55.068C127.2 55.468 127.088 55.74 126.864 55.884C126.656 56.028 126.376 56.1 126.024 56.1C126.056 55.972 126.08 55.836 126.096 55.692C126.128 55.532 126.144 55.388 126.144 55.26C126.144 54.892 126.056 54.58 125.88 54.324C125.704 54.052 125.4 53.916 124.968 53.916C124.52 53.916 124.064 54.076 123.6 54.396C123.136 54.7 122.688 55.116 122.256 55.644C121.824 56.156 121.44 56.716 121.104 57.324C120.768 57.932 120.504 58.532 120.312 59.124C120.12 59.716 120.024 60.244 120.024 60.708C120.024 61.332 120.24 61.644 120.672 61.644C121.04 61.644 121.44 61.476 121.872 61.14C122.304 60.788 122.744 60.348 123.192 59.82C123.656 59.276 124.096 58.716 124.512 58.14C124.928 57.564 125.296 57.036 125.616 56.556C125.68 56.46 125.72 56.412 125.736 56.412C125.832 56.428 125.952 56.46 126.096 56.508C126.256 56.556 126.392 56.62 126.504 56.7C126.616 56.78 126.672 56.884 126.672 57.012C126.672 57.156 126.6 57.356 126.456 57.612C126.312 57.852 126.152 58.132 125.976 58.452C125.8 58.772 125.64 59.1 125.496 59.436C125.352 59.756 125.28 60.06 125.28 60.348C125.28 60.588 125.344 60.828 125.472 61.068C125.6 61.292 125.808 61.404 126.096 61.404C126.528 61.404 127.096 61.092 127.8 60.468C128.504 59.828 129.216 58.876 129.936 57.612L130.176 57.852C129.84 58.716 129.408 59.476 128.88 60.132C128.352 60.788 127.784 61.3 127.176 61.668C126.584 62.036 126 62.22 125.424 62.22C124.832 62.22 124.392 62.044 124.104 61.692C123.832 61.34 123.696 60.956 123.696 60.54C123.696 60.444 123.704 60.34 123.72 60.228C123.736 60.1 123.752 59.972 123.768 59.844C123.08 60.772 122.448 61.468 121.872 61.932C121.312 62.396 120.736 62.628 120.144 62.628ZM138.2 62.724C137.448 62.724 136.848 62.556 136.4 62.22C135.968 61.9 135.664 61.5 135.488 61.02C135.296 60.54 135.2 60.06 135.2 59.58C135.2 59.1 135.264 58.732 135.392 58.476C135.52 58.22 135.672 58.028 135.848 57.9C136.04 57.772 136.216 57.676 136.376 57.612C136.552 57.548 136.672 57.484 136.736 57.42C137.216 56.892 137.656 56.34 138.056 55.764C138.456 55.188 138.808 54.58 139.112 53.94V53.652C139.112 53.06 139.208 52.644 139.4 52.404C139.608 52.148 139.824 52.02 140.048 52.02C140.176 52.02 140.272 52.052 140.336 52.116C140.4 52.18 140.432 52.252 140.432 52.332C140.432 52.412 140.408 52.54 140.36 52.716C140.312 52.892 140.288 53.116 140.288 53.388C140.288 53.916 140.392 54.492 140.6 55.116C140.808 55.724 141.016 56.372 141.224 57.06C141.432 57.732 141.536 58.436 141.536 59.172C141.536 59.38 141.52 59.588 141.488 59.796C141.472 59.988 141.44 60.172 141.392 60.348C141.952 60.252 142.48 60.004 142.976 59.604C143.472 59.188 143.952 58.532 144.416 57.636L144.632 57.876C144.328 58.756 143.872 59.428 143.264 59.892C142.656 60.34 141.992 60.62 141.272 60.732C141.016 61.42 140.608 61.924 140.048 62.244C139.504 62.564 138.888 62.724 138.2 62.724ZM138.248 61.884C138.44 61.884 138.696 61.82 139.016 61.692C139.336 61.564 139.584 61.236 139.76 60.708C139.088 60.58 138.488 60.316 137.96 59.916C137.448 59.516 137.064 59.116 136.808 58.716C136.456 58.732 136.28 59.012 136.28 59.556C136.28 60.132 136.448 60.668 136.784 61.164C137.136 61.644 137.624 61.884 138.248 61.884ZM139.88 60.324C139.912 60.164 139.936 59.996 139.952 59.82C139.968 59.644 139.976 59.436 139.976 59.196C139.976 58.444 139.88 57.7 139.688 56.964C139.512 56.212 139.36 55.508 139.232 54.852C138.864 55.46 138.472 56.044 138.056 56.604C137.656 57.148 137.272 57.604 136.904 57.972C137.144 58.484 137.512 58.964 138.008 59.412C138.52 59.86 139.144 60.164 139.88 60.324ZM145.753 62.22C145.209 62.22 144.769 61.98 144.433 61.5C144.113 61.004 143.953 60.436 143.953 59.796C143.953 59.332 144.025 58.796 144.169 58.188C144.329 57.58 144.521 56.98 144.745 56.388C144.969 55.796 145.201 55.308 145.441 54.924C145.681 54.54 145.889 54.348 146.065 54.348C146.145 54.348 146.281 54.396 146.473 54.492C146.665 54.572 146.825 54.684 146.953 54.828C146.777 55.1 146.561 55.516 146.305 56.076C146.049 56.636 145.825 57.236 145.633 57.876C145.441 58.516 145.345 59.108 145.345 59.652C145.345 59.78 145.361 59.98 145.393 60.252C145.425 60.508 145.505 60.74 145.633 60.948C145.761 61.156 145.953 61.26 146.209 61.26C146.513 61.26 146.825 61.108 147.145 60.804C147.465 60.484 147.785 60.076 148.105 59.58C148.441 59.084 148.761 58.548 149.065 57.972C149.369 57.396 149.649 56.844 149.905 56.316C150.177 55.788 150.401 55.348 150.577 54.996C150.673 55.012 150.809 55.044 150.985 55.092C151.177 55.14 151.345 55.204 151.489 55.284C151.649 55.364 151.729 55.476 151.729 55.62C151.729 55.684 151.649 55.9 151.489 56.268C151.329 56.62 151.137 57.06 150.913 57.588C150.705 58.1 150.521 58.62 150.361 59.148C150.201 59.676 150.121 60.14 150.121 60.54C150.121 60.828 150.177 61.06 150.289 61.236C150.417 61.412 150.625 61.5 150.913 61.5C151.249 61.5 151.657 61.348 152.137 61.044C152.617 60.74 153.105 60.3 153.601 59.724C154.097 59.132 154.537 58.428 154.921 57.612L155.233 57.828C154.897 58.692 154.457 59.46 153.913 60.132C153.369 60.788 152.793 61.3 152.185 61.668C151.577 62.036 150.985 62.22 150.409 62.22C149.993 62.22 149.657 62.14 149.401 61.98C149.161 61.82 148.985 61.604 148.873 61.332C148.777 61.06 148.729 60.764 148.729 60.444C148.729 60.252 148.745 60.06 148.777 59.868C148.809 59.66 148.849 59.452 148.897 59.244C148.609 59.772 148.297 60.268 147.961 60.732C147.625 61.18 147.273 61.54 146.905 61.812C146.537 62.084 146.153 62.22 145.753 62.22ZM155.629 62.628C155.133 62.628 154.717 62.46 154.381 62.124C154.029 61.804 153.853 61.308 153.853 60.636C153.853 60.06 153.981 59.444 154.237 58.788C154.493 58.116 154.845 57.46 155.293 56.82C155.741 56.164 156.245 55.572 156.805 55.044C157.381 54.5 157.981 54.068 158.605 53.748C159.245 53.428 159.877 53.268 160.501 53.268C161.125 53.268 161.645 53.436 162.061 53.772C162.477 54.092 162.685 54.524 162.685 55.068C162.685 55.468 162.573 55.74 162.349 55.884C162.141 56.028 161.861 56.1 161.509 56.1C161.541 55.972 161.565 55.836 161.581 55.692C161.613 55.532 161.629 55.388 161.629 55.26C161.629 54.892 161.541 54.58 161.365 54.324C161.189 54.052 160.885 53.916 160.453 53.916C160.005 53.916 159.549 54.076 159.085 54.396C158.621 54.7 158.173 55.116 157.741 55.644C157.309 56.156 156.925 56.716 156.589 57.324C156.253 57.932 155.989 58.532 155.797 59.124C155.605 59.716 155.509 60.244 155.509 60.708C155.509 61.332 155.725 61.644 156.157 61.644C156.525 61.644 156.925 61.476 157.357 61.14C157.789 60.788 158.229 60.348 158.677 59.82C159.141 59.276 159.581 58.716 159.997 58.14C160.413 57.564 160.781 57.036 161.101 56.556C161.165 56.46 161.205 56.412 161.221 56.412C161.317 56.428 161.437 56.46 161.581 56.508C161.741 56.556 161.877 56.62 161.989 56.7C162.101 56.78 162.157 56.884 162.157 57.012C162.157 57.156 162.085 57.356 161.941 57.612C161.797 57.852 161.637 58.132 161.461 58.452C161.285 58.772 161.125 59.1 160.981 59.436C160.837 59.756 160.765 60.06 160.765 60.348C160.765 60.588 160.829 60.828 160.957 61.068C161.085 61.292 161.293 61.404 161.581 61.404C162.013 61.404 162.581 61.092 163.285 60.468C163.989 59.828 164.701 58.876 165.421 57.612L165.661 57.852C165.325 58.716 164.893 59.476 164.365 60.132C163.837 60.788 163.269 61.3 162.661 61.668C162.069 62.036 161.485 62.22 160.909 62.22C160.317 62.22 159.877 62.044 159.589 61.692C159.317 61.34 159.181 60.956 159.181 60.54C159.181 60.444 159.189 60.34 159.205 60.228C159.221 60.1 159.237 59.972 159.253 59.844C158.565 60.772 157.933 61.468 157.357 61.932C156.797 62.396 156.221 62.628 155.629 62.628ZM170.852 68.22C170.692 68.22 170.508 68.164 170.3 68.052C170.092 67.956 169.916 67.756 169.772 67.452C169.612 67.148 169.532 66.7 169.532 66.108C169.532 65.404 169.652 64.484 169.892 63.348C170.132 62.228 170.46 60.988 170.876 59.628C171.292 58.268 171.772 56.876 172.316 55.452C172.86 54.012 173.444 52.628 174.068 51.3C174.708 49.956 175.356 48.756 176.012 47.7C176.684 46.628 177.34 45.78 177.98 45.156C178.62 44.532 179.228 44.22 179.804 44.22C180.14 44.22 180.356 44.324 180.452 44.532C180.564 44.74 180.62 44.988 180.62 45.276C180.62 45.964 180.428 46.716 180.044 47.532C179.676 48.348 179.18 49.172 178.556 50.004C177.932 50.82 177.244 51.604 176.492 52.356C175.74 53.092 174.98 53.724 174.212 54.252C174.132 54.444 174.052 54.644 173.972 54.852C173.908 55.044 173.836 55.244 173.756 55.452C173.932 55.484 174.068 55.58 174.164 55.74C174.276 55.884 174.34 56.044 174.356 56.22C174.468 56.94 174.588 57.588 174.716 58.164C174.844 58.724 175.036 59.164 175.292 59.484C175.564 59.804 175.948 59.964 176.444 59.964C177.004 59.964 177.476 59.764 177.86 59.364C178.244 58.948 178.66 58.364 179.108 57.612L179.468 57.852C179.068 58.812 178.556 59.508 177.932 59.94C177.324 60.372 176.788 60.588 176.324 60.588C176.036 60.588 175.732 60.516 175.412 60.372C175.108 60.228 174.82 60.036 174.548 59.796C174.548 60.804 174.436 61.804 174.212 62.796C174.004 63.788 173.724 64.692 173.372 65.508C173.02 66.324 172.628 66.98 172.196 67.476C171.764 67.972 171.316 68.22 170.852 68.22ZM171.476 67.068C171.652 67.068 171.852 66.908 172.076 66.588C172.3 66.268 172.516 65.844 172.724 65.316C172.948 64.804 173.148 64.236 173.324 63.612C173.5 62.988 173.644 62.364 173.756 61.74C173.868 61.116 173.924 60.556 173.924 60.06C173.924 59.564 173.86 59.116 173.732 58.716C173.604 58.3 173.396 57.812 173.108 57.252C172.708 58.452 172.348 59.612 172.028 60.732C171.708 61.852 171.46 62.86 171.284 63.756C171.108 64.652 171.02 65.372 171.02 65.916C171.02 66.684 171.172 67.068 171.476 67.068ZM174.596 53.268C175.636 52.308 176.532 51.348 177.284 50.388C178.052 49.412 178.644 48.548 179.06 47.796C179.476 47.028 179.684 46.484 179.684 46.164C179.684 45.94 179.572 45.828 179.348 45.828C178.932 45.828 178.46 46.172 177.932 46.86C177.404 47.532 176.852 48.428 176.276 49.548C175.7 50.668 175.14 51.908 174.596 53.268ZM181.233 62.556C180.257 62.556 179.521 62.284 179.025 61.74C178.545 61.212 178.305 60.556 178.305 59.772C178.305 59.052 178.481 58.292 178.833 57.492C179.201 56.692 179.681 55.94 180.273 55.236C180.881 54.532 181.545 53.964 182.265 53.532C182.985 53.084 183.697 52.86 184.401 52.86C184.769 52.86 185.105 52.956 185.409 53.148C185.729 53.34 185.889 53.732 185.889 54.324C185.889 54.932 185.705 55.508 185.337 56.052C184.985 56.58 184.513 57.052 183.921 57.468C183.345 57.884 182.705 58.228 182.001 58.5C181.313 58.756 180.625 58.916 179.937 58.98C179.905 59.14 179.881 59.292 179.865 59.436C179.849 59.58 179.841 59.716 179.841 59.844C179.841 60.084 179.865 60.324 179.913 60.564C179.977 60.804 180.081 61.028 180.225 61.236C180.369 61.428 180.561 61.58 180.801 61.692C181.057 61.804 181.369 61.86 181.737 61.86C182.425 61.86 183.105 61.668 183.777 61.284C184.449 60.884 185.073 60.364 185.649 59.724C186.225 59.084 186.713 58.38 187.113 57.612L187.401 57.828C186.969 58.788 186.417 59.62 185.745 60.324C185.089 61.028 184.369 61.572 183.585 61.956C182.817 62.356 182.033 62.556 181.233 62.556ZM180.057 58.524C180.489 58.38 180.977 58.172 181.521 57.9C182.065 57.612 182.585 57.276 183.081 56.892C183.593 56.508 184.009 56.084 184.329 55.62C184.665 55.156 184.833 54.668 184.833 54.156C184.833 53.98 184.801 53.844 184.737 53.748C184.673 53.652 184.537 53.604 184.329 53.604C183.945 53.604 183.537 53.756 183.105 54.06C182.673 54.348 182.257 54.732 181.857 55.212C181.457 55.692 181.097 56.22 180.777 56.796C180.457 57.372 180.217 57.948 180.057 58.524ZM188.625 62.22C187.937 62.22 187.441 61.98 187.137 61.5C186.849 61.036 186.705 60.452 186.705 59.748C186.705 58.98 186.849 58.068 187.137 57.012C187.425 55.956 187.801 54.844 188.265 53.676C188.745 52.508 189.265 51.372 189.825 50.268C190.385 49.148 190.945 48.132 191.505 47.22C192.065 46.308 192.577 45.58 193.041 45.036C193.521 44.492 193.897 44.22 194.169 44.22C194.345 44.22 194.489 44.324 194.601 44.532C194.713 44.724 194.801 44.964 194.865 45.252C194.929 45.524 194.961 45.772 194.961 45.996C194.961 46.428 194.849 46.996 194.625 47.7C194.417 48.388 194.113 49.164 193.713 50.028C193.329 50.876 192.865 51.74 192.321 52.62C191.793 53.484 191.209 54.316 190.569 55.116C189.945 55.916 189.281 56.604 188.577 57.18C188.481 57.612 188.401 58.036 188.337 58.452C188.289 58.852 188.265 59.236 188.265 59.604C188.265 60.228 188.353 60.692 188.529 60.996C188.705 61.3 188.969 61.452 189.321 61.452C189.753 61.452 190.177 61.26 190.593 60.876C191.025 60.492 191.425 60.012 191.793 59.436C192.177 58.844 192.505 58.236 192.777 57.612L193.137 57.804C192.497 59.164 191.801 60.244 191.049 61.044C190.297 61.828 189.489 62.22 188.625 62.22ZM188.793 56.364C189.353 55.804 189.897 55.164 190.425 54.444C190.953 53.708 191.441 52.948 191.889 52.164C192.353 51.38 192.761 50.62 193.113 49.884C193.465 49.148 193.737 48.492 193.929 47.916C194.121 47.324 194.217 46.868 194.217 46.548C194.217 46.388 194.193 46.284 194.145 46.236C194.113 46.188 194.081 46.164 194.049 46.164C193.921 46.164 193.697 46.372 193.377 46.788C193.073 47.188 192.713 47.732 192.297 48.42C191.881 49.108 191.457 49.892 191.025 50.772C190.593 51.652 190.177 52.572 189.777 53.532C189.393 54.492 189.065 55.436 188.793 56.364ZM194.033 62.124C193.409 62.124 192.945 61.924 192.641 61.524C192.337 61.14 192.185 60.668 192.185 60.108C192.185 59.74 192.249 59.276 192.377 58.716C192.521 58.156 192.705 57.572 192.929 56.964C193.153 56.34 193.409 55.756 193.697 55.212C194.001 54.668 194.321 54.228 194.657 53.892C194.993 53.54 195.321 53.364 195.641 53.364C195.785 53.364 195.905 53.412 196.001 53.508C196.113 53.588 196.169 53.716 196.169 53.892C196.169 54.084 196.041 54.396 195.785 54.828C195.545 55.26 195.257 55.756 194.921 56.316C194.585 56.876 194.289 57.468 194.033 58.092C193.793 58.7 193.673 59.284 193.673 59.844C193.673 60.42 193.769 60.804 193.961 60.996C194.153 61.188 194.449 61.284 194.849 61.284C195.393 61.284 195.969 61.012 196.577 60.468C197.201 59.924 197.857 58.972 198.545 57.612L198.761 57.852C198.297 59.228 197.625 60.284 196.745 61.02C195.881 61.756 194.977 62.124 194.033 62.124ZM196.913 51.132C196.657 51.132 196.425 51.068 196.217 50.94C196.025 50.812 195.929 50.612 195.929 50.34C195.929 50.004 196.121 49.716 196.505 49.476C196.905 49.22 197.297 49.092 197.681 49.092C197.921 49.092 198.113 49.148 198.257 49.26C198.401 49.372 198.473 49.564 198.473 49.836C198.473 50.14 198.305 50.436 197.969 50.724C197.649 50.996 197.297 51.132 196.913 51.132ZM200.662 62.844C199.894 62.844 199.254 62.588 198.742 62.076C198.23 61.564 197.974 60.796 197.974 59.772C197.974 58.972 198.126 58.196 198.43 57.444C198.75 56.676 199.166 55.988 199.678 55.38C200.19 54.772 200.758 54.292 201.382 53.94C202.006 53.572 202.622 53.388 203.23 53.388C203.886 53.388 204.334 53.58 204.574 53.964C204.814 54.348 204.934 54.748 204.934 55.164C204.934 55.628 204.822 56.036 204.598 56.388C204.39 56.74 204.102 56.916 203.734 56.916C203.462 56.916 203.23 56.796 203.038 56.556C203.278 56.428 203.486 56.172 203.662 55.788C203.838 55.388 203.926 55.012 203.926 54.66C203.926 54.468 203.886 54.324 203.806 54.228C203.742 54.116 203.606 54.06 203.398 54.06C202.966 54.06 202.518 54.252 202.054 54.636C201.606 55.02 201.182 55.516 200.782 56.124C200.398 56.732 200.078 57.372 199.822 58.044C199.582 58.716 199.462 59.348 199.462 59.94C199.462 60.436 199.582 60.892 199.822 61.308C200.062 61.724 200.526 61.932 201.214 61.932C201.854 61.932 202.494 61.756 203.134 61.404C203.79 61.052 204.398 60.548 204.958 59.892C205.518 59.236 205.966 58.468 206.302 57.588L206.614 57.828C206.246 58.788 205.742 59.652 205.102 60.42C204.462 61.172 203.758 61.764 202.99 62.196C202.222 62.628 201.446 62.844 200.662 62.844ZM207.58 62.124C206.956 62.124 206.492 61.924 206.188 61.524C205.884 61.14 205.732 60.668 205.732 60.108C205.732 59.74 205.796 59.276 205.924 58.716C206.068 58.156 206.252 57.572 206.476 56.964C206.7 56.34 206.956 55.756 207.244 55.212C207.548 54.668 207.868 54.228 208.204 53.892C208.54 53.54 208.868 53.364 209.188 53.364C209.332 53.364 209.452 53.412 209.548 53.508C209.66 53.588 209.716 53.716 209.716 53.892C209.716 54.084 209.588 54.396 209.332 54.828C209.092 55.26 208.804 55.756 208.468 56.316C208.132 56.876 207.836 57.468 207.58 58.092C207.34 58.7 207.22 59.284 207.22 59.844C207.22 60.42 207.316 60.804 207.508 60.996C207.7 61.188 207.996 61.284 208.396 61.284C208.94 61.284 209.516 61.012 210.124 60.468C210.748 59.924 211.404 58.972 212.092 57.612L212.308 57.852C211.844 59.228 211.172 60.284 210.292 61.02C209.428 61.756 208.524 62.124 207.58 62.124ZM210.46 51.132C210.204 51.132 209.972 51.068 209.764 50.94C209.572 50.812 209.476 50.612 209.476 50.34C209.476 50.004 209.668 49.716 210.052 49.476C210.452 49.22 210.844 49.092 211.228 49.092C211.468 49.092 211.66 49.148 211.804 49.26C211.948 49.372 212.02 49.564 212.02 49.836C212.02 50.14 211.852 50.436 211.516 50.724C211.196 50.996 210.844 51.132 210.46 51.132ZM213.057 62.22C212.785 62.22 212.505 62.148 212.217 62.004C211.945 61.876 211.721 61.66 211.545 61.356C211.353 61.052 211.257 60.668 211.257 60.204C211.257 59.676 211.385 59.084 211.641 58.428C211.897 57.772 212.241 57.124 212.673 56.484C213.105 55.828 213.601 55.228 214.161 54.684C214.721 54.124 215.305 53.684 215.913 53.364C216.521 53.028 217.121 52.86 217.713 52.86C218.049 52.86 218.305 52.924 218.481 53.052C218.673 53.164 218.769 53.348 218.769 53.604C218.769 53.668 218.761 53.724 218.745 53.772C218.745 53.82 218.737 53.876 218.721 53.94C218.641 53.812 218.521 53.724 218.361 53.676C218.217 53.612 218.033 53.58 217.809 53.58C217.297 53.58 216.793 53.74 216.297 54.06C215.817 54.364 215.369 54.772 214.953 55.284C214.553 55.78 214.201 56.316 213.897 56.892C213.593 57.468 213.353 58.028 213.177 58.572C213.017 59.1 212.937 59.548 212.937 59.916C212.937 60.268 213.017 60.548 213.177 60.756C213.337 60.964 213.545 61.068 213.801 61.068C214.233 61.068 214.753 60.796 215.361 60.252C215.985 59.708 216.617 58.94 217.257 57.948C217.897 56.956 218.473 55.796 218.985 54.468C219.337 53.54 219.697 52.596 220.065 51.636C220.449 50.676 220.833 49.756 221.217 48.876C221.601 47.98 221.969 47.188 222.321 46.5C222.689 45.796 223.033 45.244 223.353 44.844C223.689 44.428 223.985 44.22 224.241 44.22C224.369 44.22 224.481 44.276 224.577 44.388C224.673 44.484 224.721 44.612 224.721 44.772C224.721 45.028 224.585 45.468 224.313 46.092C224.057 46.7 223.713 47.436 223.281 48.3C222.865 49.148 222.425 50.076 221.961 51.084C221.497 52.092 221.049 53.116 220.617 54.156C220.201 55.196 219.857 56.204 219.585 57.18C219.329 58.14 219.201 59.02 219.201 59.82C219.201 60.268 219.225 60.604 219.273 60.828C219.321 61.052 219.481 61.164 219.753 61.164C220.089 61.164 220.481 61.02 220.929 60.732C221.377 60.444 221.825 60.036 222.273 59.508C222.721 58.98 223.113 58.348 223.449 57.612L223.737 57.828C223.433 58.644 223.017 59.38 222.489 60.036C221.961 60.676 221.393 61.18 220.785 61.548C220.193 61.932 219.625 62.124 219.081 62.124C218.489 62.124 218.073 61.924 217.833 61.524C217.609 61.14 217.497 60.74 217.497 60.324C217.497 60.052 217.537 59.692 217.617 59.244C217.697 58.796 217.809 58.3 217.953 57.756C217.441 58.604 216.897 59.372 216.321 60.06C215.745 60.732 215.177 61.26 214.617 61.644C214.073 62.028 213.553 62.22 213.057 62.22ZM224.136 62.628C223.64 62.628 223.224 62.46 222.888 62.124C222.536 61.804 222.36 61.308 222.36 60.636C222.36 60.06 222.488 59.444 222.744 58.788C223 58.116 223.352 57.46 223.8 56.82C224.248 56.164 224.752 55.572 225.312 55.044C225.888 54.5 226.488 54.068 227.112 53.748C227.752 53.428 228.384 53.268 229.008 53.268C229.632 53.268 230.152 53.436 230.568 53.772C230.984 54.092 231.192 54.524 231.192 55.068C231.192 55.468 231.08 55.74 230.856 55.884C230.648 56.028 230.368 56.1 230.016 56.1C230.048 55.972 230.072 55.836 230.088 55.692C230.12 55.532 230.136 55.388 230.136 55.26C230.136 54.892 230.048 54.58 229.872 54.324C229.696 54.052 229.392 53.916 228.96 53.916C228.512 53.916 228.056 54.076 227.592 54.396C227.128 54.7 226.68 55.116 226.248 55.644C225.816 56.156 225.432 56.716 225.096 57.324C224.76 57.932 224.496 58.532 224.304 59.124C224.112 59.716 224.016 60.244 224.016 60.708C224.016 61.332 224.232 61.644 224.664 61.644C225.032 61.644 225.432 61.476 225.864 61.14C226.296 60.788 226.736 60.348 227.184 59.82C227.648 59.276 228.088 58.716 228.504 58.14C228.92 57.564 229.288 57.036 229.608 56.556C229.672 56.46 229.712 56.412 229.728 56.412C229.824 56.428 229.944 56.46 230.088 56.508C230.248 56.556 230.384 56.62 230.496 56.7C230.608 56.78 230.664 56.884 230.664 57.012C230.664 57.156 230.592 57.356 230.448 57.612C230.304 57.852 230.144 58.132 229.968 58.452C229.792 58.772 229.632 59.1 229.488 59.436C229.344 59.756 229.272 60.06 229.272 60.348C229.272 60.588 229.336 60.828 229.464 61.068C229.592 61.292 229.8 61.404 230.088 61.404C230.52 61.404 231.088 61.092 231.792 60.468C232.496 59.828 233.208 58.876 233.928 57.612L234.168 57.852C233.832 58.716 233.4 59.476 232.872 60.132C232.344 60.788 231.776 61.3 231.168 61.668C230.576 62.036 229.992 62.22 229.416 62.22C228.824 62.22 228.384 62.044 228.096 61.692C227.824 61.34 227.688 60.956 227.688 60.54C227.688 60.444 227.696 60.34 227.712 60.228C227.728 60.1 227.744 59.972 227.76 59.844C227.072 60.772 226.44 61.468 225.864 61.932C225.304 62.396 224.728 62.628 224.136 62.628ZM234.854 62.22C234.582 62.22 234.302 62.148 234.014 62.004C233.742 61.876 233.518 61.66 233.341 61.356C233.149 61.052 233.053 60.668 233.053 60.204C233.053 59.676 233.181 59.084 233.438 58.428C233.694 57.772 234.038 57.124 234.47 56.484C234.902 55.828 235.398 55.228 235.958 54.684C236.518 54.124 237.102 53.684 237.71 53.364C238.318 53.028 238.918 52.86 239.51 52.86C239.846 52.86 240.102 52.924 240.278 53.052C240.47 53.164 240.566 53.348 240.566 53.604C240.566 53.668 240.558 53.724 240.542 53.772C240.542 53.82 240.534 53.876 240.518 53.94C240.438 53.812 240.318 53.724 240.158 53.676C240.014 53.612 239.83 53.58 239.605 53.58C239.094 53.58 238.59 53.74 238.094 54.06C237.614 54.364 237.166 54.772 236.75 55.284C236.35 55.78 235.998 56.316 235.694 56.892C235.39 57.468 235.15 58.028 234.974 58.572C234.814 59.1 234.734 59.548 234.734 59.916C234.734 60.268 234.814 60.548 234.974 60.756C235.134 60.964 235.342 61.068 235.598 61.068C236.03 61.068 236.55 60.796 237.158 60.252C237.782 59.708 238.414 58.94 239.054 57.948C239.694 56.956 240.27 55.796 240.782 54.468C241.134 53.54 241.494 52.596 241.862 51.636C242.246 50.676 242.63 49.756 243.014 48.876C243.398 47.98 243.766 47.188 244.118 46.5C244.486 45.796 244.83 45.244 245.15 44.844C245.486 44.428 245.782 44.22 246.038 44.22C246.166 44.22 246.278 44.276 246.374 44.388C246.47 44.484 246.518 44.612 246.518 44.772C246.518 45.028 246.382 45.468 246.109 46.092C245.854 46.7 245.51 47.436 245.078 48.3C244.662 49.148 244.222 50.076 243.758 51.084C243.294 52.092 242.846 53.116 242.414 54.156C241.998 55.196 241.654 56.204 241.382 57.18C241.126 58.14 240.998 59.02 240.998 59.82C240.998 60.268 241.022 60.604 241.07 60.828C241.118 61.052 241.278 61.164 241.55 61.164C241.886 61.164 242.278 61.02 242.726 60.732C243.174 60.444 243.622 60.036 244.07 59.508C244.518 58.98 244.91 58.348 245.246 57.612L245.534 57.828C245.23 58.644 244.814 59.38 244.286 60.036C243.758 60.676 243.19 61.18 242.582 61.548C241.99 61.932 241.422 62.124 240.878 62.124C240.286 62.124 239.87 61.924 239.63 61.524C239.406 61.14 239.294 60.74 239.294 60.324C239.294 60.052 239.334 59.692 239.414 59.244C239.494 58.796 239.606 58.3 239.75 57.756C239.238 58.604 238.694 59.372 238.118 60.06C237.542 60.732 236.974 61.26 236.414 61.644C235.87 62.028 235.35 62.22 234.854 62.22ZM247.373 62.556C246.397 62.556 245.661 62.284 245.165 61.74C244.685 61.212 244.445 60.556 244.445 59.772C244.445 59.052 244.621 58.292 244.973 57.492C245.341 56.692 245.821 55.94 246.413 55.236C247.021 54.532 247.685 53.964 248.405 53.532C249.125 53.084 249.837 52.86 250.541 52.86C250.909 52.86 251.245 52.956 251.549 53.148C251.869 53.34 252.029 53.732 252.029 54.324C252.029 54.932 251.845 55.508 251.477 56.052C251.125 56.58 250.653 57.052 250.061 57.468C249.485 57.884 248.845 58.228 248.141 58.5C247.453 58.756 246.765 58.916 246.077 58.98C246.045 59.14 246.021 59.292 246.005 59.436C245.989 59.58 245.981 59.716 245.981 59.844C245.981 60.084 246.005 60.324 246.053 60.564C246.117 60.804 246.221 61.028 246.365 61.236C246.509 61.428 246.701 61.58 246.941 61.692C247.197 61.804 247.509 61.86 247.877 61.86C248.565 61.86 249.245 61.668 249.917 61.284C250.589 60.884 251.213 60.364 251.789 59.724C252.365 59.084 252.853 58.38 253.253 57.612L253.541 57.828C253.109 58.788 252.557 59.62 251.885 60.324C251.229 61.028 250.509 61.572 249.725 61.956C248.957 62.356 248.173 62.556 247.373 62.556ZM246.197 58.524C246.629 58.38 247.117 58.172 247.661 57.9C248.205 57.612 248.725 57.276 249.221 56.892C249.733 56.508 250.149 56.084 250.469 55.62C250.805 55.156 250.973 54.668 250.973 54.156C250.973 53.98 250.941 53.844 250.877 53.748C250.813 53.652 250.677 53.604 250.469 53.604C250.085 53.604 249.677 53.756 249.245 54.06C248.813 54.348 248.397 54.732 247.997 55.212C247.597 55.692 247.237 56.22 246.917 56.796C246.597 57.372 246.357 57.948 246.197 58.524ZM253.733 61.74C253.525 61.74 253.341 61.684 253.181 61.572C253.037 61.476 252.965 61.316 252.965 61.092C252.965 60.916 253.037 60.756 253.181 60.612C253.325 60.452 253.501 60.332 253.709 60.252C253.933 60.156 254.149 60.108 254.357 60.108C254.549 60.108 254.701 60.148 254.813 60.228C254.925 60.308 254.981 60.46 254.981 60.684C254.981 60.844 254.917 61.004 254.789 61.164C254.677 61.324 254.525 61.46 254.333 61.572C254.141 61.684 253.941 61.74 253.733 61.74Z" fill="black"/>
</g>
<defs>
<filter id="filter0_d_105_3" x="0.5" y="0.5" width="297" height="82" filterUnits="userSpaceOnUse" color-interpolation-filters="sRGB">
<feFlood flood-opacity="0" result="BackgroundImageFix"/>
<feColorMatrix in="SourceAlpha" type="matrix" values="0 0 0 0 0 0 0 0 0 0 0 0 0 0 0 0 0 0 127 0" result="hardAlpha"/>
<feOffset dx="2" dy="2"/>
<feGaussianBlur stdDeviation="1"/>
<feComposite in2="hardAlpha" operator="out"/>
<feColorMatrix type="matrix" values="0 0 0 0 0.333333 0 0 0 0 0.333333 0 0 0 0 0.333333 0 0 0 0.5 0"/>
<feBlend mode="normal" in2="BackgroundImageFix" result="effect1_dropShadow_105_3"/>
<feBlend mode="normal" in="SourceGraphic" in2="effect1_dropShadow_105_3" result="shape"/>
</filter>
</defs>
</svg>
