<svg width="298" height="83" viewBox="0 0 298 83" fill="none" xmlns="http://www.w3.org/2000/svg">
<g filter="url(#filter0_d_105_3)">
<rect width="293" height="78" transform="translate(0.5 0.5)" fill="#E4EDF1"/>
<path d="M50.0768 34.588C49.1648 34.588 48.3648 34.34 47.6768 33.844C46.9888 33.364 46.4448 32.676 46.0448 31.78C45.6608 30.884 45.4688 29.836 45.4688 28.636C45.4688 27.404 45.6608 26.156 46.0448 24.892C46.4448 23.628 46.9808 22.42 47.6528 21.268C48.3248 20.116 49.0848 19.092 49.9328 18.196C50.7808 17.284 51.6768 16.564 52.6208 16.036C53.5648 15.508 54.4928 15.244 55.4048 15.244C55.7088 15.244 55.9808 15.268 56.2208 15.316C56.4608 15.364 56.6688 15.436 56.8448 15.532C56.7168 15.532 56.6368 15.532 56.6048 15.532C56.5888 15.532 56.5728 15.532 56.5568 15.532C55.7248 15.532 54.8848 15.812 54.0368 16.372C53.1888 16.916 52.3808 17.66 51.6128 18.604C50.8448 19.532 50.1568 20.58 49.5488 21.748C48.9408 22.9 48.4608 24.1 48.1088 25.348C47.7568 26.596 47.5808 27.804 47.5808 28.972C47.5808 29.82 47.6848 30.612 47.8928 31.348C48.1168 32.084 48.4688 32.668 48.9488 33.1C49.4288 33.548 50.0448 33.772 50.7968 33.772C51.6928 33.772 52.5328 33.492 53.3168 32.932C54.1008 32.388 54.8048 31.644 55.4288 30.7C56.0688 29.756 56.6128 28.708 57.0608 27.556C57.5248 26.388 57.8768 25.188 58.1168 23.956C58.3728 22.708 58.5008 21.516 58.5008 20.38C58.5008 19.932 58.4688 19.452 58.4048 18.94C58.3408 18.428 58.2288 17.988 58.0688 17.62C57.9088 17.252 57.6928 17.068 57.4208 17.068C57.1328 17.068 56.8208 17.252 56.4848 17.62C56.1488 17.972 55.8208 18.42 55.5008 18.964C55.1968 19.508 54.9248 20.076 54.6848 20.668C54.4448 21.244 54.2768 21.756 54.1808 22.204C53.7808 22.108 53.4848 21.956 53.2928 21.748C53.1168 21.524 53.0288 21.284 53.0288 21.028C53.0288 20.596 53.1728 20.124 53.4608 19.612C53.7648 19.084 54.1408 18.58 54.5888 18.1C55.0528 17.604 55.5328 17.204 56.0288 16.9C56.5248 16.58 56.9728 16.42 57.3728 16.42C57.7888 16.42 58.1248 16.572 58.3808 16.876C58.6528 17.18 58.8608 17.572 59.0048 18.052C59.1648 18.516 59.2688 19.02 59.3168 19.564C59.3808 20.092 59.4128 20.588 59.4128 21.052C59.4128 22.796 59.2128 24.388 58.8128 25.828C58.4288 27.252 57.9008 28.508 57.2288 29.596C56.5728 30.684 55.8368 31.604 55.0208 32.356C54.2048 33.092 53.3648 33.644 52.5008 34.012C51.6528 34.396 50.8448 34.588 50.0768 34.588ZM62.1098 33.724C61.3578 33.724 60.7578 33.556 60.3098 33.22C59.8778 32.9 59.5738 32.5 59.3978 32.02C59.2058 31.54 59.1098 31.06 59.1098 30.58C59.1098 30.1 59.1738 29.732 59.3018 29.476C59.4298 29.22 59.5818 29.028 59.7578 28.9C59.9498 28.772 60.1258 28.676 60.2858 28.612C60.4618 28.548 60.5818 28.484 60.6458 28.42C61.1258 27.892 61.5658 27.34 61.9658 26.764C62.3658 26.188 62.7178 25.58 63.0218 24.94V24.652C63.0218 24.06 63.1178 23.644 63.3098 23.404C63.5178 23.148 63.7338 23.02 63.9578 23.02C64.0858 23.02 64.1818 23.052 64.2458 23.116C64.3098 23.18 64.3418 23.252 64.3418 23.332C64.3418 23.412 64.3178 23.54 64.2698 23.716C64.2218 23.892 64.1978 24.116 64.1978 24.388C64.1978 24.916 64.3018 25.492 64.5098 26.116C64.7178 26.724 64.9258 27.372 65.1338 28.06C65.3418 28.732 65.4458 29.436 65.4458 30.172C65.4458 30.38 65.4298 30.588 65.3978 30.796C65.3818 30.988 65.3498 31.172 65.3018 31.348C65.8618 31.252 66.3898 31.004 66.8858 30.604C67.3818 30.188 67.8618 29.532 68.3258 28.636L68.5418 28.876C68.2378 29.756 67.7818 30.428 67.1738 30.892C66.5658 31.34 65.9018 31.62 65.1818 31.732C64.9258 32.42 64.5178 32.924 63.9578 33.244C63.4138 33.564 62.7978 33.724 62.1098 33.724ZM62.1578 32.884C62.3498 32.884 62.6058 32.82 62.9258 32.692C63.2458 32.564 63.4938 32.236 63.6698 31.708C62.9978 31.58 62.3978 31.316 61.8698 30.916C61.3578 30.516 60.9738 30.116 60.7178 29.716C60.3658 29.732 60.1898 30.012 60.1898 30.556C60.1898 31.132 60.3578 31.668 60.6938 32.164C61.0458 32.644 61.5338 32.884 62.1578 32.884ZM63.7898 31.324C63.8218 31.164 63.8458 30.996 63.8618 30.82C63.8778 30.644 63.8858 30.436 63.8858 30.196C63.8858 29.444 63.7898 28.7 63.5978 27.964C63.4218 27.212 63.2698 26.508 63.1418 25.852C62.7738 26.46 62.3818 27.044 61.9658 27.604C61.5658 28.148 61.1818 28.604 60.8138 28.972C61.0538 29.484 61.4218 29.964 61.9178 30.412C62.4298 30.86 63.0538 31.164 63.7898 31.324ZM76.6177 33.724C75.8657 33.724 75.2657 33.556 74.8177 33.22C74.3857 32.9 74.0817 32.5 73.9057 32.02C73.7137 31.54 73.6177 31.06 73.6177 30.58C73.6177 30.1 73.6817 29.732 73.8097 29.476C73.9377 29.22 74.0897 29.028 74.2657 28.9C74.4577 28.772 74.6337 28.676 74.7937 28.612C74.9697 28.548 75.0897 28.484 75.1537 28.42C75.6337 27.892 76.0737 27.34 76.4737 26.764C76.8737 26.188 77.2257 25.58 77.5297 24.94V24.652C77.5297 24.06 77.6257 23.644 77.8177 23.404C78.0257 23.148 78.2417 23.02 78.4657 23.02C78.5937 23.02 78.6897 23.052 78.7537 23.116C78.8177 23.18 78.8497 23.252 78.8497 23.332C78.8497 23.412 78.8257 23.54 78.7777 23.716C78.7297 23.892 78.7057 24.116 78.7057 24.388C78.7057 24.916 78.8097 25.492 79.0177 26.116C79.2257 26.724 79.4337 27.372 79.6417 28.06C79.8497 28.732 79.9537 29.436 79.9537 30.172C79.9537 30.38 79.9377 30.588 79.9057 30.796C79.8897 30.988 79.8577 31.172 79.8097 31.348C80.3697 31.252 80.8977 31.004 81.3937 30.604C81.8897 30.188 82.3697 29.532 82.8337 28.636L83.0497 28.876C82.7457 29.756 82.2897 30.428 81.6817 30.892C81.0737 31.34 80.4097 31.62 79.6897 31.732C79.4337 32.42 79.0257 32.924 78.4657 33.244C77.9217 33.564 77.3057 33.724 76.6177 33.724ZM76.6657 32.884C76.8577 32.884 77.1137 32.82 77.4337 32.692C77.7537 32.564 78.0017 32.236 78.1777 31.708C77.5057 31.58 76.9057 31.316 76.3777 30.916C75.8657 30.516 75.4817 30.116 75.2257 29.716C74.8737 29.732 74.6977 30.012 74.6977 30.556C74.6977 31.132 74.8657 31.668 75.2017 32.164C75.5537 32.644 76.0417 32.884 76.6657 32.884ZM78.2977 31.324C78.3297 31.164 78.3537 30.996 78.3697 30.82C78.3857 30.644 78.3937 30.436 78.3937 30.196C78.3937 29.444 78.2977 28.7 78.1057 27.964C77.9297 27.212 77.7777 26.508 77.6497 25.852C77.2817 26.46 76.8897 27.044 76.4737 27.604C76.0737 28.148 75.6897 28.604 75.3217 28.972C75.5617 29.484 75.9297 29.964 76.4257 30.412C76.9377 30.86 77.5617 31.164 78.2977 31.324ZM84.0271 33.268C83.3391 33.268 82.8511 33.052 82.5631 32.62C82.2751 32.204 82.1311 31.692 82.1311 31.084C82.1311 30.588 82.2111 30.076 82.3711 29.548C82.5311 29.02 82.7391 28.524 82.9951 28.06C83.2671 27.596 83.5631 27.22 83.8831 26.932C84.2191 26.644 84.5551 26.5 84.8911 26.5C84.9711 26.5 85.0511 26.516 85.1311 26.548C85.2271 26.564 85.3151 26.588 85.3951 26.62C85.2511 26.748 85.0751 26.988 84.8671 27.34C84.6751 27.676 84.4911 28.068 84.3151 28.516C84.1391 28.948 83.9871 29.38 83.8591 29.812C83.7471 30.244 83.6911 30.612 83.6911 30.916C83.6911 31.396 83.7711 31.748 83.9311 31.972C84.0911 32.18 84.2991 32.284 84.5551 32.284C84.8911 32.284 85.2911 32.108 85.7551 31.756C86.2191 31.388 86.6751 30.924 87.1231 30.364C86.6751 29.996 86.3231 29.516 86.0671 28.924C85.8271 28.316 85.7071 27.7 85.7071 27.076C85.7071 26.548 85.7951 26.052 85.9711 25.588C86.1631 25.124 86.4351 24.756 86.7871 24.484C87.1391 24.196 87.5631 24.052 88.0591 24.052C88.7151 24.052 89.1551 24.228 89.3791 24.58C89.6031 24.932 89.7151 25.372 89.7151 25.9C89.7151 26.524 89.5631 27.22 89.2591 27.988C88.9551 28.74 88.5711 29.468 88.1071 30.172C88.3951 30.332 88.6991 30.412 89.0191 30.412C89.2751 30.412 89.5631 30.364 89.8831 30.268C90.2031 30.156 90.5151 29.972 90.8191 29.716C91.1391 29.46 91.3951 29.116 91.5871 28.684L91.8751 28.924C91.5551 29.676 91.0991 30.212 90.5071 30.532C89.9311 30.836 89.3791 30.988 88.8511 30.988C88.6431 30.988 88.4431 30.972 88.2511 30.94C88.0591 30.892 87.8751 30.828 87.6991 30.748C87.1551 31.468 86.5551 32.068 85.8991 32.548C85.2591 33.028 84.6351 33.268 84.0271 33.268ZM87.5551 29.74C87.9551 29.148 88.2831 28.532 88.5391 27.892C88.8111 27.236 88.9471 26.62 88.9471 26.044C88.9471 25.58 88.8751 25.244 88.7311 25.036C88.6031 24.812 88.4351 24.7 88.2271 24.7C87.9071 24.7 87.5791 24.932 87.2431 25.396C86.9071 25.86 86.7391 26.444 86.7391 27.148C86.7391 27.612 86.8031 28.084 86.9311 28.564C87.0751 29.028 87.2831 29.42 87.5551 29.74ZM98.8887 32.98C98.3287 32.98 97.9047 32.836 97.6167 32.548C97.3447 32.26 97.2087 31.892 97.2087 31.444C97.2087 31.108 97.2647 30.756 97.3767 30.388C97.5047 30.02 97.6247 29.644 97.7367 29.26C97.8487 28.86 97.9047 28.476 97.9047 28.108C97.9047 27.66 97.8087 27.356 97.6167 27.196C97.4407 27.02 97.2167 26.932 96.9447 26.932C96.4487 26.932 95.9447 27.14 95.4327 27.556C94.9207 27.956 94.4247 28.476 93.9447 29.116C93.4647 29.74 93.0167 30.388 92.6007 31.06C92.1847 31.732 91.8167 32.332 91.4967 32.86C91.2407 32.86 91.0007 32.812 90.7767 32.716C90.5367 32.636 90.3527 32.508 90.2247 32.332C90.2247 32.252 90.3127 32.004 90.4887 31.588C90.6487 31.172 90.8407 30.66 91.0647 30.052C91.2887 29.444 91.4887 28.82 91.6647 28.18C91.8407 27.54 91.9287 26.956 91.9287 26.428C92.0247 26.316 92.1767 26.204 92.3847 26.092C92.5927 25.98 92.8087 25.924 93.0327 25.924C93.4647 25.924 93.6807 26.132 93.6807 26.548C93.6807 26.804 93.6087 27.236 93.4647 27.844C93.3207 28.436 93.1367 29.06 92.9127 29.716C93.3447 29.06 93.8247 28.412 94.3527 27.772C94.8967 27.116 95.4727 26.572 96.0807 26.14C96.6887 25.708 97.2967 25.492 97.9047 25.492C98.5287 25.492 98.9767 25.716 99.2487 26.164C99.5367 26.612 99.6807 27.108 99.6807 27.652C99.6807 28.148 99.6007 28.612 99.4407 29.044C99.2807 29.46 99.1127 29.868 98.9367 30.268C98.7767 30.652 98.6967 31.044 98.6967 31.444C98.6967 31.78 98.7607 32.02 98.8887 32.164C99.0327 32.292 99.2087 32.356 99.4167 32.356C99.8167 32.356 100.217 32.172 100.617 31.804C101.017 31.42 101.401 30.94 101.769 30.364C102.153 29.788 102.489 29.204 102.777 28.612L103.041 28.924C102.705 29.708 102.329 30.404 101.913 31.012C101.497 31.62 101.041 32.1 100.545 32.452C100.049 32.804 99.4967 32.98 98.8887 32.98ZM103.444 33.412C103.14 33.412 102.9 33.156 102.724 32.644C102.548 32.132 102.46 31.556 102.46 30.916C102.46 30.148 102.588 29.236 102.844 28.18C103.1 27.124 103.436 26.012 103.852 24.844C104.268 23.676 104.732 22.532 105.244 21.412C105.772 20.292 106.308 19.276 106.852 18.364C107.396 17.452 107.908 16.724 108.388 16.18C108.868 15.636 109.284 15.364 109.636 15.364C109.924 15.364 110.124 15.54 110.236 15.892C110.364 16.228 110.428 16.556 110.428 16.876C110.428 17.324 110.324 17.868 110.116 18.508C109.924 19.148 109.652 19.836 109.3 20.572C108.948 21.292 108.54 22.004 108.076 22.708C107.612 23.412 107.108 24.06 106.564 24.652C106.02 25.228 105.468 25.684 104.908 26.02C104.716 26.484 104.548 27.004 104.404 27.58C104.276 28.156 104.18 28.724 104.116 29.284C104.052 29.828 104.02 30.316 104.02 30.748C104.02 30.924 104.02 31.076 104.02 31.204C104.036 31.332 104.052 31.452 104.068 31.564C104.292 30.908 104.532 30.276 104.788 29.668C105.06 29.044 105.348 28.476 105.652 27.964C105.956 27.436 106.276 26.98 106.612 26.596C106.964 26.196 107.332 25.892 107.716 25.684C108.1 25.46 108.508 25.348 108.94 25.348C109.388 25.348 109.74 25.46 109.996 25.684C110.268 25.892 110.46 26.164 110.572 26.5C110.7 26.82 110.764 27.156 110.764 27.508C110.764 28.004 110.676 28.484 110.5 28.948C110.34 29.412 110.172 29.86 109.996 30.292C109.82 30.724 109.732 31.14 109.732 31.54C109.732 31.86 109.796 32.092 109.924 32.236C110.068 32.38 110.244 32.452 110.452 32.452C110.82 32.452 111.228 32.276 111.676 31.924C112.14 31.572 112.596 31.108 113.044 30.532C113.492 29.94 113.876 29.3 114.196 28.612L114.508 28.9C114.172 29.684 113.764 30.396 113.284 31.036C112.804 31.66 112.276 32.156 111.7 32.524C111.124 32.892 110.524 33.076 109.9 33.076C109.356 33.076 108.94 32.932 108.652 32.644C108.38 32.356 108.244 31.996 108.244 31.564C108.244 31.228 108.308 30.852 108.436 30.436C108.564 30.02 108.684 29.596 108.796 29.164C108.924 28.732 108.988 28.324 108.988 27.94C108.988 27.524 108.9 27.228 108.724 27.052C108.548 26.876 108.332 26.788 108.076 26.788C107.676 26.788 107.316 26.948 106.996 27.268C106.676 27.588 106.38 28.004 106.108 28.516C105.852 29.012 105.604 29.54 105.364 30.1C105.14 30.66 104.924 31.196 104.716 31.708C104.508 32.204 104.3 32.612 104.092 32.932C103.884 33.252 103.668 33.412 103.444 33.412ZM105.22 25.084C105.668 24.732 106.1 24.284 106.516 23.74C106.948 23.196 107.348 22.62 107.716 22.012C108.084 21.388 108.412 20.78 108.7 20.188C108.988 19.596 109.212 19.06 109.372 18.58C109.532 18.1 109.612 17.74 109.612 17.5C109.612 17.42 109.604 17.372 109.588 17.356C109.572 17.324 109.548 17.308 109.516 17.308C109.404 17.308 109.172 17.532 108.82 17.98C108.484 18.412 108.092 18.996 107.644 19.732C107.196 20.468 106.756 21.3 106.324 22.228C105.892 23.156 105.524 24.108 105.22 25.084ZM115.386 33.268C114.698 33.268 114.21 33.052 113.922 32.62C113.634 32.204 113.49 31.692 113.49 31.084C113.49 30.588 113.57 30.076 113.73 29.548C113.89 29.02 114.098 28.524 114.354 28.06C114.626 27.596 114.922 27.22 115.242 26.932C115.578 26.644 115.914 26.5 116.25 26.5C116.33 26.5 116.41 26.516 116.49 26.548C116.586 26.564 116.674 26.588 116.754 26.62C116.61 26.748 116.434 26.988 116.226 27.34C116.034 27.676 115.85 28.068 115.674 28.516C115.498 28.948 115.346 29.38 115.218 29.812C115.106 30.244 115.05 30.612 115.05 30.916C115.05 31.396 115.13 31.748 115.29 31.972C115.45 32.18 115.658 32.284 115.914 32.284C116.25 32.284 116.65 32.108 117.114 31.756C117.578 31.388 118.034 30.924 118.482 30.364C118.034 29.996 117.682 29.516 117.426 28.924C117.186 28.316 117.066 27.7 117.066 27.076C117.066 26.548 117.154 26.052 117.33 25.588C117.522 25.124 117.794 24.756 118.146 24.484C118.498 24.196 118.922 24.052 119.418 24.052C120.074 24.052 120.514 24.228 120.738 24.58C120.962 24.932 121.074 25.372 121.074 25.9C121.074 26.524 120.922 27.22 120.618 27.988C120.314 28.74 119.93 29.468 119.466 30.172C119.754 30.332 120.058 30.412 120.378 30.412C120.634 30.412 120.922 30.364 121.242 30.268C121.562 30.156 121.874 29.972 122.178 29.716C122.498 29.46 122.754 29.116 122.946 28.684L123.234 28.924C122.914 29.676 122.458 30.212 121.866 30.532C121.29 30.836 120.738 30.988 120.21 30.988C120.002 30.988 119.802 30.972 119.61 30.94C119.418 30.892 119.234 30.828 119.058 30.748C118.514 31.468 117.914 32.068 117.258 32.548C116.618 33.028 115.994 33.268 115.386 33.268ZM118.914 29.74C119.314 29.148 119.642 28.532 119.898 27.892C120.17 27.236 120.306 26.62 120.306 26.044C120.306 25.58 120.234 25.244 120.09 25.036C119.962 24.812 119.794 24.7 119.586 24.7C119.266 24.7 118.938 24.932 118.602 25.396C118.266 25.86 118.098 26.444 118.098 27.148C118.098 27.612 118.162 28.084 118.29 28.564C118.434 29.028 118.642 29.42 118.914 29.74ZM125.016 33.724C124.264 33.724 123.664 33.556 123.216 33.22C122.784 32.9 122.48 32.5 122.304 32.02C122.112 31.54 122.016 31.06 122.016 30.58C122.016 30.1 122.08 29.732 122.208 29.476C122.336 29.22 122.488 29.028 122.664 28.9C122.856 28.772 123.032 28.676 123.192 28.612C123.368 28.548 123.488 28.484 123.552 28.42C124.032 27.892 124.472 27.34 124.872 26.764C125.272 26.188 125.624 25.58 125.928 24.94V24.652C125.928 24.06 126.024 23.644 126.216 23.404C126.424 23.148 126.64 23.02 126.864 23.02C126.992 23.02 127.088 23.052 127.152 23.116C127.216 23.18 127.248 23.252 127.248 23.332C127.248 23.412 127.224 23.54 127.176 23.716C127.128 23.892 127.104 24.116 127.104 24.388C127.104 24.916 127.208 25.492 127.416 26.116C127.624 26.724 127.832 27.372 128.04 28.06C128.248 28.732 128.352 29.436 128.352 30.172C128.352 30.38 128.336 30.588 128.304 30.796C128.288 30.988 128.256 31.172 128.208 31.348C128.768 31.252 129.296 31.004 129.792 30.604C130.288 30.188 130.768 29.532 131.232 28.636L131.448 28.876C131.144 29.756 130.688 30.428 130.08 30.892C129.472 31.34 128.808 31.62 128.088 31.732C127.832 32.42 127.424 32.924 126.864 33.244C126.32 33.564 125.704 33.724 125.016 33.724ZM125.064 32.884C125.256 32.884 125.512 32.82 125.832 32.692C126.152 32.564 126.4 32.236 126.576 31.708C125.904 31.58 125.304 31.316 124.776 30.916C124.264 30.516 123.88 30.116 123.624 29.716C123.272 29.732 123.096 30.012 123.096 30.556C123.096 31.132 123.264 31.668 123.6 32.164C123.952 32.644 124.44 32.884 125.064 32.884ZM126.696 31.324C126.728 31.164 126.752 30.996 126.768 30.82C126.784 30.644 126.792 30.436 126.792 30.196C126.792 29.444 126.696 28.7 126.504 27.964C126.328 27.212 126.176 26.508 126.048 25.852C125.68 26.46 125.288 27.044 124.872 27.604C124.472 28.148 124.088 28.604 123.72 28.972C123.96 29.484 124.328 29.964 124.824 30.412C125.336 30.86 125.96 31.164 126.696 31.324ZM138.156 33.628C137.66 33.628 137.244 33.46 136.908 33.124C136.556 32.804 136.38 32.308 136.38 31.636C136.38 31.06 136.508 30.444 136.764 29.788C137.02 29.116 137.372 28.46 137.82 27.82C138.268 27.164 138.772 26.572 139.332 26.044C139.908 25.5 140.508 25.068 141.132 24.748C141.772 24.428 142.404 24.268 143.028 24.268C143.652 24.268 144.172 24.436 144.588 24.772C145.004 25.092 145.212 25.524 145.212 26.068C145.212 26.468 145.1 26.74 144.876 26.884C144.668 27.028 144.388 27.1 144.036 27.1C144.068 26.972 144.092 26.836 144.108 26.692C144.14 26.532 144.156 26.388 144.156 26.26C144.156 25.892 144.068 25.58 143.892 25.324C143.716 25.052 143.412 24.916 142.98 24.916C142.532 24.916 142.076 25.076 141.612 25.396C141.148 25.7 140.7 26.116 140.268 26.644C139.836 27.156 139.452 27.716 139.116 28.324C138.78 28.932 138.516 29.532 138.324 30.124C138.132 30.716 138.036 31.244 138.036 31.708C138.036 32.332 138.252 32.644 138.684 32.644C139.052 32.644 139.452 32.476 139.884 32.14C140.316 31.788 140.756 31.348 141.204 30.82C141.668 30.276 142.108 29.716 142.524 29.14C142.94 28.564 143.308 28.036 143.628 27.556C143.692 27.46 143.732 27.412 143.748 27.412C143.844 27.428 143.964 27.46 144.108 27.508C144.268 27.556 144.404 27.62 144.516 27.7C144.628 27.78 144.684 27.884 144.684 28.012C144.684 28.156 144.612 28.356 144.468 28.612C144.324 28.852 144.164 29.132 143.988 29.452C143.812 29.772 143.652 30.1 143.508 30.436C143.364 30.756 143.292 31.06 143.292 31.348C143.292 31.588 143.356 31.828 143.484 32.068C143.612 32.292 143.82 32.404 144.108 32.404C144.54 32.404 145.108 32.092 145.812 31.468C146.516 30.828 147.228 29.876 147.948 28.612L148.188 28.852C147.852 29.716 147.42 30.476 146.892 31.132C146.364 31.788 145.796 32.3 145.188 32.668C144.596 33.036 144.012 33.22 143.436 33.22C142.844 33.22 142.404 33.044 142.116 32.692C141.844 32.34 141.708 31.956 141.708 31.54C141.708 31.444 141.716 31.34 141.732 31.228C141.748 31.1 141.764 30.972 141.78 30.844C141.092 31.772 140.46 32.468 139.884 32.932C139.324 33.396 138.748 33.628 138.156 33.628ZM155.209 32.98C154.649 32.98 154.225 32.836 153.937 32.548C153.665 32.26 153.529 31.892 153.529 31.444C153.529 31.108 153.585 30.756 153.697 30.388C153.825 30.02 153.945 29.644 154.057 29.26C154.169 28.86 154.225 28.476 154.225 28.108C154.225 27.66 154.129 27.356 153.937 27.196C153.761 27.02 153.537 26.932 153.265 26.932C152.769 26.932 152.265 27.14 151.753 27.556C151.241 27.956 150.745 28.476 150.265 29.116C149.785 29.74 149.337 30.388 148.921 31.06C148.505 31.732 148.137 32.332 147.817 32.86C147.561 32.86 147.321 32.812 147.097 32.716C146.857 32.636 146.673 32.508 146.545 32.332C146.545 32.252 146.633 32.004 146.809 31.588C146.969 31.172 147.161 30.66 147.385 30.052C147.609 29.444 147.809 28.82 147.985 28.18C148.161 27.54 148.249 26.956 148.249 26.428C148.345 26.316 148.497 26.204 148.705 26.092C148.913 25.98 149.129 25.924 149.353 25.924C149.785 25.924 150.001 26.132 150.001 26.548C150.001 26.804 149.929 27.236 149.785 27.844C149.641 28.436 149.457 29.06 149.233 29.716C149.665 29.06 150.145 28.412 150.673 27.772C151.217 27.116 151.793 26.572 152.401 26.14C153.009 25.708 153.617 25.492 154.225 25.492C154.849 25.492 155.297 25.716 155.569 26.164C155.857 26.612 156.001 27.108 156.001 27.652C156.001 28.148 155.921 28.612 155.761 29.044C155.601 29.46 155.433 29.868 155.257 30.268C155.097 30.652 155.017 31.044 155.017 31.444C155.017 31.78 155.081 32.02 155.209 32.164C155.353 32.292 155.529 32.356 155.737 32.356C156.137 32.356 156.537 32.172 156.937 31.804C157.337 31.42 157.721 30.94 158.089 30.364C158.473 29.788 158.809 29.204 159.097 28.612L159.361 28.924C159.025 29.708 158.649 30.404 158.233 31.012C157.817 31.62 157.361 32.1 156.865 32.452C156.369 32.804 155.817 32.98 155.209 32.98ZM160.677 33.604C159.989 33.604 159.461 33.404 159.093 33.004C158.725 32.604 158.541 32.012 158.541 31.228C158.541 30.524 158.669 29.66 158.925 28.636C159.197 27.596 159.533 26.532 159.933 25.444C159.773 25.412 159.621 25.388 159.477 25.372C159.333 25.34 159.197 25.3 159.069 25.252V24.82C159.197 24.836 159.349 24.852 159.525 24.868C159.701 24.884 159.901 24.9 160.125 24.916C160.461 24.052 160.821 23.22 161.205 22.42C161.589 21.604 161.965 20.884 162.333 20.26C162.717 19.62 163.077 19.116 163.413 18.748C163.765 18.364 164.061 18.172 164.301 18.172C164.429 18.172 164.541 18.22 164.637 18.316C164.749 18.396 164.805 18.524 164.805 18.7C164.805 18.972 164.637 19.42 164.301 20.044C163.965 20.652 163.549 21.38 163.053 22.228C162.557 23.076 162.077 23.996 161.613 24.988C161.757 24.988 161.901 24.988 162.045 24.988C162.205 24.988 162.357 24.988 162.501 24.988C163.029 24.988 163.581 24.98 164.157 24.964C164.749 24.948 165.341 24.908 165.933 24.844V25.276C165.053 25.372 164.261 25.444 163.557 25.492C162.869 25.54 162.253 25.564 161.709 25.564C161.645 25.564 161.581 25.564 161.517 25.564C161.469 25.564 161.413 25.564 161.349 25.564C160.981 26.412 160.669 27.284 160.413 28.18C160.157 29.076 160.029 29.948 160.029 30.796C160.029 31.484 160.133 31.98 160.341 32.284C160.549 32.572 160.893 32.716 161.373 32.716C162.205 32.716 163.021 32.348 163.821 31.612C164.621 30.876 165.325 29.876 165.933 28.612L166.245 28.852C165.861 29.748 165.373 30.556 164.781 31.276C164.205 31.996 163.565 32.564 162.861 32.98C162.157 33.396 161.429 33.604 160.677 33.604ZM168.072 33.556C167.096 33.556 166.36 33.284 165.864 32.74C165.384 32.212 165.144 31.556 165.144 30.772C165.144 30.052 165.32 29.292 165.672 28.492C166.04 27.692 166.52 26.94 167.112 26.236C167.72 25.532 168.384 24.964 169.104 24.532C169.824 24.084 170.536 23.86 171.24 23.86C171.608 23.86 171.944 23.956 172.248 24.148C172.568 24.34 172.728 24.732 172.728 25.324C172.728 25.932 172.544 26.508 172.176 27.052C171.824 27.58 171.352 28.052 170.76 28.468C170.184 28.884 169.544 29.228 168.84 29.5C168.152 29.756 167.464 29.916 166.776 29.98C166.744 30.14 166.72 30.292 166.704 30.436C166.688 30.58 166.68 30.716 166.68 30.844C166.68 31.084 166.704 31.324 166.752 31.564C166.816 31.804 166.92 32.028 167.064 32.236C167.208 32.428 167.4 32.58 167.64 32.692C167.896 32.804 168.208 32.86 168.576 32.86C169.264 32.86 169.944 32.668 170.616 32.284C171.288 31.884 171.912 31.364 172.488 30.724C173.064 30.084 173.552 29.38 173.952 28.612L174.24 28.828C173.808 29.788 173.256 30.62 172.584 31.324C171.928 32.028 171.208 32.572 170.424 32.956C169.656 33.356 168.872 33.556 168.072 33.556ZM166.896 29.524C167.328 29.38 167.816 29.172 168.36 28.9C168.904 28.612 169.424 28.276 169.92 27.892C170.432 27.508 170.848 27.084 171.168 26.62C171.504 26.156 171.672 25.668 171.672 25.156C171.672 24.98 171.64 24.844 171.576 24.748C171.512 24.652 171.376 24.604 171.168 24.604C170.784 24.604 170.376 24.756 169.944 25.06C169.512 25.348 169.096 25.732 168.696 26.212C168.296 26.692 167.936 27.22 167.616 27.796C167.296 28.372 167.056 28.948 166.896 29.524ZM176.041 33.844C175.273 33.844 174.633 33.588 174.121 33.076C173.609 32.564 173.353 31.796 173.353 30.772C173.353 29.972 173.505 29.196 173.809 28.444C174.129 27.676 174.545 26.988 175.057 26.38C175.569 25.772 176.137 25.292 176.761 24.94C177.385 24.572 178.001 24.388 178.609 24.388C179.265 24.388 179.713 24.58 179.953 24.964C180.193 25.348 180.313 25.748 180.313 26.164C180.313 26.628 180.201 27.036 179.977 27.388C179.769 27.74 179.481 27.916 179.113 27.916C178.841 27.916 178.609 27.796 178.417 27.556C178.657 27.428 178.865 27.172 179.041 26.788C179.217 26.388 179.305 26.012 179.305 25.66C179.305 25.468 179.265 25.324 179.185 25.228C179.121 25.116 178.985 25.06 178.777 25.06C178.345 25.06 177.897 25.252 177.433 25.636C176.985 26.02 176.561 26.516 176.161 27.124C175.777 27.732 175.457 28.372 175.201 29.044C174.961 29.716 174.841 30.348 174.841 30.94C174.841 31.436 174.961 31.892 175.201 32.308C175.441 32.724 175.905 32.932 176.593 32.932C177.233 32.932 177.873 32.756 178.513 32.404C179.169 32.052 179.777 31.548 180.337 30.892C180.897 30.236 181.345 29.468 181.681 28.588L181.993 28.828C181.625 29.788 181.121 30.652 180.481 31.42C179.841 32.172 179.137 32.764 178.369 33.196C177.601 33.628 176.825 33.844 176.041 33.844ZM183.822 33.556C182.846 33.556 182.11 33.284 181.614 32.74C181.134 32.212 180.894 31.556 180.894 30.772C180.894 30.052 181.07 29.292 181.422 28.492C181.79 27.692 182.27 26.94 182.862 26.236C183.47 25.532 184.134 24.964 184.854 24.532C185.574 24.084 186.286 23.86 186.99 23.86C187.358 23.86 187.694 23.956 187.998 24.148C188.318 24.34 188.478 24.732 188.478 25.324C188.478 25.932 188.294 26.508 187.926 27.052C187.574 27.58 187.102 28.052 186.51 28.468C185.934 28.884 185.294 29.228 184.59 29.5C183.902 29.756 183.214 29.916 182.526 29.98C182.494 30.14 182.47 30.292 182.454 30.436C182.438 30.58 182.43 30.716 182.43 30.844C182.43 31.084 182.454 31.324 182.502 31.564C182.566 31.804 182.67 32.028 182.814 32.236C182.958 32.428 183.15 32.58 183.39 32.692C183.646 32.804 183.958 32.86 184.326 32.86C185.014 32.86 185.694 32.668 186.366 32.284C187.038 31.884 187.662 31.364 188.238 30.724C188.814 30.084 189.302 29.38 189.702 28.612L189.99 28.828C189.558 29.788 189.006 30.62 188.334 31.324C187.678 32.028 186.958 32.572 186.174 32.956C185.406 33.356 184.622 33.556 183.822 33.556ZM182.646 29.524C183.078 29.38 183.566 29.172 184.11 28.9C184.654 28.612 185.174 28.276 185.67 27.892C186.182 27.508 186.598 27.084 186.918 26.62C187.254 26.156 187.422 25.668 187.422 25.156C187.422 24.98 187.39 24.844 187.326 24.748C187.262 24.652 187.126 24.604 186.918 24.604C186.534 24.604 186.126 24.756 185.694 25.06C185.262 25.348 184.846 25.732 184.446 26.212C184.046 26.692 183.686 27.22 183.366 27.796C183.046 28.372 182.806 28.948 182.646 29.524ZM190.639 33.22C190.367 33.22 190.087 33.148 189.799 33.004C189.527 32.876 189.303 32.66 189.127 32.356C188.935 32.052 188.839 31.668 188.839 31.204C188.839 30.676 188.967 30.084 189.223 29.428C189.479 28.772 189.823 28.124 190.255 27.484C190.687 26.828 191.183 26.228 191.743 25.684C192.303 25.124 192.887 24.684 193.495 24.364C194.103 24.028 194.703 23.86 195.295 23.86C195.631 23.86 195.887 23.924 196.063 24.052C196.255 24.164 196.351 24.348 196.351 24.604C196.351 24.668 196.343 24.724 196.327 24.772C196.327 24.82 196.319 24.876 196.303 24.94C196.223 24.812 196.103 24.724 195.943 24.676C195.799 24.612 195.615 24.58 195.391 24.58C194.879 24.58 194.375 24.74 193.879 25.06C193.399 25.364 192.951 25.772 192.535 26.284C192.135 26.78 191.783 27.316 191.479 27.892C191.175 28.468 190.935 29.028 190.759 29.572C190.599 30.1 190.519 30.548 190.519 30.916C190.519 31.268 190.599 31.548 190.759 31.756C190.919 31.964 191.127 32.068 191.383 32.068C191.815 32.068 192.335 31.796 192.943 31.252C193.567 30.708 194.199 29.94 194.839 28.948C195.479 27.956 196.055 26.796 196.567 25.468C196.919 24.54 197.279 23.596 197.647 22.636C198.031 21.676 198.415 20.756 198.799 19.876C199.183 18.98 199.551 18.188 199.903 17.5C200.271 16.796 200.615 16.244 200.935 15.844C201.271 15.428 201.567 15.22 201.823 15.22C201.951 15.22 202.063 15.276 202.159 15.388C202.255 15.484 202.303 15.612 202.303 15.772C202.303 16.028 202.167 16.468 201.895 17.092C201.639 17.7 201.295 18.436 200.863 19.3C200.447 20.148 200.007 21.076 199.543 22.084C199.079 23.092 198.631 24.116 198.199 25.156C197.783 26.196 197.439 27.204 197.167 28.18C196.911 29.14 196.783 30.02 196.783 30.82C196.783 31.268 196.807 31.604 196.855 31.828C196.903 32.052 197.063 32.164 197.335 32.164C197.671 32.164 198.063 32.02 198.511 31.732C198.959 31.444 199.407 31.036 199.855 30.508C200.303 29.98 200.695 29.348 201.031 28.612L201.319 28.828C201.015 29.644 200.599 30.38 200.071 31.036C199.543 31.676 198.975 32.18 198.367 32.548C197.775 32.932 197.207 33.124 196.663 33.124C196.071 33.124 195.655 32.924 195.415 32.524C195.191 32.14 195.079 31.74 195.079 31.324C195.079 31.052 195.119 30.692 195.199 30.244C195.279 29.796 195.391 29.3 195.535 28.756C195.023 29.604 194.479 30.372 193.903 31.06C193.327 31.732 192.759 32.26 192.199 32.644C191.655 33.028 191.135 33.22 190.639 33.22ZM203.158 33.556C202.182 33.556 201.446 33.284 200.95 32.74C200.47 32.212 200.23 31.556 200.23 30.772C200.23 30.052 200.406 29.292 200.758 28.492C201.126 27.692 201.606 26.94 202.198 26.236C202.806 25.532 203.47 24.964 204.19 24.532C204.91 24.084 205.622 23.86 206.326 23.86C206.694 23.86 207.03 23.956 207.334 24.148C207.654 24.34 207.814 24.732 207.814 25.324C207.814 25.932 207.63 26.508 207.262 27.052C206.91 27.58 206.438 28.052 205.846 28.468C205.27 28.884 204.63 29.228 203.926 29.5C203.238 29.756 202.55 29.916 201.862 29.98C201.83 30.14 201.806 30.292 201.79 30.436C201.774 30.58 201.766 30.716 201.766 30.844C201.766 31.084 201.79 31.324 201.838 31.564C201.902 31.804 202.006 32.028 202.15 32.236C202.294 32.428 202.486 32.58 202.726 32.692C202.982 32.804 203.294 32.86 203.662 32.86C204.35 32.86 205.03 32.668 205.702 32.284C206.374 31.884 206.998 31.364 207.574 30.724C208.15 30.084 208.638 29.38 209.038 28.612L209.326 28.828C208.894 29.788 208.342 30.62 207.67 31.324C207.014 32.028 206.294 32.572 205.51 32.956C204.742 33.356 203.958 33.556 203.158 33.556ZM201.982 29.524C202.414 29.38 202.902 29.172 203.446 28.9C203.99 28.612 204.51 28.276 205.006 27.892C205.518 27.508 205.934 27.084 206.254 26.62C206.59 26.156 206.758 25.668 206.758 25.156C206.758 24.98 206.726 24.844 206.662 24.748C206.598 24.652 206.462 24.604 206.254 24.604C205.87 24.604 205.462 24.756 205.03 25.06C204.598 25.348 204.182 25.732 203.782 26.212C203.382 26.692 203.022 27.22 202.702 27.796C202.382 28.372 202.142 28.948 201.982 29.524ZM220.655 33.244C220.095 33.244 219.687 33.068 219.431 32.716C219.175 32.38 219.047 31.972 219.047 31.492C219.047 31.092 219.103 30.692 219.215 30.292C219.343 29.892 219.463 29.5 219.575 29.116C219.703 28.732 219.767 28.388 219.767 28.084C219.767 27.764 219.695 27.54 219.551 27.412C219.407 27.284 219.247 27.22 219.071 27.22C218.671 27.22 218.231 27.532 217.751 28.156C217.287 28.78 216.679 29.66 215.927 30.796C215.671 31.18 215.455 31.572 215.279 31.972C215.103 32.356 214.935 32.708 214.775 33.028C214.647 33.028 214.487 33.012 214.295 32.98C214.103 32.948 213.927 32.892 213.767 32.812C213.623 32.748 213.551 32.66 213.551 32.548C213.551 32.436 213.623 32.172 213.767 31.756C213.927 31.324 214.103 30.828 214.295 30.268C214.503 29.692 214.679 29.116 214.823 28.54C214.983 27.948 215.063 27.444 215.063 27.028C215.063 26.756 215.015 26.54 214.919 26.38C214.839 26.204 214.687 26.116 214.463 26.116C214.111 26.116 213.687 26.332 213.191 26.764C212.695 27.18 212.183 27.732 211.655 28.42C211.127 29.108 210.623 29.868 210.143 30.7C209.679 31.516 209.303 32.332 209.015 33.148C208.871 33.148 208.695 33.124 208.487 33.076C208.279 33.028 208.103 32.964 207.959 32.884C207.799 32.804 207.719 32.724 207.719 32.644C207.719 32.548 207.807 32.268 207.983 31.804C208.143 31.324 208.335 30.756 208.559 30.1C208.767 29.428 208.951 28.748 209.111 28.06C209.287 27.372 209.375 26.764 209.375 26.236C209.471 26.124 209.623 26.012 209.831 25.9C210.039 25.788 210.255 25.732 210.479 25.732C210.703 25.732 210.863 25.788 210.959 25.9C211.071 26.012 211.127 26.164 211.127 26.356C211.127 26.564 211.063 26.924 210.935 27.436C210.823 27.932 210.679 28.484 210.503 29.092C210.823 28.58 211.183 28.06 211.583 27.532C211.999 26.988 212.431 26.492 212.879 26.044C213.327 25.596 213.775 25.236 214.223 24.964C214.687 24.676 215.135 24.532 215.567 24.532C216.063 24.532 216.399 24.716 216.575 25.084C216.767 25.436 216.863 25.86 216.863 26.356C216.863 26.756 216.815 27.18 216.719 27.628C216.639 28.06 216.543 28.468 216.431 28.852C216.319 29.22 216.215 29.516 216.119 29.74C216.455 29.132 216.823 28.548 217.223 27.988C217.639 27.412 218.087 26.948 218.567 26.596C219.047 26.228 219.559 26.044 220.103 26.044C220.615 26.044 220.967 26.196 221.159 26.5C221.367 26.804 221.471 27.164 221.471 27.58C221.471 27.996 221.399 28.452 221.255 28.948C221.111 29.444 220.959 29.924 220.799 30.388C220.655 30.852 220.583 31.252 220.583 31.588C220.583 31.796 220.631 31.988 220.727 32.164C220.839 32.324 221.031 32.404 221.303 32.404C221.751 32.404 222.167 32.204 222.551 31.804C222.951 31.388 223.319 30.892 223.655 30.316C223.991 29.724 224.279 29.156 224.519 28.612L224.807 28.948C224.551 29.62 224.223 30.292 223.823 30.964C223.423 31.62 222.951 32.164 222.407 32.596C221.879 33.028 221.295 33.244 220.655 33.244ZM231.461 33.628C230.965 33.628 230.549 33.46 230.213 33.124C229.861 32.804 229.685 32.308 229.685 31.636C229.685 31.06 229.813 30.444 230.069 29.788C230.325 29.116 230.677 28.46 231.125 27.82C231.573 27.164 232.077 26.572 232.637 26.044C233.213 25.5 233.813 25.068 234.437 24.748C235.077 24.428 235.709 24.268 236.333 24.268C236.957 24.268 237.477 24.436 237.893 24.772C238.309 25.092 238.517 25.524 238.517 26.068C238.517 26.468 238.405 26.74 238.181 26.884C237.973 27.028 237.693 27.1 237.341 27.1C237.373 26.972 237.397 26.836 237.413 26.692C237.445 26.532 237.461 26.388 237.461 26.26C237.461 25.892 237.373 25.58 237.197 25.324C237.021 25.052 236.717 24.916 236.285 24.916C235.837 24.916 235.381 25.076 234.917 25.396C234.453 25.7 234.005 26.116 233.573 26.644C233.141 27.156 232.757 27.716 232.421 28.324C232.085 28.932 231.821 29.532 231.629 30.124C231.437 30.716 231.341 31.244 231.341 31.708C231.341 32.332 231.557 32.644 231.989 32.644C232.357 32.644 232.757 32.476 233.189 32.14C233.621 31.788 234.061 31.348 234.509 30.82C234.973 30.276 235.413 29.716 235.829 29.14C236.245 28.564 236.613 28.036 236.933 27.556C236.997 27.46 237.037 27.412 237.053 27.412C237.149 27.428 237.269 27.46 237.413 27.508C237.573 27.556 237.709 27.62 237.821 27.7C237.933 27.78 237.989 27.884 237.989 28.012C237.989 28.156 237.917 28.356 237.773 28.612C237.629 28.852 237.469 29.132 237.293 29.452C237.117 29.772 236.957 30.1 236.813 30.436C236.669 30.756 236.597 31.06 236.597 31.348C236.597 31.588 236.661 31.828 236.789 32.068C236.917 32.292 237.125 32.404 237.413 32.404C237.845 32.404 238.413 32.092 239.117 31.468C239.821 30.828 240.533 29.876 241.253 28.612L241.493 28.852C241.157 29.716 240.725 30.476 240.197 31.132C239.669 31.788 239.101 32.3 238.493 32.668C237.901 33.036 237.317 33.22 236.741 33.22C236.149 33.22 235.709 33.044 235.421 32.692C235.149 32.34 235.013 31.956 235.013 31.54C235.013 31.444 235.021 31.34 235.037 31.228C235.053 31.1 235.069 30.972 235.085 30.844C234.397 31.772 233.765 32.468 233.189 32.932C232.629 33.396 232.053 33.628 231.461 33.628ZM243.282 33.724C242.53 33.724 241.93 33.556 241.482 33.22C241.05 32.9 240.746 32.5 240.57 32.02C240.378 31.54 240.282 31.06 240.282 30.58C240.282 30.1 240.346 29.732 240.474 29.476C240.602 29.22 240.754 29.028 240.93 28.9C241.122 28.772 241.298 28.676 241.458 28.612C241.634 28.548 241.754 28.484 241.818 28.42C242.298 27.892 242.738 27.34 243.138 26.764C243.538 26.188 243.89 25.58 244.194 24.94V24.652C244.194 24.06 244.29 23.644 244.482 23.404C244.69 23.148 244.906 23.02 245.13 23.02C245.258 23.02 245.354 23.052 245.418 23.116C245.482 23.18 245.514 23.252 245.514 23.332C245.514 23.412 245.49 23.54 245.442 23.716C245.394 23.892 245.37 24.116 245.37 24.388C245.37 24.916 245.474 25.492 245.682 26.116C245.89 26.724 246.098 27.372 246.306 28.06C246.514 28.732 246.618 29.436 246.618 30.172C246.618 30.38 246.602 30.588 246.57 30.796C246.554 30.988 246.522 31.172 246.474 31.348C247.034 31.252 247.562 31.004 248.058 30.604C248.554 30.188 249.034 29.532 249.498 28.636L249.714 28.876C249.41 29.756 248.954 30.428 248.346 30.892C247.738 31.34 247.074 31.62 246.354 31.732C246.098 32.42 245.69 32.924 245.13 33.244C244.586 33.564 243.97 33.724 243.282 33.724ZM243.33 32.884C243.522 32.884 243.778 32.82 244.098 32.692C244.418 32.564 244.666 32.236 244.842 31.708C244.17 31.58 243.57 31.316 243.042 30.916C242.53 30.516 242.146 30.116 241.89 29.716C241.538 29.732 241.362 30.012 241.362 30.556C241.362 31.132 241.53 31.668 241.866 32.164C242.218 32.644 242.706 32.884 243.33 32.884ZM244.962 31.324C244.994 31.164 245.018 30.996 245.034 30.82C245.05 30.644 245.058 30.436 245.058 30.196C245.058 29.444 244.962 28.7 244.77 27.964C244.594 27.212 244.442 26.508 244.314 25.852C243.946 26.46 243.554 27.044 243.138 27.604C242.738 28.148 242.354 28.604 241.986 28.972C242.226 29.484 242.594 29.964 243.09 30.412C243.602 30.86 244.226 31.164 244.962 31.324ZM103.256 62.844C102.488 62.844 101.848 62.588 101.336 62.076C100.823 61.564 100.567 60.796 100.567 59.772C100.567 58.972 100.719 58.196 101.024 57.444C101.344 56.676 101.76 55.988 102.271 55.38C102.784 54.772 103.352 54.292 103.976 53.94C104.6 53.572 105.216 53.388 105.824 53.388C106.48 53.388 106.928 53.58 107.168 53.964C107.408 54.348 107.528 54.748 107.528 55.164C107.528 55.628 107.416 56.036 107.192 56.388C106.984 56.74 106.696 56.916 106.328 56.916C106.056 56.916 105.824 56.796 105.632 56.556C105.872 56.428 106.08 56.172 106.256 55.788C106.432 55.388 106.52 55.012 106.52 54.66C106.52 54.468 106.48 54.324 106.4 54.228C106.336 54.116 106.2 54.06 105.992 54.06C105.56 54.06 105.112 54.252 104.648 54.636C104.2 55.02 103.776 55.516 103.376 56.124C102.992 56.732 102.672 57.372 102.416 58.044C102.176 58.716 102.056 59.348 102.056 59.94C102.056 60.436 102.176 60.892 102.416 61.308C102.656 61.724 103.12 61.932 103.808 61.932C104.448 61.932 105.088 61.756 105.728 61.404C106.384 61.052 106.992 60.548 107.552 59.892C108.112 59.236 108.56 58.468 108.896 57.588L109.208 57.828C108.84 58.788 108.336 59.652 107.696 60.42C107.056 61.172 106.352 61.764 105.584 62.196C104.816 62.628 104.04 62.844 103.256 62.844ZM110.101 62.268C109.413 62.268 108.925 62.052 108.637 61.62C108.349 61.204 108.205 60.692 108.205 60.084C108.205 59.588 108.285 59.076 108.445 58.548C108.605 58.02 108.813 57.524 109.069 57.06C109.341 56.596 109.637 56.22 109.957 55.932C110.293 55.644 110.629 55.5 110.965 55.5C111.045 55.5 111.125 55.516 111.205 55.548C111.301 55.564 111.389 55.588 111.469 55.62C111.325 55.748 111.149 55.988 110.941 56.34C110.749 56.676 110.565 57.068 110.389 57.516C110.213 57.948 110.061 58.38 109.933 58.812C109.821 59.244 109.765 59.612 109.765 59.916C109.765 60.396 109.845 60.748 110.005 60.972C110.165 61.18 110.373 61.284 110.629 61.284C110.965 61.284 111.365 61.108 111.829 60.756C112.293 60.388 112.749 59.924 113.197 59.364C112.749 58.996 112.397 58.516 112.141 57.924C111.901 57.316 111.781 56.7 111.781 56.076C111.781 55.548 111.869 55.052 112.045 54.588C112.237 54.124 112.509 53.756 112.861 53.484C113.213 53.196 113.637 53.052 114.133 53.052C114.789 53.052 115.229 53.228 115.453 53.58C115.677 53.932 115.789 54.372 115.789 54.9C115.789 55.524 115.637 56.22 115.333 56.988C115.029 57.74 114.645 58.468 114.181 59.172C114.469 59.332 114.773 59.412 115.093 59.412C115.349 59.412 115.637 59.364 115.957 59.268C116.277 59.156 116.589 58.972 116.893 58.716C117.213 58.46 117.469 58.116 117.661 57.684L117.949 57.924C117.629 58.676 117.173 59.212 116.581 59.532C116.005 59.836 115.453 59.988 114.925 59.988C114.717 59.988 114.517 59.972 114.325 59.94C114.133 59.892 113.949 59.828 113.773 59.748C113.229 60.468 112.629 61.068 111.973 61.548C111.333 62.028 110.709 62.268 110.101 62.268ZM113.629 58.74C114.029 58.148 114.357 57.532 114.613 56.892C114.885 56.236 115.021 55.62 115.021 55.044C115.021 54.58 114.949 54.244 114.805 54.036C114.677 53.812 114.509 53.7 114.301 53.7C113.981 53.7 113.653 53.932 113.317 54.396C112.981 54.86 112.813 55.444 112.813 56.148C112.813 56.612 112.877 57.084 113.005 57.564C113.149 58.028 113.357 58.42 113.629 58.74ZM124.963 61.98C124.403 61.98 123.979 61.836 123.691 61.548C123.419 61.26 123.283 60.892 123.283 60.444C123.283 60.108 123.339 59.756 123.451 59.388C123.579 59.02 123.699 58.644 123.811 58.26C123.923 57.86 123.979 57.476 123.979 57.108C123.979 56.66 123.883 56.356 123.691 56.196C123.515 56.02 123.291 55.932 123.019 55.932C122.523 55.932 122.019 56.14 121.507 56.556C120.995 56.956 120.499 57.476 120.019 58.116C119.539 58.74 119.091 59.388 118.675 60.06C118.259 60.732 117.891 61.332 117.571 61.86C117.315 61.86 117.075 61.812 116.851 61.716C116.611 61.636 116.427 61.508 116.299 61.332C116.299 61.252 116.387 61.004 116.563 60.588C116.723 60.172 116.915 59.66 117.139 59.052C117.363 58.444 117.563 57.82 117.739 57.18C117.915 56.54 118.003 55.956 118.003 55.428C118.099 55.316 118.251 55.204 118.459 55.092C118.667 54.98 118.883 54.924 119.107 54.924C119.539 54.924 119.755 55.132 119.755 55.548C119.755 55.804 119.683 56.236 119.539 56.844C119.395 57.436 119.211 58.06 118.987 58.716C119.419 58.06 119.899 57.412 120.427 56.772C120.971 56.116 121.547 55.572 122.155 55.14C122.763 54.708 123.371 54.492 123.979 54.492C124.603 54.492 125.051 54.716 125.323 55.164C125.611 55.612 125.755 56.108 125.755 56.652C125.755 57.148 125.675 57.612 125.515 58.044C125.355 58.46 125.187 58.868 125.011 59.268C124.851 59.652 124.771 60.044 124.771 60.444C124.771 60.78 124.835 61.02 124.963 61.164C125.107 61.292 125.283 61.356 125.491 61.356C125.891 61.356 126.291 61.172 126.691 60.804C127.091 60.42 127.475 59.94 127.843 59.364C128.227 58.788 128.563 58.204 128.851 57.612L129.115 57.924C128.779 58.708 128.403 59.404 127.987 60.012C127.571 60.62 127.115 61.1 126.619 61.452C126.123 61.804 125.571 61.98 124.963 61.98ZM133.047 68.22C132.823 68.22 132.623 68.1 132.447 67.86C132.287 67.62 132.207 67.156 132.207 66.468C132.207 65.908 132.263 65.212 132.375 64.38C132.503 63.548 132.671 62.668 132.879 61.74C133.087 60.828 133.335 59.964 133.623 59.148C132.983 60.06 132.335 60.804 131.679 61.38C131.039 61.94 130.423 62.22 129.831 62.22C129.559 62.22 129.279 62.148 128.991 62.004C128.719 61.876 128.495 61.66 128.319 61.356C128.127 61.052 128.031 60.652 128.031 60.156C128.031 59.596 128.159 58.996 128.415 58.356C128.671 57.7 129.023 57.052 129.471 56.412C129.919 55.772 130.431 55.196 131.007 54.684C131.583 54.156 132.191 53.732 132.831 53.412C133.471 53.092 134.111 52.932 134.751 52.932C135.295 52.932 135.743 53.044 136.095 53.268C136.463 53.492 136.647 53.772 136.647 54.108C136.647 54.252 136.607 54.404 136.527 54.564C136.463 54.708 136.359 54.82 136.215 54.9C136.135 54.964 136.015 54.996 135.855 54.996C135.855 54.644 135.751 54.34 135.543 54.084C135.335 53.812 134.983 53.676 134.487 53.676C133.959 53.676 133.455 53.836 132.975 54.156C132.495 54.46 132.055 54.86 131.655 55.356C131.271 55.836 130.927 56.364 130.623 56.94C130.335 57.5 130.111 58.044 129.951 58.572C129.791 59.1 129.711 59.548 129.711 59.916C129.711 60.268 129.783 60.548 129.927 60.756C130.087 60.964 130.295 61.068 130.551 61.068C130.871 61.068 131.215 60.916 131.583 60.612C131.951 60.308 132.327 59.908 132.711 59.412C133.111 58.916 133.503 58.372 133.887 57.78C134.287 57.172 134.671 56.572 135.039 55.98C135.151 55.804 135.255 55.668 135.351 55.572C135.463 55.476 135.575 55.396 135.687 55.332C135.863 55.252 136.015 55.22 136.143 55.236C136.287 55.252 136.391 55.292 136.455 55.356C136.535 55.436 136.575 55.54 136.575 55.668C136.575 55.924 136.439 56.268 136.167 56.7C135.911 57.132 135.615 57.684 135.279 58.356C134.959 59.012 134.687 59.828 134.463 60.804C135.151 60.74 135.839 60.492 136.527 60.06C137.215 59.612 137.863 58.804 138.471 57.636L138.759 57.9C138.231 59.116 137.559 59.98 136.743 60.492C135.943 61.004 135.167 61.3 134.415 61.38C134.543 61.796 134.639 62.228 134.703 62.676C134.783 63.124 134.823 63.596 134.823 64.092C134.823 64.844 134.743 65.532 134.583 66.156C134.439 66.78 134.231 67.276 133.959 67.644C133.687 68.028 133.383 68.22 133.047 68.22ZM133.695 66.9C133.823 66.9 133.927 66.748 134.007 66.444C134.103 66.14 134.175 65.748 134.223 65.268C134.271 64.804 134.295 64.34 134.295 63.876C134.295 63.556 134.279 63.244 134.247 62.94C134.231 62.652 134.191 62.364 134.127 62.076C133.919 62.924 133.759 63.716 133.647 64.452C133.551 65.204 133.503 65.796 133.503 66.228C133.503 66.436 133.519 66.596 133.551 66.708C133.583 66.836 133.631 66.9 133.695 66.9ZM139.823 62.22C139.279 62.22 138.839 61.98 138.503 61.5C138.183 61.004 138.023 60.436 138.023 59.796C138.023 59.332 138.095 58.796 138.239 58.188C138.399 57.58 138.591 56.98 138.815 56.388C139.039 55.796 139.271 55.308 139.511 54.924C139.751 54.54 139.959 54.348 140.135 54.348C140.215 54.348 140.351 54.396 140.543 54.492C140.735 54.572 140.895 54.684 141.023 54.828C140.847 55.1 140.631 55.516 140.375 56.076C140.119 56.636 139.895 57.236 139.703 57.876C139.511 58.516 139.415 59.108 139.415 59.652C139.415 59.78 139.431 59.98 139.463 60.252C139.495 60.508 139.575 60.74 139.703 60.948C139.831 61.156 140.023 61.26 140.279 61.26C140.583 61.26 140.895 61.108 141.215 60.804C141.535 60.484 141.855 60.076 142.175 59.58C142.511 59.084 142.831 58.548 143.135 57.972C143.439 57.396 143.719 56.844 143.975 56.316C144.247 55.788 144.471 55.348 144.647 54.996C144.743 55.012 144.879 55.044 145.055 55.092C145.247 55.14 145.415 55.204 145.559 55.284C145.719 55.364 145.799 55.476 145.799 55.62C145.799 55.684 145.719 55.9 145.559 56.268C145.399 56.62 145.207 57.06 144.983 57.588C144.775 58.1 144.591 58.62 144.431 59.148C144.271 59.676 144.191 60.14 144.191 60.54C144.191 60.828 144.247 61.06 144.359 61.236C144.487 61.412 144.695 61.5 144.983 61.5C145.319 61.5 145.727 61.348 146.207 61.044C146.687 60.74 147.175 60.3 147.671 59.724C148.167 59.132 148.607 58.428 148.991 57.612L149.303 57.828C148.967 58.692 148.527 59.46 147.983 60.132C147.439 60.788 146.863 61.3 146.255 61.668C145.647 62.036 145.055 62.22 144.479 62.22C144.063 62.22 143.727 62.14 143.471 61.98C143.231 61.82 143.055 61.604 142.943 61.332C142.847 61.06 142.799 60.764 142.799 60.444C142.799 60.252 142.815 60.06 142.847 59.868C142.879 59.66 142.919 59.452 142.967 59.244C142.679 59.772 142.367 60.268 142.031 60.732C141.695 61.18 141.343 61.54 140.975 61.812C140.607 62.084 140.223 62.22 139.823 62.22ZM150.275 62.124C149.651 62.124 149.187 61.924 148.883 61.524C148.579 61.14 148.427 60.668 148.427 60.108C148.427 59.74 148.491 59.276 148.619 58.716C148.763 58.156 148.947 57.572 149.171 56.964C149.395 56.34 149.651 55.756 149.939 55.212C150.243 54.668 150.563 54.228 150.899 53.892C151.235 53.54 151.563 53.364 151.883 53.364C152.027 53.364 152.147 53.412 152.243 53.508C152.355 53.588 152.411 53.716 152.411 53.892C152.411 54.084 152.283 54.396 152.027 54.828C151.787 55.26 151.499 55.756 151.163 56.316C150.827 56.876 150.531 57.468 150.275 58.092C150.035 58.7 149.915 59.284 149.915 59.844C149.915 60.42 150.011 60.804 150.203 60.996C150.395 61.188 150.691 61.284 151.091 61.284C151.635 61.284 152.211 61.012 152.819 60.468C153.443 59.924 154.099 58.972 154.787 57.612L155.003 57.852C154.539 59.228 153.867 60.284 152.987 61.02C152.123 61.756 151.219 62.124 150.275 62.124ZM153.155 51.132C152.899 51.132 152.667 51.068 152.459 50.94C152.267 50.812 152.171 50.612 152.171 50.34C152.171 50.004 152.363 49.716 152.747 49.476C153.147 49.22 153.539 49.092 153.923 49.092C154.163 49.092 154.355 49.148 154.499 49.26C154.643 49.372 154.715 49.564 154.715 49.836C154.715 50.14 154.547 50.436 154.211 50.724C153.891 50.996 153.539 51.132 153.155 51.132ZM156.856 62.724C156.104 62.724 155.504 62.556 155.056 62.22C154.624 61.9 154.32 61.5 154.144 61.02C153.952 60.54 153.856 60.06 153.856 59.58C153.856 59.1 153.92 58.732 154.048 58.476C154.176 58.22 154.328 58.028 154.504 57.9C154.696 57.772 154.872 57.676 155.032 57.612C155.208 57.548 155.328 57.484 155.392 57.42C155.872 56.892 156.312 56.34 156.712 55.764C157.112 55.188 157.464 54.58 157.768 53.94V53.652C157.768 53.06 157.864 52.644 158.056 52.404C158.264 52.148 158.48 52.02 158.704 52.02C158.832 52.02 158.928 52.052 158.992 52.116C159.056 52.18 159.088 52.252 159.088 52.332C159.088 52.412 159.064 52.54 159.016 52.716C158.968 52.892 158.944 53.116 158.944 53.388C158.944 53.916 159.048 54.492 159.256 55.116C159.464 55.724 159.672 56.372 159.88 57.06C160.088 57.732 160.192 58.436 160.192 59.172C160.192 59.38 160.176 59.588 160.144 59.796C160.128 59.988 160.096 60.172 160.048 60.348C160.608 60.252 161.136 60.004 161.632 59.604C162.128 59.188 162.608 58.532 163.072 57.636L163.288 57.876C162.984 58.756 162.528 59.428 161.92 59.892C161.312 60.34 160.648 60.62 159.928 60.732C159.672 61.42 159.264 61.924 158.704 62.244C158.16 62.564 157.544 62.724 156.856 62.724ZM156.904 61.884C157.096 61.884 157.352 61.82 157.672 61.692C157.992 61.564 158.24 61.236 158.416 60.708C157.744 60.58 157.144 60.316 156.616 59.916C156.104 59.516 155.72 59.116 155.464 58.716C155.112 58.732 154.936 59.012 154.936 59.556C154.936 60.132 155.104 60.668 155.44 61.164C155.792 61.644 156.28 61.884 156.904 61.884ZM158.536 60.324C158.568 60.164 158.592 59.996 158.608 59.82C158.624 59.644 158.632 59.436 158.632 59.196C158.632 58.444 158.536 57.7 158.344 56.964C158.168 56.212 158.016 55.508 157.888 54.852C157.52 55.46 157.128 56.044 156.712 56.604C156.312 57.148 155.928 57.604 155.56 57.972C155.8 58.484 156.168 58.964 156.664 59.412C157.176 59.86 157.8 60.164 158.536 60.324ZM164.649 62.604C163.961 62.604 163.433 62.404 163.065 62.004C162.697 61.604 162.513 61.012 162.513 60.228C162.513 59.524 162.641 58.66 162.897 57.636C163.169 56.596 163.505 55.532 163.905 54.444C163.745 54.412 163.593 54.388 163.449 54.372C163.305 54.34 163.169 54.3 163.041 54.252V53.82C163.169 53.836 163.321 53.852 163.497 53.868C163.673 53.884 163.873 53.9 164.097 53.916C164.433 53.052 164.793 52.22 165.177 51.42C165.561 50.604 165.937 49.884 166.305 49.26C166.689 48.62 167.049 48.116 167.385 47.748C167.737 47.364 168.033 47.172 168.273 47.172C168.401 47.172 168.513 47.22 168.609 47.316C168.721 47.396 168.777 47.524 168.777 47.7C168.777 47.972 168.609 48.42 168.273 49.044C167.937 49.652 167.521 50.38 167.025 51.228C166.529 52.076 166.049 52.996 165.585 53.988C165.729 53.988 165.873 53.988 166.017 53.988C166.177 53.988 166.329 53.988 166.473 53.988C167.001 53.988 167.553 53.98 168.129 53.964C168.721 53.948 169.313 53.908 169.905 53.844V54.276C169.025 54.372 168.233 54.444 167.529 54.492C166.841 54.54 166.225 54.564 165.681 54.564C165.617 54.564 165.553 54.564 165.489 54.564C165.441 54.564 165.385 54.564 165.321 54.564C164.953 55.412 164.641 56.284 164.385 57.18C164.129 58.076 164.001 58.948 164.001 59.796C164.001 60.484 164.105 60.98 164.313 61.284C164.521 61.572 164.865 61.716 165.345 61.716C166.177 61.716 166.993 61.348 167.793 60.612C168.593 59.876 169.297 58.876 169.905 57.612L170.217 57.852C169.833 58.748 169.345 59.556 168.753 60.276C168.177 60.996 167.537 61.564 166.833 61.98C166.129 62.396 165.401 62.604 164.649 62.604ZM170.605 62.628C170.109 62.628 169.693 62.46 169.357 62.124C169.005 61.804 168.829 61.308 168.829 60.636C168.829 60.06 168.957 59.444 169.213 58.788C169.469 58.116 169.821 57.46 170.269 56.82C170.717 56.164 171.221 55.572 171.781 55.044C172.357 54.5 172.957 54.068 173.581 53.748C174.221 53.428 174.853 53.268 175.477 53.268C176.101 53.268 176.621 53.436 177.037 53.772C177.453 54.092 177.661 54.524 177.661 55.068C177.661 55.468 177.549 55.74 177.325 55.884C177.117 56.028 176.837 56.1 176.485 56.1C176.517 55.972 176.541 55.836 176.557 55.692C176.589 55.532 176.605 55.388 176.605 55.26C176.605 54.892 176.517 54.58 176.341 54.324C176.165 54.052 175.861 53.916 175.429 53.916C174.981 53.916 174.525 54.076 174.061 54.396C173.597 54.7 173.149 55.116 172.717 55.644C172.285 56.156 171.901 56.716 171.565 57.324C171.229 57.932 170.965 58.532 170.773 59.124C170.581 59.716 170.485 60.244 170.485 60.708C170.485 61.332 170.701 61.644 171.133 61.644C171.501 61.644 171.901 61.476 172.333 61.14C172.765 60.788 173.205 60.348 173.653 59.82C174.117 59.276 174.557 58.716 174.973 58.14C175.389 57.564 175.757 57.036 176.077 56.556C176.141 56.46 176.181 56.412 176.197 56.412C176.293 56.428 176.413 56.46 176.557 56.508C176.717 56.556 176.853 56.62 176.965 56.7C177.077 56.78 177.133 56.884 177.133 57.012C177.133 57.156 177.061 57.356 176.917 57.612C176.773 57.852 176.613 58.132 176.437 58.452C176.261 58.772 176.101 59.1 175.957 59.436C175.813 59.756 175.741 60.06 175.741 60.348C175.741 60.588 175.805 60.828 175.933 61.068C176.061 61.292 176.269 61.404 176.557 61.404C176.989 61.404 177.557 61.092 178.261 60.468C178.965 59.828 179.677 58.876 180.397 57.612L180.637 57.852C180.301 58.716 179.869 59.476 179.341 60.132C178.813 60.788 178.245 61.3 177.637 61.668C177.045 62.036 176.461 62.22 175.885 62.22C175.293 62.22 174.853 62.044 174.565 61.692C174.293 61.34 174.157 60.956 174.157 60.54C174.157 60.444 174.165 60.34 174.181 60.228C174.197 60.1 174.213 59.972 174.229 59.844C173.541 60.772 172.909 61.468 172.333 61.932C171.773 62.396 171.197 62.628 170.605 62.628ZM182.426 62.724C181.674 62.724 181.074 62.556 180.626 62.22C180.194 61.9 179.89 61.5 179.714 61.02C179.522 60.54 179.426 60.06 179.426 59.58C179.426 59.1 179.49 58.732 179.618 58.476C179.746 58.22 179.898 58.028 180.074 57.9C180.266 57.772 180.442 57.676 180.602 57.612C180.778 57.548 180.898 57.484 180.962 57.42C181.442 56.892 181.882 56.34 182.282 55.764C182.682 55.188 183.034 54.58 183.338 53.94V53.652C183.338 53.06 183.434 52.644 183.626 52.404C183.834 52.148 184.05 52.02 184.274 52.02C184.402 52.02 184.498 52.052 184.562 52.116C184.626 52.18 184.658 52.252 184.658 52.332C184.658 52.412 184.634 52.54 184.586 52.716C184.538 52.892 184.514 53.116 184.514 53.388C184.514 53.916 184.618 54.492 184.826 55.116C185.034 55.724 185.242 56.372 185.45 57.06C185.658 57.732 185.762 58.436 185.762 59.172C185.762 59.38 185.746 59.588 185.714 59.796C185.698 59.988 185.666 60.172 185.618 60.348C186.178 60.252 186.706 60.004 187.202 59.604C187.698 59.188 188.178 58.532 188.642 57.636L188.858 57.876C188.554 58.756 188.098 59.428 187.49 59.892C186.882 60.34 186.218 60.62 185.498 60.732C185.242 61.42 184.834 61.924 184.274 62.244C183.73 62.564 183.114 62.724 182.426 62.724ZM182.474 61.884C182.666 61.884 182.922 61.82 183.242 61.692C183.562 61.564 183.81 61.236 183.986 60.708C183.314 60.58 182.714 60.316 182.186 59.916C181.674 59.516 181.29 59.116 181.034 58.716C180.682 58.732 180.506 59.012 180.506 59.556C180.506 60.132 180.674 60.668 181.01 61.164C181.362 61.644 181.85 61.884 182.474 61.884ZM184.106 60.324C184.138 60.164 184.162 59.996 184.178 59.82C184.194 59.644 184.202 59.436 184.202 59.196C184.202 58.444 184.106 57.7 183.914 56.964C183.738 56.212 183.586 55.508 183.458 54.852C183.09 55.46 182.698 56.044 182.282 56.604C181.882 57.148 181.498 57.604 181.13 57.972C181.37 58.484 181.738 58.964 182.234 59.412C182.746 59.86 183.37 60.164 184.106 60.324ZM189.14 61.74C188.932 61.74 188.748 61.684 188.588 61.572C188.444 61.476 188.372 61.316 188.372 61.092C188.372 60.916 188.444 60.756 188.588 60.612C188.732 60.452 188.908 60.332 189.116 60.252C189.34 60.156 189.556 60.108 189.764 60.108C189.956 60.108 190.108 60.148 190.22 60.228C190.332 60.308 190.388 60.46 190.388 60.684C190.388 60.844 190.324 61.004 190.196 61.164C190.084 61.324 189.932 61.46 189.74 61.572C189.548 61.684 189.348 61.74 189.14 61.74Z" fill="black"/>
</g>
<defs>
<filter id="filter0_d_105_3" x="0.5" y="0.5" width="297" height="82" filterUnits="userSpaceOnUse" color-interpolation-filters="sRGB">
<feFlood flood-opacity="0" result="BackgroundImageFix"/>
<feColorMatrix in="SourceAlpha" type="matrix" values="0 0 0 0 0 0 0 0 0 0 0 0 0 0 0 0 0 0 127 0" result="hardAlpha"/>
<feOffset dx="2" dy="2"/>
<feGaussianBlur stdDeviation="1"/>
<feComposite in2="hardAlpha" operator="out"/>
<feColorMatrix type="matrix" values="0 0 0 0 0.333333 0 0 0 0 0.333333 0 0 0 0 0.333333 0 0 0 0.5 0"/>
<feBlend mode="normal" in2="BackgroundImageFix" result="effect1_dropShadow_105_3"/>
<feBlend mode="normal" in="SourceGraphic" in2="effect1_dropShadow_105_3" result="shape"/>
</filter>
</defs>
</svg>
