<svg width="298" height="83" viewBox="0 0 298 83" fill="none" xmlns="http://www.w3.org/2000/svg">
<g filter="url(#filter0_d_105_3)">
<rect width="293" height="78" transform="translate(0.5 0.5)" fill="#E4EDF1"/>
<path d="M29.2418 34.588C28.5058 34.524 28.0498 34.324 27.8738 33.988C27.6978 33.652 27.6098 33.22 27.6098 32.692C27.6098 32.116 27.7298 31.412 27.9698 30.58C28.2098 29.732 28.5058 28.812 28.8578 27.82C29.2258 26.828 29.5938 25.836 29.9618 24.844C29.7698 24.86 29.5618 24.884 29.3378 24.916C29.1298 24.932 28.8658 24.964 28.5458 25.012C28.2258 25.044 27.8098 25.1 27.2978 25.18C27.3298 24.764 27.4818 24.444 27.7538 24.22C28.0418 23.98 28.4178 23.804 28.8818 23.692C29.3458 23.58 29.8658 23.516 30.4418 23.5C30.8898 22.268 31.3458 21.068 31.8098 19.9C32.2898 18.716 32.7618 17.636 33.2258 16.66C33.0658 16.644 32.9058 16.636 32.7458 16.636C32.6018 16.62 32.4498 16.612 32.2898 16.612C31.2658 16.612 30.4738 16.716 29.9138 16.924C29.3538 17.132 28.9698 17.452 28.7617 17.884C28.5538 18.316 28.4498 18.868 28.4498 19.54C28.4498 19.892 28.4738 20.22 28.5218 20.524C28.5698 20.812 28.6497 21.116 28.7617 21.436C28.2178 21.34 27.8178 21.132 27.5618 20.812C27.3058 20.476 27.1777 20.06 27.1777 19.564C27.1777 18.732 27.4738 18.004 28.0658 17.38C28.6578 16.74 29.4498 16.244 30.4418 15.892C31.4498 15.524 32.5618 15.34 33.7778 15.34C34.6258 15.34 35.4418 15.404 36.2258 15.532C37.0258 15.644 37.8018 15.7 38.5538 15.7C38.8898 15.7 39.1938 15.684 39.4658 15.652C39.7538 15.604 40.0418 15.54 40.3298 15.46C39.7378 16.132 39.2418 16.58 38.8418 16.804C38.4418 17.028 38.0338 17.14 37.6178 17.14C37.2498 17.14 36.7698 17.092 36.1778 16.996C35.6018 16.884 34.9458 16.796 34.2098 16.732C34.0018 17.26 33.7698 17.9 33.5138 18.652C33.2578 19.388 32.9938 20.18 32.7218 21.028C32.4498 21.86 32.1778 22.692 31.9058 23.524C32.7058 23.572 33.4578 23.644 34.1618 23.74C34.8818 23.836 35.5298 23.892 36.1058 23.908C35.9778 24.1 35.8258 24.252 35.6498 24.364C35.4898 24.46 35.2578 24.532 34.9538 24.58C34.6498 24.628 34.2258 24.668 33.6818 24.7C33.1538 24.716 32.4418 24.732 31.5458 24.748C31.4498 25.084 31.3298 25.484 31.1858 25.948C31.0418 26.412 30.9138 26.852 30.8018 27.268C30.6898 27.684 30.6018 27.988 30.5378 28.18C30.1858 29.412 29.8818 30.564 29.6258 31.636C29.3858 32.708 29.2578 33.692 29.2418 34.588ZM37.3161 33.628C36.8201 33.628 36.4041 33.46 36.0681 33.124C35.7161 32.804 35.5401 32.308 35.5401 31.636C35.5401 31.06 35.6681 30.444 35.9241 29.788C36.1801 29.116 36.5321 28.46 36.9801 27.82C37.4281 27.164 37.9321 26.572 38.4921 26.044C39.0681 25.5 39.6681 25.068 40.2921 24.748C40.9321 24.428 41.5641 24.268 42.1881 24.268C42.8121 24.268 43.3321 24.436 43.7481 24.772C44.1641 25.092 44.3721 25.524 44.3721 26.068C44.3721 26.468 44.2601 26.74 44.0361 26.884C43.8281 27.028 43.5481 27.1 43.1961 27.1C43.2281 26.972 43.2521 26.836 43.2681 26.692C43.3001 26.532 43.3161 26.388 43.3161 26.26C43.3161 25.892 43.2281 25.58 43.0521 25.324C42.8761 25.052 42.5721 24.916 42.1401 24.916C41.6921 24.916 41.2361 25.076 40.7721 25.396C40.3081 25.7 39.8601 26.116 39.4281 26.644C38.9961 27.156 38.6121 27.716 38.2761 28.324C37.9401 28.932 37.6761 29.532 37.4841 30.124C37.2921 30.716 37.1961 31.244 37.1961 31.708C37.1961 32.332 37.4121 32.644 37.8441 32.644C38.2121 32.644 38.6121 32.476 39.0441 32.14C39.4761 31.788 39.9161 31.348 40.3641 30.82C40.8281 30.276 41.2681 29.716 41.6841 29.14C42.1001 28.564 42.4681 28.036 42.7881 27.556C42.8521 27.46 42.8921 27.412 42.9081 27.412C43.0041 27.428 43.1241 27.46 43.2681 27.508C43.4281 27.556 43.5641 27.62 43.6761 27.7C43.7881 27.78 43.8441 27.884 43.8441 28.012C43.8441 28.156 43.7721 28.356 43.6281 28.612C43.4841 28.852 43.3241 29.132 43.1481 29.452C42.9721 29.772 42.8121 30.1 42.6681 30.436C42.5241 30.756 42.4521 31.06 42.4521 31.348C42.4521 31.588 42.5161 31.828 42.6441 32.068C42.7721 32.292 42.9801 32.404 43.2681 32.404C43.7001 32.404 44.2681 32.092 44.9721 31.468C45.6761 30.828 46.3881 29.876 47.1081 28.612L47.3481 28.852C47.0121 29.716 46.5801 30.476 46.0521 31.132C45.5241 31.788 44.9561 32.3 44.3481 32.668C43.7561 33.036 43.1721 33.22 42.5961 33.22C42.0041 33.22 41.5641 33.044 41.2761 32.692C41.0041 32.34 40.8681 31.956 40.8681 31.54C40.8681 31.444 40.8761 31.34 40.8921 31.228C40.9081 31.1 40.9241 30.972 40.9401 30.844C40.2521 31.772 39.6201 32.468 39.0441 32.932C38.4841 33.396 37.9081 33.628 37.3161 33.628ZM49.1852 33.844C48.4172 33.844 47.7772 33.588 47.2652 33.076C46.7532 32.564 46.4972 31.796 46.4972 30.772C46.4972 29.972 46.6492 29.196 46.9532 28.444C47.2732 27.676 47.6892 26.988 48.2012 26.38C48.7132 25.772 49.2812 25.292 49.9052 24.94C50.5292 24.572 51.1452 24.388 51.7532 24.388C52.4092 24.388 52.8572 24.58 53.0972 24.964C53.3372 25.348 53.4572 25.748 53.4572 26.164C53.4572 26.628 53.3452 27.036 53.1212 27.388C52.9132 27.74 52.6252 27.916 52.2572 27.916C51.9852 27.916 51.7532 27.796 51.5612 27.556C51.8012 27.428 52.0092 27.172 52.1852 26.788C52.3612 26.388 52.4492 26.012 52.4492 25.66C52.4492 25.468 52.4092 25.324 52.3292 25.228C52.2652 25.116 52.1292 25.06 51.9212 25.06C51.4892 25.06 51.0412 25.252 50.5772 25.636C50.1292 26.02 49.7052 26.516 49.3052 27.124C48.9212 27.732 48.6012 28.372 48.3452 29.044C48.1052 29.716 47.9852 30.348 47.9852 30.94C47.9852 31.436 48.1052 31.892 48.3452 32.308C48.5852 32.724 49.0492 32.932 49.7372 32.932C50.3772 32.932 51.0172 32.756 51.6572 32.404C52.3132 32.052 52.9212 31.548 53.4812 30.892C54.0412 30.236 54.4892 29.468 54.8252 28.588L55.1372 28.828C54.7692 29.788 54.2652 30.652 53.6252 31.42C52.9852 32.172 52.2812 32.764 51.5132 33.196C50.7452 33.628 49.9692 33.844 49.1852 33.844ZM51.1292 37.564C50.6652 37.564 50.3052 37.476 50.0492 37.3C49.7932 37.124 49.6652 36.924 49.6652 36.7C49.6652 36.572 49.7052 36.436 49.7852 36.292C49.8812 36.164 50.0172 36.036 50.1932 35.908C50.2732 36.292 50.4092 36.564 50.6012 36.724C50.7932 36.9 50.9932 36.988 51.2012 36.988C51.5052 36.988 51.8092 36.868 52.1132 36.628C52.4172 36.404 52.6732 36.124 52.8812 35.788C53.0892 35.468 53.1932 35.172 53.1932 34.9C53.1932 34.772 53.1612 34.636 53.0972 34.492C53.0492 34.364 52.9452 34.3 52.7852 34.3C52.5772 34.3 52.3292 34.38 52.0412 34.54C51.7532 34.7 51.4892 34.86 51.2492 35.02C51.0092 35.196 50.8412 35.284 50.7452 35.284C50.6332 35.284 50.5452 35.228 50.4812 35.116C50.4332 35.02 50.4092 34.932 50.4092 34.852C50.4092 34.82 50.4732 34.708 50.6012 34.516C50.7452 34.324 50.9132 34.092 51.1052 33.82C51.2972 33.564 51.4892 33.308 51.6812 33.052C51.8892 32.812 52.0652 32.628 52.2092 32.5H52.5212L51.2492 34.444C51.4252 34.316 51.6412 34.188 51.8972 34.06C52.1532 33.932 52.4732 33.868 52.8572 33.868C53.2252 33.868 53.4972 33.948 53.6732 34.108C53.8492 34.284 53.9372 34.54 53.9372 34.876C53.9372 35.324 53.8012 35.756 53.5292 36.172C53.2732 36.588 52.9292 36.924 52.4972 37.18C52.0812 37.436 51.6252 37.564 51.1292 37.564ZM55.527 33.628C55.031 33.628 54.615 33.46 54.279 33.124C53.927 32.804 53.751 32.308 53.751 31.636C53.751 31.06 53.879 30.444 54.135 29.788C54.391 29.116 54.743 28.46 55.191 27.82C55.639 27.164 56.143 26.572 56.703 26.044C57.279 25.5 57.879 25.068 58.503 24.748C59.143 24.428 59.775 24.268 60.399 24.268C61.023 24.268 61.543 24.436 61.959 24.772C62.375 25.092 62.583 25.524 62.583 26.068C62.583 26.468 62.471 26.74 62.247 26.884C62.039 27.028 61.759 27.1 61.407 27.1C61.439 26.972 61.463 26.836 61.479 26.692C61.511 26.532 61.527 26.388 61.527 26.26C61.527 25.892 61.439 25.58 61.263 25.324C61.087 25.052 60.783 24.916 60.351 24.916C59.903 24.916 59.447 25.076 58.983 25.396C58.519 25.7 58.071 26.116 57.639 26.644C57.207 27.156 56.823 27.716 56.487 28.324C56.151 28.932 55.887 29.532 55.695 30.124C55.503 30.716 55.407 31.244 55.407 31.708C55.407 32.332 55.623 32.644 56.055 32.644C56.423 32.644 56.823 32.476 57.255 32.14C57.687 31.788 58.127 31.348 58.575 30.82C59.039 30.276 59.479 29.716 59.895 29.14C60.311 28.564 60.679 28.036 60.999 27.556C61.063 27.46 61.103 27.412 61.119 27.412C61.215 27.428 61.335 27.46 61.479 27.508C61.639 27.556 61.775 27.62 61.887 27.7C61.999 27.78 62.055 27.884 62.055 28.012C62.055 28.156 61.983 28.356 61.839 28.612C61.695 28.852 61.535 29.132 61.359 29.452C61.183 29.772 61.023 30.1 60.879 30.436C60.735 30.756 60.663 31.06 60.663 31.348C60.663 31.588 60.727 31.828 60.855 32.068C60.983 32.292 61.191 32.404 61.479 32.404C61.911 32.404 62.479 32.092 63.183 31.468C63.887 30.828 64.599 29.876 65.319 28.612L65.559 28.852C65.223 29.716 64.791 30.476 64.263 31.132C63.735 31.788 63.167 32.3 62.559 32.668C61.967 33.036 61.383 33.22 60.807 33.22C60.215 33.22 59.775 33.044 59.487 32.692C59.215 32.34 59.079 31.956 59.079 31.54C59.079 31.444 59.087 31.34 59.103 31.228C59.119 31.1 59.135 30.972 59.151 30.844C58.463 31.772 57.831 32.468 57.255 32.932C56.695 33.396 56.119 33.628 55.527 33.628ZM72.7185 33.268C72.0305 33.268 71.5425 33.052 71.2545 32.62C70.9665 32.204 70.8225 31.692 70.8225 31.084C70.8225 30.588 70.9025 30.076 71.0625 29.548C71.2225 29.02 71.4305 28.524 71.6865 28.06C71.9585 27.596 72.2545 27.22 72.5745 26.932C72.9105 26.644 73.2465 26.5 73.5825 26.5C73.6625 26.5 73.7425 26.516 73.8225 26.548C73.9185 26.564 74.0065 26.588 74.0865 26.62C73.9425 26.748 73.7665 26.988 73.5585 27.34C73.3665 27.676 73.1825 28.068 73.0065 28.516C72.8305 28.948 72.6785 29.38 72.5505 29.812C72.4385 30.244 72.3825 30.612 72.3825 30.916C72.3825 31.396 72.4625 31.748 72.6225 31.972C72.7825 32.18 72.9905 32.284 73.2465 32.284C73.5825 32.284 73.9825 32.108 74.4465 31.756C74.9105 31.388 75.3665 30.924 75.8145 30.364C75.3665 29.996 75.0145 29.516 74.7585 28.924C74.5185 28.316 74.3985 27.7 74.3985 27.076C74.3985 26.548 74.4865 26.052 74.6625 25.588C74.8545 25.124 75.1265 24.756 75.4785 24.484C75.8305 24.196 76.2545 24.052 76.7505 24.052C77.4065 24.052 77.8465 24.228 78.0705 24.58C78.2945 24.932 78.4065 25.372 78.4065 25.9C78.4065 26.524 78.2545 27.22 77.9505 27.988C77.6465 28.74 77.2625 29.468 76.7985 30.172C77.0865 30.332 77.3905 30.412 77.7105 30.412C77.9665 30.412 78.2545 30.364 78.5745 30.268C78.8945 30.156 79.2065 29.972 79.5105 29.716C79.8305 29.46 80.0865 29.116 80.2785 28.684L80.5665 28.924C80.2465 29.676 79.7905 30.212 79.1985 30.532C78.6225 30.836 78.0705 30.988 77.5425 30.988C77.3345 30.988 77.1345 30.972 76.9425 30.94C76.7505 30.892 76.5665 30.828 76.3905 30.748C75.8465 31.468 75.2465 32.068 74.5905 32.548C73.9505 33.028 73.3265 33.268 72.7185 33.268ZM76.2465 29.74C76.6465 29.148 76.9745 28.532 77.2305 27.892C77.5025 27.236 77.6385 26.62 77.6385 26.044C77.6385 25.58 77.5665 25.244 77.4225 25.036C77.2945 24.812 77.1265 24.7 76.9185 24.7C76.5985 24.7 76.2705 24.932 75.9345 25.396C75.5985 25.86 75.4305 26.444 75.4305 27.148C75.4305 27.612 75.4945 28.084 75.6225 28.564C75.7665 29.028 75.9745 29.42 76.2465 29.74ZM88.5825 33.724C87.8305 33.724 87.2305 33.556 86.7825 33.22C86.3505 32.9 86.0465 32.5 85.8705 32.02C85.6785 31.54 85.5825 31.06 85.5825 30.58C85.5825 30.1 85.6465 29.732 85.7745 29.476C85.9025 29.22 86.0545 29.028 86.2305 28.9C86.4225 28.772 86.5985 28.676 86.7585 28.612C86.9345 28.548 87.0545 28.484 87.1185 28.42C87.5985 27.892 88.0385 27.34 88.4385 26.764C88.8385 26.188 89.1905 25.58 89.4945 24.94V24.652C89.4945 24.06 89.5905 23.644 89.7825 23.404C89.9905 23.148 90.2065 23.02 90.4305 23.02C90.5585 23.02 90.6545 23.052 90.7185 23.116C90.7825 23.18 90.8145 23.252 90.8145 23.332C90.8145 23.412 90.7905 23.54 90.7425 23.716C90.6945 23.892 90.6705 24.116 90.6705 24.388C90.6705 24.916 90.7745 25.492 90.9825 26.116C91.1905 26.724 91.3985 27.372 91.6065 28.06C91.8145 28.732 91.9185 29.436 91.9185 30.172C91.9185 30.38 91.9025 30.588 91.8705 30.796C91.8545 30.988 91.8225 31.172 91.7745 31.348C92.3345 31.252 92.8625 31.004 93.3585 30.604C93.8545 30.188 94.3345 29.532 94.7985 28.636L95.0145 28.876C94.7105 29.756 94.2545 30.428 93.6465 30.892C93.0385 31.34 92.3745 31.62 91.6545 31.732C91.3985 32.42 90.9905 32.924 90.4305 33.244C89.8865 33.564 89.2705 33.724 88.5825 33.724ZM88.6305 32.884C88.8225 32.884 89.0785 32.82 89.3985 32.692C89.7185 32.564 89.9665 32.236 90.1425 31.708C89.4705 31.58 88.8705 31.316 88.3425 30.916C87.8305 30.516 87.4465 30.116 87.1905 29.716C86.8385 29.732 86.6625 30.012 86.6625 30.556C86.6625 31.132 86.8305 31.668 87.1665 32.164C87.5185 32.644 88.0065 32.884 88.6305 32.884ZM90.2625 31.324C90.2945 31.164 90.3185 30.996 90.3345 30.82C90.3505 30.644 90.3585 30.436 90.3585 30.196C90.3585 29.444 90.2625 28.7 90.0705 27.964C89.8945 27.212 89.7425 26.508 89.6145 25.852C89.2465 26.46 88.8545 27.044 88.4385 27.604C88.0385 28.148 87.6545 28.604 87.2865 28.972C87.5265 29.484 87.8945 29.964 88.3905 30.412C88.9025 30.86 89.5265 31.164 90.2625 31.324ZM96.9279 33.556C95.9519 33.556 95.2159 33.284 94.7199 32.74C94.2399 32.212 93.9999 31.556 93.9999 30.772C93.9999 30.052 94.1759 29.292 94.5279 28.492C94.8959 27.692 95.3759 26.94 95.9679 26.236C96.5759 25.532 97.2399 24.964 97.9599 24.532C98.6799 24.084 99.3919 23.86 100.096 23.86C100.464 23.86 100.8 23.956 101.104 24.148C101.424 24.34 101.584 24.732 101.584 25.324C101.584 25.932 101.4 26.508 101.032 27.052C100.68 27.58 100.208 28.052 99.6159 28.468C99.0399 28.884 98.3999 29.228 97.6959 29.5C97.0079 29.756 96.3199 29.916 95.6319 29.98C95.5999 30.14 95.5759 30.292 95.5599 30.436C95.5439 30.58 95.5359 30.716 95.5359 30.844C95.5359 31.084 95.5599 31.324 95.6079 31.564C95.6719 31.804 95.7759 32.028 95.9199 32.236C96.0639 32.428 96.2559 32.58 96.4959 32.692C96.7519 32.804 97.0639 32.86 97.4319 32.86C98.1199 32.86 98.7999 32.668 99.4719 32.284C100.144 31.884 100.768 31.364 101.344 30.724C101.92 30.084 102.408 29.38 102.808 28.612L103.096 28.828C102.664 29.788 102.112 30.62 101.44 31.324C100.784 32.028 100.064 32.572 99.2799 32.956C98.5119 33.356 97.7279 33.556 96.9279 33.556ZM95.7519 29.524C96.1839 29.38 96.6719 29.172 97.2159 28.9C97.7599 28.612 98.2799 28.276 98.7759 27.892C99.2879 27.508 99.7039 27.084 100.024 26.62C100.36 26.156 100.528 25.668 100.528 25.156C100.528 24.98 100.496 24.844 100.432 24.748C100.368 24.652 100.232 24.604 100.024 24.604C99.6399 24.604 99.2319 24.756 98.7999 25.06C98.3679 25.348 97.9519 25.732 97.5519 26.212C97.1519 26.692 96.7919 27.22 96.4719 27.796C96.1519 28.372 95.9119 28.948 95.7519 29.524ZM104.128 33.22C103.584 33.22 103.144 32.98 102.808 32.5C102.488 32.004 102.328 31.436 102.328 30.796C102.328 30.332 102.4 29.796 102.544 29.188C102.704 28.58 102.896 27.98 103.12 27.388C103.344 26.796 103.576 26.308 103.816 25.924C104.056 25.54 104.264 25.348 104.44 25.348C104.52 25.348 104.656 25.396 104.848 25.492C105.04 25.572 105.2 25.684 105.328 25.828C105.152 26.1 104.936 26.516 104.68 27.076C104.424 27.636 104.2 28.236 104.008 28.876C103.816 29.516 103.72 30.108 103.72 30.652C103.72 30.78 103.736 30.98 103.768 31.252C103.8 31.508 103.88 31.74 104.008 31.948C104.136 32.156 104.328 32.26 104.584 32.26C104.888 32.26 105.2 32.108 105.52 31.804C105.84 31.484 106.16 31.076 106.48 30.58C106.816 30.084 107.136 29.548 107.44 28.972C107.744 28.396 108.024 27.844 108.28 27.316C108.552 26.788 108.776 26.348 108.952 25.996C109.048 26.012 109.184 26.044 109.36 26.092C109.552 26.14 109.72 26.204 109.864 26.284C110.024 26.364 110.104 26.476 110.104 26.62C110.104 26.684 110.024 26.9 109.864 27.268C109.704 27.62 109.512 28.06 109.288 28.588C109.08 29.1 108.896 29.62 108.736 30.148C108.576 30.676 108.496 31.14 108.496 31.54C108.496 31.828 108.552 32.06 108.664 32.236C108.792 32.412 109 32.5 109.288 32.5C109.624 32.5 110.032 32.348 110.512 32.044C110.992 31.74 111.48 31.3 111.976 30.724C112.472 30.132 112.912 29.428 113.296 28.612L113.608 28.828C113.272 29.692 112.832 30.46 112.288 31.132C111.744 31.788 111.168 32.3 110.56 32.668C109.952 33.036 109.36 33.22 108.784 33.22C108.368 33.22 108.032 33.14 107.776 32.98C107.536 32.82 107.36 32.604 107.248 32.332C107.152 32.06 107.104 31.764 107.104 31.444C107.104 31.252 107.12 31.06 107.152 30.868C107.184 30.66 107.224 30.452 107.272 30.244C106.984 30.772 106.672 31.268 106.336 31.732C106 32.18 105.648 32.54 105.28 32.812C104.912 33.084 104.528 33.22 104.128 33.22ZM131.182 33.244C130.622 33.244 130.214 33.068 129.958 32.716C129.702 32.38 129.574 31.972 129.574 31.492C129.574 31.092 129.63 30.692 129.742 30.292C129.87 29.892 129.99 29.5 130.102 29.116C130.23 28.732 130.294 28.388 130.294 28.084C130.294 27.764 130.222 27.54 130.078 27.412C129.934 27.284 129.774 27.22 129.598 27.22C129.198 27.22 128.758 27.532 128.278 28.156C127.814 28.78 127.206 29.66 126.454 30.796C126.198 31.18 125.982 31.572 125.806 31.972C125.63 32.356 125.462 32.708 125.302 33.028C125.174 33.028 125.014 33.012 124.822 32.98C124.63 32.948 124.454 32.892 124.294 32.812C124.15 32.748 124.078 32.66 124.078 32.548C124.078 32.436 124.15 32.172 124.294 31.756C124.454 31.324 124.63 30.828 124.822 30.268C125.03 29.692 125.206 29.116 125.35 28.54C125.51 27.948 125.59 27.444 125.59 27.028C125.59 26.756 125.542 26.54 125.446 26.38C125.366 26.204 125.214 26.116 124.99 26.116C124.638 26.116 124.214 26.332 123.718 26.764C123.222 27.18 122.71 27.732 122.182 28.42C121.654 29.108 121.15 29.868 120.67 30.7C120.206 31.516 119.83 32.332 119.542 33.148C119.398 33.148 119.222 33.124 119.014 33.076C118.806 33.028 118.63 32.964 118.486 32.884C118.326 32.804 118.246 32.724 118.246 32.644C118.246 32.548 118.334 32.268 118.51 31.804C118.67 31.324 118.862 30.756 119.086 30.1C119.294 29.428 119.478 28.748 119.638 28.06C119.814 27.372 119.902 26.764 119.902 26.236C119.998 26.124 120.15 26.012 120.358 25.9C120.566 25.788 120.782 25.732 121.006 25.732C121.23 25.732 121.39 25.788 121.486 25.9C121.598 26.012 121.654 26.164 121.654 26.356C121.654 26.564 121.59 26.924 121.462 27.436C121.35 27.932 121.206 28.484 121.03 29.092C121.35 28.58 121.71 28.06 122.11 27.532C122.526 26.988 122.958 26.492 123.406 26.044C123.854 25.596 124.302 25.236 124.75 24.964C125.214 24.676 125.662 24.532 126.094 24.532C126.59 24.532 126.926 24.716 127.102 25.084C127.294 25.436 127.39 25.86 127.39 26.356C127.39 26.756 127.342 27.18 127.246 27.628C127.166 28.06 127.07 28.468 126.958 28.852C126.846 29.22 126.742 29.516 126.646 29.74C126.982 29.132 127.35 28.548 127.75 27.988C128.166 27.412 128.614 26.948 129.094 26.596C129.574 26.228 130.086 26.044 130.63 26.044C131.142 26.044 131.494 26.196 131.686 26.5C131.894 26.804 131.998 27.164 131.998 27.58C131.998 27.996 131.926 28.452 131.782 28.948C131.638 29.444 131.486 29.924 131.326 30.388C131.182 30.852 131.11 31.252 131.11 31.588C131.11 31.796 131.158 31.988 131.254 32.164C131.366 32.324 131.558 32.404 131.83 32.404C132.278 32.404 132.694 32.204 133.078 31.804C133.478 31.388 133.846 30.892 134.182 30.316C134.518 29.724 134.806 29.156 135.046 28.612L135.334 28.948C135.078 29.62 134.75 30.292 134.35 30.964C133.95 31.62 133.478 32.164 132.934 32.596C132.406 33.028 131.822 33.244 131.182 33.244ZM137.194 33.556C136.218 33.556 135.482 33.284 134.986 32.74C134.506 32.212 134.266 31.556 134.266 30.772C134.266 30.052 134.442 29.292 134.794 28.492C135.162 27.692 135.642 26.94 136.234 26.236C136.842 25.532 137.506 24.964 138.226 24.532C138.946 24.084 139.658 23.86 140.362 23.86C140.73 23.86 141.066 23.956 141.37 24.148C141.69 24.34 141.85 24.732 141.85 25.324C141.85 25.932 141.666 26.508 141.298 27.052C140.946 27.58 140.474 28.052 139.882 28.468C139.306 28.884 138.666 29.228 137.962 29.5C137.274 29.756 136.586 29.916 135.898 29.98C135.866 30.14 135.842 30.292 135.826 30.436C135.81 30.58 135.802 30.716 135.802 30.844C135.802 31.084 135.826 31.324 135.874 31.564C135.938 31.804 136.042 32.028 136.186 32.236C136.33 32.428 136.522 32.58 136.762 32.692C137.018 32.804 137.33 32.86 137.698 32.86C138.386 32.86 139.066 32.668 139.738 32.284C140.41 31.884 141.034 31.364 141.61 30.724C142.186 30.084 142.674 29.38 143.074 28.612L143.362 28.828C142.93 29.788 142.378 30.62 141.706 31.324C141.05 32.028 140.33 32.572 139.546 32.956C138.778 33.356 137.994 33.556 137.194 33.556ZM136.018 29.524C136.45 29.38 136.938 29.172 137.482 28.9C138.026 28.612 138.546 28.276 139.042 27.892C139.554 27.508 139.97 27.084 140.29 26.62C140.626 26.156 140.794 25.668 140.794 25.156C140.794 24.98 140.762 24.844 140.698 24.748C140.634 24.652 140.498 24.604 140.29 24.604C139.906 24.604 139.498 24.756 139.066 25.06C138.634 25.348 138.218 25.732 137.818 26.212C137.418 26.692 137.058 27.22 136.738 27.796C136.418 28.372 136.178 28.948 136.018 29.524ZM144.586 33.22C143.898 33.22 143.402 32.98 143.098 32.5C142.81 32.036 142.666 31.452 142.666 30.748C142.666 29.98 142.81 29.068 143.098 28.012C143.386 26.956 143.762 25.844 144.226 24.676C144.706 23.508 145.226 22.372 145.786 21.268C146.346 20.148 146.906 19.132 147.466 18.22C148.026 17.308 148.538 16.58 149.002 16.036C149.482 15.492 149.858 15.22 150.13 15.22C150.306 15.22 150.45 15.324 150.562 15.532C150.674 15.724 150.762 15.964 150.826 16.252C150.89 16.524 150.922 16.772 150.922 16.996C150.922 17.428 150.81 17.996 150.586 18.7C150.378 19.388 150.074 20.164 149.674 21.028C149.29 21.876 148.826 22.74 148.282 23.62C147.754 24.484 147.17 25.316 146.53 26.116C145.906 26.916 145.242 27.604 144.538 28.18C144.442 28.612 144.362 29.036 144.298 29.452C144.25 29.852 144.226 30.236 144.226 30.604C144.226 31.228 144.314 31.692 144.49 31.996C144.666 32.3 144.93 32.452 145.282 32.452C145.714 32.452 146.138 32.26 146.554 31.876C146.986 31.492 147.386 31.012 147.754 30.436C148.138 29.844 148.466 29.236 148.738 28.612L149.098 28.804C148.458 30.164 147.762 31.244 147.01 32.044C146.258 32.828 145.45 33.22 144.586 33.22ZM144.754 27.364C145.314 26.804 145.858 26.164 146.386 25.444C146.914 24.708 147.402 23.948 147.85 23.164C148.314 22.38 148.722 21.62 149.074 20.884C149.426 20.148 149.698 19.492 149.89 18.916C150.082 18.324 150.178 17.868 150.178 17.548C150.178 17.388 150.154 17.284 150.106 17.236C150.074 17.188 150.042 17.164 150.01 17.164C149.882 17.164 149.658 17.372 149.338 17.788C149.034 18.188 148.674 18.732 148.258 19.42C147.842 20.108 147.418 20.892 146.986 21.772C146.554 22.652 146.138 23.572 145.738 24.532C145.354 25.492 145.026 26.436 144.754 27.364ZM149.394 33.412C149.09 33.412 148.85 33.156 148.674 32.644C148.498 32.132 148.41 31.556 148.41 30.916C148.41 30.148 148.538 29.236 148.794 28.18C149.05 27.124 149.386 26.012 149.802 24.844C150.218 23.676 150.682 22.532 151.194 21.412C151.722 20.292 152.258 19.276 152.802 18.364C153.346 17.452 153.858 16.724 154.338 16.18C154.818 15.636 155.234 15.364 155.586 15.364C155.874 15.364 156.074 15.54 156.186 15.892C156.314 16.228 156.378 16.556 156.378 16.876C156.378 17.324 156.274 17.868 156.066 18.508C155.874 19.148 155.602 19.836 155.25 20.572C154.898 21.292 154.49 22.004 154.026 22.708C153.562 23.412 153.058 24.06 152.514 24.652C151.97 25.228 151.418 25.684 150.858 26.02C150.666 26.484 150.498 27.004 150.354 27.58C150.226 28.156 150.13 28.724 150.066 29.284C150.002 29.828 149.97 30.316 149.97 30.748C149.97 30.924 149.97 31.076 149.97 31.204C149.986 31.332 150.002 31.452 150.018 31.564C150.242 30.908 150.482 30.276 150.738 29.668C151.01 29.044 151.298 28.476 151.602 27.964C151.906 27.436 152.226 26.98 152.562 26.596C152.914 26.196 153.282 25.892 153.666 25.684C154.05 25.46 154.458 25.348 154.89 25.348C155.338 25.348 155.69 25.46 155.946 25.684C156.218 25.892 156.41 26.164 156.522 26.5C156.65 26.82 156.714 27.156 156.714 27.508C156.714 28.004 156.626 28.484 156.45 28.948C156.29 29.412 156.122 29.86 155.946 30.292C155.77 30.724 155.682 31.14 155.682 31.54C155.682 31.86 155.746 32.092 155.874 32.236C156.018 32.38 156.194 32.452 156.402 32.452C156.77 32.452 157.178 32.276 157.626 31.924C158.09 31.572 158.546 31.108 158.994 30.532C159.442 29.94 159.826 29.3 160.146 28.612L160.458 28.9C160.122 29.684 159.714 30.396 159.234 31.036C158.754 31.66 158.226 32.156 157.65 32.524C157.074 32.892 156.474 33.076 155.85 33.076C155.306 33.076 154.89 32.932 154.602 32.644C154.33 32.356 154.194 31.996 154.194 31.564C154.194 31.228 154.258 30.852 154.386 30.436C154.514 30.02 154.634 29.596 154.746 29.164C154.874 28.732 154.938 28.324 154.938 27.94C154.938 27.524 154.85 27.228 154.674 27.052C154.498 26.876 154.282 26.788 154.026 26.788C153.626 26.788 153.266 26.948 152.946 27.268C152.626 27.588 152.33 28.004 152.058 28.516C151.802 29.012 151.554 29.54 151.314 30.1C151.09 30.66 150.874 31.196 150.666 31.708C150.458 32.204 150.25 32.612 150.042 32.932C149.834 33.252 149.618 33.412 149.394 33.412ZM151.17 25.084C151.618 24.732 152.05 24.284 152.466 23.74C152.898 23.196 153.298 22.62 153.666 22.012C154.034 21.388 154.362 20.78 154.65 20.188C154.938 19.596 155.162 19.06 155.322 18.58C155.482 18.1 155.562 17.74 155.562 17.5C155.562 17.42 155.554 17.372 155.538 17.356C155.522 17.324 155.498 17.308 155.466 17.308C155.354 17.308 155.122 17.532 154.77 17.98C154.434 18.412 154.042 18.996 153.594 19.732C153.146 20.468 152.706 21.3 152.274 22.228C151.842 23.156 151.474 24.108 151.17 25.084ZM161.312 33.268C160.704 33.268 160.232 33.068 159.896 32.668C159.56 32.284 159.392 31.788 159.392 31.18C159.392 30.668 159.496 30.1 159.704 29.476C159.928 28.836 160.232 28.204 160.616 27.58C161 26.94 161.432 26.356 161.912 25.828C162.408 25.3 162.936 24.876 163.496 24.556C164.056 24.22 164.624 24.052 165.2 24.052C165.504 24.052 165.736 24.1 165.896 24.196C166.056 24.292 166.168 24.412 166.232 24.556C166.264 24.54 166.288 24.532 166.304 24.532C166.336 24.532 166.368 24.532 166.4 24.532C166.704 24.532 166.912 24.652 167.024 24.892C167.152 25.132 167.216 25.324 167.216 25.468C167.216 25.66 167.136 25.916 166.976 26.236C166.816 26.54 166.656 26.884 166.496 27.268C166.352 27.652 166.28 28.06 166.28 28.492C166.28 28.94 166.392 29.276 166.616 29.5C166.84 29.708 167.2 29.812 167.696 29.812C168.016 29.812 168.352 29.66 168.704 29.356C169.072 29.036 169.432 28.636 169.784 28.156C170.136 27.66 170.448 27.124 170.72 26.548C171.008 25.972 171.224 25.42 171.368 24.892C171.208 24.732 171.128 24.54 171.128 24.316C171.128 23.996 171.192 23.716 171.32 23.476C171.448 23.22 171.592 23.028 171.752 22.9C171.928 22.756 172.056 22.684 172.136 22.684C172.312 22.684 172.408 22.764 172.424 22.924C172.456 23.068 172.472 23.18 172.472 23.26C172.472 23.34 172.424 23.5 172.328 23.74C172.248 23.964 172.208 24.1 172.208 24.148C172.208 24.372 172.328 24.58 172.568 24.772C172.824 24.948 173.112 25.156 173.432 25.396C173.752 25.62 174.032 25.9 174.272 26.236C174.528 26.556 174.656 26.972 174.656 27.484C174.656 27.964 174.552 28.452 174.344 28.948C174.152 29.444 173.952 29.916 173.744 30.364C173.552 30.812 173.456 31.204 173.456 31.54C173.456 31.828 173.528 32.02 173.672 32.116C173.816 32.212 173.984 32.26 174.176 32.26C174.56 32.26 174.952 32.14 175.352 31.9C175.768 31.66 176.168 31.356 176.552 30.988C176.936 30.62 177.28 30.236 177.584 29.836C177.888 29.42 178.112 29.036 178.256 28.684L178.568 28.924C178.264 29.596 177.848 30.26 177.32 30.916C176.792 31.556 176.2 32.084 175.544 32.5C174.904 32.916 174.24 33.124 173.552 33.124C173.008 33.124 172.576 32.98 172.256 32.692C171.952 32.404 171.8 32.028 171.8 31.564C171.8 31.084 171.912 30.58 172.136 30.052C172.36 29.524 172.576 29.004 172.784 28.492C173.008 27.964 173.12 27.492 173.12 27.076C173.12 26.564 172.968 26.188 172.664 25.948C172.376 25.692 172.08 25.46 171.776 25.252C171.6 25.796 171.36 26.372 171.056 26.98C170.768 27.572 170.44 28.132 170.072 28.66C169.704 29.172 169.304 29.588 168.872 29.908C168.456 30.228 168.016 30.388 167.552 30.388C167.104 30.388 166.696 30.3 166.328 30.124C165.976 29.932 165.704 29.652 165.512 29.284C165.016 30.452 164.4 31.412 163.664 32.164C162.944 32.9 162.16 33.268 161.312 33.268ZM161.84 32.236C162.208 32.236 162.6 32.076 163.016 31.756C163.432 31.42 163.84 30.972 164.24 30.412C164.64 29.852 164.984 29.228 165.272 28.54C165.176 28.156 165.128 27.7 165.128 27.172C165.128 26.804 165.144 26.484 165.176 26.212C165.224 25.94 165.28 25.7 165.344 25.492C165.424 25.284 165.504 25.116 165.584 24.988C165.04 24.988 164.528 25.14 164.048 25.444C163.584 25.732 163.16 26.116 162.776 26.596C162.392 27.06 162.064 27.564 161.792 28.108C161.52 28.652 161.304 29.18 161.144 29.692C161 30.204 160.928 30.644 160.928 31.012C160.928 31.38 161.008 31.676 161.168 31.9C161.328 32.124 161.552 32.236 161.84 32.236ZM186.576 33.556C185.6 33.556 184.864 33.284 184.368 32.74C183.888 32.212 183.648 31.556 183.648 30.772C183.648 30.052 183.824 29.292 184.176 28.492C184.544 27.692 185.024 26.94 185.616 26.236C186.224 25.532 186.888 24.964 187.608 24.532C188.328 24.084 189.04 23.86 189.744 23.86C190.112 23.86 190.448 23.956 190.752 24.148C191.072 24.34 191.232 24.732 191.232 25.324C191.232 25.932 191.048 26.508 190.68 27.052C190.328 27.58 189.856 28.052 189.264 28.468C188.688 28.884 188.048 29.228 187.344 29.5C186.656 29.756 185.968 29.916 185.28 29.98C185.248 30.14 185.224 30.292 185.208 30.436C185.192 30.58 185.184 30.716 185.184 30.844C185.184 31.084 185.208 31.324 185.256 31.564C185.32 31.804 185.424 32.028 185.568 32.236C185.712 32.428 185.904 32.58 186.144 32.692C186.4 32.804 186.712 32.86 187.08 32.86C187.768 32.86 188.448 32.668 189.12 32.284C189.792 31.884 190.416 31.364 190.992 30.724C191.568 30.084 192.056 29.38 192.456 28.612L192.744 28.828C192.312 29.788 191.76 30.62 191.088 31.324C190.432 32.028 189.712 32.572 188.928 32.956C188.16 33.356 187.376 33.556 186.576 33.556ZM185.4 29.524C185.832 29.38 186.32 29.172 186.864 28.9C187.408 28.612 187.928 28.276 188.424 27.892C188.936 27.508 189.352 27.084 189.672 26.62C190.008 26.156 190.176 25.668 190.176 25.156C190.176 24.98 190.144 24.844 190.08 24.748C190.016 24.652 189.88 24.604 189.672 24.604C189.288 24.604 188.88 24.756 188.448 25.06C188.016 25.348 187.6 25.732 187.2 26.212C186.8 26.692 186.44 27.22 186.12 27.796C185.8 28.372 185.56 28.948 185.4 29.524ZM200.803 33.556C199.827 33.556 199.091 33.284 198.595 32.74C198.115 32.212 197.875 31.556 197.875 30.772C197.875 30.052 198.051 29.292 198.403 28.492C198.771 27.692 199.251 26.94 199.843 26.236C200.451 25.532 201.115 24.964 201.835 24.532C202.555 24.084 203.267 23.86 203.971 23.86C204.339 23.86 204.675 23.956 204.979 24.148C205.299 24.34 205.459 24.732 205.459 25.324C205.459 25.932 205.275 26.508 204.907 27.052C204.555 27.58 204.083 28.052 203.491 28.468C202.915 28.884 202.275 29.228 201.571 29.5C200.883 29.756 200.195 29.916 199.507 29.98C199.475 30.14 199.451 30.292 199.435 30.436C199.419 30.58 199.411 30.716 199.411 30.844C199.411 31.084 199.435 31.324 199.483 31.564C199.547 31.804 199.651 32.028 199.795 32.236C199.939 32.428 200.131 32.58 200.371 32.692C200.627 32.804 200.939 32.86 201.307 32.86C201.995 32.86 202.675 32.668 203.347 32.284C204.019 31.884 204.643 31.364 205.219 30.724C205.795 30.084 206.283 29.38 206.683 28.612L206.971 28.828C206.539 29.788 205.987 30.62 205.315 31.324C204.659 32.028 203.939 32.572 203.155 32.956C202.387 33.356 201.603 33.556 200.803 33.556ZM199.627 29.524C200.059 29.38 200.547 29.172 201.091 28.9C201.635 28.612 202.155 28.276 202.651 27.892C203.163 27.508 203.579 27.084 203.899 26.62C204.235 26.156 204.403 25.668 204.403 25.156C204.403 24.98 204.371 24.844 204.307 24.748C204.243 24.652 204.107 24.604 203.899 24.604C203.515 24.604 203.107 24.756 202.675 25.06C202.243 25.348 201.827 25.732 201.427 26.212C201.027 26.692 200.667 27.22 200.347 27.796C200.027 28.372 199.787 28.948 199.627 29.524ZM213.955 32.98C213.395 32.98 212.971 32.836 212.683 32.548C212.411 32.26 212.275 31.892 212.275 31.444C212.275 31.108 212.331 30.756 212.443 30.388C212.571 30.02 212.691 29.644 212.803 29.26C212.915 28.86 212.971 28.476 212.971 28.108C212.971 27.66 212.875 27.356 212.683 27.196C212.507 27.02 212.283 26.932 212.011 26.932C211.515 26.932 211.011 27.14 210.499 27.556C209.987 27.956 209.491 28.476 209.011 29.116C208.531 29.74 208.083 30.388 207.667 31.06C207.251 31.732 206.883 32.332 206.563 32.86C206.307 32.86 206.067 32.812 205.843 32.716C205.603 32.636 205.419 32.508 205.291 32.332C205.291 32.252 205.379 32.004 205.555 31.588C205.715 31.172 205.907 30.66 206.131 30.052C206.355 29.444 206.555 28.82 206.731 28.18C206.907 27.54 206.995 26.956 206.995 26.428C207.091 26.316 207.243 26.204 207.451 26.092C207.659 25.98 207.875 25.924 208.099 25.924C208.531 25.924 208.747 26.132 208.747 26.548C208.747 26.804 208.675 27.236 208.531 27.844C208.387 28.436 208.203 29.06 207.979 29.716C208.411 29.06 208.891 28.412 209.419 27.772C209.963 27.116 210.539 26.572 211.147 26.14C211.755 25.708 212.363 25.492 212.971 25.492C213.595 25.492 214.043 25.716 214.315 26.164C214.603 26.612 214.747 27.108 214.747 27.652C214.747 28.148 214.667 28.612 214.507 29.044C214.347 29.46 214.179 29.868 214.003 30.268C213.843 30.652 213.763 31.044 213.763 31.444C213.763 31.78 213.827 32.02 213.955 32.164C214.099 32.292 214.275 32.356 214.483 32.356C214.883 32.356 215.283 32.172 215.683 31.804C216.083 31.42 216.467 30.94 216.835 30.364C217.219 29.788 217.555 29.204 217.843 28.612L218.107 28.924C217.771 29.708 217.395 30.404 216.979 31.012C216.563 31.62 216.107 32.1 215.611 32.452C215.115 32.804 214.563 32.98 213.955 32.98ZM219.423 33.604C218.735 33.604 218.207 33.404 217.839 33.004C217.471 32.604 217.287 32.012 217.287 31.228C217.287 30.524 217.415 29.66 217.671 28.636C217.943 27.596 218.279 26.532 218.679 25.444C218.519 25.412 218.367 25.388 218.223 25.372C218.079 25.34 217.943 25.3 217.815 25.252V24.82C217.943 24.836 218.095 24.852 218.271 24.868C218.447 24.884 218.647 24.9 218.871 24.916C219.207 24.052 219.567 23.22 219.951 22.42C220.335 21.604 220.711 20.884 221.079 20.26C221.463 19.62 221.823 19.116 222.159 18.748C222.511 18.364 222.807 18.172 223.047 18.172C223.175 18.172 223.287 18.22 223.383 18.316C223.495 18.396 223.551 18.524 223.551 18.7C223.551 18.972 223.383 19.42 223.047 20.044C222.711 20.652 222.295 21.38 221.799 22.228C221.303 23.076 220.823 23.996 220.359 24.988C220.503 24.988 220.647 24.988 220.791 24.988C220.951 24.988 221.103 24.988 221.247 24.988C221.775 24.988 222.327 24.98 222.903 24.964C223.495 24.948 224.087 24.908 224.679 24.844V25.276C223.799 25.372 223.007 25.444 222.303 25.492C221.615 25.54 220.999 25.564 220.455 25.564C220.391 25.564 220.327 25.564 220.263 25.564C220.215 25.564 220.159 25.564 220.095 25.564C219.727 26.412 219.415 27.284 219.159 28.18C218.903 29.076 218.775 29.948 218.775 30.796C218.775 31.484 218.879 31.98 219.087 32.284C219.295 32.572 219.639 32.716 220.119 32.716C220.951 32.716 221.767 32.348 222.567 31.612C223.367 30.876 224.071 29.876 224.679 28.612L224.991 28.852C224.607 29.748 224.119 30.556 223.527 31.276C222.951 31.996 222.311 32.564 221.607 32.98C220.903 33.396 220.175 33.604 219.423 33.604ZM228.379 33.124C227.835 33.124 227.403 32.98 227.083 32.692C226.779 32.404 226.627 32.028 226.627 31.564C226.627 31.084 226.739 30.58 226.963 30.052C227.187 29.524 227.403 29.004 227.611 28.492C227.835 27.964 227.947 27.492 227.947 27.076C227.947 26.564 227.795 26.188 227.491 25.948C227.203 25.692 226.907 25.46 226.603 25.252C226.235 26.196 225.851 27.092 225.451 27.94C225.051 28.788 224.723 29.428 224.467 29.86L224.251 29.452C224.475 29.036 224.763 28.428 225.115 27.628C225.483 26.828 225.843 25.916 226.195 24.892C226.035 24.732 225.955 24.54 225.955 24.316C225.955 23.836 226.091 23.444 226.363 23.14C226.635 22.836 226.835 22.684 226.963 22.684C227.139 22.684 227.235 22.764 227.251 22.924C227.283 23.068 227.299 23.18 227.299 23.26C227.299 23.34 227.251 23.5 227.155 23.74C227.075 23.964 227.035 24.1 227.035 24.148C227.035 24.372 227.155 24.58 227.395 24.772C227.651 24.948 227.939 25.156 228.259 25.396C228.579 25.62 228.859 25.9 229.099 26.236C229.355 26.556 229.483 26.972 229.483 27.484C229.483 27.964 229.379 28.452 229.171 28.948C228.979 29.444 228.779 29.916 228.571 30.364C228.379 30.812 228.283 31.204 228.283 31.54C228.283 31.828 228.355 32.02 228.499 32.116C228.643 32.212 228.811 32.26 229.003 32.26C229.387 32.26 229.779 32.14 230.179 31.9C230.595 31.66 230.995 31.356 231.379 30.988C231.763 30.62 232.107 30.236 232.411 29.836C232.715 29.42 232.939 29.036 233.083 28.684L233.395 28.924C233.091 29.596 232.675 30.26 232.147 30.916C231.619 31.556 231.027 32.084 230.371 32.5C229.731 32.916 229.067 33.124 228.379 33.124ZM235.162 33.556C234.186 33.556 233.45 33.284 232.954 32.74C232.474 32.212 232.234 31.556 232.234 30.772C232.234 30.052 232.41 29.292 232.762 28.492C233.13 27.692 233.61 26.94 234.202 26.236C234.81 25.532 235.474 24.964 236.194 24.532C236.914 24.084 237.626 23.86 238.33 23.86C238.698 23.86 239.034 23.956 239.338 24.148C239.658 24.34 239.818 24.732 239.818 25.324C239.818 25.932 239.634 26.508 239.266 27.052C238.914 27.58 238.442 28.052 237.85 28.468C237.274 28.884 236.634 29.228 235.93 29.5C235.242 29.756 234.554 29.916 233.866 29.98C233.834 30.14 233.81 30.292 233.794 30.436C233.778 30.58 233.77 30.716 233.77 30.844C233.77 31.084 233.794 31.324 233.842 31.564C233.906 31.804 234.01 32.028 234.154 32.236C234.298 32.428 234.49 32.58 234.73 32.692C234.986 32.804 235.298 32.86 235.666 32.86C236.354 32.86 237.034 32.668 237.706 32.284C238.378 31.884 239.002 31.364 239.578 30.724C240.154 30.084 240.642 29.38 241.042 28.612L241.33 28.828C240.898 29.788 240.346 30.62 239.674 31.324C239.018 32.028 238.298 32.572 237.514 32.956C236.746 33.356 235.962 33.556 235.162 33.556ZM233.986 29.524C234.418 29.38 234.906 29.172 235.45 28.9C235.994 28.612 236.514 28.276 237.01 27.892C237.522 27.508 237.938 27.084 238.258 26.62C238.594 26.156 238.762 25.668 238.762 25.156C238.762 24.98 238.73 24.844 238.666 24.748C238.602 24.652 238.466 24.604 238.258 24.604C237.874 24.604 237.466 24.756 237.034 25.06C236.602 25.348 236.186 25.732 235.786 26.212C235.386 26.692 235.026 27.22 234.706 27.796C234.386 28.372 234.146 28.948 233.986 29.524ZM241.475 39.22C241.123 39.22 240.803 39.108 240.514 38.884C240.226 38.676 240.082 38.324 240.082 37.828C240.082 37.348 240.234 36.9 240.538 36.484C240.827 36.084 241.203 35.708 241.667 35.356C242.131 35.02 242.635 34.708 243.179 34.42C243.739 34.132 244.267 33.86 244.763 33.604C244.987 33.044 245.195 32.444 245.387 31.804C245.595 31.148 245.795 30.428 245.987 29.644C245.379 30.524 244.739 31.26 244.067 31.852C243.411 32.428 242.747 32.716 242.075 32.716C241.499 32.716 241.051 32.5 240.731 32.068C240.427 31.636 240.274 31.076 240.274 30.388C240.274 29.556 240.475 28.764 240.875 28.012C241.291 27.26 241.827 26.596 242.483 26.02C243.139 25.444 243.835 24.996 244.571 24.676C245.307 24.34 245.995 24.172 246.635 24.172C247.099 24.172 247.427 24.252 247.618 24.412C247.827 24.556 247.931 24.732 247.931 24.94C247.931 25.084 247.891 25.196 247.811 25.276C247.731 25.356 247.675 25.404 247.643 25.42C247.563 25.292 247.443 25.204 247.283 25.156C247.123 25.092 246.923 25.06 246.683 25.06C246.059 25.06 245.451 25.244 244.859 25.612C244.283 25.98 243.771 26.452 243.323 27.028C242.875 27.604 242.515 28.204 242.243 28.828C241.987 29.436 241.859 29.996 241.859 30.508C241.859 30.892 241.931 31.188 242.075 31.396C242.235 31.588 242.443 31.684 242.699 31.684C243.163 31.684 243.715 31.38 244.355 30.772C245.011 30.148 245.643 29.396 246.251 28.516C246.299 28.292 246.339 28.092 246.371 27.916C246.419 27.74 246.475 27.516 246.539 27.244C246.587 27.02 246.699 26.764 246.875 26.476C247.067 26.172 247.363 26.02 247.763 26.02C247.843 26.02 247.923 26.028 248.003 26.044C248.083 26.044 248.171 26.06 248.267 26.092C248.267 26.348 248.187 26.82 248.027 27.508C247.883 28.18 247.667 28.972 247.379 29.884C247.107 30.78 246.787 31.708 246.419 32.668C246.947 32.412 247.459 32.084 247.955 31.684C248.467 31.284 248.931 30.828 249.347 30.316C249.763 29.788 250.091 29.22 250.331 28.612L250.643 28.852C250.403 29.572 250.019 30.228 249.491 30.82C248.963 31.412 248.395 31.924 247.787 32.356C247.195 32.788 246.651 33.124 246.155 33.364C245.707 34.436 245.235 35.412 244.739 36.292C244.243 37.188 243.723 37.9 243.179 38.428C242.651 38.956 242.083 39.22 241.475 39.22ZM241.403 38.452C241.723 38.452 242.155 38.132 242.699 37.492C243.259 36.868 243.859 35.788 244.499 34.252C243.859 34.572 243.259 34.9 242.699 35.236C242.155 35.588 241.707 35.956 241.354 36.34C241.003 36.724 240.827 37.148 240.827 37.612C240.827 37.868 240.883 38.068 240.995 38.212C241.107 38.372 241.243 38.452 241.403 38.452ZM251.691 33.22C251.147 33.22 250.707 32.98 250.371 32.5C250.051 32.004 249.891 31.436 249.891 30.796C249.891 30.332 249.963 29.796 250.107 29.188C250.267 28.58 250.459 27.98 250.683 27.388C250.907 26.796 251.139 26.308 251.379 25.924C251.619 25.54 251.827 25.348 252.003 25.348C252.083 25.348 252.219 25.396 252.411 25.492C252.603 25.572 252.763 25.684 252.891 25.828C252.715 26.1 252.499 26.516 252.243 27.076C251.987 27.636 251.763 28.236 251.571 28.876C251.379 29.516 251.283 30.108 251.283 30.652C251.283 30.78 251.299 30.98 251.331 31.252C251.363 31.508 251.443 31.74 251.571 31.948C251.699 32.156 251.891 32.26 252.147 32.26C252.451 32.26 252.763 32.108 253.083 31.804C253.403 31.484 253.723 31.076 254.043 30.58C254.379 30.084 254.699 29.548 255.003 28.972C255.307 28.396 255.587 27.844 255.843 27.316C256.115 26.788 256.339 26.348 256.515 25.996C256.611 26.012 256.747 26.044 256.923 26.092C257.115 26.14 257.283 26.204 257.427 26.284C257.587 26.364 257.667 26.476 257.667 26.62C257.667 26.684 257.587 26.9 257.427 27.268C257.267 27.62 257.075 28.06 256.851 28.588C256.643 29.1 256.459 29.62 256.299 30.148C256.139 30.676 256.059 31.14 256.059 31.54C256.059 31.828 256.115 32.06 256.227 32.236C256.355 32.412 256.563 32.5 256.851 32.5C257.187 32.5 257.595 32.348 258.075 32.044C258.555 31.74 259.043 31.3 259.539 30.724C260.035 30.132 260.475 29.428 260.859 28.612L261.171 28.828C260.835 29.692 260.395 30.46 259.851 31.132C259.307 31.788 258.731 32.3 258.123 32.668C257.515 33.036 256.923 33.22 256.347 33.22C255.931 33.22 255.595 33.14 255.339 32.98C255.099 32.82 254.923 32.604 254.811 32.332C254.715 32.06 254.667 31.764 254.667 31.444C254.667 31.252 254.683 31.06 254.715 30.868C254.747 30.66 254.787 30.452 254.835 30.244C254.547 30.772 254.235 31.268 253.899 31.732C253.563 32.18 253.211 32.54 252.843 32.812C252.475 33.084 252.091 33.22 251.691 33.22ZM263.006 33.556C262.03 33.556 261.294 33.284 260.798 32.74C260.318 32.212 260.078 31.556 260.078 30.772C260.078 30.052 260.254 29.292 260.606 28.492C260.974 27.692 261.454 26.94 262.046 26.236C262.654 25.532 263.318 24.964 264.038 24.532C264.758 24.084 265.47 23.86 266.174 23.86C266.542 23.86 266.878 23.956 267.182 24.148C267.502 24.34 267.662 24.732 267.662 25.324C267.662 25.932 267.478 26.508 267.11 27.052C266.758 27.58 266.286 28.052 265.694 28.468C265.118 28.884 264.478 29.228 263.774 29.5C263.086 29.756 262.398 29.916 261.71 29.98C261.678 30.14 261.654 30.292 261.638 30.436C261.622 30.58 261.614 30.716 261.614 30.844C261.614 31.084 261.638 31.324 261.686 31.564C261.75 31.804 261.854 32.028 261.998 32.236C262.142 32.428 262.334 32.58 262.574 32.692C262.83 32.804 263.142 32.86 263.51 32.86C264.198 32.86 264.878 32.668 265.55 32.284C266.222 31.884 266.846 31.364 267.422 30.724C267.998 30.084 268.486 29.38 268.886 28.612L269.174 28.828C268.742 29.788 268.19 30.62 267.518 31.324C266.862 32.028 266.142 32.572 265.358 32.956C264.59 33.356 263.806 33.556 263.006 33.556ZM261.83 29.524C262.262 29.38 262.75 29.172 263.294 28.9C263.838 28.612 264.358 28.276 264.854 27.892C265.366 27.508 265.782 27.084 266.102 26.62C266.438 26.156 266.606 25.668 266.606 25.156C266.606 24.98 266.574 24.844 266.51 24.748C266.446 24.652 266.31 24.604 266.102 24.604C265.718 24.604 265.31 24.756 264.878 25.06C264.446 25.348 264.03 25.732 263.63 26.212C263.23 26.692 262.87 27.22 262.55 27.796C262.23 28.372 261.99 28.948 261.83 29.524ZM47.4384 62.604C46.7504 62.604 46.2224 62.404 45.8544 62.004C45.4864 61.604 45.3024 61.012 45.3024 60.228C45.3024 59.524 45.4304 58.66 45.6864 57.636C45.9584 56.596 46.2944 55.532 46.6944 54.444C46.5344 54.412 46.3824 54.388 46.2384 54.372C46.0944 54.34 45.9584 54.3 45.8304 54.252V53.82C45.9584 53.836 46.1104 53.852 46.2864 53.868C46.4624 53.884 46.6624 53.9 46.8864 53.916C47.2224 53.052 47.5824 52.22 47.9664 51.42C48.3504 50.604 48.7264 49.884 49.0944 49.26C49.4784 48.62 49.8384 48.116 50.1744 47.748C50.5264 47.364 50.8224 47.172 51.0624 47.172C51.1904 47.172 51.3024 47.22 51.3984 47.316C51.5104 47.396 51.5664 47.524 51.5664 47.7C51.5664 47.972 51.3984 48.42 51.0624 49.044C50.7264 49.652 50.3104 50.38 49.8144 51.228C49.3184 52.076 48.8384 52.996 48.3744 53.988C48.5184 53.988 48.6624 53.988 48.8064 53.988C48.9664 53.988 49.1184 53.988 49.2624 53.988C49.7904 53.988 50.3424 53.98 50.9184 53.964C51.5104 53.948 52.1024 53.908 52.6944 53.844V54.276C51.8144 54.372 51.0224 54.444 50.3184 54.492C49.6304 54.54 49.0144 54.564 48.4704 54.564C48.4064 54.564 48.3424 54.564 48.2784 54.564C48.2304 54.564 48.1744 54.564 48.1104 54.564C47.7424 55.412 47.4304 56.284 47.1744 57.18C46.9184 58.076 46.7904 58.948 46.7904 59.796C46.7904 60.484 46.8944 60.98 47.1024 61.284C47.3104 61.572 47.6544 61.716 48.1344 61.716C48.9664 61.716 49.7824 61.348 50.5824 60.612C51.3824 59.876 52.0864 58.876 52.6944 57.612L53.0064 57.852C52.6224 58.748 52.1344 59.556 51.5424 60.276C50.9664 60.996 50.3264 61.564 49.6224 61.98C48.9184 62.396 48.1904 62.604 47.4384 62.604ZM54.0422 62.22C53.4982 62.22 53.0582 61.98 52.7222 61.5C52.4022 61.004 52.2422 60.436 52.2422 59.796C52.2422 59.332 52.3142 58.796 52.4582 58.188C52.6182 57.58 52.8102 56.98 53.0342 56.388C53.2582 55.796 53.4902 55.308 53.7302 54.924C53.9702 54.54 54.1782 54.348 54.3542 54.348C54.4342 54.348 54.5702 54.396 54.7622 54.492C54.9542 54.572 55.1142 54.684 55.2422 54.828C55.0662 55.1 54.8502 55.516 54.5942 56.076C54.3382 56.636 54.1142 57.236 53.9222 57.876C53.7302 58.516 53.6342 59.108 53.6342 59.652C53.6342 59.78 53.6502 59.98 53.6822 60.252C53.7142 60.508 53.7942 60.74 53.9222 60.948C54.0502 61.156 54.2422 61.26 54.4982 61.26C54.8022 61.26 55.1142 61.108 55.4342 60.804C55.7542 60.484 56.0742 60.076 56.3942 59.58C56.7302 59.084 57.0502 58.548 57.3542 57.972C57.6582 57.396 57.9382 56.844 58.1942 56.316C58.4662 55.788 58.6902 55.348 58.8662 54.996C58.9622 55.012 59.0982 55.044 59.2742 55.092C59.4662 55.14 59.6342 55.204 59.7782 55.284C59.9382 55.364 60.0182 55.476 60.0182 55.62C60.0182 55.684 59.9382 55.9 59.7782 56.268C59.6182 56.62 59.4262 57.06 59.2022 57.588C58.9942 58.1 58.8102 58.62 58.6502 59.148C58.4902 59.676 58.4102 60.14 58.4102 60.54C58.4102 60.828 58.4662 61.06 58.5782 61.236C58.7062 61.412 58.9142 61.5 59.2022 61.5C59.5382 61.5 59.9462 61.348 60.4262 61.044C60.9062 60.74 61.3942 60.3 61.8902 59.724C62.3862 59.132 62.8262 58.428 63.2102 57.612L63.5222 57.828C63.1862 58.692 62.7462 59.46 62.2022 60.132C61.6582 60.788 61.0822 61.3 60.4742 61.668C59.8662 62.036 59.2742 62.22 58.6982 62.22C58.2822 62.22 57.9462 62.14 57.6902 61.98C57.4502 61.82 57.2742 61.604 57.1622 61.332C57.0662 61.06 57.0182 60.764 57.0182 60.444C57.0182 60.252 57.0342 60.06 57.0662 59.868C57.0982 59.66 57.1382 59.452 57.1862 59.244C56.8982 59.772 56.5862 60.268 56.2502 60.732C55.9142 61.18 55.5622 61.54 55.1942 61.812C54.8262 62.084 54.4422 62.22 54.0422 62.22ZM64.1816 62.22C63.9096 62.22 63.6296 62.148 63.3416 62.004C63.0696 61.876 62.8456 61.66 62.6696 61.356C62.4776 61.052 62.3816 60.668 62.3816 60.204C62.3816 59.676 62.5096 59.084 62.7656 58.428C63.0216 57.772 63.3656 57.124 63.7976 56.484C64.2296 55.828 64.7256 55.228 65.2856 54.684C65.8456 54.124 66.4296 53.684 67.0376 53.364C67.6456 53.028 68.2456 52.86 68.8376 52.86C69.1736 52.86 69.4296 52.924 69.6056 53.052C69.7976 53.164 69.8936 53.348 69.8936 53.604C69.8936 53.668 69.8856 53.724 69.8696 53.772C69.8696 53.82 69.8616 53.876 69.8456 53.94C69.7656 53.812 69.6456 53.724 69.4856 53.676C69.3416 53.612 69.1576 53.58 68.9336 53.58C68.4216 53.58 67.9176 53.74 67.4216 54.06C66.9416 54.364 66.4936 54.772 66.0776 55.284C65.6776 55.78 65.3256 56.316 65.0216 56.892C64.7176 57.468 64.4776 58.028 64.3016 58.572C64.1416 59.1 64.0616 59.548 64.0616 59.916C64.0616 60.268 64.1416 60.548 64.3016 60.756C64.4616 60.964 64.6696 61.068 64.9256 61.068C65.3576 61.068 65.8776 60.796 66.4856 60.252C67.1096 59.708 67.7416 58.94 68.3816 57.948C69.0216 56.956 69.5976 55.796 70.1096 54.468C70.4616 53.54 70.8216 52.596 71.1896 51.636C71.5736 50.676 71.9576 49.756 72.3416 48.876C72.7256 47.98 73.0936 47.188 73.4456 46.5C73.8136 45.796 74.1576 45.244 74.4776 44.844C74.8136 44.428 75.1096 44.22 75.3656 44.22C75.4936 44.22 75.6056 44.276 75.7016 44.388C75.7976 44.484 75.8456 44.612 75.8456 44.772C75.8456 45.028 75.7096 45.468 75.4376 46.092C75.1816 46.7 74.8376 47.436 74.4056 48.3C73.9896 49.148 73.5496 50.076 73.0856 51.084C72.6216 52.092 72.1736 53.116 71.7416 54.156C71.3256 55.196 70.9816 56.204 70.7096 57.18C70.4536 58.14 70.3256 59.02 70.3256 59.82C70.3256 60.268 70.3496 60.604 70.3976 60.828C70.4456 61.052 70.6056 61.164 70.8776 61.164C71.2136 61.164 71.6056 61.02 72.0536 60.732C72.5016 60.444 72.9496 60.036 73.3976 59.508C73.8456 58.98 74.2376 58.348 74.5736 57.612L74.8616 57.828C74.5576 58.644 74.1416 59.38 73.6136 60.036C73.0856 60.676 72.5176 61.18 71.9096 61.548C71.3176 61.932 70.7496 62.124 70.2056 62.124C69.6136 62.124 69.1976 61.924 68.9576 61.524C68.7336 61.14 68.6216 60.74 68.6216 60.324C68.6216 60.052 68.6616 59.692 68.7416 59.244C68.8216 58.796 68.9336 58.3 69.0776 57.756C68.5656 58.604 68.0216 59.372 67.4456 60.06C66.8696 60.732 66.3016 61.26 65.7416 61.644C65.1976 62.028 64.6776 62.22 64.1816 62.22ZM75.7654 62.268C75.0774 62.268 74.5894 62.052 74.3014 61.62C74.0134 61.204 73.8694 60.692 73.8694 60.084C73.8694 59.588 73.9494 59.076 74.1094 58.548C74.2694 58.02 74.4774 57.524 74.7334 57.06C75.0054 56.596 75.3014 56.22 75.6214 55.932C75.9574 55.644 76.2934 55.5 76.6294 55.5C76.7094 55.5 76.7894 55.516 76.8694 55.548C76.9654 55.564 77.0534 55.588 77.1334 55.62C76.9894 55.748 76.8134 55.988 76.6054 56.34C76.4134 56.676 76.2294 57.068 76.0534 57.516C75.8774 57.948 75.7254 58.38 75.5974 58.812C75.4854 59.244 75.4294 59.612 75.4294 59.916C75.4294 60.396 75.5094 60.748 75.6694 60.972C75.8294 61.18 76.0374 61.284 76.2934 61.284C76.6294 61.284 77.0294 61.108 77.4934 60.756C77.9574 60.388 78.4134 59.924 78.8614 59.364C78.4134 58.996 78.0614 58.516 77.8054 57.924C77.5654 57.316 77.4454 56.7 77.4454 56.076C77.4454 55.548 77.5334 55.052 77.7094 54.588C77.9014 54.124 78.1734 53.756 78.5254 53.484C78.8774 53.196 79.3014 53.052 79.7974 53.052C80.4534 53.052 80.8934 53.228 81.1174 53.58C81.3414 53.932 81.4534 54.372 81.4534 54.9C81.4534 55.524 81.3014 56.22 80.9974 56.988C80.6934 57.74 80.3094 58.468 79.8454 59.172C80.1334 59.332 80.4374 59.412 80.7574 59.412C81.0134 59.412 81.3014 59.364 81.6214 59.268C81.9414 59.156 82.2534 58.972 82.5574 58.716C82.8774 58.46 83.1334 58.116 83.3254 57.684L83.6134 57.924C83.2934 58.676 82.8374 59.212 82.2454 59.532C81.6694 59.836 81.1174 59.988 80.5894 59.988C80.3814 59.988 80.1814 59.972 79.9894 59.94C79.7974 59.892 79.6134 59.828 79.4374 59.748C78.8934 60.468 78.2934 61.068 77.6374 61.548C76.9974 62.028 76.3734 62.268 75.7654 62.268ZM79.2934 58.74C79.6934 58.148 80.0214 57.532 80.2774 56.892C80.5494 56.236 80.6854 55.62 80.6854 55.044C80.6854 54.58 80.6134 54.244 80.4694 54.036C80.3414 53.812 80.1734 53.7 79.9654 53.7C79.6454 53.7 79.3174 53.932 78.9814 54.396C78.6454 54.86 78.4774 55.444 78.4774 56.148C78.4774 56.612 78.5414 57.084 78.6694 57.564C78.8134 58.028 79.0214 58.42 79.2934 58.74ZM96.8614 61.98C96.3014 61.98 95.8774 61.836 95.5894 61.548C95.3174 61.26 95.1814 60.892 95.1814 60.444C95.1814 60.108 95.2374 59.756 95.3494 59.388C95.4774 59.02 95.5974 58.644 95.7094 58.26C95.8214 57.86 95.8774 57.476 95.8774 57.108C95.8774 56.66 95.7814 56.356 95.5894 56.196C95.4134 56.02 95.1894 55.932 94.9174 55.932C94.4214 55.932 93.9174 56.14 93.4054 56.556C92.8934 56.956 92.3974 57.476 91.9174 58.116C91.4374 58.74 90.9894 59.388 90.5734 60.06C90.1574 60.732 89.7894 61.332 89.4694 61.86C89.2134 61.86 88.9734 61.812 88.7494 61.716C88.5094 61.636 88.3254 61.508 88.1974 61.332C88.1974 61.252 88.2854 61.004 88.4614 60.588C88.6214 60.172 88.8134 59.66 89.0374 59.052C89.2614 58.444 89.4614 57.82 89.6374 57.18C89.8134 56.54 89.9014 55.956 89.9014 55.428C89.9974 55.316 90.1494 55.204 90.3574 55.092C90.5654 54.98 90.7814 54.924 91.0054 54.924C91.4374 54.924 91.6534 55.132 91.6534 55.548C91.6534 55.804 91.5814 56.236 91.4374 56.844C91.2934 57.436 91.1094 58.06 90.8854 58.716C91.3174 58.06 91.7974 57.412 92.3254 56.772C92.8694 56.116 93.4454 55.572 94.0534 55.14C94.6614 54.708 95.2694 54.492 95.8774 54.492C96.5014 54.492 96.9494 54.716 97.2214 55.164C97.5094 55.612 97.6534 56.108 97.6534 56.652C97.6534 57.148 97.5734 57.612 97.4134 58.044C97.2534 58.46 97.0854 58.868 96.9094 59.268C96.7494 59.652 96.6694 60.044 96.6694 60.444C96.6694 60.78 96.7334 61.02 96.8614 61.164C97.0054 61.292 97.1814 61.356 97.3894 61.356C97.7894 61.356 98.1894 61.172 98.5894 60.804C98.9894 60.42 99.3734 59.94 99.7414 59.364C100.125 58.788 100.461 58.204 100.749 57.612L101.013 57.924C100.677 58.708 100.301 59.404 99.8854 60.012C99.4694 60.62 99.0134 61.1 98.5174 61.452C98.0214 61.804 97.4694 61.98 96.8614 61.98ZM101.441 62.628C100.945 62.628 100.529 62.46 100.193 62.124C99.8411 61.804 99.6651 61.308 99.6651 60.636C99.6651 60.06 99.7931 59.444 100.049 58.788C100.305 58.116 100.657 57.46 101.105 56.82C101.553 56.164 102.057 55.572 102.617 55.044C103.193 54.5 103.793 54.068 104.417 53.748C105.057 53.428 105.689 53.268 106.313 53.268C106.937 53.268 107.457 53.436 107.873 53.772C108.289 54.092 108.497 54.524 108.497 55.068C108.497 55.468 108.385 55.74 108.161 55.884C107.953 56.028 107.673 56.1 107.321 56.1C107.353 55.972 107.377 55.836 107.393 55.692C107.425 55.532 107.441 55.388 107.441 55.26C107.441 54.892 107.353 54.58 107.177 54.324C107.001 54.052 106.697 53.916 106.265 53.916C105.817 53.916 105.361 54.076 104.897 54.396C104.433 54.7 103.985 55.116 103.553 55.644C103.121 56.156 102.737 56.716 102.401 57.324C102.065 57.932 101.801 58.532 101.609 59.124C101.417 59.716 101.321 60.244 101.321 60.708C101.321 61.332 101.537 61.644 101.969 61.644C102.337 61.644 102.737 61.476 103.169 61.14C103.601 60.788 104.041 60.348 104.489 59.82C104.953 59.276 105.393 58.716 105.809 58.14C106.225 57.564 106.593 57.036 106.913 56.556C106.977 56.46 107.017 56.412 107.033 56.412C107.129 56.428 107.249 56.46 107.393 56.508C107.553 56.556 107.689 56.62 107.801 56.7C107.913 56.78 107.969 56.884 107.969 57.012C107.969 57.156 107.897 57.356 107.753 57.612C107.609 57.852 107.449 58.132 107.273 58.452C107.097 58.772 106.937 59.1 106.793 59.436C106.649 59.756 106.577 60.06 106.577 60.348C106.577 60.588 106.641 60.828 106.769 61.068C106.897 61.292 107.105 61.404 107.393 61.404C107.825 61.404 108.393 61.092 109.097 60.468C109.801 59.828 110.513 58.876 111.233 57.612L111.473 57.852C111.137 58.716 110.705 59.476 110.177 60.132C109.649 60.788 109.081 61.3 108.473 61.668C107.881 62.036 107.297 62.22 106.721 62.22C106.129 62.22 105.689 62.044 105.401 61.692C105.129 61.34 104.993 60.956 104.993 60.54C104.993 60.444 105.001 60.34 105.017 60.228C105.033 60.1 105.049 59.972 105.065 59.844C104.377 60.772 103.745 61.468 103.169 61.932C102.609 62.396 102.033 62.628 101.441 62.628ZM113.262 62.724C112.51 62.724 111.91 62.556 111.462 62.22C111.03 61.9 110.726 61.5 110.55 61.02C110.358 60.54 110.262 60.06 110.262 59.58C110.262 59.1 110.326 58.732 110.454 58.476C110.582 58.22 110.734 58.028 110.91 57.9C111.102 57.772 111.278 57.676 111.438 57.612C111.614 57.548 111.734 57.484 111.798 57.42C112.278 56.892 112.718 56.34 113.118 55.764C113.518 55.188 113.87 54.58 114.174 53.94V53.652C114.174 53.06 114.27 52.644 114.462 52.404C114.67 52.148 114.886 52.02 115.11 52.02C115.238 52.02 115.334 52.052 115.398 52.116C115.462 52.18 115.494 52.252 115.494 52.332C115.494 52.412 115.47 52.54 115.422 52.716C115.374 52.892 115.35 53.116 115.35 53.388C115.35 53.916 115.454 54.492 115.662 55.116C115.87 55.724 116.078 56.372 116.286 57.06C116.494 57.732 116.598 58.436 116.598 59.172C116.598 59.38 116.582 59.588 116.55 59.796C116.534 59.988 116.502 60.172 116.454 60.348C117.014 60.252 117.542 60.004 118.038 59.604C118.534 59.188 119.014 58.532 119.478 57.636L119.694 57.876C119.39 58.756 118.934 59.428 118.326 59.892C117.718 60.34 117.054 60.62 116.334 60.732C116.078 61.42 115.67 61.924 115.11 62.244C114.566 62.564 113.95 62.724 113.262 62.724ZM113.31 61.884C113.502 61.884 113.758 61.82 114.078 61.692C114.398 61.564 114.646 61.236 114.822 60.708C114.15 60.58 113.55 60.316 113.022 59.916C112.51 59.516 112.126 59.116 111.87 58.716C111.518 58.732 111.342 59.012 111.342 59.556C111.342 60.132 111.51 60.668 111.846 61.164C112.198 61.644 112.686 61.884 113.31 61.884ZM114.942 60.324C114.974 60.164 114.998 59.996 115.014 59.82C115.03 59.644 115.038 59.436 115.038 59.196C115.038 58.444 114.942 57.7 114.75 56.964C114.574 56.212 114.422 55.508 114.294 54.852C113.926 55.46 113.534 56.044 113.118 56.604C112.718 57.148 112.334 57.604 111.966 57.972C112.206 58.484 112.574 58.964 113.07 59.412C113.582 59.86 114.206 60.164 114.942 60.324ZM137.346 62.244C136.786 62.244 136.378 62.068 136.122 61.716C135.866 61.38 135.738 60.972 135.738 60.492C135.738 60.092 135.794 59.692 135.906 59.292C136.034 58.892 136.154 58.5 136.266 58.116C136.394 57.732 136.458 57.388 136.458 57.084C136.458 56.764 136.386 56.54 136.242 56.412C136.098 56.284 135.938 56.22 135.762 56.22C135.362 56.22 134.922 56.532 134.442 57.156C133.978 57.78 133.37 58.66 132.618 59.796C132.362 60.18 132.146 60.572 131.97 60.972C131.794 61.356 131.626 61.708 131.466 62.028C131.338 62.028 131.178 62.012 130.986 61.98C130.794 61.948 130.618 61.892 130.458 61.812C130.314 61.748 130.242 61.66 130.242 61.548C130.242 61.436 130.314 61.172 130.458 60.756C130.618 60.324 130.794 59.828 130.986 59.268C131.194 58.692 131.37 58.116 131.514 57.54C131.674 56.948 131.754 56.444 131.754 56.028C131.754 55.756 131.706 55.54 131.61 55.38C131.53 55.204 131.378 55.116 131.154 55.116C130.802 55.116 130.378 55.332 129.882 55.764C129.386 56.18 128.874 56.732 128.346 57.42C127.818 58.108 127.314 58.868 126.834 59.7C126.37 60.516 125.994 61.332 125.706 62.148C125.562 62.148 125.386 62.124 125.178 62.076C124.97 62.028 124.794 61.964 124.65 61.884C124.49 61.804 124.41 61.724 124.41 61.644C124.41 61.548 124.498 61.268 124.674 60.804C124.834 60.324 125.026 59.756 125.25 59.1C125.458 58.428 125.642 57.748 125.802 57.06C125.978 56.372 126.066 55.764 126.066 55.236C126.162 55.124 126.314 55.012 126.522 54.9C126.73 54.788 126.946 54.732 127.17 54.732C127.394 54.732 127.554 54.788 127.65 54.9C127.762 55.012 127.818 55.164 127.818 55.356C127.818 55.564 127.754 55.924 127.626 56.436C127.514 56.932 127.37 57.484 127.194 58.092C127.514 57.58 127.874 57.06 128.274 56.532C128.69 55.988 129.122 55.492 129.57 55.044C130.018 54.596 130.466 54.236 130.914 53.964C131.378 53.676 131.826 53.532 132.258 53.532C132.754 53.532 133.09 53.716 133.266 54.084C133.458 54.436 133.554 54.86 133.554 55.356C133.554 55.756 133.506 56.18 133.41 56.628C133.33 57.06 133.234 57.468 133.122 57.852C133.01 58.22 132.906 58.516 132.81 58.74C133.146 58.132 133.514 57.548 133.914 56.988C134.33 56.412 134.778 55.948 135.258 55.596C135.738 55.228 136.25 55.044 136.794 55.044C137.306 55.044 137.658 55.196 137.85 55.5C138.058 55.804 138.162 56.164 138.162 56.58C138.162 56.996 138.09 57.452 137.946 57.948C137.802 58.444 137.65 58.924 137.49 59.388C137.346 59.852 137.274 60.252 137.274 60.588C137.274 60.796 137.322 60.988 137.418 61.164C137.53 61.324 137.722 61.404 137.994 61.404C138.442 61.404 138.858 61.204 139.242 60.804C139.642 60.388 140.01 59.892 140.346 59.316C140.682 58.724 140.97 58.156 141.21 57.612L141.498 57.948C141.242 58.62 140.914 59.292 140.514 59.964C140.114 60.62 139.642 61.164 139.098 61.596C138.57 62.028 137.986 62.244 137.346 62.244ZM141.918 62.628C141.422 62.628 141.006 62.46 140.67 62.124C140.318 61.804 140.142 61.308 140.142 60.636C140.142 60.06 140.27 59.444 140.526 58.788C140.782 58.116 141.134 57.46 141.582 56.82C142.03 56.164 142.534 55.572 143.094 55.044C143.67 54.5 144.27 54.068 144.894 53.748C145.534 53.428 146.166 53.268 146.79 53.268C147.414 53.268 147.934 53.436 148.35 53.772C148.766 54.092 148.974 54.524 148.974 55.068C148.974 55.468 148.862 55.74 148.638 55.884C148.43 56.028 148.15 56.1 147.798 56.1C147.83 55.972 147.854 55.836 147.87 55.692C147.902 55.532 147.918 55.388 147.918 55.26C147.918 54.892 147.83 54.58 147.654 54.324C147.478 54.052 147.174 53.916 146.742 53.916C146.294 53.916 145.838 54.076 145.374 54.396C144.91 54.7 144.462 55.116 144.03 55.644C143.598 56.156 143.214 56.716 142.878 57.324C142.542 57.932 142.278 58.532 142.086 59.124C141.894 59.716 141.798 60.244 141.798 60.708C141.798 61.332 142.014 61.644 142.446 61.644C142.814 61.644 143.214 61.476 143.646 61.14C144.078 60.788 144.518 60.348 144.966 59.82C145.43 59.276 145.87 58.716 146.286 58.14C146.702 57.564 147.07 57.036 147.39 56.556C147.454 56.46 147.494 56.412 147.51 56.412C147.606 56.428 147.726 56.46 147.87 56.508C148.03 56.556 148.166 56.62 148.278 56.7C148.39 56.78 148.446 56.884 148.446 57.012C148.446 57.156 148.374 57.356 148.23 57.612C148.086 57.852 147.926 58.132 147.75 58.452C147.574 58.772 147.414 59.1 147.27 59.436C147.126 59.756 147.054 60.06 147.054 60.348C147.054 60.588 147.118 60.828 147.246 61.068C147.374 61.292 147.582 61.404 147.87 61.404C148.302 61.404 148.87 61.092 149.574 60.468C150.278 59.828 150.99 58.876 151.71 57.612L151.95 57.852C151.614 58.716 151.182 59.476 150.654 60.132C150.126 60.788 149.558 61.3 148.95 61.668C148.358 62.036 147.774 62.22 147.198 62.22C146.606 62.22 146.166 62.044 145.878 61.692C145.606 61.34 145.47 60.956 145.47 60.54C145.47 60.444 145.478 60.34 145.494 60.228C145.51 60.1 145.526 59.972 145.542 59.844C144.854 60.772 144.222 61.468 143.646 61.932C143.086 62.396 142.51 62.628 141.918 62.628ZM150.102 51.852C149.67 51.852 149.222 51.764 148.758 51.588C148.294 51.396 147.822 51.212 147.342 51.036C146.878 50.844 146.398 50.748 145.902 50.748C145.694 50.748 145.478 50.78 145.254 50.844C145.03 50.892 144.814 50.98 144.606 51.108C144.926 50.66 145.262 50.348 145.614 50.172C145.966 49.996 146.326 49.908 146.694 49.908C147.142 49.908 147.606 50.004 148.086 50.196C148.566 50.388 149.07 50.58 149.598 50.772C150.126 50.964 150.678 51.06 151.254 51.06C151.51 51.06 151.782 50.996 152.07 50.868C151.766 51.236 151.446 51.492 151.11 51.636C150.79 51.78 150.454 51.852 150.102 51.852ZM152.875 62.268C152.187 62.268 151.699 62.052 151.411 61.62C151.123 61.204 150.979 60.692 150.979 60.084C150.979 59.588 151.059 59.076 151.219 58.548C151.379 58.02 151.587 57.524 151.843 57.06C152.115 56.596 152.411 56.22 152.731 55.932C153.067 55.644 153.403 55.5 153.739 55.5C153.819 55.5 153.899 55.516 153.979 55.548C154.075 55.564 154.163 55.588 154.243 55.62C154.099 55.748 153.923 55.988 153.715 56.34C153.523 56.676 153.339 57.068 153.163 57.516C152.987 57.948 152.835 58.38 152.707 58.812C152.595 59.244 152.539 59.612 152.539 59.916C152.539 60.396 152.619 60.748 152.779 60.972C152.939 61.18 153.147 61.284 153.403 61.284C153.739 61.284 154.139 61.108 154.603 60.756C155.067 60.388 155.523 59.924 155.971 59.364C155.523 58.996 155.171 58.516 154.915 57.924C154.675 57.316 154.555 56.7 154.555 56.076C154.555 55.548 154.643 55.052 154.819 54.588C155.011 54.124 155.283 53.756 155.635 53.484C155.987 53.196 156.411 53.052 156.907 53.052C157.563 53.052 158.003 53.228 158.227 53.58C158.451 53.932 158.563 54.372 158.563 54.9C158.563 55.524 158.411 56.22 158.107 56.988C157.803 57.74 157.419 58.468 156.955 59.172C157.243 59.332 157.547 59.412 157.867 59.412C158.123 59.412 158.411 59.364 158.731 59.268C159.051 59.156 159.363 58.972 159.667 58.716C159.987 58.46 160.243 58.116 160.435 57.684L160.723 57.924C160.403 58.676 159.947 59.212 159.355 59.532C158.779 59.836 158.227 59.988 157.699 59.988C157.491 59.988 157.291 59.972 157.099 59.94C156.907 59.892 156.723 59.828 156.547 59.748C156.003 60.468 155.403 61.068 154.747 61.548C154.107 62.028 153.483 62.268 152.875 62.268ZM156.403 58.74C156.803 58.148 157.131 57.532 157.387 56.892C157.659 56.236 157.795 55.62 157.795 55.044C157.795 54.58 157.723 54.244 157.579 54.036C157.451 53.812 157.283 53.7 157.075 53.7C156.755 53.7 156.427 53.932 156.091 54.396C155.755 54.86 155.587 55.444 155.587 56.148C155.587 56.612 155.651 57.084 155.779 57.564C155.923 58.028 156.131 58.42 156.403 58.74ZM162.504 62.724C161.752 62.724 161.152 62.556 160.704 62.22C160.272 61.9 159.968 61.5 159.792 61.02C159.6 60.54 159.504 60.06 159.504 59.58C159.504 59.1 159.568 58.732 159.696 58.476C159.824 58.22 159.976 58.028 160.152 57.9C160.344 57.772 160.52 57.676 160.68 57.612C160.856 57.548 160.976 57.484 161.04 57.42C161.52 56.892 161.96 56.34 162.36 55.764C162.76 55.188 163.112 54.58 163.416 53.94V53.652C163.416 53.06 163.512 52.644 163.704 52.404C163.912 52.148 164.128 52.02 164.352 52.02C164.48 52.02 164.576 52.052 164.64 52.116C164.704 52.18 164.736 52.252 164.736 52.332C164.736 52.412 164.712 52.54 164.664 52.716C164.616 52.892 164.592 53.116 164.592 53.388C164.592 53.916 164.696 54.492 164.904 55.116C165.112 55.724 165.32 56.372 165.528 57.06C165.736 57.732 165.84 58.436 165.84 59.172C165.84 59.38 165.824 59.588 165.792 59.796C165.776 59.988 165.744 60.172 165.696 60.348C166.256 60.252 166.784 60.004 167.28 59.604C167.776 59.188 168.256 58.532 168.72 57.636L168.936 57.876C168.632 58.756 168.176 59.428 167.568 59.892C166.96 60.34 166.296 60.62 165.576 60.732C165.32 61.42 164.912 61.924 164.352 62.244C163.808 62.564 163.192 62.724 162.504 62.724ZM162.552 61.884C162.744 61.884 163 61.82 163.32 61.692C163.64 61.564 163.888 61.236 164.064 60.708C163.392 60.58 162.792 60.316 162.264 59.916C161.752 59.516 161.368 59.116 161.112 58.716C160.76 58.732 160.584 59.012 160.584 59.556C160.584 60.132 160.752 60.668 161.088 61.164C161.44 61.644 161.928 61.884 162.552 61.884ZM164.184 60.324C164.216 60.164 164.24 59.996 164.256 59.82C164.272 59.644 164.28 59.436 164.28 59.196C164.28 58.444 164.184 57.7 163.992 56.964C163.816 56.212 163.664 55.508 163.536 54.852C163.168 55.46 162.776 56.044 162.36 56.604C161.96 57.148 161.576 57.604 161.208 57.972C161.448 58.484 161.816 58.964 162.312 59.412C162.824 59.86 163.448 60.164 164.184 60.324ZM175.908 62.22C175.636 62.22 175.356 62.148 175.068 62.004C174.796 61.876 174.572 61.66 174.396 61.356C174.204 61.052 174.108 60.668 174.108 60.204C174.108 59.676 174.236 59.084 174.492 58.428C174.748 57.772 175.092 57.124 175.524 56.484C175.956 55.828 176.452 55.228 177.012 54.684C177.572 54.124 178.156 53.684 178.764 53.364C179.372 53.028 179.972 52.86 180.564 52.86C180.9 52.86 181.156 52.924 181.332 53.052C181.524 53.164 181.62 53.348 181.62 53.604C181.62 53.668 181.612 53.724 181.596 53.772C181.596 53.82 181.588 53.876 181.572 53.94C181.492 53.812 181.372 53.724 181.212 53.676C181.068 53.612 180.884 53.58 180.66 53.58C180.148 53.58 179.644 53.74 179.148 54.06C178.668 54.364 178.22 54.772 177.804 55.284C177.404 55.78 177.052 56.316 176.748 56.892C176.444 57.468 176.204 58.028 176.028 58.572C175.868 59.1 175.788 59.548 175.788 59.916C175.788 60.268 175.868 60.548 176.028 60.756C176.188 60.964 176.396 61.068 176.652 61.068C177.084 61.068 177.604 60.796 178.212 60.252C178.836 59.708 179.468 58.94 180.108 57.948C180.748 56.956 181.324 55.796 181.836 54.468C182.188 53.54 182.548 52.596 182.916 51.636C183.3 50.676 183.684 49.756 184.068 48.876C184.452 47.98 184.82 47.188 185.172 46.5C185.54 45.796 185.884 45.244 186.204 44.844C186.54 44.428 186.836 44.22 187.092 44.22C187.22 44.22 187.332 44.276 187.428 44.388C187.524 44.484 187.572 44.612 187.572 44.772C187.572 45.028 187.436 45.468 187.164 46.092C186.908 46.7 186.564 47.436 186.132 48.3C185.716 49.148 185.276 50.076 184.812 51.084C184.348 52.092 183.9 53.116 183.468 54.156C183.052 55.196 182.708 56.204 182.436 57.18C182.18 58.14 182.052 59.02 182.052 59.82C182.052 60.268 182.076 60.604 182.124 60.828C182.172 61.052 182.332 61.164 182.604 61.164C182.94 61.164 183.332 61.02 183.78 60.732C184.228 60.444 184.676 60.036 185.124 59.508C185.572 58.98 185.964 58.348 186.3 57.612L186.588 57.828C186.284 58.644 185.868 59.38 185.34 60.036C184.812 60.676 184.244 61.18 183.636 61.548C183.044 61.932 182.476 62.124 181.932 62.124C181.34 62.124 180.924 61.924 180.684 61.524C180.46 61.14 180.348 60.74 180.348 60.324C180.348 60.052 180.388 59.692 180.468 59.244C180.548 58.796 180.66 58.3 180.804 57.756C180.292 58.604 179.748 59.372 179.172 60.06C178.596 60.732 178.028 61.26 177.468 61.644C176.924 62.028 176.404 62.22 175.908 62.22ZM188.428 62.556C187.452 62.556 186.716 62.284 186.22 61.74C185.74 61.212 185.5 60.556 185.5 59.772C185.5 59.052 185.676 58.292 186.028 57.492C186.396 56.692 186.876 55.94 187.468 55.236C188.076 54.532 188.74 53.964 189.46 53.532C190.18 53.084 190.892 52.86 191.596 52.86C191.964 52.86 192.3 52.956 192.604 53.148C192.924 53.34 193.084 53.732 193.084 54.324C193.084 54.932 192.9 55.508 192.532 56.052C192.18 56.58 191.708 57.052 191.116 57.468C190.54 57.884 189.9 58.228 189.196 58.5C188.508 58.756 187.82 58.916 187.132 58.98C187.1 59.14 187.076 59.292 187.06 59.436C187.044 59.58 187.036 59.716 187.036 59.844C187.036 60.084 187.06 60.324 187.108 60.564C187.172 60.804 187.276 61.028 187.42 61.236C187.564 61.428 187.756 61.58 187.996 61.692C188.252 61.804 188.564 61.86 188.932 61.86C189.62 61.86 190.3 61.668 190.972 61.284C191.644 60.884 192.268 60.364 192.844 59.724C193.42 59.084 193.908 58.38 194.308 57.612L194.596 57.828C194.164 58.788 193.612 59.62 192.94 60.324C192.284 61.028 191.564 61.572 190.78 61.956C190.012 62.356 189.228 62.556 188.428 62.556ZM187.252 58.524C187.684 58.38 188.172 58.172 188.716 57.9C189.26 57.612 189.78 57.276 190.276 56.892C190.788 56.508 191.204 56.084 191.524 55.62C191.86 55.156 192.028 54.668 192.028 54.156C192.028 53.98 191.996 53.844 191.932 53.748C191.868 53.652 191.732 53.604 191.524 53.604C191.14 53.604 190.732 53.756 190.3 54.06C189.868 54.348 189.452 54.732 189.052 55.212C188.652 55.692 188.292 56.22 187.972 56.796C187.652 57.372 187.412 57.948 187.252 58.524ZM203.975 63.588C203.479 63.588 203.007 63.516 202.559 63.372C202.111 63.244 201.727 62.956 201.407 62.508C201.567 61.74 201.759 60.916 201.983 60.036C202.223 59.14 202.479 58.228 202.751 57.3C203.023 56.356 203.295 55.436 203.567 54.54C203.855 53.628 204.127 52.78 204.383 51.996C204.639 51.212 204.871 50.524 205.079 49.932C205.287 49.34 205.447 48.892 205.559 48.588C205.607 48.46 205.687 48.276 205.799 48.036C205.911 47.78 206.047 47.524 206.207 47.268C206.367 47.012 206.551 46.796 206.759 46.62C206.967 46.428 207.191 46.332 207.431 46.332C207.655 46.332 207.879 46.412 208.103 46.572C207.607 47.724 207.103 48.996 206.591 50.388C206.095 51.78 205.615 53.22 205.151 54.708C204.687 56.18 204.263 57.62 203.879 59.028C203.495 60.436 203.175 61.716 202.919 62.868C203.143 62.9 203.327 62.924 203.471 62.94C203.631 62.956 203.791 62.964 203.951 62.964C204.975 62.964 205.959 62.724 206.903 62.244C207.863 61.78 208.751 61.14 209.567 60.324C210.399 59.492 211.127 58.548 211.751 57.492C212.375 56.42 212.855 55.292 213.191 54.108C213.543 52.908 213.719 51.716 213.719 50.532C213.719 49.236 213.511 48.172 213.095 47.34C212.679 46.492 212.103 45.868 211.367 45.468C210.631 45.068 209.775 44.868 208.799 44.868C207.759 44.868 206.823 45.076 205.991 45.492C205.159 45.908 204.503 46.468 204.023 47.172C203.543 47.876 203.303 48.668 203.303 49.548C203.303 49.74 203.311 49.908 203.327 50.052C203.359 50.196 203.391 50.324 203.423 50.436C202.895 50.436 202.519 50.308 202.295 50.052C202.087 49.78 201.983 49.46 201.983 49.092C201.983 48.532 202.175 47.972 202.559 47.412C202.959 46.836 203.503 46.308 204.191 45.828C204.895 45.348 205.703 44.964 206.615 44.676C207.527 44.372 208.495 44.22 209.519 44.22C210.959 44.22 212.111 44.516 212.975 45.108C213.855 45.684 214.495 46.468 214.895 47.46C215.295 48.452 215.495 49.564 215.495 50.796C215.495 52.188 215.279 53.524 214.847 54.804C214.415 56.068 213.815 57.236 213.047 58.308C212.295 59.364 211.431 60.292 210.455 61.092C209.479 61.876 208.431 62.484 207.311 62.916C206.207 63.364 205.095 63.588 203.975 63.588ZM218.17 62.556C217.194 62.556 216.458 62.284 215.962 61.74C215.482 61.212 215.242 60.556 215.242 59.772C215.242 59.052 215.418 58.292 215.77 57.492C216.138 56.692 216.618 55.94 217.21 55.236C217.818 54.532 218.482 53.964 219.202 53.532C219.922 53.084 220.634 52.86 221.338 52.86C221.706 52.86 222.042 52.956 222.346 53.148C222.666 53.34 222.826 53.732 222.826 54.324C222.826 54.932 222.642 55.508 222.274 56.052C221.922 56.58 221.45 57.052 220.858 57.468C220.282 57.884 219.642 58.228 218.938 58.5C218.25 58.756 217.562 58.916 216.874 58.98C216.842 59.14 216.818 59.292 216.802 59.436C216.786 59.58 216.778 59.716 216.778 59.844C216.778 60.084 216.802 60.324 216.85 60.564C216.914 60.804 217.018 61.028 217.162 61.236C217.306 61.428 217.498 61.58 217.738 61.692C217.994 61.804 218.306 61.86 218.674 61.86C219.362 61.86 220.042 61.668 220.714 61.284C221.386 60.884 222.01 60.364 222.586 59.724C223.162 59.084 223.65 58.38 224.05 57.612L224.338 57.828C223.906 58.788 223.354 59.62 222.682 60.324C222.026 61.028 221.306 61.572 220.522 61.956C219.754 62.356 218.97 62.556 218.17 62.556ZM216.994 58.524C217.426 58.38 217.914 58.172 218.458 57.9C219.002 57.612 219.522 57.276 220.018 56.892C220.53 56.508 220.946 56.084 221.266 55.62C221.602 55.156 221.77 54.668 221.77 54.156C221.77 53.98 221.738 53.844 221.674 53.748C221.61 53.652 221.474 53.604 221.266 53.604C220.882 53.604 220.474 53.756 220.042 54.06C219.61 54.348 219.194 54.732 218.794 55.212C218.394 55.692 218.034 56.22 217.714 56.796C217.394 57.372 217.154 57.948 216.994 58.524ZM225.37 62.22C224.826 62.22 224.386 61.98 224.05 61.5C223.73 61.004 223.57 60.436 223.57 59.796C223.57 59.332 223.642 58.796 223.786 58.188C223.946 57.58 224.138 56.98 224.362 56.388C224.586 55.796 224.818 55.308 225.058 54.924C225.298 54.54 225.506 54.348 225.682 54.348C225.762 54.348 225.898 54.396 226.09 54.492C226.282 54.572 226.442 54.684 226.57 54.828C226.394 55.1 226.178 55.516 225.922 56.076C225.666 56.636 225.442 57.236 225.25 57.876C225.058 58.516 224.962 59.108 224.962 59.652C224.962 59.78 224.978 59.98 225.01 60.252C225.042 60.508 225.122 60.74 225.25 60.948C225.378 61.156 225.57 61.26 225.826 61.26C226.13 61.26 226.442 61.108 226.762 60.804C227.082 60.484 227.402 60.076 227.722 59.58C228.058 59.084 228.378 58.548 228.682 57.972C228.986 57.396 229.266 56.844 229.522 56.316C229.794 55.788 230.018 55.348 230.194 54.996C230.29 55.012 230.426 55.044 230.602 55.092C230.794 55.14 230.962 55.204 231.106 55.284C231.266 55.364 231.346 55.476 231.346 55.62C231.346 55.684 231.266 55.9 231.106 56.268C230.946 56.62 230.754 57.06 230.53 57.588C230.322 58.1 230.138 58.62 229.978 59.148C229.818 59.676 229.738 60.14 229.738 60.54C229.738 60.828 229.794 61.06 229.906 61.236C230.034 61.412 230.242 61.5 230.53 61.5C230.866 61.5 231.274 61.348 231.754 61.044C232.234 60.74 232.722 60.3 233.218 59.724C233.714 59.132 234.154 58.428 234.538 57.612L234.85 57.828C234.514 58.692 234.074 59.46 233.53 60.132C232.986 60.788 232.41 61.3 231.802 61.668C231.194 62.036 230.602 62.22 230.026 62.22C229.61 62.22 229.274 62.14 229.018 61.98C228.778 61.82 228.602 61.604 228.49 61.332C228.394 61.06 228.346 60.764 228.346 60.444C228.346 60.252 228.362 60.06 228.394 59.868C228.426 59.66 228.466 59.452 228.514 59.244C228.226 59.772 227.914 60.268 227.578 60.732C227.242 61.18 226.89 61.54 226.522 61.812C226.154 62.084 225.77 62.22 225.37 62.22ZM236.614 62.724C235.862 62.724 235.262 62.556 234.814 62.22C234.382 61.9 234.078 61.5 233.902 61.02C233.71 60.54 233.614 60.06 233.614 59.58C233.614 59.1 233.678 58.732 233.806 58.476C233.934 58.22 234.086 58.028 234.262 57.9C234.454 57.772 234.63 57.676 234.79 57.612C234.966 57.548 235.086 57.484 235.15 57.42C235.63 56.892 236.07 56.34 236.47 55.764C236.87 55.188 237.222 54.58 237.526 53.94V53.652C237.526 53.06 237.622 52.644 237.814 52.404C238.022 52.148 238.238 52.02 238.462 52.02C238.59 52.02 238.686 52.052 238.75 52.116C238.814 52.18 238.846 52.252 238.846 52.332C238.846 52.412 238.822 52.54 238.774 52.716C238.726 52.892 238.702 53.116 238.702 53.388C238.702 53.916 238.806 54.492 239.014 55.116C239.222 55.724 239.43 56.372 239.638 57.06C239.846 57.732 239.95 58.436 239.95 59.172C239.95 59.38 239.934 59.588 239.902 59.796C239.886 59.988 239.854 60.172 239.806 60.348C240.366 60.252 240.894 60.004 241.39 59.604C241.886 59.188 242.366 58.532 242.83 57.636L243.046 57.876C242.742 58.756 242.286 59.428 241.678 59.892C241.07 60.34 240.406 60.62 239.686 60.732C239.43 61.42 239.022 61.924 238.462 62.244C237.918 62.564 237.302 62.724 236.614 62.724ZM236.662 61.884C236.854 61.884 237.11 61.82 237.43 61.692C237.75 61.564 237.998 61.236 238.174 60.708C237.502 60.58 236.902 60.316 236.374 59.916C235.862 59.516 235.478 59.116 235.222 58.716C234.87 58.732 234.694 59.012 234.694 59.556C234.694 60.132 234.862 60.668 235.198 61.164C235.55 61.644 236.038 61.884 236.662 61.884ZM238.294 60.324C238.326 60.164 238.35 59.996 238.366 59.82C238.382 59.644 238.39 59.436 238.39 59.196C238.39 58.444 238.294 57.7 238.102 56.964C237.926 56.212 237.774 55.508 237.646 54.852C237.278 55.46 236.886 56.044 236.47 56.604C236.07 57.148 235.686 57.604 235.318 57.972C235.558 58.484 235.926 58.964 236.422 59.412C236.934 59.86 237.558 60.164 238.294 60.324ZM244.599 54.516C244.871 53.844 245.175 53.068 245.511 52.188C245.847 51.292 246.207 50.38 246.591 49.452C246.975 48.524 247.359 47.668 247.743 46.884C248.143 46.084 248.527 45.444 248.895 44.964C249.263 44.468 249.599 44.22 249.903 44.22C250.031 44.22 250.143 44.276 250.239 44.388C250.335 44.484 250.383 44.612 250.383 44.772C250.383 44.996 250.263 45.412 250.023 46.02C249.799 46.612 249.487 47.34 249.087 48.204C248.703 49.052 248.263 49.964 247.767 50.94C247.287 51.916 246.783 52.908 246.255 53.916C245.727 54.908 245.207 55.852 244.695 56.748C244.199 57.628 243.743 58.396 243.327 59.052C243.311 59.036 243.295 59.028 243.279 59.028C243.279 59.012 243.271 58.996 243.255 58.98C243.415 58.26 243.575 57.604 243.735 57.012C243.911 56.42 244.079 55.916 244.239 55.5C244.399 55.068 244.519 54.74 244.599 54.516ZM242.631 61.74C242.423 61.74 242.247 61.684 242.103 61.572C241.943 61.476 241.863 61.316 241.863 61.092C241.863 60.82 242.023 60.588 242.343 60.396C242.647 60.204 242.951 60.108 243.255 60.108C243.447 60.108 243.599 60.148 243.711 60.228C243.823 60.308 243.879 60.46 243.879 60.684C243.879 60.924 243.751 61.164 243.495 61.404C243.239 61.628 242.951 61.74 242.631 61.74Z" fill="black"/>
</g>
<defs>
<filter id="filter0_d_105_3" x="0.5" y="0.5" width="297" height="82" filterUnits="userSpaceOnUse" color-interpolation-filters="sRGB">
<feFlood flood-opacity="0" result="BackgroundImageFix"/>
<feColorMatrix in="SourceAlpha" type="matrix" values="0 0 0 0 0 0 0 0 0 0 0 0 0 0 0 0 0 0 127 0" result="hardAlpha"/>
<feOffset dx="2" dy="2"/>
<feGaussianBlur stdDeviation="1"/>
<feComposite in2="hardAlpha" operator="out"/>
<feColorMatrix type="matrix" values="0 0 0 0 0.333333 0 0 0 0 0.333333 0 0 0 0 0.333333 0 0 0 0.5 0"/>
<feBlend mode="normal" in2="BackgroundImageFix" result="effect1_dropShadow_105_3"/>
<feBlend mode="normal" in="SourceGraphic" in2="effect1_dropShadow_105_3" result="shape"/>
</filter>
</defs>
</svg>
