<svg width="298" height="83" viewBox="0 0 298 83" fill="none" xmlns="http://www.w3.org/2000/svg">
<g filter="url(#filter0_d_105_3)">
<rect width="293" height="78" transform="translate(0.5 0.5)" fill="#E4EDF1"/>
<path d="M45.0958 34.588C44.6958 34.588 44.3198 34.476 43.9678 34.252C43.6158 34.028 43.4398 33.74 43.4398 33.388C43.4398 33.212 43.4798 32.996 43.5598 32.74C43.6398 32.5 43.7118 32.276 43.7758 32.068C44.2878 30.5 44.7678 29.036 45.2158 27.676C45.6638 26.316 46.1118 24.996 46.5598 23.716C47.0078 22.436 47.4798 21.156 47.9758 19.876C48.4878 18.596 49.0558 17.26 49.6798 15.868C49.0718 15.98 48.5278 16.148 48.0478 16.372C47.5838 16.58 47.2078 16.772 46.9198 16.948C46.6318 17.108 46.4398 17.188 46.3438 17.188C46.2798 17.188 46.1838 17.156 46.0558 17.092C45.9438 17.012 45.8398 16.924 45.7438 16.828C45.6478 16.716 45.5998 16.62 45.5998 16.54C46.0158 16.364 46.5038 16.172 47.0638 15.964C47.6398 15.756 48.2558 15.58 48.9118 15.436C49.5678 15.292 50.2318 15.22 50.9038 15.22C51.6078 15.22 52.3198 15.316 53.0398 15.508C53.7758 15.7 54.4478 15.996 55.0558 16.396C55.6638 16.78 56.1518 17.26 56.5198 17.836C56.8878 18.412 57.0718 19.084 57.0718 19.852C57.0718 20.684 56.8878 21.404 56.5198 22.012C56.1518 22.604 55.6638 23.108 55.0558 23.524C54.4478 23.924 53.7918 24.252 53.0878 24.508C52.3838 24.748 51.6798 24.94 50.9758 25.084C50.2878 25.212 49.6718 25.3 49.1278 25.348C48.5838 25.38 48.1838 25.396 47.9278 25.396H47.6878C47.2078 27.044 46.7438 28.668 46.2958 30.268C45.8638 31.868 45.4638 33.308 45.0958 34.588ZM47.7838 25.012C48.6638 24.964 49.5518 24.82 50.4478 24.58C51.3598 24.34 52.1918 23.996 52.9438 23.548C53.6958 23.084 54.3038 22.516 54.7678 21.844C55.2318 21.156 55.4638 20.356 55.4638 19.444C55.4638 18.58 55.2558 17.876 54.8398 17.332C54.4398 16.788 53.9038 16.388 53.2318 16.132C52.5758 15.86 51.8718 15.724 51.1198 15.724C50.5278 16.892 49.9518 18.292 49.3918 19.924C48.8318 21.556 48.2958 23.252 47.7838 25.012ZM54.9879 33.628C54.4919 33.628 54.0759 33.46 53.7399 33.124C53.3879 32.804 53.2119 32.308 53.2119 31.636C53.2119 31.06 53.3399 30.444 53.5959 29.788C53.8519 29.116 54.2039 28.46 54.6519 27.82C55.0999 27.164 55.6039 26.572 56.1639 26.044C56.7399 25.5 57.3399 25.068 57.9639 24.748C58.6039 24.428 59.2359 24.268 59.8599 24.268C60.4839 24.268 61.0039 24.436 61.4199 24.772C61.8359 25.092 62.0439 25.524 62.0439 26.068C62.0439 26.468 61.9319 26.74 61.7079 26.884C61.4999 27.028 61.2199 27.1 60.8679 27.1C60.8999 26.972 60.9239 26.836 60.9399 26.692C60.9719 26.532 60.9879 26.388 60.9879 26.26C60.9879 25.892 60.8999 25.58 60.7239 25.324C60.5479 25.052 60.2439 24.916 59.8119 24.916C59.3639 24.916 58.9079 25.076 58.4439 25.396C57.9799 25.7 57.5319 26.116 57.0999 26.644C56.6679 27.156 56.2839 27.716 55.9479 28.324C55.6119 28.932 55.3479 29.532 55.1559 30.124C54.9639 30.716 54.8679 31.244 54.8679 31.708C54.8679 32.332 55.0839 32.644 55.5159 32.644C55.8839 32.644 56.2839 32.476 56.7159 32.14C57.1479 31.788 57.5879 31.348 58.0359 30.82C58.4999 30.276 58.9399 29.716 59.3559 29.14C59.7719 28.564 60.1399 28.036 60.4599 27.556C60.5239 27.46 60.5639 27.412 60.5799 27.412C60.6759 27.428 60.7959 27.46 60.9399 27.508C61.0999 27.556 61.2359 27.62 61.3479 27.7C61.4599 27.78 61.5159 27.884 61.5159 28.012C61.5159 28.156 61.4439 28.356 61.2999 28.612C61.1559 28.852 60.9959 29.132 60.8199 29.452C60.6439 29.772 60.4839 30.1 60.3399 30.436C60.1959 30.756 60.1239 31.06 60.1239 31.348C60.1239 31.588 60.1879 31.828 60.3159 32.068C60.4439 32.292 60.6519 32.404 60.9399 32.404C61.3719 32.404 61.9399 32.092 62.6439 31.468C63.3479 30.828 64.0599 29.876 64.7799 28.612L65.0199 28.852C64.6839 29.716 64.2519 30.476 63.7239 31.132C63.1959 31.788 62.6279 32.3 62.0199 32.668C61.4279 33.036 60.8439 33.22 60.2679 33.22C59.6759 33.22 59.2359 33.044 58.9479 32.692C58.6759 32.34 58.5399 31.956 58.5399 31.54C58.5399 31.444 58.5479 31.34 58.5639 31.228C58.5799 31.1 58.5959 30.972 58.6119 30.844C57.9239 31.772 57.2919 32.468 56.7159 32.932C56.1559 33.396 55.5799 33.628 54.9879 33.628ZM68.4411 33.124C67.8971 33.124 67.4651 32.98 67.1451 32.692C66.8411 32.404 66.6891 32.028 66.6891 31.564C66.6891 31.084 66.8011 30.58 67.0251 30.052C67.2491 29.524 67.4651 29.004 67.6731 28.492C67.8971 27.964 68.0091 27.492 68.0091 27.076C68.0091 26.564 67.8571 26.188 67.5531 25.948C67.2651 25.692 66.9691 25.46 66.6651 25.252C66.2971 26.196 65.9131 27.092 65.5131 27.94C65.1131 28.788 64.7851 29.428 64.5291 29.86L64.3131 29.452C64.5371 29.036 64.8251 28.428 65.1771 27.628C65.5451 26.828 65.9051 25.916 66.2571 24.892C66.0971 24.732 66.0171 24.54 66.0171 24.316C66.0171 23.836 66.1531 23.444 66.4251 23.14C66.6971 22.836 66.8971 22.684 67.0251 22.684C67.2011 22.684 67.2971 22.764 67.3131 22.924C67.3451 23.068 67.3611 23.18 67.3611 23.26C67.3611 23.34 67.3131 23.5 67.2171 23.74C67.1371 23.964 67.0971 24.1 67.0971 24.148C67.0971 24.372 67.2171 24.58 67.4571 24.772C67.7131 24.948 68.0011 25.156 68.3211 25.396C68.6411 25.62 68.9211 25.9 69.1611 26.236C69.4171 26.556 69.5451 26.972 69.5451 27.484C69.5451 27.964 69.4411 28.452 69.2331 28.948C69.0411 29.444 68.8411 29.916 68.6331 30.364C68.4411 30.812 68.3451 31.204 68.3451 31.54C68.3451 31.828 68.4171 32.02 68.5611 32.116C68.7051 32.212 68.8731 32.26 69.0651 32.26C69.4491 32.26 69.8411 32.14 70.2411 31.9C70.6571 31.66 71.0571 31.356 71.4411 30.988C71.8251 30.62 72.1691 30.236 72.4731 29.836C72.7771 29.42 73.0011 29.036 73.1451 28.684L73.4571 28.924C73.1531 29.596 72.7371 30.26 72.2091 30.916C71.6811 31.556 71.0891 32.084 70.4331 32.5C69.7931 32.916 69.1291 33.124 68.4411 33.124ZM73.7848 33.628C73.2888 33.628 72.8728 33.46 72.5368 33.124C72.1848 32.804 72.0088 32.308 72.0088 31.636C72.0088 31.06 72.1368 30.444 72.3928 29.788C72.6488 29.116 73.0008 28.46 73.4488 27.82C73.8968 27.164 74.4008 26.572 74.9608 26.044C75.5368 25.5 76.1368 25.068 76.7608 24.748C77.4008 24.428 78.0328 24.268 78.6568 24.268C79.2808 24.268 79.8008 24.436 80.2168 24.772C80.6328 25.092 80.8408 25.524 80.8408 26.068C80.8408 26.468 80.7288 26.74 80.5048 26.884C80.2968 27.028 80.0168 27.1 79.6648 27.1C79.6968 26.972 79.7208 26.836 79.7368 26.692C79.7688 26.532 79.7848 26.388 79.7848 26.26C79.7848 25.892 79.6968 25.58 79.5208 25.324C79.3448 25.052 79.0408 24.916 78.6088 24.916C78.1608 24.916 77.7048 25.076 77.2408 25.396C76.7768 25.7 76.3288 26.116 75.8968 26.644C75.4648 27.156 75.0808 27.716 74.7448 28.324C74.4088 28.932 74.1448 29.532 73.9528 30.124C73.7608 30.716 73.6648 31.244 73.6648 31.708C73.6648 32.332 73.8808 32.644 74.3128 32.644C74.6808 32.644 75.0808 32.476 75.5128 32.14C75.9448 31.788 76.3848 31.348 76.8328 30.82C77.2968 30.276 77.7368 29.716 78.1528 29.14C78.5688 28.564 78.9368 28.036 79.2568 27.556C79.3208 27.46 79.3608 27.412 79.3768 27.412C79.4728 27.428 79.5928 27.46 79.7368 27.508C79.8968 27.556 80.0328 27.62 80.1448 27.7C80.2568 27.78 80.3128 27.884 80.3128 28.012C80.3128 28.156 80.2408 28.356 80.0968 28.612C79.9528 28.852 79.7928 29.132 79.6168 29.452C79.4408 29.772 79.2808 30.1 79.1368 30.436C78.9928 30.756 78.9208 31.06 78.9208 31.348C78.9208 31.588 78.9848 31.828 79.1128 32.068C79.2408 32.292 79.4488 32.404 79.7368 32.404C80.1688 32.404 80.7368 32.092 81.4408 31.468C82.1448 30.828 82.8568 29.876 83.5768 28.612L83.8168 28.852C83.4808 29.716 83.0488 30.476 82.5208 31.132C81.9928 31.788 81.4248 32.3 80.8168 32.668C80.2248 33.036 79.6408 33.22 79.0648 33.22C78.4728 33.22 78.0328 33.044 77.7448 32.692C77.4728 32.34 77.3368 31.956 77.3368 31.54C77.3368 31.444 77.3448 31.34 77.3608 31.228C77.3768 31.1 77.3928 30.972 77.4088 30.844C76.7208 31.772 76.0888 32.468 75.5128 32.932C74.9528 33.396 74.3768 33.628 73.7848 33.628ZM90.4483 33.412C90.1443 33.412 89.9043 33.156 89.7283 32.644C89.5523 32.132 89.4643 31.556 89.4643 30.916C89.4643 30.148 89.5923 29.236 89.8483 28.18C90.1043 27.124 90.4403 26.012 90.8563 24.844C91.2723 23.676 91.7363 22.532 92.2483 21.412C92.7763 20.292 93.3123 19.276 93.8563 18.364C94.4003 17.452 94.9123 16.724 95.3923 16.18C95.8723 15.636 96.2883 15.364 96.6403 15.364C96.9283 15.364 97.1283 15.54 97.2403 15.892C97.3683 16.228 97.4323 16.556 97.4323 16.876C97.4323 17.324 97.3283 17.868 97.1203 18.508C96.9283 19.148 96.6563 19.836 96.3043 20.572C95.9523 21.292 95.5443 22.004 95.0803 22.708C94.6163 23.412 94.1123 24.06 93.5683 24.652C93.0243 25.228 92.4723 25.684 91.9123 26.02C91.7203 26.484 91.5523 27.004 91.4083 27.58C91.2803 28.156 91.1843 28.724 91.1203 29.284C91.0563 29.828 91.0243 30.316 91.0243 30.748C91.0243 30.924 91.0243 31.076 91.0243 31.204C91.0403 31.332 91.0563 31.452 91.0723 31.564C91.2963 30.908 91.5363 30.276 91.7923 29.668C92.0643 29.044 92.3523 28.476 92.6563 27.964C92.9603 27.436 93.2803 26.98 93.6163 26.596C93.9683 26.196 94.3363 25.892 94.7203 25.684C95.1043 25.46 95.5123 25.348 95.9443 25.348C96.3923 25.348 96.7443 25.46 97.0003 25.684C97.2723 25.892 97.4643 26.164 97.5763 26.5C97.7043 26.82 97.7683 27.156 97.7683 27.508C97.7683 28.004 97.6803 28.484 97.5043 28.948C97.3443 29.412 97.1763 29.86 97.0003 30.292C96.8243 30.724 96.7363 31.14 96.7363 31.54C96.7363 31.86 96.8003 32.092 96.9283 32.236C97.0723 32.38 97.2483 32.452 97.4563 32.452C97.8243 32.452 98.2323 32.276 98.6803 31.924C99.1443 31.572 99.6003 31.108 100.048 30.532C100.496 29.94 100.88 29.3 101.2 28.612L101.512 28.9C101.176 29.684 100.768 30.396 100.288 31.036C99.8083 31.66 99.2803 32.156 98.7043 32.524C98.1283 32.892 97.5283 33.076 96.9043 33.076C96.3603 33.076 95.9443 32.932 95.6563 32.644C95.3843 32.356 95.2483 31.996 95.2483 31.564C95.2483 31.228 95.3123 30.852 95.4403 30.436C95.5683 30.02 95.6883 29.596 95.8003 29.164C95.9283 28.732 95.9923 28.324 95.9923 27.94C95.9923 27.524 95.9043 27.228 95.7283 27.052C95.5523 26.876 95.3363 26.788 95.0803 26.788C94.6803 26.788 94.3203 26.948 94.0003 27.268C93.6803 27.588 93.3843 28.004 93.1123 28.516C92.8563 29.012 92.6083 29.54 92.3683 30.1C92.1443 30.66 91.9283 31.196 91.7203 31.708C91.5123 32.204 91.3043 32.612 91.0963 32.932C90.8883 33.252 90.6723 33.412 90.4483 33.412ZM92.2243 25.084C92.6723 24.732 93.1043 24.284 93.5203 23.74C93.9523 23.196 94.3523 22.62 94.7203 22.012C95.0883 21.388 95.4163 20.78 95.7043 20.188C95.9923 19.596 96.2163 19.06 96.3763 18.58C96.5363 18.1 96.6163 17.74 96.6163 17.5C96.6163 17.42 96.6083 17.372 96.5923 17.356C96.5763 17.324 96.5523 17.308 96.5203 17.308C96.4083 17.308 96.1763 17.532 95.8243 17.98C95.4883 18.412 95.0963 18.996 94.6483 19.732C94.2003 20.468 93.7603 21.3 93.3283 22.228C92.8963 23.156 92.5283 24.108 92.2243 25.084ZM102.39 33.268C101.702 33.268 101.214 33.052 100.926 32.62C100.638 32.204 100.494 31.692 100.494 31.084C100.494 30.588 100.574 30.076 100.734 29.548C100.894 29.02 101.102 28.524 101.358 28.06C101.63 27.596 101.926 27.22 102.246 26.932C102.582 26.644 102.918 26.5 103.254 26.5C103.334 26.5 103.414 26.516 103.494 26.548C103.59 26.564 103.678 26.588 103.758 26.62C103.614 26.748 103.438 26.988 103.23 27.34C103.038 27.676 102.854 28.068 102.678 28.516C102.502 28.948 102.35 29.38 102.222 29.812C102.11 30.244 102.054 30.612 102.054 30.916C102.054 31.396 102.134 31.748 102.294 31.972C102.454 32.18 102.662 32.284 102.918 32.284C103.254 32.284 103.654 32.108 104.118 31.756C104.582 31.388 105.038 30.924 105.486 30.364C105.038 29.996 104.686 29.516 104.43 28.924C104.19 28.316 104.07 27.7 104.07 27.076C104.07 26.548 104.158 26.052 104.334 25.588C104.526 25.124 104.798 24.756 105.15 24.484C105.502 24.196 105.926 24.052 106.422 24.052C107.078 24.052 107.518 24.228 107.742 24.58C107.966 24.932 108.078 25.372 108.078 25.9C108.078 26.524 107.926 27.22 107.622 27.988C107.318 28.74 106.934 29.468 106.47 30.172C106.758 30.332 107.062 30.412 107.382 30.412C107.638 30.412 107.926 30.364 108.246 30.268C108.566 30.156 108.878 29.972 109.182 29.716C109.502 29.46 109.758 29.116 109.95 28.684L110.238 28.924C109.918 29.676 109.462 30.212 108.87 30.532C108.294 30.836 107.742 30.988 107.214 30.988C107.006 30.988 106.806 30.972 106.614 30.94C106.422 30.892 106.238 30.828 106.062 30.748C105.518 31.468 104.918 32.068 104.262 32.548C103.622 33.028 102.998 33.268 102.39 33.268ZM105.918 29.74C106.318 29.148 106.646 28.532 106.902 27.892C107.174 27.236 107.31 26.62 107.31 26.044C107.31 25.58 107.238 25.244 107.094 25.036C106.966 24.812 106.798 24.7 106.59 24.7C106.27 24.7 105.942 24.932 105.606 25.396C105.27 25.86 105.102 26.444 105.102 27.148C105.102 27.612 105.166 28.084 105.294 28.564C105.438 29.028 105.646 29.42 105.918 29.74ZM106.14 39.22C105.74 39.22 105.436 39.1 105.228 38.86C105.004 38.636 104.892 38.348 104.892 37.996C104.892 37.404 105.18 36.756 105.756 36.052C106.316 35.348 107.036 34.748 107.916 34.252C108.14 34.124 108.38 34.004 108.636 33.892C108.876 33.78 109.148 33.644 109.452 33.484C109.772 32.716 110.068 31.844 110.34 30.868C110.612 29.876 110.852 28.78 111.06 27.58C110.82 28.012 110.596 28.388 110.388 28.708C110.196 29.028 110.044 29.284 109.932 29.476L109.716 29.116C109.988 28.62 110.228 28.092 110.436 27.532C110.66 26.956 110.868 26.412 111.06 25.9C111.268 25.388 111.476 24.972 111.684 24.652C111.892 24.332 112.116 24.172 112.356 24.172C112.532 24.172 112.668 24.244 112.764 24.388C112.876 24.516 112.932 24.684 112.932 24.892C112.932 25.068 112.884 25.412 112.788 25.924C112.708 26.42 112.58 27.036 112.404 27.772C112.244 28.492 112.044 29.276 111.804 30.124C111.564 30.972 111.3 31.828 111.012 32.692C111.476 32.42 111.94 32.14 112.404 31.852C112.868 31.564 113.332 31.18 113.796 30.7C114.276 30.22 114.74 29.564 115.188 28.732L115.5 28.9C115.1 29.844 114.62 30.596 114.06 31.156C113.516 31.7 112.956 32.132 112.38 32.452C111.804 32.772 111.268 33.076 110.772 33.364C110.42 34.356 110.004 35.3 109.524 36.196C109.06 37.092 108.548 37.82 107.988 38.38C107.412 38.94 106.796 39.22 106.14 39.22ZM105.924 38.404C106.244 38.404 106.708 38.052 107.316 37.348C107.908 36.66 108.516 35.628 109.14 34.252C107.924 34.844 107.02 35.46 106.428 36.1C105.82 36.74 105.516 37.316 105.516 37.828C105.516 38.036 105.556 38.18 105.636 38.26C105.716 38.356 105.812 38.404 105.924 38.404ZM112.74 22.012C112.484 22.012 112.26 21.948 112.068 21.82C111.876 21.692 111.78 21.5 111.78 21.244C111.78 21.004 111.868 20.788 112.044 20.596C112.236 20.404 112.468 20.252 112.74 20.14C113.012 20.028 113.276 19.972 113.532 19.972C113.756 19.972 113.94 20.028 114.084 20.14C114.244 20.252 114.324 20.42 114.324 20.644C114.324 20.996 114.156 21.316 113.82 21.604C113.5 21.876 113.14 22.012 112.74 22.012ZM117.319 33.556C116.343 33.556 115.607 33.284 115.111 32.74C114.631 32.212 114.391 31.556 114.391 30.772C114.391 30.052 114.567 29.292 114.919 28.492C115.287 27.692 115.767 26.94 116.359 26.236C116.967 25.532 117.631 24.964 118.351 24.532C119.071 24.084 119.783 23.86 120.487 23.86C120.855 23.86 121.191 23.956 121.495 24.148C121.815 24.34 121.975 24.732 121.975 25.324C121.975 25.932 121.791 26.508 121.423 27.052C121.071 27.58 120.599 28.052 120.007 28.468C119.431 28.884 118.791 29.228 118.087 29.5C117.399 29.756 116.711 29.916 116.023 29.98C115.991 30.14 115.967 30.292 115.951 30.436C115.935 30.58 115.927 30.716 115.927 30.844C115.927 31.084 115.951 31.324 115.999 31.564C116.063 31.804 116.167 32.028 116.311 32.236C116.455 32.428 116.647 32.58 116.887 32.692C117.143 32.804 117.455 32.86 117.823 32.86C118.511 32.86 119.191 32.668 119.863 32.284C120.535 31.884 121.159 31.364 121.735 30.724C122.311 30.084 122.799 29.38 123.199 28.612L123.487 28.828C123.055 29.788 122.503 30.62 121.831 31.324C121.175 32.028 120.455 32.572 119.671 32.956C118.903 33.356 118.119 33.556 117.319 33.556ZM116.143 29.524C116.575 29.38 117.063 29.172 117.607 28.9C118.151 28.612 118.671 28.276 119.167 27.892C119.679 27.508 120.095 27.084 120.415 26.62C120.751 26.156 120.919 25.668 120.919 25.156C120.919 24.98 120.887 24.844 120.823 24.748C120.759 24.652 120.623 24.604 120.415 24.604C120.031 24.604 119.623 24.756 119.191 25.06C118.759 25.348 118.343 25.732 117.943 26.212C117.543 26.692 117.183 27.22 116.863 27.796C116.543 28.372 116.303 28.948 116.143 29.524ZM125.167 26.74C124.959 26.74 124.775 26.692 124.615 26.596C124.471 26.484 124.399 26.316 124.399 26.092C124.399 25.82 124.551 25.588 124.855 25.396C125.175 25.204 125.487 25.108 125.791 25.108C125.983 25.108 126.135 25.148 126.247 25.228C126.359 25.308 126.415 25.46 126.415 25.684C126.415 25.924 126.287 26.164 126.031 26.404C125.775 26.628 125.487 26.74 125.167 26.74ZM123.727 32.74C123.519 32.74 123.335 32.684 123.175 32.572C123.031 32.476 122.959 32.316 122.959 32.092C122.959 31.82 123.111 31.588 123.415 31.396C123.735 31.204 124.047 31.108 124.351 31.108C124.543 31.108 124.695 31.148 124.807 31.228C124.919 31.308 124.975 31.46 124.975 31.684C124.975 31.924 124.847 32.164 124.591 32.404C124.335 32.628 124.047 32.74 123.727 32.74ZM135.285 33.628C134.789 33.628 134.373 33.46 134.037 33.124C133.685 32.804 133.509 32.308 133.509 31.636C133.509 31.06 133.637 30.444 133.893 29.788C134.149 29.116 134.501 28.46 134.949 27.82C135.397 27.164 135.901 26.572 136.461 26.044C137.037 25.5 137.637 25.068 138.261 24.748C138.901 24.428 139.533 24.268 140.157 24.268C140.781 24.268 141.301 24.436 141.717 24.772C142.133 25.092 142.341 25.524 142.341 26.068C142.341 26.468 142.229 26.74 142.005 26.884C141.797 27.028 141.517 27.1 141.165 27.1C141.197 26.972 141.221 26.836 141.237 26.692C141.269 26.532 141.285 26.388 141.285 26.26C141.285 25.892 141.197 25.58 141.021 25.324C140.845 25.052 140.541 24.916 140.109 24.916C139.661 24.916 139.205 25.076 138.741 25.396C138.277 25.7 137.829 26.116 137.397 26.644C136.965 27.156 136.581 27.716 136.245 28.324C135.909 28.932 135.645 29.532 135.453 30.124C135.261 30.716 135.165 31.244 135.165 31.708C135.165 32.332 135.381 32.644 135.813 32.644C136.181 32.644 136.581 32.476 137.013 32.14C137.445 31.788 137.885 31.348 138.333 30.82C138.797 30.276 139.237 29.716 139.653 29.14C140.069 28.564 140.437 28.036 140.757 27.556C140.821 27.46 140.861 27.412 140.877 27.412C140.973 27.428 141.093 27.46 141.237 27.508C141.397 27.556 141.533 27.62 141.645 27.7C141.757 27.78 141.813 27.884 141.813 28.012C141.813 28.156 141.741 28.356 141.597 28.612C141.453 28.852 141.293 29.132 141.117 29.452C140.941 29.772 140.781 30.1 140.637 30.436C140.493 30.756 140.421 31.06 140.421 31.348C140.421 31.588 140.485 31.828 140.613 32.068C140.741 32.292 140.949 32.404 141.237 32.404C141.669 32.404 142.237 32.092 142.941 31.468C143.645 30.828 144.357 29.876 145.077 28.612L145.317 28.852C144.981 29.716 144.549 30.476 144.021 31.132C143.493 31.788 142.925 32.3 142.317 32.668C141.725 33.036 141.141 33.22 140.565 33.22C139.973 33.22 139.533 33.044 139.245 32.692C138.973 32.34 138.837 31.956 138.837 31.54C138.837 31.444 138.845 31.34 138.861 31.228C138.877 31.1 138.893 30.972 138.909 30.844C138.221 31.772 137.589 32.468 137.013 32.932C136.453 33.396 135.877 33.628 135.285 33.628ZM143.074 39.22C142.946 39.22 142.826 39.148 142.714 39.004C142.586 38.876 142.49 38.732 142.426 38.572C142.362 38.428 142.33 38.34 142.33 38.308C142.554 37.524 142.778 36.82 143.002 36.196C143.21 35.588 143.426 34.956 143.65 34.3C143.858 33.66 144.066 32.908 144.274 32.044C144.482 31.164 144.698 30.076 144.922 28.78C145.146 27.484 145.37 25.876 145.594 23.956C145.61 23.812 145.642 23.708 145.69 23.644C145.738 23.58 145.858 23.548 146.05 23.548C146.466 23.548 146.762 23.668 146.938 23.908C147.114 24.132 147.202 24.38 147.202 24.652C147.202 24.876 147.154 25.276 147.058 25.852C146.962 26.428 146.826 27.108 146.65 27.892C146.922 27.364 147.258 26.828 147.658 26.284C148.074 25.74 148.546 25.284 149.074 24.916C149.602 24.548 150.178 24.364 150.802 24.364C151.506 24.364 152.082 24.62 152.53 25.132C152.994 25.628 153.226 26.284 153.226 27.1C153.226 27.724 153.082 28.388 152.794 29.092C152.522 29.78 152.13 30.436 151.618 31.06C151.122 31.668 150.53 32.164 149.842 32.548C149.154 32.932 148.394 33.124 147.562 33.124C147.146 33.124 146.81 33.076 146.554 32.98C146.298 32.884 146.17 32.788 146.17 32.692C146.17 32.628 146.226 32.588 146.338 32.572C146.466 32.572 146.61 32.572 146.77 32.572C147.41 32.572 148.018 32.42 148.594 32.116C149.186 31.796 149.714 31.38 150.178 30.868C150.642 30.356 151.002 29.788 151.258 29.164C151.53 28.54 151.666 27.924 151.666 27.316C151.666 26.804 151.554 26.372 151.33 26.02C151.122 25.652 150.778 25.468 150.298 25.468C149.882 25.468 149.466 25.604 149.05 25.876C148.65 26.132 148.266 26.468 147.898 26.884C147.546 27.284 147.226 27.708 146.938 28.156C146.666 28.588 146.458 28.98 146.314 29.332C146.026 30.532 145.738 31.684 145.45 32.788C145.162 33.908 144.882 34.916 144.61 35.812C144.354 36.724 144.122 37.468 143.914 38.044C143.69 38.62 143.506 38.972 143.362 39.1C143.282 39.18 143.186 39.22 143.074 39.22ZM156.553 33.556C155.577 33.556 154.841 33.284 154.345 32.74C153.865 32.212 153.625 31.556 153.625 30.772C153.625 30.052 153.801 29.292 154.153 28.492C154.521 27.692 155.001 26.94 155.593 26.236C156.201 25.532 156.865 24.964 157.585 24.532C158.305 24.084 159.017 23.86 159.721 23.86C160.089 23.86 160.425 23.956 160.729 24.148C161.049 24.34 161.209 24.732 161.209 25.324C161.209 25.932 161.025 26.508 160.657 27.052C160.305 27.58 159.833 28.052 159.241 28.468C158.665 28.884 158.025 29.228 157.321 29.5C156.633 29.756 155.945 29.916 155.257 29.98C155.225 30.14 155.201 30.292 155.185 30.436C155.169 30.58 155.161 30.716 155.161 30.844C155.161 31.084 155.185 31.324 155.233 31.564C155.297 31.804 155.401 32.028 155.545 32.236C155.689 32.428 155.881 32.58 156.121 32.692C156.377 32.804 156.689 32.86 157.057 32.86C157.745 32.86 158.425 32.668 159.097 32.284C159.769 31.884 160.393 31.364 160.969 30.724C161.545 30.084 162.033 29.38 162.433 28.612L162.721 28.828C162.289 29.788 161.737 30.62 161.065 31.324C160.409 32.028 159.689 32.572 158.905 32.956C158.137 33.356 157.353 33.556 156.553 33.556ZM155.377 29.524C155.809 29.38 156.297 29.172 156.841 28.9C157.385 28.612 157.905 28.276 158.401 27.892C158.913 27.508 159.329 27.084 159.649 26.62C159.985 26.156 160.153 25.668 160.153 25.156C160.153 24.98 160.121 24.844 160.057 24.748C159.993 24.652 159.857 24.604 159.649 24.604C159.265 24.604 158.857 24.756 158.425 25.06C157.993 25.348 157.577 25.732 157.177 26.212C156.777 26.692 156.417 27.22 156.097 27.796C155.777 28.372 155.537 28.948 155.377 29.524ZM169.705 32.98C169.145 32.98 168.721 32.836 168.433 32.548C168.161 32.26 168.025 31.892 168.025 31.444C168.025 31.108 168.081 30.756 168.193 30.388C168.321 30.02 168.441 29.644 168.553 29.26C168.665 28.86 168.721 28.476 168.721 28.108C168.721 27.66 168.625 27.356 168.433 27.196C168.257 27.02 168.033 26.932 167.761 26.932C167.265 26.932 166.761 27.14 166.249 27.556C165.737 27.956 165.241 28.476 164.761 29.116C164.281 29.74 163.833 30.388 163.417 31.06C163.001 31.732 162.633 32.332 162.313 32.86C162.057 32.86 161.817 32.812 161.593 32.716C161.353 32.636 161.169 32.508 161.041 32.332C161.041 32.252 161.129 32.004 161.305 31.588C161.465 31.172 161.657 30.66 161.881 30.052C162.105 29.444 162.305 28.82 162.481 28.18C162.657 27.54 162.745 26.956 162.745 26.428C162.841 26.316 162.993 26.204 163.201 26.092C163.409 25.98 163.625 25.924 163.849 25.924C164.281 25.924 164.497 26.132 164.497 26.548C164.497 26.804 164.425 27.236 164.281 27.844C164.137 28.436 163.953 29.06 163.729 29.716C164.161 29.06 164.641 28.412 165.169 27.772C165.713 27.116 166.289 26.572 166.897 26.14C167.505 25.708 168.113 25.492 168.721 25.492C169.345 25.492 169.793 25.716 170.065 26.164C170.353 26.612 170.497 27.108 170.497 27.652C170.497 28.148 170.417 28.612 170.257 29.044C170.097 29.46 169.929 29.868 169.753 30.268C169.593 30.652 169.513 31.044 169.513 31.444C169.513 31.78 169.577 32.02 169.705 32.164C169.849 32.292 170.025 32.356 170.233 32.356C170.633 32.356 171.033 32.172 171.433 31.804C171.833 31.42 172.217 30.94 172.585 30.364C172.969 29.788 173.305 29.204 173.593 28.612L173.857 28.924C173.521 29.708 173.145 30.404 172.729 31.012C172.313 31.62 171.857 32.1 171.361 32.452C170.865 32.804 170.313 32.98 169.705 32.98ZM174.285 33.628C173.789 33.628 173.373 33.46 173.037 33.124C172.685 32.804 172.509 32.308 172.509 31.636C172.509 31.06 172.637 30.444 172.893 29.788C173.149 29.116 173.501 28.46 173.949 27.82C174.397 27.164 174.901 26.572 175.461 26.044C176.037 25.5 176.637 25.068 177.261 24.748C177.901 24.428 178.533 24.268 179.157 24.268C179.781 24.268 180.301 24.436 180.717 24.772C181.133 25.092 181.341 25.524 181.341 26.068C181.341 26.468 181.229 26.74 181.005 26.884C180.797 27.028 180.517 27.1 180.165 27.1C180.197 26.972 180.221 26.836 180.237 26.692C180.269 26.532 180.285 26.388 180.285 26.26C180.285 25.892 180.197 25.58 180.021 25.324C179.845 25.052 179.541 24.916 179.109 24.916C178.661 24.916 178.205 25.076 177.741 25.396C177.277 25.7 176.829 26.116 176.397 26.644C175.965 27.156 175.581 27.716 175.245 28.324C174.909 28.932 174.645 29.532 174.453 30.124C174.261 30.716 174.165 31.244 174.165 31.708C174.165 32.332 174.381 32.644 174.813 32.644C175.181 32.644 175.581 32.476 176.013 32.14C176.445 31.788 176.885 31.348 177.333 30.82C177.797 30.276 178.237 29.716 178.653 29.14C179.069 28.564 179.437 28.036 179.757 27.556C179.821 27.46 179.861 27.412 179.877 27.412C179.973 27.428 180.093 27.46 180.237 27.508C180.397 27.556 180.533 27.62 180.645 27.7C180.757 27.78 180.813 27.884 180.813 28.012C180.813 28.156 180.741 28.356 180.597 28.612C180.453 28.852 180.293 29.132 180.117 29.452C179.941 29.772 179.781 30.1 179.637 30.436C179.493 30.756 179.421 31.06 179.421 31.348C179.421 31.588 179.485 31.828 179.613 32.068C179.741 32.292 179.949 32.404 180.237 32.404C180.669 32.404 181.237 32.092 181.941 31.468C182.645 30.828 183.357 29.876 184.077 28.612L184.317 28.852C183.981 29.716 183.549 30.476 183.021 31.132C182.493 31.788 181.925 32.3 181.317 32.668C180.725 33.036 180.141 33.22 179.565 33.22C178.973 33.22 178.533 33.044 178.245 32.692C177.973 32.34 177.837 31.956 177.837 31.54C177.837 31.444 177.845 31.34 177.861 31.228C177.877 31.1 177.893 30.972 177.909 30.844C177.221 31.772 176.589 32.468 176.013 32.932C175.453 33.396 174.877 33.628 174.285 33.628ZM186.106 33.724C185.354 33.724 184.754 33.556 184.306 33.22C183.874 32.9 183.57 32.5 183.394 32.02C183.202 31.54 183.106 31.06 183.106 30.58C183.106 30.1 183.17 29.732 183.298 29.476C183.426 29.22 183.578 29.028 183.754 28.9C183.946 28.772 184.122 28.676 184.282 28.612C184.458 28.548 184.578 28.484 184.642 28.42C185.122 27.892 185.562 27.34 185.962 26.764C186.362 26.188 186.714 25.58 187.018 24.94V24.652C187.018 24.06 187.114 23.644 187.306 23.404C187.514 23.148 187.73 23.02 187.954 23.02C188.082 23.02 188.178 23.052 188.242 23.116C188.306 23.18 188.338 23.252 188.338 23.332C188.338 23.412 188.314 23.54 188.266 23.716C188.218 23.892 188.194 24.116 188.194 24.388C188.194 24.916 188.298 25.492 188.506 26.116C188.714 26.724 188.922 27.372 189.13 28.06C189.338 28.732 189.442 29.436 189.442 30.172C189.442 30.38 189.426 30.588 189.394 30.796C189.378 30.988 189.346 31.172 189.298 31.348C189.858 31.252 190.386 31.004 190.882 30.604C191.378 30.188 191.858 29.532 192.322 28.636L192.538 28.876C192.234 29.756 191.778 30.428 191.17 30.892C190.562 31.34 189.898 31.62 189.178 31.732C188.922 32.42 188.514 32.924 187.954 33.244C187.41 33.564 186.794 33.724 186.106 33.724ZM186.154 32.884C186.346 32.884 186.602 32.82 186.922 32.692C187.242 32.564 187.49 32.236 187.666 31.708C186.994 31.58 186.394 31.316 185.866 30.916C185.354 30.516 184.97 30.116 184.714 29.716C184.362 29.732 184.186 30.012 184.186 30.556C184.186 31.132 184.354 31.668 184.69 32.164C185.042 32.644 185.53 32.884 186.154 32.884ZM187.786 31.324C187.818 31.164 187.842 30.996 187.858 30.82C187.874 30.644 187.882 30.436 187.882 30.196C187.882 29.444 187.786 28.7 187.594 27.964C187.418 27.212 187.266 26.508 187.138 25.852C186.77 26.46 186.378 27.044 185.962 27.604C185.562 28.148 185.178 28.604 184.81 28.972C185.05 29.484 185.418 29.964 185.914 30.412C186.426 30.86 187.05 31.164 187.786 31.324ZM205.846 32.98C205.286 32.98 204.862 32.836 204.574 32.548C204.302 32.26 204.166 31.892 204.166 31.444C204.166 31.108 204.222 30.756 204.334 30.388C204.462 30.02 204.582 29.644 204.694 29.26C204.806 28.86 204.862 28.476 204.862 28.108C204.862 27.66 204.766 27.356 204.574 27.196C204.398 27.02 204.174 26.932 203.902 26.932C203.406 26.932 202.902 27.14 202.39 27.556C201.878 27.956 201.382 28.476 200.902 29.116C200.422 29.74 199.974 30.388 199.558 31.06C199.142 31.732 198.774 32.332 198.454 32.86C198.198 32.86 197.958 32.812 197.734 32.716C197.494 32.636 197.31 32.508 197.182 32.332C197.182 32.252 197.27 32.004 197.446 31.588C197.606 31.172 197.798 30.66 198.022 30.052C198.246 29.444 198.446 28.82 198.622 28.18C198.798 27.54 198.886 26.956 198.886 26.428C198.982 26.316 199.134 26.204 199.342 26.092C199.55 25.98 199.766 25.924 199.99 25.924C200.422 25.924 200.638 26.132 200.638 26.548C200.638 26.804 200.566 27.236 200.422 27.844C200.278 28.436 200.094 29.06 199.87 29.716C200.302 29.06 200.782 28.412 201.31 27.772C201.854 27.116 202.43 26.572 203.038 26.14C203.646 25.708 204.254 25.492 204.862 25.492C205.486 25.492 205.934 25.716 206.206 26.164C206.494 26.612 206.638 27.108 206.638 27.652C206.638 28.148 206.558 28.612 206.398 29.044C206.238 29.46 206.07 29.868 205.894 30.268C205.734 30.652 205.654 31.044 205.654 31.444C205.654 31.78 205.718 32.02 205.846 32.164C205.99 32.292 206.166 32.356 206.374 32.356C206.774 32.356 207.174 32.172 207.574 31.804C207.974 31.42 208.358 30.94 208.726 30.364C209.11 29.788 209.446 29.204 209.734 28.612L209.998 28.924C209.662 29.708 209.286 30.404 208.87 31.012C208.454 31.62 207.998 32.1 207.502 32.452C207.006 32.804 206.454 32.98 205.846 32.98ZM210.425 33.628C209.929 33.628 209.513 33.46 209.177 33.124C208.825 32.804 208.649 32.308 208.649 31.636C208.649 31.06 208.777 30.444 209.033 29.788C209.289 29.116 209.641 28.46 210.089 27.82C210.537 27.164 211.041 26.572 211.601 26.044C212.177 25.5 212.777 25.068 213.401 24.748C214.041 24.428 214.673 24.268 215.297 24.268C215.921 24.268 216.441 24.436 216.857 24.772C217.273 25.092 217.481 25.524 217.481 26.068C217.481 26.468 217.369 26.74 217.145 26.884C216.937 27.028 216.657 27.1 216.305 27.1C216.337 26.972 216.361 26.836 216.377 26.692C216.409 26.532 216.425 26.388 216.425 26.26C216.425 25.892 216.337 25.58 216.161 25.324C215.985 25.052 215.681 24.916 215.249 24.916C214.801 24.916 214.345 25.076 213.881 25.396C213.417 25.7 212.969 26.116 212.537 26.644C212.105 27.156 211.721 27.716 211.385 28.324C211.049 28.932 210.785 29.532 210.593 30.124C210.401 30.716 210.305 31.244 210.305 31.708C210.305 32.332 210.521 32.644 210.953 32.644C211.321 32.644 211.721 32.476 212.153 32.14C212.585 31.788 213.025 31.348 213.473 30.82C213.937 30.276 214.377 29.716 214.793 29.14C215.209 28.564 215.577 28.036 215.897 27.556C215.961 27.46 216.001 27.412 216.017 27.412C216.113 27.428 216.233 27.46 216.377 27.508C216.537 27.556 216.673 27.62 216.785 27.7C216.897 27.78 216.953 27.884 216.953 28.012C216.953 28.156 216.881 28.356 216.737 28.612C216.593 28.852 216.433 29.132 216.257 29.452C216.081 29.772 215.921 30.1 215.777 30.436C215.633 30.756 215.561 31.06 215.561 31.348C215.561 31.588 215.625 31.828 215.753 32.068C215.881 32.292 216.089 32.404 216.377 32.404C216.809 32.404 217.377 32.092 218.081 31.468C218.785 30.828 219.497 29.876 220.217 28.612L220.457 28.852C220.121 29.716 219.689 30.476 219.161 31.132C218.633 31.788 218.065 32.3 217.457 32.668C216.865 33.036 216.281 33.22 215.705 33.22C215.113 33.22 214.673 33.044 214.385 32.692C214.113 32.34 213.977 31.956 213.977 31.54C213.977 31.444 213.985 31.34 214.001 31.228C214.017 31.1 214.033 30.972 214.049 30.844C213.361 31.772 212.729 32.468 212.153 32.932C211.593 33.396 211.017 33.628 210.425 33.628ZM218.609 22.852C218.177 22.852 217.729 22.764 217.265 22.588C216.801 22.396 216.329 22.212 215.849 22.036C215.385 21.844 214.905 21.748 214.409 21.748C214.201 21.748 213.985 21.78 213.761 21.844C213.537 21.892 213.321 21.98 213.113 22.108C213.433 21.66 213.769 21.348 214.121 21.172C214.473 20.996 214.833 20.908 215.201 20.908C215.649 20.908 216.113 21.004 216.593 21.196C217.073 21.388 217.577 21.58 218.105 21.772C218.633 21.964 219.185 22.06 219.761 22.06C220.017 22.06 220.289 21.996 220.577 21.868C220.273 22.236 219.953 22.492 219.617 22.636C219.297 22.78 218.961 22.852 218.609 22.852ZM221.383 33.268C220.695 33.268 220.207 33.052 219.919 32.62C219.631 32.204 219.487 31.692 219.487 31.084C219.487 30.588 219.567 30.076 219.727 29.548C219.887 29.02 220.095 28.524 220.351 28.06C220.623 27.596 220.919 27.22 221.239 26.932C221.575 26.644 221.911 26.5 222.247 26.5C222.327 26.5 222.407 26.516 222.487 26.548C222.583 26.564 222.671 26.588 222.751 26.62C222.607 26.748 222.431 26.988 222.223 27.34C222.031 27.676 221.847 28.068 221.671 28.516C221.495 28.948 221.343 29.38 221.215 29.812C221.103 30.244 221.047 30.612 221.047 30.916C221.047 31.396 221.127 31.748 221.287 31.972C221.447 32.18 221.655 32.284 221.911 32.284C222.247 32.284 222.647 32.108 223.111 31.756C223.575 31.388 224.031 30.924 224.479 30.364C224.031 29.996 223.679 29.516 223.423 28.924C223.183 28.316 223.063 27.7 223.063 27.076C223.063 26.548 223.151 26.052 223.327 25.588C223.519 25.124 223.791 24.756 224.143 24.484C224.495 24.196 224.919 24.052 225.415 24.052C226.071 24.052 226.511 24.228 226.735 24.58C226.959 24.932 227.071 25.372 227.071 25.9C227.071 26.524 226.919 27.22 226.615 27.988C226.311 28.74 225.927 29.468 225.463 30.172C225.751 30.332 226.055 30.412 226.375 30.412C226.631 30.412 226.919 30.364 227.239 30.268C227.559 30.156 227.871 29.972 228.175 29.716C228.495 29.46 228.751 29.116 228.943 28.684L229.231 28.924C228.911 29.676 228.455 30.212 227.863 30.532C227.287 30.836 226.735 30.988 226.207 30.988C225.999 30.988 225.799 30.972 225.607 30.94C225.415 30.892 225.231 30.828 225.055 30.748C224.511 31.468 223.911 32.068 223.255 32.548C222.615 33.028 221.991 33.268 221.383 33.268ZM224.911 29.74C225.311 29.148 225.639 28.532 225.895 27.892C226.167 27.236 226.303 26.62 226.303 26.044C226.303 25.58 226.231 25.244 226.087 25.036C225.959 24.812 225.791 24.7 225.583 24.7C225.263 24.7 224.935 24.932 224.599 25.396C224.263 25.86 224.095 26.444 224.095 27.148C224.095 27.612 224.159 28.084 224.287 28.564C224.431 29.028 224.639 29.42 224.911 29.74ZM237.247 33.724C236.495 33.724 235.895 33.556 235.447 33.22C235.015 32.9 234.711 32.5 234.535 32.02C234.343 31.54 234.247 31.06 234.247 30.58C234.247 30.1 234.311 29.732 234.439 29.476C234.567 29.22 234.719 29.028 234.895 28.9C235.087 28.772 235.263 28.676 235.423 28.612C235.599 28.548 235.719 28.484 235.783 28.42C236.263 27.892 236.703 27.34 237.103 26.764C237.503 26.188 237.855 25.58 238.159 24.94V24.652C238.159 24.06 238.255 23.644 238.447 23.404C238.655 23.148 238.871 23.02 239.095 23.02C239.223 23.02 239.319 23.052 239.383 23.116C239.447 23.18 239.479 23.252 239.479 23.332C239.479 23.412 239.455 23.54 239.407 23.716C239.359 23.892 239.335 24.116 239.335 24.388C239.335 24.916 239.439 25.492 239.647 26.116C239.855 26.724 240.063 27.372 240.271 28.06C240.479 28.732 240.583 29.436 240.583 30.172C240.583 30.38 240.567 30.588 240.535 30.796C240.519 30.988 240.487 31.172 240.439 31.348C240.999 31.252 241.527 31.004 242.023 30.604C242.519 30.188 242.999 29.532 243.463 28.636L243.679 28.876C243.375 29.756 242.919 30.428 242.311 30.892C241.703 31.34 241.039 31.62 240.319 31.732C240.063 32.42 239.655 32.924 239.095 33.244C238.551 33.564 237.935 33.724 237.247 33.724ZM237.295 32.884C237.487 32.884 237.743 32.82 238.063 32.692C238.383 32.564 238.631 32.236 238.807 31.708C238.135 31.58 237.535 31.316 237.007 30.916C236.495 30.516 236.111 30.116 235.855 29.716C235.503 29.732 235.327 30.012 235.327 30.556C235.327 31.132 235.495 31.668 235.831 32.164C236.183 32.644 236.671 32.884 237.295 32.884ZM238.927 31.324C238.959 31.164 238.983 30.996 238.999 30.82C239.015 30.644 239.023 30.436 239.023 30.196C239.023 29.444 238.927 28.7 238.735 27.964C238.559 27.212 238.407 26.508 238.279 25.852C237.911 26.46 237.519 27.044 237.103 27.604C236.703 28.148 236.319 28.604 235.951 28.972C236.191 29.484 236.559 29.964 237.055 30.412C237.567 30.86 238.191 31.164 238.927 31.324ZM245.592 33.556C244.616 33.556 243.88 33.284 243.384 32.74C242.904 32.212 242.664 31.556 242.664 30.772C242.664 30.052 242.84 29.292 243.192 28.492C243.56 27.692 244.04 26.94 244.632 26.236C245.24 25.532 245.904 24.964 246.624 24.532C247.344 24.084 248.056 23.86 248.76 23.86C249.128 23.86 249.464 23.956 249.768 24.148C250.088 24.34 250.248 24.732 250.248 25.324C250.248 25.932 250.064 26.508 249.696 27.052C249.344 27.58 248.872 28.052 248.28 28.468C247.704 28.884 247.064 29.228 246.36 29.5C245.672 29.756 244.984 29.916 244.296 29.98C244.264 30.14 244.24 30.292 244.224 30.436C244.208 30.58 244.2 30.716 244.2 30.844C244.2 31.084 244.224 31.324 244.272 31.564C244.336 31.804 244.44 32.028 244.584 32.236C244.728 32.428 244.92 32.58 245.16 32.692C245.416 32.804 245.728 32.86 246.096 32.86C246.784 32.86 247.464 32.668 248.136 32.284C248.808 31.884 249.432 31.364 250.008 30.724C250.584 30.084 251.072 29.38 251.472 28.612L251.76 28.828C251.328 29.788 250.776 30.62 250.104 31.324C249.448 32.028 248.728 32.572 247.944 32.956C247.176 33.356 246.392 33.556 245.592 33.556ZM244.416 29.524C244.848 29.38 245.336 29.172 245.88 28.9C246.424 28.612 246.944 28.276 247.44 27.892C247.952 27.508 248.368 27.084 248.688 26.62C249.024 26.156 249.192 25.668 249.192 25.156C249.192 24.98 249.16 24.844 249.096 24.748C249.032 24.652 248.896 24.604 248.688 24.604C248.304 24.604 247.896 24.756 247.464 25.06C247.032 25.348 246.616 25.732 246.216 26.212C245.816 26.692 245.456 27.22 245.136 27.796C244.816 28.372 244.576 28.948 244.416 29.524ZM66.5647 62.556C65.5887 62.556 64.8527 62.284 64.3567 61.74C63.8767 61.212 63.6367 60.556 63.6367 59.772C63.6367 59.052 63.8127 58.292 64.1647 57.492C64.5327 56.692 65.0127 55.94 65.6047 55.236C66.2127 54.532 66.8767 53.964 67.5967 53.532C68.3167 53.084 69.0287 52.86 69.7327 52.86C70.1007 52.86 70.4367 52.956 70.7407 53.148C71.0607 53.34 71.2207 53.732 71.2207 54.324C71.2207 54.932 71.0367 55.508 70.6687 56.052C70.3167 56.58 69.8447 57.052 69.2527 57.468C68.6767 57.884 68.0367 58.228 67.3327 58.5C66.6447 58.756 65.9567 58.916 65.2687 58.98C65.2367 59.14 65.2127 59.292 65.1967 59.436C65.1807 59.58 65.1727 59.716 65.1727 59.844C65.1727 60.084 65.1967 60.324 65.2447 60.564C65.3087 60.804 65.4127 61.028 65.5567 61.236C65.7007 61.428 65.8927 61.58 66.1327 61.692C66.3887 61.804 66.7007 61.86 67.0687 61.86C67.7567 61.86 68.4367 61.668 69.1087 61.284C69.7807 60.884 70.4047 60.364 70.9807 59.724C71.5567 59.084 72.0447 58.38 72.4447 57.612L72.7327 57.828C72.3007 58.788 71.7487 59.62 71.0767 60.324C70.4207 61.028 69.7007 61.572 68.9167 61.956C68.1487 62.356 67.3647 62.556 66.5647 62.556ZM65.3887 58.524C65.8207 58.38 66.3087 58.172 66.8527 57.9C67.3967 57.612 67.9167 57.276 68.4127 56.892C68.9247 56.508 69.3407 56.084 69.6607 55.62C69.9967 55.156 70.1647 54.668 70.1647 54.156C70.1647 53.98 70.1327 53.844 70.0687 53.748C70.0047 53.652 69.8687 53.604 69.6607 53.604C69.2767 53.604 68.8687 53.756 68.4367 54.06C68.0047 54.348 67.5887 54.732 67.1887 55.212C66.7887 55.692 66.4287 56.22 66.1087 56.796C65.7887 57.372 65.5487 57.948 65.3887 58.524ZM74.4848 62.724C73.7328 62.724 73.1328 62.556 72.6848 62.22C72.2528 61.9 71.9488 61.5 71.7728 61.02C71.5808 60.54 71.4848 60.06 71.4848 59.58C71.4848 59.1 71.5488 58.732 71.6768 58.476C71.8048 58.22 71.9568 58.028 72.1328 57.9C72.3248 57.772 72.5008 57.676 72.6608 57.612C72.8368 57.548 72.9568 57.484 73.0208 57.42C73.5008 56.892 73.9408 56.34 74.3408 55.764C74.7408 55.188 75.0928 54.58 75.3968 53.94V53.652C75.3968 53.06 75.4928 52.644 75.6848 52.404C75.8928 52.148 76.1088 52.02 76.3328 52.02C76.4608 52.02 76.5568 52.052 76.6208 52.116C76.6848 52.18 76.7168 52.252 76.7168 52.332C76.7168 52.412 76.6928 52.54 76.6448 52.716C76.5968 52.892 76.5728 53.116 76.5728 53.388C76.5728 53.916 76.6768 54.492 76.8848 55.116C77.0928 55.724 77.3008 56.372 77.5088 57.06C77.7168 57.732 77.8208 58.436 77.8208 59.172C77.8208 59.38 77.8048 59.588 77.7728 59.796C77.7568 59.988 77.7248 60.172 77.6768 60.348C78.2368 60.252 78.7648 60.004 79.2608 59.604C79.7568 59.188 80.2368 58.532 80.7008 57.636L80.9168 57.876C80.6128 58.756 80.1568 59.428 79.5488 59.892C78.9408 60.34 78.2768 60.62 77.5568 60.732C77.3008 61.42 76.8928 61.924 76.3328 62.244C75.7888 62.564 75.1728 62.724 74.4848 62.724ZM74.5328 61.884C74.7248 61.884 74.9808 61.82 75.3008 61.692C75.6208 61.564 75.8688 61.236 76.0448 60.708C75.3728 60.58 74.7728 60.316 74.2448 59.916C73.7328 59.516 73.3488 59.116 73.0928 58.716C72.7408 58.732 72.5648 59.012 72.5648 59.556C72.5648 60.132 72.7328 60.668 73.0688 61.164C73.4208 61.644 73.9088 61.884 74.5328 61.884ZM76.1648 60.324C76.1968 60.164 76.2208 59.996 76.2368 59.82C76.2528 59.644 76.2608 59.436 76.2608 59.196C76.2608 58.444 76.1648 57.7 75.9728 56.964C75.7968 56.212 75.6448 55.508 75.5168 54.852C75.1488 55.46 74.7568 56.044 74.3408 56.604C73.9408 57.148 73.5568 57.604 73.1888 57.972C73.4288 58.484 73.7968 58.964 74.2928 59.412C74.8048 59.86 75.4288 60.164 76.1648 60.324ZM84.8943 68.22C84.6703 68.22 84.4703 68.1 84.2943 67.86C84.1343 67.62 84.0543 67.156 84.0543 66.468C84.0543 65.908 84.1103 65.212 84.2223 64.38C84.3503 63.548 84.5183 62.668 84.7263 61.74C84.9343 60.828 85.1823 59.964 85.4703 59.148C84.8303 60.06 84.1823 60.804 83.5263 61.38C82.8863 61.94 82.2703 62.22 81.6783 62.22C81.4063 62.22 81.1263 62.148 80.8383 62.004C80.5663 61.876 80.3423 61.66 80.1663 61.356C79.9743 61.052 79.8783 60.652 79.8783 60.156C79.8783 59.596 80.0063 58.996 80.2623 58.356C80.5183 57.7 80.8703 57.052 81.3183 56.412C81.7663 55.772 82.2783 55.196 82.8543 54.684C83.4303 54.156 84.0383 53.732 84.6783 53.412C85.3183 53.092 85.9583 52.932 86.5983 52.932C87.1423 52.932 87.5903 53.044 87.9423 53.268C88.3103 53.492 88.4943 53.772 88.4943 54.108C88.4943 54.252 88.4543 54.404 88.3743 54.564C88.3103 54.708 88.2063 54.82 88.0623 54.9C87.9823 54.964 87.8623 54.996 87.7023 54.996C87.7023 54.644 87.5983 54.34 87.3903 54.084C87.1823 53.812 86.8303 53.676 86.3343 53.676C85.8063 53.676 85.3023 53.836 84.8223 54.156C84.3423 54.46 83.9023 54.86 83.5023 55.356C83.1183 55.836 82.7743 56.364 82.4703 56.94C82.1823 57.5 81.9583 58.044 81.7983 58.572C81.6383 59.1 81.5583 59.548 81.5583 59.916C81.5583 60.268 81.6303 60.548 81.7743 60.756C81.9343 60.964 82.1423 61.068 82.3983 61.068C82.7183 61.068 83.0623 60.916 83.4303 60.612C83.7983 60.308 84.1743 59.908 84.5583 59.412C84.9583 58.916 85.3503 58.372 85.7343 57.78C86.1343 57.172 86.5183 56.572 86.8863 55.98C86.9983 55.804 87.1023 55.668 87.1983 55.572C87.3103 55.476 87.4223 55.396 87.5343 55.332C87.7103 55.252 87.8623 55.22 87.9903 55.236C88.1343 55.252 88.2383 55.292 88.3023 55.356C88.3823 55.436 88.4223 55.54 88.4223 55.668C88.4223 55.924 88.2863 56.268 88.0143 56.7C87.7583 57.132 87.4623 57.684 87.1263 58.356C86.8063 59.012 86.5343 59.828 86.3103 60.804C86.9983 60.74 87.6863 60.492 88.3743 60.06C89.0623 59.612 89.7103 58.804 90.3183 57.636L90.6063 57.9C90.0783 59.116 89.4063 59.98 88.5903 60.492C87.7903 61.004 87.0143 61.3 86.2623 61.38C86.3903 61.796 86.4863 62.228 86.5503 62.676C86.6303 63.124 86.6703 63.596 86.6703 64.092C86.6703 64.844 86.5903 65.532 86.4303 66.156C86.2863 66.78 86.0783 67.276 85.8063 67.644C85.5343 68.028 85.2303 68.22 84.8943 68.22ZM85.5423 66.9C85.6703 66.9 85.7743 66.748 85.8543 66.444C85.9503 66.14 86.0223 65.748 86.0703 65.268C86.1183 64.804 86.1423 64.34 86.1423 63.876C86.1423 63.556 86.1263 63.244 86.0943 62.94C86.0783 62.652 86.0383 62.364 85.9743 62.076C85.7663 62.924 85.6063 63.716 85.4943 64.452C85.3983 65.204 85.3503 65.796 85.3503 66.228C85.3503 66.436 85.3663 66.596 85.3983 66.708C85.4303 66.836 85.4783 66.9 85.5423 66.9ZM91.6711 62.22C91.1271 62.22 90.6871 61.98 90.3511 61.5C90.0311 61.004 89.8711 60.436 89.8711 59.796C89.8711 59.332 89.9431 58.796 90.0871 58.188C90.2471 57.58 90.4391 56.98 90.6631 56.388C90.8871 55.796 91.1191 55.308 91.3591 54.924C91.5991 54.54 91.8071 54.348 91.9831 54.348C92.0631 54.348 92.1991 54.396 92.3911 54.492C92.5831 54.572 92.7431 54.684 92.8711 54.828C92.6951 55.1 92.4791 55.516 92.2231 56.076C91.9671 56.636 91.7431 57.236 91.5511 57.876C91.3591 58.516 91.2631 59.108 91.2631 59.652C91.2631 59.78 91.2791 59.98 91.3111 60.252C91.3431 60.508 91.4231 60.74 91.5511 60.948C91.6791 61.156 91.8711 61.26 92.1271 61.26C92.4311 61.26 92.7431 61.108 93.0631 60.804C93.3831 60.484 93.7031 60.076 94.0231 59.58C94.3591 59.084 94.6791 58.548 94.9831 57.972C95.2871 57.396 95.5671 56.844 95.8231 56.316C96.0951 55.788 96.3191 55.348 96.4951 54.996C96.5911 55.012 96.7271 55.044 96.9031 55.092C97.0951 55.14 97.2631 55.204 97.4071 55.284C97.5671 55.364 97.6471 55.476 97.6471 55.62C97.6471 55.684 97.5671 55.9 97.4071 56.268C97.2471 56.62 97.0551 57.06 96.8311 57.588C96.6231 58.1 96.4391 58.62 96.2791 59.148C96.1191 59.676 96.0391 60.14 96.0391 60.54C96.0391 60.828 96.0951 61.06 96.2071 61.236C96.3351 61.412 96.5431 61.5 96.8311 61.5C97.1671 61.5 97.5751 61.348 98.0551 61.044C98.5351 60.74 99.0231 60.3 99.5191 59.724C100.015 59.132 100.455 58.428 100.839 57.612L101.151 57.828C100.815 58.692 100.375 59.46 99.8311 60.132C99.2871 60.788 98.7111 61.3 98.1031 61.668C97.4951 62.036 96.9031 62.22 96.3271 62.22C95.9111 62.22 95.5751 62.14 95.3191 61.98C95.0791 61.82 94.9031 61.604 94.7911 61.332C94.6951 61.06 94.6471 60.764 94.6471 60.444C94.6471 60.252 94.6631 60.06 94.6951 59.868C94.7271 59.66 94.7671 59.452 94.8151 59.244C94.5271 59.772 94.2151 60.268 93.8791 60.732C93.5431 61.18 93.1911 61.54 92.8231 61.812C92.4551 62.084 92.0711 62.22 91.6711 62.22ZM102.987 62.556C102.011 62.556 101.275 62.284 100.779 61.74C100.299 61.212 100.059 60.556 100.059 59.772C100.059 59.052 100.235 58.292 100.587 57.492C100.955 56.692 101.435 55.94 102.027 55.236C102.635 54.532 103.299 53.964 104.019 53.532C104.739 53.084 105.451 52.86 106.155 52.86C106.523 52.86 106.859 52.956 107.163 53.148C107.483 53.34 107.643 53.732 107.643 54.324C107.643 54.932 107.459 55.508 107.091 56.052C106.739 56.58 106.267 57.052 105.675 57.468C105.099 57.884 104.459 58.228 103.755 58.5C103.067 58.756 102.379 58.916 101.691 58.98C101.659 59.14 101.635 59.292 101.619 59.436C101.603 59.58 101.595 59.716 101.595 59.844C101.595 60.084 101.619 60.324 101.667 60.564C101.731 60.804 101.835 61.028 101.979 61.236C102.123 61.428 102.315 61.58 102.555 61.692C102.811 61.804 103.123 61.86 103.491 61.86C104.179 61.86 104.859 61.668 105.531 61.284C106.203 60.884 106.827 60.364 107.403 59.724C107.979 59.084 108.467 58.38 108.867 57.612L109.155 57.828C108.723 58.788 108.171 59.62 107.499 60.324C106.843 61.028 106.123 61.572 105.339 61.956C104.571 62.356 103.787 62.556 102.987 62.556ZM101.811 58.524C102.243 58.38 102.731 58.172 103.275 57.9C103.819 57.612 104.339 57.276 104.835 56.892C105.347 56.508 105.763 56.084 106.083 55.62C106.419 55.156 106.587 54.668 106.587 54.156C106.587 53.98 106.555 53.844 106.491 53.748C106.427 53.652 106.291 53.604 106.083 53.604C105.699 53.604 105.291 53.756 104.859 54.06C104.427 54.348 104.011 54.732 103.611 55.212C103.211 55.692 102.851 56.22 102.531 56.796C102.211 57.372 101.971 57.948 101.811 58.524ZM110.955 62.844C110.187 62.844 109.547 62.588 109.035 62.076C108.523 61.564 108.267 60.796 108.267 59.772C108.267 58.972 108.419 58.196 108.723 57.444C109.043 56.676 109.459 55.988 109.971 55.38C110.483 54.772 111.051 54.292 111.675 53.94C112.299 53.572 112.915 53.388 113.523 53.388C114.179 53.388 114.627 53.58 114.867 53.964C115.107 54.348 115.227 54.748 115.227 55.164C115.227 55.628 115.115 56.036 114.891 56.388C114.683 56.74 114.395 56.916 114.027 56.916C113.755 56.916 113.523 56.796 113.331 56.556C113.571 56.428 113.779 56.172 113.955 55.788C114.131 55.388 114.219 55.012 114.219 54.66C114.219 54.468 114.179 54.324 114.099 54.228C114.035 54.116 113.899 54.06 113.691 54.06C113.259 54.06 112.811 54.252 112.347 54.636C111.899 55.02 111.475 55.516 111.075 56.124C110.691 56.732 110.371 57.372 110.115 58.044C109.875 58.716 109.755 59.348 109.755 59.94C109.755 60.436 109.875 60.892 110.115 61.308C110.355 61.724 110.819 61.932 111.507 61.932C112.147 61.932 112.787 61.756 113.427 61.404C114.083 61.052 114.691 60.548 115.251 59.892C115.811 59.236 116.259 58.468 116.595 57.588L116.907 57.828C116.539 58.788 116.035 59.652 115.395 60.42C114.755 61.172 114.051 61.764 113.283 62.196C112.515 62.628 111.739 62.844 110.955 62.844ZM112.899 66.564C112.435 66.564 112.075 66.476 111.819 66.3C111.563 66.124 111.435 65.924 111.435 65.7C111.435 65.572 111.475 65.436 111.555 65.292C111.651 65.164 111.787 65.036 111.963 64.908C112.043 65.292 112.179 65.564 112.371 65.724C112.563 65.9 112.763 65.988 112.971 65.988C113.275 65.988 113.579 65.868 113.883 65.628C114.187 65.404 114.443 65.124 114.651 64.788C114.859 64.468 114.963 64.172 114.963 63.9C114.963 63.772 114.931 63.636 114.867 63.492C114.819 63.364 114.715 63.3 114.555 63.3C114.347 63.3 114.099 63.38 113.811 63.54C113.523 63.7 113.259 63.86 113.019 64.02C112.779 64.196 112.611 64.284 112.515 64.284C112.403 64.284 112.315 64.228 112.251 64.116C112.203 64.02 112.179 63.932 112.179 63.852C112.179 63.82 112.243 63.708 112.371 63.516C112.515 63.324 112.683 63.092 112.875 62.82C113.067 62.564 113.259 62.308 113.451 62.052C113.659 61.812 113.835 61.628 113.979 61.5H114.291L113.019 63.444C113.195 63.316 113.411 63.188 113.667 63.06C113.923 62.932 114.243 62.868 114.627 62.868C114.995 62.868 115.267 62.948 115.443 63.108C115.619 63.284 115.707 63.54 115.707 63.876C115.707 64.324 115.571 64.756 115.299 65.172C115.043 65.588 114.699 65.924 114.267 66.18C113.851 66.436 113.395 66.564 112.899 66.564ZM117.297 62.628C116.801 62.628 116.385 62.46 116.049 62.124C115.697 61.804 115.521 61.308 115.521 60.636C115.521 60.06 115.649 59.444 115.905 58.788C116.161 58.116 116.513 57.46 116.961 56.82C117.409 56.164 117.913 55.572 118.473 55.044C119.049 54.5 119.649 54.068 120.273 53.748C120.913 53.428 121.545 53.268 122.169 53.268C122.793 53.268 123.313 53.436 123.729 53.772C124.145 54.092 124.353 54.524 124.353 55.068C124.353 55.468 124.241 55.74 124.017 55.884C123.809 56.028 123.529 56.1 123.177 56.1C123.209 55.972 123.233 55.836 123.249 55.692C123.281 55.532 123.297 55.388 123.297 55.26C123.297 54.892 123.209 54.58 123.033 54.324C122.857 54.052 122.553 53.916 122.121 53.916C121.673 53.916 121.217 54.076 120.753 54.396C120.289 54.7 119.841 55.116 119.409 55.644C118.977 56.156 118.593 56.716 118.257 57.324C117.921 57.932 117.657 58.532 117.465 59.124C117.273 59.716 117.177 60.244 117.177 60.708C117.177 61.332 117.393 61.644 117.825 61.644C118.193 61.644 118.593 61.476 119.025 61.14C119.457 60.788 119.897 60.348 120.345 59.82C120.809 59.276 121.249 58.716 121.665 58.14C122.081 57.564 122.449 57.036 122.769 56.556C122.833 56.46 122.873 56.412 122.889 56.412C122.985 56.428 123.105 56.46 123.249 56.508C123.409 56.556 123.545 56.62 123.657 56.7C123.769 56.78 123.825 56.884 123.825 57.012C123.825 57.156 123.753 57.356 123.609 57.612C123.465 57.852 123.305 58.132 123.129 58.452C122.953 58.772 122.793 59.1 122.649 59.436C122.505 59.756 122.433 60.06 122.433 60.348C122.433 60.588 122.497 60.828 122.625 61.068C122.753 61.292 122.961 61.404 123.249 61.404C123.681 61.404 124.249 61.092 124.953 60.468C125.657 59.828 126.369 58.876 127.089 57.612L127.329 57.852C126.993 58.716 126.561 59.476 126.033 60.132C125.505 60.788 124.937 61.3 124.329 61.668C123.737 62.036 123.153 62.22 122.577 62.22C121.985 62.22 121.545 62.044 121.257 61.692C120.985 61.34 120.849 60.956 120.849 60.54C120.849 60.444 120.857 60.34 120.873 60.228C120.889 60.1 120.905 59.972 120.921 59.844C120.233 60.772 119.601 61.468 119.025 61.932C118.465 62.396 117.889 62.628 117.297 62.628ZM134.248 62.22C133.976 62.22 133.696 62.148 133.408 62.004C133.136 61.876 132.912 61.66 132.736 61.356C132.544 61.052 132.448 60.668 132.448 60.204C132.448 59.676 132.576 59.084 132.832 58.428C133.088 57.772 133.432 57.124 133.864 56.484C134.296 55.828 134.792 55.228 135.352 54.684C135.912 54.124 136.496 53.684 137.104 53.364C137.712 53.028 138.312 52.86 138.904 52.86C139.24 52.86 139.496 52.924 139.672 53.052C139.864 53.164 139.96 53.348 139.96 53.604C139.96 53.668 139.952 53.724 139.936 53.772C139.936 53.82 139.928 53.876 139.912 53.94C139.832 53.812 139.712 53.724 139.552 53.676C139.408 53.612 139.224 53.58 139 53.58C138.488 53.58 137.984 53.74 137.488 54.06C137.008 54.364 136.56 54.772 136.144 55.284C135.744 55.78 135.392 56.316 135.088 56.892C134.784 57.468 134.544 58.028 134.368 58.572C134.208 59.1 134.128 59.548 134.128 59.916C134.128 60.268 134.208 60.548 134.368 60.756C134.528 60.964 134.736 61.068 134.992 61.068C135.424 61.068 135.944 60.796 136.552 60.252C137.176 59.708 137.808 58.94 138.448 57.948C139.088 56.956 139.664 55.796 140.176 54.468C140.528 53.54 140.888 52.596 141.256 51.636C141.64 50.676 142.024 49.756 142.408 48.876C142.792 47.98 143.16 47.188 143.512 46.5C143.88 45.796 144.224 45.244 144.544 44.844C144.88 44.428 145.176 44.22 145.432 44.22C145.56 44.22 145.672 44.276 145.768 44.388C145.864 44.484 145.912 44.612 145.912 44.772C145.912 45.028 145.776 45.468 145.504 46.092C145.248 46.7 144.904 47.436 144.472 48.3C144.056 49.148 143.616 50.076 143.152 51.084C142.688 52.092 142.24 53.116 141.808 54.156C141.392 55.196 141.048 56.204 140.776 57.18C140.52 58.14 140.392 59.02 140.392 59.82C140.392 60.268 140.416 60.604 140.464 60.828C140.512 61.052 140.672 61.164 140.944 61.164C141.28 61.164 141.672 61.02 142.12 60.732C142.568 60.444 143.016 60.036 143.464 59.508C143.912 58.98 144.304 58.348 144.64 57.612L144.928 57.828C144.624 58.644 144.208 59.38 143.68 60.036C143.152 60.676 142.584 61.18 141.976 61.548C141.384 61.932 140.816 62.124 140.272 62.124C139.68 62.124 139.264 61.924 139.024 61.524C138.8 61.14 138.688 60.74 138.688 60.324C138.688 60.052 138.728 59.692 138.808 59.244C138.888 58.796 139 58.3 139.144 57.756C138.632 58.604 138.088 59.372 137.512 60.06C136.936 60.732 136.368 61.26 135.808 61.644C135.264 62.028 134.744 62.22 134.248 62.22ZM146.768 62.556C145.792 62.556 145.056 62.284 144.56 61.74C144.08 61.212 143.84 60.556 143.84 59.772C143.84 59.052 144.016 58.292 144.368 57.492C144.736 56.692 145.216 55.94 145.808 55.236C146.416 54.532 147.08 53.964 147.8 53.532C148.52 53.084 149.232 52.86 149.936 52.86C150.304 52.86 150.64 52.956 150.944 53.148C151.264 53.34 151.424 53.732 151.424 54.324C151.424 54.932 151.24 55.508 150.872 56.052C150.52 56.58 150.048 57.052 149.456 57.468C148.88 57.884 148.24 58.228 147.536 58.5C146.848 58.756 146.16 58.916 145.472 58.98C145.44 59.14 145.416 59.292 145.4 59.436C145.384 59.58 145.376 59.716 145.376 59.844C145.376 60.084 145.4 60.324 145.448 60.564C145.512 60.804 145.616 61.028 145.76 61.236C145.904 61.428 146.096 61.58 146.336 61.692C146.592 61.804 146.904 61.86 147.272 61.86C147.96 61.86 148.64 61.668 149.312 61.284C149.984 60.884 150.608 60.364 151.184 59.724C151.76 59.084 152.248 58.38 152.648 57.612L152.936 57.828C152.504 58.788 151.952 59.62 151.28 60.324C150.624 61.028 149.904 61.572 149.12 61.956C148.352 62.356 147.568 62.556 146.768 62.556ZM145.592 58.524C146.024 58.38 146.512 58.172 147.056 57.9C147.6 57.612 148.12 57.276 148.616 56.892C149.128 56.508 149.544 56.084 149.864 55.62C150.2 55.156 150.368 54.668 150.368 54.156C150.368 53.98 150.336 53.844 150.272 53.748C150.208 53.652 150.072 53.604 149.864 53.604C149.48 53.604 149.072 53.756 148.64 54.06C148.208 54.348 147.792 54.732 147.392 55.212C146.992 55.692 146.632 56.22 146.312 56.796C145.992 57.372 145.752 57.948 145.592 58.524ZM160.922 62.724C160.17 62.724 159.57 62.556 159.122 62.22C158.69 61.9 158.386 61.5 158.21 61.02C158.018 60.54 157.922 60.06 157.922 59.58C157.922 59.1 157.986 58.732 158.114 58.476C158.242 58.22 158.394 58.028 158.57 57.9C158.762 57.772 158.938 57.676 159.098 57.612C159.274 57.548 159.394 57.484 159.458 57.42C159.938 56.892 160.378 56.34 160.778 55.764C161.178 55.188 161.53 54.58 161.834 53.94V53.652C161.834 53.06 161.93 52.644 162.122 52.404C162.33 52.148 162.546 52.02 162.77 52.02C162.898 52.02 162.994 52.052 163.058 52.116C163.122 52.18 163.154 52.252 163.154 52.332C163.154 52.412 163.13 52.54 163.082 52.716C163.034 52.892 163.01 53.116 163.01 53.388C163.01 53.916 163.114 54.492 163.322 55.116C163.53 55.724 163.738 56.372 163.946 57.06C164.154 57.732 164.258 58.436 164.258 59.172C164.258 59.38 164.242 59.588 164.21 59.796C164.194 59.988 164.162 60.172 164.114 60.348C164.674 60.252 165.202 60.004 165.698 59.604C166.194 59.188 166.674 58.532 167.138 57.636L167.354 57.876C167.05 58.756 166.594 59.428 165.986 59.892C165.378 60.34 164.714 60.62 163.994 60.732C163.738 61.42 163.33 61.924 162.77 62.244C162.226 62.564 161.61 62.724 160.922 62.724ZM160.97 61.884C161.162 61.884 161.418 61.82 161.738 61.692C162.058 61.564 162.306 61.236 162.482 60.708C161.81 60.58 161.21 60.316 160.682 59.916C160.17 59.516 159.786 59.116 159.53 58.716C159.178 58.732 159.002 59.012 159.002 59.556C159.002 60.132 159.17 60.668 159.506 61.164C159.858 61.644 160.346 61.884 160.97 61.884ZM162.602 60.324C162.634 60.164 162.658 59.996 162.674 59.82C162.69 59.644 162.698 59.436 162.698 59.196C162.698 58.444 162.602 57.7 162.41 56.964C162.234 56.212 162.082 55.508 161.954 54.852C161.586 55.46 161.194 56.044 160.778 56.604C160.378 57.148 159.994 57.604 159.626 57.972C159.866 58.484 160.234 58.964 160.73 59.412C161.242 59.86 161.866 60.164 162.602 60.324ZM169.268 62.556C168.292 62.556 167.556 62.284 167.06 61.74C166.58 61.212 166.34 60.556 166.34 59.772C166.34 59.052 166.516 58.292 166.868 57.492C167.236 56.692 167.716 55.94 168.308 55.236C168.916 54.532 169.58 53.964 170.3 53.532C171.02 53.084 171.732 52.86 172.436 52.86C172.804 52.86 173.14 52.956 173.444 53.148C173.764 53.34 173.924 53.732 173.924 54.324C173.924 54.932 173.74 55.508 173.372 56.052C173.02 56.58 172.548 57.052 171.956 57.468C171.38 57.884 170.74 58.228 170.036 58.5C169.348 58.756 168.66 58.916 167.972 58.98C167.94 59.14 167.916 59.292 167.9 59.436C167.884 59.58 167.876 59.716 167.876 59.844C167.876 60.084 167.9 60.324 167.948 60.564C168.012 60.804 168.116 61.028 168.26 61.236C168.404 61.428 168.596 61.58 168.836 61.692C169.092 61.804 169.404 61.86 169.772 61.86C170.46 61.86 171.14 61.668 171.812 61.284C172.484 60.884 173.108 60.364 173.684 59.724C174.26 59.084 174.748 58.38 175.148 57.612L175.436 57.828C175.004 58.788 174.452 59.62 173.78 60.324C173.124 61.028 172.404 61.572 171.62 61.956C170.852 62.356 170.068 62.556 169.268 62.556ZM168.092 58.524C168.524 58.38 169.012 58.172 169.556 57.9C170.1 57.612 170.62 57.276 171.116 56.892C171.628 56.508 172.044 56.084 172.364 55.62C172.7 55.156 172.868 54.668 172.868 54.156C172.868 53.98 172.836 53.844 172.772 53.748C172.708 53.652 172.572 53.604 172.364 53.604C171.98 53.604 171.572 53.756 171.14 54.06C170.708 54.348 170.292 54.732 169.892 55.212C169.492 55.692 169.132 56.22 168.812 56.796C168.492 57.372 168.252 57.948 168.092 58.524ZM178.82 62.124C178.276 62.124 177.844 61.98 177.524 61.692C177.22 61.404 177.068 61.028 177.068 60.564C177.068 60.084 177.18 59.58 177.404 59.052C177.628 58.524 177.844 58.004 178.052 57.492C178.276 56.964 178.388 56.492 178.388 56.076C178.388 55.564 178.236 55.188 177.932 54.948C177.644 54.692 177.348 54.46 177.044 54.252C176.676 55.196 176.292 56.092 175.892 56.94C175.492 57.788 175.164 58.428 174.908 58.86L174.692 58.452C174.916 58.036 175.204 57.428 175.556 56.628C175.924 55.828 176.284 54.916 176.636 53.892C176.476 53.732 176.396 53.54 176.396 53.316C176.396 52.836 176.532 52.444 176.804 52.14C177.076 51.836 177.276 51.684 177.404 51.684C177.58 51.684 177.676 51.764 177.692 51.924C177.724 52.068 177.74 52.18 177.74 52.26C177.74 52.34 177.692 52.5 177.596 52.74C177.516 52.964 177.476 53.1 177.476 53.148C177.476 53.372 177.596 53.58 177.836 53.772C178.092 53.948 178.38 54.156 178.7 54.396C179.02 54.62 179.3 54.9 179.54 55.236C179.796 55.556 179.924 55.972 179.924 56.484C179.924 56.964 179.82 57.452 179.612 57.948C179.42 58.444 179.22 58.916 179.012 59.364C178.82 59.812 178.724 60.204 178.724 60.54C178.724 60.828 178.796 61.02 178.94 61.116C179.084 61.212 179.252 61.26 179.444 61.26C179.828 61.26 180.22 61.14 180.62 60.9C181.036 60.66 181.436 60.356 181.82 59.988C182.204 59.62 182.548 59.236 182.852 58.836C183.156 58.42 183.38 58.036 183.524 57.684L183.836 57.924C183.532 58.596 183.116 59.26 182.588 59.916C182.06 60.556 181.468 61.084 180.812 61.5C180.172 61.916 179.508 62.124 178.82 62.124ZM188.934 68.22C188.774 68.22 188.59 68.164 188.382 68.052C188.174 67.956 187.998 67.756 187.854 67.452C187.694 67.148 187.614 66.7 187.614 66.108C187.614 65.404 187.734 64.484 187.974 63.348C188.214 62.228 188.542 60.988 188.958 59.628C189.374 58.268 189.854 56.876 190.398 55.452C190.942 54.012 191.526 52.628 192.15 51.3C192.79 49.956 193.438 48.756 194.094 47.7C194.766 46.628 195.422 45.78 196.062 45.156C196.702 44.532 197.31 44.22 197.886 44.22C198.222 44.22 198.438 44.324 198.534 44.532C198.646 44.74 198.702 44.988 198.702 45.276C198.702 45.964 198.51 46.716 198.126 47.532C197.758 48.348 197.262 49.172 196.638 50.004C196.014 50.82 195.326 51.604 194.574 52.356C193.822 53.092 193.062 53.724 192.294 54.252C192.214 54.444 192.134 54.644 192.054 54.852C191.99 55.044 191.918 55.244 191.838 55.452C192.014 55.484 192.15 55.58 192.246 55.74C192.358 55.884 192.422 56.044 192.438 56.22C192.55 56.94 192.67 57.588 192.798 58.164C192.926 58.724 193.118 59.164 193.374 59.484C193.646 59.804 194.03 59.964 194.526 59.964C195.086 59.964 195.558 59.764 195.942 59.364C196.326 58.948 196.742 58.364 197.19 57.612L197.55 57.852C197.15 58.812 196.638 59.508 196.014 59.94C195.406 60.372 194.87 60.588 194.406 60.588C194.118 60.588 193.814 60.516 193.494 60.372C193.19 60.228 192.902 60.036 192.63 59.796C192.63 60.804 192.518 61.804 192.294 62.796C192.086 63.788 191.806 64.692 191.454 65.508C191.102 66.324 190.71 66.98 190.278 67.476C189.846 67.972 189.398 68.22 188.934 68.22ZM189.558 67.068C189.734 67.068 189.934 66.908 190.158 66.588C190.382 66.268 190.598 65.844 190.806 65.316C191.03 64.804 191.23 64.236 191.406 63.612C191.582 62.988 191.726 62.364 191.838 61.74C191.95 61.116 192.006 60.556 192.006 60.06C192.006 59.564 191.942 59.116 191.814 58.716C191.686 58.3 191.478 57.812 191.19 57.252C190.79 58.452 190.43 59.612 190.11 60.732C189.79 61.852 189.542 62.86 189.366 63.756C189.19 64.652 189.102 65.372 189.102 65.916C189.102 66.684 189.254 67.068 189.558 67.068ZM192.678 53.268C193.718 52.308 194.614 51.348 195.366 50.388C196.134 49.412 196.726 48.548 197.142 47.796C197.558 47.028 197.766 46.484 197.766 46.164C197.766 45.94 197.654 45.828 197.43 45.828C197.014 45.828 196.542 46.172 196.014 46.86C195.486 47.532 194.934 48.428 194.358 49.548C193.782 50.668 193.222 51.908 192.678 53.268ZM199.315 62.556C198.339 62.556 197.603 62.284 197.107 61.74C196.627 61.212 196.387 60.556 196.387 59.772C196.387 59.052 196.563 58.292 196.915 57.492C197.283 56.692 197.763 55.94 198.355 55.236C198.963 54.532 199.627 53.964 200.347 53.532C201.067 53.084 201.779 52.86 202.483 52.86C202.851 52.86 203.187 52.956 203.491 53.148C203.811 53.34 203.971 53.732 203.971 54.324C203.971 54.932 203.787 55.508 203.419 56.052C203.067 56.58 202.595 57.052 202.003 57.468C201.427 57.884 200.787 58.228 200.083 58.5C199.395 58.756 198.707 58.916 198.019 58.98C197.987 59.14 197.963 59.292 197.947 59.436C197.931 59.58 197.923 59.716 197.923 59.844C197.923 60.084 197.947 60.324 197.995 60.564C198.059 60.804 198.163 61.028 198.307 61.236C198.451 61.428 198.643 61.58 198.883 61.692C199.139 61.804 199.451 61.86 199.819 61.86C200.507 61.86 201.187 61.668 201.859 61.284C202.531 60.884 203.155 60.364 203.731 59.724C204.307 59.084 204.795 58.38 205.195 57.612L205.483 57.828C205.051 58.788 204.499 59.62 203.827 60.324C203.171 61.028 202.451 61.572 201.667 61.956C200.899 62.356 200.115 62.556 199.315 62.556ZM198.139 58.524C198.571 58.38 199.059 58.172 199.603 57.9C200.147 57.612 200.667 57.276 201.163 56.892C201.675 56.508 202.091 56.084 202.411 55.62C202.747 55.156 202.915 54.668 202.915 54.156C202.915 53.98 202.883 53.844 202.819 53.748C202.755 53.652 202.619 53.604 202.411 53.604C202.027 53.604 201.619 53.756 201.187 54.06C200.755 54.348 200.339 54.732 199.939 55.212C199.539 55.692 199.179 56.22 198.859 56.796C198.539 57.372 198.299 57.948 198.139 58.524ZM206.707 62.22C206.019 62.22 205.523 61.98 205.219 61.5C204.931 61.036 204.787 60.452 204.787 59.748C204.787 58.98 204.931 58.068 205.219 57.012C205.507 55.956 205.883 54.844 206.347 53.676C206.827 52.508 207.347 51.372 207.907 50.268C208.467 49.148 209.027 48.132 209.587 47.22C210.147 46.308 210.659 45.58 211.123 45.036C211.603 44.492 211.979 44.22 212.251 44.22C212.427 44.22 212.571 44.324 212.683 44.532C212.795 44.724 212.883 44.964 212.947 45.252C213.011 45.524 213.043 45.772 213.043 45.996C213.043 46.428 212.931 46.996 212.707 47.7C212.499 48.388 212.195 49.164 211.795 50.028C211.411 50.876 210.947 51.74 210.403 52.62C209.875 53.484 209.291 54.316 208.651 55.116C208.027 55.916 207.363 56.604 206.659 57.18C206.563 57.612 206.483 58.036 206.419 58.452C206.371 58.852 206.347 59.236 206.347 59.604C206.347 60.228 206.435 60.692 206.611 60.996C206.787 61.3 207.051 61.452 207.403 61.452C207.835 61.452 208.259 61.26 208.675 60.876C209.107 60.492 209.507 60.012 209.875 59.436C210.259 58.844 210.587 58.236 210.859 57.612L211.219 57.804C210.579 59.164 209.883 60.244 209.131 61.044C208.379 61.828 207.571 62.22 206.707 62.22ZM206.875 56.364C207.435 55.804 207.979 55.164 208.507 54.444C209.035 53.708 209.523 52.948 209.971 52.164C210.435 51.38 210.843 50.62 211.195 49.884C211.547 49.148 211.819 48.492 212.011 47.916C212.203 47.324 212.299 46.868 212.299 46.548C212.299 46.388 212.275 46.284 212.227 46.236C212.195 46.188 212.163 46.164 212.131 46.164C212.003 46.164 211.779 46.372 211.459 46.788C211.155 47.188 210.795 47.732 210.379 48.42C209.963 49.108 209.539 49.892 209.107 50.772C208.675 51.652 208.259 52.572 207.859 53.532C207.475 54.492 207.147 55.436 206.875 56.364ZM212.115 62.124C211.491 62.124 211.027 61.924 210.723 61.524C210.419 61.14 210.267 60.668 210.267 60.108C210.267 59.74 210.331 59.276 210.459 58.716C210.603 58.156 210.787 57.572 211.011 56.964C211.235 56.34 211.491 55.756 211.779 55.212C212.083 54.668 212.403 54.228 212.739 53.892C213.075 53.54 213.403 53.364 213.723 53.364C213.867 53.364 213.987 53.412 214.083 53.508C214.195 53.588 214.251 53.716 214.251 53.892C214.251 54.084 214.123 54.396 213.867 54.828C213.627 55.26 213.339 55.756 213.003 56.316C212.667 56.876 212.371 57.468 212.115 58.092C211.875 58.7 211.755 59.284 211.755 59.844C211.755 60.42 211.851 60.804 212.043 60.996C212.235 61.188 212.531 61.284 212.931 61.284C213.475 61.284 214.051 61.012 214.659 60.468C215.283 59.924 215.939 58.972 216.627 57.612L216.843 57.852C216.379 59.228 215.707 60.284 214.827 61.02C213.963 61.756 213.059 62.124 212.115 62.124ZM214.995 51.132C214.739 51.132 214.507 51.068 214.299 50.94C214.107 50.812 214.011 50.612 214.011 50.34C214.011 50.004 214.203 49.716 214.587 49.476C214.987 49.22 215.379 49.092 215.763 49.092C216.003 49.092 216.195 49.148 216.339 49.26C216.483 49.372 216.555 49.564 216.555 49.836C216.555 50.14 216.387 50.436 216.051 50.724C215.731 50.996 215.379 51.132 214.995 51.132ZM216.056 68.22C215.56 68.22 215.176 68.124 214.904 67.932C214.616 67.756 214.472 67.444 214.472 66.996C214.472 66.484 214.648 66.004 215 65.556C215.336 65.124 215.792 64.708 216.368 64.308C216.944 63.908 217.576 63.5 218.264 63.084C218.968 62.684 219.664 62.252 220.352 61.788C220.352 61.212 220.232 60.684 219.992 60.204C219.752 59.724 219.32 59.236 218.696 58.74C219.256 58.58 219.728 58.3 220.112 57.9C220.512 57.5 220.808 57.06 221 56.58C221.208 56.084 221.312 55.628 221.312 55.212C221.312 54.844 221.232 54.54 221.072 54.3C220.928 54.06 220.696 53.94 220.376 53.94C219.848 53.94 219.376 54.14 218.96 54.54C218.544 54.94 218.16 55.468 217.808 56.124C217.456 56.78 217.096 57.5 216.728 58.284L216.44 58.044C216.792 57.084 217.152 56.228 217.52 55.476C217.904 54.724 218.352 54.132 218.864 53.7C219.376 53.252 219.992 53.028 220.712 53.028C221.256 53.028 221.72 53.204 222.104 53.556C222.504 53.908 222.704 54.388 222.704 54.996C222.704 55.572 222.568 56.108 222.296 56.604C222.024 57.1 221.672 57.54 221.24 57.924C220.808 58.292 220.352 58.596 219.872 58.836C220.288 59.156 220.632 59.5 220.904 59.868C221.192 60.22 221.408 60.596 221.552 60.996C222.16 60.532 222.696 60.028 223.16 59.484C223.64 58.924 223.992 58.3 224.216 57.612L224.48 57.9C224.256 58.62 223.896 59.276 223.4 59.868C222.904 60.444 222.336 60.972 221.696 61.452C221.728 61.564 221.752 61.692 221.768 61.836C221.784 61.98 221.792 62.116 221.792 62.244C221.792 62.964 221.632 63.676 221.312 64.38C220.992 65.1 220.56 65.748 220.016 66.324C219.472 66.9 218.856 67.356 218.168 67.692C217.496 68.044 216.792 68.22 216.056 68.22ZM215.888 67.524C216.176 67.524 216.552 67.404 217.016 67.164C217.48 66.94 217.952 66.604 218.432 66.156C218.912 65.724 219.328 65.188 219.68 64.548C220.032 63.908 220.248 63.172 220.328 62.34C219.688 62.74 219.056 63.116 218.432 63.468C217.824 63.836 217.272 64.188 216.776 64.524C216.28 64.876 215.888 65.228 215.6 65.58C215.296 65.948 215.144 66.332 215.144 66.732C215.144 67.004 215.216 67.204 215.36 67.332C215.504 67.46 215.68 67.524 215.888 67.524ZM226.025 54.516C226.297 53.844 226.601 53.068 226.937 52.188C227.273 51.292 227.633 50.38 228.017 49.452C228.401 48.524 228.785 47.668 229.169 46.884C229.569 46.084 229.953 45.444 230.321 44.964C230.689 44.468 231.025 44.22 231.329 44.22C231.457 44.22 231.569 44.276 231.665 44.388C231.761 44.484 231.809 44.612 231.809 44.772C231.809 44.996 231.689 45.412 231.449 46.02C231.225 46.612 230.913 47.34 230.513 48.204C230.129 49.052 229.689 49.964 229.193 50.94C228.713 51.916 228.209 52.908 227.681 53.916C227.153 54.908 226.633 55.852 226.121 56.748C225.625 57.628 225.169 58.396 224.753 59.052C224.737 59.036 224.721 59.028 224.705 59.028C224.705 59.012 224.697 58.996 224.681 58.98C224.841 58.26 225.001 57.604 225.161 57.012C225.337 56.42 225.505 55.916 225.665 55.5C225.825 55.068 225.945 54.74 226.025 54.516ZM224.057 61.74C223.849 61.74 223.673 61.684 223.529 61.572C223.369 61.476 223.289 61.316 223.289 61.092C223.289 60.82 223.449 60.588 223.769 60.396C224.073 60.204 224.377 60.108 224.681 60.108C224.873 60.108 225.025 60.148 225.137 60.228C225.249 60.308 225.305 60.46 225.305 60.684C225.305 60.924 225.177 61.164 224.921 61.404C224.665 61.628 224.377 61.74 224.057 61.74Z" fill="black"/>
</g>
<defs>
<filter id="filter0_d_105_3" x="0.5" y="0.5" width="297" height="82" filterUnits="userSpaceOnUse" color-interpolation-filters="sRGB">
<feFlood flood-opacity="0" result="BackgroundImageFix"/>
<feColorMatrix in="SourceAlpha" type="matrix" values="0 0 0 0 0 0 0 0 0 0 0 0 0 0 0 0 0 0 127 0" result="hardAlpha"/>
<feOffset dx="2" dy="2"/>
<feGaussianBlur stdDeviation="1"/>
<feComposite in2="hardAlpha" operator="out"/>
<feColorMatrix type="matrix" values="0 0 0 0 0.333333 0 0 0 0 0.333333 0 0 0 0 0.333333 0 0 0 0.5 0"/>
<feBlend mode="normal" in2="BackgroundImageFix" result="effect1_dropShadow_105_3"/>
<feBlend mode="normal" in="SourceGraphic" in2="effect1_dropShadow_105_3" result="shape"/>
</filter>
</defs>
</svg>
