<svg width="298" height="83" viewBox="0 0 298 83" fill="none" xmlns="http://www.w3.org/2000/svg">
<g filter="url(#filter0_d_105_3)">
<rect width="293" height="78" transform="translate(0.5 0.5)" fill="#E4EDF1"/>
<path d="M25.027 34.588C24.067 34.588 23.235 34.388 22.531 33.988C21.827 33.588 21.283 33.06 20.899 32.404C20.531 31.732 20.347 31.004 20.347 30.22C20.347 29.484 20.507 28.764 20.827 28.06C21.147 27.356 21.587 26.716 22.147 26.14C22.723 25.548 23.387 25.068 24.139 24.7C24.891 24.316 25.699 24.084 26.563 24.004C25.939 23.492 25.475 22.9 25.171 22.228C24.883 21.556 24.739 20.884 24.739 20.212C24.739 19.364 24.947 18.564 25.363 17.812C25.795 17.044 26.387 16.428 27.139 15.964C27.891 15.484 28.739 15.244 29.683 15.244C30.579 15.244 31.259 15.468 31.723 15.916C32.187 16.364 32.419 17.004 32.419 17.836C32.419 18.428 32.315 19.004 32.107 19.564C31.899 20.124 31.643 20.58 31.339 20.932C31.051 21.284 30.771 21.46 30.499 21.46C30.323 21.46 30.155 21.388 29.995 21.244C29.835 21.084 29.707 20.9 29.611 20.692C30.171 20.196 30.643 19.676 31.027 19.132C31.427 18.572 31.627 17.98 31.627 17.356C31.627 16.86 31.483 16.476 31.195 16.204C30.907 15.932 30.483 15.796 29.923 15.796C29.187 15.796 28.563 16.02 28.051 16.468C27.539 16.9 27.147 17.484 26.875 18.22C26.619 18.94 26.491 19.74 26.491 20.62C26.491 21.196 26.579 21.82 26.755 22.492C26.931 23.164 27.307 23.748 27.883 24.244C26.811 24.42 25.875 24.828 25.075 25.468C24.291 26.108 23.675 26.86 23.227 27.724C22.795 28.588 22.579 29.444 22.579 30.292C22.579 30.82 22.675 31.356 22.867 31.9C23.075 32.428 23.403 32.868 23.851 33.22C24.299 33.588 24.899 33.772 25.651 33.772C26.499 33.772 27.339 33.532 28.171 33.052C29.019 32.572 29.795 31.94 30.499 31.156C31.203 30.372 31.763 29.524 32.179 28.612L32.515 28.852C31.955 29.94 31.299 30.916 30.547 31.78C29.795 32.644 28.955 33.324 28.027 33.82C27.099 34.332 26.099 34.588 25.027 34.588ZM30.835 14.548C30.723 14.484 30.635 14.38 30.571 14.236C30.523 14.092 30.499 13.988 30.499 13.924C30.499 13.78 30.579 13.556 30.739 13.252C30.915 12.932 31.131 12.604 31.387 12.268C31.643 11.916 31.915 11.62 32.203 11.38C32.491 11.14 32.755 11.02 32.995 11.02C33.123 11.02 33.235 11.076 33.331 11.188C33.443 11.284 33.507 11.476 33.523 11.764C32.947 12.26 32.443 12.732 32.011 13.18C31.579 13.628 31.187 14.084 30.835 14.548ZM46.6465 32.98C46.0865 32.98 45.6625 32.836 45.3745 32.548C45.1025 32.26 44.9665 31.892 44.9665 31.444C44.9665 31.108 45.0225 30.756 45.1345 30.388C45.2625 30.02 45.3825 29.644 45.4945 29.26C45.6065 28.86 45.6625 28.476 45.6625 28.108C45.6625 27.66 45.5665 27.356 45.3745 27.196C45.1985 27.02 44.9745 26.932 44.7025 26.932C44.2065 26.932 43.7025 27.14 43.1905 27.556C42.6785 27.956 42.1825 28.476 41.7025 29.116C41.2225 29.74 40.7745 30.388 40.3585 31.06C39.9425 31.732 39.5745 32.332 39.2545 32.86C38.9985 32.86 38.7585 32.812 38.5345 32.716C38.2945 32.636 38.1105 32.508 37.9825 32.332C37.9825 32.252 38.0705 32.004 38.2465 31.588C38.4065 31.172 38.5985 30.66 38.8225 30.052C39.0465 29.444 39.2465 28.82 39.4225 28.18C39.5985 27.54 39.6865 26.956 39.6865 26.428C39.7825 26.316 39.9345 26.204 40.1425 26.092C40.3505 25.98 40.5665 25.924 40.7905 25.924C41.2225 25.924 41.4385 26.132 41.4385 26.548C41.4385 26.804 41.3665 27.236 41.2225 27.844C41.0785 28.436 40.8945 29.06 40.6705 29.716C41.1025 29.06 41.5825 28.412 42.1105 27.772C42.6545 27.116 43.2305 26.572 43.8385 26.14C44.4465 25.708 45.0545 25.492 45.6625 25.492C46.2865 25.492 46.7345 25.716 47.0065 26.164C47.2945 26.612 47.4385 27.108 47.4385 27.652C47.4385 28.148 47.3585 28.612 47.1985 29.044C47.0385 29.46 46.8705 29.868 46.6945 30.268C46.5345 30.652 46.4545 31.044 46.4545 31.444C46.4545 31.78 46.5185 32.02 46.6465 32.164C46.7905 32.292 46.9665 32.356 47.1745 32.356C47.5745 32.356 47.9745 32.172 48.3745 31.804C48.7745 31.42 49.1585 30.94 49.5265 30.364C49.9105 29.788 50.2465 29.204 50.5345 28.612L50.7985 28.924C50.4625 29.708 50.0865 30.404 49.6705 31.012C49.2545 31.62 48.7985 32.1 48.3025 32.452C47.8065 32.804 47.2545 32.98 46.6465 32.98ZM51.7302 33.268C51.0422 33.268 50.5542 33.052 50.2662 32.62C49.9782 32.204 49.8342 31.692 49.8342 31.084C49.8342 30.588 49.9142 30.076 50.0742 29.548C50.2342 29.02 50.4422 28.524 50.6982 28.06C50.9702 27.596 51.2662 27.22 51.5862 26.932C51.9222 26.644 52.2582 26.5 52.5942 26.5C52.6742 26.5 52.7542 26.516 52.8342 26.548C52.9302 26.564 53.0182 26.588 53.0982 26.62C52.9542 26.748 52.7782 26.988 52.5702 27.34C52.3782 27.676 52.1942 28.068 52.0182 28.516C51.8422 28.948 51.6902 29.38 51.5622 29.812C51.4502 30.244 51.3942 30.612 51.3942 30.916C51.3942 31.396 51.4742 31.748 51.6342 31.972C51.7942 32.18 52.0022 32.284 52.2582 32.284C52.5942 32.284 52.9942 32.108 53.4582 31.756C53.9222 31.388 54.3782 30.924 54.8262 30.364C54.3782 29.996 54.0262 29.516 53.7702 28.924C53.5302 28.316 53.4102 27.7 53.4102 27.076C53.4102 26.548 53.4982 26.052 53.6742 25.588C53.8662 25.124 54.1382 24.756 54.4902 24.484C54.8422 24.196 55.2662 24.052 55.7622 24.052C56.4182 24.052 56.8582 24.228 57.0822 24.58C57.3062 24.932 57.4182 25.372 57.4182 25.9C57.4182 26.524 57.2662 27.22 56.9622 27.988C56.6582 28.74 56.2742 29.468 55.8102 30.172C56.0982 30.332 56.4022 30.412 56.7222 30.412C56.9782 30.412 57.2662 30.364 57.5862 30.268C57.9062 30.156 58.2182 29.972 58.5222 29.716C58.8422 29.46 59.0982 29.116 59.2902 28.684L59.5782 28.924C59.2582 29.676 58.8022 30.212 58.2102 30.532C57.6342 30.836 57.0822 30.988 56.5542 30.988C56.3462 30.988 56.1462 30.972 55.9542 30.94C55.7622 30.892 55.5782 30.828 55.4022 30.748C54.8582 31.468 54.2582 32.068 53.6022 32.548C52.9622 33.028 52.3382 33.268 51.7302 33.268ZM55.2582 29.74C55.6582 29.148 55.9862 28.532 56.2422 27.892C56.5142 27.236 56.6502 26.62 56.6502 26.044C56.6502 25.58 56.5782 25.244 56.4342 25.036C56.3062 24.812 56.1382 24.7 55.9302 24.7C55.6102 24.7 55.2822 24.932 54.9462 25.396C54.6102 25.86 54.4422 26.444 54.4422 27.148C54.4422 27.612 54.5062 28.084 54.6342 28.564C54.7782 29.028 54.9862 29.42 55.2582 29.74ZM66.2262 33.628C65.7302 33.628 65.3142 33.46 64.9782 33.124C64.6262 32.804 64.4502 32.308 64.4502 31.636C64.4502 31.06 64.5782 30.444 64.8342 29.788C65.0902 29.116 65.4422 28.46 65.8902 27.82C66.3382 27.164 66.8422 26.572 67.4022 26.044C67.9782 25.5 68.5782 25.068 69.2022 24.748C69.8422 24.428 70.4742 24.268 71.0982 24.268C71.7222 24.268 72.2422 24.436 72.6582 24.772C73.0742 25.092 73.2822 25.524 73.2822 26.068C73.2822 26.468 73.1702 26.74 72.9462 26.884C72.7382 27.028 72.4582 27.1 72.1062 27.1C72.1382 26.972 72.1622 26.836 72.1782 26.692C72.2102 26.532 72.2262 26.388 72.2262 26.26C72.2262 25.892 72.1382 25.58 71.9622 25.324C71.7862 25.052 71.4822 24.916 71.0502 24.916C70.6022 24.916 70.1462 25.076 69.6822 25.396C69.2182 25.7 68.7702 26.116 68.3382 26.644C67.9062 27.156 67.5222 27.716 67.1862 28.324C66.8502 28.932 66.5862 29.532 66.3942 30.124C66.2022 30.716 66.1062 31.244 66.1062 31.708C66.1062 32.332 66.3222 32.644 66.7542 32.644C67.1222 32.644 67.5222 32.476 67.9542 32.14C68.3862 31.788 68.8262 31.348 69.2742 30.82C69.7382 30.276 70.1782 29.716 70.5942 29.14C71.0102 28.564 71.3782 28.036 71.6982 27.556C71.7622 27.46 71.8022 27.412 71.8182 27.412C71.9142 27.428 72.0342 27.46 72.1782 27.508C72.3382 27.556 72.4742 27.62 72.5862 27.7C72.6982 27.78 72.7542 27.884 72.7542 28.012C72.7542 28.156 72.6822 28.356 72.5382 28.612C72.3942 28.852 72.2342 29.132 72.0582 29.452C71.8822 29.772 71.7222 30.1 71.5782 30.436C71.4342 30.756 71.3622 31.06 71.3622 31.348C71.3622 31.588 71.4262 31.828 71.5542 32.068C71.6822 32.292 71.8902 32.404 72.1782 32.404C72.6102 32.404 73.1782 32.092 73.8822 31.468C74.5862 30.828 75.2982 29.876 76.0182 28.612L76.2582 28.852C75.9222 29.716 75.4902 30.476 74.9622 31.132C74.4342 31.788 73.8662 32.3 73.2582 32.668C72.6662 33.036 72.0822 33.22 71.5062 33.22C70.9142 33.22 70.4742 33.044 70.1862 32.692C69.9142 32.34 69.7782 31.956 69.7782 31.54C69.7782 31.444 69.7862 31.34 69.8022 31.228C69.8182 31.1 69.8342 30.972 69.8502 30.844C69.1622 31.772 68.5302 32.468 67.9542 32.932C67.3942 33.396 66.8182 33.628 66.2262 33.628ZM76.4393 39.22C76.0873 39.22 75.7673 39.108 75.4793 38.884C75.1913 38.676 75.0473 38.324 75.0473 37.828C75.0473 37.348 75.1993 36.9 75.5033 36.484C75.7913 36.084 76.1673 35.708 76.6313 35.356C77.0953 35.02 77.5993 34.708 78.1433 34.42C78.7033 34.132 79.2313 33.86 79.7273 33.604C79.9513 33.044 80.1593 32.444 80.3513 31.804C80.5593 31.148 80.7593 30.428 80.9513 29.644C80.3433 30.524 79.7033 31.26 79.0313 31.852C78.3753 32.428 77.7113 32.716 77.0393 32.716C76.4633 32.716 76.0153 32.5 75.6953 32.068C75.3913 31.636 75.2393 31.076 75.2393 30.388C75.2393 29.556 75.4393 28.764 75.8393 28.012C76.2553 27.26 76.7913 26.596 77.4473 26.02C78.1033 25.444 78.7993 24.996 79.5353 24.676C80.2713 24.34 80.9593 24.172 81.5993 24.172C82.0633 24.172 82.3913 24.252 82.5833 24.412C82.7913 24.556 82.8953 24.732 82.8953 24.94C82.8953 25.084 82.8553 25.196 82.7753 25.276C82.6953 25.356 82.6393 25.404 82.6073 25.42C82.5273 25.292 82.4073 25.204 82.2473 25.156C82.0873 25.092 81.8873 25.06 81.6473 25.06C81.0233 25.06 80.4153 25.244 79.8233 25.612C79.2473 25.98 78.7353 26.452 78.2873 27.028C77.8393 27.604 77.4793 28.204 77.2073 28.828C76.9513 29.436 76.8233 29.996 76.8233 30.508C76.8233 30.892 76.8953 31.188 77.0393 31.396C77.1993 31.588 77.4073 31.684 77.6633 31.684C78.1273 31.684 78.6793 31.38 79.3193 30.772C79.9753 30.148 80.6073 29.396 81.2153 28.516C81.2633 28.292 81.3033 28.092 81.3353 27.916C81.3833 27.74 81.4393 27.516 81.5033 27.244C81.5513 27.02 81.6633 26.764 81.8393 26.476C82.0313 26.172 82.3273 26.02 82.7273 26.02C82.8073 26.02 82.8873 26.028 82.9673 26.044C83.0473 26.044 83.1353 26.06 83.2313 26.092C83.2313 26.348 83.1513 26.82 82.9913 27.508C82.8473 28.18 82.6313 28.972 82.3433 29.884C82.0713 30.78 81.7513 31.708 81.3833 32.668C81.9113 32.412 82.4233 32.084 82.9193 31.684C83.4313 31.284 83.8953 30.828 84.3113 30.316C84.7273 29.788 85.0553 29.22 85.2953 28.612L85.6073 28.852C85.3673 29.572 84.9833 30.228 84.4553 30.82C83.9273 31.412 83.3593 31.924 82.7513 32.356C82.1593 32.788 81.6153 33.124 81.1193 33.364C80.6713 34.436 80.1993 35.412 79.7033 36.292C79.2073 37.188 78.6873 37.9 78.1433 38.428C77.6153 38.956 77.0473 39.22 76.4393 39.22ZM76.3673 38.452C76.6873 38.452 77.1193 38.132 77.6633 37.492C78.2233 36.868 78.8233 35.788 79.4633 34.252C78.8233 34.572 78.2233 34.9 77.6633 35.236C77.1193 35.588 76.6713 35.956 76.3193 36.34C75.9673 36.724 75.7913 37.148 75.7913 37.612C75.7913 37.868 75.8473 38.068 75.9593 38.212C76.0713 38.372 76.2073 38.452 76.3673 38.452ZM86.5835 33.124C85.9595 33.124 85.4955 32.924 85.1915 32.524C84.8875 32.14 84.7355 31.668 84.7355 31.108C84.7355 30.74 84.7995 30.276 84.9275 29.716C85.0715 29.156 85.2555 28.572 85.4795 27.964C85.7035 27.34 85.9595 26.756 86.2475 26.212C86.5515 25.668 86.8715 25.228 87.2075 24.892C87.5435 24.54 87.8715 24.364 88.1915 24.364C88.3355 24.364 88.4555 24.412 88.5515 24.508C88.6635 24.588 88.7195 24.716 88.7195 24.892C88.7195 25.084 88.5915 25.396 88.3355 25.828C88.0955 26.26 87.8075 26.756 87.4715 27.316C87.1355 27.876 86.8395 28.468 86.5835 29.092C86.3435 29.7 86.2235 30.284 86.2235 30.844C86.2235 31.42 86.3195 31.804 86.5115 31.996C86.7035 32.188 86.9995 32.284 87.3995 32.284C87.9435 32.284 88.5195 32.012 89.1275 31.468C89.7515 30.924 90.4075 29.972 91.0955 28.612L91.3115 28.852C90.8475 30.228 90.1755 31.284 89.2955 32.02C88.4315 32.756 87.5275 33.124 86.5835 33.124ZM89.4635 22.132C89.2075 22.132 88.9755 22.068 88.7675 21.94C88.5755 21.812 88.4795 21.612 88.4795 21.34C88.4795 21.004 88.6715 20.716 89.0555 20.476C89.4555 20.22 89.8475 20.092 90.2315 20.092C90.4715 20.092 90.6635 20.148 90.8075 20.26C90.9515 20.372 91.0235 20.564 91.0235 20.836C91.0235 21.14 90.8555 21.436 90.5195 21.724C90.1995 21.996 89.8475 22.132 89.4635 22.132ZM94.7965 33.124C94.2525 33.124 93.8205 32.98 93.5005 32.692C93.1965 32.404 93.0445 32.028 93.0445 31.564C93.0445 31.084 93.1565 30.58 93.3805 30.052C93.6045 29.524 93.8205 29.004 94.0285 28.492C94.2525 27.964 94.3645 27.492 94.3645 27.076C94.3645 26.564 94.2125 26.188 93.9085 25.948C93.6205 25.692 93.3245 25.46 93.0205 25.252C92.6525 26.196 92.2685 27.092 91.8685 27.94C91.4685 28.788 91.1405 29.428 90.8845 29.86L90.6685 29.452C90.8925 29.036 91.1805 28.428 91.5325 27.628C91.9005 26.828 92.2605 25.916 92.6125 24.892C92.4525 24.732 92.3725 24.54 92.3725 24.316C92.3725 23.836 92.5085 23.444 92.7805 23.14C93.0525 22.836 93.2525 22.684 93.3805 22.684C93.5565 22.684 93.6525 22.764 93.6685 22.924C93.7005 23.068 93.7165 23.18 93.7165 23.26C93.7165 23.34 93.6685 23.5 93.5725 23.74C93.4925 23.964 93.4525 24.1 93.4525 24.148C93.4525 24.372 93.5725 24.58 93.8125 24.772C94.0685 24.948 94.3565 25.156 94.6765 25.396C94.9965 25.62 95.2765 25.9 95.5165 26.236C95.7725 26.556 95.9005 26.972 95.9005 27.484C95.9005 27.964 95.7965 28.452 95.5885 28.948C95.3965 29.444 95.1965 29.916 94.9885 30.364C94.7965 30.812 94.7005 31.204 94.7005 31.54C94.7005 31.828 94.7725 32.02 94.9165 32.116C95.0605 32.212 95.2285 32.26 95.4205 32.26C95.8045 32.26 96.1965 32.14 96.5965 31.9C97.0125 31.66 97.4125 31.356 97.7965 30.988C98.1805 30.62 98.5245 30.236 98.8285 29.836C99.1325 29.42 99.3565 29.036 99.5005 28.684L99.8125 28.924C99.5085 29.596 99.0925 30.26 98.5645 30.916C98.0365 31.556 97.4445 32.084 96.7885 32.5C96.1485 32.916 95.4845 33.124 94.7965 33.124ZM109.879 39.22C109.655 39.22 109.455 39.1 109.279 38.86C109.119 38.62 109.039 38.156 109.039 37.468C109.039 36.908 109.095 36.212 109.207 35.38C109.335 34.548 109.503 33.668 109.711 32.74C109.919 31.828 110.167 30.964 110.455 30.148C109.815 31.06 109.167 31.804 108.511 32.38C107.871 32.94 107.255 33.22 106.663 33.22C106.391 33.22 106.111 33.148 105.823 33.004C105.551 32.876 105.327 32.66 105.151 32.356C104.959 32.052 104.863 31.652 104.863 31.156C104.863 30.596 104.991 29.996 105.247 29.356C105.503 28.7 105.855 28.052 106.303 27.412C106.751 26.772 107.263 26.196 107.839 25.684C108.415 25.156 109.023 24.732 109.663 24.412C110.303 24.092 110.943 23.932 111.583 23.932C112.127 23.932 112.575 24.044 112.927 24.268C113.295 24.492 113.479 24.772 113.479 25.108C113.479 25.252 113.439 25.404 113.359 25.564C113.295 25.708 113.191 25.82 113.047 25.9C112.967 25.964 112.847 25.996 112.687 25.996C112.687 25.644 112.583 25.34 112.375 25.084C112.167 24.812 111.815 24.676 111.319 24.676C110.791 24.676 110.287 24.836 109.807 25.156C109.327 25.46 108.887 25.86 108.487 26.356C108.103 26.836 107.759 27.364 107.455 27.94C107.167 28.5 106.943 29.044 106.783 29.572C106.623 30.1 106.543 30.548 106.543 30.916C106.543 31.268 106.615 31.548 106.759 31.756C106.919 31.964 107.127 32.068 107.383 32.068C107.703 32.068 108.047 31.916 108.415 31.612C108.783 31.308 109.159 30.908 109.543 30.412C109.943 29.916 110.335 29.372 110.719 28.78C111.119 28.172 111.503 27.572 111.871 26.98C111.983 26.804 112.087 26.668 112.183 26.572C112.295 26.476 112.407 26.396 112.519 26.332C112.695 26.252 112.847 26.22 112.975 26.236C113.119 26.252 113.223 26.292 113.287 26.356C113.367 26.436 113.407 26.54 113.407 26.668C113.407 26.924 113.271 27.268 112.999 27.7C112.743 28.132 112.447 28.684 112.111 29.356C111.791 30.012 111.519 30.828 111.295 31.804C111.983 31.74 112.671 31.492 113.359 31.06C114.047 30.612 114.695 29.804 115.303 28.636L115.591 28.9C115.063 30.116 114.391 30.98 113.575 31.492C112.775 32.004 111.999 32.3 111.247 32.38C111.375 32.796 111.471 33.228 111.535 33.676C111.615 34.124 111.655 34.596 111.655 35.092C111.655 35.844 111.575 36.532 111.415 37.156C111.271 37.78 111.063 38.276 110.791 38.644C110.519 39.028 110.215 39.22 109.879 39.22ZM110.527 37.9C110.655 37.9 110.759 37.748 110.839 37.444C110.935 37.14 111.007 36.748 111.055 36.268C111.103 35.804 111.127 35.34 111.127 34.876C111.127 34.556 111.111 34.244 111.079 33.94C111.063 33.652 111.023 33.364 110.959 33.076C110.751 33.924 110.591 34.716 110.479 35.452C110.383 36.204 110.335 36.796 110.335 37.228C110.335 37.436 110.351 37.596 110.383 37.708C110.415 37.836 110.463 37.9 110.527 37.9ZM116.655 33.22C116.111 33.22 115.671 32.98 115.335 32.5C115.015 32.004 114.855 31.436 114.855 30.796C114.855 30.332 114.927 29.796 115.071 29.188C115.231 28.58 115.423 27.98 115.647 27.388C115.871 26.796 116.103 26.308 116.343 25.924C116.583 25.54 116.791 25.348 116.967 25.348C117.047 25.348 117.183 25.396 117.375 25.492C117.567 25.572 117.727 25.684 117.855 25.828C117.679 26.1 117.463 26.516 117.207 27.076C116.951 27.636 116.727 28.236 116.535 28.876C116.343 29.516 116.247 30.108 116.247 30.652C116.247 30.78 116.263 30.98 116.295 31.252C116.327 31.508 116.407 31.74 116.535 31.948C116.663 32.156 116.855 32.26 117.111 32.26C117.415 32.26 117.727 32.108 118.047 31.804C118.367 31.484 118.687 31.076 119.007 30.58C119.343 30.084 119.663 29.548 119.967 28.972C120.271 28.396 120.551 27.844 120.807 27.316C121.079 26.788 121.303 26.348 121.479 25.996C121.575 26.012 121.711 26.044 121.887 26.092C122.079 26.14 122.247 26.204 122.391 26.284C122.551 26.364 122.631 26.476 122.631 26.62C122.631 26.684 122.551 26.9 122.391 27.268C122.231 27.62 122.039 28.06 121.815 28.588C121.607 29.1 121.423 29.62 121.263 30.148C121.103 30.676 121.023 31.14 121.023 31.54C121.023 31.828 121.079 32.06 121.191 32.236C121.319 32.412 121.527 32.5 121.815 32.5C122.151 32.5 122.559 32.348 123.039 32.044C123.519 31.74 124.007 31.3 124.503 30.724C124.999 30.132 125.439 29.428 125.823 28.612L126.135 28.828C125.799 29.692 125.359 30.46 124.815 31.132C124.271 31.788 123.695 32.3 123.087 32.668C122.479 33.036 121.887 33.22 121.311 33.22C120.895 33.22 120.559 33.14 120.303 32.98C120.063 32.82 119.887 32.604 119.775 32.332C119.679 32.06 119.631 31.764 119.631 31.444C119.631 31.252 119.647 31.06 119.679 30.868C119.711 30.66 119.751 30.452 119.799 30.244C119.511 30.772 119.199 31.268 118.863 31.732C118.527 32.18 118.175 32.54 117.807 32.812C117.439 33.084 117.055 33.22 116.655 33.22ZM127.971 33.556C126.995 33.556 126.259 33.284 125.763 32.74C125.283 32.212 125.043 31.556 125.043 30.772C125.043 30.052 125.219 29.292 125.571 28.492C125.939 27.692 126.419 26.94 127.011 26.236C127.619 25.532 128.283 24.964 129.003 24.532C129.723 24.084 130.435 23.86 131.139 23.86C131.507 23.86 131.843 23.956 132.147 24.148C132.467 24.34 132.627 24.732 132.627 25.324C132.627 25.932 132.443 26.508 132.075 27.052C131.723 27.58 131.251 28.052 130.659 28.468C130.083 28.884 129.443 29.228 128.739 29.5C128.051 29.756 127.363 29.916 126.675 29.98C126.643 30.14 126.619 30.292 126.603 30.436C126.587 30.58 126.579 30.716 126.579 30.844C126.579 31.084 126.603 31.324 126.651 31.564C126.715 31.804 126.819 32.028 126.963 32.236C127.107 32.428 127.299 32.58 127.539 32.692C127.795 32.804 128.107 32.86 128.475 32.86C129.163 32.86 129.843 32.668 130.515 32.284C131.187 31.884 131.811 31.364 132.387 30.724C132.963 30.084 133.451 29.38 133.851 28.612L134.139 28.828C133.707 29.788 133.155 30.62 132.483 31.324C131.827 32.028 131.107 32.572 130.323 32.956C129.555 33.356 128.771 33.556 127.971 33.556ZM126.795 29.524C127.227 29.38 127.715 29.172 128.259 28.9C128.803 28.612 129.323 28.276 129.819 27.892C130.331 27.508 130.747 27.084 131.067 26.62C131.403 26.156 131.571 25.668 131.571 25.156C131.571 24.98 131.539 24.844 131.475 24.748C131.411 24.652 131.275 24.604 131.067 24.604C130.683 24.604 130.275 24.756 129.843 25.06C129.411 25.348 128.995 25.732 128.595 26.212C128.195 26.692 127.835 27.22 127.515 27.796C127.195 28.372 126.955 28.948 126.795 29.524ZM140.757 33.628C140.261 33.628 139.845 33.46 139.509 33.124C139.157 32.804 138.981 32.308 138.981 31.636C138.981 31.06 139.109 30.444 139.365 29.788C139.621 29.116 139.973 28.46 140.421 27.82C140.869 27.164 141.373 26.572 141.933 26.044C142.509 25.5 143.109 25.068 143.733 24.748C144.373 24.428 145.005 24.268 145.629 24.268C146.253 24.268 146.773 24.436 147.189 24.772C147.605 25.092 147.813 25.524 147.813 26.068C147.813 26.468 147.701 26.74 147.477 26.884C147.269 27.028 146.989 27.1 146.637 27.1C146.669 26.972 146.693 26.836 146.709 26.692C146.741 26.532 146.757 26.388 146.757 26.26C146.757 25.892 146.669 25.58 146.493 25.324C146.317 25.052 146.013 24.916 145.581 24.916C145.133 24.916 144.677 25.076 144.213 25.396C143.749 25.7 143.301 26.116 142.869 26.644C142.437 27.156 142.053 27.716 141.717 28.324C141.381 28.932 141.117 29.532 140.925 30.124C140.733 30.716 140.637 31.244 140.637 31.708C140.637 32.332 140.853 32.644 141.285 32.644C141.653 32.644 142.053 32.476 142.485 32.14C142.917 31.788 143.357 31.348 143.805 30.82C144.269 30.276 144.709 29.716 145.125 29.14C145.541 28.564 145.909 28.036 146.229 27.556C146.293 27.46 146.333 27.412 146.349 27.412C146.445 27.428 146.565 27.46 146.709 27.508C146.869 27.556 147.005 27.62 147.117 27.7C147.229 27.78 147.285 27.884 147.285 28.012C147.285 28.156 147.213 28.356 147.069 28.612C146.925 28.852 146.765 29.132 146.589 29.452C146.413 29.772 146.253 30.1 146.109 30.436C145.965 30.756 145.893 31.06 145.893 31.348C145.893 31.588 145.957 31.828 146.085 32.068C146.213 32.292 146.421 32.404 146.709 32.404C147.141 32.404 147.709 32.092 148.413 31.468C149.117 30.828 149.829 29.876 150.549 28.612L150.789 28.852C150.453 29.716 150.021 30.476 149.493 31.132C148.965 31.788 148.397 32.3 147.789 32.668C147.197 33.036 146.613 33.22 146.037 33.22C145.445 33.22 145.005 33.044 144.717 32.692C144.445 32.34 144.309 31.956 144.309 31.54C144.309 31.444 144.317 31.34 144.333 31.228C144.349 31.1 144.365 30.972 144.381 30.844C143.693 31.772 143.061 32.468 142.485 32.932C141.925 33.396 141.349 33.628 140.757 33.628ZM157.853 33.436C157.357 33.436 157.013 33.188 156.821 32.692C156.629 32.212 156.533 31.58 156.533 30.796C156.533 30.764 156.541 30.516 156.557 30.052C156.573 29.572 156.613 28.772 156.677 27.652C156.709 27.22 156.757 26.924 156.821 26.764C156.885 26.604 157.093 26.524 157.445 26.524C157.717 26.524 157.885 26.58 157.949 26.692C158.029 26.788 158.069 26.988 158.069 27.292C158.069 27.82 158.029 28.444 157.949 29.164C157.885 29.868 157.853 30.532 157.853 31.156C157.853 31.62 157.893 31.964 157.973 32.188C158.053 32.396 158.197 32.5 158.405 32.5C158.693 32.5 159.013 32.34 159.365 32.02C159.717 31.684 160.077 31.252 160.445 30.724C160.813 30.18 161.157 29.604 161.477 28.996C161.813 28.388 162.109 27.804 162.365 27.244C162.397 26.156 162.509 25.436 162.701 25.084C162.909 24.716 163.165 24.532 163.469 24.532C163.773 24.532 163.989 24.644 164.117 24.868C164.261 25.076 164.333 25.268 164.333 25.444C164.333 25.652 164.261 25.868 164.117 26.092C163.989 26.316 163.853 26.62 163.709 27.004C163.565 27.388 163.493 27.94 163.493 28.66C163.493 28.916 163.517 29.188 163.565 29.476C163.613 29.764 163.717 30.004 163.877 30.196C164.037 30.388 164.285 30.484 164.621 30.484C164.957 30.484 165.277 30.356 165.581 30.1C165.901 29.828 166.213 29.364 166.517 28.708L166.829 28.948C166.477 29.748 166.085 30.284 165.653 30.556C165.237 30.828 164.837 30.964 164.453 30.964C163.925 30.964 163.485 30.772 163.133 30.388C162.781 30.004 162.549 29.42 162.437 28.636C162.053 29.42 161.597 30.18 161.069 30.916C160.557 31.636 160.021 32.236 159.461 32.716C158.901 33.196 158.365 33.436 157.853 33.436ZM167.794 33.124C167.17 33.124 166.706 32.924 166.402 32.524C166.098 32.14 165.946 31.668 165.946 31.108C165.946 30.74 166.01 30.276 166.138 29.716C166.282 29.156 166.466 28.572 166.69 27.964C166.914 27.34 167.17 26.756 167.458 26.212C167.762 25.668 168.082 25.228 168.418 24.892C168.754 24.54 169.082 24.364 169.402 24.364C169.546 24.364 169.666 24.412 169.762 24.508C169.874 24.588 169.93 24.716 169.93 24.892C169.93 25.084 169.802 25.396 169.546 25.828C169.306 26.26 169.018 26.756 168.682 27.316C168.346 27.876 168.05 28.468 167.794 29.092C167.554 29.7 167.434 30.284 167.434 30.844C167.434 31.42 167.53 31.804 167.722 31.996C167.914 32.188 168.21 32.284 168.61 32.284C169.154 32.284 169.73 32.012 170.338 31.468C170.962 30.924 171.618 29.972 172.306 28.612L172.522 28.852C172.058 30.228 171.386 31.284 170.506 32.02C169.642 32.756 168.738 33.124 167.794 33.124ZM170.674 22.132C170.418 22.132 170.186 22.068 169.978 21.94C169.786 21.812 169.69 21.612 169.69 21.34C169.69 21.004 169.882 20.716 170.266 20.476C170.666 20.22 171.058 20.092 171.442 20.092C171.682 20.092 171.874 20.148 172.018 20.26C172.162 20.372 172.234 20.564 172.234 20.836C172.234 21.14 172.066 21.436 171.73 21.724C171.41 21.996 171.058 22.132 170.674 22.132ZM173.271 33.22C172.999 33.22 172.719 33.148 172.431 33.004C172.159 32.876 171.935 32.66 171.759 32.356C171.567 32.052 171.471 31.668 171.471 31.204C171.471 30.676 171.599 30.084 171.855 29.428C172.111 28.772 172.455 28.124 172.887 27.484C173.319 26.828 173.815 26.228 174.375 25.684C174.935 25.124 175.519 24.684 176.127 24.364C176.735 24.028 177.335 23.86 177.927 23.86C178.263 23.86 178.519 23.924 178.695 24.052C178.887 24.164 178.983 24.348 178.983 24.604C178.983 24.668 178.975 24.724 178.959 24.772C178.959 24.82 178.951 24.876 178.935 24.94C178.855 24.812 178.735 24.724 178.575 24.676C178.431 24.612 178.247 24.58 178.023 24.58C177.511 24.58 177.007 24.74 176.511 25.06C176.031 25.364 175.583 25.772 175.167 26.284C174.767 26.78 174.415 27.316 174.111 27.892C173.807 28.468 173.567 29.028 173.391 29.572C173.231 30.1 173.151 30.548 173.151 30.916C173.151 31.268 173.231 31.548 173.391 31.756C173.551 31.964 173.759 32.068 174.015 32.068C174.447 32.068 174.967 31.796 175.575 31.252C176.199 30.708 176.831 29.94 177.471 28.948C178.111 27.956 178.687 26.796 179.199 25.468C179.551 24.54 179.911 23.596 180.279 22.636C180.663 21.676 181.047 20.756 181.431 19.876C181.815 18.98 182.183 18.188 182.535 17.5C182.903 16.796 183.247 16.244 183.567 15.844C183.903 15.428 184.199 15.22 184.455 15.22C184.583 15.22 184.695 15.276 184.791 15.388C184.887 15.484 184.935 15.612 184.935 15.772C184.935 16.028 184.799 16.468 184.527 17.092C184.271 17.7 183.927 18.436 183.495 19.3C183.079 20.148 182.639 21.076 182.175 22.084C181.711 23.092 181.263 24.116 180.831 25.156C180.415 26.196 180.071 27.204 179.799 28.18C179.543 29.14 179.415 30.02 179.415 30.82C179.415 31.268 179.439 31.604 179.487 31.828C179.535 32.052 179.695 32.164 179.967 32.164C180.303 32.164 180.695 32.02 181.143 31.732C181.591 31.444 182.039 31.036 182.487 30.508C182.935 29.98 183.327 29.348 183.663 28.612L183.951 28.828C183.647 29.644 183.231 30.38 182.703 31.036C182.175 31.676 181.607 32.18 180.999 32.548C180.407 32.932 179.839 33.124 179.295 33.124C178.703 33.124 178.287 32.924 178.047 32.524C177.823 32.14 177.711 31.74 177.711 31.324C177.711 31.052 177.751 30.692 177.831 30.244C177.911 29.796 178.023 29.3 178.167 28.756C177.655 29.604 177.111 30.372 176.535 31.06C175.959 31.732 175.391 32.26 174.831 32.644C174.287 33.028 173.767 33.22 173.271 33.22ZM184.351 33.628C183.855 33.628 183.439 33.46 183.103 33.124C182.751 32.804 182.575 32.308 182.575 31.636C182.575 31.06 182.703 30.444 182.959 29.788C183.215 29.116 183.567 28.46 184.015 27.82C184.463 27.164 184.967 26.572 185.527 26.044C186.103 25.5 186.703 25.068 187.327 24.748C187.967 24.428 188.599 24.268 189.223 24.268C189.847 24.268 190.367 24.436 190.783 24.772C191.199 25.092 191.407 25.524 191.407 26.068C191.407 26.468 191.295 26.74 191.071 26.884C190.863 27.028 190.583 27.1 190.231 27.1C190.263 26.972 190.287 26.836 190.303 26.692C190.335 26.532 190.351 26.388 190.351 26.26C190.351 25.892 190.263 25.58 190.087 25.324C189.911 25.052 189.607 24.916 189.175 24.916C188.727 24.916 188.271 25.076 187.807 25.396C187.343 25.7 186.895 26.116 186.463 26.644C186.031 27.156 185.647 27.716 185.311 28.324C184.975 28.932 184.711 29.532 184.519 30.124C184.327 30.716 184.231 31.244 184.231 31.708C184.231 32.332 184.447 32.644 184.879 32.644C185.247 32.644 185.647 32.476 186.079 32.14C186.511 31.788 186.951 31.348 187.399 30.82C187.863 30.276 188.303 29.716 188.719 29.14C189.135 28.564 189.503 28.036 189.823 27.556C189.887 27.46 189.927 27.412 189.943 27.412C190.039 27.428 190.159 27.46 190.303 27.508C190.463 27.556 190.599 27.62 190.711 27.7C190.823 27.78 190.879 27.884 190.879 28.012C190.879 28.156 190.807 28.356 190.663 28.612C190.519 28.852 190.359 29.132 190.183 29.452C190.007 29.772 189.847 30.1 189.703 30.436C189.559 30.756 189.487 31.06 189.487 31.348C189.487 31.588 189.551 31.828 189.679 32.068C189.807 32.292 190.015 32.404 190.303 32.404C190.735 32.404 191.303 32.092 192.007 31.468C192.711 30.828 193.423 29.876 194.143 28.612L194.383 28.852C194.047 29.716 193.615 30.476 193.087 31.132C192.559 31.788 191.991 32.3 191.383 32.668C190.791 33.036 190.207 33.22 189.631 33.22C189.039 33.22 188.599 33.044 188.311 32.692C188.039 32.34 187.903 31.956 187.903 31.54C187.903 31.444 187.911 31.34 187.927 31.228C187.943 31.1 187.959 30.972 187.975 30.844C187.287 31.772 186.655 32.468 186.079 32.932C185.519 33.396 184.943 33.628 184.351 33.628ZM211.983 33.244C211.423 33.244 211.015 33.068 210.759 32.716C210.503 32.38 210.375 31.972 210.375 31.492C210.375 31.092 210.431 30.692 210.543 30.292C210.671 29.892 210.791 29.5 210.903 29.116C211.031 28.732 211.095 28.388 211.095 28.084C211.095 27.764 211.023 27.54 210.879 27.412C210.735 27.284 210.575 27.22 210.399 27.22C209.999 27.22 209.559 27.532 209.079 28.156C208.615 28.78 208.007 29.66 207.255 30.796C206.999 31.18 206.783 31.572 206.607 31.972C206.431 32.356 206.263 32.708 206.103 33.028C205.975 33.028 205.815 33.012 205.623 32.98C205.431 32.948 205.255 32.892 205.095 32.812C204.951 32.748 204.879 32.66 204.879 32.548C204.879 32.436 204.951 32.172 205.095 31.756C205.255 31.324 205.431 30.828 205.623 30.268C205.831 29.692 206.007 29.116 206.151 28.54C206.311 27.948 206.391 27.444 206.391 27.028C206.391 26.756 206.343 26.54 206.247 26.38C206.167 26.204 206.015 26.116 205.791 26.116C205.439 26.116 205.015 26.332 204.519 26.764C204.023 27.18 203.511 27.732 202.983 28.42C202.455 29.108 201.951 29.868 201.471 30.7C201.007 31.516 200.631 32.332 200.343 33.148C200.199 33.148 200.023 33.124 199.815 33.076C199.607 33.028 199.431 32.964 199.287 32.884C199.127 32.804 199.047 32.724 199.047 32.644C199.047 32.548 199.135 32.268 199.311 31.804C199.471 31.324 199.663 30.756 199.887 30.1C200.095 29.428 200.279 28.748 200.439 28.06C200.615 27.372 200.703 26.764 200.703 26.236C200.799 26.124 200.951 26.012 201.159 25.9C201.367 25.788 201.583 25.732 201.807 25.732C202.031 25.732 202.191 25.788 202.287 25.9C202.399 26.012 202.455 26.164 202.455 26.356C202.455 26.564 202.391 26.924 202.263 27.436C202.151 27.932 202.007 28.484 201.831 29.092C202.151 28.58 202.511 28.06 202.911 27.532C203.327 26.988 203.759 26.492 204.207 26.044C204.655 25.596 205.103 25.236 205.551 24.964C206.015 24.676 206.463 24.532 206.895 24.532C207.391 24.532 207.727 24.716 207.903 25.084C208.095 25.436 208.191 25.86 208.191 26.356C208.191 26.756 208.143 27.18 208.047 27.628C207.967 28.06 207.871 28.468 207.759 28.852C207.647 29.22 207.543 29.516 207.447 29.74C207.783 29.132 208.151 28.548 208.551 27.988C208.967 27.412 209.415 26.948 209.895 26.596C210.375 26.228 210.887 26.044 211.431 26.044C211.943 26.044 212.295 26.196 212.487 26.5C212.695 26.804 212.799 27.164 212.799 27.58C212.799 27.996 212.727 28.452 212.583 28.948C212.439 29.444 212.287 29.924 212.127 30.388C211.983 30.852 211.911 31.252 211.911 31.588C211.911 31.796 211.959 31.988 212.055 32.164C212.167 32.324 212.359 32.404 212.631 32.404C213.079 32.404 213.495 32.204 213.879 31.804C214.279 31.388 214.647 30.892 214.983 30.316C215.319 29.724 215.607 29.156 215.847 28.612L216.135 28.948C215.879 29.62 215.551 30.292 215.151 30.964C214.751 31.62 214.279 32.164 213.735 32.596C213.207 33.028 212.623 33.244 211.983 33.244ZM217.202 33.22C216.658 33.22 216.218 32.98 215.882 32.5C215.562 32.004 215.402 31.436 215.402 30.796C215.402 30.332 215.474 29.796 215.618 29.188C215.778 28.58 215.97 27.98 216.194 27.388C216.418 26.796 216.65 26.308 216.89 25.924C217.13 25.54 217.338 25.348 217.514 25.348C217.594 25.348 217.73 25.396 217.922 25.492C218.114 25.572 218.274 25.684 218.402 25.828C218.226 26.1 218.01 26.516 217.754 27.076C217.498 27.636 217.274 28.236 217.082 28.876C216.89 29.516 216.794 30.108 216.794 30.652C216.794 30.78 216.81 30.98 216.842 31.252C216.874 31.508 216.954 31.74 217.082 31.948C217.21 32.156 217.402 32.26 217.658 32.26C217.962 32.26 218.274 32.108 218.594 31.804C218.914 31.484 219.234 31.076 219.554 30.58C219.89 30.084 220.21 29.548 220.514 28.972C220.818 28.396 221.098 27.844 221.354 27.316C221.626 26.788 221.85 26.348 222.026 25.996C222.122 26.012 222.258 26.044 222.434 26.092C222.626 26.14 222.794 26.204 222.938 26.284C223.098 26.364 223.178 26.476 223.178 26.62C223.178 26.684 223.098 26.9 222.938 27.268C222.778 27.62 222.586 28.06 222.362 28.588C222.154 29.1 221.97 29.62 221.81 30.148C221.65 30.676 221.57 31.14 221.57 31.54C221.57 31.828 221.626 32.06 221.738 32.236C221.866 32.412 222.074 32.5 222.362 32.5C222.698 32.5 223.106 32.348 223.586 32.044C224.066 31.74 224.554 31.3 225.05 30.724C225.546 30.132 225.986 29.428 226.37 28.612L226.682 28.828C226.346 29.692 225.906 30.46 225.362 31.132C224.818 31.788 224.242 32.3 223.634 32.668C223.026 33.036 222.434 33.22 221.858 33.22C221.442 33.22 221.106 33.14 220.85 32.98C220.61 32.82 220.434 32.604 220.322 32.332C220.226 32.06 220.178 31.764 220.178 31.444C220.178 31.252 220.194 31.06 220.226 30.868C220.258 30.66 220.298 30.452 220.346 30.244C220.058 30.772 219.746 31.268 219.41 31.732C219.074 32.18 218.722 32.54 218.354 32.812C217.986 33.084 217.602 33.22 217.202 33.22ZM227.342 33.22C227.07 33.22 226.79 33.148 226.502 33.004C226.23 32.876 226.006 32.66 225.83 32.356C225.638 32.052 225.542 31.668 225.542 31.204C225.542 30.676 225.67 30.084 225.926 29.428C226.182 28.772 226.526 28.124 226.958 27.484C227.39 26.828 227.886 26.228 228.446 25.684C229.006 25.124 229.59 24.684 230.198 24.364C230.806 24.028 231.406 23.86 231.998 23.86C232.334 23.86 232.59 23.924 232.766 24.052C232.958 24.164 233.054 24.348 233.054 24.604C233.054 24.668 233.046 24.724 233.03 24.772C233.03 24.82 233.022 24.876 233.006 24.94C232.926 24.812 232.806 24.724 232.646 24.676C232.502 24.612 232.318 24.58 232.094 24.58C231.582 24.58 231.078 24.74 230.582 25.06C230.102 25.364 229.654 25.772 229.238 26.284C228.838 26.78 228.486 27.316 228.182 27.892C227.878 28.468 227.638 29.028 227.462 29.572C227.302 30.1 227.222 30.548 227.222 30.916C227.222 31.268 227.302 31.548 227.462 31.756C227.622 31.964 227.83 32.068 228.086 32.068C228.518 32.068 229.038 31.796 229.646 31.252C230.27 30.708 230.902 29.94 231.542 28.948C232.182 27.956 232.758 26.796 233.27 25.468C233.622 24.54 233.982 23.596 234.35 22.636C234.734 21.676 235.118 20.756 235.502 19.876C235.886 18.98 236.254 18.188 236.606 17.5C236.974 16.796 237.318 16.244 237.638 15.844C237.974 15.428 238.27 15.22 238.526 15.22C238.654 15.22 238.766 15.276 238.862 15.388C238.958 15.484 239.006 15.612 239.006 15.772C239.006 16.028 238.87 16.468 238.598 17.092C238.342 17.7 237.998 18.436 237.566 19.3C237.15 20.148 236.71 21.076 236.246 22.084C235.782 23.092 235.334 24.116 234.902 25.156C234.486 26.196 234.142 27.204 233.87 28.18C233.614 29.14 233.486 30.02 233.486 30.82C233.486 31.268 233.51 31.604 233.558 31.828C233.606 32.052 233.766 32.164 234.038 32.164C234.374 32.164 234.766 32.02 235.214 31.732C235.662 31.444 236.11 31.036 236.558 30.508C237.006 29.98 237.398 29.348 237.734 28.612L238.022 28.828C237.718 29.644 237.302 30.38 236.774 31.036C236.246 31.676 235.678 32.18 235.07 32.548C234.478 32.932 233.91 33.124 233.366 33.124C232.774 33.124 232.358 32.924 232.118 32.524C231.894 32.14 231.782 31.74 231.782 31.324C231.782 31.052 231.822 30.692 231.902 30.244C231.982 29.796 232.094 29.3 232.238 28.756C231.726 29.604 231.182 30.372 230.606 31.06C230.03 31.732 229.462 32.26 228.902 32.644C228.358 33.028 227.838 33.22 227.342 33.22ZM238.422 33.628C237.926 33.628 237.51 33.46 237.174 33.124C236.822 32.804 236.646 32.308 236.646 31.636C236.646 31.06 236.774 30.444 237.03 29.788C237.286 29.116 237.638 28.46 238.086 27.82C238.534 27.164 239.038 26.572 239.598 26.044C240.174 25.5 240.774 25.068 241.398 24.748C242.038 24.428 242.67 24.268 243.294 24.268C243.918 24.268 244.438 24.436 244.854 24.772C245.27 25.092 245.478 25.524 245.478 26.068C245.478 26.468 245.366 26.74 245.142 26.884C244.934 27.028 244.654 27.1 244.302 27.1C244.334 26.972 244.358 26.836 244.374 26.692C244.406 26.532 244.422 26.388 244.422 26.26C244.422 25.892 244.334 25.58 244.158 25.324C243.982 25.052 243.678 24.916 243.246 24.916C242.798 24.916 242.342 25.076 241.878 25.396C241.414 25.7 240.966 26.116 240.534 26.644C240.102 27.156 239.718 27.716 239.382 28.324C239.046 28.932 238.782 29.532 238.59 30.124C238.398 30.716 238.302 31.244 238.302 31.708C238.302 32.332 238.518 32.644 238.95 32.644C239.318 32.644 239.718 32.476 240.15 32.14C240.582 31.788 241.022 31.348 241.47 30.82C241.934 30.276 242.374 29.716 242.79 29.14C243.206 28.564 243.574 28.036 243.894 27.556C243.958 27.46 243.998 27.412 244.014 27.412C244.11 27.428 244.23 27.46 244.374 27.508C244.534 27.556 244.67 27.62 244.782 27.7C244.894 27.78 244.95 27.884 244.95 28.012C244.95 28.156 244.878 28.356 244.734 28.612C244.59 28.852 244.43 29.132 244.254 29.452C244.078 29.772 243.918 30.1 243.774 30.436C243.63 30.756 243.558 31.06 243.558 31.348C243.558 31.588 243.622 31.828 243.75 32.068C243.878 32.292 244.086 32.404 244.374 32.404C244.806 32.404 245.374 32.092 246.078 31.468C246.782 30.828 247.494 29.876 248.214 28.612L248.454 28.852C248.118 29.716 247.686 30.476 247.158 31.132C246.63 31.788 246.062 32.3 245.454 32.668C244.862 33.036 244.278 33.22 243.702 33.22C243.11 33.22 242.67 33.044 242.382 32.692C242.11 32.34 241.974 31.956 241.974 31.54C241.974 31.444 241.982 31.34 241.998 31.228C242.014 31.1 242.03 30.972 242.046 30.844C241.358 31.772 240.726 32.468 240.15 32.932C239.59 33.396 239.014 33.628 238.422 33.628ZM255.373 33.22C255.101 33.22 254.821 33.148 254.533 33.004C254.261 32.876 254.037 32.66 253.861 32.356C253.669 32.052 253.573 31.668 253.573 31.204C253.573 30.676 253.701 30.084 253.957 29.428C254.213 28.772 254.557 28.124 254.989 27.484C255.421 26.828 255.917 26.228 256.477 25.684C257.037 25.124 257.621 24.684 258.229 24.364C258.837 24.028 259.437 23.86 260.029 23.86C260.365 23.86 260.621 23.924 260.797 24.052C260.989 24.164 261.085 24.348 261.085 24.604C261.085 24.668 261.077 24.724 261.061 24.772C261.061 24.82 261.053 24.876 261.037 24.94C260.957 24.812 260.837 24.724 260.677 24.676C260.533 24.612 260.349 24.58 260.125 24.58C259.613 24.58 259.109 24.74 258.613 25.06C258.133 25.364 257.685 25.772 257.269 26.284C256.869 26.78 256.517 27.316 256.213 27.892C255.909 28.468 255.669 29.028 255.493 29.572C255.333 30.1 255.253 30.548 255.253 30.916C255.253 31.268 255.333 31.548 255.493 31.756C255.653 31.964 255.861 32.068 256.117 32.068C256.549 32.068 257.069 31.796 257.677 31.252C258.301 30.708 258.933 29.94 259.573 28.948C260.213 27.956 260.789 26.796 261.301 25.468C261.653 24.54 262.013 23.596 262.381 22.636C262.765 21.676 263.149 20.756 263.533 19.876C263.917 18.98 264.285 18.188 264.637 17.5C265.005 16.796 265.349 16.244 265.669 15.844C266.005 15.428 266.301 15.22 266.557 15.22C266.685 15.22 266.797 15.276 266.893 15.388C266.989 15.484 267.037 15.612 267.037 15.772C267.037 16.028 266.901 16.468 266.629 17.092C266.373 17.7 266.029 18.436 265.597 19.3C265.181 20.148 264.741 21.076 264.277 22.084C263.813 23.092 263.365 24.116 262.933 25.156C262.517 26.196 262.173 27.204 261.901 28.18C261.645 29.14 261.517 30.02 261.517 30.82C261.517 31.268 261.541 31.604 261.589 31.828C261.637 32.052 261.797 32.164 262.069 32.164C262.405 32.164 262.797 32.02 263.245 31.732C263.693 31.444 264.141 31.036 264.589 30.508C265.037 29.98 265.429 29.348 265.765 28.612L266.053 28.828C265.749 29.644 265.333 30.38 264.805 31.036C264.277 31.676 263.709 32.18 263.101 32.548C262.509 32.932 261.941 33.124 261.397 33.124C260.805 33.124 260.389 32.924 260.149 32.524C259.925 32.14 259.813 31.74 259.813 31.324C259.813 31.052 259.853 30.692 259.933 30.244C260.013 29.796 260.125 29.3 260.269 28.756C259.757 29.604 259.213 30.372 258.637 31.06C258.061 31.732 257.493 32.26 256.933 32.644C256.389 33.028 255.869 33.22 255.373 33.22ZM267.893 33.556C266.917 33.556 266.181 33.284 265.685 32.74C265.205 32.212 264.965 31.556 264.965 30.772C264.965 30.052 265.141 29.292 265.493 28.492C265.861 27.692 266.341 26.94 266.933 26.236C267.541 25.532 268.205 24.964 268.925 24.532C269.645 24.084 270.357 23.86 271.061 23.86C271.429 23.86 271.765 23.956 272.069 24.148C272.389 24.34 272.549 24.732 272.549 25.324C272.549 25.932 272.365 26.508 271.997 27.052C271.645 27.58 271.173 28.052 270.581 28.468C270.005 28.884 269.365 29.228 268.661 29.5C267.973 29.756 267.285 29.916 266.597 29.98C266.565 30.14 266.541 30.292 266.525 30.436C266.509 30.58 266.501 30.716 266.501 30.844C266.501 31.084 266.525 31.324 266.573 31.564C266.637 31.804 266.741 32.028 266.885 32.236C267.029 32.428 267.221 32.58 267.461 32.692C267.717 32.804 268.029 32.86 268.397 32.86C269.085 32.86 269.765 32.668 270.437 32.284C271.109 31.884 271.733 31.364 272.309 30.724C272.885 30.084 273.373 29.38 273.773 28.612L274.061 28.828C273.629 29.788 273.077 30.62 272.405 31.324C271.749 32.028 271.029 32.572 270.245 32.956C269.477 33.356 268.693 33.556 267.893 33.556ZM266.717 29.524C267.149 29.38 267.637 29.172 268.181 28.9C268.725 28.612 269.245 28.276 269.741 27.892C270.253 27.508 270.669 27.084 270.989 26.62C271.325 26.156 271.493 25.668 271.493 25.156C271.493 24.98 271.461 24.844 271.397 24.748C271.333 24.652 271.197 24.604 270.989 24.604C270.605 24.604 270.197 24.756 269.765 25.06C269.333 25.348 268.917 25.732 268.517 26.212C268.117 26.692 267.757 27.22 267.437 27.796C267.117 28.372 266.877 28.948 266.717 29.524ZM118.364 68.22C118.204 68.22 118.02 68.164 117.812 68.052C117.604 67.956 117.428 67.756 117.284 67.452C117.124 67.148 117.044 66.7 117.044 66.108C117.044 65.404 117.164 64.484 117.404 63.348C117.644 62.228 117.972 60.988 118.388 59.628C118.804 58.268 119.284 56.876 119.828 55.452C120.372 54.012 120.956 52.628 121.58 51.3C122.22 49.956 122.868 48.756 123.524 47.7C124.196 46.628 124.852 45.78 125.492 45.156C126.132 44.532 126.74 44.22 127.316 44.22C127.652 44.22 127.868 44.324 127.964 44.532C128.076 44.74 128.132 44.988 128.132 45.276C128.132 45.964 127.94 46.716 127.556 47.532C127.188 48.348 126.692 49.172 126.068 50.004C125.444 50.82 124.756 51.604 124.004 52.356C123.252 53.092 122.492 53.724 121.724 54.252C121.644 54.444 121.564 54.644 121.484 54.852C121.42 55.044 121.348 55.244 121.268 55.452C121.444 55.484 121.58 55.58 121.676 55.74C121.788 55.884 121.852 56.044 121.868 56.22C121.98 56.94 122.1 57.588 122.228 58.164C122.356 58.724 122.548 59.164 122.804 59.484C123.076 59.804 123.46 59.964 123.956 59.964C124.516 59.964 124.988 59.764 125.372 59.364C125.756 58.948 126.172 58.364 126.62 57.612L126.98 57.852C126.58 58.812 126.068 59.508 125.444 59.94C124.836 60.372 124.3 60.588 123.836 60.588C123.548 60.588 123.244 60.516 122.924 60.372C122.62 60.228 122.332 60.036 122.06 59.796C122.06 60.804 121.948 61.804 121.724 62.796C121.516 63.788 121.236 64.692 120.884 65.508C120.532 66.324 120.14 66.98 119.708 67.476C119.276 67.972 118.828 68.22 118.364 68.22ZM118.988 67.068C119.164 67.068 119.364 66.908 119.588 66.588C119.812 66.268 120.028 65.844 120.236 65.316C120.46 64.804 120.66 64.236 120.836 63.612C121.012 62.988 121.156 62.364 121.268 61.74C121.38 61.116 121.436 60.556 121.436 60.06C121.436 59.564 121.372 59.116 121.244 58.716C121.116 58.3 120.908 57.812 120.62 57.252C120.22 58.452 119.86 59.612 119.54 60.732C119.22 61.852 118.972 62.86 118.796 63.756C118.62 64.652 118.532 65.372 118.532 65.916C118.532 66.684 118.684 67.068 118.988 67.068ZM122.108 53.268C123.148 52.308 124.044 51.348 124.796 50.388C125.564 49.412 126.156 48.548 126.572 47.796C126.988 47.028 127.196 46.484 127.196 46.164C127.196 45.94 127.084 45.828 126.86 45.828C126.444 45.828 125.972 46.172 125.444 46.86C124.916 47.532 124.364 48.428 123.788 49.548C123.212 50.668 122.652 51.908 122.108 53.268ZM127.784 62.268C127.176 62.268 126.704 62.068 126.368 61.668C126.032 61.284 125.864 60.788 125.864 60.18C125.864 59.668 125.968 59.1 126.176 58.476C126.4 57.836 126.704 57.204 127.088 56.58C127.472 55.94 127.904 55.356 128.384 54.828C128.88 54.3 129.408 53.876 129.968 53.556C130.528 53.22 131.096 53.052 131.672 53.052C131.976 53.052 132.208 53.1 132.368 53.196C132.528 53.292 132.64 53.412 132.704 53.556C132.736 53.54 132.76 53.532 132.776 53.532C132.808 53.532 132.84 53.532 132.872 53.532C133.176 53.532 133.384 53.652 133.496 53.892C133.624 54.132 133.688 54.324 133.688 54.468C133.688 54.66 133.608 54.916 133.448 55.236C133.288 55.54 133.128 55.884 132.968 56.268C132.824 56.652 132.752 57.06 132.752 57.492C132.752 57.94 132.864 58.276 133.088 58.5C133.312 58.708 133.672 58.812 134.168 58.812C134.488 58.812 134.824 58.66 135.176 58.356C135.544 58.036 135.904 57.636 136.256 57.156C136.608 56.66 136.92 56.124 137.192 55.548C137.48 54.972 137.696 54.42 137.84 53.892C137.68 53.732 137.6 53.54 137.6 53.316C137.6 52.996 137.664 52.716 137.792 52.476C137.92 52.22 138.064 52.028 138.224 51.9C138.4 51.756 138.528 51.684 138.608 51.684C138.784 51.684 138.88 51.764 138.896 51.924C138.928 52.068 138.944 52.18 138.944 52.26C138.944 52.34 138.896 52.5 138.8 52.74C138.72 52.964 138.68 53.1 138.68 53.148C138.68 53.372 138.8 53.58 139.04 53.772C139.296 53.948 139.584 54.156 139.904 54.396C140.224 54.62 140.504 54.9 140.744 55.236C141 55.556 141.128 55.972 141.128 56.484C141.128 56.964 141.024 57.452 140.816 57.948C140.624 58.444 140.424 58.916 140.216 59.364C140.024 59.812 139.928 60.204 139.928 60.54C139.928 60.828 140 61.02 140.144 61.116C140.288 61.212 140.456 61.26 140.648 61.26C141.032 61.26 141.424 61.14 141.824 60.9C142.24 60.66 142.64 60.356 143.024 59.988C143.408 59.62 143.752 59.236 144.056 58.836C144.36 58.42 144.584 58.036 144.728 57.684L145.04 57.924C144.736 58.596 144.32 59.26 143.792 59.916C143.264 60.556 142.672 61.084 142.016 61.5C141.376 61.916 140.712 62.124 140.024 62.124C139.48 62.124 139.048 61.98 138.728 61.692C138.424 61.404 138.272 61.028 138.272 60.564C138.272 60.084 138.384 59.58 138.608 59.052C138.832 58.524 139.048 58.004 139.256 57.492C139.48 56.964 139.592 56.492 139.592 56.076C139.592 55.564 139.44 55.188 139.136 54.948C138.848 54.692 138.552 54.46 138.248 54.252C138.072 54.796 137.832 55.372 137.528 55.98C137.24 56.572 136.912 57.132 136.544 57.66C136.176 58.172 135.776 58.588 135.344 58.908C134.928 59.228 134.488 59.388 134.024 59.388C133.576 59.388 133.168 59.3 132.8 59.124C132.448 58.932 132.176 58.652 131.984 58.284C131.488 59.452 130.872 60.412 130.136 61.164C129.416 61.9 128.632 62.268 127.784 62.268ZM128.312 61.236C128.68 61.236 129.072 61.076 129.488 60.756C129.904 60.42 130.312 59.972 130.712 59.412C131.112 58.852 131.456 58.228 131.744 57.54C131.648 57.156 131.6 56.7 131.6 56.172C131.6 55.804 131.616 55.484 131.648 55.212C131.696 54.94 131.752 54.7 131.816 54.492C131.896 54.284 131.976 54.116 132.056 53.988C131.512 53.988 131 54.14 130.52 54.444C130.056 54.732 129.632 55.116 129.248 55.596C128.864 56.06 128.536 56.564 128.264 57.108C127.992 57.652 127.776 58.18 127.616 58.692C127.472 59.204 127.4 59.644 127.4 60.012C127.4 60.38 127.48 60.676 127.64 60.9C127.8 61.124 128.024 61.236 128.312 61.236ZM156.319 62.244C155.759 62.244 155.351 62.068 155.095 61.716C154.839 61.38 154.711 60.972 154.711 60.492C154.711 60.092 154.767 59.692 154.879 59.292C155.007 58.892 155.127 58.5 155.239 58.116C155.367 57.732 155.431 57.388 155.431 57.084C155.431 56.764 155.359 56.54 155.215 56.412C155.071 56.284 154.911 56.22 154.735 56.22C154.335 56.22 153.895 56.532 153.415 57.156C152.951 57.78 152.343 58.66 151.591 59.796C151.335 60.18 151.119 60.572 150.943 60.972C150.767 61.356 150.599 61.708 150.439 62.028C150.311 62.028 150.151 62.012 149.959 61.98C149.767 61.948 149.591 61.892 149.431 61.812C149.287 61.748 149.215 61.66 149.215 61.548C149.215 61.436 149.287 61.172 149.431 60.756C149.591 60.324 149.767 59.828 149.959 59.268C150.167 58.692 150.343 58.116 150.487 57.54C150.647 56.948 150.727 56.444 150.727 56.028C150.727 55.756 150.679 55.54 150.583 55.38C150.503 55.204 150.351 55.116 150.127 55.116C149.775 55.116 149.351 55.332 148.855 55.764C148.359 56.18 147.847 56.732 147.319 57.42C146.791 58.108 146.287 58.868 145.807 59.7C145.343 60.516 144.967 61.332 144.679 62.148C144.535 62.148 144.359 62.124 144.151 62.076C143.943 62.028 143.767 61.964 143.623 61.884C143.463 61.804 143.383 61.724 143.383 61.644C143.383 61.548 143.471 61.268 143.647 60.804C143.807 60.324 143.999 59.756 144.223 59.1C144.431 58.428 144.615 57.748 144.775 57.06C144.951 56.372 145.039 55.764 145.039 55.236C145.135 55.124 145.287 55.012 145.495 54.9C145.703 54.788 145.919 54.732 146.143 54.732C146.367 54.732 146.527 54.788 146.623 54.9C146.735 55.012 146.791 55.164 146.791 55.356C146.791 55.564 146.727 55.924 146.599 56.436C146.487 56.932 146.343 57.484 146.167 58.092C146.487 57.58 146.847 57.06 147.247 56.532C147.663 55.988 148.095 55.492 148.543 55.044C148.991 54.596 149.439 54.236 149.887 53.964C150.351 53.676 150.799 53.532 151.231 53.532C151.727 53.532 152.063 53.716 152.239 54.084C152.431 54.436 152.527 54.86 152.527 55.356C152.527 55.756 152.479 56.18 152.383 56.628C152.303 57.06 152.207 57.468 152.095 57.852C151.983 58.22 151.879 58.516 151.783 58.74C152.119 58.132 152.487 57.548 152.887 56.988C153.303 56.412 153.751 55.948 154.231 55.596C154.711 55.228 155.223 55.044 155.767 55.044C156.279 55.044 156.631 55.196 156.823 55.5C157.031 55.804 157.135 56.164 157.135 56.58C157.135 56.996 157.063 57.452 156.919 57.948C156.775 58.444 156.623 58.924 156.463 59.388C156.319 59.852 156.247 60.252 156.247 60.588C156.247 60.796 156.295 60.988 156.391 61.164C156.503 61.324 156.695 61.404 156.967 61.404C157.415 61.404 157.831 61.204 158.215 60.804C158.615 60.388 158.983 59.892 159.319 59.316C159.655 58.724 159.943 58.156 160.183 57.612L160.471 57.948C160.215 58.62 159.887 59.292 159.487 59.964C159.087 60.62 158.615 61.164 158.071 61.596C157.543 62.028 156.959 62.244 156.319 62.244ZM160.89 62.628C160.394 62.628 159.978 62.46 159.642 62.124C159.29 61.804 159.114 61.308 159.114 60.636C159.114 60.06 159.242 59.444 159.498 58.788C159.754 58.116 160.106 57.46 160.554 56.82C161.002 56.164 161.506 55.572 162.066 55.044C162.642 54.5 163.242 54.068 163.866 53.748C164.506 53.428 165.138 53.268 165.762 53.268C166.386 53.268 166.906 53.436 167.322 53.772C167.738 54.092 167.946 54.524 167.946 55.068C167.946 55.468 167.834 55.74 167.61 55.884C167.402 56.028 167.122 56.1 166.77 56.1C166.802 55.972 166.826 55.836 166.842 55.692C166.874 55.532 166.89 55.388 166.89 55.26C166.89 54.892 166.802 54.58 166.626 54.324C166.45 54.052 166.146 53.916 165.714 53.916C165.266 53.916 164.81 54.076 164.346 54.396C163.882 54.7 163.434 55.116 163.002 55.644C162.57 56.156 162.186 56.716 161.85 57.324C161.514 57.932 161.25 58.532 161.058 59.124C160.866 59.716 160.77 60.244 160.77 60.708C160.77 61.332 160.986 61.644 161.418 61.644C161.786 61.644 162.186 61.476 162.618 61.14C163.05 60.788 163.49 60.348 163.938 59.82C164.402 59.276 164.842 58.716 165.258 58.14C165.674 57.564 166.042 57.036 166.362 56.556C166.426 56.46 166.466 56.412 166.482 56.412C166.578 56.428 166.698 56.46 166.842 56.508C167.002 56.556 167.138 56.62 167.25 56.7C167.362 56.78 167.418 56.884 167.418 57.012C167.418 57.156 167.346 57.356 167.202 57.612C167.058 57.852 166.898 58.132 166.722 58.452C166.546 58.772 166.386 59.1 166.242 59.436C166.098 59.756 166.026 60.06 166.026 60.348C166.026 60.588 166.09 60.828 166.218 61.068C166.346 61.292 166.554 61.404 166.842 61.404C167.274 61.404 167.842 61.092 168.546 60.468C169.25 59.828 169.962 58.876 170.682 57.612L170.922 57.852C170.586 58.716 170.154 59.476 169.626 60.132C169.098 60.788 168.53 61.3 167.922 61.668C167.33 62.036 166.746 62.22 166.17 62.22C165.578 62.22 165.138 62.044 164.85 61.692C164.578 61.34 164.442 60.956 164.442 60.54C164.442 60.444 164.45 60.34 164.466 60.228C164.482 60.1 164.498 59.972 164.514 59.844C163.826 60.772 163.194 61.468 162.618 61.932C162.058 62.396 161.482 62.628 160.89 62.628ZM171.151 61.74C170.943 61.74 170.759 61.684 170.599 61.572C170.455 61.476 170.383 61.316 170.383 61.092C170.383 60.916 170.455 60.756 170.599 60.612C170.743 60.452 170.919 60.332 171.127 60.252C171.351 60.156 171.567 60.108 171.775 60.108C171.967 60.108 172.119 60.148 172.231 60.228C172.343 60.308 172.399 60.46 172.399 60.684C172.399 60.844 172.335 61.004 172.207 61.164C172.095 61.324 171.943 61.46 171.751 61.572C171.559 61.684 171.359 61.74 171.151 61.74Z" fill="black"/>
</g>
<defs>
<filter id="filter0_d_105_3" x="0.5" y="0.5" width="297" height="82" filterUnits="userSpaceOnUse" color-interpolation-filters="sRGB">
<feFlood flood-opacity="0" result="BackgroundImageFix"/>
<feColorMatrix in="SourceAlpha" type="matrix" values="0 0 0 0 0 0 0 0 0 0 0 0 0 0 0 0 0 0 127 0" result="hardAlpha"/>
<feOffset dx="2" dy="2"/>
<feGaussianBlur stdDeviation="1"/>
<feComposite in2="hardAlpha" operator="out"/>
<feColorMatrix type="matrix" values="0 0 0 0 0.333333 0 0 0 0 0.333333 0 0 0 0 0.333333 0 0 0 0.5 0"/>
<feBlend mode="normal" in2="BackgroundImageFix" result="effect1_dropShadow_105_3"/>
<feBlend mode="normal" in="SourceGraphic" in2="effect1_dropShadow_105_3" result="shape"/>
</filter>
</defs>
</svg>
