<svg width="298" height="83" viewBox="0 0 298 83" fill="none" xmlns="http://www.w3.org/2000/svg">
<g filter="url(#filter0_d_105_3)">
<rect width="293" height="78" transform="translate(0.5 0.5)" fill="#E4EDF1"/>
<path d="M49.2392 34.588C48.3752 34.588 47.5592 34.428 46.7912 34.108C46.0232 33.804 45.3992 33.332 44.9192 32.692C44.4552 32.052 44.2232 31.252 44.2232 30.292C44.2232 29.46 44.3832 28.812 44.7032 28.348C45.0392 27.884 45.4472 27.556 45.9272 27.364C46.4072 27.172 46.8632 27.076 47.2952 27.076C46.8632 27.54 46.5352 28.052 46.3112 28.612C46.0872 29.172 45.9752 29.732 45.9752 30.292C45.9752 30.884 46.1032 31.436 46.3592 31.948C46.6312 32.46 47.0392 32.868 47.5832 33.172C48.1272 33.492 48.8152 33.652 49.6472 33.652C50.3672 33.652 51.0712 33.516 51.7592 33.244C52.4472 32.988 53.0072 32.604 53.4392 32.092C53.8872 31.564 54.1112 30.916 54.1112 30.148C54.1112 29.46 53.9352 28.868 53.5832 28.372C53.2312 27.876 52.7752 27.436 52.2152 27.052C51.6712 26.668 51.0872 26.3 50.4632 25.948C49.8392 25.596 49.2472 25.228 48.6872 24.844C48.1432 24.444 47.6952 23.988 47.3432 23.476C46.9912 22.964 46.8152 22.348 46.8152 21.628C46.8152 20.956 46.9752 20.252 47.2952 19.516C47.6152 18.78 48.0712 18.084 48.6632 17.428C49.2712 16.772 49.9912 16.244 50.8232 15.844C51.6712 15.428 52.6152 15.22 53.6552 15.22C54.5992 15.22 55.2552 15.452 55.6232 15.916C55.9912 16.364 56.1752 16.932 56.1752 17.62C56.1752 18.196 56.0712 18.82 55.8632 19.492C55.6712 20.148 55.4312 20.78 55.1432 21.388C54.8552 21.98 54.5832 22.484 54.3272 22.9C54.0392 22.836 53.8312 22.716 53.7032 22.54C53.5912 22.348 53.5352 22.124 53.5352 21.868C53.5352 21.532 53.6072 21.148 53.7512 20.716C53.8952 20.284 54.0552 19.836 54.2312 19.372C54.4232 18.908 54.5912 18.46 54.7352 18.028C54.8792 17.58 54.9512 17.18 54.9512 16.828C54.9512 16.508 54.8552 16.26 54.6632 16.084C54.4712 15.892 54.1192 15.796 53.6072 15.796C52.8552 15.796 52.1592 15.972 51.5192 16.324C50.8792 16.676 50.3192 17.132 49.8392 17.692C49.3592 18.236 48.9832 18.812 48.7112 19.42C48.4552 20.028 48.3272 20.58 48.3272 21.076C48.3272 21.668 48.4952 22.18 48.8312 22.612C49.1832 23.028 49.6312 23.412 50.1752 23.764C50.7192 24.1 51.2952 24.444 51.9032 24.796C52.5272 25.132 53.1112 25.508 53.6552 25.924C54.1992 26.34 54.6392 26.836 54.9752 27.412C55.3272 27.972 55.5032 28.66 55.5032 29.476C55.5032 30.308 55.3192 31.044 54.9512 31.684C54.5832 32.308 54.0872 32.836 53.4632 33.268C52.8552 33.7 52.1832 34.028 51.4472 34.252C50.7112 34.476 49.9752 34.588 49.2392 34.588ZM59.8264 33.556C58.8504 33.556 58.1144 33.284 57.6184 32.74C57.1384 32.212 56.8984 31.556 56.8984 30.772C56.8984 30.052 57.0744 29.292 57.4264 28.492C57.7944 27.692 58.2744 26.94 58.8664 26.236C59.4744 25.532 60.1384 24.964 60.8584 24.532C61.5784 24.084 62.2904 23.86 62.9944 23.86C63.3624 23.86 63.6984 23.956 64.0024 24.148C64.3224 24.34 64.4824 24.732 64.4824 25.324C64.4824 25.932 64.2984 26.508 63.9304 27.052C63.5784 27.58 63.1064 28.052 62.5144 28.468C61.9384 28.884 61.2984 29.228 60.5944 29.5C59.9064 29.756 59.2184 29.916 58.5304 29.98C58.4984 30.14 58.4744 30.292 58.4584 30.436C58.4424 30.58 58.4344 30.716 58.4344 30.844C58.4344 31.084 58.4584 31.324 58.5064 31.564C58.5704 31.804 58.6744 32.028 58.8184 32.236C58.9624 32.428 59.1544 32.58 59.3944 32.692C59.6504 32.804 59.9624 32.86 60.3304 32.86C61.0184 32.86 61.6984 32.668 62.3704 32.284C63.0424 31.884 63.6664 31.364 64.2424 30.724C64.8184 30.084 65.3064 29.38 65.7064 28.612L65.9944 28.828C65.5624 29.788 65.0104 30.62 64.3384 31.324C63.6824 32.028 62.9624 32.572 62.1784 32.956C61.4104 33.356 60.6264 33.556 59.8264 33.556ZM58.6504 29.524C59.0824 29.38 59.5704 29.172 60.1144 28.9C60.6584 28.612 61.1784 28.276 61.6744 27.892C62.1864 27.508 62.6024 27.084 62.9224 26.62C63.2584 26.156 63.4264 25.668 63.4264 25.156C63.4264 24.98 63.3944 24.844 63.3304 24.748C63.2664 24.652 63.1304 24.604 62.9224 24.604C62.5384 24.604 62.1304 24.756 61.6984 25.06C61.2664 25.348 60.8504 25.732 60.4504 26.212C60.0504 26.692 59.6904 27.22 59.3704 27.796C59.0504 28.372 58.8104 28.948 58.6504 29.524ZM61.8666 39.22C61.4666 39.22 61.1626 39.1 60.9546 38.86C60.7306 38.636 60.6186 38.348 60.6186 37.996C60.6186 37.404 60.9066 36.756 61.4826 36.052C62.0426 35.348 62.7626 34.748 63.6426 34.252C63.8666 34.124 64.1066 34.004 64.3626 33.892C64.6026 33.78 64.8746 33.644 65.1786 33.484C65.4986 32.716 65.7946 31.844 66.0666 30.868C66.3386 29.876 66.5786 28.78 66.7866 27.58C66.5466 28.012 66.3226 28.388 66.1146 28.708C65.9226 29.028 65.7706 29.284 65.6586 29.476L65.4426 29.116C65.7146 28.62 65.9546 28.092 66.1626 27.532C66.3866 26.956 66.5946 26.412 66.7866 25.9C66.9946 25.388 67.2026 24.972 67.4106 24.652C67.6186 24.332 67.8426 24.172 68.0826 24.172C68.2586 24.172 68.3946 24.244 68.4906 24.388C68.6026 24.516 68.6586 24.684 68.6586 24.892C68.6586 25.068 68.6106 25.412 68.5146 25.924C68.4346 26.42 68.3066 27.036 68.1306 27.772C67.9706 28.492 67.7706 29.276 67.5306 30.124C67.2906 30.972 67.0266 31.828 66.7386 32.692C67.2026 32.42 67.6666 32.14 68.1306 31.852C68.5946 31.564 69.0586 31.18 69.5226 30.7C70.0026 30.22 70.4666 29.564 70.9146 28.732L71.2266 28.9C70.8266 29.844 70.3466 30.596 69.7866 31.156C69.2426 31.7 68.6826 32.132 68.1066 32.452C67.5306 32.772 66.9946 33.076 66.4986 33.364C66.1466 34.356 65.7306 35.3 65.2506 36.196C64.7866 37.092 64.2746 37.82 63.7146 38.38C63.1386 38.94 62.5226 39.22 61.8666 39.22ZM61.6506 38.404C61.9706 38.404 62.4346 38.052 63.0426 37.348C63.6346 36.66 64.2426 35.628 64.8666 34.252C63.6506 34.844 62.7466 35.46 62.1546 36.1C61.5466 36.74 61.2426 37.316 61.2426 37.828C61.2426 38.036 61.2826 38.18 61.3626 38.26C61.4426 38.356 61.5386 38.404 61.6506 38.404ZM68.4666 22.012C68.2106 22.012 67.9866 21.948 67.7946 21.82C67.6026 21.692 67.5066 21.5 67.5066 21.244C67.5066 21.004 67.5946 20.788 67.7706 20.596C67.9626 20.404 68.1946 20.252 68.4666 20.14C68.7386 20.028 69.0026 19.972 69.2586 19.972C69.4826 19.972 69.6666 20.028 69.8106 20.14C69.9706 20.252 70.0506 20.42 70.0506 20.644C70.0506 20.996 69.8826 21.316 69.5466 21.604C69.2266 21.876 68.8666 22.012 68.4666 22.012ZM71.6051 33.628C71.1091 33.628 70.6931 33.46 70.3571 33.124C70.0051 32.804 69.8291 32.308 69.8291 31.636C69.8291 31.06 69.9571 30.444 70.2131 29.788C70.4691 29.116 70.8211 28.46 71.2691 27.82C71.7171 27.164 72.2211 26.572 72.7811 26.044C73.3571 25.5 73.9571 25.068 74.5811 24.748C75.2211 24.428 75.8531 24.268 76.4771 24.268C77.1011 24.268 77.6211 24.436 78.0371 24.772C78.4531 25.092 78.6611 25.524 78.6611 26.068C78.6611 26.468 78.5491 26.74 78.3251 26.884C78.1171 27.028 77.8371 27.1 77.4851 27.1C77.5171 26.972 77.5411 26.836 77.5571 26.692C77.5891 26.532 77.6051 26.388 77.6051 26.26C77.6051 25.892 77.5171 25.58 77.3411 25.324C77.1651 25.052 76.8611 24.916 76.4291 24.916C75.9811 24.916 75.5251 25.076 75.0611 25.396C74.5971 25.7 74.1491 26.116 73.7171 26.644C73.2851 27.156 72.9011 27.716 72.5651 28.324C72.2291 28.932 71.9651 29.532 71.7731 30.124C71.5811 30.716 71.4851 31.244 71.4851 31.708C71.4851 32.332 71.7011 32.644 72.1331 32.644C72.5011 32.644 72.9011 32.476 73.3331 32.14C73.7651 31.788 74.2051 31.348 74.6531 30.82C75.1171 30.276 75.5571 29.716 75.9731 29.14C76.3891 28.564 76.7571 28.036 77.0771 27.556C77.1411 27.46 77.1811 27.412 77.1971 27.412C77.2931 27.428 77.4131 27.46 77.5571 27.508C77.7171 27.556 77.8531 27.62 77.9651 27.7C78.0771 27.78 78.1331 27.884 78.1331 28.012C78.1331 28.156 78.0611 28.356 77.9171 28.612C77.7731 28.852 77.6131 29.132 77.4371 29.452C77.2611 29.772 77.1011 30.1 76.9571 30.436C76.8131 30.756 76.7411 31.06 76.7411 31.348C76.7411 31.588 76.8051 31.828 76.9331 32.068C77.0611 32.292 77.2691 32.404 77.5571 32.404C77.9891 32.404 78.5571 32.092 79.2611 31.468C79.9651 30.828 80.6771 29.876 81.3971 28.612L81.6371 28.852C81.3011 29.716 80.8691 30.476 80.3411 31.132C79.8131 31.788 79.2451 32.3 78.6371 32.668C78.0451 33.036 77.4611 33.22 76.8851 33.22C76.2931 33.22 75.8531 33.044 75.5651 32.692C75.2931 32.34 75.1571 31.956 75.1571 31.54C75.1571 31.444 75.1651 31.34 75.1811 31.228C75.1971 31.1 75.2131 30.972 75.2291 30.844C74.5411 31.772 73.9091 32.468 73.3331 32.932C72.7731 33.396 72.1971 33.628 71.6051 33.628ZM86.8286 39.22C86.6686 39.22 86.4846 39.164 86.2766 39.052C86.0686 38.956 85.8926 38.756 85.7486 38.452C85.5886 38.148 85.5086 37.7 85.5086 37.108C85.5086 36.404 85.6286 35.484 85.8686 34.348C86.1086 33.228 86.4366 31.988 86.8526 30.628C87.2686 29.268 87.7486 27.876 88.2926 26.452C88.8366 25.012 89.4206 23.628 90.0446 22.3C90.6846 20.956 91.3326 19.756 91.9886 18.7C92.6606 17.628 93.3166 16.78 93.9566 16.156C94.5966 15.532 95.2046 15.22 95.7806 15.22C96.1166 15.22 96.3326 15.324 96.4286 15.532C96.5406 15.74 96.5966 15.988 96.5966 16.276C96.5966 16.964 96.4046 17.716 96.0206 18.532C95.6526 19.348 95.1566 20.172 94.5326 21.004C93.9086 21.82 93.2206 22.604 92.4686 23.356C91.7166 24.092 90.9566 24.724 90.1886 25.252C90.1086 25.444 90.0286 25.644 89.9486 25.852C89.8846 26.044 89.8126 26.244 89.7326 26.452C89.9086 26.484 90.0446 26.58 90.1406 26.74C90.2526 26.884 90.3166 27.044 90.3326 27.22C90.4446 27.94 90.5646 28.588 90.6926 29.164C90.8206 29.724 91.0126 30.164 91.2686 30.484C91.5406 30.804 91.9246 30.964 92.4206 30.964C92.9806 30.964 93.4526 30.764 93.8366 30.364C94.2206 29.948 94.6366 29.364 95.0846 28.612L95.4446 28.852C95.0446 29.812 94.5326 30.508 93.9086 30.94C93.3006 31.372 92.7646 31.588 92.3006 31.588C92.0126 31.588 91.7086 31.516 91.3886 31.372C91.0846 31.228 90.7966 31.036 90.5246 30.796C90.5246 31.804 90.4126 32.804 90.1886 33.796C89.9806 34.788 89.7006 35.692 89.3486 36.508C88.9966 37.324 88.6046 37.98 88.1726 38.476C87.7406 38.972 87.2926 39.22 86.8286 39.22ZM87.4526 38.068C87.6286 38.068 87.8286 37.908 88.0526 37.588C88.2766 37.268 88.4926 36.844 88.7006 36.316C88.9246 35.804 89.1246 35.236 89.3006 34.612C89.4766 33.988 89.6206 33.364 89.7326 32.74C89.8446 32.116 89.9006 31.556 89.9006 31.06C89.9006 30.564 89.8366 30.116 89.7086 29.716C89.5806 29.3 89.3726 28.812 89.0846 28.252C88.6846 29.452 88.3246 30.612 88.0046 31.732C87.6846 32.852 87.4366 33.86 87.2606 34.756C87.0846 35.652 86.9966 36.372 86.9966 36.916C86.9966 37.684 87.1486 38.068 87.4526 38.068ZM90.5726 24.268C91.6126 23.308 92.5086 22.348 93.2606 21.388C94.0286 20.412 94.6206 19.548 95.0366 18.796C95.4526 18.028 95.6606 17.484 95.6606 17.164C95.6606 16.94 95.5486 16.828 95.3246 16.828C94.9086 16.828 94.4366 17.172 93.9086 17.86C93.3806 18.532 92.8286 19.428 92.2526 20.548C91.6766 21.668 91.1166 22.908 90.5726 24.268ZM97.2092 33.556C96.2332 33.556 95.4972 33.284 95.0012 32.74C94.5212 32.212 94.2812 31.556 94.2812 30.772C94.2812 30.052 94.4572 29.292 94.8092 28.492C95.1772 27.692 95.6572 26.94 96.2492 26.236C96.8572 25.532 97.5212 24.964 98.2412 24.532C98.9612 24.084 99.6732 23.86 100.377 23.86C100.745 23.86 101.081 23.956 101.385 24.148C101.705 24.34 101.865 24.732 101.865 25.324C101.865 25.932 101.681 26.508 101.313 27.052C100.961 27.58 100.489 28.052 99.8972 28.468C99.3212 28.884 98.6812 29.228 97.9772 29.5C97.2892 29.756 96.6012 29.916 95.9132 29.98C95.8812 30.14 95.8572 30.292 95.8412 30.436C95.8252 30.58 95.8172 30.716 95.8172 30.844C95.8172 31.084 95.8412 31.324 95.8892 31.564C95.9532 31.804 96.0572 32.028 96.2012 32.236C96.3452 32.428 96.5372 32.58 96.7772 32.692C97.0332 32.804 97.3452 32.86 97.7132 32.86C98.4012 32.86 99.0812 32.668 99.7532 32.284C100.425 31.884 101.049 31.364 101.625 30.724C102.201 30.084 102.689 29.38 103.089 28.612L103.377 28.828C102.945 29.788 102.393 30.62 101.721 31.324C101.065 32.028 100.345 32.572 99.5612 32.956C98.7932 33.356 98.0092 33.556 97.2092 33.556ZM96.0332 29.524C96.4652 29.38 96.9532 29.172 97.4972 28.9C98.0412 28.612 98.5612 28.276 99.0572 27.892C99.5692 27.508 99.9852 27.084 100.305 26.62C100.641 26.156 100.809 25.668 100.809 25.156C100.809 24.98 100.777 24.844 100.713 24.748C100.649 24.652 100.513 24.604 100.305 24.604C99.9212 24.604 99.5132 24.756 99.0812 25.06C98.6492 25.348 98.2332 25.732 97.8332 26.212C97.4332 26.692 97.0732 27.22 96.7532 27.796C96.4332 28.372 96.1932 28.948 96.0332 29.524ZM104.601 33.22C103.913 33.22 103.417 32.98 103.113 32.5C102.825 32.036 102.681 31.452 102.681 30.748C102.681 29.98 102.825 29.068 103.113 28.012C103.401 26.956 103.777 25.844 104.241 24.676C104.721 23.508 105.241 22.372 105.801 21.268C106.361 20.148 106.921 19.132 107.481 18.22C108.041 17.308 108.553 16.58 109.017 16.036C109.497 15.492 109.873 15.22 110.145 15.22C110.321 15.22 110.465 15.324 110.577 15.532C110.689 15.724 110.777 15.964 110.841 16.252C110.905 16.524 110.937 16.772 110.937 16.996C110.937 17.428 110.825 17.996 110.601 18.7C110.393 19.388 110.089 20.164 109.689 21.028C109.305 21.876 108.841 22.74 108.297 23.62C107.769 24.484 107.185 25.316 106.545 26.116C105.921 26.916 105.257 27.604 104.553 28.18C104.457 28.612 104.377 29.036 104.313 29.452C104.265 29.852 104.241 30.236 104.241 30.604C104.241 31.228 104.329 31.692 104.505 31.996C104.681 32.3 104.945 32.452 105.297 32.452C105.729 32.452 106.153 32.26 106.569 31.876C107.001 31.492 107.401 31.012 107.769 30.436C108.153 29.844 108.481 29.236 108.753 28.612L109.113 28.804C108.473 30.164 107.777 31.244 107.025 32.044C106.273 32.828 105.465 33.22 104.601 33.22ZM104.769 27.364C105.329 26.804 105.873 26.164 106.401 25.444C106.929 24.708 107.417 23.948 107.865 23.164C108.329 22.38 108.737 21.62 109.089 20.884C109.441 20.148 109.713 19.492 109.905 18.916C110.097 18.324 110.193 17.868 110.193 17.548C110.193 17.388 110.169 17.284 110.121 17.236C110.089 17.188 110.057 17.164 110.025 17.164C109.897 17.164 109.673 17.372 109.353 17.788C109.049 18.188 108.689 18.732 108.273 19.42C107.857 20.108 107.433 20.892 107.001 21.772C106.569 22.652 106.153 23.572 105.753 24.532C105.369 25.492 105.041 26.436 104.769 27.364ZM110.009 33.124C109.385 33.124 108.921 32.924 108.617 32.524C108.313 32.14 108.161 31.668 108.161 31.108C108.161 30.74 108.225 30.276 108.353 29.716C108.497 29.156 108.681 28.572 108.905 27.964C109.129 27.34 109.385 26.756 109.673 26.212C109.977 25.668 110.297 25.228 110.633 24.892C110.969 24.54 111.297 24.364 111.617 24.364C111.761 24.364 111.881 24.412 111.977 24.508C112.089 24.588 112.145 24.716 112.145 24.892C112.145 25.084 112.017 25.396 111.761 25.828C111.521 26.26 111.233 26.756 110.897 27.316C110.561 27.876 110.265 28.468 110.009 29.092C109.769 29.7 109.649 30.284 109.649 30.844C109.649 31.42 109.745 31.804 109.937 31.996C110.129 32.188 110.425 32.284 110.825 32.284C111.369 32.284 111.945 32.012 112.553 31.468C113.177 30.924 113.833 29.972 114.521 28.612L114.737 28.852C114.273 30.228 113.601 31.284 112.721 32.02C111.857 32.756 110.953 33.124 110.009 33.124ZM112.889 22.132C112.633 22.132 112.401 22.068 112.193 21.94C112.001 21.812 111.905 21.612 111.905 21.34C111.905 21.004 112.097 20.716 112.481 20.476C112.881 20.22 113.273 20.092 113.657 20.092C113.897 20.092 114.089 20.148 114.233 20.26C114.377 20.372 114.449 20.564 114.449 20.836C114.449 21.14 114.281 21.436 113.945 21.724C113.625 21.996 113.273 22.132 112.889 22.132ZM113.95 39.22C113.454 39.22 113.07 39.124 112.798 38.932C112.51 38.756 112.366 38.444 112.366 37.996C112.366 37.484 112.542 37.004 112.894 36.556C113.23 36.124 113.686 35.708 114.262 35.308C114.838 34.908 115.47 34.5 116.158 34.084C116.862 33.684 117.558 33.252 118.246 32.788C118.246 32.212 118.126 31.684 117.886 31.204C117.646 30.724 117.214 30.236 116.59 29.74C117.15 29.58 117.622 29.3 118.006 28.9C118.406 28.5 118.702 28.06 118.894 27.58C119.102 27.084 119.206 26.628 119.206 26.212C119.206 25.844 119.126 25.54 118.966 25.3C118.822 25.06 118.59 24.94 118.27 24.94C117.742 24.94 117.27 25.14 116.854 25.54C116.438 25.94 116.054 26.468 115.702 27.124C115.35 27.78 114.99 28.5 114.622 29.284L114.334 29.044C114.686 28.084 115.046 27.228 115.414 26.476C115.798 25.724 116.246 25.132 116.758 24.7C117.27 24.252 117.886 24.028 118.606 24.028C119.15 24.028 119.614 24.204 119.998 24.556C120.398 24.908 120.598 25.388 120.598 25.996C120.598 26.572 120.462 27.108 120.19 27.604C119.918 28.1 119.566 28.54 119.134 28.924C118.702 29.292 118.246 29.596 117.766 29.836C118.182 30.156 118.526 30.5 118.798 30.868C119.086 31.22 119.302 31.596 119.446 31.996C120.054 31.532 120.59 31.028 121.054 30.484C121.534 29.924 121.886 29.3 122.11 28.612L122.374 28.9C122.15 29.62 121.79 30.276 121.294 30.868C120.798 31.444 120.23 31.972 119.59 32.452C119.622 32.564 119.646 32.692 119.662 32.836C119.678 32.98 119.686 33.116 119.686 33.244C119.686 33.964 119.526 34.676 119.206 35.38C118.886 36.1 118.454 36.748 117.91 37.324C117.366 37.9 116.75 38.356 116.062 38.692C115.39 39.044 114.686 39.22 113.95 39.22ZM113.782 38.524C114.07 38.524 114.446 38.404 114.91 38.164C115.374 37.94 115.846 37.604 116.326 37.156C116.806 36.724 117.222 36.188 117.574 35.548C117.926 34.908 118.142 34.172 118.222 33.34C117.582 33.74 116.95 34.116 116.326 34.468C115.718 34.836 115.166 35.188 114.67 35.524C114.174 35.876 113.782 36.228 113.494 36.58C113.19 36.948 113.038 37.332 113.038 37.732C113.038 38.004 113.11 38.204 113.254 38.332C113.398 38.46 113.574 38.524 113.782 38.524ZM121.856 34.612C121.712 34.532 121.607 34.412 121.543 34.252C121.479 34.092 121.447 33.916 121.447 33.724C121.447 33.404 121.519 33.036 121.663 32.62C121.808 32.22 121.992 31.876 122.216 31.588C122.44 31.3 122.672 31.156 122.912 31.156C123.072 31.156 123.208 31.228 123.32 31.372C123.448 31.5 123.512 31.652 123.512 31.828C123.064 32.292 122.728 32.756 122.504 33.22C122.296 33.684 122.08 34.148 121.856 34.612ZM131.121 39.22C130.993 39.22 130.873 39.148 130.761 39.004C130.633 38.876 130.537 38.732 130.473 38.572C130.409 38.428 130.377 38.34 130.377 38.308C130.601 37.524 130.825 36.82 131.049 36.196C131.257 35.588 131.473 34.956 131.697 34.3C131.905 33.66 132.113 32.908 132.321 32.044C132.529 31.164 132.745 30.076 132.969 28.78C133.193 27.484 133.417 25.876 133.641 23.956C133.657 23.812 133.689 23.708 133.737 23.644C133.785 23.58 133.905 23.548 134.097 23.548C134.513 23.548 134.809 23.668 134.985 23.908C135.161 24.132 135.249 24.38 135.249 24.652C135.249 24.876 135.201 25.276 135.105 25.852C135.009 26.428 134.873 27.108 134.697 27.892C134.969 27.364 135.305 26.828 135.705 26.284C136.121 25.74 136.593 25.284 137.121 24.916C137.649 24.548 138.225 24.364 138.849 24.364C139.553 24.364 140.129 24.62 140.577 25.132C141.041 25.628 141.273 26.284 141.273 27.1C141.273 27.724 141.129 28.388 140.841 29.092C140.569 29.78 140.177 30.436 139.665 31.06C139.169 31.668 138.577 32.164 137.889 32.548C137.201 32.932 136.441 33.124 135.609 33.124C135.193 33.124 134.857 33.076 134.601 32.98C134.345 32.884 134.217 32.788 134.217 32.692C134.217 32.628 134.273 32.588 134.385 32.572C134.513 32.572 134.657 32.572 134.817 32.572C135.457 32.572 136.065 32.42 136.641 32.116C137.233 31.796 137.761 31.38 138.225 30.868C138.689 30.356 139.049 29.788 139.305 29.164C139.577 28.54 139.713 27.924 139.713 27.316C139.713 26.804 139.601 26.372 139.377 26.02C139.169 25.652 138.825 25.468 138.345 25.468C137.929 25.468 137.513 25.604 137.097 25.876C136.697 26.132 136.313 26.468 135.945 26.884C135.593 27.284 135.273 27.708 134.985 28.156C134.713 28.588 134.505 28.98 134.361 29.332C134.073 30.532 133.785 31.684 133.497 32.788C133.209 33.908 132.929 34.916 132.657 35.812C132.401 36.724 132.169 37.468 131.961 38.044C131.737 38.62 131.553 38.972 131.409 39.1C131.329 39.18 131.233 39.22 131.121 39.22ZM144.6 33.556C143.624 33.556 142.888 33.284 142.392 32.74C141.912 32.212 141.672 31.556 141.672 30.772C141.672 30.052 141.848 29.292 142.2 28.492C142.568 27.692 143.048 26.94 143.64 26.236C144.248 25.532 144.912 24.964 145.632 24.532C146.352 24.084 147.064 23.86 147.768 23.86C148.136 23.86 148.472 23.956 148.776 24.148C149.096 24.34 149.256 24.732 149.256 25.324C149.256 25.932 149.072 26.508 148.704 27.052C148.352 27.58 147.88 28.052 147.288 28.468C146.712 28.884 146.072 29.228 145.368 29.5C144.68 29.756 143.992 29.916 143.304 29.98C143.272 30.14 143.248 30.292 143.232 30.436C143.216 30.58 143.208 30.716 143.208 30.844C143.208 31.084 143.232 31.324 143.28 31.564C143.344 31.804 143.448 32.028 143.592 32.236C143.736 32.428 143.928 32.58 144.168 32.692C144.424 32.804 144.736 32.86 145.104 32.86C145.792 32.86 146.472 32.668 147.144 32.284C147.816 31.884 148.44 31.364 149.016 30.724C149.592 30.084 150.08 29.38 150.48 28.612L150.768 28.828C150.336 29.788 149.784 30.62 149.112 31.324C148.456 32.028 147.736 32.572 146.952 32.956C146.184 33.356 145.4 33.556 144.6 33.556ZM143.424 29.524C143.856 29.38 144.344 29.172 144.888 28.9C145.432 28.612 145.952 28.276 146.448 27.892C146.96 27.508 147.376 27.084 147.696 26.62C148.032 26.156 148.2 25.668 148.2 25.156C148.2 24.98 148.168 24.844 148.104 24.748C148.04 24.652 147.904 24.604 147.696 24.604C147.312 24.604 146.904 24.756 146.472 25.06C146.04 25.348 145.624 25.732 145.224 26.212C144.824 26.692 144.464 27.22 144.144 27.796C143.824 28.372 143.584 28.948 143.424 29.524ZM157.752 32.98C157.192 32.98 156.768 32.836 156.48 32.548C156.208 32.26 156.072 31.892 156.072 31.444C156.072 31.108 156.128 30.756 156.24 30.388C156.368 30.02 156.488 29.644 156.6 29.26C156.712 28.86 156.768 28.476 156.768 28.108C156.768 27.66 156.672 27.356 156.48 27.196C156.304 27.02 156.08 26.932 155.808 26.932C155.312 26.932 154.808 27.14 154.296 27.556C153.784 27.956 153.288 28.476 152.808 29.116C152.328 29.74 151.88 30.388 151.464 31.06C151.048 31.732 150.68 32.332 150.36 32.86C150.104 32.86 149.864 32.812 149.64 32.716C149.4 32.636 149.216 32.508 149.088 32.332C149.088 32.252 149.176 32.004 149.352 31.588C149.512 31.172 149.704 30.66 149.928 30.052C150.152 29.444 150.352 28.82 150.528 28.18C150.704 27.54 150.792 26.956 150.792 26.428C150.888 26.316 151.04 26.204 151.248 26.092C151.456 25.98 151.672 25.924 151.896 25.924C152.328 25.924 152.544 26.132 152.544 26.548C152.544 26.804 152.472 27.236 152.328 27.844C152.184 28.436 152 29.06 151.776 29.716C152.208 29.06 152.688 28.412 153.216 27.772C153.76 27.116 154.336 26.572 154.944 26.14C155.552 25.708 156.16 25.492 156.768 25.492C157.392 25.492 157.84 25.716 158.112 26.164C158.4 26.612 158.544 27.108 158.544 27.652C158.544 28.148 158.464 28.612 158.304 29.044C158.144 29.46 157.976 29.868 157.8 30.268C157.64 30.652 157.56 31.044 157.56 31.444C157.56 31.78 157.624 32.02 157.752 32.164C157.896 32.292 158.072 32.356 158.28 32.356C158.68 32.356 159.08 32.172 159.48 31.804C159.88 31.42 160.264 30.94 160.632 30.364C161.016 29.788 161.352 29.204 161.64 28.612L161.904 28.924C161.568 29.708 161.192 30.404 160.776 31.012C160.36 31.62 159.904 32.1 159.408 32.452C158.912 32.804 158.36 32.98 157.752 32.98ZM163.7 33.724C162.948 33.724 162.348 33.556 161.9 33.22C161.468 32.9 161.164 32.5 160.988 32.02C160.796 31.54 160.7 31.06 160.7 30.58C160.7 30.1 160.764 29.732 160.892 29.476C161.02 29.22 161.172 29.028 161.348 28.9C161.54 28.772 161.716 28.676 161.876 28.612C162.052 28.548 162.172 28.484 162.236 28.42C162.716 27.892 163.156 27.34 163.556 26.764C163.956 26.188 164.308 25.58 164.612 24.94V24.652C164.612 24.06 164.708 23.644 164.9 23.404C165.108 23.148 165.324 23.02 165.548 23.02C165.676 23.02 165.772 23.052 165.836 23.116C165.9 23.18 165.932 23.252 165.932 23.332C165.932 23.412 165.908 23.54 165.86 23.716C165.812 23.892 165.788 24.116 165.788 24.388C165.788 24.916 165.892 25.492 166.1 26.116C166.308 26.724 166.516 27.372 166.724 28.06C166.932 28.732 167.036 29.436 167.036 30.172C167.036 30.38 167.02 30.588 166.988 30.796C166.972 30.988 166.94 31.172 166.892 31.348C167.452 31.252 167.98 31.004 168.476 30.604C168.972 30.188 169.452 29.532 169.916 28.636L170.132 28.876C169.828 29.756 169.372 30.428 168.764 30.892C168.156 31.34 167.492 31.62 166.772 31.732C166.516 32.42 166.108 32.924 165.548 33.244C165.004 33.564 164.388 33.724 163.7 33.724ZM163.748 32.884C163.94 32.884 164.196 32.82 164.516 32.692C164.836 32.564 165.084 32.236 165.26 31.708C164.588 31.58 163.988 31.316 163.46 30.916C162.948 30.516 162.564 30.116 162.308 29.716C161.956 29.732 161.78 30.012 161.78 30.556C161.78 31.132 161.948 31.668 162.284 32.164C162.636 32.644 163.124 32.884 163.748 32.884ZM165.38 31.324C165.412 31.164 165.436 30.996 165.452 30.82C165.468 30.644 165.476 30.436 165.476 30.196C165.476 29.444 165.38 28.7 165.188 27.964C165.012 27.212 164.86 26.508 164.732 25.852C164.364 26.46 163.972 27.044 163.556 27.604C163.156 28.148 162.772 28.604 162.404 28.972C162.644 29.484 163.012 29.964 163.508 30.412C164.02 30.86 164.644 31.164 165.38 31.324ZM172.045 33.556C171.069 33.556 170.333 33.284 169.837 32.74C169.357 32.212 169.117 31.556 169.117 30.772C169.117 30.052 169.293 29.292 169.645 28.492C170.013 27.692 170.493 26.94 171.085 26.236C171.693 25.532 172.357 24.964 173.077 24.532C173.797 24.084 174.509 23.86 175.213 23.86C175.581 23.86 175.917 23.956 176.221 24.148C176.541 24.34 176.701 24.732 176.701 25.324C176.701 25.932 176.517 26.508 176.149 27.052C175.797 27.58 175.325 28.052 174.733 28.468C174.157 28.884 173.517 29.228 172.813 29.5C172.125 29.756 171.437 29.916 170.749 29.98C170.717 30.14 170.693 30.292 170.677 30.436C170.661 30.58 170.653 30.716 170.653 30.844C170.653 31.084 170.677 31.324 170.725 31.564C170.789 31.804 170.893 32.028 171.037 32.236C171.181 32.428 171.373 32.58 171.613 32.692C171.869 32.804 172.181 32.86 172.549 32.86C173.237 32.86 173.917 32.668 174.589 32.284C175.261 31.884 175.885 31.364 176.461 30.724C177.037 30.084 177.525 29.38 177.925 28.612L178.213 28.828C177.781 29.788 177.229 30.62 176.557 31.324C175.901 32.028 175.181 32.572 174.397 32.956C173.629 33.356 172.845 33.556 172.045 33.556ZM170.869 29.524C171.301 29.38 171.789 29.172 172.333 28.9C172.877 28.612 173.397 28.276 173.893 27.892C174.405 27.508 174.821 27.084 175.141 26.62C175.477 26.156 175.645 25.668 175.645 25.156C175.645 24.98 175.613 24.844 175.549 24.748C175.485 24.652 175.349 24.604 175.141 24.604C174.757 24.604 174.349 24.756 173.917 25.06C173.485 25.348 173.069 25.732 172.669 26.212C172.269 26.692 171.909 27.22 171.589 27.796C171.269 28.372 171.029 28.948 170.869 29.524ZM195.776 33.244C195.216 33.244 194.808 33.068 194.552 32.716C194.296 32.38 194.168 31.972 194.168 31.492C194.168 31.092 194.224 30.692 194.336 30.292C194.464 29.892 194.584 29.5 194.696 29.116C194.824 28.732 194.888 28.388 194.888 28.084C194.888 27.764 194.816 27.54 194.672 27.412C194.528 27.284 194.368 27.22 194.192 27.22C193.792 27.22 193.352 27.532 192.872 28.156C192.408 28.78 191.8 29.66 191.048 30.796C190.792 31.18 190.576 31.572 190.4 31.972C190.224 32.356 190.056 32.708 189.896 33.028C189.768 33.028 189.608 33.012 189.416 32.98C189.224 32.948 189.048 32.892 188.888 32.812C188.744 32.748 188.672 32.66 188.672 32.548C188.672 32.436 188.744 32.172 188.888 31.756C189.048 31.324 189.224 30.828 189.416 30.268C189.624 29.692 189.8 29.116 189.944 28.54C190.104 27.948 190.184 27.444 190.184 27.028C190.184 26.756 190.136 26.54 190.04 26.38C189.96 26.204 189.808 26.116 189.584 26.116C189.232 26.116 188.808 26.332 188.312 26.764C187.816 27.18 187.304 27.732 186.776 28.42C186.248 29.108 185.744 29.868 185.264 30.7C184.8 31.516 184.424 32.332 184.136 33.148C183.992 33.148 183.816 33.124 183.608 33.076C183.4 33.028 183.224 32.964 183.08 32.884C182.92 32.804 182.84 32.724 182.84 32.644C182.84 32.548 182.928 32.268 183.104 31.804C183.264 31.324 183.456 30.756 183.68 30.1C183.888 29.428 184.072 28.748 184.232 28.06C184.408 27.372 184.496 26.764 184.496 26.236C184.592 26.124 184.744 26.012 184.952 25.9C185.16 25.788 185.376 25.732 185.6 25.732C185.824 25.732 185.984 25.788 186.08 25.9C186.192 26.012 186.248 26.164 186.248 26.356C186.248 26.564 186.184 26.924 186.056 27.436C185.944 27.932 185.8 28.484 185.624 29.092C185.944 28.58 186.304 28.06 186.704 27.532C187.12 26.988 187.552 26.492 188 26.044C188.448 25.596 188.896 25.236 189.344 24.964C189.808 24.676 190.256 24.532 190.688 24.532C191.184 24.532 191.52 24.716 191.696 25.084C191.888 25.436 191.984 25.86 191.984 26.356C191.984 26.756 191.936 27.18 191.84 27.628C191.76 28.06 191.664 28.468 191.552 28.852C191.44 29.22 191.336 29.516 191.24 29.74C191.576 29.132 191.944 28.548 192.344 27.988C192.76 27.412 193.208 26.948 193.688 26.596C194.168 26.228 194.68 26.044 195.224 26.044C195.736 26.044 196.088 26.196 196.28 26.5C196.488 26.804 196.592 27.164 196.592 27.58C196.592 27.996 196.52 28.452 196.376 28.948C196.232 29.444 196.08 29.924 195.92 30.388C195.776 30.852 195.704 31.252 195.704 31.588C195.704 31.796 195.752 31.988 195.848 32.164C195.96 32.324 196.152 32.404 196.424 32.404C196.872 32.404 197.288 32.204 197.672 31.804C198.072 31.388 198.44 30.892 198.776 30.316C199.112 29.724 199.4 29.156 199.64 28.612L199.928 28.948C199.672 29.62 199.344 30.292 198.944 30.964C198.544 31.62 198.072 32.164 197.528 32.596C197 33.028 196.416 33.244 195.776 33.244ZM201.787 33.556C200.811 33.556 200.075 33.284 199.579 32.74C199.099 32.212 198.859 31.556 198.859 30.772C198.859 30.052 199.035 29.292 199.387 28.492C199.755 27.692 200.235 26.94 200.827 26.236C201.435 25.532 202.099 24.964 202.819 24.532C203.539 24.084 204.251 23.86 204.955 23.86C205.323 23.86 205.659 23.956 205.963 24.148C206.283 24.34 206.443 24.732 206.443 25.324C206.443 25.932 206.259 26.508 205.891 27.052C205.539 27.58 205.067 28.052 204.475 28.468C203.899 28.884 203.259 29.228 202.555 29.5C201.867 29.756 201.179 29.916 200.491 29.98C200.459 30.14 200.435 30.292 200.419 30.436C200.403 30.58 200.395 30.716 200.395 30.844C200.395 31.084 200.419 31.324 200.467 31.564C200.531 31.804 200.635 32.028 200.779 32.236C200.923 32.428 201.115 32.58 201.355 32.692C201.611 32.804 201.923 32.86 202.291 32.86C202.979 32.86 203.659 32.668 204.331 32.284C205.003 31.884 205.627 31.364 206.203 30.724C206.779 30.084 207.267 29.38 207.667 28.612L207.955 28.828C207.523 29.788 206.971 30.62 206.299 31.324C205.643 32.028 204.923 32.572 204.139 32.956C203.371 33.356 202.587 33.556 201.787 33.556ZM200.611 29.524C201.043 29.38 201.531 29.172 202.075 28.9C202.619 28.612 203.139 28.276 203.635 27.892C204.147 27.508 204.563 27.084 204.883 26.62C205.219 26.156 205.387 25.668 205.387 25.156C205.387 24.98 205.355 24.844 205.291 24.748C205.227 24.652 205.091 24.604 204.883 24.604C204.499 24.604 204.091 24.756 203.659 25.06C203.227 25.348 202.811 25.732 202.411 26.212C202.011 26.692 201.651 27.22 201.331 27.796C201.011 28.372 200.771 28.948 200.611 29.524ZM214.94 32.98C214.38 32.98 213.956 32.836 213.668 32.548C213.396 32.26 213.26 31.892 213.26 31.444C213.26 31.108 213.316 30.756 213.428 30.388C213.556 30.02 213.676 29.644 213.788 29.26C213.9 28.86 213.956 28.476 213.956 28.108C213.956 27.66 213.86 27.356 213.668 27.196C213.492 27.02 213.268 26.932 212.996 26.932C212.5 26.932 211.996 27.14 211.484 27.556C210.972 27.956 210.476 28.476 209.996 29.116C209.516 29.74 209.068 30.388 208.652 31.06C208.236 31.732 207.868 32.332 207.548 32.86C207.292 32.86 207.051 32.812 206.827 32.716C206.587 32.636 206.403 32.508 206.275 32.332C206.275 32.252 206.363 32.004 206.539 31.588C206.699 31.172 206.891 30.66 207.115 30.052C207.34 29.444 207.54 28.82 207.716 28.18C207.892 27.54 207.979 26.956 207.979 26.428C208.076 26.316 208.228 26.204 208.436 26.092C208.644 25.98 208.86 25.924 209.084 25.924C209.516 25.924 209.732 26.132 209.732 26.548C209.732 26.804 209.66 27.236 209.516 27.844C209.372 28.436 209.188 29.06 208.964 29.716C209.396 29.06 209.876 28.412 210.404 27.772C210.948 27.116 211.524 26.572 212.132 26.14C212.74 25.708 213.348 25.492 213.956 25.492C214.58 25.492 215.028 25.716 215.3 26.164C215.588 26.612 215.732 27.108 215.732 27.652C215.732 28.148 215.652 28.612 215.492 29.044C215.332 29.46 215.164 29.868 214.988 30.268C214.828 30.652 214.748 31.044 214.748 31.444C214.748 31.78 214.812 32.02 214.94 32.164C215.084 32.292 215.26 32.356 215.468 32.356C215.868 32.356 216.268 32.172 216.668 31.804C217.068 31.42 217.452 30.94 217.82 30.364C218.204 29.788 218.54 29.204 218.828 28.612L219.092 28.924C218.756 29.708 218.38 30.404 217.964 31.012C217.548 31.62 217.092 32.1 216.596 32.452C216.1 32.804 215.548 32.98 214.94 32.98ZM220.023 33.268C219.335 33.268 218.847 33.052 218.559 32.62C218.271 32.204 218.127 31.692 218.127 31.084C218.127 30.588 218.207 30.076 218.367 29.548C218.527 29.02 218.735 28.524 218.991 28.06C219.263 27.596 219.559 27.22 219.879 26.932C220.215 26.644 220.551 26.5 220.887 26.5C220.967 26.5 221.047 26.516 221.127 26.548C221.223 26.564 221.311 26.588 221.391 26.62C221.247 26.748 221.071 26.988 220.863 27.34C220.671 27.676 220.487 28.068 220.311 28.516C220.135 28.948 219.983 29.38 219.855 29.812C219.743 30.244 219.687 30.612 219.687 30.916C219.687 31.396 219.767 31.748 219.927 31.972C220.087 32.18 220.295 32.284 220.551 32.284C220.887 32.284 221.287 32.108 221.751 31.756C222.215 31.388 222.671 30.924 223.119 30.364C222.671 29.996 222.319 29.516 222.063 28.924C221.823 28.316 221.703 27.7 221.703 27.076C221.703 26.548 221.791 26.052 221.967 25.588C222.159 25.124 222.431 24.756 222.783 24.484C223.135 24.196 223.559 24.052 224.055 24.052C224.711 24.052 225.151 24.228 225.375 24.58C225.599 24.932 225.711 25.372 225.711 25.9C225.711 26.524 225.559 27.22 225.255 27.988C224.951 28.74 224.567 29.468 224.103 30.172C224.391 30.332 224.695 30.412 225.015 30.412C225.271 30.412 225.559 30.364 225.879 30.268C226.199 30.156 226.511 29.972 226.815 29.716C227.135 29.46 227.391 29.116 227.583 28.684L227.871 28.924C227.551 29.676 227.095 30.212 226.503 30.532C225.927 30.836 225.375 30.988 224.847 30.988C224.639 30.988 224.439 30.972 224.247 30.94C224.055 30.892 223.871 30.828 223.695 30.748C223.151 31.468 222.551 32.068 221.895 32.548C221.255 33.028 220.631 33.268 220.023 33.268ZM223.551 29.74C223.951 29.148 224.279 28.532 224.535 27.892C224.807 27.236 224.943 26.62 224.943 26.044C224.943 25.58 224.871 25.244 224.727 25.036C224.599 24.812 224.431 24.7 224.223 24.7C223.903 24.7 223.575 24.932 223.239 25.396C222.903 25.86 222.735 26.444 222.735 27.148C222.735 27.612 222.799 28.084 222.927 28.564C223.071 29.028 223.279 29.42 223.551 29.74ZM229.653 33.724C228.901 33.724 228.301 33.556 227.853 33.22C227.421 32.9 227.117 32.5 226.941 32.02C226.749 31.54 226.653 31.06 226.653 30.58C226.653 30.1 226.717 29.732 226.845 29.476C226.973 29.22 227.125 29.028 227.301 28.9C227.493 28.772 227.669 28.676 227.829 28.612C228.005 28.548 228.125 28.484 228.189 28.42C228.669 27.892 229.109 27.34 229.509 26.764C229.909 26.188 230.261 25.58 230.565 24.94V24.652C230.565 24.06 230.661 23.644 230.853 23.404C231.061 23.148 231.277 23.02 231.501 23.02C231.629 23.02 231.725 23.052 231.789 23.116C231.853 23.18 231.885 23.252 231.885 23.332C231.885 23.412 231.861 23.54 231.813 23.716C231.765 23.892 231.741 24.116 231.741 24.388C231.741 24.916 231.845 25.492 232.053 26.116C232.261 26.724 232.469 27.372 232.677 28.06C232.885 28.732 232.989 29.436 232.989 30.172C232.989 30.38 232.973 30.588 232.941 30.796C232.925 30.988 232.893 31.172 232.845 31.348C233.405 31.252 233.933 31.004 234.429 30.604C234.925 30.188 235.405 29.532 235.869 28.636L236.085 28.876C235.781 29.756 235.325 30.428 234.717 30.892C234.109 31.34 233.445 31.62 232.725 31.732C232.469 32.42 232.061 32.924 231.501 33.244C230.957 33.564 230.341 33.724 229.653 33.724ZM229.701 32.884C229.893 32.884 230.149 32.82 230.469 32.692C230.789 32.564 231.037 32.236 231.213 31.708C230.541 31.58 229.941 31.316 229.413 30.916C228.901 30.516 228.517 30.116 228.261 29.716C227.909 29.732 227.733 30.012 227.733 30.556C227.733 31.132 227.901 31.668 228.237 32.164C228.589 32.644 229.077 32.884 229.701 32.884ZM231.333 31.324C231.365 31.164 231.389 30.996 231.405 30.82C231.421 30.644 231.429 30.436 231.429 30.196C231.429 29.444 231.333 28.7 231.141 27.964C230.965 27.212 230.813 26.508 230.685 25.852C230.317 26.46 229.925 27.044 229.509 27.604C229.109 28.148 228.725 28.604 228.357 28.972C228.597 29.484 228.965 29.964 229.461 30.412C229.973 30.86 230.597 31.164 231.333 31.324ZM244.233 33.556C243.257 33.556 242.521 33.284 242.025 32.74C241.545 32.212 241.305 31.556 241.305 30.772C241.305 30.052 241.481 29.292 241.833 28.492C242.201 27.692 242.681 26.94 243.273 26.236C243.881 25.532 244.545 24.964 245.265 24.532C245.985 24.084 246.697 23.86 247.401 23.86C247.769 23.86 248.105 23.956 248.409 24.148C248.729 24.34 248.889 24.732 248.889 25.324C248.889 25.932 248.705 26.508 248.337 27.052C247.985 27.58 247.513 28.052 246.921 28.468C246.345 28.884 245.705 29.228 245.001 29.5C244.313 29.756 243.625 29.916 242.937 29.98C242.905 30.14 242.881 30.292 242.865 30.436C242.849 30.58 242.841 30.716 242.841 30.844C242.841 31.084 242.865 31.324 242.913 31.564C242.977 31.804 243.081 32.028 243.225 32.236C243.369 32.428 243.561 32.58 243.801 32.692C244.057 32.804 244.369 32.86 244.737 32.86C245.425 32.86 246.105 32.668 246.777 32.284C247.449 31.884 248.073 31.364 248.649 30.724C249.225 30.084 249.713 29.38 250.113 28.612L250.401 28.828C249.969 29.788 249.417 30.62 248.745 31.324C248.089 32.028 247.369 32.572 246.585 32.956C245.817 33.356 245.033 33.556 244.233 33.556ZM243.057 29.524C243.489 29.38 243.977 29.172 244.521 28.9C245.065 28.612 245.585 28.276 246.081 27.892C246.593 27.508 247.009 27.084 247.329 26.62C247.665 26.156 247.833 25.668 247.833 25.156C247.833 24.98 247.801 24.844 247.737 24.748C247.673 24.652 247.537 24.604 247.329 24.604C246.945 24.604 246.537 24.756 246.105 25.06C245.673 25.348 245.257 25.732 244.857 26.212C244.457 26.692 244.097 27.22 243.777 27.796C243.457 28.372 243.217 28.948 243.057 29.524ZM89.2866 62.436C88.7906 62.436 88.4466 62.188 88.2546 61.692C88.0626 61.212 87.9666 60.58 87.9666 59.796C87.9666 59.764 87.9746 59.516 87.9906 59.052C88.0066 58.572 88.0466 57.772 88.1106 56.652C88.1426 56.22 88.1906 55.924 88.2546 55.764C88.3186 55.604 88.5266 55.524 88.8786 55.524C89.1506 55.524 89.3186 55.58 89.3826 55.692C89.4626 55.788 89.5026 55.988 89.5026 56.292C89.5026 56.82 89.4626 57.444 89.3826 58.164C89.3186 58.868 89.2866 59.532 89.2866 60.156C89.2866 60.62 89.3266 60.964 89.4066 61.188C89.4866 61.396 89.6306 61.5 89.8386 61.5C90.1266 61.5 90.4466 61.34 90.7986 61.02C91.1506 60.684 91.5106 60.252 91.8786 59.724C92.2466 59.18 92.5906 58.604 92.9106 57.996C93.2466 57.388 93.5426 56.804 93.7986 56.244C93.8306 55.156 93.9426 54.436 94.1346 54.084C94.3426 53.716 94.5986 53.532 94.9026 53.532C95.2066 53.532 95.4226 53.644 95.5506 53.868C95.6946 54.076 95.7666 54.268 95.7666 54.444C95.7666 54.652 95.6946 54.868 95.5506 55.092C95.4226 55.316 95.2866 55.62 95.1426 56.004C94.9986 56.388 94.9266 56.94 94.9266 57.66C94.9266 57.916 94.9506 58.188 94.9986 58.476C95.0466 58.764 95.1506 59.004 95.3106 59.196C95.4706 59.388 95.7186 59.484 96.0546 59.484C96.3906 59.484 96.7106 59.356 97.0146 59.1C97.3346 58.828 97.6466 58.364 97.9506 57.708L98.2626 57.948C97.9106 58.748 97.5186 59.284 97.0866 59.556C96.6706 59.828 96.2706 59.964 95.8866 59.964C95.3586 59.964 94.9186 59.772 94.5666 59.388C94.2146 59.004 93.9826 58.42 93.8706 57.636C93.4866 58.42 93.0306 59.18 92.5026 59.916C91.9906 60.636 91.4546 61.236 90.8946 61.716C90.3346 62.196 89.7986 62.436 89.2866 62.436ZM99.228 62.124C98.604 62.124 98.14 61.924 97.836 61.524C97.532 61.14 97.38 60.668 97.38 60.108C97.38 59.74 97.444 59.276 97.572 58.716C97.716 58.156 97.9 57.572 98.124 56.964C98.348 56.34 98.604 55.756 98.892 55.212C99.196 54.668 99.516 54.228 99.852 53.892C100.188 53.54 100.516 53.364 100.836 53.364C100.98 53.364 101.1 53.412 101.196 53.508C101.308 53.588 101.364 53.716 101.364 53.892C101.364 54.084 101.236 54.396 100.98 54.828C100.74 55.26 100.452 55.756 100.116 56.316C99.78 56.876 99.484 57.468 99.228 58.092C98.988 58.7 98.868 59.284 98.868 59.844C98.868 60.42 98.964 60.804 99.156 60.996C99.348 61.188 99.644 61.284 100.044 61.284C100.588 61.284 101.164 61.012 101.772 60.468C102.396 59.924 103.052 58.972 103.74 57.612L103.956 57.852C103.492 59.228 102.82 60.284 101.94 61.02C101.076 61.756 100.172 62.124 99.228 62.124ZM102.108 51.132C101.852 51.132 101.62 51.068 101.412 50.94C101.22 50.812 101.124 50.612 101.124 50.34C101.124 50.004 101.316 49.716 101.7 49.476C102.1 49.22 102.492 49.092 102.876 49.092C103.116 49.092 103.308 49.148 103.452 49.26C103.596 49.372 103.668 49.564 103.668 49.836C103.668 50.14 103.5 50.436 103.164 50.724C102.844 50.996 102.492 51.132 102.108 51.132ZM104.849 62.436C104.353 62.436 104.009 62.188 103.817 61.692C103.625 61.212 103.529 60.58 103.529 59.796C103.529 59.764 103.537 59.516 103.553 59.052C103.569 58.572 103.609 57.772 103.673 56.652C103.705 56.22 103.753 55.924 103.817 55.764C103.881 55.604 104.089 55.524 104.441 55.524C104.713 55.524 104.881 55.58 104.945 55.692C105.025 55.788 105.065 55.988 105.065 56.292C105.065 56.82 105.025 57.444 104.945 58.164C104.881 58.868 104.849 59.532 104.849 60.156C104.849 60.62 104.889 60.964 104.969 61.188C105.049 61.396 105.193 61.5 105.401 61.5C105.689 61.5 106.009 61.34 106.361 61.02C106.713 60.684 107.073 60.252 107.441 59.724C107.809 59.18 108.153 58.604 108.473 57.996C108.809 57.388 109.105 56.804 109.361 56.244C109.393 55.156 109.505 54.436 109.697 54.084C109.905 53.716 110.161 53.532 110.465 53.532C110.769 53.532 110.985 53.644 111.113 53.868C111.257 54.076 111.329 54.268 111.329 54.444C111.329 54.652 111.257 54.868 111.113 55.092C110.985 55.316 110.849 55.62 110.705 56.004C110.561 56.388 110.489 56.94 110.489 57.66C110.489 57.916 110.513 58.188 110.561 58.476C110.609 58.764 110.713 59.004 110.873 59.196C111.033 59.388 111.281 59.484 111.617 59.484C111.953 59.484 112.273 59.356 112.577 59.1C112.897 58.828 113.209 58.364 113.513 57.708L113.825 57.948C113.473 58.748 113.081 59.284 112.649 59.556C112.233 59.828 111.833 59.964 111.449 59.964C110.921 59.964 110.481 59.772 110.129 59.388C109.777 59.004 109.545 58.42 109.433 57.636C109.049 58.42 108.593 59.18 108.065 59.916C107.553 60.636 107.017 61.236 106.457 61.716C105.897 62.196 105.361 62.436 104.849 62.436ZM115.655 62.556C114.679 62.556 113.943 62.284 113.447 61.74C112.966 61.212 112.726 60.556 112.726 59.772C112.726 59.052 112.902 58.292 113.255 57.492C113.623 56.692 114.103 55.94 114.695 55.236C115.303 54.532 115.967 53.964 116.687 53.532C117.407 53.084 118.119 52.86 118.823 52.86C119.191 52.86 119.527 52.956 119.831 53.148C120.151 53.34 120.311 53.732 120.311 54.324C120.311 54.932 120.127 55.508 119.759 56.052C119.407 56.58 118.935 57.052 118.343 57.468C117.767 57.884 117.127 58.228 116.423 58.5C115.735 58.756 115.047 58.916 114.359 58.98C114.327 59.14 114.303 59.292 114.287 59.436C114.271 59.58 114.263 59.716 114.263 59.844C114.263 60.084 114.287 60.324 114.335 60.564C114.399 60.804 114.503 61.028 114.646 61.236C114.791 61.428 114.983 61.58 115.223 61.692C115.479 61.804 115.791 61.86 116.159 61.86C116.847 61.86 117.527 61.668 118.199 61.284C118.871 60.884 119.495 60.364 120.071 59.724C120.647 59.084 121.135 58.38 121.535 57.612L121.823 57.828C121.391 58.788 120.839 59.62 120.167 60.324C119.511 61.028 118.791 61.572 118.007 61.956C117.239 62.356 116.455 62.556 115.655 62.556ZM114.479 58.524C114.911 58.38 115.399 58.172 115.943 57.9C116.487 57.612 117.007 57.276 117.503 56.892C118.015 56.508 118.431 56.084 118.751 55.62C119.087 55.156 119.255 54.668 119.255 54.156C119.255 53.98 119.223 53.844 119.159 53.748C119.095 53.652 118.959 53.604 118.751 53.604C118.367 53.604 117.959 53.756 117.527 54.06C117.095 54.348 116.679 54.732 116.279 55.212C115.879 55.692 115.519 56.22 115.199 56.796C114.879 57.372 114.639 57.948 114.479 58.524ZM128.807 61.98C128.247 61.98 127.823 61.836 127.535 61.548C127.263 61.26 127.127 60.892 127.127 60.444C127.127 60.108 127.183 59.756 127.295 59.388C127.423 59.02 127.543 58.644 127.655 58.26C127.767 57.86 127.823 57.476 127.823 57.108C127.823 56.66 127.727 56.356 127.535 56.196C127.359 56.02 127.135 55.932 126.863 55.932C126.367 55.932 125.863 56.14 125.351 56.556C124.839 56.956 124.343 57.476 123.863 58.116C123.383 58.74 122.935 59.388 122.519 60.06C122.103 60.732 121.735 61.332 121.415 61.86C121.159 61.86 120.919 61.812 120.695 61.716C120.455 61.636 120.271 61.508 120.143 61.332C120.143 61.252 120.231 61.004 120.407 60.588C120.567 60.172 120.759 59.66 120.983 59.052C121.207 58.444 121.407 57.82 121.583 57.18C121.759 56.54 121.847 55.956 121.847 55.428C121.943 55.316 122.095 55.204 122.303 55.092C122.511 54.98 122.727 54.924 122.951 54.924C123.383 54.924 123.599 55.132 123.599 55.548C123.599 55.804 123.527 56.236 123.383 56.844C123.239 57.436 123.055 58.06 122.831 58.716C123.263 58.06 123.743 57.412 124.271 56.772C124.815 56.116 125.391 55.572 125.999 55.14C126.607 54.708 127.215 54.492 127.823 54.492C128.447 54.492 128.895 54.716 129.167 55.164C129.455 55.612 129.599 56.108 129.599 56.652C129.599 57.148 129.519 57.612 129.359 58.044C129.199 58.46 129.031 58.868 128.855 59.268C128.695 59.652 128.615 60.044 128.615 60.444C128.615 60.78 128.679 61.02 128.807 61.164C128.951 61.292 129.127 61.356 129.335 61.356C129.735 61.356 130.135 61.172 130.535 60.804C130.935 60.42 131.319 59.94 131.687 59.364C132.071 58.788 132.407 58.204 132.695 57.612L132.959 57.924C132.623 58.708 132.247 59.404 131.831 60.012C131.415 60.62 130.959 61.1 130.463 61.452C129.967 61.804 129.415 61.98 128.807 61.98ZM134.802 62.844C134.034 62.844 133.394 62.588 132.882 62.076C132.37 61.564 132.114 60.796 132.114 59.772C132.114 58.972 132.266 58.196 132.57 57.444C132.89 56.676 133.306 55.988 133.818 55.38C134.33 54.772 134.898 54.292 135.522 53.94C136.146 53.572 136.762 53.388 137.37 53.388C138.026 53.388 138.474 53.58 138.714 53.964C138.954 54.348 139.074 54.748 139.074 55.164C139.074 55.628 138.962 56.036 138.738 56.388C138.53 56.74 138.242 56.916 137.874 56.916C137.602 56.916 137.37 56.796 137.178 56.556C137.418 56.428 137.626 56.172 137.802 55.788C137.978 55.388 138.066 55.012 138.066 54.66C138.066 54.468 138.026 54.324 137.946 54.228C137.882 54.116 137.746 54.06 137.538 54.06C137.106 54.06 136.658 54.252 136.194 54.636C135.746 55.02 135.322 55.516 134.922 56.124C134.538 56.732 134.218 57.372 133.962 58.044C133.722 58.716 133.602 59.348 133.602 59.94C133.602 60.436 133.722 60.892 133.962 61.308C134.202 61.724 134.666 61.932 135.354 61.932C135.994 61.932 136.634 61.756 137.274 61.404C137.93 61.052 138.538 60.548 139.098 59.892C139.658 59.236 140.106 58.468 140.442 57.588L140.754 57.828C140.386 58.788 139.882 59.652 139.242 60.42C138.602 61.172 137.898 61.764 137.13 62.196C136.362 62.628 135.586 62.844 134.802 62.844ZM141.72 62.124C141.096 62.124 140.632 61.924 140.328 61.524C140.024 61.14 139.872 60.668 139.872 60.108C139.872 59.74 139.936 59.276 140.064 58.716C140.208 58.156 140.392 57.572 140.616 56.964C140.84 56.34 141.096 55.756 141.384 55.212C141.688 54.668 142.008 54.228 142.344 53.892C142.68 53.54 143.008 53.364 143.328 53.364C143.472 53.364 143.592 53.412 143.688 53.508C143.8 53.588 143.856 53.716 143.856 53.892C143.856 54.084 143.728 54.396 143.472 54.828C143.232 55.26 142.944 55.756 142.608 56.316C142.272 56.876 141.976 57.468 141.72 58.092C141.48 58.7 141.36 59.284 141.36 59.844C141.36 60.42 141.456 60.804 141.648 60.996C141.84 61.188 142.136 61.284 142.536 61.284C143.08 61.284 143.656 61.012 144.264 60.468C144.888 59.924 145.544 58.972 146.232 57.612L146.448 57.852C145.984 59.228 145.312 60.284 144.432 61.02C143.568 61.756 142.664 62.124 141.72 62.124ZM144.6 51.132C144.344 51.132 144.112 51.068 143.904 50.94C143.712 50.812 143.616 50.612 143.616 50.34C143.616 50.004 143.808 49.716 144.192 49.476C144.592 49.22 144.984 49.092 145.368 49.092C145.608 49.092 145.8 49.148 145.944 49.26C146.088 49.372 146.16 49.564 146.16 49.836C146.16 50.14 145.992 50.436 145.656 50.724C145.336 50.996 144.984 51.132 144.6 51.132ZM148.373 62.556C147.397 62.556 146.661 62.284 146.165 61.74C145.685 61.212 145.445 60.556 145.445 59.772C145.445 59.052 145.621 58.292 145.973 57.492C146.341 56.692 146.821 55.94 147.413 55.236C148.021 54.532 148.685 53.964 149.405 53.532C150.125 53.084 150.837 52.86 151.541 52.86C151.909 52.86 152.245 52.956 152.549 53.148C152.869 53.34 153.029 53.732 153.029 54.324C153.029 54.932 152.845 55.508 152.477 56.052C152.125 56.58 151.653 57.052 151.061 57.468C150.485 57.884 149.845 58.228 149.141 58.5C148.453 58.756 147.765 58.916 147.077 58.98C147.045 59.14 147.021 59.292 147.005 59.436C146.989 59.58 146.981 59.716 146.981 59.844C146.981 60.084 147.005 60.324 147.053 60.564C147.117 60.804 147.221 61.028 147.365 61.236C147.509 61.428 147.701 61.58 147.941 61.692C148.197 61.804 148.509 61.86 148.877 61.86C149.565 61.86 150.245 61.668 150.917 61.284C151.589 60.884 152.213 60.364 152.789 59.724C153.365 59.084 153.853 58.38 154.253 57.612L154.541 57.828C154.109 58.788 153.557 59.62 152.885 60.324C152.229 61.028 151.509 61.572 150.725 61.956C149.957 62.356 149.173 62.556 148.373 62.556ZM147.197 58.524C147.629 58.38 148.117 58.172 148.661 57.9C149.205 57.612 149.725 57.276 150.221 56.892C150.733 56.508 151.149 56.084 151.469 55.62C151.805 55.156 151.973 54.668 151.973 54.156C151.973 53.98 151.941 53.844 151.877 53.748C151.813 53.652 151.677 53.604 151.469 53.604C151.085 53.604 150.677 53.756 150.245 54.06C149.813 54.348 149.397 54.732 148.997 55.212C148.597 55.692 148.237 56.22 147.917 56.796C147.597 57.372 147.357 57.948 147.197 58.524ZM172.104 62.244C171.544 62.244 171.136 62.068 170.88 61.716C170.624 61.38 170.496 60.972 170.496 60.492C170.496 60.092 170.552 59.692 170.664 59.292C170.792 58.892 170.912 58.5 171.024 58.116C171.152 57.732 171.216 57.388 171.216 57.084C171.216 56.764 171.144 56.54 171 56.412C170.856 56.284 170.696 56.22 170.52 56.22C170.12 56.22 169.68 56.532 169.2 57.156C168.736 57.78 168.128 58.66 167.376 59.796C167.12 60.18 166.904 60.572 166.728 60.972C166.552 61.356 166.384 61.708 166.224 62.028C166.096 62.028 165.936 62.012 165.744 61.98C165.552 61.948 165.376 61.892 165.216 61.812C165.072 61.748 165 61.66 165 61.548C165 61.436 165.072 61.172 165.216 60.756C165.376 60.324 165.552 59.828 165.744 59.268C165.952 58.692 166.128 58.116 166.272 57.54C166.432 56.948 166.512 56.444 166.512 56.028C166.512 55.756 166.464 55.54 166.368 55.38C166.288 55.204 166.136 55.116 165.912 55.116C165.56 55.116 165.136 55.332 164.64 55.764C164.144 56.18 163.632 56.732 163.104 57.42C162.576 58.108 162.072 58.868 161.592 59.7C161.128 60.516 160.752 61.332 160.464 62.148C160.32 62.148 160.144 62.124 159.936 62.076C159.728 62.028 159.552 61.964 159.408 61.884C159.248 61.804 159.168 61.724 159.168 61.644C159.168 61.548 159.256 61.268 159.432 60.804C159.592 60.324 159.784 59.756 160.008 59.1C160.216 58.428 160.4 57.748 160.56 57.06C160.736 56.372 160.824 55.764 160.824 55.236C160.92 55.124 161.072 55.012 161.28 54.9C161.488 54.788 161.704 54.732 161.928 54.732C162.152 54.732 162.312 54.788 162.408 54.9C162.52 55.012 162.576 55.164 162.576 55.356C162.576 55.564 162.512 55.924 162.384 56.436C162.272 56.932 162.128 57.484 161.952 58.092C162.272 57.58 162.632 57.06 163.032 56.532C163.448 55.988 163.88 55.492 164.328 55.044C164.776 54.596 165.224 54.236 165.672 53.964C166.136 53.676 166.584 53.532 167.016 53.532C167.512 53.532 167.848 53.716 168.024 54.084C168.216 54.436 168.312 54.86 168.312 55.356C168.312 55.756 168.264 56.18 168.168 56.628C168.088 57.06 167.992 57.468 167.88 57.852C167.768 58.22 167.664 58.516 167.568 58.74C167.904 58.132 168.272 57.548 168.672 56.988C169.088 56.412 169.536 55.948 170.016 55.596C170.496 55.228 171.008 55.044 171.552 55.044C172.064 55.044 172.416 55.196 172.608 55.5C172.816 55.804 172.92 56.164 172.92 56.58C172.92 56.996 172.848 57.452 172.704 57.948C172.56 58.444 172.408 58.924 172.248 59.388C172.104 59.852 172.032 60.252 172.032 60.588C172.032 60.796 172.08 60.988 172.176 61.164C172.288 61.324 172.48 61.404 172.752 61.404C173.2 61.404 173.616 61.204 174 60.804C174.4 60.388 174.768 59.892 175.104 59.316C175.44 58.724 175.728 58.156 175.968 57.612L176.256 57.948C176 58.62 175.672 59.292 175.272 59.964C174.872 60.62 174.4 61.164 173.856 61.596C173.328 62.028 172.744 62.244 172.104 62.244ZM176.675 62.628C176.179 62.628 175.763 62.46 175.427 62.124C175.075 61.804 174.899 61.308 174.899 60.636C174.899 60.06 175.027 59.444 175.283 58.788C175.539 58.116 175.891 57.46 176.339 56.82C176.787 56.164 177.291 55.572 177.851 55.044C178.427 54.5 179.027 54.068 179.651 53.748C180.291 53.428 180.923 53.268 181.547 53.268C182.171 53.268 182.691 53.436 183.107 53.772C183.523 54.092 183.731 54.524 183.731 55.068C183.731 55.468 183.619 55.74 183.395 55.884C183.187 56.028 182.907 56.1 182.555 56.1C182.587 55.972 182.611 55.836 182.627 55.692C182.659 55.532 182.675 55.388 182.675 55.26C182.675 54.892 182.587 54.58 182.411 54.324C182.235 54.052 181.931 53.916 181.499 53.916C181.051 53.916 180.595 54.076 180.131 54.396C179.667 54.7 179.219 55.116 178.787 55.644C178.355 56.156 177.971 56.716 177.635 57.324C177.299 57.932 177.035 58.532 176.843 59.124C176.651 59.716 176.555 60.244 176.555 60.708C176.555 61.332 176.771 61.644 177.203 61.644C177.571 61.644 177.971 61.476 178.403 61.14C178.835 60.788 179.275 60.348 179.723 59.82C180.187 59.276 180.627 58.716 181.043 58.14C181.459 57.564 181.827 57.036 182.147 56.556C182.211 56.46 182.251 56.412 182.267 56.412C182.363 56.428 182.483 56.46 182.627 56.508C182.787 56.556 182.923 56.62 183.035 56.7C183.147 56.78 183.203 56.884 183.203 57.012C183.203 57.156 183.131 57.356 182.987 57.612C182.843 57.852 182.683 58.132 182.507 58.452C182.331 58.772 182.171 59.1 182.027 59.436C181.883 59.756 181.811 60.06 181.811 60.348C181.811 60.588 181.875 60.828 182.003 61.068C182.131 61.292 182.339 61.404 182.627 61.404C183.059 61.404 183.627 61.092 184.331 60.468C185.035 59.828 185.747 58.876 186.467 57.612L186.707 57.852C186.371 58.716 185.939 59.476 185.411 60.132C184.883 60.788 184.315 61.3 183.707 61.668C183.115 62.036 182.531 62.22 181.955 62.22C181.363 62.22 180.923 62.044 180.635 61.692C180.363 61.34 180.227 60.956 180.227 60.54C180.227 60.444 180.235 60.34 180.251 60.228C180.267 60.1 180.283 59.972 180.299 59.844C179.611 60.772 178.979 61.468 178.403 61.932C177.843 62.396 177.267 62.628 176.675 62.628ZM187.705 62.124C187.081 62.124 186.617 61.924 186.313 61.524C186.009 61.14 185.857 60.668 185.857 60.108C185.857 59.74 185.921 59.276 186.049 58.716C186.193 58.156 186.377 57.572 186.601 56.964C186.825 56.34 187.081 55.756 187.369 55.212C187.673 54.668 187.993 54.228 188.329 53.892C188.665 53.54 188.993 53.364 189.313 53.364C189.457 53.364 189.577 53.412 189.673 53.508C189.785 53.588 189.841 53.716 189.841 53.892C189.841 54.084 189.713 54.396 189.457 54.828C189.217 55.26 188.929 55.756 188.593 56.316C188.257 56.876 187.961 57.468 187.705 58.092C187.465 58.7 187.345 59.284 187.345 59.844C187.345 60.42 187.441 60.804 187.633 60.996C187.825 61.188 188.121 61.284 188.521 61.284C189.065 61.284 189.641 61.012 190.249 60.468C190.873 59.924 191.529 58.972 192.217 57.612L192.433 57.852C191.969 59.228 191.297 60.284 190.417 61.02C189.553 61.756 188.649 62.124 187.705 62.124ZM190.585 51.132C190.329 51.132 190.097 51.068 189.889 50.94C189.697 50.812 189.601 50.612 189.601 50.34C189.601 50.004 189.793 49.716 190.177 49.476C190.577 49.22 190.969 49.092 191.353 49.092C191.593 49.092 191.785 49.148 191.929 49.26C192.073 49.372 192.145 49.564 192.145 49.836C192.145 50.14 191.977 50.436 191.641 50.724C191.321 50.996 190.969 51.132 190.585 51.132ZM194.286 62.724C193.534 62.724 192.934 62.556 192.486 62.22C192.054 61.9 191.75 61.5 191.574 61.02C191.382 60.54 191.286 60.06 191.286 59.58C191.286 59.1 191.35 58.732 191.478 58.476C191.606 58.22 191.758 58.028 191.934 57.9C192.126 57.772 192.302 57.676 192.462 57.612C192.638 57.548 192.758 57.484 192.822 57.42C193.302 56.892 193.742 56.34 194.142 55.764C194.542 55.188 194.894 54.58 195.198 53.94V53.652C195.198 53.06 195.294 52.644 195.486 52.404C195.694 52.148 195.91 52.02 196.134 52.02C196.262 52.02 196.358 52.052 196.422 52.116C196.486 52.18 196.518 52.252 196.518 52.332C196.518 52.412 196.494 52.54 196.446 52.716C196.398 52.892 196.374 53.116 196.374 53.388C196.374 53.916 196.478 54.492 196.686 55.116C196.894 55.724 197.102 56.372 197.31 57.06C197.518 57.732 197.622 58.436 197.622 59.172C197.622 59.38 197.606 59.588 197.574 59.796C197.558 59.988 197.526 60.172 197.478 60.348C198.038 60.252 198.566 60.004 199.062 59.604C199.558 59.188 200.038 58.532 200.502 57.636L200.718 57.876C200.414 58.756 199.958 59.428 199.35 59.892C198.742 60.34 198.078 60.62 197.358 60.732C197.102 61.42 196.694 61.924 196.134 62.244C195.59 62.564 194.974 62.724 194.286 62.724ZM194.334 61.884C194.526 61.884 194.782 61.82 195.102 61.692C195.422 61.564 195.67 61.236 195.846 60.708C195.174 60.58 194.574 60.316 194.046 59.916C193.534 59.516 193.15 59.116 192.894 58.716C192.542 58.732 192.366 59.012 192.366 59.556C192.366 60.132 192.534 60.668 192.87 61.164C193.222 61.644 193.71 61.884 194.334 61.884ZM195.966 60.324C195.998 60.164 196.022 59.996 196.038 59.82C196.054 59.644 196.062 59.436 196.062 59.196C196.062 58.444 195.966 57.7 195.774 56.964C195.598 56.212 195.446 55.508 195.318 54.852C194.95 55.46 194.558 56.044 194.142 56.604C193.742 57.148 193.358 57.604 192.99 57.972C193.23 58.484 193.598 58.964 194.094 59.412C194.606 59.86 195.23 60.164 195.966 60.324ZM202.271 54.516C202.543 53.844 202.847 53.068 203.183 52.188C203.519 51.292 203.879 50.38 204.263 49.452C204.647 48.524 205.031 47.668 205.415 46.884C205.815 46.084 206.199 45.444 206.567 44.964C206.935 44.468 207.271 44.22 207.575 44.22C207.703 44.22 207.815 44.276 207.911 44.388C208.007 44.484 208.055 44.612 208.055 44.772C208.055 44.996 207.935 45.412 207.695 46.02C207.471 46.612 207.159 47.34 206.759 48.204C206.375 49.052 205.935 49.964 205.439 50.94C204.959 51.916 204.455 52.908 203.927 53.916C203.399 54.908 202.879 55.852 202.367 56.748C201.871 57.628 201.415 58.396 200.999 59.052C200.983 59.036 200.967 59.028 200.951 59.028C200.951 59.012 200.943 58.996 200.927 58.98C201.087 58.26 201.247 57.604 201.407 57.012C201.583 56.42 201.751 55.916 201.911 55.5C202.071 55.068 202.191 54.74 202.271 54.516ZM200.303 61.74C200.095 61.74 199.919 61.684 199.775 61.572C199.615 61.476 199.535 61.316 199.535 61.092C199.535 60.82 199.695 60.588 200.015 60.396C200.319 60.204 200.623 60.108 200.927 60.108C201.119 60.108 201.271 60.148 201.383 60.228C201.495 60.308 201.551 60.46 201.551 60.684C201.551 60.924 201.423 61.164 201.167 61.404C200.911 61.628 200.623 61.74 200.303 61.74Z" fill="black"/>
</g>
<defs>
<filter id="filter0_d_105_3" x="0.5" y="0.5" width="297" height="82" filterUnits="userSpaceOnUse" color-interpolation-filters="sRGB">
<feFlood flood-opacity="0" result="BackgroundImageFix"/>
<feColorMatrix in="SourceAlpha" type="matrix" values="0 0 0 0 0 0 0 0 0 0 0 0 0 0 0 0 0 0 127 0" result="hardAlpha"/>
<feOffset dx="2" dy="2"/>
<feGaussianBlur stdDeviation="1"/>
<feComposite in2="hardAlpha" operator="out"/>
<feColorMatrix type="matrix" values="0 0 0 0 0.333333 0 0 0 0 0.333333 0 0 0 0 0.333333 0 0 0 0.5 0"/>
<feBlend mode="normal" in2="BackgroundImageFix" result="effect1_dropShadow_105_3"/>
<feBlend mode="normal" in="SourceGraphic" in2="effect1_dropShadow_105_3" result="shape"/>
</filter>
</defs>
</svg>
