<svg width="298" height="83" viewBox="0 0 298 83" fill="none" xmlns="http://www.w3.org/2000/svg">
<g filter="url(#filter0_d_105_3)">
<rect width="293" height="78" transform="translate(0.5 0.5)" fill="#E4EDF1"/>
<path d="M35.5724 34.588C34.4364 34.588 33.5164 34.3 32.8124 33.724C32.1244 33.164 31.6204 32.436 31.3004 31.54C30.9964 30.644 30.8444 29.708 30.8444 28.732C30.8444 27.468 31.0364 26.196 31.4204 24.916C31.8044 23.636 32.3244 22.42 32.9804 21.268C33.6524 20.1 34.4124 19.068 35.2604 18.172C36.1084 17.26 36.9964 16.548 37.9244 16.036C38.8684 15.508 39.7964 15.244 40.7084 15.244C41.3644 15.244 41.8924 15.404 42.2924 15.724C42.7084 16.028 42.9164 16.556 42.9164 17.308C42.9164 17.772 42.8364 18.3 42.6764 18.892C42.5164 19.468 42.3004 20.028 42.0284 20.572C41.7564 21.1 41.4524 21.54 41.1164 21.892C40.7964 22.244 40.4684 22.42 40.1324 22.42C40.0044 22.42 39.8684 22.38 39.7244 22.3C39.5964 22.22 39.4844 22.076 39.3884 21.868C39.6284 21.596 39.8924 21.26 40.1804 20.86C40.4844 20.444 40.7724 20.012 41.0444 19.564C41.3164 19.1 41.5324 18.652 41.6924 18.22C41.8684 17.772 41.9564 17.38 41.9564 17.044C41.9564 16.724 41.8604 16.468 41.6684 16.276C41.4924 16.068 41.1964 15.964 40.7804 15.964C40.0924 15.964 39.3724 16.244 38.6204 16.804C37.8844 17.364 37.1644 18.116 36.4604 19.06C35.7724 19.988 35.1484 21.028 34.5884 22.18C34.0284 23.332 33.5804 24.508 33.2444 25.708C32.9244 26.908 32.7644 28.052 32.7644 29.14C32.7644 29.924 32.8764 30.676 33.1004 31.396C33.3244 32.1 33.6844 32.668 34.1804 33.1C34.6924 33.548 35.3484 33.772 36.1484 33.772C36.9964 33.772 37.8364 33.532 38.6684 33.052C39.5164 32.572 40.2924 31.94 40.9964 31.156C41.7004 30.372 42.2604 29.524 42.6764 28.612L43.0124 28.852C42.4844 29.892 41.8444 30.852 41.0924 31.732C40.3404 32.596 39.5004 33.284 38.5724 33.796C37.6444 34.324 36.6444 34.588 35.5724 34.588ZM43.9758 33.22C43.4318 33.22 42.9918 32.98 42.6558 32.5C42.3358 32.004 42.1758 31.436 42.1758 30.796C42.1758 30.332 42.2478 29.796 42.3918 29.188C42.5518 28.58 42.7438 27.98 42.9678 27.388C43.1918 26.796 43.4238 26.308 43.6638 25.924C43.9038 25.54 44.1118 25.348 44.2878 25.348C44.3678 25.348 44.5038 25.396 44.6958 25.492C44.8878 25.572 45.0478 25.684 45.1758 25.828C44.9998 26.1 44.7838 26.516 44.5278 27.076C44.2718 27.636 44.0478 28.236 43.8558 28.876C43.6638 29.516 43.5678 30.108 43.5678 30.652C43.5678 30.78 43.5838 30.98 43.6158 31.252C43.6478 31.508 43.7278 31.74 43.8558 31.948C43.9838 32.156 44.1758 32.26 44.4318 32.26C44.7358 32.26 45.0478 32.108 45.3678 31.804C45.6878 31.484 46.0078 31.076 46.3278 30.58C46.6638 30.084 46.9838 29.548 47.2878 28.972C47.5918 28.396 47.8718 27.844 48.1278 27.316C48.3998 26.788 48.6238 26.348 48.7998 25.996C48.8958 26.012 49.0318 26.044 49.2078 26.092C49.3998 26.14 49.5678 26.204 49.7118 26.284C49.8718 26.364 49.9518 26.476 49.9518 26.62C49.9518 26.684 49.8718 26.9 49.7118 27.268C49.5518 27.62 49.3598 28.06 49.1358 28.588C48.9278 29.1 48.7438 29.62 48.5838 30.148C48.4238 30.676 48.3438 31.14 48.3438 31.54C48.3438 31.828 48.3998 32.06 48.5118 32.236C48.6398 32.412 48.8478 32.5 49.1358 32.5C49.4718 32.5 49.8798 32.348 50.3598 32.044C50.8398 31.74 51.3278 31.3 51.8238 30.724C52.3198 30.132 52.7598 29.428 53.1438 28.612L53.4558 28.828C53.1198 29.692 52.6798 30.46 52.1358 31.132C51.5918 31.788 51.0158 32.3 50.4078 32.668C49.7998 33.036 49.2078 33.22 48.6318 33.22C48.2158 33.22 47.8798 33.14 47.6238 32.98C47.3838 32.82 47.2078 32.604 47.0958 32.332C46.9998 32.06 46.9518 31.764 46.9518 31.444C46.9518 31.252 46.9678 31.06 46.9998 30.868C47.0318 30.66 47.0718 30.452 47.1198 30.244C46.8318 30.772 46.5198 31.268 46.1838 31.732C45.8478 32.18 45.4958 32.54 45.1278 32.812C44.7598 33.084 44.3758 33.22 43.9758 33.22ZM54.6912 33.22C54.0032 33.22 53.5072 32.98 53.2032 32.5C52.9152 32.036 52.7712 31.452 52.7712 30.748C52.7712 29.98 52.9152 29.068 53.2032 28.012C53.4912 26.956 53.8672 25.844 54.3312 24.676C54.8112 23.508 55.3312 22.372 55.8912 21.268C56.4512 20.148 57.0112 19.132 57.5712 18.22C58.1312 17.308 58.6432 16.58 59.1072 16.036C59.5872 15.492 59.9632 15.22 60.2352 15.22C60.4112 15.22 60.5552 15.324 60.6672 15.532C60.7792 15.724 60.8672 15.964 60.9312 16.252C60.9952 16.524 61.0272 16.772 61.0272 16.996C61.0272 17.428 60.9152 17.996 60.6912 18.7C60.4832 19.388 60.1792 20.164 59.7792 21.028C59.3952 21.876 58.9312 22.74 58.3872 23.62C57.8592 24.484 57.2752 25.316 56.6352 26.116C56.0112 26.916 55.3472 27.604 54.6432 28.18C54.5472 28.612 54.4672 29.036 54.4032 29.452C54.3552 29.852 54.3312 30.236 54.3312 30.604C54.3312 31.228 54.4192 31.692 54.5952 31.996C54.7712 32.3 55.0352 32.452 55.3872 32.452C55.8192 32.452 56.2432 32.26 56.6592 31.876C57.0912 31.492 57.4912 31.012 57.8592 30.436C58.2432 29.844 58.5712 29.236 58.8432 28.612L59.2032 28.804C58.5632 30.164 57.8672 31.244 57.1152 32.044C56.3632 32.828 55.5552 33.22 54.6912 33.22ZM54.8592 27.364C55.4192 26.804 55.9632 26.164 56.4912 25.444C57.0192 24.708 57.5072 23.948 57.9552 23.164C58.4192 22.38 58.8272 21.62 59.1792 20.884C59.5312 20.148 59.8032 19.492 59.9952 18.916C60.1872 18.324 60.2832 17.868 60.2832 17.548C60.2832 17.388 60.2592 17.284 60.2112 17.236C60.1792 17.188 60.1472 17.164 60.1152 17.164C59.9872 17.164 59.7632 17.372 59.4432 17.788C59.1392 18.188 58.7792 18.732 58.3632 19.42C57.9472 20.108 57.5232 20.892 57.0912 21.772C56.6592 22.652 56.2432 23.572 55.8432 24.532C55.4592 25.492 55.1312 26.436 54.8592 27.364ZM60.4111 33.604C59.7231 33.604 59.1951 33.404 58.8271 33.004C58.4591 32.604 58.2751 32.012 58.2751 31.228C58.2751 30.524 58.4031 29.66 58.6591 28.636C58.9311 27.596 59.2671 26.532 59.6671 25.444C59.5071 25.412 59.3551 25.388 59.2111 25.372C59.0671 25.34 58.9311 25.3 58.8031 25.252V24.82C58.9311 24.836 59.0831 24.852 59.2591 24.868C59.4351 24.884 59.6351 24.9 59.8591 24.916C60.1951 24.052 60.5551 23.22 60.9391 22.42C61.3231 21.604 61.6991 20.884 62.0671 20.26C62.4511 19.62 62.8111 19.116 63.1471 18.748C63.4991 18.364 63.7951 18.172 64.0351 18.172C64.1631 18.172 64.2751 18.22 64.3711 18.316C64.4831 18.396 64.5391 18.524 64.5391 18.7C64.5391 18.972 64.3711 19.42 64.0351 20.044C63.6991 20.652 63.2831 21.38 62.7871 22.228C62.2911 23.076 61.8111 23.996 61.3471 24.988C61.4911 24.988 61.6351 24.988 61.7791 24.988C61.9391 24.988 62.0911 24.988 62.2351 24.988C62.7631 24.988 63.3151 24.98 63.8911 24.964C64.4831 24.948 65.0751 24.908 65.6671 24.844V25.276C64.7871 25.372 63.9951 25.444 63.2911 25.492C62.6031 25.54 61.9871 25.564 61.4431 25.564C61.3791 25.564 61.3151 25.564 61.2511 25.564C61.2031 25.564 61.1471 25.564 61.0831 25.564C60.7151 26.412 60.4031 27.284 60.1471 28.18C59.8911 29.076 59.7631 29.948 59.7631 30.796C59.7631 31.484 59.8671 31.98 60.0751 32.284C60.2831 32.572 60.6271 32.716 61.1071 32.716C61.9391 32.716 62.7551 32.348 63.5551 31.612C64.3551 30.876 65.0591 29.876 65.6671 28.612L65.9791 28.852C65.5951 29.748 65.1071 30.556 64.5151 31.276C63.9391 31.996 63.2991 32.564 62.5951 32.98C61.8911 33.396 61.1631 33.604 60.4111 33.604ZM66.9428 33.124C66.3188 33.124 65.8548 32.924 65.5508 32.524C65.2468 32.14 65.0948 31.668 65.0948 31.108C65.0948 30.74 65.1588 30.276 65.2868 29.716C65.4308 29.156 65.6148 28.572 65.8388 27.964C66.0628 27.34 66.3188 26.756 66.6068 26.212C66.9108 25.668 67.2308 25.228 67.5668 24.892C67.9028 24.54 68.2308 24.364 68.5508 24.364C68.6948 24.364 68.8148 24.412 68.9108 24.508C69.0228 24.588 69.0788 24.716 69.0788 24.892C69.0788 25.084 68.9508 25.396 68.6948 25.828C68.4548 26.26 68.1668 26.756 67.8308 27.316C67.4948 27.876 67.1988 28.468 66.9428 29.092C66.7028 29.7 66.5828 30.284 66.5828 30.844C66.5828 31.42 66.6788 31.804 66.8708 31.996C67.0628 32.188 67.3588 32.284 67.7588 32.284C68.3028 32.284 68.8788 32.012 69.4868 31.468C70.1108 30.924 70.7668 29.972 71.4548 28.612L71.6708 28.852C71.2068 30.228 70.5348 31.284 69.6548 32.02C68.7908 32.756 67.8868 33.124 66.9428 33.124ZM69.8228 22.132C69.5668 22.132 69.3348 22.068 69.1268 21.94C68.9348 21.812 68.8388 21.612 68.8388 21.34C68.8388 21.004 69.0308 20.716 69.4148 20.476C69.8148 20.22 70.2068 20.092 70.5908 20.092C70.8308 20.092 71.0228 20.148 71.1668 20.26C71.3108 20.372 71.3828 20.564 71.3828 20.836C71.3828 21.14 71.2148 21.436 70.8788 21.724C70.5588 21.996 70.2068 22.132 69.8228 22.132ZM72.5639 33.436C72.0679 33.436 71.7239 33.188 71.5319 32.692C71.3399 32.212 71.2439 31.58 71.2439 30.796C71.2439 30.764 71.2519 30.516 71.2679 30.052C71.2839 29.572 71.3239 28.772 71.3879 27.652C71.4199 27.22 71.4679 26.924 71.5319 26.764C71.5959 26.604 71.8039 26.524 72.1559 26.524C72.4279 26.524 72.5959 26.58 72.6599 26.692C72.7399 26.788 72.7799 26.988 72.7799 27.292C72.7799 27.82 72.7399 28.444 72.6599 29.164C72.5959 29.868 72.5639 30.532 72.5639 31.156C72.5639 31.62 72.6039 31.964 72.6839 32.188C72.7639 32.396 72.9079 32.5 73.1159 32.5C73.4039 32.5 73.7239 32.34 74.0759 32.02C74.4279 31.684 74.7879 31.252 75.1559 30.724C75.5239 30.18 75.8679 29.604 76.1879 28.996C76.5239 28.388 76.8199 27.804 77.0759 27.244C77.1079 26.156 77.2199 25.436 77.4119 25.084C77.6199 24.716 77.8759 24.532 78.1799 24.532C78.4839 24.532 78.6999 24.644 78.8279 24.868C78.9719 25.076 79.0439 25.268 79.0439 25.444C79.0439 25.652 78.9719 25.868 78.8279 26.092C78.6999 26.316 78.5639 26.62 78.4199 27.004C78.2759 27.388 78.2039 27.94 78.2039 28.66C78.2039 28.916 78.2279 29.188 78.2759 29.476C78.3239 29.764 78.4279 30.004 78.5879 30.196C78.7479 30.388 78.9959 30.484 79.3319 30.484C79.6679 30.484 79.9879 30.356 80.2919 30.1C80.6119 29.828 80.9239 29.364 81.2279 28.708L81.5399 28.948C81.1879 29.748 80.7959 30.284 80.3639 30.556C79.9479 30.828 79.5479 30.964 79.1639 30.964C78.6359 30.964 78.1959 30.772 77.8439 30.388C77.4919 30.004 77.2599 29.42 77.1479 28.636C76.7639 29.42 76.3079 30.18 75.7799 30.916C75.2679 31.636 74.7319 32.236 74.1719 32.716C73.6119 33.196 73.0759 33.436 72.5639 33.436ZM83.3693 33.556C82.3933 33.556 81.6573 33.284 81.1613 32.74C80.6813 32.212 80.4413 31.556 80.4413 30.772C80.4413 30.052 80.6173 29.292 80.9693 28.492C81.3373 27.692 81.8173 26.94 82.4093 26.236C83.0173 25.532 83.6813 24.964 84.4013 24.532C85.1213 24.084 85.8333 23.86 86.5373 23.86C86.9053 23.86 87.2413 23.956 87.5453 24.148C87.8653 24.34 88.0253 24.732 88.0253 25.324C88.0253 25.932 87.8413 26.508 87.4733 27.052C87.1213 27.58 86.6493 28.052 86.0573 28.468C85.4813 28.884 84.8413 29.228 84.1373 29.5C83.4493 29.756 82.7613 29.916 82.0733 29.98C82.0413 30.14 82.0173 30.292 82.0013 30.436C81.9853 30.58 81.9773 30.716 81.9773 30.844C81.9773 31.084 82.0013 31.324 82.0493 31.564C82.1133 31.804 82.2173 32.028 82.3613 32.236C82.5053 32.428 82.6973 32.58 82.9373 32.692C83.1933 32.804 83.5053 32.86 83.8733 32.86C84.5613 32.86 85.2413 32.668 85.9133 32.284C86.5853 31.884 87.2093 31.364 87.7853 30.724C88.3613 30.084 88.8493 29.38 89.2493 28.612L89.5373 28.828C89.1053 29.788 88.5533 30.62 87.8813 31.324C87.2253 32.028 86.5053 32.572 85.7213 32.956C84.9533 33.356 84.1693 33.556 83.3693 33.556ZM82.1933 29.524C82.6253 29.38 83.1133 29.172 83.6573 28.9C84.2013 28.612 84.7213 28.276 85.2173 27.892C85.7293 27.508 86.1453 27.084 86.4653 26.62C86.8013 26.156 86.9693 25.668 86.9693 25.156C86.9693 24.98 86.9373 24.844 86.8733 24.748C86.8093 24.652 86.6733 24.604 86.4653 24.604C86.0813 24.604 85.6733 24.756 85.2413 25.06C84.8093 25.348 84.3933 25.732 83.9933 26.212C83.5933 26.692 83.2333 27.22 82.9133 27.796C82.5933 28.372 82.3533 28.948 82.1933 29.524ZM97.5719 33.844C96.8039 33.844 96.1639 33.588 95.6519 33.076C95.1399 32.564 94.8839 31.796 94.8839 30.772C94.8839 29.972 95.0359 29.196 95.3399 28.444C95.6599 27.676 96.0759 26.988 96.5879 26.38C97.0999 25.772 97.6679 25.292 98.2919 24.94C98.9159 24.572 99.5319 24.388 100.14 24.388C100.796 24.388 101.244 24.58 101.484 24.964C101.724 25.348 101.844 25.748 101.844 26.164C101.844 26.628 101.732 27.036 101.508 27.388C101.3 27.74 101.012 27.916 100.644 27.916C100.372 27.916 100.14 27.796 99.9479 27.556C100.188 27.428 100.396 27.172 100.572 26.788C100.748 26.388 100.836 26.012 100.836 25.66C100.836 25.468 100.796 25.324 100.716 25.228C100.652 25.116 100.516 25.06 100.308 25.06C99.8759 25.06 99.4279 25.252 98.9639 25.636C98.5159 26.02 98.0919 26.516 97.6919 27.124C97.3079 27.732 96.9879 28.372 96.7319 29.044C96.4919 29.716 96.3719 30.348 96.3719 30.94C96.3719 31.436 96.4919 31.892 96.7319 32.308C96.9719 32.724 97.4359 32.932 98.1239 32.932C98.7639 32.932 99.4039 32.756 100.044 32.404C100.7 32.052 101.308 31.548 101.868 30.892C102.428 30.236 102.876 29.468 103.212 28.588L103.524 28.828C103.156 29.788 102.652 30.652 102.012 31.42C101.372 32.172 100.668 32.764 99.8999 33.196C99.1319 33.628 98.3559 33.844 97.5719 33.844ZM104.418 33.268C103.73 33.268 103.242 33.052 102.954 32.62C102.666 32.204 102.522 31.692 102.522 31.084C102.522 30.588 102.602 30.076 102.762 29.548C102.922 29.02 103.13 28.524 103.386 28.06C103.658 27.596 103.954 27.22 104.274 26.932C104.61 26.644 104.946 26.5 105.282 26.5C105.362 26.5 105.442 26.516 105.522 26.548C105.618 26.564 105.706 26.588 105.786 26.62C105.642 26.748 105.466 26.988 105.258 27.34C105.066 27.676 104.882 28.068 104.706 28.516C104.53 28.948 104.378 29.38 104.25 29.812C104.138 30.244 104.082 30.612 104.082 30.916C104.082 31.396 104.162 31.748 104.322 31.972C104.482 32.18 104.69 32.284 104.946 32.284C105.282 32.284 105.682 32.108 106.146 31.756C106.61 31.388 107.066 30.924 107.514 30.364C107.066 29.996 106.714 29.516 106.458 28.924C106.218 28.316 106.098 27.7 106.098 27.076C106.098 26.548 106.186 26.052 106.362 25.588C106.554 25.124 106.826 24.756 107.178 24.484C107.53 24.196 107.954 24.052 108.45 24.052C109.106 24.052 109.546 24.228 109.77 24.58C109.994 24.932 110.106 25.372 110.106 25.9C110.106 26.524 109.954 27.22 109.65 27.988C109.346 28.74 108.962 29.468 108.498 30.172C108.786 30.332 109.09 30.412 109.41 30.412C109.666 30.412 109.954 30.364 110.274 30.268C110.594 30.156 110.906 29.972 111.21 29.716C111.53 29.46 111.786 29.116 111.978 28.684L112.266 28.924C111.946 29.676 111.49 30.212 110.898 30.532C110.322 30.836 109.77 30.988 109.242 30.988C109.034 30.988 108.834 30.972 108.642 30.94C108.45 30.892 108.266 30.828 108.09 30.748C107.546 31.468 106.946 32.068 106.29 32.548C105.65 33.028 105.026 33.268 104.418 33.268ZM107.946 29.74C108.346 29.148 108.674 28.532 108.93 27.892C109.202 27.236 109.338 26.62 109.338 26.044C109.338 25.58 109.266 25.244 109.122 25.036C108.994 24.812 108.826 24.7 108.618 24.7C108.298 24.7 107.97 24.932 107.634 25.396C107.298 25.86 107.13 26.444 107.13 27.148C107.13 27.612 107.194 28.084 107.322 28.564C107.466 29.028 107.674 29.42 107.946 29.74ZM113.255 33.124C112.631 33.124 112.167 32.924 111.863 32.524C111.559 32.14 111.407 31.668 111.407 31.108C111.407 30.74 111.471 30.276 111.599 29.716C111.743 29.156 111.927 28.572 112.151 27.964C112.375 27.34 112.631 26.756 112.919 26.212C113.223 25.668 113.543 25.228 113.879 24.892C114.215 24.54 114.543 24.364 114.863 24.364C115.007 24.364 115.127 24.412 115.223 24.508C115.335 24.588 115.391 24.716 115.391 24.892C115.391 25.084 115.263 25.396 115.007 25.828C114.767 26.26 114.479 26.756 114.143 27.316C113.807 27.876 113.511 28.468 113.255 29.092C113.015 29.7 112.895 30.284 112.895 30.844C112.895 31.42 112.991 31.804 113.183 31.996C113.375 32.188 113.671 32.284 114.071 32.284C114.615 32.284 115.191 32.012 115.799 31.468C116.423 30.924 117.079 29.972 117.767 28.612L117.983 28.852C117.519 30.228 116.847 31.284 115.967 32.02C115.103 32.756 114.199 33.124 113.255 33.124ZM116.135 22.132C115.879 22.132 115.647 22.068 115.439 21.94C115.247 21.812 115.151 21.612 115.151 21.34C115.151 21.004 115.343 20.716 115.727 20.476C116.127 20.22 116.519 20.092 116.903 20.092C117.143 20.092 117.335 20.148 117.479 20.26C117.623 20.372 117.695 20.564 117.695 20.836C117.695 21.14 117.527 21.436 117.191 21.724C116.871 21.996 116.519 22.132 116.135 22.132ZM119.836 33.724C119.084 33.724 118.484 33.556 118.036 33.22C117.604 32.9 117.3 32.5 117.124 32.02C116.932 31.54 116.836 31.06 116.836 30.58C116.836 30.1 116.9 29.732 117.028 29.476C117.156 29.22 117.308 29.028 117.484 28.9C117.676 28.772 117.852 28.676 118.012 28.612C118.188 28.548 118.308 28.484 118.372 28.42C118.852 27.892 119.292 27.34 119.692 26.764C120.092 26.188 120.444 25.58 120.748 24.94V24.652C120.748 24.06 120.844 23.644 121.036 23.404C121.244 23.148 121.46 23.02 121.684 23.02C121.812 23.02 121.908 23.052 121.972 23.116C122.036 23.18 122.068 23.252 122.068 23.332C122.068 23.412 122.044 23.54 121.996 23.716C121.948 23.892 121.924 24.116 121.924 24.388C121.924 24.916 122.028 25.492 122.236 26.116C122.444 26.724 122.652 27.372 122.86 28.06C123.068 28.732 123.172 29.436 123.172 30.172C123.172 30.38 123.156 30.588 123.124 30.796C123.108 30.988 123.076 31.172 123.028 31.348C123.588 31.252 124.116 31.004 124.612 30.604C125.108 30.188 125.588 29.532 126.052 28.636L126.268 28.876C125.964 29.756 125.508 30.428 124.9 30.892C124.292 31.34 123.628 31.62 122.908 31.732C122.652 32.42 122.244 32.924 121.684 33.244C121.14 33.564 120.524 33.724 119.836 33.724ZM119.884 32.884C120.076 32.884 120.332 32.82 120.652 32.692C120.972 32.564 121.22 32.236 121.396 31.708C120.724 31.58 120.124 31.316 119.596 30.916C119.084 30.516 118.7 30.116 118.444 29.716C118.092 29.732 117.916 30.012 117.916 30.556C117.916 31.132 118.084 31.668 118.42 32.164C118.772 32.644 119.26 32.884 119.884 32.884ZM121.516 31.324C121.548 31.164 121.572 30.996 121.588 30.82C121.604 30.644 121.612 30.436 121.612 30.196C121.612 29.444 121.516 28.7 121.324 27.964C121.148 27.212 120.996 26.508 120.868 25.852C120.5 26.46 120.108 27.044 119.692 27.604C119.292 28.148 118.908 28.604 118.54 28.972C118.78 29.484 119.148 29.964 119.644 30.412C120.156 30.86 120.78 31.164 121.516 31.324ZM126.742 33.628C126.246 33.628 125.83 33.46 125.494 33.124C125.142 32.804 124.966 32.308 124.966 31.636C124.966 31.06 125.094 30.444 125.35 29.788C125.606 29.116 125.958 28.46 126.406 27.82C126.854 27.164 127.358 26.572 127.918 26.044C128.494 25.5 129.094 25.068 129.718 24.748C130.358 24.428 130.99 24.268 131.614 24.268C132.238 24.268 132.758 24.436 133.174 24.772C133.59 25.092 133.798 25.524 133.798 26.068C133.798 26.468 133.686 26.74 133.462 26.884C133.254 27.028 132.974 27.1 132.622 27.1C132.654 26.972 132.678 26.836 132.694 26.692C132.726 26.532 132.742 26.388 132.742 26.26C132.742 25.892 132.654 25.58 132.478 25.324C132.302 25.052 131.998 24.916 131.566 24.916C131.118 24.916 130.662 25.076 130.198 25.396C129.734 25.7 129.286 26.116 128.854 26.644C128.422 27.156 128.038 27.716 127.702 28.324C127.366 28.932 127.102 29.532 126.91 30.124C126.718 30.716 126.622 31.244 126.622 31.708C126.622 32.332 126.838 32.644 127.27 32.644C127.638 32.644 128.038 32.476 128.47 32.14C128.902 31.788 129.342 31.348 129.79 30.82C130.254 30.276 130.694 29.716 131.11 29.14C131.526 28.564 131.894 28.036 132.214 27.556C132.278 27.46 132.318 27.412 132.334 27.412C132.43 27.428 132.55 27.46 132.694 27.508C132.854 27.556 132.99 27.62 133.102 27.7C133.214 27.78 133.27 27.884 133.27 28.012C133.27 28.156 133.198 28.356 133.054 28.612C132.91 28.852 132.75 29.132 132.574 29.452C132.398 29.772 132.238 30.1 132.094 30.436C131.95 30.756 131.878 31.06 131.878 31.348C131.878 31.588 131.942 31.828 132.07 32.068C132.198 32.292 132.406 32.404 132.694 32.404C133.126 32.404 133.694 32.092 134.398 31.468C135.102 30.828 135.814 29.876 136.534 28.612L136.774 28.852C136.438 29.716 136.006 30.476 135.478 31.132C134.95 31.788 134.382 32.3 133.774 32.668C133.182 33.036 132.598 33.22 132.022 33.22C131.43 33.22 130.99 33.044 130.702 32.692C130.43 32.34 130.294 31.956 130.294 31.54C130.294 31.444 130.302 31.34 130.318 31.228C130.334 31.1 130.35 30.972 130.366 30.844C129.678 31.772 129.046 32.468 128.47 32.932C127.91 33.396 127.334 33.628 126.742 33.628ZM138.563 33.724C137.811 33.724 137.211 33.556 136.763 33.22C136.331 32.9 136.027 32.5 135.851 32.02C135.659 31.54 135.563 31.06 135.563 30.58C135.563 30.1 135.627 29.732 135.755 29.476C135.883 29.22 136.035 29.028 136.211 28.9C136.403 28.772 136.579 28.676 136.739 28.612C136.915 28.548 137.035 28.484 137.099 28.42C137.579 27.892 138.019 27.34 138.419 26.764C138.819 26.188 139.171 25.58 139.475 24.94V24.652C139.475 24.06 139.571 23.644 139.763 23.404C139.971 23.148 140.187 23.02 140.411 23.02C140.539 23.02 140.635 23.052 140.699 23.116C140.763 23.18 140.795 23.252 140.795 23.332C140.795 23.412 140.771 23.54 140.723 23.716C140.675 23.892 140.651 24.116 140.651 24.388C140.651 24.916 140.755 25.492 140.963 26.116C141.171 26.724 141.379 27.372 141.587 28.06C141.795 28.732 141.899 29.436 141.899 30.172C141.899 30.38 141.883 30.588 141.851 30.796C141.835 30.988 141.803 31.172 141.755 31.348C142.315 31.252 142.843 31.004 143.339 30.604C143.835 30.188 144.315 29.532 144.779 28.636L144.995 28.876C144.691 29.756 144.235 30.428 143.627 30.892C143.019 31.34 142.355 31.62 141.635 31.732C141.379 32.42 140.971 32.924 140.411 33.244C139.867 33.564 139.251 33.724 138.563 33.724ZM138.611 32.884C138.803 32.884 139.059 32.82 139.379 32.692C139.699 32.564 139.947 32.236 140.123 31.708C139.451 31.58 138.851 31.316 138.323 30.916C137.811 30.516 137.427 30.116 137.171 29.716C136.819 29.732 136.643 30.012 136.643 30.556C136.643 31.132 136.811 31.668 137.147 32.164C137.499 32.644 137.987 32.884 138.611 32.884ZM140.243 31.324C140.275 31.164 140.299 30.996 140.315 30.82C140.331 30.644 140.339 30.436 140.339 30.196C140.339 29.444 140.243 28.7 140.051 27.964C139.875 27.212 139.723 26.508 139.595 25.852C139.227 26.46 138.835 27.044 138.419 27.604C138.019 28.148 137.635 28.604 137.267 28.972C137.507 29.484 137.875 29.964 138.371 30.412C138.883 30.86 139.507 31.164 140.243 31.324ZM152.783 34.252C151.951 34.252 151.327 33.98 150.911 33.436C150.511 32.892 150.311 32.156 150.311 31.228C150.311 30.428 150.447 29.484 150.719 28.396C150.991 27.308 151.351 26.172 151.799 24.988C152.247 23.788 152.743 22.62 153.287 21.484C153.847 20.348 154.407 19.324 154.967 18.412C155.527 17.484 156.055 16.748 156.551 16.204C157.047 15.644 157.455 15.364 157.775 15.364C158.047 15.364 158.239 15.532 158.351 15.868C158.479 16.204 158.543 16.54 158.543 16.876C158.543 17.324 158.447 17.868 158.255 18.508C158.063 19.148 157.791 19.836 157.439 20.572C157.087 21.292 156.679 22.004 156.215 22.708C155.751 23.412 155.247 24.06 154.703 24.652C154.175 25.228 153.631 25.684 153.071 26.02C152.975 26.196 152.831 26.564 152.639 27.124C152.463 27.668 152.295 28.3 152.135 29.02C151.991 29.724 151.919 30.412 151.919 31.084C151.919 31.74 152.015 32.276 152.207 32.692C152.415 33.124 152.759 33.34 153.239 33.34C153.703 33.34 154.183 33.148 154.679 32.764C155.175 32.396 155.575 31.916 155.879 31.324C155.287 31.02 154.847 30.58 154.559 30.004C154.271 29.412 154.127 28.82 154.127 28.228C154.127 27.46 154.327 26.844 154.727 26.38C155.127 25.916 155.599 25.684 156.143 25.684C156.607 25.684 156.975 25.876 157.247 26.26C157.519 26.628 157.655 27.172 157.655 27.892C157.655 28.42 157.583 28.964 157.439 29.524C157.295 30.084 157.087 30.628 156.815 31.156C156.911 31.172 157.007 31.188 157.103 31.204C157.215 31.22 157.327 31.228 157.439 31.228C158.015 31.228 158.495 31.092 158.879 30.82C159.263 30.532 159.583 30.188 159.839 29.788C160.111 29.372 160.335 28.98 160.511 28.612L160.799 28.924C160.351 30.028 159.815 30.764 159.191 31.132C158.583 31.484 157.975 31.66 157.367 31.66C157.239 31.66 157.111 31.652 156.983 31.636C156.855 31.62 156.727 31.604 156.599 31.588C156.167 32.324 155.631 32.948 154.991 33.46C154.367 33.988 153.631 34.252 152.783 34.252ZM156.119 30.844C156.295 30.476 156.431 30.092 156.527 29.692C156.623 29.276 156.671 28.852 156.671 28.42C156.671 27.86 156.591 27.42 156.431 27.1C156.287 26.78 156.103 26.62 155.879 26.62C155.639 26.62 155.423 26.788 155.231 27.124C155.055 27.444 154.967 27.852 154.967 28.348C154.967 28.78 155.055 29.236 155.231 29.716C155.407 30.196 155.703 30.572 156.119 30.844ZM153.335 25.084C153.783 24.732 154.215 24.284 154.631 23.74C155.063 23.196 155.463 22.62 155.831 22.012C156.199 21.388 156.527 20.78 156.815 20.188C157.103 19.596 157.327 19.06 157.487 18.58C157.647 18.1 157.727 17.74 157.727 17.5C157.727 17.42 157.719 17.372 157.703 17.356C157.687 17.324 157.663 17.308 157.631 17.308C157.503 17.308 157.255 17.54 156.887 18.004C156.535 18.452 156.135 19.06 155.687 19.828C155.255 20.58 154.823 21.42 154.391 22.348C153.959 23.26 153.607 24.172 153.335 25.084ZM161.652 33.268C160.964 33.268 160.476 33.052 160.188 32.62C159.9 32.204 159.756 31.692 159.756 31.084C159.756 30.588 159.836 30.076 159.996 29.548C160.156 29.02 160.364 28.524 160.62 28.06C160.892 27.596 161.188 27.22 161.508 26.932C161.844 26.644 162.18 26.5 162.516 26.5C162.596 26.5 162.676 26.516 162.756 26.548C162.852 26.564 162.94 26.588 163.02 26.62C162.876 26.748 162.7 26.988 162.492 27.34C162.3 27.676 162.116 28.068 161.94 28.516C161.764 28.948 161.612 29.38 161.484 29.812C161.372 30.244 161.316 30.612 161.316 30.916C161.316 31.396 161.396 31.748 161.556 31.972C161.716 32.18 161.924 32.284 162.18 32.284C162.516 32.284 162.916 32.108 163.38 31.756C163.844 31.388 164.3 30.924 164.748 30.364C164.3 29.996 163.948 29.516 163.692 28.924C163.452 28.316 163.332 27.7 163.332 27.076C163.332 26.548 163.42 26.052 163.596 25.588C163.788 25.124 164.06 24.756 164.412 24.484C164.764 24.196 165.188 24.052 165.684 24.052C166.34 24.052 166.78 24.228 167.004 24.58C167.228 24.932 167.34 25.372 167.34 25.9C167.34 26.524 167.188 27.22 166.884 27.988C166.58 28.74 166.196 29.468 165.732 30.172C166.02 30.332 166.324 30.412 166.644 30.412C166.9 30.412 167.188 30.364 167.508 30.268C167.828 30.156 168.14 29.972 168.444 29.716C168.764 29.46 169.02 29.116 169.212 28.684L169.5 28.924C169.18 29.676 168.724 30.212 168.132 30.532C167.556 30.836 167.004 30.988 166.476 30.988C166.268 30.988 166.068 30.972 165.876 30.94C165.684 30.892 165.5 30.828 165.324 30.748C164.78 31.468 164.18 32.068 163.524 32.548C162.884 33.028 162.26 33.268 161.652 33.268ZM165.18 29.74C165.58 29.148 165.908 28.532 166.164 27.892C166.436 27.236 166.572 26.62 166.572 26.044C166.572 25.58 166.5 25.244 166.356 25.036C166.228 24.812 166.06 24.7 165.852 24.7C165.532 24.7 165.204 24.932 164.868 25.396C164.532 25.86 164.364 26.444 164.364 27.148C164.364 27.612 164.428 28.084 164.556 28.564C164.7 29.028 164.908 29.42 165.18 29.74ZM169.914 33.628C169.418 33.628 169.002 33.46 168.666 33.124C168.314 32.804 168.138 32.308 168.138 31.636C168.138 31.06 168.266 30.444 168.522 29.788C168.778 29.116 169.13 28.46 169.578 27.82C170.026 27.164 170.53 26.572 171.09 26.044C171.666 25.5 172.266 25.068 172.89 24.748C173.53 24.428 174.162 24.268 174.786 24.268C175.41 24.268 175.93 24.436 176.346 24.772C176.762 25.092 176.97 25.524 176.97 26.068C176.97 26.468 176.858 26.74 176.634 26.884C176.426 27.028 176.146 27.1 175.794 27.1C175.826 26.972 175.85 26.836 175.866 26.692C175.898 26.532 175.914 26.388 175.914 26.26C175.914 25.892 175.826 25.58 175.65 25.324C175.474 25.052 175.17 24.916 174.738 24.916C174.29 24.916 173.834 25.076 173.37 25.396C172.906 25.7 172.458 26.116 172.026 26.644C171.594 27.156 171.21 27.716 170.874 28.324C170.538 28.932 170.274 29.532 170.082 30.124C169.89 30.716 169.794 31.244 169.794 31.708C169.794 32.332 170.01 32.644 170.442 32.644C170.81 32.644 171.21 32.476 171.642 32.14C172.074 31.788 172.514 31.348 172.962 30.82C173.426 30.276 173.866 29.716 174.282 29.14C174.698 28.564 175.066 28.036 175.386 27.556C175.45 27.46 175.49 27.412 175.506 27.412C175.602 27.428 175.722 27.46 175.866 27.508C176.026 27.556 176.162 27.62 176.274 27.7C176.386 27.78 176.442 27.884 176.442 28.012C176.442 28.156 176.37 28.356 176.226 28.612C176.082 28.852 175.922 29.132 175.746 29.452C175.57 29.772 175.41 30.1 175.266 30.436C175.122 30.756 175.05 31.06 175.05 31.348C175.05 31.588 175.114 31.828 175.242 32.068C175.37 32.292 175.578 32.404 175.866 32.404C176.298 32.404 176.866 32.092 177.57 31.468C178.274 30.828 178.986 29.876 179.706 28.612L179.946 28.852C179.61 29.716 179.178 30.476 178.65 31.132C178.122 31.788 177.554 32.3 176.946 32.668C176.354 33.036 175.77 33.22 175.194 33.22C174.602 33.22 174.162 33.044 173.874 32.692C173.602 32.34 173.466 31.956 173.466 31.54C173.466 31.444 173.474 31.34 173.49 31.228C173.506 31.1 173.522 30.972 173.538 30.844C172.85 31.772 172.218 32.468 171.642 32.932C171.082 33.396 170.506 33.628 169.914 33.628ZM181.735 33.724C180.983 33.724 180.383 33.556 179.935 33.22C179.503 32.9 179.199 32.5 179.023 32.02C178.831 31.54 178.735 31.06 178.735 30.58C178.735 30.1 178.799 29.732 178.927 29.476C179.055 29.22 179.207 29.028 179.383 28.9C179.575 28.772 179.751 28.676 179.911 28.612C180.087 28.548 180.207 28.484 180.271 28.42C180.751 27.892 181.191 27.34 181.591 26.764C181.991 26.188 182.343 25.58 182.647 24.94V24.652C182.647 24.06 182.743 23.644 182.935 23.404C183.143 23.148 183.359 23.02 183.583 23.02C183.711 23.02 183.807 23.052 183.871 23.116C183.935 23.18 183.967 23.252 183.967 23.332C183.967 23.412 183.943 23.54 183.895 23.716C183.847 23.892 183.823 24.116 183.823 24.388C183.823 24.916 183.927 25.492 184.135 26.116C184.343 26.724 184.551 27.372 184.759 28.06C184.967 28.732 185.071 29.436 185.071 30.172C185.071 30.38 185.055 30.588 185.023 30.796C185.007 30.988 184.975 31.172 184.927 31.348C185.487 31.252 186.015 31.004 186.511 30.604C187.007 30.188 187.487 29.532 187.951 28.636L188.167 28.876C187.863 29.756 187.407 30.428 186.799 30.892C186.191 31.34 185.527 31.62 184.807 31.732C184.551 32.42 184.143 32.924 183.583 33.244C183.039 33.564 182.423 33.724 181.735 33.724ZM181.783 32.884C181.975 32.884 182.231 32.82 182.551 32.692C182.871 32.564 183.119 32.236 183.295 31.708C182.623 31.58 182.023 31.316 181.495 30.916C180.983 30.516 180.599 30.116 180.343 29.716C179.991 29.732 179.815 30.012 179.815 30.556C179.815 31.132 179.983 31.668 180.319 32.164C180.671 32.644 181.159 32.884 181.783 32.884ZM183.415 31.324C183.447 31.164 183.471 30.996 183.487 30.82C183.503 30.644 183.511 30.436 183.511 30.196C183.511 29.444 183.415 28.7 183.223 27.964C183.047 27.212 182.895 26.508 182.767 25.852C182.399 26.46 182.007 27.044 181.591 27.604C181.191 28.148 180.807 28.604 180.439 28.972C180.679 29.484 181.047 29.964 181.543 30.412C182.055 30.86 182.679 31.164 183.415 31.324ZM201.475 32.98C200.915 32.98 200.491 32.836 200.203 32.548C199.931 32.26 199.795 31.892 199.795 31.444C199.795 31.108 199.851 30.756 199.963 30.388C200.091 30.02 200.211 29.644 200.323 29.26C200.435 28.86 200.491 28.476 200.491 28.108C200.491 27.66 200.395 27.356 200.203 27.196C200.027 27.02 199.803 26.932 199.531 26.932C199.035 26.932 198.531 27.14 198.019 27.556C197.507 27.956 197.011 28.476 196.531 29.116C196.051 29.74 195.603 30.388 195.187 31.06C194.771 31.732 194.403 32.332 194.083 32.86C193.827 32.86 193.587 32.812 193.363 32.716C193.123 32.636 192.939 32.508 192.811 32.332C192.811 32.252 192.899 32.004 193.075 31.588C193.235 31.172 193.427 30.66 193.651 30.052C193.875 29.444 194.075 28.82 194.251 28.18C194.427 27.54 194.515 26.956 194.515 26.428C194.611 26.316 194.763 26.204 194.971 26.092C195.179 25.98 195.395 25.924 195.619 25.924C196.051 25.924 196.267 26.132 196.267 26.548C196.267 26.804 196.195 27.236 196.051 27.844C195.907 28.436 195.723 29.06 195.499 29.716C195.931 29.06 196.411 28.412 196.939 27.772C197.483 27.116 198.059 26.572 198.667 26.14C199.275 25.708 199.883 25.492 200.491 25.492C201.115 25.492 201.563 25.716 201.835 26.164C202.123 26.612 202.267 27.108 202.267 27.652C202.267 28.148 202.187 28.612 202.027 29.044C201.867 29.46 201.699 29.868 201.523 30.268C201.363 30.652 201.283 31.044 201.283 31.444C201.283 31.78 201.347 32.02 201.475 32.164C201.619 32.292 201.795 32.356 202.003 32.356C202.403 32.356 202.803 32.172 203.203 31.804C203.603 31.42 203.987 30.94 204.355 30.364C204.739 29.788 205.075 29.204 205.363 28.612L205.627 28.924C205.291 29.708 204.915 30.404 204.499 31.012C204.083 31.62 203.627 32.1 203.131 32.452C202.635 32.804 202.083 32.98 201.475 32.98ZM206.054 33.628C205.558 33.628 205.142 33.46 204.806 33.124C204.454 32.804 204.278 32.308 204.278 31.636C204.278 31.06 204.406 30.444 204.662 29.788C204.918 29.116 205.27 28.46 205.718 27.82C206.166 27.164 206.67 26.572 207.23 26.044C207.806 25.5 208.406 25.068 209.03 24.748C209.67 24.428 210.302 24.268 210.926 24.268C211.55 24.268 212.07 24.436 212.486 24.772C212.902 25.092 213.11 25.524 213.11 26.068C213.11 26.468 212.998 26.74 212.774 26.884C212.566 27.028 212.286 27.1 211.934 27.1C211.966 26.972 211.99 26.836 212.006 26.692C212.038 26.532 212.054 26.388 212.054 26.26C212.054 25.892 211.966 25.58 211.79 25.324C211.614 25.052 211.31 24.916 210.878 24.916C210.43 24.916 209.974 25.076 209.51 25.396C209.046 25.7 208.598 26.116 208.166 26.644C207.734 27.156 207.35 27.716 207.014 28.324C206.678 28.932 206.414 29.532 206.222 30.124C206.03 30.716 205.934 31.244 205.934 31.708C205.934 32.332 206.15 32.644 206.582 32.644C206.95 32.644 207.35 32.476 207.782 32.14C208.214 31.788 208.654 31.348 209.102 30.82C209.566 30.276 210.006 29.716 210.422 29.14C210.838 28.564 211.206 28.036 211.526 27.556C211.59 27.46 211.63 27.412 211.646 27.412C211.742 27.428 211.862 27.46 212.006 27.508C212.166 27.556 212.302 27.62 212.414 27.7C212.526 27.78 212.582 27.884 212.582 28.012C212.582 28.156 212.51 28.356 212.366 28.612C212.222 28.852 212.062 29.132 211.886 29.452C211.71 29.772 211.55 30.1 211.406 30.436C211.262 30.756 211.19 31.06 211.19 31.348C211.19 31.588 211.254 31.828 211.382 32.068C211.51 32.292 211.718 32.404 212.006 32.404C212.438 32.404 213.006 32.092 213.71 31.468C214.414 30.828 215.126 29.876 215.846 28.612L216.086 28.852C215.75 29.716 215.318 30.476 214.79 31.132C214.262 31.788 213.694 32.3 213.086 32.668C212.494 33.036 211.91 33.22 211.334 33.22C210.742 33.22 210.302 33.044 210.014 32.692C209.742 32.34 209.606 31.956 209.606 31.54C209.606 31.444 209.614 31.34 209.63 31.228C209.646 31.1 209.662 30.972 209.678 30.844C208.99 31.772 208.358 32.468 207.782 32.932C207.222 33.396 206.646 33.628 206.054 33.628ZM222.742 33.628C222.246 33.628 221.83 33.46 221.494 33.124C221.142 32.804 220.966 32.308 220.966 31.636C220.966 31.06 221.094 30.444 221.35 29.788C221.606 29.116 221.958 28.46 222.406 27.82C222.854 27.164 223.358 26.572 223.918 26.044C224.494 25.5 225.094 25.068 225.718 24.748C226.358 24.428 226.99 24.268 227.614 24.268C228.238 24.268 228.758 24.436 229.174 24.772C229.59 25.092 229.798 25.524 229.798 26.068C229.798 26.468 229.686 26.74 229.462 26.884C229.254 27.028 228.974 27.1 228.622 27.1C228.654 26.972 228.678 26.836 228.694 26.692C228.726 26.532 228.742 26.388 228.742 26.26C228.742 25.892 228.654 25.58 228.478 25.324C228.302 25.052 227.998 24.916 227.566 24.916C227.118 24.916 226.662 25.076 226.198 25.396C225.734 25.7 225.286 26.116 224.854 26.644C224.422 27.156 224.038 27.716 223.702 28.324C223.366 28.932 223.102 29.532 222.91 30.124C222.718 30.716 222.622 31.244 222.622 31.708C222.622 32.332 222.838 32.644 223.27 32.644C223.638 32.644 224.038 32.476 224.47 32.14C224.902 31.788 225.342 31.348 225.79 30.82C226.254 30.276 226.694 29.716 227.11 29.14C227.526 28.564 227.894 28.036 228.214 27.556C228.278 27.46 228.318 27.412 228.334 27.412C228.43 27.428 228.55 27.46 228.694 27.508C228.854 27.556 228.99 27.62 229.102 27.7C229.214 27.78 229.27 27.884 229.27 28.012C229.27 28.156 229.198 28.356 229.054 28.612C228.91 28.852 228.75 29.132 228.574 29.452C228.398 29.772 228.238 30.1 228.094 30.436C227.95 30.756 227.878 31.06 227.878 31.348C227.878 31.588 227.942 31.828 228.07 32.068C228.198 32.292 228.406 32.404 228.694 32.404C229.126 32.404 229.694 32.092 230.398 31.468C231.102 30.828 231.814 29.876 232.534 28.612L232.774 28.852C232.438 29.716 232.006 30.476 231.478 31.132C230.95 31.788 230.382 32.3 229.774 32.668C229.182 33.036 228.598 33.22 228.022 33.22C227.43 33.22 226.99 33.044 226.702 32.692C226.43 32.34 226.294 31.956 226.294 31.54C226.294 31.444 226.302 31.34 226.318 31.228C226.334 31.1 226.35 30.972 226.366 30.844C225.678 31.772 225.046 32.468 224.47 32.932C223.91 33.396 223.334 33.628 222.742 33.628ZM234.035 33.22C233.347 33.22 232.851 32.98 232.547 32.5C232.259 32.036 232.115 31.452 232.115 30.748C232.115 29.98 232.259 29.068 232.547 28.012C232.835 26.956 233.211 25.844 233.675 24.676C234.155 23.508 234.675 22.372 235.235 21.268C235.795 20.148 236.355 19.132 236.915 18.22C237.475 17.308 237.987 16.58 238.451 16.036C238.931 15.492 239.307 15.22 239.579 15.22C239.755 15.22 239.899 15.324 240.011 15.532C240.123 15.724 240.211 15.964 240.275 16.252C240.339 16.524 240.371 16.772 240.371 16.996C240.371 17.428 240.259 17.996 240.035 18.7C239.827 19.388 239.523 20.164 239.123 21.028C238.739 21.876 238.275 22.74 237.731 23.62C237.203 24.484 236.619 25.316 235.979 26.116C235.355 26.916 234.691 27.604 233.987 28.18C233.891 28.612 233.811 29.036 233.747 29.452C233.699 29.852 233.675 30.236 233.675 30.604C233.675 31.228 233.763 31.692 233.939 31.996C234.115 32.3 234.379 32.452 234.731 32.452C235.163 32.452 235.587 32.26 236.003 31.876C236.435 31.492 236.835 31.012 237.203 30.436C237.587 29.844 237.915 29.236 238.187 28.612L238.547 28.804C237.907 30.164 237.211 31.244 236.459 32.044C235.707 32.828 234.899 33.22 234.035 33.22ZM234.203 27.364C234.763 26.804 235.307 26.164 235.835 25.444C236.363 24.708 236.851 23.948 237.299 23.164C237.763 22.38 238.171 21.62 238.523 20.884C238.875 20.148 239.147 19.492 239.339 18.916C239.531 18.324 239.627 17.868 239.627 17.548C239.627 17.388 239.603 17.284 239.555 17.236C239.523 17.188 239.491 17.164 239.459 17.164C239.331 17.164 239.107 17.372 238.787 17.788C238.483 18.188 238.123 18.732 237.707 19.42C237.291 20.108 236.867 20.892 236.435 21.772C236.003 22.652 235.587 23.572 235.187 24.532C234.803 25.492 234.475 26.436 234.203 27.364ZM249.811 33.244C249.251 33.244 248.843 33.068 248.587 32.716C248.331 32.38 248.203 31.972 248.203 31.492C248.203 31.092 248.259 30.692 248.371 30.292C248.499 29.892 248.619 29.5 248.731 29.116C248.859 28.732 248.923 28.388 248.923 28.084C248.923 27.764 248.851 27.54 248.707 27.412C248.563 27.284 248.403 27.22 248.227 27.22C247.827 27.22 247.387 27.532 246.907 28.156C246.443 28.78 245.835 29.66 245.083 30.796C244.827 31.18 244.611 31.572 244.435 31.972C244.259 32.356 244.091 32.708 243.931 33.028C243.803 33.028 243.643 33.012 243.451 32.98C243.259 32.948 243.083 32.892 242.923 32.812C242.779 32.748 242.707 32.66 242.707 32.548C242.707 32.436 242.779 32.172 242.923 31.756C243.083 31.324 243.259 30.828 243.451 30.268C243.659 29.692 243.835 29.116 243.979 28.54C244.139 27.948 244.219 27.444 244.219 27.028C244.219 26.756 244.171 26.54 244.075 26.38C243.995 26.204 243.843 26.116 243.619 26.116C243.267 26.116 242.843 26.332 242.347 26.764C241.851 27.18 241.339 27.732 240.811 28.42C240.283 29.108 239.779 29.868 239.299 30.7C238.835 31.516 238.459 32.332 238.171 33.148C238.027 33.148 237.851 33.124 237.643 33.076C237.435 33.028 237.259 32.964 237.115 32.884C236.955 32.804 236.875 32.724 236.875 32.644C236.875 32.548 236.963 32.268 237.139 31.804C237.299 31.324 237.491 30.756 237.715 30.1C237.923 29.428 238.107 28.748 238.267 28.06C238.443 27.372 238.531 26.764 238.531 26.236C238.627 26.124 238.779 26.012 238.987 25.9C239.195 25.788 239.411 25.732 239.635 25.732C239.859 25.732 240.019 25.788 240.115 25.9C240.227 26.012 240.283 26.164 240.283 26.356C240.283 26.564 240.219 26.924 240.091 27.436C239.979 27.932 239.835 28.484 239.659 29.092C239.979 28.58 240.339 28.06 240.739 27.532C241.155 26.988 241.587 26.492 242.035 26.044C242.483 25.596 242.931 25.236 243.379 24.964C243.843 24.676 244.291 24.532 244.723 24.532C245.219 24.532 245.555 24.716 245.731 25.084C245.923 25.436 246.019 25.86 246.019 26.356C246.019 26.756 245.971 27.18 245.875 27.628C245.795 28.06 245.699 28.468 245.587 28.852C245.475 29.22 245.371 29.516 245.275 29.74C245.611 29.132 245.979 28.548 246.379 27.988C246.795 27.412 247.243 26.948 247.723 26.596C248.203 26.228 248.715 26.044 249.259 26.044C249.771 26.044 250.123 26.196 250.315 26.5C250.523 26.804 250.627 27.164 250.627 27.58C250.627 27.996 250.555 28.452 250.411 28.948C250.267 29.444 250.115 29.924 249.955 30.388C249.811 30.852 249.739 31.252 249.739 31.588C249.739 31.796 249.787 31.988 249.883 32.164C249.995 32.324 250.187 32.404 250.459 32.404C250.907 32.404 251.323 32.204 251.707 31.804C252.107 31.388 252.475 30.892 252.811 30.316C253.147 29.724 253.435 29.156 253.675 28.612L253.963 28.948C253.707 29.62 253.379 30.292 252.979 30.964C252.579 31.62 252.107 32.164 251.563 32.596C251.035 33.028 250.451 33.244 249.811 33.244ZM254.382 33.628C253.886 33.628 253.47 33.46 253.134 33.124C252.782 32.804 252.606 32.308 252.606 31.636C252.606 31.06 252.734 30.444 252.99 29.788C253.246 29.116 253.598 28.46 254.046 27.82C254.494 27.164 254.998 26.572 255.558 26.044C256.134 25.5 256.734 25.068 257.358 24.748C257.998 24.428 258.63 24.268 259.254 24.268C259.878 24.268 260.398 24.436 260.814 24.772C261.23 25.092 261.438 25.524 261.438 26.068C261.438 26.468 261.326 26.74 261.102 26.884C260.894 27.028 260.614 27.1 260.262 27.1C260.294 26.972 260.318 26.836 260.334 26.692C260.366 26.532 260.382 26.388 260.382 26.26C260.382 25.892 260.294 25.58 260.118 25.324C259.942 25.052 259.638 24.916 259.206 24.916C258.758 24.916 258.302 25.076 257.838 25.396C257.374 25.7 256.926 26.116 256.494 26.644C256.062 27.156 255.678 27.716 255.342 28.324C255.006 28.932 254.742 29.532 254.55 30.124C254.358 30.716 254.262 31.244 254.262 31.708C254.262 32.332 254.478 32.644 254.91 32.644C255.278 32.644 255.678 32.476 256.11 32.14C256.542 31.788 256.982 31.348 257.43 30.82C257.894 30.276 258.334 29.716 258.75 29.14C259.166 28.564 259.534 28.036 259.854 27.556C259.918 27.46 259.958 27.412 259.974 27.412C260.07 27.428 260.19 27.46 260.334 27.508C260.494 27.556 260.63 27.62 260.742 27.7C260.854 27.78 260.91 27.884 260.91 28.012C260.91 28.156 260.838 28.356 260.694 28.612C260.55 28.852 260.39 29.132 260.214 29.452C260.038 29.772 259.878 30.1 259.734 30.436C259.59 30.756 259.518 31.06 259.518 31.348C259.518 31.588 259.582 31.828 259.71 32.068C259.838 32.292 260.046 32.404 260.334 32.404C260.766 32.404 261.334 32.092 262.038 31.468C262.742 30.828 263.454 29.876 264.174 28.612L264.414 28.852C264.078 29.716 263.646 30.476 263.118 31.132C262.59 31.788 262.022 32.3 261.414 32.668C260.822 33.036 260.238 33.22 259.662 33.22C259.07 33.22 258.63 33.044 258.342 32.692C258.07 32.34 257.934 31.956 257.934 31.54C257.934 31.444 257.942 31.34 257.958 31.228C257.974 31.1 257.99 30.972 258.006 30.844C257.318 31.772 256.686 32.468 256.11 32.932C255.55 33.396 254.974 33.628 254.382 33.628ZM53.9997 68.22C53.8717 68.22 53.7517 68.148 53.6397 68.004C53.5117 67.876 53.4157 67.732 53.3517 67.572C53.2877 67.428 53.2557 67.34 53.2557 67.308C53.4797 66.524 53.7037 65.82 53.9277 65.196C54.1357 64.588 54.3517 63.956 54.5757 63.3C54.7837 62.66 54.9917 61.908 55.1997 61.044C55.4077 60.164 55.6237 59.076 55.8477 57.78C56.0717 56.484 56.2957 54.876 56.5197 52.956C56.5357 52.812 56.5677 52.708 56.6157 52.644C56.6637 52.58 56.7837 52.548 56.9757 52.548C57.3917 52.548 57.6877 52.668 57.8637 52.908C58.0397 53.132 58.1277 53.38 58.1277 53.652C58.1277 53.876 58.0797 54.276 57.9837 54.852C57.8877 55.428 57.7517 56.108 57.5757 56.892C57.8477 56.364 58.1837 55.828 58.5837 55.284C58.9997 54.74 59.4717 54.284 59.9997 53.916C60.5277 53.548 61.1037 53.364 61.7277 53.364C62.4317 53.364 63.0077 53.62 63.4557 54.132C63.9197 54.628 64.1517 55.284 64.1517 56.1C64.1517 56.724 64.0077 57.388 63.7197 58.092C63.4477 58.78 63.0557 59.436 62.5437 60.06C62.0477 60.668 61.4557 61.164 60.7677 61.548C60.0797 61.932 59.3197 62.124 58.4877 62.124C58.0717 62.124 57.7357 62.076 57.4797 61.98C57.2237 61.884 57.0957 61.788 57.0957 61.692C57.0957 61.628 57.1517 61.588 57.2637 61.572C57.3917 61.572 57.5357 61.572 57.6957 61.572C58.3357 61.572 58.9437 61.42 59.5197 61.116C60.1117 60.796 60.6397 60.38 61.1037 59.868C61.5677 59.356 61.9277 58.788 62.1837 58.164C62.4557 57.54 62.5917 56.924 62.5917 56.316C62.5917 55.804 62.4797 55.372 62.2557 55.02C62.0477 54.652 61.7037 54.468 61.2237 54.468C60.8077 54.468 60.3917 54.604 59.9757 54.876C59.5757 55.132 59.1917 55.468 58.8237 55.884C58.4717 56.284 58.1517 56.708 57.8637 57.156C57.5917 57.588 57.3837 57.98 57.2397 58.332C56.9517 59.532 56.6637 60.684 56.3757 61.788C56.0877 62.908 55.8077 63.916 55.5357 64.812C55.2797 65.724 55.0477 66.468 54.8397 67.044C54.6157 67.62 54.4317 67.972 54.2877 68.1C54.2077 68.18 54.1117 68.22 53.9997 68.22ZM66.0387 62.628C65.5427 62.628 65.1267 62.46 64.7907 62.124C64.4387 61.804 64.2627 61.308 64.2627 60.636C64.2627 60.06 64.3907 59.444 64.6467 58.788C64.9027 58.116 65.2547 57.46 65.7027 56.82C66.1507 56.164 66.6547 55.572 67.2147 55.044C67.7907 54.5 68.3907 54.068 69.0147 53.748C69.6547 53.428 70.2867 53.268 70.9107 53.268C71.5347 53.268 72.0547 53.436 72.4707 53.772C72.8867 54.092 73.0947 54.524 73.0947 55.068C73.0947 55.468 72.9827 55.74 72.7587 55.884C72.5507 56.028 72.2707 56.1 71.9187 56.1C71.9507 55.972 71.9747 55.836 71.9907 55.692C72.0227 55.532 72.0387 55.388 72.0387 55.26C72.0387 54.892 71.9507 54.58 71.7747 54.324C71.5987 54.052 71.2947 53.916 70.8627 53.916C70.4147 53.916 69.9587 54.076 69.4947 54.396C69.0307 54.7 68.5827 55.116 68.1507 55.644C67.7187 56.156 67.3347 56.716 66.9987 57.324C66.6627 57.932 66.3987 58.532 66.2067 59.124C66.0147 59.716 65.9187 60.244 65.9187 60.708C65.9187 61.332 66.1347 61.644 66.5667 61.644C66.9347 61.644 67.3347 61.476 67.7667 61.14C68.1987 60.788 68.6387 60.348 69.0867 59.82C69.5507 59.276 69.9907 58.716 70.4067 58.14C70.8227 57.564 71.1907 57.036 71.5107 56.556C71.5747 56.46 71.6147 56.412 71.6307 56.412C71.7267 56.428 71.8467 56.46 71.9907 56.508C72.1507 56.556 72.2867 56.62 72.3987 56.7C72.5107 56.78 72.5667 56.884 72.5667 57.012C72.5667 57.156 72.4947 57.356 72.3507 57.612C72.2067 57.852 72.0467 58.132 71.8707 58.452C71.6947 58.772 71.5347 59.1 71.3907 59.436C71.2467 59.756 71.1747 60.06 71.1747 60.348C71.1747 60.588 71.2387 60.828 71.3667 61.068C71.4947 61.292 71.7027 61.404 71.9907 61.404C72.4227 61.404 72.9907 61.092 73.6947 60.468C74.3987 59.828 75.1107 58.876 75.8307 57.612L76.0707 57.852C75.7347 58.716 75.3027 59.476 74.7747 60.132C74.2467 60.788 73.6787 61.3 73.0707 61.668C72.4787 62.036 71.8947 62.22 71.3187 62.22C70.7267 62.22 70.2867 62.044 69.9987 61.692C69.7267 61.34 69.5907 60.956 69.5907 60.54C69.5907 60.444 69.5987 60.34 69.6147 60.228C69.6307 60.1 69.6467 59.972 69.6627 59.844C68.9747 60.772 68.3427 61.468 67.7667 61.932C67.2067 62.396 66.6307 62.628 66.0387 62.628ZM79.4918 62.124C78.9478 62.124 78.5158 61.98 78.1958 61.692C77.8918 61.404 77.7398 61.028 77.7398 60.564C77.7398 60.084 77.8518 59.58 78.0758 59.052C78.2998 58.524 78.5158 58.004 78.7238 57.492C78.9478 56.964 79.0598 56.492 79.0598 56.076C79.0598 55.564 78.9078 55.188 78.6038 54.948C78.3158 54.692 78.0198 54.46 77.7158 54.252C77.3478 55.196 76.9638 56.092 76.5638 56.94C76.1638 57.788 75.8358 58.428 75.5798 58.86L75.3638 58.452C75.5878 58.036 75.8758 57.428 76.2278 56.628C76.5958 55.828 76.9558 54.916 77.3078 53.892C77.1478 53.732 77.0678 53.54 77.0678 53.316C77.0678 52.836 77.2038 52.444 77.4758 52.14C77.7478 51.836 77.9478 51.684 78.0758 51.684C78.2518 51.684 78.3478 51.764 78.3638 51.924C78.3958 52.068 78.4118 52.18 78.4118 52.26C78.4118 52.34 78.3638 52.5 78.2678 52.74C78.1878 52.964 78.1478 53.1 78.1478 53.148C78.1478 53.372 78.2678 53.58 78.5078 53.772C78.7638 53.948 79.0518 54.156 79.3718 54.396C79.6918 54.62 79.9718 54.9 80.2118 55.236C80.4678 55.556 80.5958 55.972 80.5958 56.484C80.5958 56.964 80.4918 57.452 80.2838 57.948C80.0918 58.444 79.8918 58.916 79.6838 59.364C79.4918 59.812 79.3958 60.204 79.3958 60.54C79.3958 60.828 79.4678 61.02 79.6118 61.116C79.7558 61.212 79.9238 61.26 80.1158 61.26C80.4998 61.26 80.8918 61.14 81.2918 60.9C81.7078 60.66 82.1078 60.356 82.4918 59.988C82.8758 59.62 83.2198 59.236 83.5238 58.836C83.8278 58.42 84.0518 58.036 84.1958 57.684L84.5078 57.924C84.2038 58.596 83.7878 59.26 83.2598 59.916C82.7318 60.556 82.1398 61.084 81.4838 61.5C80.8438 61.916 80.1798 62.124 79.4918 62.124ZM84.8356 62.628C84.3396 62.628 83.9236 62.46 83.5876 62.124C83.2356 61.804 83.0596 61.308 83.0596 60.636C83.0596 60.06 83.1876 59.444 83.4436 58.788C83.6996 58.116 84.0516 57.46 84.4996 56.82C84.9476 56.164 85.4516 55.572 86.0116 55.044C86.5876 54.5 87.1876 54.068 87.8116 53.748C88.4516 53.428 89.0836 53.268 89.7076 53.268C90.3316 53.268 90.8516 53.436 91.2676 53.772C91.6836 54.092 91.8916 54.524 91.8916 55.068C91.8916 55.468 91.7796 55.74 91.5556 55.884C91.3476 56.028 91.0676 56.1 90.7156 56.1C90.7476 55.972 90.7716 55.836 90.7876 55.692C90.8196 55.532 90.8356 55.388 90.8356 55.26C90.8356 54.892 90.7476 54.58 90.5716 54.324C90.3956 54.052 90.0916 53.916 89.6596 53.916C89.2116 53.916 88.7556 54.076 88.2916 54.396C87.8276 54.7 87.3796 55.116 86.9476 55.644C86.5156 56.156 86.1316 56.716 85.7956 57.324C85.4596 57.932 85.1956 58.532 85.0036 59.124C84.8116 59.716 84.7156 60.244 84.7156 60.708C84.7156 61.332 84.9316 61.644 85.3636 61.644C85.7316 61.644 86.1316 61.476 86.5636 61.14C86.9956 60.788 87.4356 60.348 87.8836 59.82C88.3476 59.276 88.7876 58.716 89.2036 58.14C89.6196 57.564 89.9876 57.036 90.3076 56.556C90.3716 56.46 90.4116 56.412 90.4276 56.412C90.5236 56.428 90.6436 56.46 90.7876 56.508C90.9476 56.556 91.0836 56.62 91.1956 56.7C91.3076 56.78 91.3636 56.884 91.3636 57.012C91.3636 57.156 91.2916 57.356 91.1476 57.612C91.0036 57.852 90.8436 58.132 90.6676 58.452C90.4916 58.772 90.3316 59.1 90.1876 59.436C90.0436 59.756 89.9716 60.06 89.9716 60.348C89.9716 60.588 90.0356 60.828 90.1636 61.068C90.2916 61.292 90.4996 61.404 90.7876 61.404C91.2196 61.404 91.7876 61.092 92.4916 60.468C93.1956 59.828 93.9076 58.876 94.6276 57.612L94.8676 57.852C94.5316 58.716 94.0996 59.476 93.5716 60.132C93.0436 60.788 92.4756 61.3 91.8676 61.668C91.2756 62.036 90.6916 62.22 90.1156 62.22C89.5236 62.22 89.0836 62.044 88.7956 61.692C88.5236 61.34 88.3876 60.956 88.3876 60.54C88.3876 60.444 88.3956 60.34 88.4116 60.228C88.4276 60.1 88.4436 59.972 88.4596 59.844C87.7716 60.772 87.1396 61.468 86.5636 61.932C86.0036 62.396 85.4276 62.628 84.8356 62.628ZM101.523 62.628C101.027 62.628 100.611 62.46 100.275 62.124C99.9231 61.804 99.7471 61.308 99.7471 60.636C99.7471 60.06 99.8751 59.444 100.131 58.788C100.387 58.116 100.739 57.46 101.187 56.82C101.635 56.164 102.139 55.572 102.699 55.044C103.275 54.5 103.875 54.068 104.499 53.748C105.139 53.428 105.771 53.268 106.395 53.268C107.019 53.268 107.539 53.436 107.955 53.772C108.371 54.092 108.579 54.524 108.579 55.068C108.579 55.468 108.467 55.74 108.243 55.884C108.035 56.028 107.755 56.1 107.403 56.1C107.435 55.972 107.459 55.836 107.475 55.692C107.507 55.532 107.523 55.388 107.523 55.26C107.523 54.892 107.435 54.58 107.259 54.324C107.083 54.052 106.779 53.916 106.347 53.916C105.899 53.916 105.443 54.076 104.979 54.396C104.515 54.7 104.067 55.116 103.635 55.644C103.203 56.156 102.819 56.716 102.483 57.324C102.147 57.932 101.883 58.532 101.691 59.124C101.499 59.716 101.403 60.244 101.403 60.708C101.403 61.332 101.619 61.644 102.051 61.644C102.419 61.644 102.819 61.476 103.251 61.14C103.683 60.788 104.123 60.348 104.571 59.82C105.035 59.276 105.475 58.716 105.891 58.14C106.307 57.564 106.675 57.036 106.995 56.556C107.059 56.46 107.099 56.412 107.115 56.412C107.211 56.428 107.331 56.46 107.475 56.508C107.635 56.556 107.771 56.62 107.883 56.7C107.995 56.78 108.051 56.884 108.051 57.012C108.051 57.156 107.979 57.356 107.835 57.612C107.691 57.852 107.531 58.132 107.355 58.452C107.179 58.772 107.019 59.1 106.875 59.436C106.731 59.756 106.659 60.06 106.659 60.348C106.659 60.588 106.723 60.828 106.851 61.068C106.979 61.292 107.187 61.404 107.475 61.404C107.907 61.404 108.475 61.092 109.179 60.468C109.883 59.828 110.595 58.876 111.315 57.612L111.555 57.852C111.219 58.716 110.787 59.476 110.259 60.132C109.731 60.788 109.163 61.3 108.555 61.668C107.963 62.036 107.379 62.22 106.803 62.22C106.211 62.22 105.771 62.044 105.483 61.692C105.211 61.34 105.075 60.956 105.075 60.54C105.075 60.444 105.083 60.34 105.099 60.228C105.115 60.1 105.131 59.972 105.147 59.844C104.459 60.772 103.827 61.468 103.251 61.932C102.691 62.396 102.115 62.628 101.523 62.628ZM118.619 62.436C118.123 62.436 117.779 62.188 117.587 61.692C117.395 61.212 117.299 60.58 117.299 59.796C117.299 59.764 117.307 59.516 117.323 59.052C117.339 58.572 117.379 57.772 117.443 56.652C117.475 56.22 117.523 55.924 117.587 55.764C117.651 55.604 117.859 55.524 118.211 55.524C118.483 55.524 118.651 55.58 118.715 55.692C118.795 55.788 118.835 55.988 118.835 56.292C118.835 56.82 118.795 57.444 118.715 58.164C118.651 58.868 118.619 59.532 118.619 60.156C118.619 60.62 118.659 60.964 118.739 61.188C118.819 61.396 118.963 61.5 119.171 61.5C119.459 61.5 119.779 61.34 120.131 61.02C120.483 60.684 120.843 60.252 121.211 59.724C121.579 59.18 121.923 58.604 122.243 57.996C122.579 57.388 122.875 56.804 123.131 56.244C123.163 55.156 123.275 54.436 123.467 54.084C123.675 53.716 123.931 53.532 124.235 53.532C124.539 53.532 124.755 53.644 124.883 53.868C125.027 54.076 125.099 54.268 125.099 54.444C125.099 54.652 125.027 54.868 124.883 55.092C124.755 55.316 124.619 55.62 124.475 56.004C124.331 56.388 124.259 56.94 124.259 57.66C124.259 57.916 124.283 58.188 124.331 58.476C124.379 58.764 124.483 59.004 124.643 59.196C124.803 59.388 125.051 59.484 125.387 59.484C125.723 59.484 126.043 59.356 126.347 59.1C126.667 58.828 126.979 58.364 127.283 57.708L127.595 57.948C127.243 58.748 126.851 59.284 126.419 59.556C126.003 59.828 125.603 59.964 125.219 59.964C124.691 59.964 124.251 59.772 123.899 59.388C123.547 59.004 123.315 58.42 123.203 57.636C122.819 58.42 122.363 59.18 121.835 59.916C121.323 60.636 120.787 61.236 120.227 61.716C119.667 62.196 119.131 62.436 118.619 62.436ZM128.56 62.124C127.936 62.124 127.472 61.924 127.168 61.524C126.864 61.14 126.712 60.668 126.712 60.108C126.712 59.74 126.776 59.276 126.904 58.716C127.048 58.156 127.232 57.572 127.456 56.964C127.68 56.34 127.936 55.756 128.224 55.212C128.528 54.668 128.848 54.228 129.184 53.892C129.52 53.54 129.848 53.364 130.168 53.364C130.312 53.364 130.432 53.412 130.528 53.508C130.64 53.588 130.696 53.716 130.696 53.892C130.696 54.084 130.568 54.396 130.312 54.828C130.072 55.26 129.784 55.756 129.448 56.316C129.112 56.876 128.816 57.468 128.56 58.092C128.32 58.7 128.2 59.284 128.2 59.844C128.2 60.42 128.296 60.804 128.488 60.996C128.68 61.188 128.976 61.284 129.376 61.284C129.92 61.284 130.496 61.012 131.104 60.468C131.728 59.924 132.384 58.972 133.072 57.612L133.288 57.852C132.824 59.228 132.152 60.284 131.272 61.02C130.408 61.756 129.504 62.124 128.56 62.124ZM131.44 51.132C131.184 51.132 130.952 51.068 130.744 50.94C130.552 50.812 130.456 50.612 130.456 50.34C130.456 50.004 130.648 49.716 131.032 49.476C131.432 49.22 131.824 49.092 132.208 49.092C132.448 49.092 132.64 49.148 132.784 49.26C132.928 49.372 133 49.564 133 49.836C133 50.14 132.832 50.436 132.496 50.724C132.176 50.996 131.824 51.132 131.44 51.132ZM134.037 62.22C133.765 62.22 133.485 62.148 133.197 62.004C132.925 61.876 132.701 61.66 132.525 61.356C132.333 61.052 132.237 60.668 132.237 60.204C132.237 59.676 132.365 59.084 132.621 58.428C132.877 57.772 133.221 57.124 133.653 56.484C134.085 55.828 134.581 55.228 135.141 54.684C135.701 54.124 136.285 53.684 136.893 53.364C137.501 53.028 138.101 52.86 138.693 52.86C139.029 52.86 139.285 52.924 139.461 53.052C139.653 53.164 139.749 53.348 139.749 53.604C139.749 53.668 139.741 53.724 139.725 53.772C139.725 53.82 139.717 53.876 139.701 53.94C139.621 53.812 139.501 53.724 139.341 53.676C139.197 53.612 139.013 53.58 138.789 53.58C138.277 53.58 137.773 53.74 137.277 54.06C136.797 54.364 136.349 54.772 135.933 55.284C135.533 55.78 135.181 56.316 134.877 56.892C134.573 57.468 134.333 58.028 134.157 58.572C133.997 59.1 133.917 59.548 133.917 59.916C133.917 60.268 133.997 60.548 134.157 60.756C134.317 60.964 134.525 61.068 134.781 61.068C135.213 61.068 135.733 60.796 136.341 60.252C136.965 59.708 137.597 58.94 138.237 57.948C138.877 56.956 139.453 55.796 139.965 54.468C140.317 53.54 140.677 52.596 141.045 51.636C141.429 50.676 141.813 49.756 142.197 48.876C142.581 47.98 142.949 47.188 143.301 46.5C143.669 45.796 144.013 45.244 144.333 44.844C144.669 44.428 144.965 44.22 145.221 44.22C145.349 44.22 145.461 44.276 145.557 44.388C145.653 44.484 145.701 44.612 145.701 44.772C145.701 45.028 145.565 45.468 145.293 46.092C145.037 46.7 144.693 47.436 144.261 48.3C143.845 49.148 143.405 50.076 142.941 51.084C142.477 52.092 142.029 53.116 141.597 54.156C141.181 55.196 140.837 56.204 140.565 57.18C140.309 58.14 140.181 59.02 140.181 59.82C140.181 60.268 140.205 60.604 140.253 60.828C140.301 61.052 140.461 61.164 140.733 61.164C141.069 61.164 141.461 61.02 141.909 60.732C142.357 60.444 142.805 60.036 143.253 59.508C143.701 58.98 144.093 58.348 144.429 57.612L144.717 57.828C144.413 58.644 143.997 59.38 143.469 60.036C142.941 60.676 142.373 61.18 141.765 61.548C141.173 61.932 140.605 62.124 140.061 62.124C139.469 62.124 139.053 61.924 138.813 61.524C138.589 61.14 138.477 60.74 138.477 60.324C138.477 60.052 138.517 59.692 138.597 59.244C138.677 58.796 138.789 58.3 138.933 57.756C138.421 58.604 137.877 59.372 137.301 60.06C136.725 60.732 136.157 61.26 135.597 61.644C135.053 62.028 134.533 62.22 134.037 62.22ZM145.117 62.628C144.621 62.628 144.205 62.46 143.869 62.124C143.517 61.804 143.341 61.308 143.341 60.636C143.341 60.06 143.469 59.444 143.725 58.788C143.981 58.116 144.333 57.46 144.781 56.82C145.229 56.164 145.733 55.572 146.293 55.044C146.869 54.5 147.469 54.068 148.093 53.748C148.733 53.428 149.365 53.268 149.989 53.268C150.613 53.268 151.133 53.436 151.549 53.772C151.965 54.092 152.173 54.524 152.173 55.068C152.173 55.468 152.061 55.74 151.837 55.884C151.629 56.028 151.349 56.1 150.997 56.1C151.029 55.972 151.053 55.836 151.069 55.692C151.101 55.532 151.117 55.388 151.117 55.26C151.117 54.892 151.029 54.58 150.853 54.324C150.677 54.052 150.373 53.916 149.941 53.916C149.493 53.916 149.037 54.076 148.573 54.396C148.109 54.7 147.661 55.116 147.229 55.644C146.797 56.156 146.413 56.716 146.077 57.324C145.741 57.932 145.477 58.532 145.285 59.124C145.093 59.716 144.997 60.244 144.997 60.708C144.997 61.332 145.213 61.644 145.645 61.644C146.013 61.644 146.413 61.476 146.845 61.14C147.277 60.788 147.717 60.348 148.165 59.82C148.629 59.276 149.069 58.716 149.485 58.14C149.901 57.564 150.269 57.036 150.589 56.556C150.653 56.46 150.693 56.412 150.709 56.412C150.805 56.428 150.925 56.46 151.069 56.508C151.229 56.556 151.365 56.62 151.477 56.7C151.589 56.78 151.645 56.884 151.645 57.012C151.645 57.156 151.573 57.356 151.429 57.612C151.285 57.852 151.125 58.132 150.949 58.452C150.773 58.772 150.613 59.1 150.469 59.436C150.325 59.756 150.253 60.06 150.253 60.348C150.253 60.588 150.317 60.828 150.445 61.068C150.573 61.292 150.781 61.404 151.069 61.404C151.501 61.404 152.069 61.092 152.773 60.468C153.477 59.828 154.189 58.876 154.909 57.612L155.149 57.852C154.813 58.716 154.381 59.476 153.853 60.132C153.325 60.788 152.757 61.3 152.149 61.668C151.557 62.036 150.973 62.22 150.397 62.22C149.805 62.22 149.365 62.044 149.077 61.692C148.805 61.34 148.669 60.956 148.669 60.54C148.669 60.444 148.677 60.34 148.693 60.228C148.709 60.1 148.725 59.972 148.741 59.844C148.053 60.772 147.421 61.468 146.845 61.932C146.285 62.396 145.709 62.628 145.117 62.628ZM160.34 68.22C160.18 68.22 159.996 68.164 159.788 68.052C159.58 67.956 159.404 67.756 159.26 67.452C159.1 67.148 159.02 66.7 159.02 66.108C159.02 65.404 159.14 64.484 159.38 63.348C159.62 62.228 159.948 60.988 160.364 59.628C160.78 58.268 161.26 56.876 161.804 55.452C162.348 54.012 162.932 52.628 163.556 51.3C164.196 49.956 164.844 48.756 165.5 47.7C166.172 46.628 166.828 45.78 167.468 45.156C168.108 44.532 168.716 44.22 169.292 44.22C169.628 44.22 169.844 44.324 169.94 44.532C170.052 44.74 170.108 44.98 170.108 45.252C170.108 45.94 169.916 46.692 169.532 47.508C169.164 48.324 168.668 49.148 168.044 49.98C167.436 50.812 166.748 51.596 165.98 52.332C165.228 53.068 164.468 53.708 163.7 54.252C163.636 54.412 163.564 54.588 163.484 54.78C163.42 54.956 163.356 55.132 163.292 55.308C163.452 55.356 163.58 55.452 163.676 55.596C163.772 55.724 163.828 55.876 163.844 56.052C163.956 56.948 164.22 57.58 164.636 57.948C165.052 58.3 165.524 58.476 166.052 58.476C166.452 58.476 166.86 58.404 167.276 58.26C167.708 58.1 168.116 57.908 168.5 57.684C168.692 56.82 168.964 55.892 169.316 54.9C169.684 53.908 170.1 52.908 170.564 51.9C171.028 50.892 171.508 49.932 172.004 49.02C172.5 48.092 172.988 47.268 173.468 46.548C173.948 45.828 174.38 45.26 174.764 44.844C175.148 44.428 175.46 44.22 175.7 44.22C175.876 44.22 176.02 44.324 176.132 44.532C176.244 44.724 176.332 44.964 176.396 45.252C176.46 45.524 176.492 45.772 176.492 45.996C176.492 46.428 176.38 46.996 176.156 47.7C175.948 48.388 175.644 49.164 175.244 50.028C174.86 50.876 174.396 51.74 173.852 52.62C173.324 53.484 172.74 54.316 172.1 55.116C171.476 55.916 170.812 56.604 170.108 57.18C170.012 57.612 169.932 58.036 169.868 58.452C169.82 58.852 169.796 59.236 169.796 59.604C169.796 60.228 169.884 60.692 170.06 60.996C170.236 61.3 170.5 61.452 170.852 61.452C171.284 61.452 171.708 61.26 172.124 60.876C172.54 60.492 172.932 60.012 173.3 59.436C173.684 58.844 174.012 58.236 174.284 57.612L174.668 57.804C174.028 59.164 173.332 60.244 172.58 61.044C171.828 61.828 171.02 62.22 170.156 62.22C169.468 62.22 168.972 61.98 168.668 61.5C168.38 61.036 168.236 60.452 168.236 59.748C168.236 59.316 168.284 58.836 168.38 58.308C167.484 58.804 166.596 59.052 165.716 59.052C165.444 59.052 165.156 59.02 164.852 58.956C164.548 58.876 164.26 58.756 163.988 58.596C164.004 58.788 164.012 58.98 164.012 59.172C164.028 59.364 164.036 59.548 164.036 59.724C164.036 60.732 163.932 61.732 163.724 62.724C163.516 63.732 163.236 64.652 162.884 65.484C162.532 66.316 162.132 66.98 161.684 67.476C161.252 67.972 160.804 68.22 160.34 68.22ZM160.964 67.068C161.188 67.068 161.436 66.828 161.708 66.348C161.996 65.884 162.268 65.276 162.524 64.524C162.78 63.788 162.988 62.996 163.148 62.148C163.324 61.3 163.412 60.508 163.412 59.772C163.412 59.356 163.372 58.892 163.292 58.38C163.212 57.868 163.004 57.436 162.668 57.084C162.252 58.3 161.876 59.484 161.54 60.636C161.22 61.772 160.964 62.796 160.772 63.708C160.596 64.62 160.508 65.356 160.508 65.916C160.508 66.684 160.66 67.068 160.964 67.068ZM164.084 53.268C165.124 52.308 166.02 51.348 166.772 50.388C167.54 49.412 168.132 48.548 168.548 47.796C168.964 47.028 169.172 46.484 169.172 46.164C169.172 45.94 169.06 45.828 168.836 45.828C168.42 45.828 167.948 46.172 167.42 46.86C166.892 47.532 166.34 48.428 165.764 49.548C165.188 50.668 164.628 51.908 164.084 53.268ZM170.324 56.364C170.884 55.804 171.428 55.164 171.956 54.444C172.484 53.708 172.972 52.948 173.42 52.164C173.884 51.38 174.292 50.62 174.644 49.884C174.996 49.148 175.268 48.492 175.46 47.916C175.652 47.324 175.748 46.868 175.748 46.548C175.748 46.388 175.724 46.284 175.676 46.236C175.644 46.188 175.612 46.164 175.58 46.164C175.452 46.164 175.228 46.372 174.908 46.788C174.604 47.188 174.244 47.732 173.828 48.42C173.412 49.108 172.988 49.892 172.556 50.772C172.124 51.652 171.708 52.572 171.308 53.532C170.924 54.492 170.596 55.436 170.324 56.364ZM175.456 62.268C174.848 62.268 174.376 62.068 174.04 61.668C173.704 61.284 173.536 60.788 173.536 60.18C173.536 59.668 173.64 59.1 173.848 58.476C174.072 57.836 174.376 57.204 174.76 56.58C175.144 55.94 175.576 55.356 176.056 54.828C176.552 54.3 177.08 53.876 177.64 53.556C178.2 53.22 178.768 53.052 179.344 53.052C179.648 53.052 179.88 53.1 180.04 53.196C180.2 53.292 180.312 53.412 180.376 53.556C180.408 53.54 180.432 53.532 180.448 53.532C180.48 53.532 180.512 53.532 180.544 53.532C180.848 53.532 181.056 53.652 181.168 53.892C181.296 54.132 181.36 54.324 181.36 54.468C181.36 54.66 181.28 54.916 181.12 55.236C180.96 55.54 180.8 55.884 180.64 56.268C180.496 56.652 180.424 57.06 180.424 57.492C180.424 57.94 180.536 58.276 180.76 58.5C180.984 58.708 181.344 58.812 181.84 58.812C182.16 58.812 182.496 58.66 182.848 58.356C183.216 58.036 183.576 57.636 183.928 57.156C184.28 56.66 184.592 56.124 184.864 55.548C185.152 54.972 185.368 54.42 185.512 53.892C185.352 53.732 185.272 53.54 185.272 53.316C185.272 52.996 185.336 52.716 185.464 52.476C185.592 52.22 185.736 52.028 185.896 51.9C186.072 51.756 186.2 51.684 186.28 51.684C186.456 51.684 186.552 51.764 186.568 51.924C186.6 52.068 186.616 52.18 186.616 52.26C186.616 52.34 186.568 52.5 186.472 52.74C186.392 52.964 186.352 53.1 186.352 53.148C186.352 53.372 186.472 53.58 186.712 53.772C186.968 53.948 187.256 54.156 187.576 54.396C187.896 54.62 188.176 54.9 188.416 55.236C188.672 55.556 188.8 55.972 188.8 56.484C188.8 56.964 188.696 57.452 188.488 57.948C188.296 58.444 188.096 58.916 187.888 59.364C187.696 59.812 187.6 60.204 187.6 60.54C187.6 60.828 187.672 61.02 187.816 61.116C187.96 61.212 188.128 61.26 188.32 61.26C188.704 61.26 189.096 61.14 189.496 60.9C189.912 60.66 190.312 60.356 190.696 59.988C191.08 59.62 191.424 59.236 191.728 58.836C192.032 58.42 192.256 58.036 192.4 57.684L192.712 57.924C192.408 58.596 191.992 59.26 191.464 59.916C190.936 60.556 190.344 61.084 189.688 61.5C189.048 61.916 188.384 62.124 187.696 62.124C187.152 62.124 186.72 61.98 186.4 61.692C186.096 61.404 185.944 61.028 185.944 60.564C185.944 60.084 186.056 59.58 186.28 59.052C186.504 58.524 186.72 58.004 186.928 57.492C187.152 56.964 187.264 56.492 187.264 56.076C187.264 55.564 187.112 55.188 186.808 54.948C186.52 54.692 186.224 54.46 185.92 54.252C185.744 54.796 185.504 55.372 185.2 55.98C184.912 56.572 184.584 57.132 184.216 57.66C183.848 58.172 183.448 58.588 183.016 58.908C182.6 59.228 182.16 59.388 181.696 59.388C181.248 59.388 180.84 59.3 180.472 59.124C180.12 58.932 179.848 58.652 179.656 58.284C179.16 59.452 178.544 60.412 177.808 61.164C177.088 61.9 176.304 62.268 175.456 62.268ZM175.984 61.236C176.352 61.236 176.744 61.076 177.16 60.756C177.576 60.42 177.984 59.972 178.384 59.412C178.784 58.852 179.128 58.228 179.416 57.54C179.32 57.156 179.272 56.7 179.272 56.172C179.272 55.804 179.288 55.484 179.32 55.212C179.368 54.94 179.424 54.7 179.488 54.492C179.568 54.284 179.648 54.116 179.728 53.988C179.184 53.988 178.672 54.14 178.192 54.444C177.728 54.732 177.304 55.116 176.92 55.596C176.536 56.06 176.208 56.564 175.936 57.108C175.664 57.652 175.448 58.18 175.288 58.692C175.144 59.204 175.072 59.644 175.072 60.012C175.072 60.38 175.152 60.676 175.312 60.9C175.472 61.124 175.696 61.236 175.984 61.236ZM194.487 62.556C193.511 62.556 192.775 62.284 192.279 61.74C191.799 61.212 191.559 60.556 191.559 59.772C191.559 59.052 191.735 58.292 192.087 57.492C192.455 56.692 192.935 55.94 193.527 55.236C194.135 54.532 194.799 53.964 195.519 53.532C196.239 53.084 196.951 52.86 197.655 52.86C198.023 52.86 198.359 52.956 198.663 53.148C198.983 53.34 199.143 53.732 199.143 54.324C199.143 54.932 198.959 55.508 198.591 56.052C198.239 56.58 197.767 57.052 197.175 57.468C196.599 57.884 195.959 58.228 195.255 58.5C194.567 58.756 193.879 58.916 193.191 58.98C193.159 59.14 193.135 59.292 193.119 59.436C193.103 59.58 193.095 59.716 193.095 59.844C193.095 60.084 193.119 60.324 193.167 60.564C193.231 60.804 193.335 61.028 193.479 61.236C193.623 61.428 193.815 61.58 194.055 61.692C194.311 61.804 194.623 61.86 194.991 61.86C195.679 61.86 196.359 61.668 197.031 61.284C197.703 60.884 198.327 60.364 198.903 59.724C199.479 59.084 199.967 58.38 200.367 57.612L200.655 57.828C200.223 58.788 199.671 59.62 198.999 60.324C198.343 61.028 197.623 61.572 196.839 61.956C196.071 62.356 195.287 62.556 194.487 62.556ZM193.311 58.524C193.743 58.38 194.231 58.172 194.775 57.9C195.319 57.612 195.839 57.276 196.335 56.892C196.847 56.508 197.263 56.084 197.583 55.62C197.919 55.156 198.087 54.668 198.087 54.156C198.087 53.98 198.055 53.844 197.991 53.748C197.927 53.652 197.791 53.604 197.583 53.604C197.199 53.604 196.791 53.756 196.359 54.06C195.927 54.348 195.511 54.732 195.111 55.212C194.711 55.692 194.351 56.22 194.031 56.796C193.711 57.372 193.471 57.948 193.311 58.524ZM202.407 62.724C201.655 62.724 201.055 62.556 200.607 62.22C200.175 61.9 199.871 61.5 199.695 61.02C199.503 60.54 199.407 60.06 199.407 59.58C199.407 59.1 199.471 58.732 199.599 58.476C199.727 58.22 199.879 58.028 200.055 57.9C200.247 57.772 200.423 57.676 200.583 57.612C200.759 57.548 200.879 57.484 200.943 57.42C201.423 56.892 201.863 56.34 202.263 55.764C202.663 55.188 203.015 54.58 203.319 53.94V53.652C203.319 53.06 203.415 52.644 203.607 52.404C203.815 52.148 204.031 52.02 204.255 52.02C204.383 52.02 204.479 52.052 204.543 52.116C204.607 52.18 204.639 52.252 204.639 52.332C204.639 52.412 204.615 52.54 204.567 52.716C204.519 52.892 204.495 53.116 204.495 53.388C204.495 53.916 204.599 54.492 204.807 55.116C205.015 55.724 205.223 56.372 205.431 57.06C205.639 57.732 205.743 58.436 205.743 59.172C205.743 59.38 205.727 59.588 205.695 59.796C205.679 59.988 205.647 60.172 205.599 60.348C206.159 60.252 206.687 60.004 207.183 59.604C207.679 59.188 208.159 58.532 208.623 57.636L208.839 57.876C208.535 58.756 208.079 59.428 207.471 59.892C206.863 60.34 206.199 60.62 205.479 60.732C205.223 61.42 204.815 61.924 204.255 62.244C203.711 62.564 203.095 62.724 202.407 62.724ZM202.455 61.884C202.647 61.884 202.903 61.82 203.223 61.692C203.543 61.564 203.791 61.236 203.967 60.708C203.295 60.58 202.695 60.316 202.167 59.916C201.655 59.516 201.271 59.116 201.015 58.716C200.663 58.732 200.487 59.012 200.487 59.556C200.487 60.132 200.655 60.668 200.991 61.164C201.343 61.644 201.831 61.884 202.455 61.884ZM204.087 60.324C204.119 60.164 204.143 59.996 204.159 59.82C204.175 59.644 204.183 59.436 204.183 59.196C204.183 58.444 204.087 57.7 203.895 56.964C203.719 56.212 203.567 55.508 203.439 54.852C203.071 55.46 202.679 56.044 202.263 56.604C201.863 57.148 201.479 57.604 201.111 57.972C201.351 58.484 201.719 58.964 202.215 59.412C202.727 59.86 203.351 60.164 204.087 60.324ZM210.728 62.844C209.96 62.844 209.32 62.588 208.808 62.076C208.296 61.564 208.04 60.796 208.04 59.772C208.04 58.972 208.192 58.196 208.496 57.444C208.816 56.676 209.232 55.988 209.744 55.38C210.256 54.772 210.824 54.292 211.448 53.94C212.072 53.572 212.688 53.388 213.296 53.388C213.952 53.388 214.4 53.58 214.64 53.964C214.88 54.348 215 54.748 215 55.164C215 55.628 214.888 56.036 214.664 56.388C214.456 56.74 214.168 56.916 213.8 56.916C213.528 56.916 213.296 56.796 213.104 56.556C213.344 56.428 213.552 56.172 213.728 55.788C213.904 55.388 213.992 55.012 213.992 54.66C213.992 54.468 213.952 54.324 213.872 54.228C213.808 54.116 213.672 54.06 213.464 54.06C213.032 54.06 212.584 54.252 212.12 54.636C211.672 55.02 211.248 55.516 210.848 56.124C210.464 56.732 210.144 57.372 209.888 58.044C209.648 58.716 209.528 59.348 209.528 59.94C209.528 60.436 209.648 60.892 209.888 61.308C210.128 61.724 210.592 61.932 211.28 61.932C211.92 61.932 212.56 61.756 213.2 61.404C213.856 61.052 214.464 60.548 215.024 59.892C215.584 59.236 216.032 58.468 216.368 57.588L216.68 57.828C216.312 58.788 215.808 59.652 215.168 60.42C214.528 61.172 213.824 61.764 213.056 62.196C212.288 62.628 211.512 62.844 210.728 62.844ZM218.51 62.556C217.534 62.556 216.798 62.284 216.302 61.74C215.822 61.212 215.582 60.556 215.582 59.772C215.582 59.052 215.758 58.292 216.11 57.492C216.478 56.692 216.958 55.94 217.55 55.236C218.158 54.532 218.822 53.964 219.542 53.532C220.262 53.084 220.974 52.86 221.678 52.86C222.046 52.86 222.382 52.956 222.686 53.148C223.006 53.34 223.166 53.732 223.166 54.324C223.166 54.932 222.982 55.508 222.614 56.052C222.262 56.58 221.79 57.052 221.198 57.468C220.622 57.884 219.982 58.228 219.278 58.5C218.59 58.756 217.902 58.916 217.214 58.98C217.182 59.14 217.158 59.292 217.142 59.436C217.126 59.58 217.118 59.716 217.118 59.844C217.118 60.084 217.142 60.324 217.19 60.564C217.254 60.804 217.358 61.028 217.502 61.236C217.646 61.428 217.838 61.58 218.078 61.692C218.334 61.804 218.646 61.86 219.014 61.86C219.702 61.86 220.382 61.668 221.054 61.284C221.726 60.884 222.35 60.364 222.926 59.724C223.502 59.084 223.99 58.38 224.39 57.612L224.678 57.828C224.246 58.788 223.694 59.62 223.022 60.324C222.366 61.028 221.646 61.572 220.862 61.956C220.094 62.356 219.31 62.556 218.51 62.556ZM217.334 58.524C217.766 58.38 218.254 58.172 218.798 57.9C219.342 57.612 219.862 57.276 220.358 56.892C220.87 56.508 221.286 56.084 221.606 55.62C221.942 55.156 222.11 54.668 222.11 54.156C222.11 53.98 222.078 53.844 222.014 53.748C221.95 53.652 221.814 53.604 221.606 53.604C221.222 53.604 220.814 53.756 220.382 54.06C219.95 54.348 219.534 54.732 219.134 55.212C218.734 55.692 218.374 56.22 218.054 56.796C217.734 57.372 217.494 57.948 217.334 58.524ZM228.062 62.124C227.518 62.124 227.086 61.98 226.766 61.692C226.462 61.404 226.31 61.028 226.31 60.564C226.31 60.084 226.422 59.58 226.646 59.052C226.87 58.524 227.086 58.004 227.294 57.492C227.518 56.964 227.63 56.492 227.63 56.076C227.63 55.564 227.478 55.188 227.174 54.948C226.886 54.692 226.59 54.46 226.286 54.252C225.918 55.196 225.534 56.092 225.134 56.94C224.734 57.788 224.406 58.428 224.15 58.86L223.934 58.452C224.158 58.036 224.446 57.428 224.798 56.628C225.166 55.828 225.526 54.916 225.878 53.892C225.718 53.732 225.638 53.54 225.638 53.316C225.638 52.836 225.774 52.444 226.046 52.14C226.318 51.836 226.518 51.684 226.646 51.684C226.822 51.684 226.918 51.764 226.934 51.924C226.966 52.068 226.982 52.18 226.982 52.26C226.982 52.34 226.934 52.5 226.838 52.74C226.758 52.964 226.718 53.1 226.718 53.148C226.718 53.372 226.838 53.58 227.078 53.772C227.334 53.948 227.622 54.156 227.942 54.396C228.262 54.62 228.542 54.9 228.782 55.236C229.038 55.556 229.166 55.972 229.166 56.484C229.166 56.964 229.062 57.452 228.854 57.948C228.662 58.444 228.462 58.916 228.254 59.364C228.062 59.812 227.966 60.204 227.966 60.54C227.966 60.828 228.038 61.02 228.182 61.116C228.326 61.212 228.494 61.26 228.686 61.26C229.07 61.26 229.462 61.14 229.862 60.9C230.278 60.66 230.678 60.356 231.062 59.988C231.446 59.62 231.79 59.236 232.094 58.836C232.398 58.42 232.622 58.036 232.766 57.684L233.078 57.924C232.774 58.596 232.358 59.26 231.83 59.916C231.302 60.556 230.71 61.084 230.054 61.5C229.414 61.916 228.75 62.124 228.062 62.124ZM234.486 54.516C234.758 53.844 235.062 53.068 235.398 52.188C235.734 51.292 236.094 50.38 236.478 49.452C236.862 48.524 237.246 47.668 237.63 46.884C238.03 46.084 238.414 45.444 238.782 44.964C239.15 44.468 239.486 44.22 239.79 44.22C239.918 44.22 240.03 44.276 240.126 44.388C240.222 44.484 240.27 44.612 240.27 44.772C240.27 44.996 240.15 45.412 239.91 46.02C239.686 46.612 239.374 47.34 238.974 48.204C238.59 49.052 238.15 49.964 237.654 50.94C237.174 51.916 236.67 52.908 236.142 53.916C235.614 54.908 235.094 55.852 234.582 56.748C234.086 57.628 233.63 58.396 233.214 59.052C233.198 59.036 233.182 59.028 233.166 59.028C233.166 59.012 233.158 58.996 233.142 58.98C233.302 58.26 233.462 57.604 233.622 57.012C233.798 56.42 233.966 55.916 234.126 55.5C234.286 55.068 234.406 54.74 234.486 54.516ZM232.518 61.74C232.31 61.74 232.134 61.684 231.99 61.572C231.83 61.476 231.75 61.316 231.75 61.092C231.75 60.82 231.91 60.588 232.23 60.396C232.534 60.204 232.838 60.108 233.142 60.108C233.334 60.108 233.486 60.148 233.598 60.228C233.71 60.308 233.766 60.46 233.766 60.684C233.766 60.924 233.638 61.164 233.382 61.404C233.126 61.628 232.838 61.74 232.518 61.74Z" fill="black"/>
</g>
<defs>
<filter id="filter0_d_105_3" x="0.5" y="0.5" width="297" height="82" filterUnits="userSpaceOnUse" color-interpolation-filters="sRGB">
<feFlood flood-opacity="0" result="BackgroundImageFix"/>
<feColorMatrix in="SourceAlpha" type="matrix" values="0 0 0 0 0 0 0 0 0 0 0 0 0 0 0 0 0 0 127 0" result="hardAlpha"/>
<feOffset dx="2" dy="2"/>
<feGaussianBlur stdDeviation="1"/>
<feComposite in2="hardAlpha" operator="out"/>
<feColorMatrix type="matrix" values="0 0 0 0 0.333333 0 0 0 0 0.333333 0 0 0 0 0.333333 0 0 0 0.5 0"/>
<feBlend mode="normal" in2="BackgroundImageFix" result="effect1_dropShadow_105_3"/>
<feBlend mode="normal" in="SourceGraphic" in2="effect1_dropShadow_105_3" result="shape"/>
</filter>
</defs>
</svg>
