<svg width="298" height="83" viewBox="0 0 298 83" fill="none" xmlns="http://www.w3.org/2000/svg">
<g filter="url(#filter0_d_105_3)">
<rect width="293" height="78" transform="translate(0.5 0.5)" fill="#E4EDF1"/>
<path d="M35.2263 34.588C34.5063 34.588 34.0103 34.428 33.7383 34.108C33.4663 33.788 33.3303 33.38 33.3303 32.884C33.3303 32.42 33.4263 31.868 33.6183 31.228C33.8103 30.588 34.0103 29.972 34.2183 29.38C34.4903 28.596 34.8183 27.676 35.2023 26.62C35.5863 25.564 35.9943 24.46 36.4263 23.308C36.8743 22.156 37.3223 21.02 37.7703 19.9C38.2343 18.78 38.6823 17.764 39.1143 16.852C38.0103 16.868 37.0823 16.892 36.3303 16.924C35.5943 16.956 34.9303 17.004 34.3383 17.068C33.7463 17.116 33.0983 17.204 32.3943 17.332C32.4423 16.788 32.7223 16.364 33.2343 16.06C33.7463 15.756 34.4343 15.54 35.2983 15.412C36.1623 15.284 37.1463 15.22 38.2503 15.22C39.3543 15.22 40.3383 15.268 41.2023 15.364C42.0823 15.444 42.9063 15.524 43.6743 15.604C44.4423 15.684 45.2103 15.732 45.9783 15.748C45.4343 16.244 44.8103 16.556 44.1063 16.684C43.4023 16.812 42.6583 16.876 41.8743 16.876C41.6983 16.876 41.5143 16.876 41.3223 16.876C41.1303 16.86 40.9383 16.852 40.7463 16.852C40.5543 16.852 40.3623 16.852 40.1703 16.852C39.6583 18.132 39.0663 19.748 38.3943 21.7C37.7383 23.652 37.0743 25.852 36.4023 28.3C36.1783 29.148 35.9703 29.908 35.7783 30.58C35.6023 31.252 35.4583 31.868 35.3463 32.428C35.2503 32.988 35.2023 33.532 35.2023 34.06C35.2023 34.14 35.2023 34.228 35.2023 34.324C35.2023 34.42 35.2103 34.508 35.2263 34.588ZM42.0974 33.268C41.4094 33.268 40.9214 33.052 40.6334 32.62C40.3454 32.204 40.2014 31.692 40.2014 31.084C40.2014 30.588 40.2814 30.076 40.4414 29.548C40.6014 29.02 40.8094 28.524 41.0654 28.06C41.3374 27.596 41.6334 27.22 41.9534 26.932C42.2894 26.644 42.6254 26.5 42.9614 26.5C43.0414 26.5 43.1214 26.516 43.2014 26.548C43.2974 26.564 43.3854 26.588 43.4654 26.62C43.3214 26.748 43.1454 26.988 42.9374 27.34C42.7454 27.676 42.5614 28.068 42.3854 28.516C42.2094 28.948 42.0574 29.38 41.9294 29.812C41.8174 30.244 41.7614 30.612 41.7614 30.916C41.7614 31.396 41.8414 31.748 42.0014 31.972C42.1614 32.18 42.3694 32.284 42.6254 32.284C42.9614 32.284 43.3614 32.108 43.8254 31.756C44.2894 31.388 44.7454 30.924 45.1934 30.364C44.7454 29.996 44.3934 29.516 44.1374 28.924C43.8974 28.316 43.7774 27.7 43.7774 27.076C43.7774 26.548 43.8654 26.052 44.0414 25.588C44.2334 25.124 44.5054 24.756 44.8574 24.484C45.2094 24.196 45.6334 24.052 46.1294 24.052C46.7854 24.052 47.2254 24.228 47.4494 24.58C47.6734 24.932 47.7854 25.372 47.7854 25.9C47.7854 26.524 47.6334 27.22 47.3294 27.988C47.0254 28.74 46.6414 29.468 46.1774 30.172C46.4654 30.332 46.7694 30.412 47.0894 30.412C47.3454 30.412 47.6334 30.364 47.9534 30.268C48.2734 30.156 48.5854 29.972 48.8894 29.716C49.2094 29.46 49.4654 29.116 49.6574 28.684L49.9454 28.924C49.6254 29.676 49.1694 30.212 48.5774 30.532C48.0014 30.836 47.4494 30.988 46.9214 30.988C46.7134 30.988 46.5134 30.972 46.3214 30.94C46.1294 30.892 45.9454 30.828 45.7694 30.748C45.2254 31.468 44.6254 32.068 43.9694 32.548C43.3294 33.028 42.7054 33.268 42.0974 33.268ZM45.6254 29.74C46.0254 29.148 46.3534 28.532 46.6094 27.892C46.8814 27.236 47.0174 26.62 47.0174 26.044C47.0174 25.58 46.9454 25.244 46.8014 25.036C46.6734 24.812 46.5054 24.7 46.2974 24.7C45.9774 24.7 45.6494 24.932 45.3134 25.396C44.9774 25.86 44.8094 26.444 44.8094 27.148C44.8094 27.612 44.8734 28.084 45.0014 28.564C45.1454 29.028 45.3534 29.42 45.6254 29.74ZM50.623 33.22C50.351 33.22 50.071 33.148 49.783 33.004C49.511 32.876 49.287 32.66 49.111 32.356C48.919 32.052 48.823 31.668 48.823 31.204C48.823 30.676 48.951 30.084 49.207 29.428C49.463 28.772 49.807 28.124 50.239 27.484C50.671 26.828 51.167 26.228 51.727 25.684C52.287 25.124 52.871 24.684 53.479 24.364C54.087 24.028 54.687 23.86 55.279 23.86C55.615 23.86 55.871 23.924 56.047 24.052C56.239 24.164 56.335 24.348 56.335 24.604C56.335 24.668 56.327 24.724 56.311 24.772C56.311 24.82 56.303 24.876 56.287 24.94C56.207 24.812 56.087 24.724 55.927 24.676C55.783 24.612 55.599 24.58 55.375 24.58C54.863 24.58 54.359 24.74 53.863 25.06C53.383 25.364 52.935 25.772 52.519 26.284C52.119 26.78 51.767 27.316 51.463 27.892C51.159 28.468 50.919 29.028 50.743 29.572C50.583 30.1 50.503 30.548 50.503 30.916C50.503 31.268 50.583 31.548 50.743 31.756C50.903 31.964 51.111 32.068 51.367 32.068C51.799 32.068 52.319 31.796 52.927 31.252C53.551 30.708 54.183 29.94 54.823 28.948C55.463 27.956 56.039 26.796 56.551 25.468C56.903 24.54 57.263 23.596 57.631 22.636C58.015 21.676 58.399 20.756 58.783 19.876C59.167 18.98 59.535 18.188 59.887 17.5C60.255 16.796 60.599 16.244 60.919 15.844C61.255 15.428 61.551 15.22 61.807 15.22C61.935 15.22 62.047 15.276 62.143 15.388C62.239 15.484 62.287 15.612 62.287 15.772C62.287 16.028 62.151 16.468 61.879 17.092C61.623 17.7 61.279 18.436 60.847 19.3C60.431 20.148 59.991 21.076 59.527 22.084C59.063 23.092 58.615 24.116 58.183 25.156C57.767 26.196 57.423 27.204 57.151 28.18C56.895 29.14 56.767 30.02 56.767 30.82C56.767 31.268 56.791 31.604 56.839 31.828C56.887 32.052 57.047 32.164 57.319 32.164C57.655 32.164 58.047 32.02 58.495 31.732C58.943 31.444 59.391 31.036 59.839 30.508C60.287 29.98 60.679 29.348 61.015 28.612L61.303 28.828C60.999 29.644 60.583 30.38 60.055 31.036C59.527 31.676 58.959 32.18 58.351 32.548C57.759 32.932 57.191 33.124 56.647 33.124C56.055 33.124 55.639 32.924 55.399 32.524C55.175 32.14 55.063 31.74 55.063 31.324C55.063 31.052 55.103 30.692 55.183 30.244C55.263 29.796 55.375 29.3 55.519 28.756C55.007 29.604 54.463 30.372 53.887 31.06C53.311 31.732 52.743 32.26 52.183 32.644C51.639 33.028 51.119 33.22 50.623 33.22ZM62.2068 33.268C61.5188 33.268 61.0308 33.052 60.7428 32.62C60.4548 32.204 60.3108 31.692 60.3108 31.084C60.3108 30.588 60.3908 30.076 60.5508 29.548C60.7108 29.02 60.9188 28.524 61.1748 28.06C61.4468 27.596 61.7428 27.22 62.0628 26.932C62.3988 26.644 62.7348 26.5 63.0708 26.5C63.1508 26.5 63.2308 26.516 63.3108 26.548C63.4068 26.564 63.4948 26.588 63.5748 26.62C63.4308 26.748 63.2548 26.988 63.0468 27.34C62.8548 27.676 62.6708 28.068 62.4948 28.516C62.3188 28.948 62.1668 29.38 62.0388 29.812C61.9268 30.244 61.8708 30.612 61.8708 30.916C61.8708 31.396 61.9508 31.748 62.1108 31.972C62.2708 32.18 62.4788 32.284 62.7348 32.284C63.0708 32.284 63.4708 32.108 63.9348 31.756C64.3988 31.388 64.8548 30.924 65.3028 30.364C64.8548 29.996 64.5028 29.516 64.2468 28.924C64.0068 28.316 63.8868 27.7 63.8868 27.076C63.8868 26.548 63.9748 26.052 64.1508 25.588C64.3428 25.124 64.6148 24.756 64.9668 24.484C65.3188 24.196 65.7428 24.052 66.2388 24.052C66.8948 24.052 67.3348 24.228 67.5588 24.58C67.7828 24.932 67.8948 25.372 67.8948 25.9C67.8948 26.524 67.7428 27.22 67.4388 27.988C67.1348 28.74 66.7508 29.468 66.2868 30.172C66.5748 30.332 66.8788 30.412 67.1988 30.412C67.4548 30.412 67.7428 30.364 68.0628 30.268C68.3828 30.156 68.6948 29.972 68.9988 29.716C69.3188 29.46 69.5748 29.116 69.7668 28.684L70.0548 28.924C69.7348 29.676 69.2788 30.212 68.6868 30.532C68.1108 30.836 67.5588 30.988 67.0308 30.988C66.8228 30.988 66.6228 30.972 66.4308 30.94C66.2388 30.892 66.0548 30.828 65.8788 30.748C65.3348 31.468 64.7348 32.068 64.0788 32.548C63.4388 33.028 62.8148 33.268 62.2068 33.268ZM65.7348 29.74C66.1348 29.148 66.4628 28.532 66.7188 27.892C66.9908 27.236 67.1268 26.62 67.1268 26.044C67.1268 25.58 67.0548 25.244 66.9108 25.036C66.7828 24.812 66.6148 24.7 66.4068 24.7C66.0868 24.7 65.7588 24.932 65.4228 25.396C65.0868 25.86 64.9188 26.444 64.9188 27.148C64.9188 27.612 64.9828 28.084 65.1108 28.564C65.2548 29.028 65.4628 29.42 65.7348 29.74ZM76.9668 33.22C76.6948 33.22 76.4148 33.148 76.1268 33.004C75.8548 32.876 75.6308 32.66 75.4548 32.356C75.2628 32.052 75.1668 31.668 75.1668 31.204C75.1668 30.676 75.2948 30.084 75.5508 29.428C75.8068 28.772 76.1508 28.124 76.5828 27.484C77.0148 26.828 77.5108 26.228 78.0708 25.684C78.6308 25.124 79.2148 24.684 79.8228 24.364C80.4308 24.028 81.0308 23.86 81.6228 23.86C81.9588 23.86 82.2148 23.924 82.3908 24.052C82.5828 24.164 82.6788 24.348 82.6788 24.604C82.6788 24.668 82.6708 24.724 82.6548 24.772C82.6548 24.82 82.6468 24.876 82.6308 24.94C82.5508 24.812 82.4308 24.724 82.2708 24.676C82.1268 24.612 81.9428 24.58 81.7188 24.58C81.2068 24.58 80.7028 24.74 80.2068 25.06C79.7268 25.364 79.2788 25.772 78.8628 26.284C78.4628 26.78 78.1108 27.316 77.8068 27.892C77.5028 28.468 77.2628 29.028 77.0868 29.572C76.9268 30.1 76.8468 30.548 76.8468 30.916C76.8468 31.268 76.9268 31.548 77.0868 31.756C77.2468 31.964 77.4548 32.068 77.7108 32.068C78.1428 32.068 78.6628 31.796 79.2708 31.252C79.8948 30.708 80.5268 29.94 81.1668 28.948C81.8068 27.956 82.3828 26.796 82.8948 25.468C83.2468 24.54 83.6068 23.596 83.9748 22.636C84.3588 21.676 84.7428 20.756 85.1268 19.876C85.5108 18.98 85.8788 18.188 86.2308 17.5C86.5988 16.796 86.9428 16.244 87.2628 15.844C87.5988 15.428 87.8948 15.22 88.1508 15.22C88.2788 15.22 88.3908 15.276 88.4868 15.388C88.5828 15.484 88.6308 15.612 88.6308 15.772C88.6308 16.028 88.4948 16.468 88.2228 17.092C87.9668 17.7 87.6228 18.436 87.1908 19.3C86.7748 20.148 86.3348 21.076 85.8708 22.084C85.4068 23.092 84.9588 24.116 84.5268 25.156C84.1108 26.196 83.7668 27.204 83.4948 28.18C83.2388 29.14 83.1108 30.02 83.1108 30.82C83.1108 31.268 83.1348 31.604 83.1828 31.828C83.2308 32.052 83.3908 32.164 83.6628 32.164C83.9988 32.164 84.3908 32.02 84.8388 31.732C85.2868 31.444 85.7348 31.036 86.1828 30.508C86.6308 29.98 87.0228 29.348 87.3588 28.612L87.6468 28.828C87.3428 29.644 86.9268 30.38 86.3988 31.036C85.8708 31.676 85.3028 32.18 84.6948 32.548C84.1028 32.932 83.5348 33.124 82.9908 33.124C82.3988 33.124 81.9828 32.924 81.7428 32.524C81.5188 32.14 81.4068 31.74 81.4068 31.324C81.4068 31.052 81.4468 30.692 81.5268 30.244C81.6068 29.796 81.7188 29.3 81.8628 28.756C81.3508 29.604 80.8068 30.372 80.2308 31.06C79.6548 31.732 79.0868 32.26 78.5268 32.644C77.9828 33.028 77.4628 33.22 76.9668 33.22ZM88.6225 33.124C87.9985 33.124 87.5345 32.924 87.2305 32.524C86.9265 32.14 86.7745 31.668 86.7745 31.108C86.7745 30.74 86.8385 30.276 86.9665 29.716C87.1105 29.156 87.2945 28.572 87.5185 27.964C87.7425 27.34 87.9985 26.756 88.2865 26.212C88.5905 25.668 88.9105 25.228 89.2465 24.892C89.5825 24.54 89.9105 24.364 90.2305 24.364C90.3745 24.364 90.4945 24.412 90.5905 24.508C90.7025 24.588 90.7585 24.716 90.7585 24.892C90.7585 25.084 90.6305 25.396 90.3745 25.828C90.1345 26.26 89.8465 26.756 89.5105 27.316C89.1745 27.876 88.8785 28.468 88.6225 29.092C88.3825 29.7 88.2625 30.284 88.2625 30.844C88.2625 31.42 88.3585 31.804 88.5505 31.996C88.7425 32.188 89.0385 32.284 89.4385 32.284C89.9825 32.284 90.5585 32.012 91.1665 31.468C91.7905 30.924 92.4465 29.972 93.1345 28.612L93.3505 28.852C92.8865 30.228 92.2145 31.284 91.3345 32.02C90.4705 32.756 89.5665 33.124 88.6225 33.124ZM91.5025 22.132C91.2465 22.132 91.0145 22.068 90.8065 21.94C90.6145 21.812 90.5185 21.612 90.5185 21.34C90.5185 21.004 90.7105 20.716 91.0945 20.476C91.4945 20.22 91.8865 20.092 92.2705 20.092C92.5105 20.092 92.7025 20.148 92.8465 20.26C92.9905 20.372 93.0625 20.564 93.0625 20.836C93.0625 21.14 92.8945 21.436 92.5585 21.724C92.2385 21.996 91.8865 22.132 91.5025 22.132ZM93.8356 33.628C93.3396 33.628 92.9236 33.46 92.5876 33.124C92.2356 32.804 92.0596 32.308 92.0596 31.636C92.0596 31.06 92.1876 30.444 92.4436 29.788C92.6996 29.116 93.0516 28.46 93.4996 27.82C93.9476 27.164 94.4516 26.572 95.0116 26.044C95.5876 25.5 96.1876 25.068 96.8116 24.748C97.4516 24.428 98.0836 24.268 98.7076 24.268C99.3316 24.268 99.8516 24.436 100.268 24.772C100.684 25.092 100.892 25.524 100.892 26.068C100.892 26.468 100.78 26.74 100.556 26.884C100.348 27.028 100.068 27.1 99.7156 27.1C99.7476 26.972 99.7716 26.836 99.7876 26.692C99.8196 26.532 99.8356 26.388 99.8356 26.26C99.8356 25.892 99.7476 25.58 99.5716 25.324C99.3956 25.052 99.0916 24.916 98.6596 24.916C98.2116 24.916 97.7556 25.076 97.2916 25.396C96.8276 25.7 96.3796 26.116 95.9476 26.644C95.5156 27.156 95.1316 27.716 94.7956 28.324C94.4596 28.932 94.1956 29.532 94.0036 30.124C93.8116 30.716 93.7156 31.244 93.7156 31.708C93.7156 32.332 93.9316 32.644 94.3636 32.644C94.7316 32.644 95.1316 32.476 95.5636 32.14C95.9956 31.788 96.4356 31.348 96.8836 30.82C97.3476 30.276 97.7876 29.716 98.2036 29.14C98.6196 28.564 98.9876 28.036 99.3076 27.556C99.3716 27.46 99.4116 27.412 99.4276 27.412C99.5236 27.428 99.6436 27.46 99.7876 27.508C99.9476 27.556 100.084 27.62 100.196 27.7C100.308 27.78 100.364 27.884 100.364 28.012C100.364 28.156 100.292 28.356 100.148 28.612C100.004 28.852 99.8436 29.132 99.6676 29.452C99.4916 29.772 99.3316 30.1 99.1876 30.436C99.0436 30.756 98.9716 31.06 98.9716 31.348C98.9716 31.588 99.0356 31.828 99.1636 32.068C99.2916 32.292 99.4996 32.404 99.7876 32.404C100.22 32.404 100.788 32.092 101.492 31.468C102.196 30.828 102.908 29.876 103.628 28.612L103.868 28.852C103.532 29.716 103.1 30.476 102.572 31.132C102.044 31.788 101.476 32.3 100.868 32.668C100.276 33.036 99.6916 33.22 99.1156 33.22C98.5236 33.22 98.0836 33.044 97.7956 32.692C97.5236 32.34 97.3876 31.956 97.3876 31.54C97.3876 31.444 97.3956 31.34 97.4116 31.228C97.4276 31.1 97.4436 30.972 97.4596 30.844C96.7716 31.772 96.1396 32.468 95.5636 32.932C95.0036 33.396 94.4276 33.628 93.8356 33.628ZM111.963 33.556C110.987 33.556 110.251 33.284 109.755 32.74C109.275 32.212 109.035 31.556 109.035 30.772C109.035 30.052 109.211 29.292 109.563 28.492C109.931 27.692 110.411 26.94 111.003 26.236C111.611 25.532 112.275 24.964 112.995 24.532C113.715 24.084 114.427 23.86 115.131 23.86C115.499 23.86 115.835 23.956 116.139 24.148C116.459 24.34 116.619 24.732 116.619 25.324C116.619 25.932 116.435 26.508 116.067 27.052C115.715 27.58 115.243 28.052 114.651 28.468C114.075 28.884 113.435 29.228 112.731 29.5C112.043 29.756 111.355 29.916 110.667 29.98C110.635 30.14 110.611 30.292 110.595 30.436C110.579 30.58 110.571 30.716 110.571 30.844C110.571 31.084 110.595 31.324 110.643 31.564C110.707 31.804 110.811 32.028 110.955 32.236C111.099 32.428 111.291 32.58 111.531 32.692C111.787 32.804 112.099 32.86 112.467 32.86C113.155 32.86 113.835 32.668 114.507 32.284C115.179 31.884 115.803 31.364 116.379 30.724C116.955 30.084 117.443 29.38 117.843 28.612L118.131 28.828C117.699 29.788 117.147 30.62 116.475 31.324C115.819 32.028 115.099 32.572 114.315 32.956C113.547 33.356 112.763 33.556 111.963 33.556ZM110.787 29.524C111.219 29.38 111.707 29.172 112.251 28.9C112.795 28.612 113.315 28.276 113.811 27.892C114.323 27.508 114.739 27.084 115.059 26.62C115.395 26.156 115.563 25.668 115.563 25.156C115.563 24.98 115.531 24.844 115.467 24.748C115.403 24.652 115.267 24.604 115.059 24.604C114.675 24.604 114.267 24.756 113.835 25.06C113.403 25.348 112.987 25.732 112.587 26.212C112.187 26.692 111.827 27.22 111.507 27.796C111.187 28.372 110.947 28.948 110.787 29.524ZM115.683 22.468C115.571 22.404 115.483 22.3 115.419 22.156C115.371 22.012 115.347 21.908 115.347 21.844C115.347 21.7 115.427 21.476 115.587 21.172C115.763 20.852 115.979 20.524 116.235 20.188C116.491 19.836 116.763 19.54 117.051 19.3C117.339 19.06 117.603 18.94 117.843 18.94C117.971 18.94 118.083 18.996 118.179 19.108C118.291 19.204 118.355 19.396 118.371 19.684C117.795 20.18 117.291 20.652 116.859 21.1C116.427 21.548 116.035 22.004 115.683 22.468ZM122.086 39.22C121.958 39.22 121.838 39.148 121.726 39.004C121.598 38.876 121.502 38.732 121.438 38.572C121.374 38.428 121.342 38.34 121.342 38.308C121.566 37.524 121.79 36.82 122.014 36.196C122.222 35.588 122.438 34.956 122.662 34.3C122.87 33.66 123.078 32.908 123.286 32.044C123.494 31.164 123.71 30.076 123.934 28.78C124.158 27.484 124.382 25.876 124.606 23.956C124.622 23.812 124.654 23.708 124.702 23.644C124.75 23.58 124.87 23.548 125.062 23.548C125.478 23.548 125.774 23.668 125.95 23.908C126.126 24.132 126.214 24.38 126.214 24.652C126.214 24.876 126.166 25.276 126.07 25.852C125.974 26.428 125.838 27.108 125.662 27.892C125.934 27.364 126.27 26.828 126.67 26.284C127.086 25.74 127.558 25.284 128.086 24.916C128.614 24.548 129.19 24.364 129.814 24.364C130.518 24.364 131.094 24.62 131.542 25.132C132.006 25.628 132.238 26.284 132.238 27.1C132.238 27.724 132.094 28.388 131.806 29.092C131.534 29.78 131.142 30.436 130.63 31.06C130.134 31.668 129.542 32.164 128.854 32.548C128.166 32.932 127.406 33.124 126.574 33.124C126.158 33.124 125.822 33.076 125.566 32.98C125.31 32.884 125.182 32.788 125.182 32.692C125.182 32.628 125.238 32.588 125.35 32.572C125.478 32.572 125.622 32.572 125.782 32.572C126.422 32.572 127.03 32.42 127.606 32.116C128.198 31.796 128.726 31.38 129.19 30.868C129.654 30.356 130.014 29.788 130.27 29.164C130.542 28.54 130.678 27.924 130.678 27.316C130.678 26.804 130.566 26.372 130.342 26.02C130.134 25.652 129.79 25.468 129.31 25.468C128.894 25.468 128.478 25.604 128.062 25.876C127.662 26.132 127.278 26.468 126.91 26.884C126.558 27.284 126.238 27.708 125.95 28.156C125.678 28.588 125.47 28.98 125.326 29.332C125.038 30.532 124.75 31.684 124.462 32.788C124.174 33.908 123.894 34.916 123.622 35.812C123.366 36.724 123.134 37.468 122.926 38.044C122.702 38.62 122.518 38.972 122.374 39.1C122.294 39.18 122.198 39.22 122.086 39.22ZM137.125 33.124C136.581 33.124 136.149 32.98 135.829 32.692C135.525 32.404 135.373 32.028 135.373 31.564C135.373 31.084 135.485 30.58 135.709 30.052C135.933 29.524 136.149 29.004 136.357 28.492C136.581 27.964 136.693 27.492 136.693 27.076C136.693 26.564 136.541 26.188 136.237 25.948C135.949 25.692 135.653 25.46 135.349 25.252C134.981 26.196 134.597 27.092 134.197 27.94C133.797 28.788 133.469 29.428 133.213 29.86L132.997 29.452C133.221 29.036 133.509 28.428 133.861 27.628C134.229 26.828 134.589 25.916 134.941 24.892C134.781 24.732 134.701 24.54 134.701 24.316C134.701 23.836 134.837 23.444 135.109 23.14C135.381 22.836 135.581 22.684 135.709 22.684C135.885 22.684 135.981 22.764 135.997 22.924C136.029 23.068 136.045 23.18 136.045 23.26C136.045 23.34 135.997 23.5 135.901 23.74C135.821 23.964 135.781 24.1 135.781 24.148C135.781 24.372 135.901 24.58 136.141 24.772C136.397 24.948 136.685 25.156 137.005 25.396C137.325 25.62 137.605 25.9 137.845 26.236C138.101 26.556 138.229 26.972 138.229 27.484C138.229 27.964 138.125 28.452 137.917 28.948C137.725 29.444 137.525 29.916 137.317 30.364C137.125 30.812 137.029 31.204 137.029 31.54C137.029 31.828 137.101 32.02 137.245 32.116C137.389 32.212 137.557 32.26 137.749 32.26C138.133 32.26 138.525 32.14 138.925 31.9C139.341 31.66 139.741 31.356 140.125 30.988C140.509 30.62 140.853 30.236 141.157 29.836C141.461 29.42 141.685 29.036 141.829 28.684L142.141 28.924C141.837 29.596 141.421 30.26 140.893 30.916C140.365 31.556 139.773 32.084 139.117 32.5C138.477 32.916 137.813 33.124 137.125 33.124ZM142.972 33.268C142.284 33.268 141.796 33.052 141.508 32.62C141.22 32.204 141.076 31.692 141.076 31.084C141.076 30.588 141.156 30.076 141.316 29.548C141.476 29.02 141.684 28.524 141.94 28.06C142.212 27.596 142.508 27.22 142.828 26.932C143.164 26.644 143.5 26.5 143.836 26.5C143.916 26.5 143.996 26.516 144.076 26.548C144.172 26.564 144.26 26.588 144.34 26.62C144.196 26.748 144.02 26.988 143.812 27.34C143.62 27.676 143.436 28.068 143.26 28.516C143.084 28.948 142.932 29.38 142.804 29.812C142.692 30.244 142.636 30.612 142.636 30.916C142.636 31.396 142.716 31.748 142.876 31.972C143.036 32.18 143.244 32.284 143.5 32.284C143.836 32.284 144.236 32.108 144.7 31.756C145.164 31.388 145.62 30.924 146.068 30.364C145.62 29.996 145.268 29.516 145.012 28.924C144.772 28.316 144.652 27.7 144.652 27.076C144.652 26.548 144.74 26.052 144.916 25.588C145.108 25.124 145.38 24.756 145.732 24.484C146.084 24.196 146.508 24.052 147.004 24.052C147.66 24.052 148.1 24.228 148.324 24.58C148.548 24.932 148.66 25.372 148.66 25.9C148.66 26.524 148.508 27.22 148.204 27.988C147.9 28.74 147.516 29.468 147.052 30.172C147.34 30.332 147.644 30.412 147.964 30.412C148.22 30.412 148.508 30.364 148.828 30.268C149.148 30.156 149.46 29.972 149.764 29.716C150.084 29.46 150.34 29.116 150.532 28.684L150.82 28.924C150.5 29.676 150.044 30.212 149.452 30.532C148.876 30.836 148.324 30.988 147.796 30.988C147.588 30.988 147.388 30.972 147.196 30.94C147.004 30.892 146.82 30.828 146.644 30.748C146.1 31.468 145.5 32.068 144.844 32.548C144.204 33.028 143.58 33.268 142.972 33.268ZM146.5 29.74C146.9 29.148 147.228 28.532 147.484 27.892C147.756 27.236 147.892 26.62 147.892 26.044C147.892 25.58 147.82 25.244 147.676 25.036C147.548 24.812 147.38 24.7 147.172 24.7C146.852 24.7 146.524 24.932 146.188 25.396C145.852 25.86 145.684 26.444 145.684 27.148C145.684 27.612 145.748 28.084 145.876 28.564C146.02 29.028 146.228 29.42 146.5 29.74ZM148.57 39.22C148.442 39.22 148.322 39.148 148.21 39.004C148.082 38.876 147.986 38.732 147.922 38.572C147.858 38.428 147.826 38.34 147.826 38.308C148.05 37.524 148.274 36.82 148.498 36.196C148.706 35.588 148.922 34.956 149.146 34.3C149.354 33.66 149.562 32.908 149.77 32.044C149.978 31.164 150.194 30.076 150.418 28.78C150.642 27.484 150.866 25.876 151.09 23.956C151.106 23.812 151.138 23.708 151.186 23.644C151.234 23.58 151.354 23.548 151.546 23.548C151.962 23.548 152.258 23.668 152.434 23.908C152.61 24.132 152.698 24.38 152.698 24.652C152.698 24.876 152.65 25.276 152.554 25.852C152.458 26.428 152.322 27.108 152.146 27.892C152.418 27.364 152.754 26.828 153.154 26.284C153.57 25.74 154.042 25.284 154.57 24.916C155.098 24.548 155.674 24.364 156.298 24.364C157.002 24.364 157.578 24.62 158.026 25.132C158.49 25.628 158.722 26.284 158.722 27.1C158.722 27.724 158.578 28.388 158.29 29.092C158.018 29.78 157.626 30.436 157.114 31.06C156.618 31.668 156.026 32.164 155.338 32.548C154.65 32.932 153.89 33.124 153.058 33.124C152.642 33.124 152.306 33.076 152.05 32.98C151.794 32.884 151.666 32.788 151.666 32.692C151.666 32.628 151.722 32.588 151.834 32.572C151.962 32.572 152.106 32.572 152.266 32.572C152.906 32.572 153.514 32.42 154.09 32.116C154.682 31.796 155.21 31.38 155.674 30.868C156.138 30.356 156.498 29.788 156.754 29.164C157.026 28.54 157.162 27.924 157.162 27.316C157.162 26.804 157.05 26.372 156.826 26.02C156.618 25.652 156.274 25.468 155.794 25.468C155.378 25.468 154.962 25.604 154.546 25.876C154.146 26.132 153.762 26.468 153.394 26.884C153.042 27.284 152.722 27.708 152.434 28.156C152.162 28.588 151.954 28.98 151.81 29.332C151.522 30.532 151.234 31.684 150.946 32.788C150.658 33.908 150.378 34.916 150.106 35.812C149.85 36.724 149.618 37.468 149.41 38.044C149.186 38.62 149.002 38.972 148.858 39.1C148.778 39.18 148.682 39.22 148.57 39.22ZM161.185 33.124C160.561 33.124 160.097 32.924 159.793 32.524C159.489 32.14 159.337 31.668 159.337 31.108C159.337 30.74 159.401 30.276 159.529 29.716C159.673 29.156 159.857 28.572 160.081 27.964C160.305 27.34 160.561 26.756 160.849 26.212C161.153 25.668 161.473 25.228 161.809 24.892C162.145 24.54 162.473 24.364 162.793 24.364C162.937 24.364 163.057 24.412 163.153 24.508C163.265 24.588 163.321 24.716 163.321 24.892C163.321 25.084 163.193 25.396 162.937 25.828C162.697 26.26 162.409 26.756 162.073 27.316C161.737 27.876 161.441 28.468 161.185 29.092C160.945 29.7 160.825 30.284 160.825 30.844C160.825 31.42 160.921 31.804 161.113 31.996C161.305 32.188 161.601 32.284 162.001 32.284C162.545 32.284 163.121 32.012 163.729 31.468C164.353 30.924 165.009 29.972 165.697 28.612L165.913 28.852C165.449 30.228 164.777 31.284 163.897 32.02C163.033 32.756 162.129 33.124 161.185 33.124ZM163.729 22.636C163.617 22.572 163.529 22.468 163.465 22.324C163.417 22.18 163.393 22.076 163.393 22.012C163.393 21.868 163.473 21.644 163.633 21.34C163.809 21.02 164.025 20.692 164.281 20.356C164.537 20.004 164.809 19.708 165.097 19.468C165.385 19.228 165.649 19.108 165.889 19.108C166.017 19.108 166.129 19.164 166.225 19.276C166.337 19.372 166.401 19.564 166.417 19.852C165.841 20.348 165.337 20.82 164.905 21.268C164.473 21.716 164.081 22.172 163.729 22.636ZM167.814 33.844C167.046 33.844 166.406 33.588 165.894 33.076C165.382 32.564 165.126 31.796 165.126 30.772C165.126 29.972 165.278 29.196 165.582 28.444C165.902 27.676 166.318 26.988 166.83 26.38C167.342 25.772 167.91 25.292 168.534 24.94C169.158 24.572 169.774 24.388 170.382 24.388C171.038 24.388 171.486 24.58 171.726 24.964C171.966 25.348 172.086 25.748 172.086 26.164C172.086 26.628 171.974 27.036 171.75 27.388C171.542 27.74 171.254 27.916 170.886 27.916C170.614 27.916 170.382 27.796 170.19 27.556C170.43 27.428 170.638 27.172 170.814 26.788C170.99 26.388 171.078 26.012 171.078 25.66C171.078 25.468 171.038 25.324 170.958 25.228C170.894 25.116 170.758 25.06 170.55 25.06C170.118 25.06 169.67 25.252 169.206 25.636C168.758 26.02 168.334 26.516 167.934 27.124C167.55 27.732 167.23 28.372 166.974 29.044C166.734 29.716 166.614 30.348 166.614 30.94C166.614 31.436 166.734 31.892 166.974 32.308C167.214 32.724 167.678 32.932 168.366 32.932C169.006 32.932 169.646 32.756 170.286 32.404C170.942 32.052 171.55 31.548 172.11 30.892C172.67 30.236 173.118 29.468 173.454 28.588L173.766 28.828C173.398 29.788 172.894 30.652 172.254 31.42C171.614 32.172 170.91 32.764 170.142 33.196C169.374 33.628 168.598 33.844 167.814 33.844ZM174.732 33.124C174.108 33.124 173.644 32.924 173.34 32.524C173.036 32.14 172.884 31.668 172.884 31.108C172.884 30.74 172.948 30.276 173.076 29.716C173.22 29.156 173.404 28.572 173.628 27.964C173.852 27.34 174.108 26.756 174.396 26.212C174.7 25.668 175.02 25.228 175.356 24.892C175.692 24.54 176.02 24.364 176.34 24.364C176.484 24.364 176.604 24.412 176.7 24.508C176.812 24.588 176.868 24.716 176.868 24.892C176.868 25.084 176.74 25.396 176.484 25.828C176.244 26.26 175.956 26.756 175.62 27.316C175.284 27.876 174.988 28.468 174.732 29.092C174.492 29.7 174.372 30.284 174.372 30.844C174.372 31.42 174.468 31.804 174.66 31.996C174.852 32.188 175.148 32.284 175.548 32.284C176.092 32.284 176.668 32.012 177.276 31.468C177.9 30.924 178.556 29.972 179.244 28.612L179.46 28.852C178.996 30.228 178.324 31.284 177.444 32.02C176.58 32.756 175.676 33.124 174.732 33.124ZM177.612 22.132C177.356 22.132 177.124 22.068 176.916 21.94C176.724 21.812 176.628 21.612 176.628 21.34C176.628 21.004 176.82 20.716 177.204 20.476C177.604 20.22 177.996 20.092 178.38 20.092C178.62 20.092 178.812 20.148 178.956 20.26C179.1 20.372 179.172 20.564 179.172 20.836C179.172 21.14 179.004 21.436 178.668 21.724C178.348 21.996 177.996 22.132 177.612 22.132ZM180.449 33.268C179.761 33.268 179.273 33.052 178.985 32.62C178.697 32.204 178.553 31.692 178.553 31.084C178.553 30.588 178.633 30.076 178.793 29.548C178.953 29.02 179.161 28.524 179.417 28.06C179.689 27.596 179.985 27.22 180.305 26.932C180.641 26.644 180.977 26.5 181.313 26.5C181.393 26.5 181.473 26.516 181.553 26.548C181.649 26.564 181.737 26.588 181.817 26.62C181.673 26.748 181.497 26.988 181.289 27.34C181.097 27.676 180.913 28.068 180.737 28.516C180.561 28.948 180.409 29.38 180.281 29.812C180.169 30.244 180.113 30.612 180.113 30.916C180.113 31.396 180.193 31.748 180.353 31.972C180.513 32.18 180.721 32.284 180.977 32.284C181.313 32.284 181.713 32.108 182.177 31.756C182.641 31.388 183.097 30.924 183.545 30.364C183.097 29.996 182.745 29.516 182.489 28.924C182.249 28.316 182.129 27.7 182.129 27.076C182.129 26.548 182.217 26.052 182.393 25.588C182.585 25.124 182.857 24.756 183.209 24.484C183.561 24.196 183.985 24.052 184.481 24.052C185.137 24.052 185.577 24.228 185.801 24.58C186.025 24.932 186.137 25.372 186.137 25.9C186.137 26.524 185.985 27.22 185.681 27.988C185.377 28.74 184.993 29.468 184.529 30.172C184.817 30.332 185.121 30.412 185.441 30.412C185.697 30.412 185.985 30.364 186.305 30.268C186.625 30.156 186.937 29.972 187.241 29.716C187.561 29.46 187.817 29.116 188.009 28.684L188.297 28.924C187.977 29.676 187.521 30.212 186.929 30.532C186.353 30.836 185.801 30.988 185.273 30.988C185.065 30.988 184.865 30.972 184.673 30.94C184.481 30.892 184.297 30.828 184.121 30.748C183.577 31.468 182.977 32.068 182.321 32.548C181.681 33.028 181.057 33.268 180.449 33.268ZM183.977 29.74C184.377 29.148 184.705 28.532 184.961 27.892C185.233 27.236 185.369 26.62 185.369 26.044C185.369 25.58 185.297 25.244 185.153 25.036C185.025 24.812 184.857 24.7 184.649 24.7C184.329 24.7 184.001 24.932 183.665 25.396C183.329 25.86 183.161 26.444 183.161 27.148C183.161 27.612 183.225 28.084 183.353 28.564C183.497 29.028 183.705 29.42 183.977 29.74ZM192.281 39.22C192.153 39.22 192.033 39.148 191.921 39.004C191.793 38.876 191.697 38.732 191.633 38.572C191.569 38.428 191.537 38.34 191.537 38.308C191.761 37.524 191.985 36.82 192.209 36.196C192.417 35.588 192.633 34.956 192.857 34.3C193.065 33.66 193.273 32.908 193.481 32.044C193.689 31.164 193.905 30.076 194.129 28.78C194.353 27.484 194.577 25.876 194.801 23.956C194.817 23.812 194.849 23.708 194.897 23.644C194.945 23.58 195.065 23.548 195.257 23.548C195.673 23.548 195.969 23.668 196.145 23.908C196.321 24.132 196.409 24.38 196.409 24.652C196.409 24.876 196.361 25.276 196.265 25.852C196.169 26.428 196.033 27.108 195.857 27.892C196.129 27.364 196.465 26.828 196.865 26.284C197.281 25.74 197.753 25.284 198.281 24.916C198.809 24.548 199.385 24.364 200.009 24.364C200.713 24.364 201.289 24.62 201.737 25.132C202.201 25.628 202.433 26.284 202.433 27.1C202.433 27.724 202.289 28.388 202.001 29.092C201.729 29.78 201.337 30.436 200.825 31.06C200.329 31.668 199.737 32.164 199.049 32.548C198.361 32.932 197.601 33.124 196.769 33.124C196.353 33.124 196.017 33.076 195.761 32.98C195.505 32.884 195.377 32.788 195.377 32.692C195.377 32.628 195.433 32.588 195.545 32.572C195.673 32.572 195.817 32.572 195.977 32.572C196.617 32.572 197.225 32.42 197.801 32.116C198.393 31.796 198.921 31.38 199.385 30.868C199.849 30.356 200.209 29.788 200.465 29.164C200.737 28.54 200.873 27.924 200.873 27.316C200.873 26.804 200.761 26.372 200.537 26.02C200.329 25.652 199.985 25.468 199.505 25.468C199.089 25.468 198.673 25.604 198.257 25.876C197.857 26.132 197.473 26.468 197.105 26.884C196.753 27.284 196.433 27.708 196.145 28.156C195.873 28.588 195.665 28.98 195.521 29.332C195.233 30.532 194.945 31.684 194.657 32.788C194.369 33.908 194.089 34.916 193.817 35.812C193.561 36.724 193.329 37.468 193.121 38.044C192.897 38.62 192.713 38.972 192.569 39.1C192.489 39.18 192.393 39.22 192.281 39.22ZM204.32 33.628C203.824 33.628 203.408 33.46 203.072 33.124C202.72 32.804 202.544 32.308 202.544 31.636C202.544 31.06 202.672 30.444 202.928 29.788C203.184 29.116 203.536 28.46 203.984 27.82C204.432 27.164 204.936 26.572 205.496 26.044C206.072 25.5 206.672 25.068 207.296 24.748C207.936 24.428 208.568 24.268 209.192 24.268C209.816 24.268 210.336 24.436 210.752 24.772C211.168 25.092 211.376 25.524 211.376 26.068C211.376 26.468 211.264 26.74 211.04 26.884C210.832 27.028 210.552 27.1 210.2 27.1C210.232 26.972 210.256 26.836 210.272 26.692C210.304 26.532 210.32 26.388 210.32 26.26C210.32 25.892 210.232 25.58 210.056 25.324C209.88 25.052 209.576 24.916 209.144 24.916C208.696 24.916 208.24 25.076 207.776 25.396C207.312 25.7 206.864 26.116 206.432 26.644C206 27.156 205.616 27.716 205.28 28.324C204.944 28.932 204.68 29.532 204.488 30.124C204.296 30.716 204.2 31.244 204.2 31.708C204.2 32.332 204.416 32.644 204.848 32.644C205.216 32.644 205.616 32.476 206.048 32.14C206.48 31.788 206.92 31.348 207.368 30.82C207.832 30.276 208.272 29.716 208.688 29.14C209.104 28.564 209.472 28.036 209.792 27.556C209.856 27.46 209.896 27.412 209.912 27.412C210.008 27.428 210.128 27.46 210.272 27.508C210.432 27.556 210.568 27.62 210.68 27.7C210.792 27.78 210.848 27.884 210.848 28.012C210.848 28.156 210.776 28.356 210.632 28.612C210.488 28.852 210.328 29.132 210.152 29.452C209.976 29.772 209.816 30.1 209.672 30.436C209.528 30.756 209.456 31.06 209.456 31.348C209.456 31.588 209.52 31.828 209.648 32.068C209.776 32.292 209.984 32.404 210.272 32.404C210.704 32.404 211.272 32.092 211.976 31.468C212.68 30.828 213.392 29.876 214.112 28.612L214.352 28.852C214.016 29.716 213.584 30.476 213.056 31.132C212.528 31.788 211.96 32.3 211.352 32.668C210.76 33.036 210.176 33.22 209.6 33.22C209.008 33.22 208.568 33.044 208.28 32.692C208.008 32.34 207.872 31.956 207.872 31.54C207.872 31.444 207.88 31.34 207.896 31.228C207.912 31.1 207.928 30.972 207.944 30.844C207.256 31.772 206.624 32.468 206.048 32.932C205.488 33.396 204.912 33.628 204.32 33.628ZM217.773 33.124C217.229 33.124 216.797 32.98 216.477 32.692C216.173 32.404 216.021 32.028 216.021 31.564C216.021 31.084 216.133 30.58 216.357 30.052C216.581 29.524 216.797 29.004 217.005 28.492C217.229 27.964 217.341 27.492 217.341 27.076C217.341 26.564 217.189 26.188 216.885 25.948C216.597 25.692 216.301 25.46 215.997 25.252C215.629 26.196 215.245 27.092 214.845 27.94C214.445 28.788 214.117 29.428 213.861 29.86L213.645 29.452C213.869 29.036 214.157 28.428 214.509 27.628C214.877 26.828 215.237 25.916 215.589 24.892C215.429 24.732 215.349 24.54 215.349 24.316C215.349 23.836 215.485 23.444 215.757 23.14C216.029 22.836 216.229 22.684 216.357 22.684C216.533 22.684 216.629 22.764 216.645 22.924C216.677 23.068 216.693 23.18 216.693 23.26C216.693 23.34 216.645 23.5 216.549 23.74C216.469 23.964 216.429 24.1 216.429 24.148C216.429 24.372 216.549 24.58 216.789 24.772C217.045 24.948 217.333 25.156 217.653 25.396C217.973 25.62 218.253 25.9 218.493 26.236C218.749 26.556 218.877 26.972 218.877 27.484C218.877 27.964 218.773 28.452 218.565 28.948C218.373 29.444 218.173 29.916 217.965 30.364C217.773 30.812 217.677 31.204 217.677 31.54C217.677 31.828 217.749 32.02 217.893 32.116C218.037 32.212 218.205 32.26 218.397 32.26C218.781 32.26 219.173 32.14 219.573 31.9C219.989 31.66 220.389 31.356 220.773 30.988C221.157 30.62 221.501 30.236 221.805 29.836C222.109 29.42 222.333 29.036 222.477 28.684L222.789 28.924C222.485 29.596 222.069 30.26 221.541 30.916C221.013 31.556 220.421 32.084 219.765 32.5C219.125 32.916 218.461 33.124 217.773 33.124ZM223.117 33.628C222.621 33.628 222.205 33.46 221.869 33.124C221.517 32.804 221.341 32.308 221.341 31.636C221.341 31.06 221.469 30.444 221.725 29.788C221.981 29.116 222.333 28.46 222.781 27.82C223.229 27.164 223.733 26.572 224.293 26.044C224.869 25.5 225.469 25.068 226.093 24.748C226.733 24.428 227.365 24.268 227.989 24.268C228.613 24.268 229.133 24.436 229.549 24.772C229.965 25.092 230.173 25.524 230.173 26.068C230.173 26.468 230.061 26.74 229.837 26.884C229.629 27.028 229.349 27.1 228.997 27.1C229.029 26.972 229.053 26.836 229.069 26.692C229.101 26.532 229.117 26.388 229.117 26.26C229.117 25.892 229.029 25.58 228.853 25.324C228.677 25.052 228.373 24.916 227.941 24.916C227.493 24.916 227.037 25.076 226.573 25.396C226.109 25.7 225.661 26.116 225.229 26.644C224.797 27.156 224.413 27.716 224.077 28.324C223.741 28.932 223.477 29.532 223.285 30.124C223.093 30.716 222.997 31.244 222.997 31.708C222.997 32.332 223.213 32.644 223.645 32.644C224.013 32.644 224.413 32.476 224.845 32.14C225.277 31.788 225.717 31.348 226.165 30.82C226.629 30.276 227.069 29.716 227.485 29.14C227.901 28.564 228.269 28.036 228.589 27.556C228.653 27.46 228.693 27.412 228.709 27.412C228.805 27.428 228.925 27.46 229.069 27.508C229.229 27.556 229.365 27.62 229.477 27.7C229.589 27.78 229.645 27.884 229.645 28.012C229.645 28.156 229.573 28.356 229.429 28.612C229.285 28.852 229.125 29.132 228.949 29.452C228.773 29.772 228.613 30.1 228.469 30.436C228.325 30.756 228.253 31.06 228.253 31.348C228.253 31.588 228.317 31.828 228.445 32.068C228.573 32.292 228.781 32.404 229.069 32.404C229.501 32.404 230.069 32.092 230.773 31.468C231.477 30.828 232.189 29.876 232.909 28.612L233.149 28.852C232.813 29.716 232.381 30.476 231.853 31.132C231.325 31.788 230.757 32.3 230.149 32.668C229.557 33.036 228.973 33.22 228.397 33.22C227.805 33.22 227.365 33.044 227.077 32.692C226.805 32.34 226.669 31.956 226.669 31.54C226.669 31.444 226.677 31.34 226.693 31.228C226.709 31.1 226.725 30.972 226.741 30.844C226.053 31.772 225.421 32.468 224.845 32.932C224.285 33.396 223.709 33.628 223.117 33.628ZM241.172 33.724C240.42 33.724 239.82 33.556 239.372 33.22C238.94 32.9 238.636 32.5 238.46 32.02C238.268 31.54 238.172 31.06 238.172 30.58C238.172 30.1 238.236 29.732 238.364 29.476C238.492 29.22 238.644 29.028 238.82 28.9C239.012 28.772 239.188 28.676 239.348 28.612C239.524 28.548 239.644 28.484 239.708 28.42C240.188 27.892 240.628 27.34 241.028 26.764C241.428 26.188 241.78 25.58 242.084 24.94V24.652C242.084 24.06 242.18 23.644 242.372 23.404C242.58 23.148 242.796 23.02 243.02 23.02C243.148 23.02 243.244 23.052 243.308 23.116C243.372 23.18 243.404 23.252 243.404 23.332C243.404 23.412 243.38 23.54 243.332 23.716C243.284 23.892 243.26 24.116 243.26 24.388C243.26 24.916 243.364 25.492 243.572 26.116C243.78 26.724 243.988 27.372 244.196 28.06C244.404 28.732 244.508 29.436 244.508 30.172C244.508 30.38 244.492 30.588 244.46 30.796C244.444 30.988 244.412 31.172 244.364 31.348C244.924 31.252 245.452 31.004 245.948 30.604C246.444 30.188 246.924 29.532 247.388 28.636L247.604 28.876C247.3 29.756 246.844 30.428 246.236 30.892C245.628 31.34 244.964 31.62 244.244 31.732C243.988 32.42 243.58 32.924 243.02 33.244C242.476 33.564 241.86 33.724 241.172 33.724ZM241.22 32.884C241.412 32.884 241.668 32.82 241.988 32.692C242.308 32.564 242.556 32.236 242.732 31.708C242.06 31.58 241.46 31.316 240.932 30.916C240.42 30.516 240.036 30.116 239.78 29.716C239.428 29.732 239.252 30.012 239.252 30.556C239.252 31.132 239.42 31.668 239.756 32.164C240.108 32.644 240.596 32.884 241.22 32.884ZM242.852 31.324C242.884 31.164 242.908 30.996 242.924 30.82C242.94 30.644 242.948 30.436 242.948 30.196C242.948 29.444 242.852 28.7 242.66 27.964C242.484 27.212 242.332 26.508 242.204 25.852C241.836 26.46 241.444 27.044 241.028 27.604C240.628 28.148 240.244 28.604 239.876 28.972C240.116 29.484 240.484 29.964 240.98 30.412C241.492 30.86 242.116 31.164 242.852 31.324ZM249.518 33.556C248.542 33.556 247.806 33.284 247.31 32.74C246.83 32.212 246.59 31.556 246.59 30.772C246.59 30.052 246.766 29.292 247.118 28.492C247.486 27.692 247.966 26.94 248.558 26.236C249.166 25.532 249.83 24.964 250.55 24.532C251.27 24.084 251.982 23.86 252.686 23.86C253.054 23.86 253.39 23.956 253.694 24.148C254.014 24.34 254.174 24.732 254.174 25.324C254.174 25.932 253.99 26.508 253.622 27.052C253.27 27.58 252.798 28.052 252.206 28.468C251.63 28.884 250.99 29.228 250.286 29.5C249.598 29.756 248.91 29.916 248.222 29.98C248.19 30.14 248.166 30.292 248.15 30.436C248.134 30.58 248.126 30.716 248.126 30.844C248.126 31.084 248.15 31.324 248.198 31.564C248.262 31.804 248.366 32.028 248.51 32.236C248.654 32.428 248.846 32.58 249.086 32.692C249.342 32.804 249.654 32.86 250.022 32.86C250.71 32.86 251.39 32.668 252.062 32.284C252.734 31.884 253.358 31.364 253.934 30.724C254.51 30.084 254.998 29.38 255.398 28.612L255.686 28.828C255.254 29.788 254.702 30.62 254.03 31.324C253.374 32.028 252.654 32.572 251.87 32.956C251.102 33.356 250.318 33.556 249.518 33.556ZM248.342 29.524C248.774 29.38 249.262 29.172 249.806 28.9C250.35 28.612 250.87 28.276 251.366 27.892C251.878 27.508 252.294 27.084 252.614 26.62C252.95 26.156 253.118 25.668 253.118 25.156C253.118 24.98 253.086 24.844 253.022 24.748C252.958 24.652 252.822 24.604 252.614 24.604C252.23 24.604 251.822 24.756 251.39 25.06C250.958 25.348 250.542 25.732 250.142 26.212C249.742 26.692 249.382 27.22 249.062 27.796C248.742 28.372 248.502 28.948 248.342 29.524ZM259.07 33.124C258.526 33.124 258.094 32.98 257.774 32.692C257.47 32.404 257.318 32.028 257.318 31.564C257.318 31.084 257.43 30.58 257.654 30.052C257.878 29.524 258.094 29.004 258.302 28.492C258.526 27.964 258.638 27.492 258.638 27.076C258.638 26.564 258.486 26.188 258.182 25.948C257.894 25.692 257.598 25.46 257.294 25.252C256.926 26.196 256.542 27.092 256.142 27.94C255.742 28.788 255.414 29.428 255.158 29.86L254.942 29.452C255.166 29.036 255.454 28.428 255.806 27.628C256.174 26.828 256.534 25.916 256.886 24.892C256.726 24.732 256.646 24.54 256.646 24.316C256.646 23.836 256.782 23.444 257.054 23.14C257.326 22.836 257.526 22.684 257.654 22.684C257.83 22.684 257.926 22.764 257.942 22.924C257.974 23.068 257.99 23.18 257.99 23.26C257.99 23.34 257.942 23.5 257.846 23.74C257.766 23.964 257.726 24.1 257.726 24.148C257.726 24.372 257.846 24.58 258.086 24.772C258.342 24.948 258.63 25.156 258.95 25.396C259.27 25.62 259.55 25.9 259.79 26.236C260.046 26.556 260.174 26.972 260.174 27.484C260.174 27.964 260.07 28.452 259.862 28.948C259.67 29.444 259.47 29.916 259.262 30.364C259.07 30.812 258.974 31.204 258.974 31.54C258.974 31.828 259.046 32.02 259.19 32.116C259.334 32.212 259.502 32.26 259.694 32.26C260.078 32.26 260.47 32.14 260.87 31.9C261.286 31.66 261.686 31.356 262.07 30.988C262.454 30.62 262.798 30.236 263.102 29.836C263.406 29.42 263.63 29.036 263.774 28.684L264.086 28.924C263.782 29.596 263.366 30.26 262.838 30.916C262.31 31.556 261.718 32.084 261.062 32.5C260.422 32.916 259.758 33.124 259.07 33.124ZM126.297 68.22C126.137 68.22 125.953 68.164 125.745 68.052C125.537 67.956 125.361 67.756 125.217 67.452C125.057 67.148 124.977 66.7 124.977 66.108C124.977 65.404 125.097 64.484 125.337 63.348C125.577 62.228 125.905 60.988 126.321 59.628C126.737 58.268 127.217 56.876 127.761 55.452C128.305 54.012 128.889 52.628 129.513 51.3C130.153 49.956 130.801 48.756 131.457 47.7C132.129 46.628 132.785 45.78 133.425 45.156C134.065 44.532 134.673 44.22 135.249 44.22C135.585 44.22 135.801 44.324 135.897 44.532C136.009 44.74 136.065 44.988 136.065 45.276C136.065 45.964 135.873 46.716 135.489 47.532C135.121 48.348 134.625 49.172 134.001 50.004C133.377 50.82 132.689 51.604 131.937 52.356C131.185 53.092 130.425 53.724 129.657 54.252C129.577 54.444 129.497 54.644 129.417 54.852C129.353 55.044 129.281 55.244 129.201 55.452C129.377 55.484 129.513 55.58 129.609 55.74C129.721 55.884 129.785 56.044 129.801 56.22C129.913 56.94 130.033 57.588 130.161 58.164C130.289 58.724 130.481 59.164 130.737 59.484C131.009 59.804 131.393 59.964 131.889 59.964C132.449 59.964 132.921 59.764 133.305 59.364C133.689 58.948 134.105 58.364 134.553 57.612L134.913 57.852C134.513 58.812 134.001 59.508 133.377 59.94C132.769 60.372 132.233 60.588 131.769 60.588C131.481 60.588 131.177 60.516 130.857 60.372C130.553 60.228 130.265 60.036 129.993 59.796C129.993 60.804 129.881 61.804 129.657 62.796C129.449 63.788 129.169 64.692 128.817 65.508C128.465 66.324 128.073 66.98 127.641 67.476C127.209 67.972 126.761 68.22 126.297 68.22ZM126.921 67.068C127.097 67.068 127.297 66.908 127.521 66.588C127.745 66.268 127.961 65.844 128.169 65.316C128.393 64.804 128.593 64.236 128.769 63.612C128.945 62.988 129.089 62.364 129.201 61.74C129.313 61.116 129.369 60.556 129.369 60.06C129.369 59.564 129.305 59.116 129.177 58.716C129.049 58.3 128.841 57.812 128.553 57.252C128.153 58.452 127.793 59.612 127.473 60.732C127.153 61.852 126.905 62.86 126.729 63.756C126.553 64.652 126.465 65.372 126.465 65.916C126.465 66.684 126.617 67.068 126.921 67.068ZM130.041 53.268C131.081 52.308 131.977 51.348 132.729 50.388C133.497 49.412 134.089 48.548 134.505 47.796C134.921 47.028 135.129 46.484 135.129 46.164C135.129 45.94 135.017 45.828 134.793 45.828C134.377 45.828 133.905 46.172 133.377 46.86C132.849 47.532 132.297 48.428 131.721 49.548C131.145 50.668 130.585 51.908 130.041 53.268ZM136.678 62.556C135.702 62.556 134.966 62.284 134.47 61.74C133.99 61.212 133.75 60.556 133.75 59.772C133.75 59.052 133.926 58.292 134.278 57.492C134.646 56.692 135.126 55.94 135.718 55.236C136.326 54.532 136.99 53.964 137.71 53.532C138.43 53.084 139.142 52.86 139.846 52.86C140.214 52.86 140.55 52.956 140.854 53.148C141.174 53.34 141.334 53.732 141.334 54.324C141.334 54.932 141.15 55.508 140.782 56.052C140.43 56.58 139.958 57.052 139.366 57.468C138.79 57.884 138.15 58.228 137.446 58.5C136.758 58.756 136.07 58.916 135.382 58.98C135.35 59.14 135.326 59.292 135.31 59.436C135.294 59.58 135.286 59.716 135.286 59.844C135.286 60.084 135.31 60.324 135.358 60.564C135.422 60.804 135.526 61.028 135.67 61.236C135.814 61.428 136.006 61.58 136.246 61.692C136.502 61.804 136.814 61.86 137.182 61.86C137.87 61.86 138.55 61.668 139.222 61.284C139.894 60.884 140.518 60.364 141.094 59.724C141.67 59.084 142.158 58.38 142.558 57.612L142.846 57.828C142.414 58.788 141.862 59.62 141.19 60.324C140.534 61.028 139.814 61.572 139.03 61.956C138.262 62.356 137.478 62.556 136.678 62.556ZM135.502 58.524C135.934 58.38 136.422 58.172 136.966 57.9C137.51 57.612 138.03 57.276 138.526 56.892C139.038 56.508 139.454 56.084 139.774 55.62C140.11 55.156 140.278 54.668 140.278 54.156C140.278 53.98 140.246 53.844 140.182 53.748C140.118 53.652 139.982 53.604 139.774 53.604C139.39 53.604 138.982 53.756 138.55 54.06C138.118 54.348 137.702 54.732 137.302 55.212C136.902 55.692 136.542 56.22 136.222 56.796C135.902 57.372 135.662 57.948 135.502 58.524ZM144.07 62.22C143.382 62.22 142.886 61.98 142.582 61.5C142.294 61.036 142.15 60.452 142.15 59.748C142.15 58.98 142.294 58.068 142.582 57.012C142.87 55.956 143.246 54.844 143.71 53.676C144.19 52.508 144.71 51.372 145.27 50.268C145.83 49.148 146.39 48.132 146.95 47.22C147.51 46.308 148.022 45.58 148.486 45.036C148.966 44.492 149.342 44.22 149.614 44.22C149.79 44.22 149.934 44.324 150.046 44.532C150.158 44.724 150.246 44.964 150.31 45.252C150.374 45.524 150.406 45.772 150.406 45.996C150.406 46.428 150.294 46.996 150.07 47.7C149.862 48.388 149.558 49.164 149.158 50.028C148.774 50.876 148.31 51.74 147.766 52.62C147.238 53.484 146.654 54.316 146.014 55.116C145.39 55.916 144.726 56.604 144.022 57.18C143.926 57.612 143.846 58.036 143.782 58.452C143.734 58.852 143.71 59.236 143.71 59.604C143.71 60.228 143.798 60.692 143.974 60.996C144.15 61.3 144.414 61.452 144.766 61.452C145.198 61.452 145.622 61.26 146.038 60.876C146.47 60.492 146.87 60.012 147.238 59.436C147.622 58.844 147.95 58.236 148.222 57.612L148.582 57.804C147.942 59.164 147.246 60.244 146.494 61.044C145.742 61.828 144.934 62.22 144.07 62.22ZM144.238 56.364C144.798 55.804 145.342 55.164 145.87 54.444C146.398 53.708 146.886 52.948 147.334 52.164C147.798 51.38 148.206 50.62 148.558 49.884C148.91 49.148 149.182 48.492 149.374 47.916C149.566 47.324 149.662 46.868 149.662 46.548C149.662 46.388 149.638 46.284 149.59 46.236C149.558 46.188 149.526 46.164 149.494 46.164C149.366 46.164 149.142 46.372 148.822 46.788C148.518 47.188 148.158 47.732 147.742 48.42C147.326 49.108 146.902 49.892 146.47 50.772C146.038 51.652 145.622 52.572 145.222 53.532C144.838 54.492 144.51 55.436 144.238 56.364ZM149.478 62.124C148.854 62.124 148.39 61.924 148.086 61.524C147.782 61.14 147.63 60.668 147.63 60.108C147.63 59.74 147.694 59.276 147.822 58.716C147.966 58.156 148.15 57.572 148.374 56.964C148.598 56.34 148.854 55.756 149.142 55.212C149.446 54.668 149.766 54.228 150.102 53.892C150.438 53.54 150.766 53.364 151.086 53.364C151.23 53.364 151.35 53.412 151.446 53.508C151.558 53.588 151.614 53.716 151.614 53.892C151.614 54.084 151.486 54.396 151.23 54.828C150.99 55.26 150.702 55.756 150.366 56.316C150.03 56.876 149.734 57.468 149.478 58.092C149.238 58.7 149.118 59.284 149.118 59.844C149.118 60.42 149.214 60.804 149.406 60.996C149.598 61.188 149.894 61.284 150.294 61.284C150.838 61.284 151.414 61.012 152.022 60.468C152.646 59.924 153.302 58.972 153.99 57.612L154.206 57.852C153.742 59.228 153.07 60.284 152.19 61.02C151.326 61.756 150.422 62.124 149.478 62.124ZM152.358 51.132C152.102 51.132 151.87 51.068 151.662 50.94C151.47 50.812 151.374 50.612 151.374 50.34C151.374 50.004 151.566 49.716 151.95 49.476C152.35 49.22 152.742 49.092 153.126 49.092C153.366 49.092 153.558 49.148 153.702 49.26C153.846 49.372 153.918 49.564 153.918 49.836C153.918 50.14 153.75 50.436 153.414 50.724C153.094 50.996 152.742 51.132 152.358 51.132ZM153.419 68.22C152.923 68.22 152.539 68.124 152.267 67.932C151.979 67.756 151.835 67.444 151.835 66.996C151.835 66.484 152.011 66.004 152.363 65.556C152.699 65.124 153.155 64.708 153.731 64.308C154.307 63.908 154.939 63.5 155.627 63.084C156.331 62.684 157.027 62.252 157.715 61.788C157.715 61.212 157.595 60.684 157.355 60.204C157.115 59.724 156.683 59.236 156.059 58.74C156.619 58.58 157.091 58.3 157.475 57.9C157.875 57.5 158.171 57.06 158.363 56.58C158.571 56.084 158.675 55.628 158.675 55.212C158.675 54.844 158.595 54.54 158.435 54.3C158.291 54.06 158.059 53.94 157.739 53.94C157.211 53.94 156.739 54.14 156.323 54.54C155.907 54.94 155.523 55.468 155.171 56.124C154.819 56.78 154.459 57.5 154.091 58.284L153.803 58.044C154.155 57.084 154.515 56.228 154.883 55.476C155.267 54.724 155.715 54.132 156.227 53.7C156.739 53.252 157.355 53.028 158.075 53.028C158.619 53.028 159.083 53.204 159.467 53.556C159.867 53.908 160.067 54.388 160.067 54.996C160.067 55.572 159.931 56.108 159.659 56.604C159.387 57.1 159.035 57.54 158.603 57.924C158.171 58.292 157.715 58.596 157.235 58.836C157.651 59.156 157.995 59.5 158.267 59.868C158.555 60.22 158.771 60.596 158.915 60.996C159.523 60.532 160.059 60.028 160.523 59.484C161.003 58.924 161.355 58.3 161.579 57.612L161.843 57.9C161.619 58.62 161.259 59.276 160.763 59.868C160.267 60.444 159.699 60.972 159.059 61.452C159.091 61.564 159.115 61.692 159.131 61.836C159.147 61.98 159.155 62.116 159.155 62.244C159.155 62.964 158.995 63.676 158.675 64.38C158.355 65.1 157.923 65.748 157.379 66.324C156.835 66.9 156.219 67.356 155.531 67.692C154.859 68.044 154.155 68.22 153.419 68.22ZM153.251 67.524C153.539 67.524 153.915 67.404 154.379 67.164C154.843 66.94 155.315 66.604 155.795 66.156C156.275 65.724 156.691 65.188 157.043 64.548C157.395 63.908 157.611 63.172 157.691 62.34C157.051 62.74 156.419 63.116 155.795 63.468C155.187 63.836 154.635 64.188 154.139 64.524C153.643 64.876 153.251 65.228 152.963 65.58C152.659 65.948 152.507 66.332 152.507 66.732C152.507 67.004 152.579 67.204 152.723 67.332C152.867 67.46 153.043 67.524 153.251 67.524ZM163.388 54.516C163.66 53.844 163.964 53.068 164.3 52.188C164.636 51.292 164.996 50.38 165.38 49.452C165.764 48.524 166.148 47.668 166.532 46.884C166.932 46.084 167.316 45.444 167.684 44.964C168.052 44.468 168.388 44.22 168.692 44.22C168.82 44.22 168.932 44.276 169.028 44.388C169.124 44.484 169.172 44.612 169.172 44.772C169.172 44.996 169.052 45.412 168.812 46.02C168.588 46.612 168.276 47.34 167.876 48.204C167.492 49.052 167.052 49.964 166.556 50.94C166.076 51.916 165.572 52.908 165.044 53.916C164.516 54.908 163.996 55.852 163.484 56.748C162.988 57.628 162.532 58.396 162.116 59.052C162.1 59.036 162.084 59.028 162.068 59.028C162.068 59.012 162.06 58.996 162.044 58.98C162.204 58.26 162.364 57.604 162.524 57.012C162.7 56.42 162.868 55.916 163.028 55.5C163.188 55.068 163.308 54.74 163.388 54.516ZM161.42 61.74C161.212 61.74 161.036 61.684 160.892 61.572C160.732 61.476 160.652 61.316 160.652 61.092C160.652 60.82 160.812 60.588 161.132 60.396C161.436 60.204 161.74 60.108 162.044 60.108C162.236 60.108 162.388 60.148 162.5 60.228C162.612 60.308 162.668 60.46 162.668 60.684C162.668 60.924 162.54 61.164 162.284 61.404C162.028 61.628 161.74 61.74 161.42 61.74Z" fill="black"/>
</g>
<defs>
<filter id="filter0_d_105_3" x="0.5" y="0.5" width="297" height="82" filterUnits="userSpaceOnUse" color-interpolation-filters="sRGB">
<feFlood flood-opacity="0" result="BackgroundImageFix"/>
<feColorMatrix in="SourceAlpha" type="matrix" values="0 0 0 0 0 0 0 0 0 0 0 0 0 0 0 0 0 0 127 0" result="hardAlpha"/>
<feOffset dx="2" dy="2"/>
<feGaussianBlur stdDeviation="1"/>
<feComposite in2="hardAlpha" operator="out"/>
<feColorMatrix type="matrix" values="0 0 0 0 0.333333 0 0 0 0 0.333333 0 0 0 0 0.333333 0 0 0 0.5 0"/>
<feBlend mode="normal" in2="BackgroundImageFix" result="effect1_dropShadow_105_3"/>
<feBlend mode="normal" in="SourceGraphic" in2="effect1_dropShadow_105_3" result="shape"/>
</filter>
</defs>
</svg>
