<svg width="298" height="83" viewBox="0 0 298 83" fill="none" xmlns="http://www.w3.org/2000/svg">
<g filter="url(#filter0_d_105_3)">
<rect width="293" height="78" transform="translate(0.5 0.5)" fill="#E4EDF1"/>
<path d="M39.7528 34.588C38.8728 34.588 38.2088 34.436 37.7608 34.132C37.3128 33.844 37.0888 33.356 37.0888 32.668C37.0888 32.62 37.1288 32.596 37.2088 32.596C37.3208 32.596 37.5208 32.636 37.8088 32.716C38.0968 32.796 38.6488 32.836 39.4648 32.836C40.8408 32.836 42.1128 32.684 43.2808 32.38C44.4488 32.06 45.4568 31.628 46.3048 31.084C47.1688 30.54 47.8328 29.932 48.2968 29.26C48.7768 28.572 49.0168 27.868 49.0168 27.148C49.0168 26.492 48.8328 25.964 48.4648 25.564C48.0968 25.164 47.6088 24.86 47.0008 24.652C46.4088 24.444 45.7608 24.308 45.0568 24.244C44.3528 24.164 43.6568 24.124 42.9688 24.124C42.6648 24.124 42.3528 24.132 42.0328 24.148C41.7288 24.148 41.4408 24.148 41.1688 24.148C40.8008 25.444 40.4408 26.748 40.0888 28.06C39.7368 29.372 39.3768 30.644 39.0088 31.876C38.6088 31.876 38.2728 31.764 38.0008 31.54C37.7288 31.316 37.5928 31.044 37.5928 30.724C37.5928 30.532 37.6328 30.308 37.7128 30.052C37.7928 29.796 37.8648 29.564 37.9288 29.356C38.0248 29.036 38.1928 28.5 38.4328 27.748C38.6728 26.996 38.9608 26.116 39.2968 25.108C39.6488 24.1 40.0328 23.044 40.4488 21.94C40.8648 20.836 41.2888 19.756 41.7208 18.7C42.1688 17.644 42.6008 16.708 43.0168 15.892C42.3448 16.004 41.7768 16.164 41.3128 16.372C40.8648 16.58 40.5128 16.772 40.2568 16.948C40.0008 17.108 39.8168 17.188 39.7048 17.188C39.6248 17.188 39.5208 17.156 39.3928 17.092C39.2808 17.012 39.1768 16.924 39.0808 16.828C38.9848 16.716 38.9368 16.62 38.9368 16.54C39.7368 16.204 40.5688 15.9 41.4328 15.628C42.3128 15.356 43.3768 15.22 44.6248 15.22C45.1528 15.22 45.7368 15.268 46.3768 15.364C47.0168 15.444 47.6248 15.62 48.2008 15.892C48.7768 16.148 49.2488 16.532 49.6168 17.044C49.9848 17.54 50.1688 18.204 50.1688 19.036C50.1688 19.82 50.0008 20.492 49.6648 21.052C49.3288 21.596 48.8888 22.052 48.3448 22.42C47.8008 22.772 47.2088 23.052 46.5688 23.26C45.9288 23.468 45.2968 23.62 44.6728 23.716C45.8568 23.78 46.8088 23.948 47.5288 24.22C48.2648 24.492 48.8168 24.82 49.1848 25.204C49.5688 25.572 49.8248 25.964 49.9528 26.38C50.0808 26.796 50.1448 27.196 50.1448 27.58C50.1448 28.508 49.9048 29.348 49.4248 30.1C48.9448 30.852 48.3128 31.508 47.5288 32.068C46.7448 32.628 45.8888 33.092 44.9608 33.46C44.0328 33.844 43.1128 34.124 42.2008 34.3C41.2888 34.492 40.4728 34.588 39.7528 34.588ZM41.3128 23.596C42.1928 23.564 43.0648 23.468 43.9288 23.308C44.8088 23.132 45.6088 22.86 46.3288 22.492C47.0488 22.124 47.6248 21.644 48.0568 21.052C48.5048 20.46 48.7288 19.724 48.7288 18.844C48.7288 18.012 48.5288 17.372 48.1288 16.924C47.7448 16.476 47.2408 16.164 46.6168 15.988C46.0088 15.812 45.3608 15.724 44.6728 15.724C44.5928 15.724 44.5128 15.724 44.4328 15.724C44.3688 15.724 44.2968 15.732 44.2168 15.748C43.6408 16.868 43.1128 18.1 42.6328 19.444C42.1688 20.788 41.7288 22.172 41.3128 23.596ZM52.8904 33.268C52.2024 33.268 51.7144 33.052 51.4264 32.62C51.1384 32.204 50.9944 31.692 50.9944 31.084C50.9944 30.588 51.0744 30.076 51.2344 29.548C51.3944 29.02 51.6024 28.524 51.8584 28.06C52.1304 27.596 52.4264 27.22 52.7464 26.932C53.0824 26.644 53.4184 26.5 53.7544 26.5C53.8344 26.5 53.9144 26.516 53.9944 26.548C54.0904 26.564 54.1784 26.588 54.2584 26.62C54.1144 26.748 53.9384 26.988 53.7304 27.34C53.5384 27.676 53.3544 28.068 53.1784 28.516C53.0024 28.948 52.8504 29.38 52.7224 29.812C52.6104 30.244 52.5544 30.612 52.5544 30.916C52.5544 31.396 52.6344 31.748 52.7944 31.972C52.9544 32.18 53.1624 32.284 53.4184 32.284C53.7544 32.284 54.1544 32.108 54.6184 31.756C55.0824 31.388 55.5384 30.924 55.9864 30.364C55.5384 29.996 55.1864 29.516 54.9304 28.924C54.6904 28.316 54.5704 27.7 54.5704 27.076C54.5704 26.548 54.6584 26.052 54.8344 25.588C55.0264 25.124 55.2984 24.756 55.6504 24.484C56.0024 24.196 56.4264 24.052 56.9224 24.052C57.5784 24.052 58.0184 24.228 58.2424 24.58C58.4664 24.932 58.5784 25.372 58.5784 25.9C58.5784 26.524 58.4264 27.22 58.1224 27.988C57.8184 28.74 57.4344 29.468 56.9704 30.172C57.2584 30.332 57.5624 30.412 57.8824 30.412C58.1384 30.412 58.4264 30.364 58.7464 30.268C59.0664 30.156 59.3784 29.972 59.6824 29.716C60.0024 29.46 60.2584 29.116 60.4504 28.684L60.7384 28.924C60.4184 29.676 59.9624 30.212 59.3704 30.532C58.7944 30.836 58.2424 30.988 57.7144 30.988C57.5064 30.988 57.3064 30.972 57.1144 30.94C56.9224 30.892 56.7384 30.828 56.5624 30.748C56.0184 31.468 55.4184 32.068 54.7624 32.548C54.1224 33.028 53.4984 33.268 52.8904 33.268ZM56.4184 29.74C56.8184 29.148 57.1464 28.532 57.4024 27.892C57.6744 27.236 57.8104 26.62 57.8104 26.044C57.8104 25.58 57.7384 25.244 57.5944 25.036C57.4664 24.812 57.2984 24.7 57.0904 24.7C56.7704 24.7 56.4424 24.932 56.1064 25.396C55.7704 25.86 55.6024 26.444 55.6024 27.148C55.6024 27.612 55.6664 28.084 55.7944 28.564C55.9384 29.028 56.1464 29.42 56.4184 29.74ZM67.752 32.98C67.192 32.98 66.768 32.836 66.48 32.548C66.208 32.26 66.072 31.892 66.072 31.444C66.072 31.108 66.128 30.756 66.24 30.388C66.368 30.02 66.488 29.644 66.6 29.26C66.712 28.86 66.768 28.476 66.768 28.108C66.768 27.66 66.672 27.356 66.48 27.196C66.304 27.02 66.08 26.932 65.808 26.932C65.312 26.932 64.808 27.14 64.296 27.556C63.784 27.956 63.288 28.476 62.808 29.116C62.328 29.74 61.88 30.388 61.464 31.06C61.048 31.732 60.68 32.332 60.36 32.86C60.104 32.86 59.864 32.812 59.64 32.716C59.4 32.636 59.216 32.508 59.088 32.332C59.088 32.252 59.176 32.004 59.352 31.588C59.512 31.172 59.704 30.66 59.928 30.052C60.152 29.444 60.352 28.82 60.528 28.18C60.704 27.54 60.792 26.956 60.792 26.428C60.888 26.316 61.04 26.204 61.248 26.092C61.456 25.98 61.672 25.924 61.896 25.924C62.328 25.924 62.544 26.132 62.544 26.548C62.544 26.804 62.472 27.236 62.328 27.844C62.184 28.436 62 29.06 61.776 29.716C62.208 29.06 62.688 28.412 63.216 27.772C63.76 27.116 64.336 26.572 64.944 26.14C65.552 25.708 66.16 25.492 66.768 25.492C67.392 25.492 67.84 25.716 68.112 26.164C68.4 26.612 68.544 27.108 68.544 27.652C68.544 28.148 68.464 28.612 68.304 29.044C68.144 29.46 67.976 29.868 67.8 30.268C67.64 30.652 67.56 31.044 67.56 31.444C67.56 31.78 67.624 32.02 67.752 32.164C67.896 32.292 68.072 32.356 68.28 32.356C68.68 32.356 69.08 32.172 69.48 31.804C69.88 31.42 70.264 30.94 70.632 30.364C71.016 29.788 71.352 29.204 71.64 28.612L71.904 28.924C71.568 29.708 71.192 30.404 70.776 31.012C70.36 31.62 69.904 32.1 69.408 32.452C68.912 32.804 68.36 32.98 67.752 32.98ZM73.6997 33.724C72.9477 33.724 72.3477 33.556 71.8997 33.22C71.4677 32.9 71.1637 32.5 70.9877 32.02C70.7957 31.54 70.6997 31.06 70.6997 30.58C70.6997 30.1 70.7637 29.732 70.8917 29.476C71.0197 29.22 71.1717 29.028 71.3477 28.9C71.5397 28.772 71.7157 28.676 71.8757 28.612C72.0517 28.548 72.1717 28.484 72.2357 28.42C72.7157 27.892 73.1557 27.34 73.5557 26.764C73.9557 26.188 74.3077 25.58 74.6117 24.94V24.652C74.6117 24.06 74.7077 23.644 74.8997 23.404C75.1077 23.148 75.3237 23.02 75.5477 23.02C75.6757 23.02 75.7717 23.052 75.8357 23.116C75.8997 23.18 75.9317 23.252 75.9317 23.332C75.9317 23.412 75.9077 23.54 75.8597 23.716C75.8117 23.892 75.7877 24.116 75.7877 24.388C75.7877 24.916 75.8917 25.492 76.0997 26.116C76.3077 26.724 76.5157 27.372 76.7237 28.06C76.9317 28.732 77.0357 29.436 77.0357 30.172C77.0357 30.38 77.0197 30.588 76.9877 30.796C76.9717 30.988 76.9397 31.172 76.8917 31.348C77.4517 31.252 77.9797 31.004 78.4757 30.604C78.9717 30.188 79.4517 29.532 79.9157 28.636L80.1317 28.876C79.8277 29.756 79.3717 30.428 78.7637 30.892C78.1557 31.34 77.4917 31.62 76.7717 31.732C76.5157 32.42 76.1077 32.924 75.5477 33.244C75.0037 33.564 74.3877 33.724 73.6997 33.724ZM73.7477 32.884C73.9397 32.884 74.1957 32.82 74.5157 32.692C74.8357 32.564 75.0837 32.236 75.2597 31.708C74.5877 31.58 73.9877 31.316 73.4597 30.916C72.9477 30.516 72.5637 30.116 72.3077 29.716C71.9557 29.732 71.7797 30.012 71.7797 30.556C71.7797 31.132 71.9477 31.668 72.2837 32.164C72.6357 32.644 73.1237 32.884 73.7477 32.884ZM75.3797 31.324C75.4117 31.164 75.4357 30.996 75.4517 30.82C75.4677 30.644 75.4757 30.436 75.4757 30.196C75.4757 29.444 75.3797 28.7 75.1877 27.964C75.0117 27.212 74.8597 26.508 74.7317 25.852C74.3637 26.46 73.9717 27.044 73.5557 27.604C73.1557 28.148 72.7717 28.604 72.4037 28.972C72.6437 29.484 73.0117 29.964 73.5077 30.412C74.0197 30.86 74.6437 31.164 75.3797 31.324ZM84.1755 39.22C84.0475 39.22 83.9275 39.148 83.8155 39.004C83.6875 38.876 83.5915 38.732 83.5275 38.572C83.4635 38.428 83.4315 38.34 83.4315 38.308C83.6555 37.524 83.8795 36.82 84.1035 36.196C84.3115 35.588 84.5275 34.956 84.7515 34.3C84.9595 33.66 85.1675 32.908 85.3755 32.044C85.5835 31.164 85.7995 30.076 86.0235 28.78C86.2475 27.484 86.4715 25.876 86.6955 23.956C86.7115 23.812 86.7435 23.708 86.7915 23.644C86.8395 23.58 86.9595 23.548 87.1515 23.548C87.5675 23.548 87.8635 23.668 88.0395 23.908C88.2155 24.132 88.3035 24.38 88.3035 24.652C88.3035 24.876 88.2555 25.276 88.1595 25.852C88.0635 26.428 87.9275 27.108 87.7515 27.892C88.0235 27.364 88.3595 26.828 88.7595 26.284C89.1755 25.74 89.6475 25.284 90.1755 24.916C90.7035 24.548 91.2795 24.364 91.9035 24.364C92.6075 24.364 93.1835 24.62 93.6315 25.132C94.0955 25.628 94.3275 26.284 94.3275 27.1C94.3275 27.724 94.1835 28.388 93.8955 29.092C93.6235 29.78 93.2315 30.436 92.7195 31.06C92.2235 31.668 91.6315 32.164 90.9435 32.548C90.2555 32.932 89.4955 33.124 88.6635 33.124C88.2475 33.124 87.9115 33.076 87.6555 32.98C87.3995 32.884 87.2715 32.788 87.2715 32.692C87.2715 32.628 87.3275 32.588 87.4395 32.572C87.5675 32.572 87.7115 32.572 87.8715 32.572C88.5115 32.572 89.1195 32.42 89.6955 32.116C90.2875 31.796 90.8155 31.38 91.2795 30.868C91.7435 30.356 92.1035 29.788 92.3595 29.164C92.6315 28.54 92.7675 27.924 92.7675 27.316C92.7675 26.804 92.6555 26.372 92.4315 26.02C92.2235 25.652 91.8795 25.468 91.3995 25.468C90.9835 25.468 90.5675 25.604 90.1515 25.876C89.7515 26.132 89.3675 26.468 88.9995 26.884C88.6475 27.284 88.3275 27.708 88.0395 28.156C87.7675 28.588 87.5595 28.98 87.4155 29.332C87.1275 30.532 86.8395 31.684 86.5515 32.788C86.2635 33.908 85.9835 34.916 85.7115 35.812C85.4555 36.724 85.2235 37.468 85.0155 38.044C84.7915 38.62 84.6075 38.972 84.4635 39.1C84.3835 39.18 84.2875 39.22 84.1755 39.22ZM97.6545 33.556C96.6785 33.556 95.9425 33.284 95.4465 32.74C94.9665 32.212 94.7265 31.556 94.7265 30.772C94.7265 30.052 94.9025 29.292 95.2545 28.492C95.6225 27.692 96.1025 26.94 96.6945 26.236C97.3025 25.532 97.9665 24.964 98.6865 24.532C99.4065 24.084 100.119 23.86 100.823 23.86C101.191 23.86 101.527 23.956 101.831 24.148C102.151 24.34 102.311 24.732 102.311 25.324C102.311 25.932 102.127 26.508 101.759 27.052C101.407 27.58 100.935 28.052 100.343 28.468C99.7665 28.884 99.1265 29.228 98.4225 29.5C97.7345 29.756 97.0465 29.916 96.3585 29.98C96.3265 30.14 96.3025 30.292 96.2865 30.436C96.2705 30.58 96.2625 30.716 96.2625 30.844C96.2625 31.084 96.2865 31.324 96.3345 31.564C96.3985 31.804 96.5025 32.028 96.6465 32.236C96.7905 32.428 96.9825 32.58 97.2225 32.692C97.4785 32.804 97.7905 32.86 98.1585 32.86C98.8465 32.86 99.5265 32.668 100.199 32.284C100.871 31.884 101.495 31.364 102.071 30.724C102.647 30.084 103.135 29.38 103.535 28.612L103.823 28.828C103.391 29.788 102.839 30.62 102.167 31.324C101.511 32.028 100.791 32.572 100.007 32.956C99.2385 33.356 98.4545 33.556 97.6545 33.556ZM96.4785 29.524C96.9105 29.38 97.3985 29.172 97.9425 28.9C98.4865 28.612 99.0065 28.276 99.5025 27.892C100.015 27.508 100.431 27.084 100.751 26.62C101.087 26.156 101.255 25.668 101.255 25.156C101.255 24.98 101.223 24.844 101.159 24.748C101.095 24.652 100.959 24.604 100.751 24.604C100.367 24.604 99.9585 24.756 99.5265 25.06C99.0945 25.348 98.6785 25.732 98.2785 26.212C97.8785 26.692 97.5185 27.22 97.1985 27.796C96.8785 28.372 96.6385 28.948 96.4785 29.524ZM110.807 32.98C110.247 32.98 109.823 32.836 109.535 32.548C109.263 32.26 109.127 31.892 109.127 31.444C109.127 31.108 109.183 30.756 109.295 30.388C109.423 30.02 109.543 29.644 109.655 29.26C109.767 28.86 109.823 28.476 109.823 28.108C109.823 27.66 109.727 27.356 109.535 27.196C109.359 27.02 109.135 26.932 108.863 26.932C108.367 26.932 107.863 27.14 107.351 27.556C106.839 27.956 106.343 28.476 105.863 29.116C105.383 29.74 104.935 30.388 104.519 31.06C104.103 31.732 103.735 32.332 103.415 32.86C103.159 32.86 102.919 32.812 102.695 32.716C102.455 32.636 102.271 32.508 102.143 32.332C102.143 32.252 102.231 32.004 102.407 31.588C102.567 31.172 102.759 30.66 102.983 30.052C103.207 29.444 103.407 28.82 103.583 28.18C103.759 27.54 103.847 26.956 103.847 26.428C103.943 26.316 104.095 26.204 104.303 26.092C104.511 25.98 104.727 25.924 104.951 25.924C105.383 25.924 105.599 26.132 105.599 26.548C105.599 26.804 105.527 27.236 105.383 27.844C105.239 28.436 105.055 29.06 104.831 29.716C105.263 29.06 105.743 28.412 106.271 27.772C106.815 27.116 107.391 26.572 107.999 26.14C108.607 25.708 109.215 25.492 109.823 25.492C110.447 25.492 110.895 25.716 111.167 26.164C111.455 26.612 111.599 27.108 111.599 27.652C111.599 28.148 111.519 28.612 111.359 29.044C111.199 29.46 111.031 29.868 110.855 30.268C110.695 30.652 110.615 31.044 110.615 31.444C110.615 31.78 110.679 32.02 110.807 32.164C110.951 32.292 111.127 32.356 111.335 32.356C111.735 32.356 112.135 32.172 112.535 31.804C112.935 31.42 113.319 30.94 113.687 30.364C114.071 29.788 114.407 29.204 114.695 28.612L114.959 28.924C114.623 29.708 114.247 30.404 113.831 31.012C113.415 31.62 112.959 32.1 112.463 32.452C111.967 32.804 111.415 32.98 110.807 32.98ZM116.754 33.724C116.002 33.724 115.402 33.556 114.954 33.22C114.522 32.9 114.218 32.5 114.042 32.02C113.85 31.54 113.754 31.06 113.754 30.58C113.754 30.1 113.818 29.732 113.946 29.476C114.074 29.22 114.226 29.028 114.402 28.9C114.594 28.772 114.77 28.676 114.93 28.612C115.106 28.548 115.226 28.484 115.29 28.42C115.77 27.892 116.21 27.34 116.61 26.764C117.01 26.188 117.362 25.58 117.666 24.94V24.652C117.666 24.06 117.762 23.644 117.954 23.404C118.162 23.148 118.378 23.02 118.602 23.02C118.73 23.02 118.826 23.052 118.89 23.116C118.954 23.18 118.986 23.252 118.986 23.332C118.986 23.412 118.962 23.54 118.914 23.716C118.866 23.892 118.842 24.116 118.842 24.388C118.842 24.916 118.946 25.492 119.154 26.116C119.362 26.724 119.57 27.372 119.778 28.06C119.986 28.732 120.09 29.436 120.09 30.172C120.09 30.38 120.074 30.588 120.042 30.796C120.026 30.988 119.994 31.172 119.946 31.348C120.506 31.252 121.034 31.004 121.53 30.604C122.026 30.188 122.506 29.532 122.97 28.636L123.186 28.876C122.882 29.756 122.426 30.428 121.818 30.892C121.21 31.34 120.546 31.62 119.826 31.732C119.57 32.42 119.162 32.924 118.602 33.244C118.058 33.564 117.442 33.724 116.754 33.724ZM116.802 32.884C116.994 32.884 117.25 32.82 117.57 32.692C117.89 32.564 118.138 32.236 118.314 31.708C117.642 31.58 117.042 31.316 116.514 30.916C116.002 30.516 115.618 30.116 115.362 29.716C115.01 29.732 114.834 30.012 114.834 30.556C114.834 31.132 115.002 31.668 115.338 32.164C115.69 32.644 116.178 32.884 116.802 32.884ZM118.434 31.324C118.466 31.164 118.49 30.996 118.506 30.82C118.522 30.644 118.53 30.436 118.53 30.196C118.53 29.444 118.434 28.7 118.242 27.964C118.066 27.212 117.914 26.508 117.786 25.852C117.418 26.46 117.026 27.044 116.61 27.604C116.21 28.148 115.826 28.604 115.458 28.972C115.698 29.484 116.066 29.964 116.562 30.412C117.074 30.86 117.698 31.164 118.434 31.324ZM123.66 33.628C123.164 33.628 122.748 33.46 122.412 33.124C122.06 32.804 121.884 32.308 121.884 31.636C121.884 31.06 122.012 30.444 122.268 29.788C122.524 29.116 122.876 28.46 123.324 27.82C123.772 27.164 124.276 26.572 124.836 26.044C125.412 25.5 126.012 25.068 126.636 24.748C127.276 24.428 127.908 24.268 128.532 24.268C129.156 24.268 129.676 24.436 130.092 24.772C130.508 25.092 130.716 25.524 130.716 26.068C130.716 26.468 130.604 26.74 130.38 26.884C130.172 27.028 129.892 27.1 129.54 27.1C129.572 26.972 129.596 26.836 129.612 26.692C129.644 26.532 129.66 26.388 129.66 26.26C129.66 25.892 129.572 25.58 129.396 25.324C129.22 25.052 128.916 24.916 128.484 24.916C128.036 24.916 127.58 25.076 127.116 25.396C126.652 25.7 126.204 26.116 125.772 26.644C125.34 27.156 124.956 27.716 124.62 28.324C124.284 28.932 124.02 29.532 123.828 30.124C123.636 30.716 123.54 31.244 123.54 31.708C123.54 32.332 123.756 32.644 124.188 32.644C124.556 32.644 124.956 32.476 125.388 32.14C125.82 31.788 126.26 31.348 126.708 30.82C127.172 30.276 127.612 29.716 128.028 29.14C128.444 28.564 128.812 28.036 129.132 27.556C129.196 27.46 129.236 27.412 129.252 27.412C129.348 27.428 129.468 27.46 129.612 27.508C129.772 27.556 129.908 27.62 130.02 27.7C130.132 27.78 130.188 27.884 130.188 28.012C130.188 28.156 130.116 28.356 129.972 28.612C129.828 28.852 129.668 29.132 129.492 29.452C129.316 29.772 129.156 30.1 129.012 30.436C128.868 30.756 128.796 31.06 128.796 31.348C128.796 31.588 128.86 31.828 128.988 32.068C129.116 32.292 129.324 32.404 129.612 32.404C130.044 32.404 130.612 32.092 131.316 31.468C132.02 30.828 132.732 29.876 133.452 28.612L133.692 28.852C133.356 29.716 132.924 30.476 132.396 31.132C131.868 31.788 131.3 32.3 130.692 32.668C130.1 33.036 129.516 33.22 128.94 33.22C128.348 33.22 127.908 33.044 127.62 32.692C127.348 32.34 127.212 31.956 127.212 31.54C127.212 31.444 127.22 31.34 127.236 31.228C127.252 31.1 127.268 30.972 127.284 30.844C126.596 31.772 125.964 32.468 125.388 32.932C124.828 33.396 124.252 33.628 123.66 33.628ZM145.057 33.244C144.497 33.244 144.089 33.068 143.833 32.716C143.577 32.38 143.449 31.972 143.449 31.492C143.449 31.092 143.505 30.692 143.617 30.292C143.745 29.892 143.865 29.5 143.977 29.116C144.105 28.732 144.169 28.388 144.169 28.084C144.169 27.764 144.097 27.54 143.953 27.412C143.809 27.284 143.649 27.22 143.473 27.22C143.073 27.22 142.633 27.532 142.153 28.156C141.689 28.78 141.081 29.66 140.329 30.796C140.073 31.18 139.857 31.572 139.681 31.972C139.505 32.356 139.337 32.708 139.177 33.028C139.049 33.028 138.889 33.012 138.697 32.98C138.505 32.948 138.329 32.892 138.169 32.812C138.025 32.748 137.953 32.66 137.953 32.548C137.953 32.436 138.025 32.172 138.169 31.756C138.329 31.324 138.505 30.828 138.697 30.268C138.905 29.692 139.081 29.116 139.225 28.54C139.385 27.948 139.465 27.444 139.465 27.028C139.465 26.756 139.417 26.54 139.321 26.38C139.241 26.204 139.089 26.116 138.865 26.116C138.513 26.116 138.089 26.332 137.593 26.764C137.097 27.18 136.585 27.732 136.057 28.42C135.529 29.108 135.025 29.868 134.545 30.7C134.081 31.516 133.705 32.332 133.417 33.148C133.273 33.148 133.097 33.124 132.889 33.076C132.681 33.028 132.505 32.964 132.361 32.884C132.201 32.804 132.121 32.724 132.121 32.644C132.121 32.548 132.209 32.268 132.385 31.804C132.545 31.324 132.737 30.756 132.961 30.1C133.169 29.428 133.353 28.748 133.513 28.06C133.689 27.372 133.777 26.764 133.777 26.236C133.873 26.124 134.025 26.012 134.233 25.9C134.441 25.788 134.657 25.732 134.881 25.732C135.105 25.732 135.265 25.788 135.361 25.9C135.473 26.012 135.529 26.164 135.529 26.356C135.529 26.564 135.465 26.924 135.337 27.436C135.225 27.932 135.081 28.484 134.905 29.092C135.225 28.58 135.585 28.06 135.985 27.532C136.401 26.988 136.833 26.492 137.281 26.044C137.729 25.596 138.177 25.236 138.625 24.964C139.089 24.676 139.537 24.532 139.969 24.532C140.465 24.532 140.801 24.716 140.977 25.084C141.169 25.436 141.265 25.86 141.265 26.356C141.265 26.756 141.217 27.18 141.121 27.628C141.041 28.06 140.945 28.468 140.833 28.852C140.721 29.22 140.617 29.516 140.521 29.74C140.857 29.132 141.225 28.548 141.625 27.988C142.041 27.412 142.489 26.948 142.969 26.596C143.449 26.228 143.961 26.044 144.505 26.044C145.017 26.044 145.369 26.196 145.561 26.5C145.769 26.804 145.873 27.164 145.873 27.58C145.873 27.996 145.801 28.452 145.657 28.948C145.513 29.444 145.361 29.924 145.201 30.388C145.057 30.852 144.985 31.252 144.985 31.588C144.985 31.796 145.033 31.988 145.129 32.164C145.241 32.324 145.433 32.404 145.705 32.404C146.153 32.404 146.569 32.204 146.953 31.804C147.353 31.388 147.721 30.892 148.057 30.316C148.393 29.724 148.681 29.156 148.921 28.612L149.209 28.948C148.953 29.62 148.625 30.292 148.225 30.964C147.825 31.62 147.353 32.164 146.809 32.596C146.281 33.028 145.697 33.244 145.057 33.244ZM151.069 33.556C150.093 33.556 149.357 33.284 148.861 32.74C148.381 32.212 148.141 31.556 148.141 30.772C148.141 30.052 148.317 29.292 148.669 28.492C149.037 27.692 149.517 26.94 150.109 26.236C150.717 25.532 151.381 24.964 152.101 24.532C152.821 24.084 153.533 23.86 154.237 23.86C154.605 23.86 154.941 23.956 155.245 24.148C155.565 24.34 155.725 24.732 155.725 25.324C155.725 25.932 155.541 26.508 155.173 27.052C154.821 27.58 154.349 28.052 153.757 28.468C153.181 28.884 152.541 29.228 151.837 29.5C151.149 29.756 150.461 29.916 149.773 29.98C149.741 30.14 149.717 30.292 149.701 30.436C149.685 30.58 149.677 30.716 149.677 30.844C149.677 31.084 149.701 31.324 149.749 31.564C149.813 31.804 149.917 32.028 150.061 32.236C150.205 32.428 150.397 32.58 150.637 32.692C150.893 32.804 151.205 32.86 151.573 32.86C152.261 32.86 152.941 32.668 153.613 32.284C154.285 31.884 154.909 31.364 155.485 30.724C156.061 30.084 156.549 29.38 156.949 28.612L157.237 28.828C156.805 29.788 156.253 30.62 155.581 31.324C154.925 32.028 154.205 32.572 153.421 32.956C152.653 33.356 151.869 33.556 151.069 33.556ZM149.893 29.524C150.325 29.38 150.813 29.172 151.357 28.9C151.901 28.612 152.421 28.276 152.917 27.892C153.429 27.508 153.845 27.084 154.165 26.62C154.501 26.156 154.669 25.668 154.669 25.156C154.669 24.98 154.637 24.844 154.573 24.748C154.509 24.652 154.373 24.604 154.165 24.604C153.781 24.604 153.373 24.756 152.941 25.06C152.509 25.348 152.093 25.732 151.693 26.212C151.293 26.692 150.933 27.22 150.613 27.796C150.293 28.372 150.053 28.948 149.893 29.524ZM164.221 32.98C163.661 32.98 163.237 32.836 162.949 32.548C162.677 32.26 162.541 31.892 162.541 31.444C162.541 31.108 162.597 30.756 162.709 30.388C162.837 30.02 162.957 29.644 163.069 29.26C163.181 28.86 163.237 28.476 163.237 28.108C163.237 27.66 163.141 27.356 162.949 27.196C162.773 27.02 162.549 26.932 162.277 26.932C161.781 26.932 161.277 27.14 160.765 27.556C160.253 27.956 159.757 28.476 159.277 29.116C158.797 29.74 158.349 30.388 157.933 31.06C157.517 31.732 157.149 32.332 156.829 32.86C156.573 32.86 156.333 32.812 156.109 32.716C155.869 32.636 155.685 32.508 155.557 32.332C155.557 32.252 155.645 32.004 155.821 31.588C155.981 31.172 156.173 30.66 156.397 30.052C156.621 29.444 156.821 28.82 156.997 28.18C157.173 27.54 157.261 26.956 157.261 26.428C157.357 26.316 157.509 26.204 157.717 26.092C157.925 25.98 158.141 25.924 158.365 25.924C158.797 25.924 159.013 26.132 159.013 26.548C159.013 26.804 158.941 27.236 158.797 27.844C158.653 28.436 158.469 29.06 158.245 29.716C158.677 29.06 159.157 28.412 159.685 27.772C160.229 27.116 160.805 26.572 161.413 26.14C162.021 25.708 162.629 25.492 163.237 25.492C163.861 25.492 164.309 25.716 164.581 26.164C164.869 26.612 165.013 27.108 165.013 27.652C165.013 28.148 164.933 28.612 164.773 29.044C164.613 29.46 164.445 29.868 164.269 30.268C164.109 30.652 164.029 31.044 164.029 31.444C164.029 31.78 164.093 32.02 164.221 32.164C164.365 32.292 164.541 32.356 164.749 32.356C165.149 32.356 165.549 32.172 165.949 31.804C166.349 31.42 166.733 30.94 167.101 30.364C167.485 29.788 167.821 29.204 168.109 28.612L168.373 28.924C168.037 29.708 167.661 30.404 167.245 31.012C166.829 31.62 166.373 32.1 165.877 32.452C165.381 32.804 164.829 32.98 164.221 32.98ZM169.688 33.604C169 33.604 168.472 33.404 168.104 33.004C167.736 32.604 167.552 32.012 167.552 31.228C167.552 30.524 167.68 29.66 167.936 28.636C168.208 27.596 168.544 26.532 168.944 25.444C168.784 25.412 168.632 25.388 168.488 25.372C168.344 25.34 168.208 25.3 168.08 25.252V24.82C168.208 24.836 168.36 24.852 168.536 24.868C168.712 24.884 168.912 24.9 169.136 24.916C169.472 24.052 169.832 23.22 170.216 22.42C170.6 21.604 170.976 20.884 171.344 20.26C171.728 19.62 172.088 19.116 172.424 18.748C172.776 18.364 173.072 18.172 173.312 18.172C173.44 18.172 173.552 18.22 173.648 18.316C173.76 18.396 173.816 18.524 173.816 18.7C173.816 18.972 173.648 19.42 173.312 20.044C172.976 20.652 172.56 21.38 172.064 22.228C171.568 23.076 171.088 23.996 170.624 24.988C170.768 24.988 170.912 24.988 171.056 24.988C171.216 24.988 171.368 24.988 171.512 24.988C172.04 24.988 172.592 24.98 173.168 24.964C173.76 24.948 174.352 24.908 174.944 24.844V25.276C174.064 25.372 173.272 25.444 172.568 25.492C171.88 25.54 171.264 25.564 170.72 25.564C170.656 25.564 170.592 25.564 170.528 25.564C170.48 25.564 170.424 25.564 170.36 25.564C169.992 26.412 169.68 27.284 169.424 28.18C169.168 29.076 169.04 29.948 169.04 30.796C169.04 31.484 169.144 31.98 169.352 32.284C169.56 32.572 169.904 32.716 170.384 32.716C171.216 32.716 172.032 32.348 172.832 31.612C173.632 30.876 174.336 29.876 174.944 28.612L175.256 28.852C174.872 29.748 174.384 30.556 173.792 31.276C173.216 31.996 172.576 32.564 171.872 32.98C171.168 33.396 170.44 33.604 169.688 33.604ZM176.148 33.268C175.46 33.268 174.972 33.052 174.684 32.62C174.396 32.204 174.252 31.692 174.252 31.084C174.252 30.588 174.332 30.076 174.492 29.548C174.652 29.02 174.86 28.524 175.116 28.06C175.388 27.596 175.684 27.22 176.004 26.932C176.34 26.644 176.676 26.5 177.012 26.5C177.092 26.5 177.172 26.516 177.252 26.548C177.348 26.564 177.436 26.588 177.516 26.62C177.372 26.748 177.196 26.988 176.988 27.34C176.796 27.676 176.612 28.068 176.436 28.516C176.26 28.948 176.108 29.38 175.98 29.812C175.868 30.244 175.812 30.612 175.812 30.916C175.812 31.396 175.892 31.748 176.052 31.972C176.212 32.18 176.42 32.284 176.676 32.284C177.012 32.284 177.412 32.108 177.876 31.756C178.34 31.388 178.796 30.924 179.244 30.364C178.796 29.996 178.444 29.516 178.188 28.924C177.948 28.316 177.828 27.7 177.828 27.076C177.828 26.548 177.916 26.052 178.092 25.588C178.284 25.124 178.556 24.756 178.908 24.484C179.26 24.196 179.684 24.052 180.18 24.052C180.836 24.052 181.276 24.228 181.5 24.58C181.724 24.932 181.836 25.372 181.836 25.9C181.836 26.524 181.684 27.22 181.38 27.988C181.076 28.74 180.692 29.468 180.228 30.172C180.516 30.332 180.82 30.412 181.14 30.412C181.396 30.412 181.684 30.364 182.004 30.268C182.324 30.156 182.636 29.972 182.94 29.716C183.26 29.46 183.516 29.116 183.708 28.684L183.996 28.924C183.676 29.676 183.22 30.212 182.628 30.532C182.052 30.836 181.5 30.988 180.972 30.988C180.764 30.988 180.564 30.972 180.372 30.94C180.18 30.892 179.996 30.828 179.82 30.748C179.276 31.468 178.676 32.068 178.02 32.548C177.38 33.028 176.756 33.268 176.148 33.268ZM179.676 29.74C180.076 29.148 180.404 28.532 180.66 27.892C180.932 27.236 181.068 26.62 181.068 26.044C181.068 25.58 180.996 25.244 180.852 25.036C180.724 24.812 180.556 24.7 180.348 24.7C180.028 24.7 179.7 24.932 179.364 25.396C179.028 25.86 178.86 26.444 178.86 27.148C178.86 27.612 178.924 28.084 179.052 28.564C179.196 29.028 179.404 29.42 179.676 29.74ZM185.778 33.724C185.026 33.724 184.426 33.556 183.978 33.22C183.546 32.9 183.242 32.5 183.066 32.02C182.874 31.54 182.778 31.06 182.778 30.58C182.778 30.1 182.842 29.732 182.97 29.476C183.098 29.22 183.25 29.028 183.426 28.9C183.618 28.772 183.794 28.676 183.954 28.612C184.13 28.548 184.25 28.484 184.314 28.42C184.794 27.892 185.234 27.34 185.634 26.764C186.034 26.188 186.386 25.58 186.69 24.94V24.652C186.69 24.06 186.786 23.644 186.978 23.404C187.186 23.148 187.402 23.02 187.626 23.02C187.754 23.02 187.85 23.052 187.914 23.116C187.978 23.18 188.01 23.252 188.01 23.332C188.01 23.412 187.986 23.54 187.938 23.716C187.89 23.892 187.866 24.116 187.866 24.388C187.866 24.916 187.97 25.492 188.178 26.116C188.386 26.724 188.594 27.372 188.802 28.06C189.01 28.732 189.114 29.436 189.114 30.172C189.114 30.38 189.098 30.588 189.066 30.796C189.05 30.988 189.018 31.172 188.97 31.348C189.53 31.252 190.058 31.004 190.554 30.604C191.05 30.188 191.53 29.532 191.994 28.636L192.21 28.876C191.906 29.756 191.45 30.428 190.842 30.892C190.234 31.34 189.57 31.62 188.85 31.732C188.594 32.42 188.186 32.924 187.626 33.244C187.082 33.564 186.466 33.724 185.778 33.724ZM185.826 32.884C186.018 32.884 186.274 32.82 186.594 32.692C186.914 32.564 187.162 32.236 187.338 31.708C186.666 31.58 186.066 31.316 185.538 30.916C185.026 30.516 184.642 30.116 184.386 29.716C184.034 29.732 183.858 30.012 183.858 30.556C183.858 31.132 184.026 31.668 184.362 32.164C184.714 32.644 185.202 32.884 185.826 32.884ZM187.458 31.324C187.49 31.164 187.514 30.996 187.53 30.82C187.546 30.644 187.554 30.436 187.554 30.196C187.554 29.444 187.458 28.7 187.266 27.964C187.09 27.212 186.938 26.508 186.81 25.852C186.442 26.46 186.05 27.044 185.634 27.604C185.234 28.148 184.85 28.604 184.482 28.972C184.722 29.484 185.09 29.964 185.586 30.412C186.098 30.86 186.722 31.164 187.458 31.324ZM198.918 33.628C198.422 33.628 198.006 33.46 197.67 33.124C197.318 32.804 197.142 32.308 197.142 31.636C197.142 31.06 197.27 30.444 197.526 29.788C197.782 29.116 198.134 28.46 198.582 27.82C199.03 27.164 199.534 26.572 200.094 26.044C200.67 25.5 201.27 25.068 201.894 24.748C202.534 24.428 203.166 24.268 203.79 24.268C204.414 24.268 204.934 24.436 205.35 24.772C205.766 25.092 205.974 25.524 205.974 26.068C205.974 26.468 205.862 26.74 205.638 26.884C205.43 27.028 205.15 27.1 204.798 27.1C204.83 26.972 204.854 26.836 204.87 26.692C204.902 26.532 204.918 26.388 204.918 26.26C204.918 25.892 204.83 25.58 204.654 25.324C204.478 25.052 204.174 24.916 203.742 24.916C203.294 24.916 202.838 25.076 202.374 25.396C201.91 25.7 201.462 26.116 201.03 26.644C200.598 27.156 200.214 27.716 199.878 28.324C199.542 28.932 199.278 29.532 199.086 30.124C198.894 30.716 198.798 31.244 198.798 31.708C198.798 32.332 199.014 32.644 199.446 32.644C199.814 32.644 200.214 32.476 200.646 32.14C201.078 31.788 201.518 31.348 201.966 30.82C202.43 30.276 202.87 29.716 203.286 29.14C203.702 28.564 204.07 28.036 204.39 27.556C204.454 27.46 204.494 27.412 204.51 27.412C204.606 27.428 204.726 27.46 204.87 27.508C205.03 27.556 205.166 27.62 205.278 27.7C205.39 27.78 205.446 27.884 205.446 28.012C205.446 28.156 205.374 28.356 205.23 28.612C205.086 28.852 204.926 29.132 204.75 29.452C204.574 29.772 204.414 30.1 204.27 30.436C204.126 30.756 204.054 31.06 204.054 31.348C204.054 31.588 204.118 31.828 204.246 32.068C204.374 32.292 204.582 32.404 204.87 32.404C205.302 32.404 205.87 32.092 206.574 31.468C207.278 30.828 207.99 29.876 208.71 28.612L208.95 28.852C208.614 29.716 208.182 30.476 207.654 31.132C207.126 31.788 206.558 32.3 205.95 32.668C205.358 33.036 204.774 33.22 204.198 33.22C203.606 33.22 203.166 33.044 202.878 32.692C202.606 32.34 202.47 31.956 202.47 31.54C202.47 31.444 202.478 31.34 202.494 31.228C202.51 31.1 202.526 30.972 202.542 30.844C201.854 31.772 201.222 32.468 200.646 32.932C200.086 33.396 199.51 33.628 198.918 33.628ZM210.259 33.604C209.571 33.604 209.043 33.404 208.675 33.004C208.307 32.604 208.123 32.012 208.123 31.228C208.123 30.524 208.251 29.66 208.507 28.636C208.779 27.596 209.115 26.532 209.515 25.444C209.355 25.412 209.203 25.388 209.059 25.372C208.915 25.34 208.779 25.3 208.651 25.252V24.82C208.779 24.836 208.931 24.852 209.107 24.868C209.283 24.884 209.483 24.9 209.707 24.916C210.043 24.052 210.403 23.22 210.787 22.42C211.171 21.604 211.547 20.884 211.915 20.26C212.299 19.62 212.659 19.116 212.995 18.748C213.347 18.364 213.643 18.172 213.883 18.172C214.011 18.172 214.123 18.22 214.219 18.316C214.331 18.396 214.387 18.524 214.387 18.7C214.387 18.972 214.219 19.42 213.883 20.044C213.547 20.652 213.131 21.38 212.635 22.228C212.139 23.076 211.659 23.996 211.195 24.988C211.339 24.988 211.483 24.988 211.627 24.988C211.787 24.988 211.939 24.988 212.083 24.988C212.611 24.988 213.163 24.98 213.739 24.964C214.331 24.948 214.923 24.908 215.515 24.844V25.276C214.635 25.372 213.843 25.444 213.139 25.492C212.451 25.54 211.835 25.564 211.291 25.564C211.227 25.564 211.163 25.564 211.099 25.564C211.051 25.564 210.995 25.564 210.931 25.564C210.563 26.412 210.251 27.284 209.995 28.18C209.739 29.076 209.611 29.948 209.611 30.796C209.611 31.484 209.715 31.98 209.923 32.284C210.131 32.572 210.475 32.716 210.955 32.716C211.787 32.716 212.603 32.348 213.403 31.612C214.203 30.876 214.907 29.876 215.515 28.612L215.827 28.852C215.443 29.748 214.955 30.556 214.363 31.276C213.787 31.996 213.147 32.564 212.443 32.98C211.739 33.396 211.011 33.604 210.259 33.604ZM219.215 33.124C218.671 33.124 218.239 32.98 217.919 32.692C217.615 32.404 217.463 32.028 217.463 31.564C217.463 31.084 217.575 30.58 217.799 30.052C218.023 29.524 218.239 29.004 218.447 28.492C218.671 27.964 218.783 27.492 218.783 27.076C218.783 26.564 218.631 26.188 218.327 25.948C218.039 25.692 217.743 25.46 217.439 25.252C217.071 26.196 216.687 27.092 216.287 27.94C215.887 28.788 215.559 29.428 215.303 29.86L215.087 29.452C215.311 29.036 215.599 28.428 215.951 27.628C216.319 26.828 216.679 25.916 217.031 24.892C216.871 24.732 216.791 24.54 216.791 24.316C216.791 23.836 216.927 23.444 217.199 23.14C217.471 22.836 217.671 22.684 217.799 22.684C217.975 22.684 218.071 22.764 218.087 22.924C218.119 23.068 218.135 23.18 218.135 23.26C218.135 23.34 218.087 23.5 217.991 23.74C217.911 23.964 217.871 24.1 217.871 24.148C217.871 24.372 217.991 24.58 218.23 24.772C218.487 24.948 218.775 25.156 219.095 25.396C219.415 25.62 219.695 25.9 219.935 26.236C220.191 26.556 220.319 26.972 220.319 27.484C220.319 27.964 220.215 28.452 220.007 28.948C219.815 29.444 219.615 29.916 219.407 30.364C219.215 30.812 219.119 31.204 219.119 31.54C219.119 31.828 219.191 32.02 219.335 32.116C219.479 32.212 219.647 32.26 219.839 32.26C220.223 32.26 220.615 32.14 221.015 31.9C221.431 31.66 221.831 31.356 222.215 30.988C222.599 30.62 222.943 30.236 223.247 29.836C223.551 29.42 223.775 29.036 223.919 28.684L224.231 28.924C223.927 29.596 223.511 30.26 222.983 30.916C222.455 31.556 221.863 32.084 221.207 32.5C220.567 32.916 219.903 33.124 219.215 33.124ZM224.558 33.628C224.062 33.628 223.646 33.46 223.31 33.124C222.958 32.804 222.782 32.308 222.782 31.636C222.782 31.06 222.91 30.444 223.166 29.788C223.422 29.116 223.774 28.46 224.222 27.82C224.67 27.164 225.174 26.572 225.734 26.044C226.31 25.5 226.91 25.068 227.534 24.748C228.174 24.428 228.806 24.268 229.43 24.268C230.054 24.268 230.574 24.436 230.99 24.772C231.406 25.092 231.614 25.524 231.614 26.068C231.614 26.468 231.502 26.74 231.278 26.884C231.07 27.028 230.79 27.1 230.438 27.1C230.47 26.972 230.494 26.836 230.51 26.692C230.542 26.532 230.558 26.388 230.558 26.26C230.558 25.892 230.47 25.58 230.294 25.324C230.118 25.052 229.814 24.916 229.382 24.916C228.934 24.916 228.478 25.076 228.014 25.396C227.55 25.7 227.102 26.116 226.67 26.644C226.238 27.156 225.854 27.716 225.518 28.324C225.182 28.932 224.918 29.532 224.726 30.124C224.534 30.716 224.438 31.244 224.438 31.708C224.438 32.332 224.654 32.644 225.086 32.644C225.454 32.644 225.854 32.476 226.286 32.14C226.718 31.788 227.158 31.348 227.606 30.82C228.07 30.276 228.51 29.716 228.926 29.14C229.342 28.564 229.71 28.036 230.03 27.556C230.094 27.46 230.134 27.412 230.15 27.412C230.246 27.428 230.366 27.46 230.51 27.508C230.67 27.556 230.806 27.62 230.918 27.7C231.03 27.78 231.086 27.884 231.086 28.012C231.086 28.156 231.014 28.356 230.87 28.612C230.726 28.852 230.566 29.132 230.39 29.452C230.214 29.772 230.054 30.1 229.91 30.436C229.766 30.756 229.694 31.06 229.694 31.348C229.694 31.588 229.758 31.828 229.886 32.068C230.014 32.292 230.222 32.404 230.51 32.404C230.942 32.404 231.51 32.092 232.214 31.468C232.918 30.828 233.63 29.876 234.35 28.612L234.59 28.852C234.254 29.716 233.822 30.476 233.294 31.132C232.766 31.788 232.198 32.3 231.59 32.668C230.998 33.036 230.414 33.22 229.838 33.22C229.246 33.22 228.806 33.044 228.518 32.692C228.246 32.34 228.11 31.956 228.11 31.54C228.11 31.444 228.118 31.34 228.134 31.228C228.15 31.1 228.166 30.972 228.182 30.844C227.494 31.772 226.862 32.468 226.286 32.932C225.726 33.396 225.15 33.628 224.558 33.628ZM236.451 33.556C235.475 33.556 234.739 33.284 234.243 32.74C233.763 32.212 233.523 31.556 233.523 30.772C233.523 30.052 233.699 29.292 234.051 28.492C234.419 27.692 234.899 26.94 235.491 26.236C236.099 25.532 236.763 24.964 237.483 24.532C238.203 24.084 238.915 23.86 239.619 23.86C239.987 23.86 240.323 23.956 240.627 24.148C240.947 24.34 241.107 24.732 241.107 25.324C241.107 25.932 240.923 26.508 240.555 27.052C240.203 27.58 239.731 28.052 239.139 28.468C238.563 28.884 237.923 29.228 237.219 29.5C236.531 29.756 235.843 29.916 235.155 29.98C235.123 30.14 235.099 30.292 235.083 30.436C235.067 30.58 235.059 30.716 235.059 30.844C235.059 31.084 235.083 31.324 235.131 31.564C235.195 31.804 235.299 32.028 235.443 32.236C235.587 32.428 235.779 32.58 236.019 32.692C236.275 32.804 236.587 32.86 236.955 32.86C237.643 32.86 238.323 32.668 238.995 32.284C239.667 31.884 240.291 31.364 240.867 30.724C241.443 30.084 241.931 29.38 242.331 28.612L242.619 28.828C242.187 29.788 241.635 30.62 240.963 31.324C240.307 32.028 239.587 32.572 238.803 32.956C238.035 33.356 237.251 33.556 236.451 33.556ZM235.275 29.524C235.707 29.38 236.195 29.172 236.739 28.9C237.283 28.612 237.803 28.276 238.299 27.892C238.811 27.508 239.227 27.084 239.547 26.62C239.883 26.156 240.051 25.668 240.051 25.156C240.051 24.98 240.019 24.844 239.955 24.748C239.891 24.652 239.755 24.604 239.547 24.604C239.163 24.604 238.755 24.756 238.323 25.06C237.891 25.348 237.475 25.732 237.075 26.212C236.675 26.692 236.315 27.22 235.995 27.796C235.675 28.372 235.435 28.948 235.275 29.524ZM253.948 33.244C253.388 33.244 252.98 33.068 252.724 32.716C252.468 32.38 252.34 31.972 252.34 31.492C252.34 31.092 252.396 30.692 252.508 30.292C252.636 29.892 252.756 29.5 252.868 29.116C252.996 28.732 253.06 28.388 253.06 28.084C253.06 27.764 252.988 27.54 252.844 27.412C252.7 27.284 252.54 27.22 252.364 27.22C251.964 27.22 251.524 27.532 251.044 28.156C250.58 28.78 249.972 29.66 249.22 30.796C248.964 31.18 248.748 31.572 248.572 31.972C248.396 32.356 248.228 32.708 248.068 33.028C247.94 33.028 247.78 33.012 247.588 32.98C247.396 32.948 247.22 32.892 247.06 32.812C246.916 32.748 246.844 32.66 246.844 32.548C246.844 32.436 246.916 32.172 247.06 31.756C247.22 31.324 247.396 30.828 247.588 30.268C247.796 29.692 247.972 29.116 248.116 28.54C248.276 27.948 248.356 27.444 248.356 27.028C248.356 26.756 248.308 26.54 248.212 26.38C248.132 26.204 247.98 26.116 247.756 26.116C247.404 26.116 246.98 26.332 246.484 26.764C245.988 27.18 245.476 27.732 244.948 28.42C244.42 29.108 243.916 29.868 243.436 30.7C242.972 31.516 242.596 32.332 242.308 33.148C242.164 33.148 241.988 33.124 241.78 33.076C241.572 33.028 241.396 32.964 241.252 32.884C241.092 32.804 241.012 32.724 241.012 32.644C241.012 32.548 241.1 32.268 241.276 31.804C241.436 31.324 241.628 30.756 241.852 30.1C242.06 29.428 242.244 28.748 242.404 28.06C242.58 27.372 242.668 26.764 242.668 26.236C242.764 26.124 242.916 26.012 243.124 25.9C243.332 25.788 243.548 25.732 243.772 25.732C243.996 25.732 244.156 25.788 244.252 25.9C244.364 26.012 244.42 26.164 244.42 26.356C244.42 26.564 244.356 26.924 244.228 27.436C244.116 27.932 243.972 28.484 243.796 29.092C244.116 28.58 244.476 28.06 244.876 27.532C245.292 26.988 245.724 26.492 246.172 26.044C246.62 25.596 247.068 25.236 247.516 24.964C247.98 24.676 248.428 24.532 248.86 24.532C249.356 24.532 249.692 24.716 249.868 25.084C250.06 25.436 250.156 25.86 250.156 26.356C250.156 26.756 250.108 27.18 250.012 27.628C249.932 28.06 249.836 28.468 249.724 28.852C249.612 29.22 249.508 29.516 249.412 29.74C249.748 29.132 250.116 28.548 250.516 27.988C250.932 27.412 251.38 26.948 251.86 26.596C252.34 26.228 252.852 26.044 253.396 26.044C253.908 26.044 254.26 26.196 254.452 26.5C254.66 26.804 254.764 27.164 254.764 27.58C254.764 27.996 254.692 28.452 254.548 28.948C254.404 29.444 254.252 29.924 254.092 30.388C253.948 30.852 253.876 31.252 253.876 31.588C253.876 31.796 253.924 31.988 254.02 32.164C254.132 32.324 254.324 32.404 254.596 32.404C255.044 32.404 255.46 32.204 255.844 31.804C256.244 31.388 256.612 30.892 256.948 30.316C257.284 29.724 257.572 29.156 257.812 28.612L258.1 28.948C257.844 29.62 257.516 30.292 257.116 30.964C256.716 31.62 256.244 32.164 255.7 32.596C255.172 33.028 254.588 33.244 253.948 33.244ZM34.7262 62.628C34.2302 62.628 33.8142 62.46 33.4782 62.124C33.1262 61.804 32.9502 61.308 32.9502 60.636C32.9502 60.06 33.0782 59.444 33.3342 58.788C33.5902 58.116 33.9422 57.46 34.3902 56.82C34.8382 56.164 35.3422 55.572 35.9022 55.044C36.4782 54.5 37.0782 54.068 37.7022 53.748C38.3422 53.428 38.9742 53.268 39.5982 53.268C40.2222 53.268 40.7422 53.436 41.1582 53.772C41.5742 54.092 41.7822 54.524 41.7822 55.068C41.7822 55.468 41.6702 55.74 41.4462 55.884C41.2382 56.028 40.9582 56.1 40.6062 56.1C40.6382 55.972 40.6622 55.836 40.6782 55.692C40.7102 55.532 40.7262 55.388 40.7262 55.26C40.7262 54.892 40.6382 54.58 40.4622 54.324C40.2862 54.052 39.9822 53.916 39.5502 53.916C39.1022 53.916 38.6462 54.076 38.1822 54.396C37.7182 54.7 37.2702 55.116 36.8382 55.644C36.4062 56.156 36.0222 56.716 35.6862 57.324C35.3502 57.932 35.0862 58.532 34.8942 59.124C34.7022 59.716 34.6062 60.244 34.6062 60.708C34.6062 61.332 34.8222 61.644 35.2542 61.644C35.6222 61.644 36.0222 61.476 36.4542 61.14C36.8862 60.788 37.3262 60.348 37.7742 59.82C38.2382 59.276 38.6782 58.716 39.0942 58.14C39.5102 57.564 39.8782 57.036 40.1982 56.556C40.2622 56.46 40.3022 56.412 40.3182 56.412C40.4142 56.428 40.5342 56.46 40.6782 56.508C40.8382 56.556 40.9742 56.62 41.0862 56.7C41.1982 56.78 41.2542 56.884 41.2542 57.012C41.2542 57.156 41.1822 57.356 41.0382 57.612C40.8942 57.852 40.7342 58.132 40.5582 58.452C40.3822 58.772 40.2222 59.1 40.0782 59.436C39.9342 59.756 39.8622 60.06 39.8622 60.348C39.8622 60.588 39.9262 60.828 40.0542 61.068C40.1822 61.292 40.3902 61.404 40.6782 61.404C41.1102 61.404 41.6782 61.092 42.3822 60.468C43.0862 59.828 43.7982 58.876 44.5182 57.612L44.7582 57.852C44.4222 58.716 43.9902 59.476 43.4622 60.132C42.9342 60.788 42.3662 61.3 41.7582 61.668C41.1662 62.036 40.5822 62.22 40.0062 62.22C39.4142 62.22 38.9742 62.044 38.6862 61.692C38.4142 61.34 38.2782 60.956 38.2782 60.54C38.2782 60.444 38.2862 60.34 38.3022 60.228C38.3182 60.1 38.3342 59.972 38.3502 59.844C37.6622 60.772 37.0302 61.468 36.4542 61.932C35.8942 62.396 35.3182 62.628 34.7262 62.628ZM46.5953 62.844C45.8273 62.844 45.1873 62.588 44.6753 62.076C44.1633 61.564 43.9073 60.796 43.9073 59.772C43.9073 58.972 44.0593 58.196 44.3633 57.444C44.6833 56.676 45.0993 55.988 45.6113 55.38C46.1233 54.772 46.6913 54.292 47.3153 53.94C47.9393 53.572 48.5553 53.388 49.1633 53.388C49.8193 53.388 50.2673 53.58 50.5073 53.964C50.7473 54.348 50.8673 54.748 50.8673 55.164C50.8673 55.628 50.7553 56.036 50.5313 56.388C50.3233 56.74 50.0353 56.916 49.6673 56.916C49.3953 56.916 49.1633 56.796 48.9713 56.556C49.2113 56.428 49.4193 56.172 49.5953 55.788C49.7713 55.388 49.8593 55.012 49.8593 54.66C49.8593 54.468 49.8193 54.324 49.7393 54.228C49.6753 54.116 49.5393 54.06 49.3313 54.06C48.8993 54.06 48.4513 54.252 47.9873 54.636C47.5393 55.02 47.1153 55.516 46.7153 56.124C46.3313 56.732 46.0113 57.372 45.7553 58.044C45.5153 58.716 45.3953 59.348 45.3953 59.94C45.3953 60.436 45.5153 60.892 45.7553 61.308C45.9953 61.724 46.4593 61.932 47.1473 61.932C47.7873 61.932 48.4273 61.756 49.0673 61.404C49.7233 61.052 50.3313 60.548 50.8913 59.892C51.4513 59.236 51.8993 58.468 52.2353 57.588L52.5473 57.828C52.1793 58.788 51.6753 59.652 51.0353 60.42C50.3953 61.172 49.6913 61.764 48.9233 62.196C48.1553 62.628 47.3793 62.844 46.5953 62.844ZM53.4412 62.268C52.7532 62.268 52.2652 62.052 51.9772 61.62C51.6892 61.204 51.5452 60.692 51.5452 60.084C51.5452 59.588 51.6252 59.076 51.7852 58.548C51.9452 58.02 52.1532 57.524 52.4092 57.06C52.6812 56.596 52.9772 56.22 53.2972 55.932C53.6332 55.644 53.9692 55.5 54.3052 55.5C54.3852 55.5 54.4652 55.516 54.5452 55.548C54.6412 55.564 54.7292 55.588 54.8092 55.62C54.6652 55.748 54.4892 55.988 54.2812 56.34C54.0892 56.676 53.9052 57.068 53.7292 57.516C53.5532 57.948 53.4012 58.38 53.2732 58.812C53.1612 59.244 53.1052 59.612 53.1052 59.916C53.1052 60.396 53.1852 60.748 53.3452 60.972C53.5052 61.18 53.7132 61.284 53.9692 61.284C54.3052 61.284 54.7052 61.108 55.1692 60.756C55.6332 60.388 56.0892 59.924 56.5372 59.364C56.0892 58.996 55.7372 58.516 55.4812 57.924C55.2412 57.316 55.1212 56.7 55.1212 56.076C55.1212 55.548 55.2092 55.052 55.3852 54.588C55.5772 54.124 55.8492 53.756 56.2012 53.484C56.5532 53.196 56.9772 53.052 57.4732 53.052C58.1292 53.052 58.5692 53.228 58.7932 53.58C59.0172 53.932 59.1292 54.372 59.1292 54.9C59.1292 55.524 58.9772 56.22 58.6732 56.988C58.3692 57.74 57.9852 58.468 57.5212 59.172C57.8092 59.332 58.1132 59.412 58.4332 59.412C58.6892 59.412 58.9772 59.364 59.2972 59.268C59.6172 59.156 59.9292 58.972 60.2332 58.716C60.5532 58.46 60.8092 58.116 61.0012 57.684L61.2892 57.924C60.9692 58.676 60.5132 59.212 59.9212 59.532C59.3452 59.836 58.7932 59.988 58.2652 59.988C58.0572 59.988 57.8572 59.972 57.6652 59.94C57.4732 59.892 57.2892 59.828 57.1132 59.748C56.5692 60.468 55.9692 61.068 55.3132 61.548C54.6732 62.028 54.0492 62.268 53.4412 62.268ZM56.9692 58.74C57.3692 58.148 57.6972 57.532 57.9532 56.892C58.2252 56.236 58.3612 55.62 58.3612 55.044C58.3612 54.58 58.2892 54.244 58.1452 54.036C58.0172 53.812 57.8492 53.7 57.6412 53.7C57.3212 53.7 56.9932 53.932 56.6572 54.396C56.3212 54.86 56.1532 55.444 56.1532 56.148C56.1532 56.612 56.2172 57.084 56.3452 57.564C56.4892 58.028 56.6972 58.42 56.9692 58.74ZM68.3028 61.98C67.7428 61.98 67.3188 61.836 67.0308 61.548C66.7588 61.26 66.6228 60.892 66.6228 60.444C66.6228 60.108 66.6788 59.756 66.7908 59.388C66.9188 59.02 67.0388 58.644 67.1508 58.26C67.2628 57.86 67.3188 57.476 67.3188 57.108C67.3188 56.66 67.2228 56.356 67.0308 56.196C66.8548 56.02 66.6308 55.932 66.3588 55.932C65.8628 55.932 65.3588 56.14 64.8468 56.556C64.3348 56.956 63.8388 57.476 63.3588 58.116C62.8788 58.74 62.4308 59.388 62.0148 60.06C61.5988 60.732 61.2308 61.332 60.9108 61.86C60.6548 61.86 60.4148 61.812 60.1908 61.716C59.9508 61.636 59.7668 61.508 59.6388 61.332C59.6388 61.252 59.7268 61.004 59.9028 60.588C60.0628 60.172 60.2548 59.66 60.4788 59.052C60.7028 58.444 60.9028 57.82 61.0788 57.18C61.2548 56.54 61.3428 55.956 61.3428 55.428C61.4388 55.316 61.5908 55.204 61.7988 55.092C62.0068 54.98 62.2228 54.924 62.4468 54.924C62.8788 54.924 63.0948 55.132 63.0948 55.548C63.0948 55.804 63.0228 56.236 62.8788 56.844C62.7348 57.436 62.5508 58.06 62.3268 58.716C62.7588 58.06 63.2388 57.412 63.7668 56.772C64.3108 56.116 64.8868 55.572 65.4948 55.14C66.1028 54.708 66.7108 54.492 67.3188 54.492C67.9428 54.492 68.3908 54.716 68.6628 55.164C68.9508 55.612 69.0948 56.108 69.0948 56.652C69.0948 57.148 69.0148 57.612 68.8548 58.044C68.6948 58.46 68.5268 58.868 68.3508 59.268C68.1908 59.652 68.1108 60.044 68.1108 60.444C68.1108 60.78 68.1748 61.02 68.3028 61.164C68.4468 61.292 68.6228 61.356 68.8308 61.356C69.2308 61.356 69.6308 61.172 70.0308 60.804C70.4308 60.42 70.8148 59.94 71.1828 59.364C71.5668 58.788 71.9028 58.204 72.1908 57.612L72.4548 57.924C72.1188 58.708 71.7428 59.404 71.3268 60.012C70.9108 60.62 70.4548 61.1 69.9588 61.452C69.4628 61.804 68.9108 61.98 68.3028 61.98ZM73.7705 62.604C73.0825 62.604 72.5545 62.404 72.1865 62.004C71.8185 61.604 71.6345 61.012 71.6345 60.228C71.6345 59.524 71.7625 58.66 72.0185 57.636C72.2905 56.596 72.6265 55.532 73.0265 54.444C72.8665 54.412 72.7145 54.388 72.5705 54.372C72.4265 54.34 72.2905 54.3 72.1625 54.252V53.82C72.2905 53.836 72.4425 53.852 72.6185 53.868C72.7945 53.884 72.9945 53.9 73.2185 53.916C73.5545 53.052 73.9145 52.22 74.2985 51.42C74.6825 50.604 75.0585 49.884 75.4265 49.26C75.8105 48.62 76.1705 48.116 76.5065 47.748C76.8585 47.364 77.1545 47.172 77.3945 47.172C77.5225 47.172 77.6345 47.22 77.7305 47.316C77.8425 47.396 77.8985 47.524 77.8985 47.7C77.8985 47.972 77.7305 48.42 77.3945 49.044C77.0585 49.652 76.6425 50.38 76.1465 51.228C75.6505 52.076 75.1705 52.996 74.7065 53.988C74.8505 53.988 74.9945 53.988 75.1385 53.988C75.2985 53.988 75.4505 53.988 75.5945 53.988C76.1225 53.988 76.6745 53.98 77.2505 53.964C77.8425 53.948 78.4345 53.908 79.0265 53.844V54.276C78.1465 54.372 77.3545 54.444 76.6505 54.492C75.9625 54.54 75.3465 54.564 74.8025 54.564C74.7385 54.564 74.6745 54.564 74.6105 54.564C74.5625 54.564 74.5065 54.564 74.4425 54.564C74.0745 55.412 73.7625 56.284 73.5065 57.18C73.2505 58.076 73.1225 58.948 73.1225 59.796C73.1225 60.484 73.2265 60.98 73.4345 61.284C73.6425 61.572 73.9865 61.716 74.4665 61.716C75.2985 61.716 76.1145 61.348 76.9145 60.612C77.7145 59.876 78.4185 58.876 79.0265 57.612L79.3385 57.852C78.9545 58.748 78.4665 59.556 77.8745 60.276C77.2985 60.996 76.6585 61.564 75.9545 61.98C75.2505 62.396 74.5225 62.604 73.7705 62.604ZM81.1662 62.556C80.1902 62.556 79.4542 62.284 78.9582 61.74C78.4782 61.212 78.2382 60.556 78.2382 59.772C78.2382 59.052 78.4142 58.292 78.7662 57.492C79.1342 56.692 79.6142 55.94 80.2062 55.236C80.8142 54.532 81.4782 53.964 82.1982 53.532C82.9182 53.084 83.6302 52.86 84.3342 52.86C84.7022 52.86 85.0382 52.956 85.3422 53.148C85.6622 53.34 85.8222 53.732 85.8222 54.324C85.8222 54.932 85.6382 55.508 85.2702 56.052C84.9182 56.58 84.4462 57.052 83.8542 57.468C83.2782 57.884 82.6382 58.228 81.9342 58.5C81.2462 58.756 80.5582 58.916 79.8702 58.98C79.8382 59.14 79.8142 59.292 79.7982 59.436C79.7822 59.58 79.7742 59.716 79.7742 59.844C79.7742 60.084 79.7982 60.324 79.8462 60.564C79.9102 60.804 80.0142 61.028 80.1582 61.236C80.3022 61.428 80.4942 61.58 80.7342 61.692C80.9902 61.804 81.3022 61.86 81.6702 61.86C82.3582 61.86 83.0382 61.668 83.7102 61.284C84.3822 60.884 85.0062 60.364 85.5822 59.724C86.1582 59.084 86.6462 58.38 87.0462 57.612L87.3342 57.828C86.9022 58.788 86.3502 59.62 85.6782 60.324C85.0222 61.028 84.3022 61.572 83.5182 61.956C82.7502 62.356 81.9662 62.556 81.1662 62.556ZM79.9902 58.524C80.4222 58.38 80.9102 58.172 81.4542 57.9C81.9982 57.612 82.5182 57.276 83.0142 56.892C83.5262 56.508 83.9422 56.084 84.2622 55.62C84.5982 55.156 84.7662 54.668 84.7662 54.156C84.7662 53.98 84.7342 53.844 84.6702 53.748C84.6062 53.652 84.4702 53.604 84.2622 53.604C83.8782 53.604 83.4702 53.756 83.0382 54.06C82.6062 54.348 82.1902 54.732 81.7902 55.212C81.3902 55.692 81.0302 56.22 80.7102 56.796C80.3902 57.372 80.1502 57.948 79.9902 58.524ZM89.1344 62.844C88.3664 62.844 87.7264 62.588 87.2144 62.076C86.7024 61.564 86.4464 60.796 86.4464 59.772C86.4464 58.972 86.5984 58.196 86.9024 57.444C87.2224 56.676 87.6384 55.988 88.1504 55.38C88.6624 54.772 89.2304 54.292 89.8544 53.94C90.4784 53.572 91.0944 53.388 91.7024 53.388C92.3584 53.388 92.8064 53.58 93.0464 53.964C93.2864 54.348 93.4064 54.748 93.4064 55.164C93.4064 55.628 93.2944 56.036 93.0704 56.388C92.8624 56.74 92.5744 56.916 92.2064 56.916C91.9344 56.916 91.7024 56.796 91.5104 56.556C91.7504 56.428 91.9584 56.172 92.1344 55.788C92.3104 55.388 92.3984 55.012 92.3984 54.66C92.3984 54.468 92.3584 54.324 92.2784 54.228C92.2144 54.116 92.0784 54.06 91.8704 54.06C91.4384 54.06 90.9904 54.252 90.5264 54.636C90.0784 55.02 89.6544 55.516 89.2544 56.124C88.8704 56.732 88.5504 57.372 88.2944 58.044C88.0544 58.716 87.9344 59.348 87.9344 59.94C87.9344 60.436 88.0544 60.892 88.2944 61.308C88.5344 61.724 88.9984 61.932 89.6864 61.932C90.3264 61.932 90.9664 61.756 91.6064 61.404C92.2624 61.052 92.8704 60.548 93.4304 59.892C93.9904 59.236 94.4384 58.468 94.7744 57.588L95.0864 57.828C94.7184 58.788 94.2144 59.652 93.5744 60.42C92.9344 61.172 92.2304 61.764 91.4624 62.196C90.6944 62.628 89.9184 62.844 89.1344 62.844ZM96.0522 62.124C95.4282 62.124 94.9642 61.924 94.6602 61.524C94.3562 61.14 94.2042 60.668 94.2042 60.108C94.2042 59.74 94.2682 59.276 94.3962 58.716C94.5402 58.156 94.7242 57.572 94.9482 56.964C95.1722 56.34 95.4282 55.756 95.7162 55.212C96.0202 54.668 96.3402 54.228 96.6762 53.892C97.0122 53.54 97.3402 53.364 97.6602 53.364C97.8042 53.364 97.9242 53.412 98.0202 53.508C98.1322 53.588 98.1882 53.716 98.1882 53.892C98.1882 54.084 98.0602 54.396 97.8042 54.828C97.5642 55.26 97.2762 55.756 96.9402 56.316C96.6042 56.876 96.3082 57.468 96.0522 58.092C95.8122 58.7 95.6922 59.284 95.6922 59.844C95.6922 60.42 95.7882 60.804 95.9802 60.996C96.1722 61.188 96.4682 61.284 96.8682 61.284C97.4122 61.284 97.9882 61.012 98.5962 60.468C99.2202 59.924 99.8762 58.972 100.564 57.612L100.78 57.852C100.316 59.228 99.6442 60.284 98.7642 61.02C97.9002 61.756 96.9962 62.124 96.0522 62.124ZM98.9322 51.132C98.6762 51.132 98.4442 51.068 98.2362 50.94C98.0442 50.812 97.9482 50.612 97.9482 50.34C97.9482 50.004 98.1402 49.716 98.5242 49.476C98.9242 49.22 99.3162 49.092 99.7002 49.092C99.9402 49.092 100.132 49.148 100.276 49.26C100.42 49.372 100.492 49.564 100.492 49.836C100.492 50.14 100.324 50.436 99.9882 50.724C99.6682 50.996 99.3162 51.132 98.9322 51.132ZM112.209 62.244C111.649 62.244 111.241 62.068 110.985 61.716C110.729 61.38 110.601 60.972 110.601 60.492C110.601 60.092 110.657 59.692 110.769 59.292C110.897 58.892 111.017 58.5 111.129 58.116C111.257 57.732 111.321 57.388 111.321 57.084C111.321 56.764 111.249 56.54 111.105 56.412C110.961 56.284 110.801 56.22 110.625 56.22C110.225 56.22 109.785 56.532 109.305 57.156C108.841 57.78 108.233 58.66 107.481 59.796C107.225 60.18 107.009 60.572 106.833 60.972C106.657 61.356 106.489 61.708 106.329 62.028C106.201 62.028 106.041 62.012 105.849 61.98C105.657 61.948 105.481 61.892 105.321 61.812C105.177 61.748 105.105 61.66 105.105 61.548C105.105 61.436 105.177 61.172 105.321 60.756C105.481 60.324 105.657 59.828 105.849 59.268C106.057 58.692 106.233 58.116 106.377 57.54C106.537 56.948 106.617 56.444 106.617 56.028C106.617 55.756 106.569 55.54 106.473 55.38C106.393 55.204 106.241 55.116 106.017 55.116C105.665 55.116 105.241 55.332 104.745 55.764C104.249 56.18 103.737 56.732 103.209 57.42C102.681 58.108 102.177 58.868 101.697 59.7C101.233 60.516 100.857 61.332 100.569 62.148C100.425 62.148 100.249 62.124 100.041 62.076C99.8333 62.028 99.6573 61.964 99.5133 61.884C99.3533 61.804 99.2733 61.724 99.2733 61.644C99.2733 61.548 99.3613 61.268 99.5373 60.804C99.6973 60.324 99.8893 59.756 100.113 59.1C100.321 58.428 100.505 57.748 100.665 57.06C100.841 56.372 100.929 55.764 100.929 55.236C101.025 55.124 101.177 55.012 101.385 54.9C101.593 54.788 101.809 54.732 102.033 54.732C102.257 54.732 102.417 54.788 102.513 54.9C102.625 55.012 102.681 55.164 102.681 55.356C102.681 55.564 102.617 55.924 102.489 56.436C102.377 56.932 102.233 57.484 102.057 58.092C102.377 57.58 102.737 57.06 103.137 56.532C103.553 55.988 103.985 55.492 104.433 55.044C104.881 54.596 105.329 54.236 105.777 53.964C106.241 53.676 106.689 53.532 107.121 53.532C107.617 53.532 107.953 53.716 108.129 54.084C108.321 54.436 108.417 54.86 108.417 55.356C108.417 55.756 108.369 56.18 108.273 56.628C108.193 57.06 108.097 57.468 107.985 57.852C107.873 58.22 107.769 58.516 107.673 58.74C108.009 58.132 108.377 57.548 108.777 56.988C109.193 56.412 109.641 55.948 110.121 55.596C110.601 55.228 111.113 55.044 111.657 55.044C112.169 55.044 112.521 55.196 112.713 55.5C112.921 55.804 113.025 56.164 113.025 56.58C113.025 56.996 112.953 57.452 112.809 57.948C112.665 58.444 112.513 58.924 112.353 59.388C112.209 59.852 112.137 60.252 112.137 60.588C112.137 60.796 112.185 60.988 112.281 61.164C112.393 61.324 112.585 61.404 112.857 61.404C113.305 61.404 113.721 61.204 114.105 60.804C114.505 60.388 114.873 59.892 115.209 59.316C115.545 58.724 115.833 58.156 116.073 57.612L116.361 57.948C116.105 58.62 115.777 59.292 115.377 59.964C114.977 60.62 114.505 61.164 113.961 61.596C113.433 62.028 112.849 62.244 112.209 62.244ZM118.221 62.556C117.245 62.556 116.509 62.284 116.013 61.74C115.533 61.212 115.293 60.556 115.293 59.772C115.293 59.052 115.469 58.292 115.821 57.492C116.189 56.692 116.669 55.94 117.261 55.236C117.869 54.532 118.533 53.964 119.253 53.532C119.973 53.084 120.685 52.86 121.389 52.86C121.757 52.86 122.093 52.956 122.397 53.148C122.717 53.34 122.877 53.732 122.877 54.324C122.877 54.932 122.693 55.508 122.325 56.052C121.973 56.58 121.501 57.052 120.909 57.468C120.333 57.884 119.693 58.228 118.989 58.5C118.301 58.756 117.613 58.916 116.925 58.98C116.893 59.14 116.869 59.292 116.853 59.436C116.837 59.58 116.829 59.716 116.829 59.844C116.829 60.084 116.853 60.324 116.901 60.564C116.965 60.804 117.069 61.028 117.213 61.236C117.357 61.428 117.549 61.58 117.789 61.692C118.045 61.804 118.357 61.86 118.725 61.86C119.413 61.86 120.093 61.668 120.765 61.284C121.437 60.884 122.061 60.364 122.637 59.724C123.213 59.084 123.701 58.38 124.101 57.612L124.389 57.828C123.957 58.788 123.405 59.62 122.733 60.324C122.077 61.028 121.357 61.572 120.573 61.956C119.805 62.356 119.021 62.556 118.221 62.556ZM117.045 58.524C117.477 58.38 117.965 58.172 118.509 57.9C119.053 57.612 119.573 57.276 120.069 56.892C120.581 56.508 120.997 56.084 121.317 55.62C121.653 55.156 121.821 54.668 121.821 54.156C121.821 53.98 121.789 53.844 121.725 53.748C121.661 53.652 121.525 53.604 121.317 53.604C120.933 53.604 120.525 53.756 120.093 54.06C119.661 54.348 119.245 54.732 118.845 55.212C118.445 55.692 118.085 56.22 117.765 56.796C117.445 57.372 117.205 57.948 117.045 58.524ZM131.373 61.98C130.813 61.98 130.389 61.836 130.101 61.548C129.829 61.26 129.693 60.892 129.693 60.444C129.693 60.108 129.749 59.756 129.861 59.388C129.989 59.02 130.109 58.644 130.221 58.26C130.333 57.86 130.389 57.476 130.389 57.108C130.389 56.66 130.293 56.356 130.101 56.196C129.925 56.02 129.701 55.932 129.429 55.932C128.933 55.932 128.429 56.14 127.917 56.556C127.405 56.956 126.909 57.476 126.429 58.116C125.949 58.74 125.501 59.388 125.085 60.06C124.669 60.732 124.301 61.332 123.981 61.86C123.725 61.86 123.485 61.812 123.261 61.716C123.021 61.636 122.837 61.508 122.709 61.332C122.709 61.252 122.797 61.004 122.973 60.588C123.133 60.172 123.325 59.66 123.549 59.052C123.773 58.444 123.973 57.82 124.149 57.18C124.325 56.54 124.413 55.956 124.413 55.428C124.509 55.316 124.661 55.204 124.869 55.092C125.077 54.98 125.293 54.924 125.517 54.924C125.949 54.924 126.165 55.132 126.165 55.548C126.165 55.804 126.093 56.236 125.949 56.844C125.805 57.436 125.621 58.06 125.397 58.716C125.829 58.06 126.309 57.412 126.837 56.772C127.381 56.116 127.957 55.572 128.565 55.14C129.173 54.708 129.781 54.492 130.389 54.492C131.013 54.492 131.461 54.716 131.733 55.164C132.021 55.612 132.165 56.108 132.165 56.652C132.165 57.148 132.085 57.612 131.925 58.044C131.765 58.46 131.597 58.868 131.421 59.268C131.261 59.652 131.181 60.044 131.181 60.444C131.181 60.78 131.245 61.02 131.373 61.164C131.517 61.292 131.693 61.356 131.901 61.356C132.301 61.356 132.701 61.172 133.101 60.804C133.501 60.42 133.885 59.94 134.253 59.364C134.637 58.788 134.973 58.204 135.261 57.612L135.525 57.924C135.189 58.708 134.813 59.404 134.397 60.012C133.981 60.62 133.525 61.1 133.029 61.452C132.533 61.804 131.981 61.98 131.373 61.98ZM136.841 62.604C136.153 62.604 135.625 62.404 135.257 62.004C134.889 61.604 134.705 61.012 134.705 60.228C134.705 59.524 134.833 58.66 135.089 57.636C135.361 56.596 135.697 55.532 136.097 54.444C135.937 54.412 135.785 54.388 135.641 54.372C135.497 54.34 135.361 54.3 135.233 54.252V53.82C135.361 53.836 135.513 53.852 135.689 53.868C135.865 53.884 136.065 53.9 136.289 53.916C136.625 53.052 136.985 52.22 137.369 51.42C137.753 50.604 138.129 49.884 138.497 49.26C138.881 48.62 139.241 48.116 139.577 47.748C139.929 47.364 140.225 47.172 140.465 47.172C140.593 47.172 140.705 47.22 140.801 47.316C140.913 47.396 140.969 47.524 140.969 47.7C140.969 47.972 140.801 48.42 140.465 49.044C140.129 49.652 139.713 50.38 139.217 51.228C138.721 52.076 138.241 52.996 137.777 53.988C137.921 53.988 138.065 53.988 138.209 53.988C138.369 53.988 138.521 53.988 138.665 53.988C139.193 53.988 139.745 53.98 140.321 53.964C140.913 53.948 141.505 53.908 142.097 53.844V54.276C141.217 54.372 140.425 54.444 139.721 54.492C139.033 54.54 138.417 54.564 137.873 54.564C137.809 54.564 137.745 54.564 137.681 54.564C137.633 54.564 137.577 54.564 137.513 54.564C137.145 55.412 136.833 56.284 136.577 57.18C136.321 58.076 136.193 58.948 136.193 59.796C136.193 60.484 136.297 60.98 136.505 61.284C136.713 61.572 137.057 61.716 137.537 61.716C138.369 61.716 139.185 61.348 139.985 60.612C140.785 59.876 141.489 58.876 142.097 57.612L142.409 57.852C142.025 58.748 141.537 59.556 140.945 60.276C140.369 60.996 139.729 61.564 139.025 61.98C138.321 62.396 137.593 62.604 136.841 62.604ZM143.301 62.268C142.613 62.268 142.125 62.052 141.837 61.62C141.549 61.204 141.405 60.692 141.405 60.084C141.405 59.588 141.485 59.076 141.645 58.548C141.805 58.02 142.013 57.524 142.269 57.06C142.541 56.596 142.837 56.22 143.157 55.932C143.493 55.644 143.829 55.5 144.165 55.5C144.245 55.5 144.325 55.516 144.405 55.548C144.501 55.564 144.589 55.588 144.669 55.62C144.525 55.748 144.349 55.988 144.141 56.34C143.949 56.676 143.765 57.068 143.589 57.516C143.413 57.948 143.261 58.38 143.133 58.812C143.021 59.244 142.965 59.612 142.965 59.916C142.965 60.396 143.045 60.748 143.205 60.972C143.365 61.18 143.573 61.284 143.829 61.284C144.165 61.284 144.565 61.108 145.029 60.756C145.493 60.388 145.949 59.924 146.397 59.364C145.949 58.996 145.597 58.516 145.341 57.924C145.101 57.316 144.981 56.7 144.981 56.076C144.981 55.548 145.069 55.052 145.245 54.588C145.437 54.124 145.709 53.756 146.061 53.484C146.413 53.196 146.837 53.052 147.333 53.052C147.989 53.052 148.429 53.228 148.653 53.58C148.877 53.932 148.989 54.372 148.989 54.9C148.989 55.524 148.837 56.22 148.533 56.988C148.229 57.74 147.845 58.468 147.381 59.172C147.669 59.332 147.973 59.412 148.293 59.412C148.549 59.412 148.837 59.364 149.157 59.268C149.477 59.156 149.789 58.972 150.093 58.716C150.413 58.46 150.669 58.116 150.861 57.684L151.149 57.924C150.829 58.676 150.373 59.212 149.781 59.532C149.205 59.836 148.653 59.988 148.125 59.988C147.917 59.988 147.717 59.972 147.525 59.94C147.333 59.892 147.149 59.828 146.973 59.748C146.429 60.468 145.829 61.068 145.173 61.548C144.533 62.028 143.909 62.268 143.301 62.268ZM146.829 58.74C147.229 58.148 147.557 57.532 147.813 56.892C148.085 56.236 148.221 55.62 148.221 55.044C148.221 54.58 148.149 54.244 148.005 54.036C147.877 53.812 147.709 53.7 147.501 53.7C147.181 53.7 146.853 53.932 146.517 54.396C146.181 54.86 146.013 55.444 146.013 56.148C146.013 56.612 146.077 57.084 146.205 57.564C146.349 58.028 146.557 58.42 146.829 58.74ZM152.93 62.724C152.178 62.724 151.578 62.556 151.13 62.22C150.698 61.9 150.394 61.5 150.218 61.02C150.026 60.54 149.93 60.06 149.93 59.58C149.93 59.1 149.994 58.732 150.122 58.476C150.25 58.22 150.402 58.028 150.578 57.9C150.77 57.772 150.946 57.676 151.106 57.612C151.282 57.548 151.402 57.484 151.466 57.42C151.946 56.892 152.386 56.34 152.786 55.764C153.186 55.188 153.538 54.58 153.842 53.94V53.652C153.842 53.06 153.938 52.644 154.13 52.404C154.338 52.148 154.554 52.02 154.778 52.02C154.906 52.02 155.002 52.052 155.066 52.116C155.13 52.18 155.162 52.252 155.162 52.332C155.162 52.412 155.138 52.54 155.09 52.716C155.042 52.892 155.018 53.116 155.018 53.388C155.018 53.916 155.122 54.492 155.33 55.116C155.538 55.724 155.746 56.372 155.954 57.06C156.162 57.732 156.266 58.436 156.266 59.172C156.266 59.38 156.25 59.588 156.218 59.796C156.202 59.988 156.17 60.172 156.122 60.348C156.682 60.252 157.21 60.004 157.706 59.604C158.202 59.188 158.682 58.532 159.146 57.636L159.362 57.876C159.058 58.756 158.602 59.428 157.994 59.892C157.386 60.34 156.722 60.62 156.002 60.732C155.746 61.42 155.338 61.924 154.778 62.244C154.234 62.564 153.618 62.724 152.93 62.724ZM152.978 61.884C153.17 61.884 153.426 61.82 153.746 61.692C154.066 61.564 154.314 61.236 154.49 60.708C153.818 60.58 153.218 60.316 152.69 59.916C152.178 59.516 151.794 59.116 151.538 58.716C151.186 58.732 151.01 59.012 151.01 59.556C151.01 60.132 151.178 60.668 151.514 61.164C151.866 61.644 152.354 61.884 152.978 61.884ZM154.61 60.324C154.642 60.164 154.666 59.996 154.682 59.82C154.698 59.644 154.706 59.436 154.706 59.196C154.706 58.444 154.61 57.7 154.418 56.964C154.242 56.212 154.09 55.508 153.962 54.852C153.594 55.46 153.202 56.044 152.786 56.604C152.386 57.148 152.002 57.604 151.634 57.972C151.874 58.484 152.242 58.964 152.738 59.412C153.25 59.86 153.874 60.164 154.61 60.324ZM177.014 62.244C176.454 62.244 176.046 62.068 175.79 61.716C175.534 61.38 175.406 60.972 175.406 60.492C175.406 60.092 175.462 59.692 175.574 59.292C175.702 58.892 175.822 58.5 175.934 58.116C176.062 57.732 176.126 57.388 176.126 57.084C176.126 56.764 176.054 56.54 175.91 56.412C175.766 56.284 175.606 56.22 175.43 56.22C175.03 56.22 174.59 56.532 174.11 57.156C173.646 57.78 173.038 58.66 172.286 59.796C172.03 60.18 171.814 60.572 171.638 60.972C171.462 61.356 171.294 61.708 171.134 62.028C171.006 62.028 170.846 62.012 170.654 61.98C170.462 61.948 170.286 61.892 170.126 61.812C169.982 61.748 169.91 61.66 169.91 61.548C169.91 61.436 169.982 61.172 170.126 60.756C170.286 60.324 170.462 59.828 170.654 59.268C170.862 58.692 171.038 58.116 171.182 57.54C171.342 56.948 171.422 56.444 171.422 56.028C171.422 55.756 171.374 55.54 171.278 55.38C171.198 55.204 171.046 55.116 170.822 55.116C170.47 55.116 170.046 55.332 169.55 55.764C169.054 56.18 168.542 56.732 168.014 57.42C167.486 58.108 166.982 58.868 166.502 59.7C166.038 60.516 165.662 61.332 165.374 62.148C165.23 62.148 165.054 62.124 164.846 62.076C164.638 62.028 164.462 61.964 164.318 61.884C164.158 61.804 164.078 61.724 164.078 61.644C164.078 61.548 164.166 61.268 164.342 60.804C164.502 60.324 164.694 59.756 164.918 59.1C165.126 58.428 165.31 57.748 165.47 57.06C165.646 56.372 165.734 55.764 165.734 55.236C165.83 55.124 165.982 55.012 166.19 54.9C166.398 54.788 166.614 54.732 166.838 54.732C167.062 54.732 167.222 54.788 167.318 54.9C167.43 55.012 167.486 55.164 167.486 55.356C167.486 55.564 167.422 55.924 167.294 56.436C167.182 56.932 167.038 57.484 166.862 58.092C167.182 57.58 167.542 57.06 167.942 56.532C168.358 55.988 168.79 55.492 169.238 55.044C169.686 54.596 170.134 54.236 170.582 53.964C171.046 53.676 171.494 53.532 171.926 53.532C172.422 53.532 172.758 53.716 172.934 54.084C173.126 54.436 173.222 54.86 173.222 55.356C173.222 55.756 173.174 56.18 173.078 56.628C172.998 57.06 172.902 57.468 172.79 57.852C172.678 58.22 172.574 58.516 172.478 58.74C172.814 58.132 173.182 57.548 173.582 56.988C173.998 56.412 174.446 55.948 174.926 55.596C175.406 55.228 175.918 55.044 176.462 55.044C176.974 55.044 177.326 55.196 177.518 55.5C177.726 55.804 177.83 56.164 177.83 56.58C177.83 56.996 177.758 57.452 177.614 57.948C177.47 58.444 177.318 58.924 177.158 59.388C177.014 59.852 176.942 60.252 176.942 60.588C176.942 60.796 176.99 60.988 177.086 61.164C177.198 61.324 177.39 61.404 177.662 61.404C178.11 61.404 178.526 61.204 178.91 60.804C179.31 60.388 179.678 59.892 180.014 59.316C180.35 58.724 180.638 58.156 180.878 57.612L181.166 57.948C180.91 58.62 180.582 59.292 180.182 59.964C179.782 60.62 179.31 61.164 178.766 61.596C178.238 62.028 177.654 62.244 177.014 62.244ZM181.586 62.628C181.09 62.628 180.674 62.46 180.338 62.124C179.986 61.804 179.81 61.308 179.81 60.636C179.81 60.06 179.938 59.444 180.194 58.788C180.45 58.116 180.802 57.46 181.25 56.82C181.698 56.164 182.202 55.572 182.762 55.044C183.338 54.5 183.938 54.068 184.562 53.748C185.202 53.428 185.834 53.268 186.458 53.268C187.082 53.268 187.602 53.436 188.018 53.772C188.434 54.092 188.642 54.524 188.642 55.068C188.642 55.468 188.53 55.74 188.306 55.884C188.098 56.028 187.818 56.1 187.466 56.1C187.498 55.972 187.522 55.836 187.538 55.692C187.57 55.532 187.586 55.388 187.586 55.26C187.586 54.892 187.498 54.58 187.322 54.324C187.146 54.052 186.842 53.916 186.41 53.916C185.962 53.916 185.506 54.076 185.042 54.396C184.578 54.7 184.13 55.116 183.698 55.644C183.266 56.156 182.882 56.716 182.546 57.324C182.21 57.932 181.946 58.532 181.754 59.124C181.562 59.716 181.466 60.244 181.466 60.708C181.466 61.332 181.682 61.644 182.114 61.644C182.482 61.644 182.882 61.476 183.314 61.14C183.746 60.788 184.186 60.348 184.634 59.82C185.098 59.276 185.538 58.716 185.954 58.14C186.37 57.564 186.738 57.036 187.058 56.556C187.122 56.46 187.162 56.412 187.178 56.412C187.274 56.428 187.394 56.46 187.538 56.508C187.698 56.556 187.834 56.62 187.946 56.7C188.058 56.78 188.114 56.884 188.114 57.012C188.114 57.156 188.042 57.356 187.898 57.612C187.754 57.852 187.594 58.132 187.418 58.452C187.242 58.772 187.082 59.1 186.938 59.436C186.794 59.756 186.722 60.06 186.722 60.348C186.722 60.588 186.786 60.828 186.914 61.068C187.042 61.292 187.25 61.404 187.538 61.404C187.97 61.404 188.538 61.092 189.242 60.468C189.946 59.828 190.658 58.876 191.378 57.612L191.618 57.852C191.282 58.716 190.85 59.476 190.322 60.132C189.794 60.788 189.226 61.3 188.618 61.668C188.026 62.036 187.442 62.22 186.866 62.22C186.274 62.22 185.834 62.044 185.546 61.692C185.274 61.34 185.138 60.956 185.138 60.54C185.138 60.444 185.146 60.34 185.162 60.228C185.178 60.1 185.194 59.972 185.21 59.844C184.522 60.772 183.89 61.468 183.314 61.932C182.754 62.396 182.178 62.628 181.586 62.628ZM191.799 68.22C191.447 68.22 191.127 68.108 190.839 67.884C190.551 67.676 190.407 67.324 190.407 66.828C190.407 66.348 190.559 65.9 190.863 65.484C191.151 65.084 191.527 64.708 191.991 64.356C192.455 64.02 192.959 63.708 193.503 63.42C194.063 63.132 194.591 62.86 195.087 62.604C195.311 62.044 195.519 61.444 195.711 60.804C195.919 60.148 196.119 59.428 196.311 58.644C195.703 59.524 195.063 60.26 194.391 60.852C193.735 61.428 193.071 61.716 192.399 61.716C191.823 61.716 191.375 61.5 191.055 61.068C190.751 60.636 190.599 60.076 190.599 59.388C190.599 58.556 190.799 57.764 191.199 57.012C191.615 56.26 192.151 55.596 192.807 55.02C193.463 54.444 194.159 53.996 194.895 53.676C195.631 53.34 196.319 53.172 196.959 53.172C197.423 53.172 197.751 53.252 197.943 53.412C198.151 53.556 198.255 53.732 198.255 53.94C198.255 54.084 198.215 54.196 198.135 54.276C198.055 54.356 197.999 54.404 197.967 54.42C197.887 54.292 197.767 54.204 197.607 54.156C197.447 54.092 197.247 54.06 197.007 54.06C196.383 54.06 195.775 54.244 195.183 54.612C194.607 54.98 194.095 55.452 193.647 56.028C193.199 56.604 192.839 57.204 192.567 57.828C192.311 58.436 192.183 58.996 192.183 59.508C192.183 59.892 192.255 60.188 192.399 60.396C192.559 60.588 192.767 60.684 193.023 60.684C193.487 60.684 194.039 60.38 194.679 59.772C195.335 59.148 195.967 58.396 196.575 57.516C196.623 57.292 196.663 57.092 196.695 56.916C196.743 56.74 196.799 56.516 196.863 56.244C196.911 56.02 197.023 55.764 197.199 55.476C197.391 55.172 197.687 55.02 198.087 55.02C198.167 55.02 198.247 55.028 198.327 55.044C198.407 55.044 198.495 55.06 198.591 55.092C198.591 55.348 198.511 55.82 198.351 56.508C198.207 57.18 197.991 57.972 197.703 58.884C197.431 59.78 197.111 60.708 196.743 61.668C197.271 61.412 197.783 61.084 198.279 60.684C198.791 60.284 199.255 59.828 199.671 59.316C200.087 58.788 200.415 58.22 200.655 57.612L200.967 57.852C200.727 58.572 200.343 59.228 199.815 59.82C199.287 60.412 198.719 60.924 198.111 61.356C197.519 61.788 196.975 62.124 196.479 62.364C196.031 63.436 195.559 64.412 195.063 65.292C194.567 66.188 194.047 66.9 193.503 67.428C192.975 67.956 192.407 68.22 191.799 68.22ZM191.727 67.452C192.047 67.452 192.479 67.132 193.023 66.492C193.583 65.868 194.183 64.788 194.823 63.252C194.183 63.572 193.583 63.9 193.023 64.236C192.479 64.588 192.031 64.956 191.679 65.34C191.327 65.724 191.151 66.148 191.151 66.612C191.151 66.868 191.207 67.068 191.319 67.212C191.431 67.372 191.567 67.452 191.727 67.452ZM207.967 61.98C207.407 61.98 206.983 61.836 206.695 61.548C206.423 61.26 206.287 60.892 206.287 60.444C206.287 60.108 206.343 59.756 206.455 59.388C206.583 59.02 206.703 58.644 206.815 58.26C206.927 57.86 206.983 57.476 206.983 57.108C206.983 56.66 206.887 56.356 206.695 56.196C206.519 56.02 206.295 55.932 206.023 55.932C205.527 55.932 205.023 56.14 204.511 56.556C203.999 56.956 203.503 57.476 203.023 58.116C202.543 58.74 202.095 59.388 201.679 60.06C201.263 60.732 200.895 61.332 200.575 61.86C200.319 61.86 200.079 61.812 199.855 61.716C199.615 61.636 199.431 61.508 199.303 61.332C199.303 61.252 199.391 61.004 199.567 60.588C199.727 60.172 199.919 59.66 200.143 59.052C200.367 58.444 200.567 57.82 200.743 57.18C200.919 56.54 201.007 55.956 201.007 55.428C201.103 55.316 201.255 55.204 201.463 55.092C201.671 54.98 201.887 54.924 202.111 54.924C202.543 54.924 202.759 55.132 202.759 55.548C202.759 55.804 202.687 56.236 202.543 56.844C202.399 57.436 202.215 58.06 201.991 58.716C202.423 58.06 202.903 57.412 203.431 56.772C203.975 56.116 204.551 55.572 205.159 55.14C205.767 54.708 206.375 54.492 206.983 54.492C207.607 54.492 208.055 54.716 208.327 55.164C208.615 55.612 208.759 56.108 208.759 56.652C208.759 57.148 208.679 57.612 208.519 58.044C208.359 58.46 208.191 58.868 208.015 59.268C207.855 59.652 207.775 60.044 207.775 60.444C207.775 60.78 207.839 61.02 207.967 61.164C208.111 61.292 208.287 61.356 208.495 61.356C208.895 61.356 209.295 61.172 209.695 60.804C210.095 60.42 210.479 59.94 210.847 59.364C211.231 58.788 211.567 58.204 211.855 57.612L212.119 57.924C211.783 58.708 211.407 59.404 210.991 60.012C210.575 60.62 210.119 61.1 209.623 61.452C209.127 61.804 208.575 61.98 207.967 61.98ZM213.123 62.124C212.499 62.124 212.035 61.924 211.731 61.524C211.427 61.14 211.275 60.668 211.275 60.108C211.275 59.74 211.339 59.276 211.467 58.716C211.611 58.156 211.795 57.572 212.019 56.964C212.243 56.34 212.499 55.756 212.787 55.212C213.091 54.668 213.411 54.228 213.747 53.892C214.083 53.54 214.411 53.364 214.731 53.364C214.875 53.364 214.995 53.412 215.091 53.508C215.203 53.588 215.259 53.716 215.259 53.892C215.259 54.084 215.131 54.396 214.875 54.828C214.635 55.26 214.347 55.756 214.011 56.316C213.675 56.876 213.379 57.468 213.123 58.092C212.883 58.7 212.763 59.284 212.763 59.844C212.763 60.42 212.859 60.804 213.051 60.996C213.243 61.188 213.539 61.284 213.939 61.284C214.483 61.284 215.059 61.012 215.667 60.468C216.291 59.924 216.947 58.972 217.635 57.612L217.851 57.852C217.387 59.228 216.715 60.284 215.835 61.02C214.971 61.756 214.067 62.124 213.123 62.124ZM215.667 51.636C215.555 51.572 215.467 51.468 215.403 51.324C215.355 51.18 215.331 51.076 215.331 51.012C215.331 50.868 215.411 50.644 215.571 50.34C215.747 50.02 215.963 49.692 216.219 49.356C216.475 49.004 216.747 48.708 217.035 48.468C217.323 48.228 217.587 48.108 217.827 48.108C217.955 48.108 218.067 48.164 218.163 48.276C218.275 48.372 218.339 48.564 218.355 48.852C217.779 49.348 217.275 49.82 216.843 50.268C216.411 50.716 216.019 51.172 215.667 51.636ZM216.872 68.22C216.712 68.22 216.528 68.164 216.32 68.052C216.112 67.956 215.936 67.756 215.792 67.452C215.632 67.148 215.552 66.7 215.552 66.108C215.552 65.404 215.672 64.484 215.912 63.348C216.152 62.228 216.48 60.988 216.896 59.628C217.312 58.268 217.792 56.876 218.336 55.452C218.88 54.012 219.464 52.628 220.088 51.3C220.728 49.956 221.376 48.756 222.032 47.7C222.704 46.628 223.36 45.78 224 45.156C224.64 44.532 225.248 44.22 225.824 44.22C226.16 44.22 226.376 44.324 226.472 44.532C226.584 44.74 226.64 44.98 226.64 45.252C226.64 45.94 226.448 46.692 226.064 47.508C225.696 48.324 225.2 49.148 224.576 49.98C223.968 50.812 223.28 51.596 222.512 52.332C221.76 53.068 221 53.708 220.232 54.252C220.168 54.412 220.096 54.588 220.016 54.78C219.952 54.956 219.888 55.132 219.824 55.308C220.08 55.404 220.264 55.604 220.376 55.908C220.6 56.644 220.904 57.172 221.288 57.492C221.672 57.796 222.088 57.948 222.536 57.948C223.048 57.948 223.568 57.796 224.096 57.492C224.64 57.172 225.12 56.804 225.536 56.388C225.76 55.86 226.008 55.364 226.28 54.9C226.552 54.436 226.84 54.068 227.144 53.796C227.448 53.508 227.744 53.364 228.032 53.364C228.176 53.364 228.296 53.412 228.392 53.508C228.504 53.588 228.56 53.716 228.56 53.892C228.56 54.084 228.432 54.396 228.176 54.828C227.936 55.26 227.648 55.756 227.312 56.316C226.976 56.876 226.68 57.468 226.424 58.092C226.184 58.7 226.064 59.284 226.064 59.844C226.064 60.42 226.16 60.804 226.352 60.996C226.544 61.188 226.84 61.284 227.24 61.284C227.784 61.284 228.36 61.012 228.968 60.468C229.592 59.924 230.248 58.972 230.936 57.612L231.152 57.852C230.688 59.228 230.016 60.284 229.136 61.02C228.272 61.756 227.368 62.124 226.424 62.124C225.8 62.124 225.336 61.924 225.032 61.524C224.728 61.14 224.576 60.668 224.576 60.108C224.576 59.788 224.624 59.388 224.72 58.908C224.832 58.412 224.976 57.9 225.152 57.372C224.704 57.74 224.216 58.036 223.688 58.26C223.16 58.468 222.64 58.572 222.128 58.572C221.888 58.572 221.624 58.54 221.336 58.476C221.048 58.412 220.76 58.316 220.472 58.188C220.504 58.444 220.528 58.708 220.544 58.98C220.56 59.236 220.568 59.484 220.568 59.724C220.568 60.732 220.464 61.732 220.256 62.724C220.048 63.732 219.768 64.652 219.416 65.484C219.064 66.316 218.664 66.98 218.216 67.476C217.784 67.972 217.336 68.22 216.872 68.22ZM217.496 67.068C217.72 67.068 217.968 66.828 218.24 66.348C218.528 65.884 218.8 65.276 219.056 64.524C219.312 63.772 219.52 62.964 219.68 62.1C219.856 61.236 219.944 60.42 219.944 59.652C219.944 59.396 219.936 59.1 219.92 58.764C219.904 58.428 219.84 58.1 219.728 57.78C219.632 57.444 219.464 57.18 219.224 56.988C218.792 58.204 218.408 59.396 218.072 60.564C217.752 61.716 217.496 62.756 217.304 63.684C217.128 64.612 217.04 65.356 217.04 65.916C217.04 66.684 217.192 67.068 217.496 67.068ZM220.616 53.268C221.656 52.308 222.552 51.348 223.304 50.388C224.072 49.412 224.664 48.548 225.08 47.796C225.496 47.028 225.704 46.484 225.704 46.164C225.704 45.94 225.592 45.828 225.368 45.828C224.952 45.828 224.48 46.172 223.952 46.86C223.424 47.532 222.872 48.428 222.296 49.548C221.72 50.668 221.16 51.908 220.616 53.268ZM229.304 51.132C229.048 51.132 228.816 51.068 228.608 50.94C228.416 50.812 228.32 50.612 228.32 50.34C228.32 50.116 228.408 49.908 228.584 49.716C228.776 49.524 229.008 49.372 229.28 49.26C229.552 49.148 229.816 49.092 230.072 49.092C230.312 49.092 230.504 49.148 230.648 49.26C230.792 49.372 230.864 49.564 230.864 49.836C230.864 50.14 230.696 50.436 230.36 50.724C230.04 50.996 229.688 51.132 229.304 51.132ZM233.064 62.844C232.296 62.844 231.656 62.588 231.144 62.076C230.632 61.564 230.376 60.796 230.376 59.772C230.376 58.972 230.528 58.196 230.832 57.444C231.152 56.676 231.568 55.988 232.08 55.38C232.592 54.772 233.16 54.292 233.784 53.94C234.408 53.572 235.024 53.388 235.632 53.388C236.288 53.388 236.736 53.58 236.976 53.964C237.216 54.348 237.336 54.748 237.336 55.164C237.336 55.628 237.224 56.036 237 56.388C236.792 56.74 236.504 56.916 236.136 56.916C235.864 56.916 235.632 56.796 235.44 56.556C235.68 56.428 235.888 56.172 236.064 55.788C236.24 55.388 236.328 55.012 236.328 54.66C236.328 54.468 236.288 54.324 236.208 54.228C236.144 54.116 236.008 54.06 235.8 54.06C235.368 54.06 234.92 54.252 234.456 54.636C234.008 55.02 233.584 55.516 233.184 56.124C232.8 56.732 232.48 57.372 232.224 58.044C231.984 58.716 231.864 59.348 231.864 59.94C231.864 60.436 231.984 60.892 232.224 61.308C232.464 61.724 232.928 61.932 233.616 61.932C234.256 61.932 234.896 61.756 235.536 61.404C236.192 61.052 236.8 60.548 237.36 59.892C237.92 59.236 238.368 58.468 238.704 57.588L239.016 57.828C238.648 58.788 238.144 59.652 237.504 60.42C236.864 61.172 236.16 61.764 235.392 62.196C234.624 62.628 233.848 62.844 233.064 62.844ZM239.91 62.268C239.222 62.268 238.734 62.052 238.446 61.62C238.158 61.204 238.014 60.692 238.014 60.084C238.014 59.588 238.094 59.076 238.254 58.548C238.414 58.02 238.622 57.524 238.878 57.06C239.15 56.596 239.446 56.22 239.766 55.932C240.102 55.644 240.438 55.5 240.774 55.5C240.854 55.5 240.934 55.516 241.014 55.548C241.11 55.564 241.198 55.588 241.278 55.62C241.134 55.748 240.958 55.988 240.75 56.34C240.558 56.676 240.374 57.068 240.198 57.516C240.022 57.948 239.87 58.38 239.742 58.812C239.63 59.244 239.574 59.612 239.574 59.916C239.574 60.396 239.654 60.748 239.814 60.972C239.974 61.18 240.182 61.284 240.438 61.284C240.774 61.284 241.174 61.108 241.638 60.756C242.102 60.388 242.558 59.924 243.006 59.364C242.558 58.996 242.206 58.516 241.95 57.924C241.71 57.316 241.59 56.7 241.59 56.076C241.59 55.548 241.678 55.052 241.854 54.588C242.046 54.124 242.318 53.756 242.67 53.484C243.022 53.196 243.446 53.052 243.942 53.052C244.598 53.052 245.038 53.228 245.262 53.58C245.486 53.932 245.598 54.372 245.598 54.9C245.598 55.524 245.446 56.22 245.142 56.988C244.838 57.74 244.454 58.468 243.99 59.172C244.278 59.332 244.582 59.412 244.902 59.412C245.158 59.412 245.446 59.364 245.766 59.268C246.086 59.156 246.398 58.972 246.702 58.716C247.022 58.46 247.278 58.116 247.47 57.684L247.758 57.924C247.438 58.676 246.982 59.212 246.39 59.532C245.814 59.836 245.262 59.988 244.734 59.988C244.526 59.988 244.326 59.972 244.134 59.94C243.942 59.892 243.758 59.828 243.582 59.748C243.038 60.468 242.438 61.068 241.782 61.548C241.142 62.028 240.518 62.268 239.91 62.268ZM243.438 58.74C243.838 58.148 244.166 57.532 244.422 56.892C244.694 56.236 244.83 55.62 244.83 55.044C244.83 54.58 244.758 54.244 244.614 54.036C244.486 53.812 244.318 53.7 244.11 53.7C243.79 53.7 243.462 53.932 243.126 54.396C242.79 54.86 242.622 55.444 242.622 56.148C242.622 56.612 242.686 57.084 242.814 57.564C242.958 58.028 243.166 58.42 243.438 58.74ZM249.54 62.724C248.788 62.724 248.188 62.556 247.74 62.22C247.308 61.9 247.004 61.5 246.828 61.02C246.636 60.54 246.54 60.06 246.54 59.58C246.54 59.1 246.604 58.732 246.732 58.476C246.86 58.22 247.012 58.028 247.188 57.9C247.38 57.772 247.556 57.676 247.716 57.612C247.892 57.548 248.012 57.484 248.076 57.42C248.556 56.892 248.996 56.34 249.396 55.764C249.796 55.188 250.148 54.58 250.452 53.94V53.652C250.452 53.06 250.548 52.644 250.74 52.404C250.948 52.148 251.164 52.02 251.388 52.02C251.516 52.02 251.612 52.052 251.676 52.116C251.74 52.18 251.772 52.252 251.772 52.332C251.772 52.412 251.748 52.54 251.7 52.716C251.652 52.892 251.628 53.116 251.628 53.388C251.628 53.916 251.732 54.492 251.94 55.116C252.148 55.724 252.356 56.372 252.564 57.06C252.772 57.732 252.876 58.436 252.876 59.172C252.876 59.38 252.86 59.588 252.828 59.796C252.812 59.988 252.78 60.172 252.732 60.348C253.292 60.252 253.82 60.004 254.316 59.604C254.812 59.188 255.292 58.532 255.756 57.636L255.972 57.876C255.668 58.756 255.212 59.428 254.604 59.892C253.996 60.34 253.332 60.62 252.612 60.732C252.356 61.42 251.948 61.924 251.388 62.244C250.844 62.564 250.228 62.724 249.54 62.724ZM249.588 61.884C249.78 61.884 250.036 61.82 250.356 61.692C250.676 61.564 250.924 61.236 251.1 60.708C250.428 60.58 249.828 60.316 249.3 59.916C248.788 59.516 248.404 59.116 248.148 58.716C247.796 58.732 247.62 59.012 247.62 59.556C247.62 60.132 247.788 60.668 248.124 61.164C248.476 61.644 248.964 61.884 249.588 61.884ZM251.22 60.324C251.252 60.164 251.276 59.996 251.292 59.82C251.308 59.644 251.316 59.436 251.316 59.196C251.316 58.444 251.22 57.7 251.028 56.964C250.852 56.212 250.7 55.508 250.572 54.852C250.204 55.46 249.812 56.044 249.396 56.604C248.996 57.148 248.612 57.604 248.244 57.972C248.484 58.484 248.852 58.964 249.348 59.412C249.86 59.86 250.484 60.164 251.22 60.324ZM256.253 61.74C256.045 61.74 255.861 61.684 255.701 61.572C255.557 61.476 255.485 61.316 255.485 61.092C255.485 60.916 255.557 60.756 255.701 60.612C255.845 60.452 256.021 60.332 256.229 60.252C256.453 60.156 256.669 60.108 256.877 60.108C257.069 60.108 257.221 60.148 257.333 60.228C257.445 60.308 257.501 60.46 257.501 60.684C257.501 60.844 257.437 61.004 257.309 61.164C257.197 61.324 257.045 61.46 256.853 61.572C256.661 61.684 256.461 61.74 256.253 61.74Z" fill="black"/>
</g>
<defs>
<filter id="filter0_d_105_3" x="0.5" y="0.5" width="297" height="82" filterUnits="userSpaceOnUse" color-interpolation-filters="sRGB">
<feFlood flood-opacity="0" result="BackgroundImageFix"/>
<feColorMatrix in="SourceAlpha" type="matrix" values="0 0 0 0 0 0 0 0 0 0 0 0 0 0 0 0 0 0 127 0" result="hardAlpha"/>
<feOffset dx="2" dy="2"/>
<feGaussianBlur stdDeviation="1"/>
<feComposite in2="hardAlpha" operator="out"/>
<feColorMatrix type="matrix" values="0 0 0 0 0.333333 0 0 0 0 0.333333 0 0 0 0 0.333333 0 0 0 0.5 0"/>
<feBlend mode="normal" in2="BackgroundImageFix" result="effect1_dropShadow_105_3"/>
<feBlend mode="normal" in="SourceGraphic" in2="effect1_dropShadow_105_3" result="shape"/>
</filter>
</defs>
</svg>
